<svg xmlns="http://www.w3.org/2000/svg" viewBox="0 0 1020 628"><defs><style>.cls-1{fill:#c3d4fc;}.cls-2,.cls-4,.cls-9{fill:blue;}.cls-3{fill:#efefef;}.cls-4{font-size:25.56px;font-family:NeueHaasUnicaPro-Regular, Neue Haas Unica Pro;}.cls-5{letter-spacing:-0.02em;}.cls-6{letter-spacing:0.01em;}.cls-7{letter-spacing:-0.01em;}.cls-8{letter-spacing:-0.02em;}.cls-9{font-size:53.25px;font-family:NeueHaasUnicaPro-Bold, Neue Haas Unica Pro;font-weight:700;}.cls-10{letter-spacing:-0.03em;}.cls-11{letter-spacing:0.01em;}.cls-12{font-size:42.6px;}.cls-13{letter-spacing:-0.01em;}.cls-14{letter-spacing:-0.01em;}.cls-15{letter-spacing:0.01em;}.cls-16{letter-spacing:0em;}.cls-17{letter-spacing:-0.03em;}.cls-18{fill:none;stroke:blue;stroke-miterlimit:10;stroke-width:4px;}.cls-19{fill:#fff;}.cls-20{fill:#486afc;}.cls-21{fill:#f2f2f2;}.cls-22{fill:#7594f9;}.cls-23{fill:#ffe368;}.cls-24{opacity:0.89;}</style></defs><title>zahlavi_bile_vystupy_novyvizual</title><g id="Vrstva_14" data-name="Vrstva 14"><polygon class="cls-1" points="-10.57 572.65 1036.53 561.27 1036.53 0 -10.57 0 -10.57 572.65"/><rect class="cls-2" x="64.9" y="0.53" width="188.81" height="102.91"/><circle class="cls-3" cx="992.48" cy="389.16" r="1.8"/><path class="cls-3" d="M964.9,392.12a1.15,1.15,0,0,0,1.16-1.16,1.16,1.16,0,1,0-1.16,1.16Z"/><path class="cls-3" d="M995.58,402.44a1.42,1.42,0,1,0-1.42-1.43A1.43,1.43,0,0,0,995.58,402.44Z"/><path class="cls-3" d="M962.32,402.05a1.68,1.68,0,1,0-1.67-1.67A1.68,1.68,0,0,0,962.32,402.05Z"/><path class="cls-3" d="M995.83,404.63a1,1,0,0,0,1,1,1,1,0,0,0,1-1,1,1,0,0,0-1-1A1,1,0,0,0,995.83,404.63Z"/><path class="cls-3" d="M992.48,400.24a1.81,1.81,0,1,0,1.8,1.81A1.8,1.8,0,0,0,992.48,400.24Z"/><path class="cls-3" d="M968.68,412.87a2.62,2.62,0,1,0-2.62,2.62A2.61,2.61,0,0,0,968.68,412.87Z"/><path class="cls-3" d="M990.68,412.87a1.8,1.8,0,1,0,1.8-1.8A1.8,1.8,0,0,0,990.68,412.87Z"/><path class="cls-3" d="M961.94,405.36a1.51,1.51,0,1,0-1.51-1.51A1.51,1.51,0,0,0,961.94,405.36Z"/><path class="cls-3" d="M961.3,412.87a1,1,0,0,0,1,1,1,1,0,1,0-1-1Z"/><path class="cls-3" d="M1898.5,546.67,1141.43,546l-30.76-20.87H990.17V434.78c4.07-.68,6.7-1.76,6.7-3s-2.63-2.27-6.7-2.95v-6.14c4.07-.74,6.7-1.9,6.7-3.2,0-.52-.43-1-1.21-1.48a1.93,1.93,0,1,0-2.53-1.83,2.1,2.1,0,0,0,.2.87,28.36,28.36,0,0,0-3.16-.76v-5.88c4.07-.78,6.7-2,6.7-3.34s-2.63-2.56-6.7-3.32v-5.4a21.11,21.11,0,0,0,4.18-1.22,1.21,1.21,0,0,0-.07.37,1.3,1.3,0,0,0,2.59,0,1.29,1.29,0,0,0-1-1.24,1.94,1.94,0,0,0,1-1.47c0-.61-.47-1.18-1.28-1.7l.24,0a1.16,1.16,0,1,0-1.16-1.15,1.19,1.19,0,0,0,.32.79,25.13,25.13,0,0,0-7.52-2,4.37,4.37,0,0,0-3-7.59l-.33,0c-1-2.49-1.79-4.53-1.79-4.53v-2.28h1.23v-.62h-1.23v-4.57h1.22v-.63h-1.22V366h1.22v-.62h-1.22v-4.58h1.22v-.64h-1.22v-4.57h1.22V355h-1.22v-4.62h1.22v-.63h-1.22v-4.62h1.22v-.62h-1.22v-4.63h1.22v-.62h-1.22V337H981v0l-1.46,1.45v-1.52h.34v-2.85h-.62v-.57h.62v-2.85h-.62v-.6h.62v-2.83h-.62v-.6h.62v-2.85h-.62V323h.62v-2.85h-2V323h.62v.76h-.62v2.85h.62v.6h-.62v2.83h.62v.6h-.62v2.85h.62v.57h-.62v2.85h.32v1.52L976.75,337v0H975.4v2.3h-1.22v.62h1.22v4.63h-1.22v.62h1.22v4.62h-1.22v.63h1.22V355h-1.22v.63h1.22v4.57h-1.22v.64h1.22v4.58h-1.22V366h1.22v4.58h-1.22v.63h1.22v4.57h-1.19v.62h1.19v2.28l-2.66,6.72a3,3,0,1,0-2.09,5.14l-.17.42c-4.9.79-8.16,2.21-8.16,3.83,0,1.45,2.63,2.74,6.71,3.56V400a2.57,2.57,0,1,0-2.61,4.4c-2.55.73-4.1,1.68-4.1,2.71,0,1.36,2.63,2.56,6.71,3.34v5.88c-4.08.75-6.71,1.9-6.71,3.2S965,422,969,422.73v6.14c-4.08.68-6.71,1.74-6.71,2.95s2.63,2.28,6.71,3v90.31H950.7V484.56l-5.92-9.88v-5.92l-4.94-3.46-16.79-31.59-11.36,1.21V391.24H910V380.87h-.86v-13h-3v13h-.87v10.37h-1.73v-32.1h-2v-8.7h-5.1l-5.1-105.76a3.14,3.14,0,0,0-.3-6.26l-.05-1.11,0,1.11a3.14,3.14,0,0,0-.25,6.26l-4.27,105.76h-6v8.7h-2v31.11h-1.6V379.89H876v-13h-3v13h-.86v10.36h-1.72v16.27l-8.15-9.85-6.54.84V383.83h-1.73V373.47h-.87v-13h-3v13h-.86v10.36h-1.73V351.74h-2V343h-5.12l-5.09-105.76a3.14,3.14,0,0,0-.29-6.26l-.06-1.11,0,1.11a3.14,3.14,0,0,0-.26,6.26L830.53,343h-6v8.7h-2v31.11H821V372.48h-.86v-13h-3v13h-.87v10.37h-1.73V402.8L777,407.6c-.42-4-.76-7.47-.76-7.47l-.94,7.69-1.16.15v-7.35l-3-7-1.39-14.46-.86,14.91-3.59,4.35v16l-2,2.73c-.51-7.27-1.11-15.61-1.11-15.61,0,.37-.85,11.07-1.5,19.22l-5.87,8.12c-.92-9-1.76-18.57-1.76-18.57L749.63,436l-15.71,21.75c-.64-2.75-1.21-5.33-1.21-5.33-.07.39-.6,3.88-1.1,7.14l-2.12-16c0,.48-.34,7.76-.69,15.22l-.78-6.34-1.82,16-1.64,2.28v8.39l-3,6.92v39H629.84l-102,15h0l-56.82-35.29H431.63l-.18-7.21,1.12-.18-11.75-5.23-6.07-.51v-2.64h-1.26v2.54l-8.38-.71-1.51-2.39h-1.17v-.63h-1.26v.63h-5.31V486h-3.32v2.49H389.6V486.7h-1.91v1.79H384v-2.24h-2v2.24h-1v-2.24H380v2.24H376.6l-7.5-.63V485h-1.89v2.71l-2-.16-9.85-5.38-10.54-.85v-2h-1.12v1.9l-1.85-.15-4.41,2.07h-3.36l-.87.91-1.33-.7v-9.48l.49,0v-1.22l-.67,0-1.5-2.59-1.54-1.29v-1.3l-.46-2.62h-.73l-.74,2.66v1.29l-1.64,1.44-1.47,2.38h-.32l0,1h.34v9l-3.08-.14v1.12l-2-.07v-.7h-2.75V468.92h-.7V472h-.66v4.24h.66v6l-12.48-9.5-5.84,0-3.22,2.1-2.8-.07-2.59-2.8H264.19l-12.32,12h.91v6.72l-1.4,1.68V501l-6.65-.07v-4h1.78l-7.23-5.47v-2.23H238v1.24l-6.77-5.11h-3.36v-1.64h-2.7v1.64h-6.35v-1.64h-2.7v1.64H209v-1.64h-2.71v1.64h-6.11v-1.64h-2.71v1.64h-2.38l-15.68,11v8.51L-27,515.21l4.72,2.74-62.27-6.66-58.52-.44.36-19-58.07,0v-4.93h-2.54V470h1v-9.45a20.36,20.36,0,0,0-11.37-18.24v-3.2h-17.89v3.2a20.32,20.32,0,0,0-11.37,18.24V470h1.05v16.93h-2.56v4.93h-8.94V432.56h-9.32A19.65,19.65,0,0,0-276,422.12v-1.66h-2.73v-.68h-3.09v.68h-2.73v1.66a19.65,19.65,0,0,0-14.69,14.07h-10.85v4.73h-13.83v-13.1h-16.72v-4.24H-355.2v4.24h-4v13.1H-383v-6.18h-2.43v6.18h-1.34v-6.18h-2.42v6.18h-3.14v-8.36h-5.45a48.11,48.11,0,0,0-35.58-32.37v-3.47h-4.08v-1.08h-12.17v1.08h-4.08v3.47a48.13,48.13,0,0,0-35.59,32.37h-5.27v5.81h-80.2v55.06l-197.11-.17v3.14l0,49.83H-1339.9v87.92l1789.42-5.43,1449,5.43ZM-468.77,495.84h-7.89v-18.9h7.89Zm9.72,0H-467v-18.9H-459Zm9.72,0h-7.93v-18.9h7.93Zm9.71,0h-7.92v-18.9h7.92Zm9.72,0h-7.92v-18.9h7.92Zm9.72,0h-7.93v-18.9h7.93Zm9.7,0h-7.91v-18.9h7.91Zm23.07-7.88h-4.88V471.85h4.88Zm6.44,0h-4.89V471.85H-381Zm6.45,0h-4.9V471.85h4.9Zm6.44,0H-373V471.85h4.89Zm6.45,0h-4.9V471.85h4.9Zm6.44,0h-4.9V471.85h4.9Zm6.44,0h-4.89V471.85h4.89Zm6.45,0h-4.9V471.85h4.9Zm6.43,0h-4.9V471.85h4.9Zm6.44,0h-4.89V471.85h4.89Zm6.45,0h-4.9V471.85h4.9Zm6.44,0h-4.89V471.85h4.89Zm6.45,0H-315V471.85h4.9Zm48.66,5H-301.1v-16h39.67Zm1241.1-111,.61,1.37-.49,3.08C979.75,384.86,979.7,383.27,979.67,381.93Zm3.3,1.58-.2.07,0-.68Zm-1.9,6.83h-1l.24-1.27A4.23,4.23,0,0,0,981.07,390.34Zm-.05-13.9v1.35l-1.35-1.35Zm-1.39-.62,1.39-1.39v1.39Zm1.39-4.57v1.36l-1.38-1.36Zm-1.38-.63,1.38-1.38v1.38ZM981,366v1.37L979.64,366Zm-1.38-.62L981,364v1.38Zm1.38-4.58v1.37l-1.38-1.37Zm-1.38-.64,1.38-1.36v1.36Zm1.38-4.57V357l-1.38-1.37Zm-1.38-.63,1.38-1.36V355Zm1.38-4.62v1.37l-1.38-1.37Zm-1.38-.63,1.38-1.36v1.36Zm1.38-4.62v1.38l-1.38-1.38Zm-1.38-.62,1.38-1.37v1.37Zm1.38-6.62v1.37h-1.38Zm0,2v1.38l-1.38-1.38Zm-1.46.81,1.46,1.46v.1l-1.46,1.45Zm0,5.25L981,347.4v.1L979.56,349Zm0,5.25,1.46,1.46v.1l-1.46,1.45Zm0,5.25,1.46,1.45V358l-1.46,1.45Zm0,5.2L981,363.1v0l-1.46,1.46Zm0,5.2L981,368.3v.05l-1.46,1.46Zm0,5.21L981,373.5v0L979.56,375Zm0,5.18,1.46,1.45v0l-.4,2.52-1.06-2.52Zm-1.25,4.53.32,8.57h0l-1.07-6.67Zm-1.56-43.87,1.37,1.37h-1.37Zm0,2h1.37l-1.37,1.38Zm0,2.27,1.45-1.46v3l-1.45-1.45Zm0,1,1.38,1.37h-1.38Zm0,2h1.37l-1.37,1.38Zm0,2.27,1.45-1.46v3l-1.45-1.45Zm0,1,1.37,1.36h-1.37Zm0,2h1.37l-1.37,1.37Zm0,2.27,1.45-1.46v3l-1.45-1.45Zm0,1,1.38,1.36h-1.38Zm0,2h1.37L976.75,357Zm0,2.26,1.45-1.45v3L976.75,358Zm0,.95,1.38,1.36h-1.38Zm0,2h1.37l-1.37,1.37Zm0,2.26,1.45-1.46v3l-1.45-1.46Zm0,.94,1.38,1.38h-1.38Zm0,2h1.37l-1.37,1.37Zm0,2.26,1.45-1.46v3l-1.45-1.46Zm0,.94,1.38,1.38h-1.38Zm0,2h1.37l-1.37,1.36Zm0,2.25,1.45-1.45V375l-1.45-1.45Zm0,.93,1.39,1.39h-1.39Zm0,2h1.36l-1.36,1.35Zm0,2.24,1.45-1.45v1.49s-.41,1.07-1,2.6l-.42-2.6Zm-.43,4.72v.06a.33.33,0,0,1,0,.06S976.32,383.43,976.32,383.4Zm-.42,4.31.84-2.09.93,4.73c-.7,0-1.38,0-2,.09C975.71,389.67,975.79,388.73,975.9,387.71Zm-3.85,2.54a3,3,0,0,0,1.64-2.64,2.91,2.91,0,0,0-.18-.94l1.54-3.77-.4,4.73c-.45,1.15-.88,2.19-1.21,3-.55.05-1.08.11-1.61.18Z"/><text class="cls-4" transform="translate(571.24 274.77)"><tspan class="cls-5">V</tspan><tspan x="15.52" y="0">í</tspan><tspan class="cls-6" x="21.75" y="0">c</tspan><tspan x="35.56" y="0">e i</tspan><tspan class="cls-7" x="61.73" y="0">n</tspan><tspan class="cls-8" x="76.25" y="0">f</tspan><tspan x="83.66" y="0">o</tspan></text><text class="cls-9" transform="translate(550.43 161.12)">A<tspan class="cls-10" x="37.17" y="0">k</tspan><tspan class="cls-11" x="64.7" y="0">c</tspan><tspan x="94.95" y="0">e na MUNI</tspan><tspan class="cls-12"><tspan x="0" y="51.12">p</tspan><tspan class="cls-13" x="25.48" y="51.12">r</tspan><tspan x="41.67" y="51.12">o st</tspan><tspan class="cls-14" x="114.13" y="51.12">ř</tspan><tspan class="cls-15" x="130.32" y="51.12">e</tspan><tspan x="155.16" y="51.12">d</tspan><tspan class="cls-16" x="180.63" y="51.12">o</tspan><tspan x="205.94" y="51.12">š</tspan><tspan class="cls-17" x="228.26" y="51.12">k</tspan><tspan x="250.29" y="51.12">oláky</tspan></tspan></text><rect class="cls-18" x="551.27" y="246.87" width="142.59" height="40.05" rx="4" ry="4"/><path class="cls-19" d="M99,34.93h5.31V69H99Zm5.51,0h1.8L109.63,69h-1.8Zm8.62,0h1.8L111.63,69h-1.8Zm2,0h5.36V69h-5.36Z"/><path class="cls-19" d="M140.62,34.93V61a3,3,0,0,0,1,2.24,3.14,3.14,0,0,0,4.44,0,3,3,0,0,0,1-2.24V34.93h5.36V61.19a7.28,7.28,0,0,1-1.22,4.09,9,9,0,0,1-3.19,3,8.45,8.45,0,0,1-8.34,0,9,9,0,0,1-3.19-3,7.28,7.28,0,0,1-1.22-4.09V34.93Z"/><path class="cls-19" d="M174.29,34.93V69h-5.36V34.93Zm2.05,0L181.41,69h-1.85l-5.07-34.11Zm10.62,0V69H181.6V34.93Z"/><path class="cls-19" d="M209.33,67.14V36.83h-4.58v-1.9h14.57v1.9h-4.63V67.14h4.63V69H204.75v-1.9Z"/><path class="cls-20" d="M426.54,451c-9.54,0-16.22-2.68-19.23-7.87-4.06-7-.86-17.54,9-29.68,9.64-11.85,24.56-24,42-34.08s35.34-17.09,50.41-19.59c15.45-2.56,26.19-.12,30.26,6.88,8.31,14.31-14.1,42.32-51,63.77-17.44,10.12-35.34,17.08-50.41,19.58A68.37,68.37,0,0,1,426.54,451Zm93.13-89.88a64.44,64.44,0,0,0-10.55.95c-14.8,2.46-32.43,9.31-49.63,19.3s-31.89,21.9-41.36,33.54c-9.1,11.18-12.31,21-8.82,27.06S423,450,437.19,447.67c14.8-2.45,32.42-9.31,49.63-19.3s31.89-21.9,41.36-33.54c9.09-11.18,12.31-21,8.81-27.06C534.44,363.37,528.32,361.07,519.67,361.07Z"/><path class="cls-20" d="M456.8,478.85a12,12,0,0,1-3.17-.41c-16-4.24-20-39.89-9-81.16,5.17-19.49,12.91-37.07,21.8-49.5,9.1-12.73,18.43-18.61,26.25-16.53h0c7.82,2.07,13,11.79,14.61,27.37,1.57,15.2-.42,34.3-5.59,53.79s-12.91,37.07-21.8,49.5C472,473,463.91,478.85,456.8,478.85Zm32.76-145.68c-6.29,0-13.89,5.65-21.26,16-8.73,12.2-16.34,29.51-21.44,48.74s-7.07,38-5.53,53c1.47,14.33,6.17,23.58,12.9,25.36s15.39-3.91,23.77-15.64c8.73-12.2,16.35-29.51,21.45-48.74s7.06-38,5.53-53c-1.47-14.34-6.18-23.59-12.9-25.37h0A9.57,9.57,0,0,0,489.56,333.17Z"/><path class="cls-20" d="M508.69,439.5c-13,0-27.95-2.1-43.11-6.12-19.49-5.17-37.06-12.91-49.49-21.8-12.74-9.11-18.61-18.43-16.53-26.25s11.79-13,27.37-14.61c15.2-1.57,34.3.42,53.79,5.59s37.07,12.91,49.5,21.8c12.73,9.11,18.6,18.43,16.53,26.26s-11.8,13-27.37,14.61C516,439.32,512.42,439.5,508.69,439.5Zm-71.06-67a103,103,0,0,0-10.47.51c-14.33,1.47-23.58,6.18-25.36,12.9h0c-1.79,6.73,3.91,15.39,15.64,23.78,12.2,8.73,29.51,16.34,48.74,21.44s38,7.07,53,5.53c14.34-1.47,23.59-6.17,25.37-12.9s-3.92-15.39-15.64-23.78c-12.21-8.73-29.52-16.34-48.74-21.44C465.17,374.58,450.46,372.51,437.63,372.51Z"/><circle class="cls-21" cx="408.99" cy="431.11" r="5.19"/><circle class="cls-21" cx="540.25" cy="409.12" r="5.19"/><circle class="cls-21" cx="459.88" cy="361.6" r="5.19"/><circle class="cls-22" cx="471.63" cy="405.56" r="3.55"/><circle class="cls-22" cx="476.15" cy="404.1" r="3.55"/><circle class="cls-22" cx="476" cy="408.92" r="3.55"/><circle class="cls-23" cx="472.69" cy="398.62" r="3.55"/><circle class="cls-22" cx="477.21" cy="397.16" r="3.55"/><circle class="cls-22" cx="477.06" cy="401.98" r="3.55"/><circle class="cls-22" cx="478.64" cy="406.42" r="3.55"/><circle class="cls-22" cx="483.16" cy="404.96" r="3.55"/><circle class="cls-22" cx="483.01" cy="409.78" r="3.55"/><circle class="cls-22" cx="471.27" cy="409.55" r="3.55"/><circle class="cls-22" cx="475.78" cy="408.09" r="3.55"/><circle class="cls-22" cx="475.64" cy="412.91" r="3.55"/><circle class="cls-22" cx="467.69" cy="403.84" r="3.55"/><circle class="cls-22" cx="472.21" cy="402.39" r="3.55"/><circle class="cls-23" cx="472.06" cy="407.2" r="3.55"/><circle class="cls-22" cx="476.64" cy="400.53" r="3.55"/><circle class="cls-23" cx="481.16" cy="399.08" r="3.55"/><circle class="cls-22" cx="481.01" cy="403.89" r="3.55"/><circle class="cls-23" cx="476.02" cy="406.79" r="3.55"/><circle class="cls-22" cx="480.53" cy="405.33" r="3.55"/><circle class="cls-23" cx="480.39" cy="410.15" r="3.55"/><path class="cls-22" d="M238,214.17l74-57.1a1.44,1.44,0,0,0-1.37-2.49l-86.87,32-8.65-67.46L198.31,190l-57.17-5.28,45.5,33.57-67.4,18.89.71,2.55,69.39-19.45.92.68v0l7.75,5.63L179.6,257.06,237.27,255l31.93,17.48Zm24.68,51.7-23.9-13.09-7.62-33.34,4.71-3.63Zm-46.81-75.22,2.86-.38-26,24,7.66-21.59Zm6.27,1.26,6,26.47L210.25,232.2l-8.69-6.31Zm4.06,5.84,8.4,15.69-4.09,3.16Zm2.65,23.48,6.69,29.28-23-16.69Zm7.88-9.43-12.14-22.66,79.57-29.33Zm-15.51-24.52-4.94.64-15.18,2,13.28-56Zm-70.81,1,47.13,4.36L189,216.74Zm41.32,30.48,25-23L199.4,224.33Zm8.48,9.42,7.88,5.71-21.25,16.39Zm-14.09,26,24.21-18.66,23.39,17Z"/><circle class="cls-22" cx="145.76" cy="186.51" r="6.12"/><circle class="cls-21" cx="189.61" cy="218.87" r="6.12"/><circle class="cls-20" cx="199.33" cy="191.47" r="6.12"/><circle class="cls-23" cx="119.59" cy="238.5" r="6.12"/><circle class="cls-20" cx="182.01" cy="255.65" r="6.12"/><circle class="cls-23" cx="237.59" cy="253.66" r="6.12"/><circle class="cls-22" cx="222.68" cy="188.42" r="6.12"/><circle class="cls-20" cx="265.93" cy="269.17" r="6.12"/><circle class="cls-21" cx="311.8" cy="155.57" r="6.12"/><circle class="cls-23" cx="214.74" cy="126.53" r="6.12"/><g class="cls-24"><path class="cls-20" d="M81.58,327.45a47.47,47.47,0,1,1-47.47,47.47,47.52,47.52,0,0,1,47.47-47.47m0-3.09a50.56,50.56,0,1,0,50.56,50.56,50.56,50.56,0,0,0-50.56-50.56Z"/><path class="cls-20" d="M135.66,368.16A45.46,45.46,0,1,1,90.2,413.62a45.51,45.51,0,0,1,45.46-45.46m0-3.09a48.55,48.55,0,1,0,48.55,48.55,48.55,48.55,0,0,0-48.55-48.55Z"/><path class="cls-22" d="M146.13,328.14a17.31,17.31,0,1,1-17.3,17.31,17.34,17.34,0,0,1,17.3-17.31m0-3.09a20.4,20.4,0,1,0,20.39,20.4,20.39,20.39,0,0,0-20.39-20.4Z"/><circle class="cls-23" cx="127.27" cy="353.86" r="5.09"/><circle class="cls-21" cx="143.36" cy="365.84" r="5.09"/><circle class="cls-23" cx="89.15" cy="423.56" r="5.09"/></g><path class="cls-20" d="M328.27,416.18,349,393.89l-11.1-34.55L357.41,339l21.27,3.64.41-2.44-20.46-3.5-1.27-1.22,0,0-5-19.59-2.39.61,5.38,21.08-19.24,20-29.3-7.39L295,326l-.85.08c-8.13.77-34.69,3.3-40.14,4l-12-11.5-1.71,1.78,11.81,11.3L254,370.41,240.49,385l1.82,1.67,13.2-14.33,25.07,6.42,10.36,30.68,35,7.5,4.65,16.69L333,433Zm-45.33-38.11,23.38-25.39L335.5,360l10.68,33.23-19.77,21.28-33.58-7.19Zm21.49-27-23.3,25.3-24.71-6.33-1.8-37.64c4.56-.53,23-2.32,38.92-3.83Z"/><circle class="cls-23" cx="294.57" cy="327.54" r="5.72"/><circle class="cls-21" cx="306.38" cy="350.8" r="5.72"/><circle class="cls-21" cx="252.95" cy="331.61" r="5.72"/><circle class="cls-21" cx="280.9" cy="376.64" r="5.72"/><circle class="cls-21" cx="326.62" cy="416.67" r="5.72"/><circle class="cls-21" cx="336.33" cy="358.97" r="5.72"/><circle class="cls-23" cx="255.26" cy="371.55" r="5.72"/><circle class="cls-23" cx="291.96" cy="408.58" r="5.72"/><circle class="cls-23" cx="347.38" cy="393.84" r="5.72"/><circle class="cls-23" cx="358" cy="336.87" r="5.72"/><path class="cls-20" d="M413.84,155.29A57.85,57.85,0,1,1,356,213.13a57.91,57.91,0,0,1,57.84-57.84m0-3.09a60.94,60.94,0,1,0,60.94,60.93,60.93,60.93,0,0,0-60.94-60.93Z"/><path class="cls-22" d="M442.24,167.67a53.61,53.61,0,0,1,.05,90.9,25.69,25.69,0,0,0-1.26-6.68l-.09-.27-.14-.24-2.68-4.54-.3-.5-.48-.3-2.81-1.72-3.11-3.75-1.64-9.39c2-1.47,6-4.44,7.38-5.59a30.87,30.87,0,0,1,5-2.89h6.62l.7-.92,5.06-6.72,3.5-4.63-5.73.95-.73.12-1.73-5.2-1-3.91L448,199l-2.8,2.13-3.32,2.53-1.47,1.12.7,1.53-3,.88-5.23,1.54-5.24.87-1.33.22-.46,1.27c-.07.2-1.65,4.54-2.19,6.12a3.69,3.69,0,0,1-.68.4l-2.56-3.31,1.21-1.24.17-.18.13-.21,2.24-3.58,1.14-1.82L423.62,206l-3.91-2.88V198l-.59-.66-2.4-2.68-1.86-2.09-1.71,2.22L411.47,197l-2.32-2.7,1-.74.89-.7v-3.74h4.58l.53-.29,4.57-2.54.52-.29.32-.51,5.37-8.63,15.34-9.2m-1.12,38.65.06.14,1.23,2.68-1.11,1.13-.18-.12v-3.83M442.25,165l-17,10.21-5.67,9.11L415,186.81h-6.3v4.92L405.81,194l5.76,6.72,3.42-4.48,2.4,2.69v5.37l4.86,3.58L420,211.43l-2.62,2.68,4.86,6.27s3.13-.9,3.58-2.24,2.24-6.26,2.24-6.26l5.37-.9,5.36-1.58v2l2.83,1.79,3.56-3.58-1.9-4.15,3.32-2.53,1,4,2.38,7.16,2.68-.44-5.06,6.71h-6a36.36,36.36,0,0,0-6,3.43c-1.79,1.49-8.42,6.36-8.42,6.36l2,11.41,3.74,4.51,3.13,1.93,2.69,4.54s2.05,6.81.73,8.25c-.65.71.37,1.21.91,1.52a55.94,55.94,0,0,0,1.8-97.37Z"/><path class="cls-22" d="M400.16,204.43v2.73l-6.8,4.33-3.09-4.88a4,4,0,0,1,2-.6,33.28,33.28,0,0,0,7.86-1.58m2.32-3.16s-7.05,2.42-10.18,2.42a6.87,6.87,0,0,0-5,2.5l5.39,8.51,9.83-6.27v-7.16Z"/><path class="cls-22" d="M373.38,244.25l7.71,7.85.55.56.76.11c1.3.2,4.91,1.22,5.93,3.46a33.24,33.24,0,0,0,4.17,6.09,53.21,53.21,0,0,1-22.19-17.91l3.07-.16m.93-2.37-8.17.44a56,56,0,0,0,33.87,25s-7.79-8.13-9.57-12-7.7-4.79-7.7-4.79l-8.43-8.6Z"/><path class="cls-22" d="M391.22,171.37l5.49,3.5v3.42H391.5l-.38.14s-3.76,1.34-6.49,2.21a36.8,36.8,0,0,0-6.35,2.89l-.8.47-.26.88-1.85,6.27-.36,1.24.87,1,3.22,3.58-1,4.17-5.68,7.67-.16.22-.11.24-3.74,8.65-3.83,4.68-.52.64v4.49l.23.47.72,1.51-1.94.78a53.71,53.71,0,0,1,17.15-59.08h11m.68-2.32H379.45a56,56,0,0,0-17.7,64.44l6.45-2.59-1.79-3.74V224l4-4.93,3.87-8.95,6-8.06,1.35-5.81-4-4.48,1.85-6.27a34.72,34.72,0,0,1,5.88-2.68c2.81-.9,6.57-2.24,6.57-2.24H399v-7l-7.13-4.55Z"/><path class="cls-23" d="M471.18,155.54c-5.47-5.47-16.68-4-30.55,2.84l2.61,1.36h0c7.31-3.46,13.61-5.22,18.43-5.22,3.41,0,6.09.88,7.87,2.66,4.53,4.53,3.22,14.88-3.58,28.39-7.1,14.09-19.28,30.12-34.29,45.13s-31,27.19-45.13,34.28c-13.51,6.81-23.86,8.12-28.39,3.59-4.25-4.26-3.35-13.63,2.39-25.93h0l-1.37-2.61c-6.7,13.69-8.08,24.75-2.66,30.17,2.27,2.27,5.52,3.35,9.53,3.35,15.33,0,41.81-15.74,67.29-41.22C465.47,200.2,482.1,166.46,471.18,155.54Z"/><rect class="cls-20" x="718.59" y="374.66" width="12.49" height="3.31" rx="1.65" ry="1.65" transform="translate(1429.67 -36.26) rotate(122.22)"/><rect class="cls-23" x="714.88" y="381.52" width="11.28" height="3.31" rx="1.65" ry="1.65" transform="translate(1428.84 -22.1) rotate(122.22)"/><rect class="cls-21" x="711.47" y="366.83" width="19.97" height="3.31" rx="1.65" ry="1.65" transform="translate(1417.86 -45.41) rotate(122.22)"/><rect class="cls-20" x="702.33" y="381.33" width="19.97" height="3.31" rx="1.65" ry="1.65" transform="translate(1416.11 -15.44) rotate(122.22)"/><rect class="cls-21" x="725.23" y="380.21" width="8.86" height="3.31" rx="1.65" ry="1.65" transform="matrix(-0.53, 0.85, -0.85, -0.53, 1441.75, -31.84)"/><rect class="cls-20" x="723.91" y="383.71" width="7.09" height="3.31" rx="1.65" ry="1.65" transform="translate(1441.33 -24.6) rotate(122.22)"/><rect class="cls-21" x="719.45" y="392.96" width="20.98" height="3.31" rx="1.65" ry="1.65" transform="translate(6.92 801.75) rotate(-57.78)"/><rect class="cls-20" x="729.06" y="377.72" width="20.98" height="3.31" rx="1.65" ry="1.65" transform="matrix(0.53, -0.85, 0.85, 0.53, 24.29, 802.76)"/><rect class="cls-21" x="624.94" y="332.56" width="19.97" height="3.31" rx="1.65" ry="1.65" transform="translate(13.65 693.17) rotate(-57.78)"/><rect class="cls-20" x="634.08" y="318.06" width="19.97" height="3.31" rx="1.65" ry="1.65" transform="translate(30.19 694.13) rotate(-57.78)"/><rect class="cls-20" x="705.02" y="362.4" width="21.83" height="3.31" rx="1.65" ry="1.65" transform="translate(1405.64 -47.52) rotate(122.22)"/><rect class="cls-23" x="695.02" y="378.26" width="21.83" height="3.31" rx="1.65" ry="1.65" transform="translate(1403.73 -14.76) rotate(122.22)"/><rect class="cls-21" x="689.31" y="374.39" width="21.5" height="3.31" rx="1.65" ry="1.65" transform="translate(8.68 767.8) rotate(-57.78)"/><rect class="cls-20" x="699.15" y="358.77" width="21.5" height="3.31" rx="1.65" ry="1.65" transform="translate(26.48 768.84) rotate(-57.78)"/><rect class="cls-20" x="686.32" y="369.16" width="17.44" height="3.31" rx="1.65" ry="1.65" transform="translate(10.75 761.11) rotate(-57.78)"/><rect class="cls-23" x="694.3" y="356.49" width="17.44" height="3.31" rx="1.65" ry="1.65" transform="translate(25.19 761.95) rotate(-57.78)"/><rect class="cls-20" x="678.18" y="358.94" width="13.32" height="3.31" rx="1.65" ry="1.65" transform="matrix(0.53, -0.85, 0.85, 0.53, 14.64, 747.71)"/><rect class="cls-23" x="683.51" y="351.28" width="12.31" height="3.31" rx="1.65" ry="1.65" transform="translate(23.37 748.22) rotate(-57.78)"/><rect class="cls-20" x="675.89" y="344.51" width="19.45" height="3.31" rx="1.65" ry="1.65" transform="translate(1344.03 -49.32) rotate(122.22)"/><rect class="cls-23" x="666.99" y="358.63" width="19.45" height="3.31" rx="1.65" ry="1.65" transform="translate(1342.33 -20.12) rotate(122.22)"/><rect class="cls-20" x="724.79" y="397.02" width="21.83" height="3.31" rx="1.65" ry="1.65" transform="translate(6.17 808.52) rotate(-57.78)"/><rect class="cls-23" x="734.78" y="381.16" width="21.83" height="3.31" rx="1.65" ry="1.65" transform="translate(24.25 809.57) rotate(-57.78)"/><rect class="cls-21" x="689.9" y="357.05" width="8.89" height="3.31" rx="1.65" ry="1.65" transform="translate(1368.02 -37.46) rotate(122.22)"/><rect class="cls-20" x="687.61" y="361.56" width="7.79" height="3.31" rx="1.65" ry="1.65" transform="translate(1367.48 -28.15) rotate(122.22)"/><rect class="cls-21" x="659.31" y="355.75" width="21.83" height="3.31" rx="1.65" ry="1.65" transform="translate(10.51 733.85) rotate(-57.78)"/><rect class="cls-20" x="669.3" y="339.89" width="21.83" height="3.31" rx="1.65" ry="1.65" transform="matrix(0.53, -0.85, 0.85, 0.53, 28.59, 734.9)"/><rect class="cls-21" x="649.87" y="347.01" width="18.44" height="3.31" rx="1.65" ry="1.65" transform="translate(12.71 720.36) rotate(-57.78)"/><rect class="cls-20" x="658.31" y="333.62" width="18.44" height="3.31" rx="1.65" ry="1.65" transform="translate(27.98 721.25) rotate(-57.78)"/><rect class="cls-20" x="663.43" y="336.26" width="21.5" height="3.31" rx="1.65" ry="1.65" transform="translate(1319.51 -52.28) rotate(122.22)"/><rect class="cls-23" x="653.59" y="351.87" width="21.5" height="3.31" rx="1.65" ry="1.65" transform="translate(1317.63 -20.02) rotate(122.22)"/><rect class="cls-20" x="654.02" y="335.61" width="7.86" height="3.31" rx="1.65" ry="1.65" transform="translate(1294.08 -39.54) rotate(122.22)"/><rect class="cls-23" x="653.22" y="338.23" width="6.17" height="3.31" rx="1.65" ry="1.65" transform="translate(1293.77 -34.15) rotate(122.22)"/><rect class="cls-20" x="640.69" y="322.69" width="17.54" height="3.31" rx="1.65" ry="1.65" transform="translate(1270.13 -52.18) rotate(122.22)"/><rect class="cls-23" x="632.66" y="335.43" width="17.54" height="3.31" rx="1.65" ry="1.65" transform="matrix(-0.53, 0.85, -0.85, -0.53, 1268.6, -25.85)"/><rect class="cls-21" x="647" y="331.47" width="10.5" height="3.31" rx="1.65" ry="1.65" transform="translate(1281.83 -41.07) rotate(122.22)"/><rect class="cls-20" x="645.87" y="335.18" width="8.07" height="3.31" rx="1.65" ry="1.65" transform="translate(1281.38 -33.41) rotate(122.22)"/><path class="cls-20" d="M731.92,410.87,725.77,407c-5.51-3.46-3.93-10.12-1.06-22.21.24-1,.48-2,.73-3.1,3.41-14.56,1.3-22.08-7.81-27.76-8.35-5.21-19.11-.28-25.56,6.51-7,7.34-19.48,13.13-31.79,5.29-9.65-6.14-8.6-13.54-7.5-21.37a73.07,73.07,0,0,0,.8-7.7c.47-13.67-.32-21.26-2.36-22.54L644,309.58l1.52-2.42,7.19,4.53c3.21,2,4.24,9.05,3.69,25.06a76.42,76.42,0,0,1-.82,8c-1.1,7.79-1.89,13.42,6.2,18.57,10.85,6.91,22,1.71,28.19-4.84,7.47-7.86,19.38-13.07,29.15-7,11.8,7.36,12.16,17.65,9.07,30.83-.25,1.08-.49,2.11-.73,3.11-2.83,11.92-3.83,16.85-.2,19.14l6.15,3.88Z"/><path class="cls-20" d="M713.32,391.4c-5.47,1.5-11.07.81-17.32-3.17-9.72-6.18-10.16-19.17-6.29-29.3,3.22-8.44,3.12-20.71-7.79-27.52-8.14-5.08-12.88-1.94-19.43,2.41a73.32,73.32,0,0,1-6.86,4.2c-14.2,7.4-21,9.5-24.19,7.48L624.25,341l1.52-2.42,7.19,4.54c2,1.28,9.22-1.28,21.35-7.61a70.48,70.48,0,0,0,6.6-4c6.59-4.38,12.82-8.52,22.52-2.46,12.38,7.72,12.56,21.51,9,31-3.35,8.75-3.16,20.58,5.15,25.87,9.05,5.76,16.75,4.43,28.41-4.93l2.48-2c9.67-7.8,15-12.1,20.5-8.63l6.15,3.88-1.52,2.41-6.16-3.88c-3.63-2.28-7.64.75-17.18,8.45l-2.48,2C722.8,387.08,718.11,390.08,713.32,391.4Z"/><path class="cls-20" d="M621.53,514.5a200.47,200.47,0,0,1-20.48-1.44l-2.37-.24c-6.85-.71-17-8.6-20.59-18.8s-4.3-37.54,1-44c3.85-4.68,13.68-11.17,23.19-17.44,2.79-1.84,5.42-3.58,7.8-5.2,10.55-7.22,35.82-24.1,42.48-25,7.22-.95,10.72,1.51,23.44,16.43h0c4.29,5,9.18,11.62,13.12,16.9l3.12,4.19c5.7,7.56,9.38,13.75,4.75,24.61-4.51,10.58-30.21,33.28-43.36,41.39C642.76,512.61,632.36,514.5,621.53,514.5Zm33.48-110a17.68,17.68,0,0,0-2.12.16c-5,.67-24.73,13.14-41.48,24.59-2.4,1.64-5,3.38-7.83,5.22-8.93,5.89-19.05,12.57-22.67,17-4.43,5.39-4.21,31.65-.64,41.79,3.48,9.87,13.21,16.7,18.65,17.26l2.37.25c18.4,1.91,34.29,3.56,51.14-6.83,14.16-8.74,38.5-31.06,42.45-40.33,4.16-9.76,1.08-14.94-4.47-22.31-.95-1.26-2-2.68-3.13-4.19-3.91-5.26-8.78-11.8-13-16.78h0C663.16,407.29,659.56,404.51,655,404.51Z"/><circle class="cls-21" cx="622" cy="491.17" r="13.12"/><ellipse class="cls-23" cx="603.24" cy="449.77" rx="13.98" ry="5.57" transform="translate(-149.17 441.9) rotate(-36.11)"/><ellipse class="cls-23" cx="589.9" cy="478.93" rx="5.57" ry="13.98" transform="translate(-4.79 5.97) rotate(-0.58)"/><ellipse class="cls-23" cx="675.78" cy="446.34" rx="5.57" ry="13.98" transform="translate(-98.69 683.18) rotate(-50.45)"/><ellipse class="cls-23" cx="662.08" cy="479.51" rx="13.98" ry="5.57" transform="translate(-153.38 537.03) rotate(-39.95)"/><ellipse class="cls-23" cx="648.39" cy="423.72" rx="13.98" ry="5.57" transform="translate(-57.06 103.9) rotate(-8.78)"/><path class="cls-21" d="M662.6,458.79c-1.22-10.27-.51-12.27-16.08-17.71s-18-5.52-22.38,2.94-5,10.5-9,16.58,2.89,6.86,10.81,6.88,14.85,5,23.67,4.88S663.66,467.72,662.6,458.79Z"/><circle class="cls-21" cx="606.25" cy="467" r="3.46"/><circle class="cls-21" cx="602.54" cy="499.77" r="3.46"/><circle class="cls-21" cx="646.26" cy="496.3" r="3.46"/><circle class="cls-21" cx="628.76" cy="427.38" r="3.46"/><circle class="cls-21" cx="670.52" cy="428.92" r="3.46"/><rect class="cls-20" x="669.18" y="468.91" width="15.03" height="2.14" rx="1.04" ry="1.04" transform="translate(657.61 -353.69) rotate(53.89)"/><rect class="cls-20" x="671.1" y="466.61" width="15.03" height="2.14" rx="1.04" ry="1.04" transform="translate(656.54 -356.19) rotate(53.89)"/><rect class="cls-20" x="672.33" y="463.37" width="15.03" height="2.14" rx="1.04" ry="1.04" transform="translate(654.42 -358.51) rotate(53.89)"/><rect class="cls-20" x="612.49" y="435.39" width="15.03" height="2.14" rx="1.04" ry="1.04" transform="translate(-111.78 237.98) rotate(-19.97)"/><rect class="cls-20" x="610.81" y="432.91" width="15.03" height="2.14" rx="1.04" ry="1.04" transform="translate(-111.03 237.26) rotate(-19.97)"/><rect class="cls-20" x="608.04" y="430.82" width="15.03" height="2.14" rx="1.04" ry="1.04" transform="translate(-110.49 236.18) rotate(-19.97)"/><rect class="cls-20" x="598.25" y="478.07" width="15.03" height="2.14" rx="1.04" ry="1.04" transform="translate(111.9 1072.97) rotate(-88.59)"/><rect class="cls-20" x="595.33" y="478.73" width="15.03" height="2.14" rx="1.04" ry="1.04" transform="translate(108.39 1070.69) rotate(-88.59)"/><rect class="cls-20" x="592.38" y="480.55" width="15.03" height="2.14" rx="1.04" ry="1.04" transform="translate(103.69 1069.51) rotate(-88.59)"/><path class="cls-21" d="M472.09,37l-18.2-4.84,13.29-13.34Zm-12.24-6.45,7.86,2.09-2.12-7.85Z"/><path class="cls-21" d="M534.65,53.67l-18.2-4.84,13.29-13.35Zm-12.24-6.45,7.87,2.09-2.12-7.85Z"/><path class="cls-21" d="M489.87,99.73l-18.2-4.84L485,81.54Zm-12.24-6.45,7.86,2.09-2.12-7.85Z"/><path class="cls-21" d="M481.4,68.84,463.19,64l13.3-13.35Zm-12.24-6.46,7.86,2.1-2.12-7.86Z"/><path class="cls-21" d="M503.86,46.29l-18.21-4.84L499,28.11Zm-12.24-6.45,7.86,2.09-2.12-7.85Z"/><path class="cls-21" d="M520.45,107.74l-18.21-4.84,13.3-13.34Zm-12.24-6.45,7.86,2.09L514,95.53Z"/><path class="cls-21" d="M497.52,130.76l-18.21-4.84,13.3-13.35Zm-12.24-6.45,7.86,2.09L491,118.55Z"/><path class="cls-21" d="M542.65,85.46l-18.21-4.84,13.3-13.34ZM530.41,79l7.86,2.09-2.12-7.85Z"/><path class="cls-21" d="M565.92,62.11l-18.21-4.84L561,43.92Zm-12.24-6.45,7.86,2.09-2.12-7.86Z"/><path class="cls-23" d="M492,56.87l-33.87-9L482.86,23ZM464.08,46.25l23.53,6.26L481.27,29Z"/><path class="cls-23" d="M554.68,73.62l-33.88-9,24.74-24.83ZM526.77,63l23.53,6.26L544,45.75Z"/><path class="cls-23" d="M509.57,119.35l-33.88-9,24.74-24.83Zm-27.91-10.62L505.19,115l-6.35-23.51Z"/><path class="cls-20" d="M532.09,96.82l-65.4-17.39,47.76-47.94Zm-59.43-19,55.05,14.64-14.84-55Z"/><path class="cls-22" d="M484.16,144.72,448.85,13.89l131,34.83ZM453.22,18.25l32.53,120.5,88.1-88.42Z"/></g></svg>