<svg xmlns="http://www.w3.org/2000/svg" viewBox="0 0 320 320"><defs><style>.cls-1{fill:#c3d4fc;}.cls-2{fill:#efefef;}.cls-3{fill:#486afc;}.cls-4{fill:#f2f2f2;}.cls-5{fill:#7594f9;}.cls-6{fill:#ffe368;}.cls-7{fill:blue;}.cls-8{fill:#fff;}</style></defs><title>zahlavi_bile_vystupy_novyvizual</title><g id="Vrstva_10" data-name="Vrstva 10"><rect class="cls-1" x="-1452.58" y="-20.92" width="2500" height="365.17"/><path class="cls-2" d="M398,305.05H299.05V230.91c3.35-.56,5.5-1.44,5.5-2.43s-2.15-1.86-5.5-2.42v-5c3.35-.61,5.5-1.56,5.5-2.62,0-.43-.35-.84-1-1.22a1.58,1.58,0,1,0-2.08-1.5,1.52,1.52,0,0,0,.17.71,21.57,21.57,0,0,0-2.61-.61v-4.84c3.35-.63,5.5-1.62,5.5-2.73s-2.15-2.1-5.5-2.74v-4.42a18.59,18.59,0,0,0,3.43-1,1.35,1.35,0,0,0,0,.29,1.06,1.06,0,1,0,2.11,0,1,1,0,0,0-.77-1,1.61,1.61,0,0,0,.77-1.21c0-.49-.37-1-1-1.4a.65.65,0,0,0,.2,0,1,1,0,1,0-.69-.3,20.44,20.44,0,0,0-6.17-1.61,3.6,3.6,0,0,0-2.45-6.23h-.27c-.82-2-1.48-3.72-1.48-3.72V183h1v-.52h-1v-3.75h1v-.52h-1v-3.75h1V174h-1v-3.75h1v-.52h-1v-3.76h1v-.51h-1v-3.8h1v-.51h-1v-3.79h1v-.52h-1V153h1v-.52h-1v-1.88h-1.11v0l-1.19,1.2v-1.25h.28v-2.33h-.52v-.48h.52v-2.34h-.52V145h.52v-2.34h-.52v-.49h.52V139.8h-.52v-.63h.52v-2.34H289v2.34h.52v.63H289v2.33h.52v.49H289V145h.52v.48H289v2.34h.52v.48H289v2.33h.28v1.25l-1.19-1.2v0h-1.11v1.88h-1V153h1v3.79h-1v.52h1v3.79h-1v.51h1v3.8h-1v.51h1v3.76h-1v.52h1V174h-1v.52h1v3.75h-1v.52h1v3.75h-1V183h1v1.86l-2.2,5.52a2.44,2.44,0,0,0-4.11,1.78,2.45,2.45,0,0,0,2.4,2.45c0,.12-.09.23-.13.33-4,.66-6.7,1.82-6.7,3.15s2.16,2.25,5.5,2.93v1.31a2.07,2.07,0,0,0-1.27-.43,2.11,2.11,0,0,0-.86,4c-2.1.6-3.37,1.38-3.37,2.24,0,1.11,2.16,2.1,5.5,2.73v4.84c-3.34.6-5.5,1.55-5.5,2.62s2.16,2,5.5,2.62v5c-3.34.56-5.5,1.44-5.5,2.42s2.16,1.87,5.5,2.43v74.14H3.25l-154.69,22.79L447,338.34ZM290.43,187.53l.51,1.13-.41,2.53C290.5,189.93,290.46,188.63,290.43,187.53Zm2.72,1.3-.16,0-.05-.55Zm-1.57,5.6h-.78l.2-1A3.71,3.71,0,0,0,291.58,194.43Zm0-11.4v1.1l-1.1-1.1Zm-1.14-.52,1.14-1.14v1.14Zm1.14-3.75v1.12l-1.12-1.12Zm-1.12-.52,1.12-1.12v1.12Zm1.12-3.75v1.12l-1.12-1.12Zm-1.12-.52,1.12-1.12V174Zm1.12-3.75v1.12l-1.12-1.12Zm-1.12-.52,1.12-1.13v1.13Zm1.12-3.76v1.13l-1.12-1.13Zm-1.12-.51,1.12-1.13v1.13Zm1.12-3.8v1.13l-1.12-1.13Zm-1.12-.51,1.12-1.13v1.13Zm1.12-3.79v1.12l-1.12-1.12Zm-1.12-.52,1.12-1.13v1.13Zm1.12-5.43v1.12h-1.12Zm0,1.64v1.12L290.42,153Zm-1.19.66,1.19,1.19V155l-1.19,1.2Zm0,4.31,1.19,1.19v.08l-1.19,1.2Zm0,4.31,1.19,1.19v.08l-1.19,1.19Zm0,4.3,1.19,1.2v0l-1.19,1.2Zm0,4.28,1.19,1.19v0l-1.19,1.2Zm0,4.27,1.19,1.19v0l-1.19,1.19Zm0,4.27,1.19,1.19v0l-1.19,1.19Zm0,4.25,1.19,1.2v0l-.33,2.07-.86-2.07Zm-1,3.73.25,7h0L288.7,189Zm-1.28-36,1.12,1.12h-1.12Zm0,1.64h1.12l-1.12,1.12Zm0,1.85,1.19-1.19v2.47l-1.19-1.2Zm0,.81,1.12,1.13h-1.12Zm0,1.65h1.12l-1.12,1.12Zm0,1.85,1.19-1.19v2.47l-1.19-1.2Zm0,.81,1.12,1.13h-1.12Zm0,1.64h1.12l-1.12,1.13Zm0,1.86,1.19-1.19v2.46l-1.19-1.19Zm0,.81,1.12,1.13h-1.12Zm0,1.64h1.12l-1.12,1.13Zm0,1.86,1.19-1.2V169l-1.19-1.2Zm0,.77,1.12,1.13h-1.12Zm0,1.65h1.12l-1.12,1.12Zm0,1.85,1.19-1.19v2.43l-1.19-1.2Zm0,.78,1.12,1.12h-1.12Zm0,1.64h1.12l-1.12,1.12Zm0,1.85,1.19-1.19v2.43l-1.19-1.19Zm0,.78,1.12,1.12h-1.12Zm0,1.64h1.12l-1.12,1.12Zm0,1.85,1.19-1.19v2.41l-1.19-1.19Zm0,.76,1.14,1.14h-1.14Zm0,1.66h1.1l-1.1,1.1Zm0,1.84,1.19-1.2v1.22l-.85,2.15-.34-2.15Zm-.37,3.87v0Zm-.34,3.53.7-1.71.75,3.88c-.57,0-1.13,0-1.67.08C287.18,193.89,287.26,193.11,287.34,192.27Zm-3.15,2.09a2.43,2.43,0,0,0,1.33-2.17,2.49,2.49,0,0,0-.13-.77l1.26-3.09-.33,3.89c-.38.93-.72,1.79-1,2.44-.45,0-.9.1-1.33.15Z"/><path class="cls-2" d="M276.2,204a1.38,1.38,0,0,0,0-2.75,1.38,1.38,0,1,0,0,2.75Z"/><path class="cls-2" d="M275.35,212.93a.85.85,0,1,0,1.7,0,.85.85,0,0,0-1.7,0Z"/><path class="cls-2" d="M281.42,212.93a2.15,2.15,0,1,0-2.15,2.15A2.15,2.15,0,0,0,281.42,212.93Z"/><path class="cls-2" d="M299.48,212.93a1.48,1.48,0,1,0,1.48-1.48A1.48,1.48,0,0,0,299.48,212.93Z"/><circle class="cls-2" cx="300.96" cy="204.04" r="1.48"/><path class="cls-2" d="M303.5,204.36a1.17,1.17,0,1,0-1.17-1.16A1.16,1.16,0,0,0,303.5,204.36Z"/><circle class="cls-2" cx="304.55" cy="206.16" r="0.85"/><path class="cls-2" d="M275.88,206.76a1.24,1.24,0,1,0-1.23-1.23A1.24,1.24,0,0,0,275.88,206.76Z"/><circle class="cls-2" cx="300.96" cy="193.46" r="1.48"/><path class="cls-2" d="M278.32,195.9a1,1,0,1,0-1-1A1,1,0,0,0,278.32,195.9Z"/><path class="cls-2" d="M1057.34,322.77l-790.68-.72V271.78l-4.86-8.1v-4.87L257.74,256,244,230l-9.32,1V195.17h-1.42v-8.51h-.71V176h-2.43v10.64h-.71v8.51H228V168.83h-1.62v-7.15h-4.2L218,74.86a2.57,2.57,0,0,0-.25-5.13l-.05-.92,0,.91a2.58,2.58,0,0,0-.21,5.14l-3.51,86.82H209v7.15h-1.62v25.53h-1.32v-8.51h-.71V175.21h-2.43v10.64h-.71v8.51h-1.42v13.36l-6.69-8.09-5.37.69V189.09h-1.42v-8.51h-.7V169.94h-2.44v10.64h-.71v8.51h-1.41V162.75h-1.63V155.6h-4.19l-4.18-86.82a2.57,2.57,0,0,0-.25-5.13l0-.92,0,.91a2.58,2.58,0,0,0-.2,5.14L168,155.6H163.1v7.15h-1.63v25.53h-1.31v-8.51h-.71V169.13H157v10.64h-.71v8.51h-1.42v16.38l-30.79,4-.63-6.14-.76,6.31-1,.13v-6l-2.51-5.77-1.14-11.87-.7,12.24-3,3.57v13.12l-1.61,2.24c-.43-6-.92-12.83-.92-12.83,0,.32-.69,9.09-1.22,15.79L105.88,226c-.77-7.35-1.46-15.25-1.46-15.25L101.6,232,88.7,249.8l-1-4.36c0,.31-.49,3.18-.89,5.85l-1.74-13.15c0,.39-.28,6.37-.57,12.49l-.65-5.19-1.49,13.13L81,260.43v6.89L78.58,273v48.69l-22.64,0-424.87,27.19H1058.52Z"/><path class="cls-2" d="M-1462.66,322.4v22.09L17,359.92l-66-26-375.76-40.19-48-.37.3-15.58-47.67,0v-4h-2.1V259.81h.86v-7.75a16.68,16.68,0,0,0-9.33-15v-2.62h-14.68v2.62a16.68,16.68,0,0,0-9.33,15v7.75h.85v13.91H-556v4h-7.34V229.09H-571a16.13,16.13,0,0,0-10.93-8.57v-1.36h-2.24v-.56h-2.54v.56h-2.24v1.36A16.13,16.13,0,0,0-601,232.08h-8.92V236h-11.34V225.21H-635v-3.49h-11.94v3.49h-3.29V236h-19.51v-5.08h-2V236h-1.09v-5.08h-2V236h-2.59v-6.87h-4.46a39.47,39.47,0,0,0-29.22-26.56v-2.85h-3.34v-.9h-10v.9h-3.34v2.85A39.47,39.47,0,0,0-757,229.09h-4.32v4.78h-65.85v45.19l-161.81-.13v2.57l0,40.9Zm860.14-56.88h32.57v13.14h-32.57Zm-11.41-4.18h4v13.24h-4Zm-5.28,0h4v13.24h-4Zm-5.29,0h4v13.24h-4Zm-5.29,0h4v13.24h-4Zm-5.29,0h4v13.24h-4Zm-5.29,0h4v13.24h-4Zm-5.29,0h4v13.24h-4Zm-5.29,0h4v13.24h-4Zm-5.28,0h4v13.24h-4Zm-5.29,0h4v13.24h-4Zm-5.29,0h4v13.24h-4Zm-5.29,0h4v13.24h-4Zm-5.29,0h4v13.24h-4Zm-21.41,4.18h6.48v15.53h-6.48Zm-8,0h6.51v15.53h-6.51Zm-8,0h6.51v15.53h-6.51Zm-8,0h6.51v15.53h-6.51Zm-8,0h6.5v15.53h-6.5Zm-8,0h6.51v15.53h-6.51Zm-8,0h6.49v15.53h-6.49Z"/></g><g id="Vrstva_26" data-name="Vrstva 26"><path class="cls-3" d="M222.43,234.51c-4.78,0-8.13-1.35-9.64-3.95-2-3.5-.43-8.79,4.53-14.88,4.83-5.94,12.3-12,21-17.08s17.72-8.56,25.27-9.81c7.74-1.29,13.13-.07,15.17,3.44,4.16,7.18-7.07,21.22-25.57,32-8.74,5.08-17.72,8.57-25.27,9.82A34.45,34.45,0,0,1,222.43,234.51Zm46.68-45a32.35,32.35,0,0,0-5.29.47c-7.42,1.23-16.25,4.67-24.87,9.68s-16,11-20.73,16.81C213.66,222,212.05,227,213.8,230s6.84,4.07,14,2.88c7.42-1.23,16.25-4.66,24.87-9.67s16-11,20.73-16.81c4.56-5.61,6.17-10.55,4.42-13.56C276.51,190.61,273.45,189.46,269.11,189.46Z"/><path class="cls-3" d="M237.6,248.49a6.09,6.09,0,0,1-1.59-.21c-8-2.12-10-20-4.52-40.68,2.59-9.76,6.47-18.57,10.93-24.8,4.56-6.39,9.24-9.33,13.16-8.29h0c3.92,1,6.52,5.91,7.32,13.72.78,7.62-.21,17.19-2.8,27s-6.47,18.58-10.93,24.81C245.21,245.54,241.16,248.49,237.6,248.49Zm16.42-73c-3.16,0-7,2.83-10.66,8-4.37,6.12-8.19,14.8-10.74,24.43s-3.54,19.07-2.78,26.55c.74,7.18,3.1,11.82,6.47,12.71s7.72-2,11.92-7.84c4.37-6.11,8.19-14.79,10.75-24.43s3.54-19.06,2.77-26.54c-.74-7.19-3.1-11.82-6.47-12.72h0A5.31,5.31,0,0,0,254,175.47Z"/><path class="cls-3" d="M263.61,228.76A86.39,86.39,0,0,1,242,225.7c-9.77-2.59-18.58-6.47-24.81-10.93-6.38-4.56-9.32-9.23-8.28-13.16s5.91-6.52,13.72-7.32c7.61-.78,17.19.21,27,2.81s18.58,6.47,24.81,10.92c6.38,4.57,9.32,9.24,8.28,13.16s-5.91,6.52-13.72,7.32A50.73,50.73,0,0,1,263.61,228.76ZM228,195.19a51.49,51.49,0,0,0-5.24.26c-7.19.74-11.82,3.09-12.72,6.46h0c-.89,3.37,2,7.72,7.84,11.92,6.12,4.37,14.79,8.19,24.43,10.75s19.07,3.54,26.55,2.77c7.18-.74,11.82-3.1,12.71-6.47s-2-7.71-7.84-11.91c-6.12-4.38-14.79-8.2-24.43-10.75A85,85,0,0,0,228,195.19Z"/><circle class="cls-4" cx="213.64" cy="224.56" r="2.6"/><circle class="cls-4" cx="279.42" cy="213.54" r="2.6"/><circle class="cls-4" cx="239.14" cy="189.72" r="2.6"/><circle class="cls-5" cx="245.03" cy="211.76" r="1.78"/><circle class="cls-5" cx="247.3" cy="211.03" r="1.78"/><circle class="cls-5" cx="247.22" cy="213.44" r="1.78"/><circle class="cls-6" cx="245.57" cy="208.28" r="1.78"/><circle class="cls-5" cx="247.83" cy="207.55" r="1.78"/><circle class="cls-5" cx="247.75" cy="209.96" r="1.78"/><circle class="cls-5" cx="248.55" cy="212.19" r="1.78"/><circle class="cls-5" cx="250.81" cy="211.46" r="1.78"/><circle class="cls-5" cx="250.74" cy="213.87" r="1.78"/><circle class="cls-5" cx="244.85" cy="213.75" r="1.78"/><circle class="cls-5" cx="247.11" cy="213.02" r="1.78"/><circle class="cls-5" cx="247.04" cy="215.44" r="1.78"/><circle class="cls-5" cx="243.06" cy="210.9" r="1.78"/><circle class="cls-5" cx="245.32" cy="210.16" r="1.78"/><circle class="cls-6" cx="245.25" cy="212.58" r="1.78"/><circle class="cls-5" cx="247.54" cy="209.24" r="1.78"/><circle class="cls-6" cx="249.81" cy="208.51" r="1.78"/><circle class="cls-5" cx="249.73" cy="210.92" r="1.78"/><circle class="cls-6" cx="247.23" cy="212.37" r="1.78"/><circle class="cls-5" cx="249.49" cy="211.64" r="1.78"/><circle class="cls-6" cx="249.42" cy="214.06" r="1.78"/><path class="cls-5" d="M265.59,60.5,302.7,31.88a.72.72,0,0,0-.69-1.25L258.48,46.68l-4.34-33.81L245.71,48.4l-28.65-2.65,22.8,16.83-33.78,9.47.36,1.28,34.78-9.75.46.34h0l3.89,2.82L236.33,82l28.91-1,16,8.76ZM278,86.41l-12-6.56-3.82-16.71,2.36-1.82ZM254.5,48.71l1.43-.19-13.06,12,3.84-10.83Zm3.14.63,3,13.27-9,6.92-4.35-3.16Zm2,2.93,4.21,7.86-2.05,1.58ZM261,64l3.35,14.68-11.54-8.37ZM265,59.31,258.87,48l39.88-14.7ZM257.18,47l-2.48.32-7.61,1,6.66-28.06Zm-35.49.5,23.62,2.18L241,61.79ZM242.4,62.79l12.53-11.54-8.67,14.34Zm4.25,4.72,3.95,2.87L240,78.59Zm-7.07,13,12.14-9.36,11.72,8.5Z"/><circle class="cls-5" cx="219.37" cy="46.64" r="3.07"/><circle class="cls-4" cx="241.35" cy="62.85" r="3.07"/><circle class="cls-3" cx="246.22" cy="49.12" r="3.07"/><circle class="cls-6" cx="206.26" cy="72.69" r="3.07"/><circle class="cls-3" cx="237.54" cy="81.28" r="3.07"/><circle class="cls-6" cx="265.4" cy="80.29" r="3.07"/><circle class="cls-5" cx="257.92" cy="47.59" r="3.07"/><circle class="cls-3" cx="279.6" cy="88.06" r="3.07"/><circle class="cls-4" cx="302.59" cy="31.12" r="3.07"/><circle class="cls-6" cx="253.94" cy="16.57" r="3.07"/><path class="cls-3" d="M231.85,157.24l10.37-11.17-5.56-17.32,9.79-10.17,10.66,1.82.21-1.22-10.26-1.75-.63-.62,0,0L243.9,107l-1.2.3,2.7,10.56-9.64,10-14.69-3.7L215.18,112l-.43,0c-4.07.39-17.38,1.66-20.12,2l-6-5.77-.85.89,5.91,5.67.93,19.45-6.75,7.34.91.84,6.62-7.19,12.56,3.22,5.19,15.38,17.54,3.75L233,166l1.19-.33Zm-22.72-19.1,11.71-12.72,14.63,3.69,5.35,16.65-9.91,10.67-16.83-3.61Zm10.77-13.52L208.22,137.3l-12.38-3.17-.91-18.86c2.29-.27,11.52-1.17,19.51-1.93Z"/><circle class="cls-6" cx="214.95" cy="112.82" r="2.87"/><circle class="cls-4" cx="220.88" cy="124.48" r="2.87"/><circle class="cls-4" cx="194.1" cy="114.86" r="2.87"/><circle class="cls-4" cx="208.1" cy="137.43" r="2.87"/><circle class="cls-4" cx="231.02" cy="157.49" r="2.87"/><circle class="cls-4" cx="235.89" cy="128.57" r="2.87"/><circle class="cls-6" cx="195.25" cy="134.88" r="2.87"/><circle class="cls-6" cx="213.65" cy="153.44" r="2.87"/><circle class="cls-6" cx="241.43" cy="146.05" r="2.87"/><circle class="cls-6" cx="246.75" cy="117.5" r="2.87"/><path class="cls-3" d="M155.74,247.48a29,29,0,1,1-29,29,29,29,0,0,1,29-29m0-1.55a30.55,30.55,0,1,0,30.54,30.55,30.55,30.55,0,0,0-30.54-30.55Z"/><path class="cls-5" d="M170,253.69a26.87,26.87,0,0,1,0,45.56,12.53,12.53,0,0,0-.63-3.35l0-.13-.07-.13-1.35-2.27-.14-.25-.25-.15-1.41-.86-1.55-1.88-.83-4.71c1-.74,3-2.23,3.7-2.8a16,16,0,0,1,2.5-1.45h3.32l.35-.46,2.54-3.37,1.75-2.32-2.87.48-.36.06-.87-2.61-.49-2-.44-1.7-1.4,1.06-1.66,1.27-.74.57.35.76-1.48.44-2.62.77-2.63.44-.67.11-.23.64c0,.1-.82,2.27-1.09,3.06a2.65,2.65,0,0,1-.34.21l-1.29-1.66.61-.63.09-.09.06-.1,1.12-1.8.57-.91-.86-.64-2-1.44V268.9l-.29-.33-1.2-1.35-.94-1.05-.85,1.12-.84,1.1L153.39,267l.48-.37.45-.35v-1.87h2.29l.27-.15,2.29-1.27.26-.15.16-.25,2.69-4.33,7.69-4.61m-.56,19.37,0,.07.62,1.35-.56.56-.09-.06v-1.92m.56-20.73-8.53,5.12L158.6,262l-2.29,1.27h-3.15v2.47l-1.45,1.12,2.89,3.37,1.71-2.24,1.2,1.34V272l2.44,1.8-1.12,1.79L157.51,277l2.44,3.14s1.57-.45,1.79-1.12,1.12-3.14,1.12-3.14l2.7-.45,2.69-.79v1l1.41.9,1.79-1.8-1-2.07,1.67-1.27.5,2,1.2,3.59,1.34-.23-2.54,3.37h-3a18.56,18.56,0,0,0-3,1.72c-.9.75-4.22,3.18-4.22,3.18l1,5.72,1.87,2.27,1.57,1,1.35,2.28s1,3.41.36,4.13c-.32.36.19.61.46.76a28,28,0,0,0,.9-48.8Z"/><path class="cls-5" d="M148.88,272.12v1.36l-3.41,2.17-1.55-2.44a2,2,0,0,1,1-.3,17.07,17.07,0,0,0,3.94-.79m1.16-1.59a24.14,24.14,0,0,1-5.1,1.21,3.45,3.45,0,0,0-2.53,1.26l2.7,4.26,4.93-3.14v-3.59Z"/><path class="cls-5" d="M135.46,292.07l3.86,3.94.27.28.39,0c.65.1,2.46.61,3,1.74a16.36,16.36,0,0,0,2.09,3.05,26.66,26.66,0,0,1-11.12-9l1.54-.08m.46-1.18-4.09.21a28.07,28.07,0,0,0,17,12.54s-3.9-4.08-4.79-6-3.86-2.4-3.86-2.4l-4.23-4.31Z"/><path class="cls-5" d="M144.4,255.54l2.75,1.76V259h-2.61l-.19.06s-1.89.67-3.26,1.11a18.58,18.58,0,0,0-3.18,1.45l-.4.23-.13.45-.92,3.14-.19.62.44.48,1.61,1.8-.48,2.09L135,274.29l-.08.11-.06.12L133,278.86l-1.92,2.34-.26.32v2.25l.11.24.37.76-1,.39a26.88,26.88,0,0,1,8.59-29.62h5.5m.34-1.16H138.5a28,28,0,0,0-8.87,32.3l3.23-1.3-.9-1.87v-1.57l2-2.47,1.94-4.49,3-4,.67-2.91-2-2.25.93-3.14a17.88,17.88,0,0,1,2.95-1.34c1.4-.45,3.29-1.12,3.29-1.12h3.57v-3.52l-3.57-2.28Z"/><path class="cls-6" d="M184.47,247.61c-2.74-2.74-8.36-2-15.31,1.43l1.31.68h0c3.66-1.73,6.82-2.62,9.24-2.62a5.35,5.35,0,0,1,3.94,1.34c2.27,2.27,1.62,7.45-1.79,14.23-3.56,7.06-9.66,15.09-17.19,22.62s-15.55,13.62-22.62,17.18c-6.77,3.41-12,4.07-14.23,1.79-2.13-2.13-1.68-6.83,1.2-13h0l-.68-1.31c-3.36,6.86-4.05,12.4-1.33,15.12a6.46,6.46,0,0,0,4.77,1.68c7.69,0,21-7.89,33.73-20.66C181.61,270,190,253.08,184.47,247.61Z"/><rect class="cls-3" x="277.85" y="269.53" width="6.26" height="1.66" rx="0.77" ry="0.77" transform="translate(349.51 -113.5) rotate(56.23)"/><rect class="cls-6" x="280.41" y="272.91" width="5.66" height="1.66" rx="0.77" ry="0.77" transform="translate(353.32 -113.88) rotate(56.23)"/><rect class="cls-4" x="271.7" y="269.49" width="10.01" height="1.66" rx="0.77" ry="0.77" transform="translate(347.57 -109.97) rotate(56.23)"/><rect class="cls-3" x="276.48" y="276.63" width="10.01" height="1.66" rx="0.77" ry="0.77" transform="translate(355.63 -110.77) rotate(56.23)"/><rect class="cls-4" x="282.29" y="268.46" width="4.44" height="1.66" rx="0.77" ry="0.77" transform="translate(350.18 -116.91) rotate(56.23)"/><rect class="cls-3" x="283.88" y="270.18" width="3.55" height="1.66" rx="0.77" ry="0.77" transform="translate(352.13 -117.1) rotate(56.23)"/><rect class="cls-4" x="285.14" y="270.93" width="10.51" height="1.66" rx="0.77" ry="0.77" transform="translate(225.95 664.22) rotate(-123.77)"/><rect class="cls-3" x="280.12" y="263.42" width="10.51" height="1.66" rx="0.77" ry="0.77" transform="translate(224.38 648.37) rotate(-123.77)"/><rect class="cls-4" x="238.37" y="302.12" width="10.01" height="1.66" rx="0.77" ry="0.77" transform="translate(126.85 673.66) rotate(-123.77)"/><rect class="cls-3" x="233.59" y="294.97" width="10.01" height="1.66" rx="0.77" ry="0.77" transform="matrix(-0.56, -0.83, 0.83, -0.56, 125.36, 658.58)"/><rect class="cls-3" x="268.08" y="271.11" width="10.94" height="1.66" rx="0.77" ry="0.77" transform="translate(347.52 -106.62) rotate(56.23)"/><rect class="cls-6" x="273.31" y="278.92" width="10.94" height="1.66" rx="0.77" ry="0.77" transform="translate(356.33 -107.5) rotate(56.23)"/><rect class="cls-4" x="270.42" y="280.82" width="10.78" height="1.66" rx="0.77" ry="0.77" transform="matrix(-0.56, -0.83, 0.83, -0.56, 195.02, 667.49)"/><rect class="cls-3" x="265.27" y="273.13" width="10.78" height="1.66" rx="0.77" ry="0.77" transform="translate(193.4 651.25) rotate(-123.77)"/><rect class="cls-3" x="268.02" y="282.06" width="8.74" height="1.66" rx="0.77" ry="0.77" transform="translate(188.67 666.57) rotate(-123.77)"/><rect class="cls-6" x="263.85" y="275.82" width="8.74" height="1.66" rx="0.77" ry="0.77" transform="translate(187.37 653.4) rotate(-123.77)"/><rect class="cls-3" x="262.29" y="284.64" width="6.68" height="1.66" rx="0.77" ry="0.77" transform="translate(176.01 664.97) rotate(-123.77)"/><rect class="cls-6" x="260.02" y="280.87" width="6.17" height="1.66" rx="0.77" ry="0.77" transform="translate(175.22 657) rotate(-123.77)"/><rect class="cls-3" x="254.31" y="281.34" width="9.75" height="1.66" rx="0.77" ry="0.77" transform="matrix(0.56, 0.83, -0.83, 0.56, 349.64, -90.13)"/><rect class="cls-6" x="258.96" y="288.3" width="9.75" height="1.66" rx="0.77" ry="0.77" transform="matrix(0.56, 0.83, -0.83, 0.56, 357.49, -90.91)"/><rect class="cls-3" x="287.96" y="269.12" width="10.94" height="1.66" rx="0.77" ry="0.77" transform="matrix(-0.56, -0.83, 0.83, -0.56, 232.17, 663.93)"/><rect class="cls-6" x="282.74" y="261.31" width="10.94" height="1.66" rx="0.77" ry="0.77" transform="translate(230.54 647.44) rotate(-123.77)"/><rect class="cls-4" x="264.48" y="279.9" width="4.46" height="1.66" rx="0.77" ry="0.77" transform="translate(351.79 -97.03) rotate(56.23)"/><rect class="cls-3" x="266.24" y="282.12" width="3.9" height="1.66" rx="0.77" ry="0.77" transform="translate(354.29 -97.28) rotate(56.23)"/><rect class="cls-4" x="255.72" y="290.69" width="10.94" height="1.66" rx="0.77" ry="0.77" transform="translate(164.07 670.68) rotate(-123.77)"/><rect class="cls-3" x="250.49" y="282.88" width="10.94" height="1.66" rx="0.77" ry="0.77" transform="translate(162.44 654.19) rotate(-123.77)"/><rect class="cls-4" x="250.3" y="294" width="9.24" height="1.66" rx="0.77" ry="0.77" transform="translate(151.56 670.63) rotate(-123.77)"/><rect class="cls-3" x="245.89" y="287.41" width="9.24" height="1.66" rx="0.77" ry="0.77" transform="translate(150.18 656.7) rotate(-123.77)"/><rect class="cls-3" x="247.68" y="284.9" width="10.78" height="1.66" rx="0.77" ry="0.77" transform="translate(349.89 -83.48) rotate(56.23)"/><rect class="cls-6" x="252.83" y="292.59" width="10.78" height="1.66" rx="0.77" ry="0.77" transform="translate(358.56 -84.34) rotate(56.23)"/><rect class="cls-3" x="247.5" y="292.2" width="3.94" height="1.66" rx="0.77" ry="0.77" transform="translate(354.35 -77.24) rotate(56.23)"/><rect class="cls-6" x="248.78" y="293.48" width="3.09" height="1.66" rx="0.77" ry="0.77" transform="translate(355.8 -77.38) rotate(56.23)"/><rect class="cls-3" x="237.42" y="293.45" width="8.79" height="1.66" rx="0.77" ry="0.77" transform="translate(352 -70.33) rotate(56.23)"/><rect class="cls-6" x="241.62" y="299.72" width="8.79" height="1.66" rx="0.77" ry="0.77" transform="translate(359.08 -71.03) rotate(56.23)"/><rect class="cls-4" x="243.78" y="293.96" width="5.26" height="1.66" rx="0.77" ry="0.77" transform="translate(354.46 -73.91) rotate(56.23)"/><rect class="cls-3" x="245.6" y="295.79" width="4.05" height="1.66" rx="0.77" ry="0.77" transform="translate(356.52 -74.12) rotate(56.23)"/><path class="cls-3" d="M298.25,274.17l-3,2c-2.71,1.82-5.44-.27-10.39-4l-1.27-1c-6-4.53-9.84-5.1-14.3-2.09-4.09,2.77-4,8.7-2.23,13,1.94,4.68,2,11.59-4.06,15.63-4.78,3.17-8,1.18-11.32-.92a34.47,34.47,0,0,0-3.36-1.94c-6.16-3-9.8-4.19-10.8-3.52L234,293.75l-.8-1.19,3.55-2.37c1.57-1.05,5-.09,12.22,3.43a35.6,35.6,0,0,1,3.49,2c3.34,2.09,5.76,3.6,9.77.95,5.37-3.56,5.26-9.71,3.53-13.9-2.08-5-2-11.53,2.75-14.76,5.78-3.9,10.56-2,16,2.13l1.27,1c4.88,3.72,6.94,5.19,8.72,4l3-2Z"/><path class="cls-3" d="M285.54,278.71a10.28,10.28,0,0,1-5,7.29c-4.81,3.18-10.85.74-14.7-3.1-3.21-3.19-8.85-5.65-14.19-2-4,2.69-3.51,5.5-2.85,9.39a38.28,38.28,0,0,1,.52,4c.49,8,.07,11.55-1.51,12.6l-3.54,2.37-.8-1.19,3.55-2.37c1-.67,1.29-4.48.87-11.32a37.38,37.38,0,0,0-.5-3.85c-.66-3.91-1.29-7.6,3.46-10.81,6.06-4.09,12.41-1.36,16,2.22,3.33,3.31,8.78,5.64,12.9,2.92,4.48-3,5.44-6.77,3.53-14-.14-.53-.27-1.05-.4-1.54-1.61-6-2.49-9.33.22-11.15l3-2,.8,1.19-3,2c-1.79,1.2-1.22,3.66.36,9.59.13.5.27,1,.41,1.55A21.07,21.07,0,0,1,285.54,278.71Z"/><path class="cls-3" d="M45.33,239.53a100.61,100.61,0,0,1-10.26-.73l-1.19-.12c-3.44-.35-8.52-4.31-10.32-9.42s-2.16-18.82.51-22.07c1.93-2.34,6.86-5.6,11.62-8.74,1.4-.92,2.72-1.79,3.91-2.61,5.29-3.62,18-12.07,21.29-12.51,3.62-.48,5.37.75,11.75,8.24h0c2.15,2.52,4.6,5.82,6.57,8.46.57.76,1.09,1.47,1.57,2.1,2.86,3.79,4.7,6.89,2.38,12.34S68,231.15,61.43,235.21A29.09,29.09,0,0,1,45.33,239.53ZM62.11,184.4a7.92,7.92,0,0,0-1.06.08c-2.53.33-12.4,6.58-20.79,12.32-1.21.82-2.53,1.69-3.93,2.62-4.47,3-9.55,6.3-11.36,8.51-2.22,2.7-2.11,15.86-.32,20.94s6.62,8.37,9.35,8.65l1.19.13c9.22,1,17.18,1.78,25.63-3.43,7.09-4.37,19.29-15.56,21.27-20.21,2.09-4.89.55-7.49-2.24-11.18l-1.57-2.1c-2-2.64-4.4-5.91-6.52-8.41h0C66.19,185.79,64.39,184.4,62.11,184.4Z"/><circle class="cls-4" cx="45.57" cy="227.83" r="6.58"/><ellipse class="cls-6" cx="36.16" cy="207.08" rx="7.01" ry="2.79" transform="translate(-115.09 61.09) rotate(-36.11)"/><ellipse class="cls-6" cx="29.48" cy="221.69" rx="2.79" ry="7.01" transform="translate(-2.23 0.31) rotate(-0.58)"/><ellipse class="cls-6" cx="72.52" cy="205.36" rx="2.79" ry="7.01" transform="translate(-132 130.51) rotate(-50.45)"/><ellipse class="cls-6" cx="65.65" cy="221.99" rx="7.01" ry="2.79" transform="translate(-127.22 93.96) rotate(-39.95)"/><ellipse class="cls-6" cx="58.79" cy="194.02" rx="7.01" ry="2.79" transform="translate(-28.92 11.24) rotate(-8.78)"/><path class="cls-4" d="M65.92,211.6c-.62-5.15-.26-6.15-8.07-8.87s-9-2.77-11.21,1.47-2.5,5.26-4.51,8.31S43.58,216,47.55,216s7.44,2.5,11.86,2.44S66.45,216.08,65.92,211.6Z"/><circle class="cls-4" cx="37.67" cy="215.72" r="1.73"/><circle class="cls-4" cx="35.81" cy="232.14" r="1.73"/><circle class="cls-4" cx="57.72" cy="230.4" r="1.73"/><circle class="cls-4" cx="48.95" cy="195.86" r="1.73"/><circle class="cls-4" cx="69.89" cy="196.63" r="1.73"/><rect class="cls-3" x="69.21" y="216.67" width="7.53" height="1.07" rx="0.5" ry="0.5" transform="translate(205.46 30.24) rotate(53.89)"/><rect class="cls-3" x="70.17" y="215.52" width="7.53" height="1.07" rx="0.5" ry="0.5" transform="translate(204.92 28.99) rotate(53.89)"/><rect class="cls-3" x="70.79" y="213.9" width="7.53" height="1.07" rx="0.5" ry="0.5" transform="translate(203.86 27.83) rotate(53.89)"/><rect class="cls-3" x="40.8" y="199.87" width="7.53" height="1.07" rx="0.5" ry="0.5" transform="translate(-65.76 27.27) rotate(-19.97)"/><rect class="cls-3" x="39.96" y="198.63" width="7.53" height="1.07" rx="0.5" ry="0.5" transform="translate(-65.39 26.91) rotate(-19.97)"/><rect class="cls-3" x="38.57" y="197.58" width="7.53" height="1.07" rx="0.5" ry="0.5" transform="translate(-65.11 26.37) rotate(-19.97)"/><rect class="cls-3" x="33.66" y="221.27" width="7.53" height="1.07" rx="0.5" ry="0.5" transform="translate(-185.23 253.78) rotate(-88.59)"/><rect class="cls-3" x="32.2" y="221.6" width="7.53" height="1.07" rx="0.5" ry="0.5" transform="translate(-186.98 252.63) rotate(-88.59)"/><rect class="cls-3" x="30.72" y="222.51" width="7.53" height="1.07" rx="0.5" ry="0.5" transform="translate(-189.34 252.04) rotate(-88.59)"/></g><g id="Vrstva_17" data-name="Vrstva 17"><rect class="cls-7" x="-0.1" y="50.63" width="151.37" height="82.5"/><path class="cls-8" d="M27.25,78.21H31.5v27.34H27.25Zm4.41,0h1.45l2.65,27.34H34.32Zm6.91,0H40l-2.66,27.34H35.92Zm1.61,0h4.29v27.34H40.18Z"/><path class="cls-8" d="M60.61,78.21v20.9a2.32,2.32,0,0,0,.8,1.79,2.48,2.48,0,0,0,3.55,0,2.36,2.36,0,0,0,.8-1.79V78.21h4.3V99.26a5.82,5.82,0,0,1-1,3.28,7.2,7.2,0,0,1-2.56,2.37,6.78,6.78,0,0,1-6.68,0,7.25,7.25,0,0,1-2.55-2.37,5.75,5.75,0,0,1-1-3.28V78.21Z"/><path class="cls-8" d="M87.6,78.21v27.34H83.3V78.21Zm1.64,0,4.06,27.34H91.82L87.75,78.21Zm8.51,0v27.34H93.46V78.21Z"/><path class="cls-8" d="M115.68,104V79.73H112V78.21h11.68v1.52H120V104h3.71v1.52H112V104Z"/></g></svg>