<svg xmlns="http://www.w3.org/2000/svg" viewBox="0 0 820 312"><defs><style>.cls-1{fill:#c3d4fc;}.cls-2,.cls-4,.cls-9{fill:blue;}.cls-3{fill:#efefef;}.cls-4{font-size:16.56px;font-family:NeueHaasUnicaPro-Regular, Neue Haas Unica Pro;}.cls-5{letter-spacing:-0.02em;}.cls-6{letter-spacing:0.01em;}.cls-7{letter-spacing:-0.01em;}.cls-8{letter-spacing:-0.02em;}.cls-9{font-size:34.51px;font-family:NeueHaasUnicaPro-Bold, Neue Haas Unica Pro;font-weight:700;}.cls-10{letter-spacing:-0.03em;}.cls-11{letter-spacing:0.01em;}.cls-12{font-size:27.61px;}.cls-13{letter-spacing:-0.01em;}.cls-14{letter-spacing:0.01em;}.cls-15{letter-spacing:0em;}.cls-16{letter-spacing:-0.03em;}.cls-17{fill:none;stroke:blue;stroke-miterlimit:10;stroke-width:4px;}.cls-18{fill:#fff;}.cls-19{fill:#486afc;}.cls-20{fill:#f2f2f2;}.cls-21{fill:#ffe368;}.cls-22{fill:#7594f9;}</style></defs><title>zahlavi_bile_vystupy_novyvizual</title><g id="Vrstva_24" data-name="Vrstva 24"><polygon class="cls-1" points="-2.08 287.37 820 281.65 820 -0.75 -2.08 -0.75 -2.08 287.37"/><rect class="cls-2" x="56.72" y="-0.75" width="122.35" height="66.69"/><path class="cls-3" d="M896.59,270.08l-19.93-13.52H798.57V198c2.64-.44,4.34-1.13,4.34-1.91s-1.7-1.47-4.34-1.92v-4c2.64-.48,4.34-1.23,4.34-2.08,0-.33-.27-.65-.78-1A1.26,1.26,0,0,0,803,186a1.25,1.25,0,1,0-2.5,0,1.44,1.44,0,0,0,.13.56,17.77,17.77,0,0,0-2-.49v-3.81c2.64-.51,4.34-1.29,4.34-2.16s-1.7-1.66-4.34-2.16v-3.49a14.65,14.65,0,0,0,2.71-.79.82.82,0,0,0,.8,1.07.84.84,0,0,0,.22-1.64,1.27,1.27,0,0,0,.61-.95c0-.39-.3-.77-.83-1.1h.16a.75.75,0,1,0-.75-.75.72.72,0,0,0,.21.51,16.38,16.38,0,0,0-4.87-1.27,2.89,2.89,0,0,0,.91-2.08,2.85,2.85,0,0,0-2.85-2.84h-.21l-1.16-2.93v-1.48h.8v-.4h-.8v-3h.79v-.41h-.79v-3h.79v-.4h-.79v-3h.79v-.41h-.79v-3h.79v-.41h-.79v-3h.79v-.41h-.79v-3h.79v-.4h-.79v-3h.79v-.4h-.79v-1.49h-.88v0l-.94.94v-1h.22v-1.85h-.4v-.37h.4v-1.84h-.4v-.39h.4v-1.84h-.4V128h.4v-1.84h-.4v-.49h.4v-1.85h-1.31v1.85h.4v.49h-.4V128h.4v.39h-.4v1.84h.4v.39h-.4v1.84h.4v.37h-.4v1.85h.21v1l-.94-.94v0H789v1.49h-.79v.4H789v3h-.79v.4H789v3h-.79v.41H789v3h-.79v.41H789v3h-.79v.41H789v3h-.79v.4H789v3h-.79v.41H789v3h-.78v.4H789v1.48l-1.73,4.35a1.93,1.93,0,1,0-1.35,3.34l-.11.26c-3.18.52-5.29,1.44-5.29,2.49s1.7,1.78,4.35,2.31v1a1.64,1.64,0,0,0-1-.34,1.67,1.67,0,0,0-.68,3.19c-1.66.47-2.66,1.09-2.66,1.76,0,.87,1.7,1.65,4.35,2.16v3.81c-2.65.48-4.35,1.23-4.35,2.07s1.7,1.6,4.35,2.08v4c-2.65.45-4.35,1.13-4.35,1.92s1.7,1.47,4.35,1.91v58.53H565.08L499,266.29l-40.89,6L443,274.55l43.07.75,25.41.45,2.87.05h0l401.06,7ZM791.77,163.79l.39.89-.31,2C791.82,165.69,791.79,164.66,791.77,163.79Zm2.14,1-.13.05,0-.45Zm-1.23,4.43h-.62l.16-.82A2.71,2.71,0,0,0,792.68,169.24Zm0-9v.88l-.87-.88Zm-.9-.4.9-.9v.9Zm.9-3v.88l-.89-.88Zm-.89-.41.89-.89v.89Zm.89-3v.89l-.89-.89Zm-.89-.4.89-.89v.89Zm.89-3V151l-.89-.89Zm-.89-.41.89-.89v.89Zm.89-3v.88l-.89-.88Zm-.89-.41.89-.89v.89Zm.89-3v.88l-.89-.88Zm-.89-.41.89-.89v.89Zm.89-3v.9l-.89-.9Zm-.89-.4.89-.89v.89Zm.89-4.29v.89h-.89Zm0,1.29v.89l-.89-.89Zm-.94.52.94.95v.06l-.94.94Zm0,3.41.94.94v.07l-.94.94Zm0,3.4.94.94v.07l-.94.94Zm0,3.4.94.94v0l-.94.94Zm0,3.37.94,1v0l-.94.95Zm0,3.37.94,1v0l-.94.95Zm0,3.38.94.94v0l-.94.94Zm0,3.35.94.94v0l-.26,1.63-.68-1.63Zm-.81,2.94.21,5.55h0l-.7-4.32Zm-1-28.43.89.89h-.89Zm0,1.29h.89l-.89.89Zm0,1.47.94-.95V139l-.94-.94Zm0,.64.89.89h-.89Zm0,1.29h.89l-.89.9Zm0,1.47.94-.94v1.95l-.94-.94Zm0,.64.89.89h-.89Zm0,1.3h.89l-.89.88Zm0,1.46.94-.94v1.95l-.94-.94Zm0,.64.89.89h-.89Zm0,1.3h.89l-.89.88Zm0,1.46.94-.94v1.92l-.94-.94Zm0,.61.89.89h-.89Zm0,1.3h.89l-.89.89Zm0,1.47.94-1v1.93l-.94-.95Zm0,.61.89.89h-.89Zm0,1.29h.89l-.89.89Zm0,1.47.94-1v1.93l-.94-.95Zm0,.61.89.89h-.89Zm0,1.3h.89l-.89.88Zm0,1.46.94-.94v1.9l-.94-.94Zm0,.6.9.9h-.9Zm0,1.3h.88l-.88.88Zm0,1.45.94-.94v1l-.67,1.69-.27-1.69Zm-.28,3.06v0s0,0,0,0S789.6,164.76,789.6,164.74Zm-.27,2.79.54-1.35.6,3.07c-.45,0-.89,0-1.32.05C789.2,168.8,789.26,168.2,789.33,167.53Zm-2.5,1.65a1.91,1.91,0,0,0,1.06-1.71,2.06,2.06,0,0,0-.11-.61l1-2.45-.26,3.08c-.3.74-.57,1.41-.79,1.93-.35,0-.7.07-1,.12Zm-6.3,5.47a1.09,1.09,0,1,0,1.09,1.09A1.08,1.08,0,0,0,780.53,174.65Zm0,8.52a.67.67,0,0,0-.67.67.67.67,0,0,0,1.34,0A.67.67,0,0,0,780.53,183.17Zm2.42-1a1.7,1.7,0,1,0,1.7,1.7A1.7,1.7,0,0,0,783,182.14Zm17.12.53a1.17,1.17,0,1,0,1.17,1.17A1.17,1.17,0,0,0,800.07,182.67Zm0-7a1.17,1.17,0,1,0,1.17,1.17A1.17,1.17,0,0,0,800.07,175.65Zm2-.41a.92.92,0,1,0,.91.91A.92.92,0,0,0,802.08,175.24Zm.83,2.59a.67.67,0,1,0,.67.67A.67.67,0,0,0,802.91,177.83ZM780.28,177a1,1,0,1,0,1,1A1,1,0,0,0,780.28,177Zm19.79-9.72a1.17,1.17,0,1,0,1.17,1.17A1.17,1.17,0,0,0,800.07,167.3Zm-17.87,1.59a.75.75,0,1,0,.75.75A.75.75,0,0,0,782.2,168.89Z"/><path class="cls-3" d="M452.94,243.42H427.4l-.12-4.67.73-.12-7.62-3.39-3.93-.33V233.2h-.82v1.65l-5.43-.46-1-1.55h-.76v-.41h-.81v.41h-3.45v-1.62h-2.14v1.62h-1.91v-1.16h-1.24v1.16h-2.39v-1.45h-1.27v1.45h-.63v-1.45h-.73v1.45h-2.16l-4.87-.41v-1.86h-1.22v1.76l-1.3-.11L378,228.74l-6.82-.55V226.9h-.73v1.23l-1.2-.1-2.86,1.34h-2.17l-.57.59-.86-.45v-6.15l.31,0v-.79l-.43,0-1-1.68-1-.84v-.84l-.29-1.7h-.48l-.48,1.73v.83l-1.06.93-1,1.55h-.21v.64h.22V229l-2-.1v.73l-1.31,0v-.46H352.3v-9h-.45v2h-.43v2.75h.43v3.86l-8.09-6.15-3.78,0L337.9,224l-1.82,0-1.68-1.82H318.89l-8,7.8h.59v4.36l-.91,1.08v5.58l-4.3,0v-2.6h1.15l-4.69-3.55v-1.44h-.85v.8l-4.38-3.31h-2.18v-1.06h-1.75v1.06h-4.11v-1.06h-1.76v1.06h-4.59v-1.06h-1.76v1.06h-4v-1.06h-1.75v1.06h-1.54L264,237.9v5.52l-46,4.19,2.62,38.78,290.08-7.11Z"/><path class="cls-3" d="M1386.34,270.54V312H317.79L416,281.81h0l81.38-5.21,13.29-.85,2.53-.16,92.68-5.94,17.88,0V231.26l1.92-4.49v-5.43l1.06-1.48,1.18-10.37.51,4.11c.22-4.83.45-9.55.45-9.86l1.37,10.38c.32-2.12.66-4.37.71-4.63,0,0,.37,1.67.78,3.45l10.18-14.09,2.24-16.71s.54,6.23,1.14,12l3.81-5.26c.42-5.28,1-12.22,1-12.46,0,0,.38,5.41.72,10.12l1.27-1.77V174.46l2.33-2.81.56-9.67.9,9.37,2,4.55v4.76l.76-.1.6-5s.23,2.23.49,4.84L684,177.31V164.38h1.12v-6.71h.56v-8.4h1.92v8.4h.56v6.71h1V144.22h1.28v-5.63h3.88l2.77-68.54a2,2,0,0,1,.16-4l0-.72,0,.72a2,2,0,0,1,.19,4l3.3,68.54h3.32v5.63h1.28V165h1.12V158.3h.56v-8.39H709v8.39h.56V165h1.12v8.87l4.24-.55,5.28,6.38V169.18h1.11v-6.72h.56v-8.39h1.93v8.39h.56v6.72h1V149h1.28v-5.63h3.88l2.77-68.54a2,2,0,0,1,.16-4l0-.72,0,.72a2,2,0,0,1,.19,4l3.3,68.54h3.31V149h1.28v20.8h1.12V163.1h.56v-8.39h1.92v8.39h.56v6.72h1.12v28.31l7.36-.79,10.88,20.47,3.2,2.25v3.83l3.84,6.4V270l123.59.11Z"/><path class="cls-3" d="M514.59,279.35l-4.6-.49-21.08-2.26-12.12-1.3-27.92-3L218,247.61l-37.92-.28.23-12.3-37.63,0v-3.19H141v-11h.68v-6.13a13.19,13.19,0,0,0-7.36-11.82v-2.07h-11.6v2.07a13.17,13.17,0,0,0-7.36,11.82v6.13h.68v11h-1.66V235h-5.8V196.6h-6a12.73,12.73,0,0,0-8.64-6.77v-1.07H92.15v-.44h-2v.44H88.38v1.07A12.73,12.73,0,0,0,78.86,199h-7V202h-9v-8.48H52v-2.75H42.6v2.75H40V202H24.61v-4H23v4h-.87v-4H20.6v4h-2V196.6H15A31.16,31.16,0,0,0-8,175.62v-2.25h-2.64v-.7h-7.89v.7H-21.2v2.25a31.18,31.18,0,0,0-23.06,21h-3.41v3.76h-52V236l-127.72-.11v2l0,32.28H-595.48V312H546ZM-31,237.6h-5.11V225.35H-31Zm6.3,0h-5.14V225.35h5.14Zm6.3,0h-5.14V225.35h5.14Zm6.29,0h-5.13V225.35h5.13Zm6.3,0h-5.13V225.35h5.13Zm6.3,0H-4.65V225.35H.49Zm6.29,0H1.65V225.35H6.78Zm15-5.1H18.56V222.05h3.17Zm4.17,0H22.73V222.05H25.9Zm4.18,0H26.9V222.05h3.18Zm4.17,0H31.08V222.05h3.17Zm4.18,0H35.26V222.05h3.17Zm4.17,0H39.43V222.05H42.6Zm4.18,0H43.61V222.05h3.17Zm4.18,0H47.78V222.05H51Zm4.16,0H52V222.05h3.17Zm4.18,0H56.13V222.05H59.3Zm4.17,0H60.3V222.05h3.17Zm4.18,0H64.48V222.05h3.17Zm4.18,0H68.65V222.05h3.18Zm31.53,3.22H77.65V225.35h25.71Z"/><text class="cls-4" transform="translate(407.65 199.44)"><tspan class="cls-5">V</tspan><tspan x="10.05" y="0">í</tspan><tspan class="cls-6" x="14.1" y="0">c</tspan><tspan x="23.04" y="0">e i</tspan><tspan class="cls-7" x="40" y="0">n</tspan><tspan class="cls-8" x="49.41" y="0">f</tspan><tspan x="54.21" y="0">o</tspan></text><text class="cls-9" transform="translate(394.16 125.8)">A<tspan class="cls-10" x="24.09" y="0">k</tspan><tspan class="cls-11" x="41.93" y="0">c</tspan><tspan x="61.53" y="0">e na MUNI</tspan><tspan class="cls-12"><tspan x="0" y="33.13">p</tspan><tspan class="cls-13" x="16.51" y="33.13">r</tspan><tspan x="27" y="33.13">o st</tspan><tspan class="cls-13" x="73.96" y="33.13">ř</tspan><tspan class="cls-14" x="84.45" y="33.13">e</tspan><tspan x="100.54" y="33.13">d</tspan><tspan class="cls-15" x="117.05" y="33.13">o</tspan><tspan x="133.45" y="33.13">š</tspan><tspan class="cls-16" x="147.91" y="33.13">k</tspan><tspan x="162.19" y="33.13">oláky</tspan></tspan></text><rect class="cls-17" x="394.71" y="181.36" width="92.39" height="25.95" rx="4" ry="4"/><path class="cls-18" d="M78.83,21.54h3.44v22.1H78.83Zm3.56,0h1.17l2.15,22.1H84.54Zm5.59,0h1.17L87,43.64H85.84Zm1.3,0h3.47v22.1H89.28Z"/><path class="cls-18" d="M105.79,21.54V38.43a1.93,1.93,0,0,0,.65,1.46,2,2,0,0,0,2.87,0,1.93,1.93,0,0,0,.65-1.46V21.54h3.47v17a4.68,4.68,0,0,1-.79,2.65,5.68,5.68,0,0,1-2.07,1.91,5.47,5.47,0,0,1-5.39,0,5.68,5.68,0,0,1-2.07-1.91,4.68,4.68,0,0,1-.79-2.65v-17Z"/><path class="cls-18" d="M127.61,21.54v22.1h-3.47V21.54Zm1.33,0,3.28,22.1H131l-3.28-22.1Zm6.88,0v22.1h-3.48V21.54Z"/><path class="cls-18" d="M150.31,42.41V22.77h-3V21.54h9.44v1.23h-3V42.41h3v1.23h-9.44V42.41Z"/><path class="cls-19" d="M236.25,108.85a8.57,8.57,0,0,1-6.08-2.24c-2.76-2.68-3.18-7.38-1.17-13.24,1.94-5.67,5.95-11.82,11.27-17.3,11.3-11.65,24.58-16.48,30.23-11,2.76,2.68,3.18,7.38,1.17,13.24-1.95,5.67-5.95,11.82-11.27,17.3s-11.34,9.67-17,11.78A20.17,20.17,0,0,1,236.25,108.85Zm28.09-44.56c-6.13-.07-15.14,4.72-23,12.82-5.17,5.33-9.05,11.28-10.93,16.74-1.81,5.28-1.52,9.43.8,11.69s6.48,2.42,11.71.45c5.41-2,11.23-6.09,16.41-11.42s9.05-11.27,10.92-16.74c1.81-5.28,1.53-9.43-.79-11.69A7.27,7.27,0,0,0,264.34,64.29Z"/><path class="cls-19" d="M236.26,101.42a5.22,5.22,0,0,1-3.72-1.36c-1.91-1.85-2-5.31-.15-9.72a43.71,43.71,0,0,1,9.08-13.11c8.82-9.09,18.73-13.31,22.55-9.6h0c3.82,3.71-.1,13.74-8.93,22.83a43.89,43.89,0,0,1-12.83,9.46A14.74,14.74,0,0,1,236.26,101.42Zm24-33.64c-4,0-10.91,3.45-17.74,10.49a42.26,42.26,0,0,0-8.77,12.64c-1.54,3.75-1.61,6.7-.19,8.08s4.36,1.22,8.07-.43A42.32,42.32,0,0,0,254,89.42c8.79-9.06,11.73-18,9-20.72A3.86,3.86,0,0,0,260.28,67.78Z"/><path class="cls-19" d="M236.05,95.93a2.7,2.7,0,0,1-1.93-.71c-1.26-1.22-1-3.65.79-7a51.3,51.3,0,0,1,17.31-17.83c3.33-1.88,5.75-2.22,7-1s1,3.65-.8,7a45.56,45.56,0,0,1-7.56,10,46.07,46.07,0,0,1-9.75,7.86A10.86,10.86,0,0,1,236.05,95.93Zm21.2-25.8A9.45,9.45,0,0,0,253,71.66a49.84,49.84,0,0,0-16.72,17.23c-1.62,3.08-1.62,4.73-1.08,5.26s2.2.47,5.23-1.23a44.66,44.66,0,0,0,9.41-7.6,44.45,44.45,0,0,0,7.31-9.63c1.61-3.08,1.61-4.74,1.07-5.26h0A1.32,1.32,0,0,0,257.25,70.13Z"/><path class="cls-20" d="M221.74,120.74c-.11-.18-2.57-4.58-1.63-12.48.85-7.19,4.85-18.81,19-33.3s25.82-19,33.1-20.25c8-1.36,12.55.76,12.74.85l-.56,1.18s-4.46-2-12.08-.72c-7.07,1.23-18.4,5.67-32.26,19.85s-17.78,25.46-18.64,32.43c-.92,7.51,1.43,11.75,1.45,11.8Z"/><path class="cls-19" d="M214,87.19a8.67,8.67,0,0,1-6.12-2.25c-2.77-2.69-3.18-7.39-1.17-13.25,1.94-5.67,5.94-11.81,11.26-17.3,11.31-11.64,24.59-16.48,30.23-11s1.21,18.89-10.1,30.54C229.84,82.4,220.58,87.27,214,87.19Zm28-44.57c-6.13-.08-15.14,4.72-23,12.81-5.18,5.33-9.06,11.28-10.93,16.75-1.81,5.28-1.53,9.43.8,11.68,5,4.82,17.57-.11,28.11-11s15.09-23.62,10.13-28.43A7.22,7.22,0,0,0,242,42.62Z"/><path class="cls-19" d="M218,83.72a5.22,5.22,0,0,1-3.7-1.35c-3.82-3.7.1-13.73,8.92-22.82S242,46.23,245.79,49.94h0c3.82,3.71-.1,13.74-8.92,22.83C230.16,79.68,222.83,83.78,218,83.72Zm24-33.63c-4-.05-10.91,3.46-17.75,10.5-8.79,9-11.73,18-8.95,20.71s11.64-.51,20.43-9.57,11.73-18,9-20.72h0A3.85,3.85,0,0,0,242.06,50.09Z"/><path class="cls-19" d="M221,81.36a2.7,2.7,0,0,1-1.93-.71c-1.26-1.22-1-3.65.79-7a51.3,51.3,0,0,1,17.31-17.83c3.33-1.88,5.75-2.22,7-1,2.73,2.65-2.27,10.74-8.35,17a46.32,46.32,0,0,1-9.75,7.86A10.93,10.93,0,0,1,221,81.36Zm21.2-25.8A9.45,9.45,0,0,0,238,57.09a43.78,43.78,0,0,0-9.41,7.59,44.24,44.24,0,0,0-7.32,9.64c-1.61,3.08-1.61,4.73-1.07,5.26s2.19.47,5.22-1.24a44.06,44.06,0,0,0,9.42-7.59c7.13-7.35,9.69-13.63,8.38-14.89A1.34,1.34,0,0,0,242.24,55.56Z"/><path class="cls-20" d="M205.24,95.05c-7.18.81-11.24-1.31-11.42-1.4l.61-1.15-.3.57.3-.58s4.36,2.25,11.84,1.1c6.94-1.06,18.1-5.33,31.85-19.6S256,48.26,257,41.16c1.1-7.66-1.06-12-1.08-12.06l1.17-.59c.09.18,2.34,4.69,1.22,12.71-1,7.32-5.19,19.1-19.24,33.68s-25.56,18.93-32.73,20Z"/><rect class="cls-21" x="230.26" y="71.88" width="3.11" height="21.89" rx="1.54" ry="1.54" transform="translate(11.5 192.63) rotate(-46.15)"/><rect class="cls-21" x="233.85" y="68.13" width="3.11" height="21.89" rx="1.54" ry="1.54" transform="translate(15.3 194.07) rotate(-46.15)"/><rect class="cls-21" x="237.44" y="64.4" width="3.11" height="21.89" rx="1.54" ry="1.54" transform="translate(19.1 195.51) rotate(-46.15)"/><rect class="cls-21" x="241.03" y="60.66" width="3.11" height="21.89" rx="1.54" ry="1.54" transform="translate(22.89 196.95) rotate(-46.15)"/><rect class="cls-21" x="244.62" y="56.93" width="3.11" height="21.89" rx="1.54" ry="1.54" transform="translate(26.69 198.4) rotate(-46.15)"/><path class="cls-22" d="M129.48,149.59l47.77-36.83a.93.93,0,0,0-.89-1.61l-56,20.65-5.58-43.51L103.9,134,67,130.61l29.34,21.66L52.9,164.45l.46,1.65,44.76-12.54.59.43h0l5,3.63L91.84,177.25,129,175.92l20.6,11.27Zm15.92,33.34L130,174.49,125.07,153l3-2.35Zm-30.19-48.51,1.85-.25-16.81,15.48,4.94-13.93Zm4.05.81,3.9,17.07-11.56,8.91-5.6-4.06Zm2.61,3.77,5.42,10.12-2.64,2Zm1.71,15.14L127.9,173l-14.85-10.77Zm5.09-6.08-7.83-14.62,51.32-18.92Zm-10-15.82-3.18.42-9.8,1.27,8.57-36.11ZM73,132.88l30.4,2.81-5.52,15.56Zm26.65,19.66,16.13-14.86-11.16,18.46Zm5.47,6.08,5.08,3.68L96.48,172.87ZM96,175.39l15.61-12,15.09,10.94Z"/><circle class="cls-22" cx="70.01" cy="131.75" r="3.94"/><circle class="cls-20" cx="98.29" cy="152.62" r="3.94"/><circle class="cls-19" cx="104.56" cy="134.94" r="3.94"/><circle class="cls-21" cx="53.13" cy="165.28" r="3.94"/><circle class="cls-19" cx="93.39" cy="176.34" r="3.94"/><circle class="cls-21" cx="129.24" cy="175.06" r="3.94"/><circle class="cls-22" cx="119.62" cy="132.98" r="3.94"/><circle class="cls-19" cx="147.52" cy="185.06" r="3.94"/><circle class="cls-20" cx="177.11" cy="111.79" r="3.94"/><circle class="cls-21" cx="114.5" cy="93.06" r="3.94"/><path class="cls-19" d="M362.68,81.19,376,66.82l-7.16-22.29,12.6-13.1,13.72,2.35.27-1.57L382.26,30l-.82-.78,0,0-3.23-12.63-1.54.39,3.47,13.59-12.41,12.9-18.9-4.77L341.23,23l-.55,0c-5.24.5-22.37,2.13-25.89,2.56L307,18.2l-1.1,1.15,7.61,7.29,1.2,25-8.69,9.44,1.17,1.08,8.52-9.25,16.17,4.14,6.68,19.8,22.57,4.83,3,10.77,1.53-.43ZM333.44,56.61l15.08-16.37L367.34,45l6.89,21.43L361.48,80.15l-21.66-4.64Zm13.86-17.4-15,16.32-15.93-4.08-1.17-24.28c2.95-.34,14.82-1.49,25.11-2.47Z"/><circle class="cls-21" cx="340.94" cy="24.02" r="3.69"/><circle class="cls-20" cx="348.56" cy="39.03" r="3.69"/><circle class="cls-20" cx="314.1" cy="26.65" r="3.69"/><circle class="cls-20" cx="332.12" cy="55.69" r="3.69"/><circle class="cls-20" cx="361.62" cy="81.51" r="3.69"/><circle class="cls-20" cx="367.88" cy="44.29" r="3.69"/><circle class="cls-21" cx="315.58" cy="52.41" r="3.69"/><circle class="cls-21" cx="339.26" cy="76.29" r="3.69"/><circle class="cls-21" cx="375.01" cy="66.79" r="3.69"/><circle class="cls-21" cx="381.85" cy="30.04" r="3.69"/><path class="cls-19" d="M292.31,124A37.31,37.31,0,1,1,255,161.33,37.36,37.36,0,0,1,292.31,124m0-2a39.31,39.31,0,1,0,39.3,39.3,39.31,39.31,0,0,0-39.3-39.3Z"/><path class="cls-22" d="M310.62,132a34.58,34.58,0,0,1,0,58.63,17.29,17.29,0,0,0-.82-4.31l0-.17-.1-.16L308,183.07l-.19-.32-.31-.19-1.81-1.11-2-2.42L302.59,173c1.29-.95,3.87-2.86,4.75-3.6a19.86,19.86,0,0,1,3.22-1.87h4.27l.45-.59,3.27-4.33,2.26-3-3.7.61-.47.08-1.11-3.35-.64-2.52-.55-2.2-1.81,1.37-2.14,1.64-.95.72.45,1-1.91.56-3.37,1-3.38.57-.86.14-.3.82c0,.13-1.06,2.93-1.41,4a2.45,2.45,0,0,1-.43.25l-1.66-2.13.78-.8.11-.12.09-.13,1.44-2.31.74-1.18-1.12-.82-2.52-1.86v-3.28l-.38-.43-1.55-1.73-1.2-1.35-1.1,1.44-1.09,1.42-1.49-1.74.62-.48.58-.45v-2.41h3l.33-.19,3-1.63.34-.19.2-.33,3.47-5.56,9.89-5.94m-.72,24.93,0,.09.79,1.73-.72.72-.11-.07v-2.47m.73-26.68-11,6.59L296,142.72l-2.94,1.63H289v3.18L287.12,149l3.72,4.33,2.21-2.88,1.54,1.73v3.46l3.14,2.31-1.45,2.31L294.59,162l3.14,4s2-.58,2.31-1.45,1.44-4,1.44-4l3.46-.58,3.46-1v1.31l1.83,1.16,2.29-2.31-1.22-2.68,2.14-1.63.65,2.58,1.53,4.62,1.74-.29L314.09,166h-3.86a23,23,0,0,0-3.84,2.21c-1.16,1-5.44,4.1-5.44,4.1l1.29,7.36,2.41,2.91,2,1.24,1.73,2.93s1.32,4.39.47,5.33c-.42.45.24.78.58,1a36.08,36.08,0,0,0,1.17-62.8Z"/><path class="cls-22" d="M283.48,155.72v1.76l-4.39,2.79-2-3.14a2.53,2.53,0,0,1,1.31-.39,21.49,21.49,0,0,0,5.07-1m1.5-2s-4.55,1.56-6.57,1.56a4.42,4.42,0,0,0-3.25,1.62l3.47,5.48,6.35-4v-4.62Z"/><path class="cls-22" d="M266.21,181.4l5,5.07.35.35.49.08c.84.13,3.17.78,3.83,2.23a21.45,21.45,0,0,0,2.69,3.93,34.28,34.28,0,0,1-14.31-11.55l2-.11m.59-1.52-5.26.28a36.16,36.16,0,0,0,21.84,16.13s-5-5.25-6.17-7.78-5-3.09-5-3.09l-5.45-5.54Z"/><path class="cls-22" d="M277.72,134.39l3.54,2.26v2.21h-3.37l-.24.09s-2.42.86-4.19,1.42a24.19,24.19,0,0,0-4.09,1.87l-.52.3-.17.57-1.19,4-.23.8.56.62,2.07,2.31-.62,2.69-3.67,5-.1.14-.07.16L263,164.4l-2.47,3-.34.42v2.89l.15.3.47,1-1.25.5a34.58,34.58,0,0,1,11.06-38.11h7.08m.43-1.49h-8a36.12,36.12,0,0,0-11.42,41.56l4.16-1.67-1.15-2.41v-2l2.6-3.18,2.49-5.77,3.86-5.2.86-3.75-2.59-2.89,1.19-4a22.9,22.9,0,0,1,3.79-1.73c1.82-.58,4.24-1.44,4.24-1.44h4.6v-4.53l-4.6-2.93Z"/><path class="cls-21" d="M329.29,124.18c-3.53-3.53-10.76-2.59-19.71,1.84l1.69.88h0c4.71-2.23,8.77-3.37,11.88-3.37a6.93,6.93,0,0,1,5.08,1.72c2.92,2.92,2.08,9.59-2.31,18.31-4.58,9.09-12.43,19.43-22.12,29.11s-20,17.54-29.1,22.11c-8.72,4.39-15.4,5.24-18.32,2.31-2.74-2.74-2.16-8.79,1.55-16.72h0l-.89-1.69c-4.32,8.83-5.21,16-1.71,19.46a8.34,8.34,0,0,0,6.15,2.16c9.88,0,27-10.14,43.4-26.58C325.61,153,336.33,131.23,329.29,124.18Z"/><rect class="cls-19" x="591.9" y="57.9" width="8.06" height="2.13" rx="1.06" ry="1.06" transform="translate(963.56 -413.76) rotate(122.22)"/><rect class="cls-21" x="589.51" y="62.32" width="7.28" height="2.13" rx="1.06" ry="1.06" transform="translate(963.02 -404.62) rotate(122.22)"/><rect class="cls-20" x="587.31" y="52.85" width="12.88" height="2.13" rx="1.06" ry="1.06" transform="translate(955.94 -419.66) rotate(122.22)"/><rect class="cls-19" x="581.42" y="62.2" width="12.88" height="2.13" rx="1.06" ry="1.06" transform="translate(954.81 -400.33) rotate(122.22)"/><rect class="cls-20" x="596.19" y="61.48" width="5.72" height="2.13" rx="1.06" ry="1.06" transform="matrix(-0.53, 0.85, -0.85, -0.53, 971.35, -410.91)"/><rect class="cls-19" x="595.33" y="63.74" width="4.57" height="2.13" rx="1.06" ry="1.06" transform="translate(971.08 -406.23) rotate(122.22)"/><rect class="cls-20" x="592.46" y="69.7" width="13.53" height="2.13" rx="1.06" ry="1.06" transform="translate(219.87 539.99) rotate(-57.78)"/><rect class="cls-19" x="598.66" y="59.87" width="13.53" height="2.13" rx="1.06" ry="1.06" transform="translate(231.07 540.64) rotate(-57.78)"/><rect class="cls-20" x="531.5" y="30.74" width="12.88" height="2.13" rx="1.06" ry="1.06" transform="translate(224.21 469.95) rotate(-57.78)"/><rect class="cls-19" x="537.39" y="21.39" width="12.88" height="2.13" rx="1.06" ry="1.06" transform="translate(234.88 470.57) rotate(-57.78)"/><rect class="cls-19" x="583.15" y="49.99" width="14.08" height="2.13" rx="1.06" ry="1.06" transform="translate(948.05 -421.02) rotate(122.22)"/><rect class="cls-21" x="576.7" y="60.22" width="14.08" height="2.13" rx="1.06" ry="1.06" transform="translate(946.83 -399.89) rotate(122.22)"/><rect class="cls-20" x="573.02" y="57.72" width="13.87" height="2.13" rx="1.06" ry="1.06" transform="translate(221 518.09) rotate(-57.78)"/><rect class="cls-19" x="579.37" y="47.65" width="13.87" height="2.13" rx="1.06" ry="1.06" transform="translate(232.49 518.75) rotate(-57.78)"/><rect class="cls-19" x="571.09" y="54.35" width="11.25" height="2.13" rx="1.06" ry="1.06" transform="translate(222.34 513.77) rotate(-57.78)"/><rect class="cls-21" x="576.24" y="46.18" width="11.25" height="2.13" rx="1.06" ry="1.06" transform="translate(231.66 514.31) rotate(-57.78)"/><rect class="cls-19" x="565.84" y="47.76" width="8.59" height="2.13" rx="1.06" ry="1.06" transform="translate(224.85 505.13) rotate(-57.78)"/><rect class="cls-21" x="569.28" y="42.82" width="7.94" height="2.13" rx="1.06" ry="1.06" transform="translate(230.48 505.46) rotate(-57.78)"/><rect class="cls-19" x="564.36" y="38.45" width="12.55" height="2.13" rx="1.06" ry="1.06" transform="translate(908.32 -422.18) rotate(122.22)"/><rect class="cls-21" x="558.62" y="47.56" width="12.55" height="2.13" rx="1.06" ry="1.06" transform="translate(907.22 -403.35) rotate(122.22)"/><rect class="cls-19" x="595.9" y="72.32" width="14.08" height="2.13" rx="1.06" ry="1.06" transform="translate(219.39 544.35) rotate(-57.78)"/><rect class="cls-21" x="602.35" y="62.09" width="14.08" height="2.13" rx="1.06" ry="1.06" transform="translate(231.05 545.03) rotate(-57.78)"/><rect class="cls-20" x="573.4" y="46.54" width="5.73" height="2.13" rx="1.06" ry="1.06" transform="translate(923.79 -414.53) rotate(122.22)"/><rect class="cls-19" x="571.92" y="49.45" width="5.02" height="2.13" rx="1.06" ry="1.06" transform="translate(923.44 -408.53) rotate(122.22)"/><rect class="cls-20" x="553.66" y="45.7" width="14.08" height="2.13" rx="1.06" ry="1.06" transform="translate(222.19 496.19) rotate(-57.78)"/><rect class="cls-19" x="560.11" y="35.47" width="14.08" height="2.13" rx="1.06" ry="1.06" transform="translate(233.85 496.87) rotate(-57.78)"/><rect class="cls-20" x="547.58" y="40.06" width="11.89" height="2.13" rx="1.06" ry="1.06" transform="translate(223.6 487.49) rotate(-57.78)"/><rect class="cls-19" x="553.02" y="31.43" width="11.89" height="2.13" rx="1.06" ry="1.06" transform="translate(233.45 488.06) rotate(-57.78)"/><rect class="cls-19" x="556.33" y="33.13" width="13.87" height="2.13" rx="1.06" ry="1.06" transform="translate(892.5 -424.09) rotate(122.22)"/><rect class="cls-21" x="549.98" y="43.2" width="13.87" height="2.13" rx="1.06" ry="1.06" transform="translate(891.29 -403.28) rotate(122.22)"/><rect class="cls-19" x="550.26" y="32.71" width="5.07" height="2.13" rx="1.06" ry="1.06" transform="translate(876.1 -415.88) rotate(122.22)"/><rect class="cls-21" x="549.74" y="34.4" width="3.98" height="2.13" rx="1.06" ry="1.06" transform="translate(875.9 -412.39) rotate(122.22)"/><rect class="cls-19" x="541.66" y="24.38" width="11.32" height="2.13" rx="1.06" ry="1.06" transform="translate(860.65 -424.03) rotate(122.22)"/><rect class="cls-21" x="536.48" y="32.59" width="11.32" height="2.13" rx="1.06" ry="1.06" transform="translate(859.67 -407.04) rotate(122.22)"/><rect class="cls-20" x="545.73" y="30.04" width="6.77" height="2.13" rx="1.06" ry="1.06" transform="translate(868.2 -416.86) rotate(122.22)"/><rect class="cls-19" x="545" y="32.43" width="5.21" height="2.13" rx="1.06" ry="1.06" transform="translate(867.91 -411.92) rotate(122.22)"/><path class="cls-19" d="M600.5,81.26l-4-2.51c-3.55-2.23-2.53-6.53-.68-14.33.15-.64.31-1.3.48-2,2.19-9.39.83-14.25-5-17.91-5.39-3.36-12.33-.18-16.49,4.2-4.5,4.73-12.57,8.47-20.51,3.41-6.22-4-5.55-8.73-4.83-13.78a47.7,47.7,0,0,0,.51-5c.3-8.82-.21-13.71-1.52-14.54l-4.64-2.92,1-1.56,4.64,2.92c2.07,1.31,2.74,5.84,2.38,16.17a47.13,47.13,0,0,1-.53,5.15c-.71,5-1.22,8.65,4,12,7,4.45,14.17,1.1,18.18-3.13C578.28,42.38,586,39,592.26,43c7.62,4.75,7.85,11.38,5.86,19.89-.16.69-.32,1.36-.48,2-1.82,7.69-2.47,10.87-.13,12.35l4,2.5Z"/><path class="cls-19" d="M588.5,68.7c-3.52,1-7.14.52-11.17-2-6.26-4-6.55-12.36-4.06-18.9,2.08-5.44,2-13.36-5-17.75-5.25-3.28-8.31-1.25-12.53,1.56a49.26,49.26,0,0,1-4.42,2.7c-9.17,4.78-13.54,6.13-15.61,4.83l-4.64-2.92,1-1.56,4.64,2.92c1.31.83,6-.82,13.78-4.9A44.46,44.46,0,0,0,554.7,30c4.25-2.82,8.27-5.49,14.52-1.58,8,5,8.1,13.87,5.78,20-2.16,5.65-2,13.28,3.32,16.69,5.84,3.71,10.8,2.85,18.33-3.18l1.59-1.29c6.24-5,9.68-7.81,13.23-5.57l4,2.5-1,1.56-4-2.5c-2.34-1.48-4.93.48-11.08,5.44l-1.6,1.29C594.62,65.91,591.59,67.85,588.5,68.7Z"/><path class="cls-19" d="M557.77,248.15a128.72,128.72,0,0,1-13.21-.93l-1.52-.16c-4.43-.45-11-5.54-13.29-12.12s-2.77-24.21.67-28.4c2.47-3,8.82-7.2,15-11.25,1.8-1.19,3.49-2.31,5-3.36,6.81-4.65,23.11-15.54,27.4-16.1,4.65-.61,6.92,1,15.12,10.6h0c2.77,3.25,5.92,7.49,8.46,10.9.72,1,1.4,1.89,2,2.7,3.67,4.88,6,8.87,3.06,15.88-2.91,6.82-19.49,21.46-28,26.69A37.46,37.46,0,0,1,557.77,248.15Zm21.6-70.94a11.05,11.05,0,0,0-1.37.1c-3.25.43-16,8.47-26.76,15.86-1.54,1.06-3.24,2.18-5,3.37-5.77,3.8-12.29,8.11-14.63,11-2.86,3.48-2.71,20.42-.41,26.95,2.24,6.37,8.52,10.78,12,11.14l1.53.16c11.87,1.23,22.11,2.29,33-4.41,9.13-5.63,24.83-20,27.37-26,2.69-6.3.71-9.64-2.88-14.39l-2-2.71c-2.52-3.39-5.66-7.61-8.4-10.82h0C584.62,179,582.3,177.21,579.37,177.21Z"/><circle class="cls-20" cx="558.08" cy="233.1" r="8.46"/><ellipse class="cls-21" cx="545.97" cy="206.4" rx="9.02" ry="3.59" transform="translate(-16.75 361.4) rotate(-36.11)"/><ellipse class="cls-21" cx="537.37" cy="225.21" rx="3.59" ry="9.02" transform="translate(-2.24 5.42) rotate(-0.58)"/><ellipse class="cls-21" cx="592.77" cy="204.19" rx="3.59" ry="9.02" transform="translate(57.87 531.22) rotate(-50.45)"/><ellipse class="cls-21" cx="583.93" cy="225.58" rx="9.02" ry="3.59" transform="translate(-8.57 427.59) rotate(-39.95)"/><ellipse class="cls-21" cx="575.1" cy="189.59" rx="9.02" ry="3.59" transform="translate(-22.2 89.97) rotate(-8.78)"/><path class="cls-20" d="M584.27,212.22c-.79-6.63-.34-7.92-10.38-11.43s-11.61-3.56-14.43,1.9-3.22,6.77-5.8,10.7,1.86,4.42,7,4.43S570.21,221,575.9,221,585,218,584.27,212.22Z"/><circle class="cls-20" cx="547.92" cy="217.51" r="2.23"/><circle class="cls-20" cx="545.52" cy="238.65" r="2.23"/><circle class="cls-20" cx="573.72" cy="236.41" r="2.23"/><circle class="cls-20" cx="562.44" cy="191.96" r="2.23"/><circle class="cls-20" cx="589.37" cy="192.95" r="2.23"/><rect class="cls-19" x="588.51" y="218.74" width="9.7" height="1.38" rx="0.68" ry="0.68" transform="matrix(0.59, 0.81, -0.81, 0.59, 420.96, -389.26)"/><rect class="cls-19" x="589.75" y="217.26" width="9.7" height="1.38" rx="0.68" ry="0.68" transform="translate(420.27 -390.87) rotate(53.89)"/><rect class="cls-19" x="590.54" y="215.17" width="9.7" height="1.38" rx="0.68" ry="0.68" transform="translate(418.91 -392.37) rotate(53.89)"/><rect class="cls-19" x="551.94" y="197.12" width="9.7" height="1.38" rx="0.68" ry="0.68" transform="translate(-34.08 202.04) rotate(-19.97)"/><rect class="cls-19" x="550.86" y="195.52" width="9.7" height="1.38" rx="0.68" ry="0.68" transform="translate(-33.6 201.58) rotate(-19.97)"/><rect class="cls-19" x="549.07" y="194.18" width="9.7" height="1.38" rx="0.68" ry="0.68" transform="translate(-33.25 200.88) rotate(-19.97)"/><rect class="cls-19" x="542.76" y="224.65" width="9.7" height="1.38" rx="0.68" ry="0.68" transform="translate(308.89 767.25) rotate(-88.59)"/><rect class="cls-19" x="540.87" y="225.08" width="9.7" height="1.38" rx="0.68" ry="0.68" transform="translate(306.62 765.78) rotate(-88.59)"/><rect class="cls-19" x="538.97" y="226.25" width="9.7" height="1.38" rx="0.68" ry="0.68" transform="translate(303.59 765.03) rotate(-88.59)"/><path class="cls-20" d="M755.24,26.8,745.16,20l10.91-5.34Zm-6.11-6.51,4.36,2.93.36-5.24Z"/><path class="cls-20" d="M789.89,50.1,779.8,43.32,790.72,38Zm-6.11-6.51,4.35,2.93.36-5.24Z"/><path class="cls-20" d="M752.89,68.76,742.81,62l10.91-5.34Zm-6.1-6.51,4.35,2.93L751.5,60Z"/><path class="cls-20" d="M754.22,48.14l-10.08-6.78L755.06,36Zm-6.1-6.51,4.35,2.93.36-5.23Z"/><path class="cls-20" d="M772.66,39.12l-10.08-6.78L773.49,27Zm-6.1-6.51,4.35,2.93.36-5.23Z"/><path class="cls-20" d="M769.85,80.08,759.77,73.3,770.68,68Zm-6.11-6.51,4.36,2.93.36-5.23Z"/><path class="cls-20" d="M751,89.29l-10.09-6.78,10.92-5.34Zm-6.11-6.51,4.35,2.93.36-5.23Z"/><path class="cls-20" d="M788.07,71.16,778,64.38,788.91,59Zm-6.1-6.5,4.35,2.92.36-5.23Z"/><path class="cls-20" d="M807.17,61.82,797.09,55,808,49.7Zm-6.1-6.51,4.35,2.93.36-5.24Z"/><path class="cls-21" d="M763.2,43.07,744.44,30.45l20.31-9.93ZM748.42,30.73l13,8.76,1.08-15.67Z"/><path class="cls-21" d="M797.9,66.48,779.14,53.86l20.31-9.94ZM783.12,54.13l13,8.77,1.07-15.67Z"/><path class="cls-21" d="M760.77,84.87,742,72.25l20.31-9.94ZM746,72.52l13,8.77,1.08-15.67Z"/><path class="cls-19" d="M779.25,75.87,743,51.5l39.21-19.18ZM747,51.78l30.48,20.51L780,35.63Z"/><path class="cls-22" d="M740,95l6-87.2,72.52,48.79Zm7.74-83.62-5.52,80.32L814.49,56.3Z"/></g></svg>