<?xml version="1.0" encoding="UTF-8" standalone="no"?>
<svg
   xmlns:dc="http://purl.org/dc/elements/1.1/"
   xmlns:cc="http://creativecommons.org/ns#"
   xmlns:rdf="http://www.w3.org/1999/02/22-rdf-syntax-ns#"
   xmlns:svg="http://www.w3.org/2000/svg"
   xmlns="http://www.w3.org/2000/svg"
   xmlns:sodipodi="http://sodipodi.sourceforge.net/DTD/sodipodi-0.dtd"
   xmlns:inkscape="http://www.inkscape.org/namespaces/inkscape"
   viewBox="0 0 1020 628"
   version="1.1"
   id="svg363"
   sodipodi:docname="header_s.svg"
   inkscape:version="0.92.1 r15371"
   inkscape:export-filename="/home/apophis/jan/KSI/ks-muni-web/static/fb_preview.png"
   inkscape:export-xdpi="56.470001"
   inkscape:export-ydpi="56.470001">
  <metadata
     id="metadata367">
    <rdf:RDF>
      <cc:Work
         rdf:about="">
        <dc:format>image/svg+xml</dc:format>
        <dc:type
           rdf:resource="http://purl.org/dc/dcmitype/StillImage" />
      </cc:Work>
    </rdf:RDF>
  </metadata>
  <sodipodi:namedview
     pagecolor="#ffffff"
     bordercolor="#666666"
     borderopacity="1"
     objecttolerance="10"
     gridtolerance="10"
     guidetolerance="10"
     inkscape:pageopacity="0"
     inkscape:pageshadow="2"
     inkscape:window-width="1920"
     inkscape:window-height="1062"
     id="namedview365"
     showgrid="false"
     inkscape:zoom="0.95944685"
     inkscape:cx="389.13451"
     inkscape:cy="372.95954"
     inkscape:window-x="0"
     inkscape:window-y="0"
     inkscape:window-maximized="1"
     inkscape:current-layer="Vrstva_14" />
  <defs
     id="defs4">
    <style
       id="style2">.cls-1{fill:#c3d4fc;}.cls-2,.cls-4,.cls-9{fill:blue;}.cls-3{fill:#efefef;}.cls-4{font-size:25.56px;font-family:NeueHaasUnicaPro-Regular, Neue Haas Unica Pro;}.cls-5{letter-spacing:-0.02em;}.cls-6{letter-spacing:0.01em;}.cls-7{letter-spacing:-0.01em;}.cls-8{letter-spacing:-0.02em;}.cls-9{font-size:53.25px;font-family:NeueHaasUnicaPro-Bold, Neue Haas Unica Pro;font-weight:700;}.cls-10{letter-spacing:-0.03em;}.cls-11{letter-spacing:0.01em;}.cls-12{font-size:42.6px;}.cls-13{letter-spacing:-0.01em;}.cls-14{letter-spacing:-0.01em;}.cls-15{letter-spacing:0.01em;}.cls-16{letter-spacing:0em;}.cls-17{letter-spacing:-0.03em;}.cls-18{fill:none;stroke:blue;stroke-miterlimit:10;stroke-width:4px;}.cls-19{fill:#fff;}.cls-20{fill:#486afc;}.cls-21{fill:#f2f2f2;}.cls-22{fill:#7594f9;}.cls-23{fill:#ffe368;}.cls-24{opacity:0.89;}</style>
  </defs>
  <title
     id="title6">zahlavi_bile_vystupy_novyvizual</title>
  <g
     id="Vrstva_14"
     data-name="Vrstva 14">
    <polygon
       class="cls-1"
       points="1036.53,0 -10.57,0 -10.57,572.65 1036.53,561.27 "
       id="polygon8"
       style="fill:#c3d4fc" />
    <rect
       class="cls-2"
       x="64.900002"
       y="0.52999997"
       width="188.81"
       height="102.91"
       id="rect10"
       style="fill:#0000ff" />
    <circle
       class="cls-3"
       cx="992.47998"
       cy="389.16"
       r="1.8"
       id="circle12"
       style="fill:#efefef" />
    <path
       class="cls-3"
       d="m 964.9,392.12 a 1.15,1.15 0 0 0 1.16,-1.16 1.16,1.16 0 1 0 -1.16,1.16 z"
       id="path14"
       inkscape:connector-curvature="0"
       style="fill:#efefef" />
    <path
       class="cls-3"
       d="m 995.58,402.44 a 1.42,1.42 0 1 0 -1.42,-1.43 1.43,1.43 0 0 0 1.42,1.43 z"
       id="path16"
       inkscape:connector-curvature="0"
       style="fill:#efefef" />
    <path
       class="cls-3"
       d="m 962.32,402.05 a 1.68,1.68 0 1 0 -1.67,-1.67 1.68,1.68 0 0 0 1.67,1.67 z"
       id="path18"
       inkscape:connector-curvature="0"
       style="fill:#efefef" />
    <path
       class="cls-3"
       d="m 995.83,404.63 a 1,1 0 0 0 1,1 1,1 0 0 0 1,-1 1,1 0 0 0 -1,-1 1,1 0 0 0 -1,1 z"
       id="path20"
       inkscape:connector-curvature="0"
       style="fill:#efefef" />
    <path
       class="cls-3"
       d="m 992.48,400.24 a 1.81,1.81 0 1 0 1.8,1.81 1.8,1.8 0 0 0 -1.8,-1.81 z"
       id="path22"
       inkscape:connector-curvature="0"
       style="fill:#efefef" />
    <path
       class="cls-3"
       d="m 968.68,412.87 a 2.62,2.62 0 1 0 -2.62,2.62 2.61,2.61 0 0 0 2.62,-2.62 z"
       id="path24"
       inkscape:connector-curvature="0"
       style="fill:#efefef" />
    <path
       class="cls-3"
       d="m 990.68,412.87 a 1.8,1.8 0 1 0 1.8,-1.8 1.8,1.8 0 0 0 -1.8,1.8 z"
       id="path26"
       inkscape:connector-curvature="0"
       style="fill:#efefef" />
    <path
       class="cls-3"
       d="m 961.94,405.36 a 1.51,1.51 0 1 0 -1.51,-1.51 1.51,1.51 0 0 0 1.51,1.51 z"
       id="path28"
       inkscape:connector-curvature="0"
       style="fill:#efefef" />
    <path
       class="cls-3"
       d="m 961.3,412.87 a 1,1 0 0 0 1,1 1,1 0 1 0 -1,-1 z"
       id="path30"
       inkscape:connector-curvature="0"
       style="fill:#efefef" />
    <path
       class="cls-3"
       d="M 1898.5,546.67 1141.43,546 1110.67,525.13 h -120.5 v -90.35 c 4.07,-0.68 6.7,-1.76 6.7,-3 0,-1.24 -2.63,-2.27 -6.7,-2.95 v -6.14 c 4.07,-0.74 6.7,-1.9 6.7,-3.2 0,-0.52 -0.43,-1 -1.21,-1.48 a 1.93,1.93 0 1 0 -2.53,-1.83 2.1,2.1 0 0 0 0.2,0.87 28.36,28.36 0 0 0 -3.16,-0.76 v -5.88 c 4.07,-0.78 6.7,-2 6.7,-3.34 0,-1.34 -2.63,-2.56 -6.7,-3.32 v -5.4 a 21.11,21.11 0 0 0 4.18,-1.22 1.21,1.21 0 0 0 -0.07,0.37 1.3,1.3 0 0 0 2.59,0 1.29,1.29 0 0 0 -1,-1.24 1.94,1.94 0 0 0 1,-1.47 c 0,-0.61 -0.47,-1.18 -1.28,-1.7 h 0.24 a 1.16,1.16 0 1 0 -1.16,-1.15 1.19,1.19 0 0 0 0.32,0.79 25.13,25.13 0 0 0 -7.52,-2 4.37,4.37 0 0 0 -3,-7.59 h -0.33 c -1,-2.49 -1.79,-4.53 -1.79,-4.53 v -2.28 h 1.23 v -0.62 h -1.23 v -4.57 h 1.22 v -0.63 h -1.22 V 366 h 1.22 v -0.62 h -1.22 v -4.58 h 1.22 v -0.64 h -1.22 v -4.57 h 1.22 V 355 h -1.22 v -4.62 h 1.22 v -0.63 h -1.22 v -4.62 h 1.22 v -0.62 h -1.22 v -4.63 h 1.22 v -0.62 h -1.22 V 337 H 981 v 0 l -1.46,1.45 v -1.52 h 0.34 v -2.85 h -0.62 v -0.57 h 0.62 v -2.85 h -0.62 v -0.6 h 0.62 v -2.83 h -0.62 v -0.6 h 0.62 v -2.85 h -0.62 V 323 h 0.62 v -2.85 h -2 V 323 h 0.62 v 0.76 h -0.62 v 2.85 h 0.62 v 0.6 h -0.62 v 2.83 h 0.62 v 0.6 h -0.62 v 2.85 h 0.62 v 0.57 h -0.62 v 2.85 h 0.32 v 1.52 L 976.75,337 v 0 h -1.35 v 2.3 h -1.22 v 0.62 h 1.22 v 4.63 h -1.22 v 0.62 h 1.22 v 4.62 h -1.22 v 0.63 h 1.22 V 355 h -1.22 v 0.63 h 1.22 v 4.57 h -1.22 v 0.64 h 1.22 v 4.58 h -1.22 V 366 h 1.22 v 4.58 h -1.22 v 0.63 h 1.22 v 4.57 h -1.19 v 0.62 h 1.19 v 2.28 l -2.66,6.72 a 3,3 0 1 0 -2.09,5.14 l -0.17,0.42 c -4.9,0.79 -8.16,2.21 -8.16,3.83 0,1.45 2.63,2.74 6.71,3.56 V 400 a 2.57,2.57 0 1 0 -2.61,4.4 c -2.55,0.73 -4.1,1.68 -4.1,2.71 0,1.36 2.63,2.56 6.71,3.34 v 5.88 c -4.08,0.75 -6.71,1.9 -6.71,3.2 0,1.3 2.68,2.47 6.68,3.2 v 6.14 c -4.08,0.68 -6.71,1.74 -6.71,2.95 0,1.21 2.63,2.28 6.71,3 v 90.31 h -18.3 v -40.57 l -5.92,-9.88 v -5.92 l -4.94,-3.46 -16.79,-31.59 -11.36,1.21 V 391.24 H 910 v -10.37 h -0.86 v -13 h -3 v 13 h -0.87 v 10.37 h -1.73 v -32.1 h -2 v -8.7 h -5.1 l -5.1,-105.76 a 3.14,3.14 0 0 0 -0.3,-6.26 l -0.05,-1.11 v 1.11 a 3.14,3.14 0 0 0 -0.25,6.26 l -4.27,105.76 h -6 v 8.7 h -2 v 31.11 h -1.6 V 379.89 H 876 v -13 h -3 v 13 h -0.86 v 10.36 h -1.72 v 16.27 l -8.15,-9.85 -6.54,0.84 V 383.83 H 854 v -10.36 h -0.87 v -13 h -3 v 13 h -0.86 v 10.36 h -1.73 v -32.09 h -2 V 343 h -5.12 l -5.09,-105.76 a 3.14,3.14 0 0 0 -0.29,-6.26 l -0.06,-1.11 v 1.11 a 3.14,3.14 0 0 0 -0.26,6.26 L 830.53,343 h -6 v 8.7 h -2 v 31.11 H 821 v -10.33 h -0.86 v -13 h -3 v 13 h -0.87 v 10.37 h -1.73 V 402.8 L 777,407.6 c -0.42,-4 -0.76,-7.47 -0.76,-7.47 l -0.94,7.69 -1.16,0.15 v -7.35 l -3,-7 -1.39,-14.46 -0.86,14.91 -3.59,4.35 v 16 l -2,2.73 c -0.51,-7.27 -1.11,-15.61 -1.11,-15.61 0,0.37 -0.85,11.07 -1.5,19.22 l -5.87,8.12 c -0.92,-9 -1.76,-18.57 -1.76,-18.57 l -3.43,25.69 -15.71,21.75 c -0.64,-2.75 -1.21,-5.33 -1.21,-5.33 -0.07,0.39 -0.6,3.88 -1.1,7.14 l -2.12,-16 c 0,0.48 -0.34,7.76 -0.69,15.22 l -0.78,-6.34 -1.82,16 -1.64,2.28 v 8.39 l -3,6.92 v 39 h -91.72 l -102,15 v 0 l -56.82,-35.29 h -39.39 l -0.18,-7.21 1.12,-0.18 -11.75,-5.23 -6.07,-0.51 v -2.64 h -1.26 v 2.54 l -8.38,-0.71 -1.51,-2.39 h -1.17 v -0.63 h -1.26 v 0.63 h -5.31 V 486 h -3.32 v 2.49 h -2.94 v -1.79 h -1.91 v 1.79 H 384 v -2.24 h -2 v 2.24 h -1 v -2.24 h -1 v 2.24 h -3.4 l -7.5,-0.63 V 485 h -1.89 v 2.71 l -2,-0.16 -9.85,-5.38 -10.54,-0.85 v -2 h -1.12 v 1.9 l -1.85,-0.15 -4.41,2.07 h -3.36 l -0.87,0.91 -1.33,-0.7 v -9.48 h 0.49 v -1.22 h -0.67 l -1.5,-2.59 -1.54,-1.29 v -1.3 l -0.46,-2.62 h -0.73 l -0.74,2.66 v 1.29 l -1.64,1.44 -1.47,2.38 h -0.32 v 1 h 0.34 v 9 l -3.08,-0.14 v 1.12 l -2,-0.07 v -0.7 h -2.75 v -13.91 h -0.7 V 472 h -0.66 v 4.24 h 0.66 v 6 l -12.48,-9.5 h -5.84 l -3.22,2.1 -2.8,-0.07 -2.59,-2.8 h -23.99 l -12.32,12 h 0.91 v 6.72 l -1.4,1.68 V 501 l -6.65,-0.07 v -4 h 1.78 l -7.23,-5.47 v -2.23 H 238 v 1.24 l -6.77,-5.11 h -3.36 v -1.64 h -2.7 v 1.64 h -6.35 v -1.64 h -2.7 v 1.64 H 209 v -1.64 h -2.71 v 1.64 h -6.11 v -1.64 h -2.71 v 1.64 h -2.38 l -15.68,11 v 8.51 L -27,515.21 l 4.72,2.74 -62.27,-6.66 -58.52,-0.44 0.36,-19 h -58.07 v -4.93 h -2.54 V 470 h 1 v -9.45 a 20.36,20.36 0 0 0 -11.37,-18.24 v -3.2 h -17.89 v 3.2 a 20.32,20.32 0 0 0 -11.37,18.24 V 470 h 1.05 v 16.93 h -2.56 v 4.93 h -8.94 v -59.3 h -9.32 A 19.65,19.65 0 0 0 -276,422.12 v -1.66 h -2.73 v -0.68 h -3.09 v 0.68 h -2.73 v 1.66 a 19.65,19.65 0 0 0 -14.69,14.07 h -10.85 v 4.73 h -13.83 v -13.1 h -16.72 v -4.24 h -14.56 v 4.24 h -4 v 13.1 H -383 v -6.18 h -2.43 v 6.18 h -1.34 v -6.18 h -2.42 v 6.18 h -3.14 v -8.36 h -5.45 a 48.11,48.11 0 0 0 -35.58,-32.37 v -3.47 h -4.08 v -1.08 h -12.17 v 1.08 h -4.08 v 3.47 a 48.13,48.13 0 0 0 -35.59,32.37 h -5.27 v 5.81 h -80.2 v 55.06 l -197.11,-0.17 v 3.14 49.83 h -568.04 v 87.92 l 1789.42,-5.43 1449,5.43 z M -468.77,495.84 h -7.89 v -18.9 h 7.89 z m 9.72,0 H -467 v -18.9 h 8 z m 9.72,0 h -7.93 v -18.9 h 7.93 z m 9.71,0 h -7.92 v -18.9 h 7.92 z m 9.72,0 h -7.92 v -18.9 h 7.92 z m 9.72,0 h -7.93 v -18.9 h 7.93 z m 9.7,0 h -7.91 v -18.9 h 7.91 z m 23.07,-7.88 h -4.88 v -16.11 h 4.88 z m 6.44,0 h -4.89 v -16.11 h 4.86 z m 6.45,0 h -4.9 v -16.11 h 4.9 z m 6.44,0 H -373 v -16.11 h 4.89 z m 6.45,0 h -4.9 v -16.11 h 4.9 z m 6.44,0 h -4.9 v -16.11 h 4.9 z m 6.44,0 h -4.89 v -16.11 h 4.89 z m 6.45,0 h -4.9 v -16.11 h 4.9 z m 6.43,0 h -4.9 v -16.11 h 4.9 z m 6.44,0 h -4.89 v -16.11 h 4.89 z m 6.45,0 h -4.9 v -16.11 h 4.9 z m 6.44,0 h -4.89 v -16.11 h 4.89 z m 6.45,0 H -315 v -16.11 h 4.9 z m 48.66,5 h -39.67 v -16 h 39.67 z m 1241.1,-111 0.61,1.37 -0.49,3.08 c -0.04,-1.55 -0.09,-3.14 -0.12,-4.48 z m 3.3,1.58 -0.2,0.07 v -0.68 z m -1.9,6.83 h -1 l 0.24,-1.27 a 4.23,4.23 0 0 0 0.76,1.24 z m -0.05,-13.9 v 1.35 l -1.35,-1.35 z m -1.39,-0.62 1.39,-1.39 v 1.39 z m 1.39,-4.57 v 1.36 l -1.38,-1.36 z m -1.38,-0.63 1.38,-1.38 v 1.38 z M 981,366 v 1.37 L 979.64,366 Z M 979.62,365.38 981,364 v 1.38 z M 981,360.8 v 1.37 l -1.38,-1.37 z m -1.38,-0.64 1.38,-1.36 v 1.36 z M 981,355.59 V 357 l -1.38,-1.37 z m -1.38,-0.63 1.38,-1.36 v 1.4 z m 1.38,-4.62 v 1.37 l -1.38,-1.37 z m -1.38,-0.63 1.38,-1.36 v 1.36 z m 1.38,-4.62 v 1.38 l -1.38,-1.38 z m -1.38,-0.62 1.38,-1.37 v 1.37 z m 1.38,-6.62 v 1.37 h -1.38 z m 0,2 v 1.38 l -1.38,-1.38 z m -1.46,0.81 1.46,1.46 v 0.1 l -1.46,1.45 z m 0,5.25 1.46,1.49 v 0.1 l -1.44,1.5 z m 0,5.25 1.46,1.46 v 0.1 l -1.46,1.45 z m 0,5.25 1.46,1.45 V 358 l -1.46,1.45 z m 0,5.2 1.46,1.49 v 0 l -1.46,1.46 z m 0,5.2 1.46,1.49 v 0.05 l -1.46,1.46 z m 0,5.21 1.46,1.48 v 0 l -1.44,1.5 z m 0,5.18 1.46,1.45 v 0 l -0.4,2.52 -1.06,-2.52 z m -1.25,4.53 0.32,8.57 v 0 l -1.07,-6.67 z m -1.56,-43.87 1.37,1.37 h -1.37 z m 0,2 h 1.37 l -1.37,1.38 z m 0,2.27 1.45,-1.46 v 3 l -1.45,-1.45 z m 0,1 1.38,1.37 h -1.38 z m 0,2 h 1.37 l -1.37,1.38 z m 0,2.27 1.45,-1.46 v 3 l -1.45,-1.45 z m 0,1 1.37,1.36 h -1.37 z m 0,2 h 1.37 l -1.37,1.37 z m 0,2.27 1.45,-1.46 v 3 l -1.45,-1.45 z m 0,1 1.38,1.36 h -1.38 z m 0,2 h 1.37 l -1.35,1.33 z m 0,2.26 1.45,-1.45 v 3 L 976.75,358 Z m 0,0.95 1.38,1.36 h -1.38 z m 0,2 h 1.37 l -1.37,1.37 z m 0,2.26 1.45,-1.46 v 3 l -1.45,-1.46 z m 0,0.94 1.38,1.38 h -1.38 z m 0,2 h 1.37 l -1.37,1.37 z m 0,2.26 1.45,-1.46 v 3 l -1.45,-1.46 z m 0,0.94 1.38,1.38 h -1.38 z m 0,2 h 1.37 l -1.37,1.36 z m 0,2.25 1.45,-1.45 V 375 l -1.45,-1.45 z m 0,0.93 1.39,1.39 h -1.39 z m 0,2 h 1.36 l -1.36,1.35 z m 0,2.24 1.45,-1.45 v 1.49 c 0,0 -0.41,1.07 -1,2.6 l -0.42,-2.6 z m -0.43,4.72 v 0.06 a 0.33,0.33 0 0 1 0,0.06 c 0,0 0.02,-0.11 0.02,-0.14 z m -0.42,4.31 0.84,-2.09 0.93,4.73 c -0.7,0 -1.38,0 -2,0.09 0.06,-0.79 0.14,-1.73 0.25,-2.75 z m -3.85,2.54 a 3,3 0 0 0 1.64,-2.64 2.91,2.91 0 0 0 -0.18,-0.94 l 1.54,-3.77 -0.4,4.73 c -0.45,1.15 -0.88,2.19 -1.21,3 -0.55,0.05 -1.08,0.11 -1.61,0.18 z"
       id="path32"
       inkscape:connector-curvature="0"
       style="fill:#efefef" />
    <rect
       class="cls-18"
       x="551.27002"
       y="246.87"
       width="142.59"
       height="40.049999"
       rx="4"
       ry="4"
       id="rect80"
       style="fill:none;stroke:#0000ff;stroke-width:4px;stroke-miterlimit:10" />
    <path
       class="cls-19"
       d="m 99,34.93 h 5.31 V 69 H 99 Z m 5.51,0 h 1.8 L 109.63,69 h -1.8 z m 8.62,0 h 1.8 L 111.63,69 h -1.8 z m 2,0 h 5.36 V 69 h -5.36 z"
       id="path82"
       inkscape:connector-curvature="0"
       style="fill:#ffffff" />
    <path
       class="cls-19"
       d="M 140.62,34.93 V 61 a 3,3 0 0 0 1,2.24 3.14,3.14 0 0 0 4.44,0 3,3 0 0 0 1,-2.24 V 34.93 h 5.36 v 26.26 a 7.28,7.28 0 0 1 -1.22,4.09 9,9 0 0 1 -3.19,3 8.45,8.45 0 0 1 -8.34,0 9,9 0 0 1 -3.19,-3 7.28,7.28 0 0 1 -1.22,-4.09 V 34.93 Z"
       id="path84"
       inkscape:connector-curvature="0"
       style="fill:#ffffff" />
    <path
       class="cls-19"
       d="M 174.29,34.93 V 69 h -5.36 V 34.93 Z m 2.05,0 5.07,34.07 h -1.85 l -5.07,-34.11 z m 10.62,0 V 69 H 181.6 V 34.93 Z"
       id="path86"
       inkscape:connector-curvature="0"
       style="fill:#ffffff" />
    <path
       class="cls-19"
       d="M 209.33,67.14 V 36.83 h -4.58 v -1.9 h 14.57 v 1.9 h -4.63 v 30.31 h 4.63 V 69 h -14.57 v -1.9 z"
       id="path88"
       inkscape:connector-curvature="0"
       style="fill:#ffffff" />
    <path
       class="cls-20"
       d="m 426.54,451 c -9.54,0 -16.22,-2.68 -19.23,-7.87 -4.06,-7 -0.86,-17.54 9,-29.68 9.64,-11.85 24.56,-24 42,-34.08 17.44,-10.08 35.34,-17.09 50.41,-19.59 15.45,-2.56 26.19,-0.12 30.26,6.88 8.31,14.31 -14.1,42.32 -51,63.77 -17.44,10.12 -35.34,17.08 -50.41,19.58 A 68.37,68.37 0 0 1 426.54,451 Z m 93.13,-89.88 a 64.44,64.44 0 0 0 -10.55,0.95 c -14.8,2.46 -32.43,9.31 -49.63,19.3 -17.2,9.99 -31.89,21.9 -41.36,33.54 -9.1,11.18 -12.31,21 -8.82,27.06 3.49,6.06 13.69,8.03 27.88,5.7 14.8,-2.45 32.42,-9.31 49.63,-19.3 17.21,-9.99 31.89,-21.9 41.36,-33.54 9.09,-11.18 12.31,-21 8.81,-27.06 -2.55,-4.4 -8.67,-6.7 -17.32,-6.7 z"
       id="path90"
       inkscape:connector-curvature="0"
       style="fill:#486afc" />
    <path
       class="cls-20"
       d="m 456.8,478.85 a 12,12 0 0 1 -3.17,-0.41 c -16,-4.24 -20,-39.89 -9,-81.16 5.17,-19.49 12.91,-37.07 21.8,-49.5 9.1,-12.73 18.43,-18.61 26.25,-16.53 v 0 c 7.82,2.07 13,11.79 14.61,27.37 1.57,15.2 -0.42,34.3 -5.59,53.79 -5.17,19.49 -12.91,37.07 -21.8,49.5 -7.9,11.09 -15.99,16.94 -23.1,16.94 z m 32.76,-145.68 c -6.29,0 -13.89,5.65 -21.26,16 -8.73,12.2 -16.34,29.51 -21.44,48.74 -5.1,19.23 -7.07,38 -5.53,53 1.47,14.33 6.17,23.58 12.9,25.36 6.73,1.78 15.39,-3.91 23.77,-15.64 8.73,-12.2 16.35,-29.51 21.45,-48.74 5.1,-19.23 7.06,-38 5.53,-53 -1.47,-14.34 -6.18,-23.59 -12.9,-25.37 v 0 a 9.57,9.57 0 0 0 -2.52,-0.35 z"
       id="path92"
       inkscape:connector-curvature="0"
       style="fill:#486afc" />
    <path
       class="cls-20"
       d="m 508.69,439.5 c -13,0 -27.95,-2.1 -43.11,-6.12 -19.49,-5.17 -37.06,-12.91 -49.49,-21.8 -12.74,-9.11 -18.61,-18.43 -16.53,-26.25 2.08,-7.82 11.79,-13 27.37,-14.61 15.2,-1.57 34.3,0.42 53.79,5.59 19.49,5.17 37.07,12.91 49.5,21.8 12.73,9.11 18.6,18.43 16.53,26.26 -2.07,7.83 -11.8,13 -27.37,14.61 -3.38,0.34 -6.96,0.52 -10.69,0.52 z m -71.06,-67 a 103,103 0 0 0 -10.47,0.51 c -14.33,1.47 -23.58,6.18 -25.36,12.9 v 0 c -1.79,6.73 3.91,15.39 15.64,23.78 12.2,8.73 29.51,16.34 48.74,21.44 19.23,5.1 38,7.07 53,5.53 14.34,-1.47 23.59,-6.17 25.37,-12.9 1.78,-6.73 -3.92,-15.39 -15.64,-23.78 -12.21,-8.73 -29.52,-16.34 -48.74,-21.44 -15,-3.96 -29.71,-6.03 -42.54,-6.03 z"
       id="path94"
       inkscape:connector-curvature="0"
       style="fill:#486afc" />
    <circle
       class="cls-21"
       cx="408.98999"
       cy="431.10999"
       r="5.1900001"
       id="circle96"
       style="fill:#f2f2f2" />
    <circle
       class="cls-21"
       cx="540.25"
       cy="409.12"
       r="5.1900001"
       id="circle98"
       style="fill:#f2f2f2" />
    <circle
       class="cls-21"
       cx="459.88"
       cy="361.60001"
       r="5.1900001"
       id="circle100"
       style="fill:#f2f2f2" />
    <circle
       class="cls-22"
       cx="471.63"
       cy="405.56"
       r="3.55"
       id="circle102"
       style="fill:#7594f9" />
    <circle
       class="cls-22"
       cx="476.14999"
       cy="404.10001"
       r="3.55"
       id="circle104"
       style="fill:#7594f9" />
    <circle
       class="cls-22"
       cx="476"
       cy="408.92001"
       r="3.55"
       id="circle106"
       style="fill:#7594f9" />
    <circle
       class="cls-23"
       cx="472.69"
       cy="398.62"
       r="3.55"
       id="circle108"
       style="fill:#ffe368" />
    <circle
       class="cls-22"
       cx="477.20999"
       cy="397.16"
       r="3.55"
       id="circle110"
       style="fill:#7594f9" />
    <circle
       class="cls-22"
       cx="477.06"
       cy="401.98001"
       r="3.55"
       id="circle112"
       style="fill:#7594f9" />
    <circle
       class="cls-22"
       cx="478.64001"
       cy="406.42001"
       r="3.55"
       id="circle114"
       style="fill:#7594f9" />
    <circle
       class="cls-22"
       cx="483.16"
       cy="404.95999"
       r="3.55"
       id="circle116"
       style="fill:#7594f9" />
    <circle
       class="cls-22"
       cx="483.01001"
       cy="409.78"
       r="3.55"
       id="circle118"
       style="fill:#7594f9" />
    <circle
       class="cls-22"
       cx="471.26999"
       cy="409.54999"
       r="3.55"
       id="circle120"
       style="fill:#7594f9" />
    <circle
       class="cls-22"
       cx="475.78"
       cy="408.09"
       r="3.55"
       id="circle122"
       style="fill:#7594f9" />
    <circle
       class="cls-22"
       cx="475.64001"
       cy="412.91"
       r="3.55"
       id="circle124"
       style="fill:#7594f9" />
    <circle
       class="cls-22"
       cx="467.69"
       cy="403.84"
       r="3.55"
       id="circle126"
       style="fill:#7594f9" />
    <circle
       class="cls-22"
       cx="472.20999"
       cy="402.39001"
       r="3.55"
       id="circle128"
       style="fill:#7594f9" />
    <circle
       class="cls-23"
       cx="472.06"
       cy="407.20001"
       r="3.55"
       id="circle130"
       style="fill:#ffe368" />
    <circle
       class="cls-22"
       cx="476.64001"
       cy="400.53"
       r="3.55"
       id="circle132"
       style="fill:#7594f9" />
    <circle
       class="cls-23"
       cx="481.16"
       cy="399.07999"
       r="3.55"
       id="circle134"
       style="fill:#ffe368" />
    <circle
       class="cls-22"
       cx="481.01001"
       cy="403.89001"
       r="3.55"
       id="circle136"
       style="fill:#7594f9" />
    <circle
       class="cls-23"
       cx="476.01999"
       cy="406.79001"
       r="3.55"
       id="circle138"
       style="fill:#ffe368" />
    <circle
       class="cls-22"
       cx="480.53"
       cy="405.32999"
       r="3.55"
       id="circle140"
       style="fill:#7594f9" />
    <circle
       class="cls-23"
       cx="480.39001"
       cy="410.14999"
       r="3.55"
       id="circle142"
       style="fill:#ffe368" />
    <path
       class="cls-22"
       d="m 238,214.17 74,-57.1 a 1.44,1.44 0 0 0 -1.37,-2.49 l -86.87,32 -8.65,-67.46 -16.8,70.88 -57.17,-5.28 45.5,33.57 -67.4,18.89 0.71,2.55 69.39,-19.45 0.92,0.68 v 0 l 7.75,5.63 -18.41,30.47 57.67,-2.06 31.93,17.48 z m 24.68,51.7 -23.9,-13.09 -7.62,-33.34 4.71,-3.63 z m -46.81,-75.22 2.86,-0.38 -26,24 7.66,-21.59 z m 6.27,1.26 6,26.47 -17.89,13.82 -8.69,-6.31 z m 4.06,5.84 8.4,15.69 -4.09,3.16 z m 2.65,23.48 6.69,29.28 -23,-16.69 z m 7.88,-9.43 -12.14,-22.66 79.57,-29.33 z m -15.51,-24.52 -4.94,0.64 -15.18,2 13.28,-56 z m -70.81,1 47.13,4.36 -8.54,24.1 z m 41.32,30.48 25,-23 -17.33,28.57 z m 8.48,9.42 7.88,5.71 -21.25,16.39 z m -14.09,26 24.21,-18.66 23.39,17 z"
       id="path144"
       inkscape:connector-curvature="0"
       style="fill:#7594f9" />
    <circle
       class="cls-22"
       cx="145.75999"
       cy="186.50999"
       r="6.1199999"
       id="circle146"
       style="fill:#7594f9" />
    <circle
       class="cls-21"
       cx="189.61"
       cy="218.87"
       r="6.1199999"
       id="circle148"
       style="fill:#f2f2f2" />
    <circle
       class="cls-20"
       cx="199.33"
       cy="191.47"
       r="6.1199999"
       id="circle150"
       style="fill:#486afc" />
    <circle
       class="cls-23"
       cx="119.59"
       cy="238.5"
       r="6.1199999"
       id="circle152"
       style="fill:#ffe368" />
    <circle
       class="cls-20"
       cx="182.00999"
       cy="255.64999"
       r="6.1199999"
       id="circle154"
       style="fill:#486afc" />
    <circle
       class="cls-23"
       cx="237.59"
       cy="253.66"
       r="6.1199999"
       id="circle156"
       style="fill:#ffe368" />
    <circle
       class="cls-22"
       cx="222.67999"
       cy="188.42"
       r="6.1199999"
       id="circle158"
       style="fill:#7594f9" />
    <circle
       class="cls-20"
       cx="265.92999"
       cy="269.17001"
       r="6.1199999"
       id="circle160"
       style="fill:#486afc" />
    <circle
       class="cls-21"
       cx="311.79999"
       cy="155.57001"
       r="6.1199999"
       id="circle162"
       style="fill:#f2f2f2" />
    <circle
       class="cls-23"
       cx="214.74001"
       cy="126.53"
       r="6.1199999"
       id="circle164"
       style="fill:#ffe368" />
    <g
       class="cls-24"
       id="g178"
       style="opacity:0.88999999">
      <path
         class="cls-20"
         d="m 81.58,327.45 a 47.47,47.47 0 1 1 -47.47,47.47 47.52,47.52 0 0 1 47.47,-47.47 m 0,-3.09 a 50.56,50.56 0 1 0 50.56,50.56 50.56,50.56 0 0 0 -50.56,-50.56 z"
         id="path166"
         inkscape:connector-curvature="0"
         style="fill:#486afc" />
      <path
         class="cls-20"
         d="m 135.66,368.16 a 45.46,45.46 0 1 1 -45.46,45.46 45.51,45.51 0 0 1 45.46,-45.46 m 0,-3.09 a 48.55,48.55 0 1 0 48.55,48.55 48.55,48.55 0 0 0 -48.55,-48.55 z"
         id="path168"
         inkscape:connector-curvature="0"
         style="fill:#486afc" />
      <path
         class="cls-22"
         d="m 146.13,328.14 a 17.31,17.31 0 1 1 -17.3,17.31 17.34,17.34 0 0 1 17.3,-17.31 m 0,-3.09 a 20.4,20.4 0 1 0 20.39,20.4 20.39,20.39 0 0 0 -20.39,-20.4 z"
         id="path170"
         inkscape:connector-curvature="0"
         style="fill:#7594f9" />
      <circle
         class="cls-23"
         cx="127.27"
         cy="353.85999"
         r="5.0900002"
         id="circle172"
         style="fill:#ffe368" />
      <circle
         class="cls-21"
         cx="143.36"
         cy="365.84"
         r="5.0900002"
         id="circle174"
         style="fill:#f2f2f2" />
      <circle
         class="cls-23"
         cx="89.150002"
         cy="423.56"
         r="5.0900002"
         id="circle176"
         style="fill:#ffe368" />
    </g>
    <path
       class="cls-20"
       d="M 328.27,416.18 349,393.89 337.9,359.34 357.41,339 l 21.27,3.64 0.41,-2.44 -20.46,-3.5 -1.27,-1.22 v 0 l -5,-19.59 -2.39,0.61 5.38,21.08 -19.24,20 -29.3,-7.39 L 295,326 l -0.85,0.08 c -8.13,0.77 -34.69,3.3 -40.14,4 l -12,-11.5 -1.71,1.78 11.81,11.3 1.89,38.75 -13.51,14.59 1.82,1.67 13.2,-14.33 25.07,6.42 10.36,30.68 35,7.5 4.65,16.69 L 333,433 Z m -45.33,-38.11 23.38,-25.39 29.18,7.32 10.68,33.23 -19.77,21.28 -33.58,-7.19 z m 21.49,-27 -23.3,25.3 -24.71,-6.33 -1.8,-37.64 c 4.56,-0.53 23,-2.32 38.92,-3.83 z"
       id="path180"
       inkscape:connector-curvature="0"
       style="fill:#486afc" />
    <circle
       class="cls-23"
       cx="294.57001"
       cy="327.54001"
       r="5.7199998"
       id="circle182"
       style="fill:#ffe368" />
    <circle
       class="cls-21"
       cx="306.38"
       cy="350.79999"
       r="5.7199998"
       id="circle184"
       style="fill:#f2f2f2" />
    <circle
       class="cls-21"
       cx="252.95"
       cy="331.60999"
       r="5.7199998"
       id="circle186"
       style="fill:#f2f2f2" />
    <circle
       class="cls-21"
       cx="280.89999"
       cy="376.64001"
       r="5.7199998"
       id="circle188"
       style="fill:#f2f2f2" />
    <circle
       class="cls-21"
       cx="326.62"
       cy="416.67001"
       r="5.7199998"
       id="circle190"
       style="fill:#f2f2f2" />
    <circle
       class="cls-21"
       cx="336.32999"
       cy="358.97"
       r="5.7199998"
       id="circle192"
       style="fill:#f2f2f2" />
    <circle
       class="cls-23"
       cx="255.25999"
       cy="371.54999"
       r="5.7199998"
       id="circle194"
       style="fill:#ffe368" />
    <circle
       class="cls-23"
       cx="291.95999"
       cy="408.57999"
       r="5.7199998"
       id="circle196"
       style="fill:#ffe368" />
    <circle
       class="cls-23"
       cx="347.38"
       cy="393.84"
       r="5.7199998"
       id="circle198"
       style="fill:#ffe368" />
    <circle
       class="cls-23"
       cx="358"
       cy="336.87"
       r="5.7199998"
       id="circle200"
       style="fill:#ffe368" />
    <path
       class="cls-20"
       d="M 413.84,155.29 A 57.85,57.85 0 1 1 356,213.13 57.91,57.91 0 0 1 413.84,155.29 m 0,-3.09 a 60.94,60.94 0 1 0 60.94,60.93 60.93,60.93 0 0 0 -60.94,-60.93 z"
       id="path202"
       inkscape:connector-curvature="0"
       style="fill:#486afc" />
    <path
       class="cls-22"
       d="m 442.24,167.67 a 53.61,53.61 0 0 1 0.05,90.9 25.69,25.69 0 0 0 -1.26,-6.68 l -0.09,-0.27 -0.14,-0.24 -2.68,-4.54 -0.3,-0.5 -0.48,-0.3 -2.81,-1.72 -3.11,-3.75 -1.64,-9.39 c 2,-1.47 6,-4.44 7.38,-5.59 a 30.87,30.87 0 0 1 5,-2.89 h 6.62 l 0.7,-0.92 5.06,-6.72 3.5,-4.63 -5.73,0.95 -0.73,0.12 -1.73,-5.2 -1,-3.91 -0.85,-3.39 -2.8,2.13 -3.32,2.53 -1.47,1.12 0.7,1.53 -3,0.88 -5.23,1.54 -5.24,0.87 -1.33,0.22 -0.46,1.27 c -0.07,0.2 -1.65,4.54 -2.19,6.12 a 3.69,3.69 0 0 1 -0.68,0.4 l -2.56,-3.31 1.21,-1.24 0.17,-0.18 0.13,-0.21 2.24,-3.58 1.14,-1.82 -1.69,-1.27 -3.91,-2.88 V 198 l -0.59,-0.66 -2.4,-2.68 -1.86,-2.09 -1.71,2.22 -1.68,2.21 -2.32,-2.7 1,-0.74 0.89,-0.7 v -3.74 h 4.58 l 0.53,-0.29 4.57,-2.54 0.52,-0.29 0.32,-0.51 5.37,-8.63 15.34,-9.2 m -1.12,38.65 0.06,0.14 1.23,2.68 -1.11,1.13 -0.18,-0.12 v -3.83 m 1.1,-41.31 -17,10.21 -5.67,9.11 -4.58,2.49 h -6.3 v 4.92 l -2.89,2.27 5.76,6.72 3.42,-4.48 2.4,2.69 v 5.37 l 4.86,3.58 -2.25,3.55 -2.62,2.68 4.86,6.27 c 0,0 3.13,-0.9 3.58,-2.24 0.45,-1.34 2.24,-6.26 2.24,-6.26 l 5.37,-0.9 5.36,-1.58 v 2 l 2.83,1.79 3.56,-3.58 -1.9,-4.15 3.32,-2.53 1,4 2.38,7.16 2.68,-0.44 -5.06,6.71 h -6 a 36.36,36.36 0 0 0 -6,3.43 c -1.79,1.49 -8.42,6.36 -8.42,6.36 l 2,11.41 3.74,4.51 3.13,1.93 2.69,4.54 c 0,0 2.05,6.81 0.73,8.25 -0.65,0.71 0.37,1.21 0.91,1.52 a 55.94,55.94 0 0 0 1.8,-97.37 z"
       id="path204"
       inkscape:connector-curvature="0"
       style="fill:#7594f9" />
    <path
       class="cls-22"
       d="m 400.16,204.43 v 2.73 l -6.8,4.33 -3.09,-4.88 a 4,4 0 0 1 2,-0.6 33.28,33.28 0 0 0 7.86,-1.58 m 2.32,-3.16 c 0,0 -7.05,2.42 -10.18,2.42 a 6.87,6.87 0 0 0 -5,2.5 l 5.39,8.51 9.83,-6.27 v -7.16 z"
       id="path206"
       inkscape:connector-curvature="0"
       style="fill:#7594f9" />
    <path
       class="cls-22"
       d="m 373.38,244.25 7.71,7.85 0.55,0.56 0.76,0.11 c 1.3,0.2 4.91,1.22 5.93,3.46 a 33.24,33.24 0 0 0 4.17,6.09 53.21,53.21 0 0 1 -22.19,-17.91 l 3.07,-0.16 m 0.93,-2.37 -8.17,0.44 a 56,56 0 0 0 33.87,25 c 0,0 -7.79,-8.13 -9.57,-12 -1.78,-3.87 -7.7,-4.79 -7.7,-4.79 l -8.43,-8.6 z"
       id="path208"
       inkscape:connector-curvature="0"
       style="fill:#7594f9" />
    <path
       class="cls-22"
       d="m 391.22,171.37 5.49,3.5 v 3.42 h -5.21 l -0.38,0.14 c 0,0 -3.76,1.34 -6.49,2.21 a 36.8,36.8 0 0 0 -6.35,2.89 l -0.8,0.47 -0.26,0.88 -1.85,6.27 -0.36,1.24 0.87,1 3.22,3.58 -1,4.17 -5.68,7.67 -0.16,0.22 -0.11,0.24 -3.74,8.65 -3.83,4.68 -0.52,0.64 v 4.49 l 0.23,0.47 0.72,1.51 -1.94,0.78 a 53.71,53.71 0 0 1 17.15,-59.08 h 11 m 0.68,-2.32 h -12.45 a 56,56 0 0 0 -17.7,64.44 l 6.45,-2.59 -1.79,-3.74 V 224 l 4,-4.93 3.87,-8.95 6,-8.06 1.35,-5.81 -4,-4.48 1.85,-6.27 a 34.72,34.72 0 0 1 5.88,-2.68 c 2.81,-0.9 6.57,-2.24 6.57,-2.24 H 399 v -7 l -7.13,-4.55 z"
       id="path210"
       inkscape:connector-curvature="0"
       style="fill:#7594f9" />
    <path
       class="cls-23"
       d="m 471.18,155.54 c -5.47,-5.47 -16.68,-4 -30.55,2.84 l 2.61,1.36 v 0 c 7.31,-3.46 13.61,-5.22 18.43,-5.22 3.41,0 6.09,0.88 7.87,2.66 4.53,4.53 3.22,14.88 -3.58,28.39 -7.1,14.09 -19.28,30.12 -34.29,45.13 -15.01,15.01 -31,27.19 -45.13,34.28 -13.51,6.81 -23.86,8.12 -28.39,3.59 -4.25,-4.26 -3.35,-13.63 2.39,-25.93 v 0 l -1.37,-2.61 c -6.7,13.69 -8.08,24.75 -2.66,30.17 2.27,2.27 5.52,3.35 9.53,3.35 15.33,0 41.81,-15.74 67.29,-41.22 32.14,-32.13 48.77,-65.87 37.85,-76.79 z"
       id="path212"
       inkscape:connector-curvature="0"
       style="fill:#ffe368" />
    <rect
       class="cls-20"
       x="718.59003"
       y="374.66"
       width="12.49"
       height="3.3099999"
       rx="1.65"
       ry="1.65"
       transform="rotate(122.22,724.83917,376.31735)"
       id="rect214"
       style="fill:#486afc" />
    <rect
       class="cls-23"
       x="714.88"
       y="381.51999"
       width="11.28"
       height="3.3099999"
       rx="1.65"
       ry="1.65"
       transform="rotate(122.22,720.51741,383.16836)"
       id="rect216"
       style="fill:#ffe368" />
    <rect
       class="cls-21"
       x="711.46997"
       y="366.82999"
       width="19.969999"
       height="3.3099999"
       rx="1.65"
       ry="1.65"
       transform="rotate(122.22,721.45866,368.48396)"
       id="rect218"
       style="fill:#f2f2f2" />
    <rect
       class="cls-20"
       x="702.33002"
       y="381.32999"
       width="19.969999"
       height="3.3099999"
       rx="1.65"
       ry="1.65"
       transform="rotate(122.22,712.31491,382.98614)"
       id="rect220"
       style="fill:#486afc" />
    <rect
       class="cls-21"
       x="725.22998"
       y="380.20999"
       width="8.8599997"
       height="3.3099999"
       rx="1.65"
       ry="1.65"
       transform="matrix(-0.53,0.85,-0.85,-0.53,1441.75,-31.84)"
       id="rect222"
       style="fill:#f2f2f2" />
    <rect
       class="cls-20"
       x="723.90997"
       y="383.70999"
       width="7.0900002"
       height="3.3099999"
       rx="1.65"
       ry="1.65"
       transform="rotate(122.22,727.45216,385.36436)"
       id="rect224"
       style="fill:#486afc" />
    <rect
       class="cls-21"
       x="719.45001"
       y="392.95999"
       width="20.98"
       height="3.3099999"
       rx="1.65"
       ry="1.65"
       transform="rotate(-57.78,729.94346,394.60463)"
       id="rect226"
       style="fill:#f2f2f2" />
    <rect
       class="cls-20"
       x="729.06"
       y="377.72"
       width="20.98"
       height="3.3099999"
       rx="1.65"
       ry="1.65"
       transform="matrix(0.53,-0.85,0.85,0.53,24.29,802.76)"
       id="rect228"
       style="fill:#486afc" />
    <rect
       class="cls-21"
       x="624.94"
       y="332.56"
       width="19.969999"
       height="3.3099999"
       rx="1.65"
       ry="1.65"
       transform="rotate(-57.78,634.92172,334.21643)"
       id="rect230"
       style="fill:#f2f2f2" />
    <rect
       class="cls-20"
       x="634.08002"
       y="318.06"
       width="19.969999"
       height="3.3099999"
       rx="1.65"
       ry="1.65"
       transform="rotate(-57.78,644.06159,319.70917)"
       id="rect232"
       style="fill:#486afc" />
    <rect
       class="cls-20"
       x="705.02002"
       y="362.39999"
       width="21.83"
       height="3.3099999"
       rx="1.65"
       ry="1.65"
       transform="rotate(122.22,715.93081,364.05745)"
       id="rect234"
       style="fill:#486afc" />
    <rect
       class="cls-23"
       x="695.02002"
       y="378.26001"
       width="21.83"
       height="3.3099999"
       rx="1.65"
       ry="1.65"
       transform="rotate(122.22,705.9373,379.91048)"
       id="rect236"
       style="fill:#ffe368" />
    <rect
       class="cls-21"
       x="689.31"
       y="374.39001"
       width="21.5"
       height="3.3099999"
       rx="1.65"
       ry="1.65"
       transform="rotate(-57.78,700.06062,376.03486)"
       id="rect238"
       style="fill:#f2f2f2" />
    <rect
       class="cls-20"
       x="699.15002"
       y="358.76999"
       width="21.5"
       height="3.3099999"
       rx="1.65"
       ry="1.65"
       transform="rotate(-57.78,709.90298,360.42588)"
       id="rect240"
       style="fill:#486afc" />
    <rect
       class="cls-20"
       x="686.32001"
       y="369.16"
       width="17.440001"
       height="3.3099999"
       rx="1.65"
       ry="1.65"
       transform="rotate(-57.78,695.03366,370.81419)"
       id="rect242"
       style="fill:#486afc" />
    <rect
       class="cls-23"
       x="694.29999"
       y="356.48999"
       width="17.440001"
       height="3.3099999"
       rx="1.65"
       ry="1.65"
       transform="rotate(-57.78,703.0148,358.14978)"
       id="rect244"
       style="fill:#ffe368" />
    <rect
       class="cls-20"
       x="678.17999"
       y="358.94"
       width="13.32"
       height="3.3099999"
       rx="1.65"
       ry="1.65"
       transform="matrix(0.53,-0.85,0.85,0.53,14.64,747.71)"
       id="rect246"
       style="fill:#486afc" />
    <rect
       class="cls-23"
       x="683.51001"
       y="351.28"
       width="12.31"
       height="3.3099999"
       rx="1.65"
       ry="1.65"
       transform="rotate(-57.78,689.66374,352.93392)"
       id="rect248"
       style="fill:#ffe368" />
    <rect
       class="cls-20"
       x="675.89001"
       y="344.51001"
       width="19.450001"
       height="3.3099999"
       rx="1.65"
       ry="1.65"
       transform="rotate(122.22,685.62244,346.15919)"
       id="rect250"
       style="fill:#486afc" />
    <rect
       class="cls-23"
       x="666.98999"
       y="358.63"
       width="19.450001"
       height="3.3099999"
       rx="1.65"
       ry="1.65"
       transform="rotate(122.22,676.71613,360.29016)"
       id="rect252"
       style="fill:#ffe368" />
    <rect
       class="cls-20"
       x="724.78998"
       y="397.01999"
       width="21.83"
       height="3.3099999"
       rx="1.65"
       ry="1.65"
       transform="rotate(-57.78,735.70291,398.66923)"
       id="rect254"
       style="fill:#486afc" />
    <rect
       class="cls-23"
       x="734.78003"
       y="381.16"
       width="21.83"
       height="3.3099999"
       rx="1.65"
       ry="1.65"
       transform="rotate(-57.78,745.69434,382.81154)"
       id="rect256"
       style="fill:#ffe368" />
    <rect
       class="cls-21"
       x="689.90002"
       y="357.04999"
       width="8.8900003"
       height="3.3099999"
       rx="1.65"
       ry="1.65"
       transform="rotate(122.22,694.34525,358.70806)"
       id="rect258"
       style="fill:#f2f2f2" />
    <rect
       class="cls-20"
       x="687.60999"
       y="361.56"
       width="7.79"
       height="3.3099999"
       rx="1.65"
       ry="1.65"
       transform="rotate(122.22,691.50661,363.21407)"
       id="rect260"
       style="fill:#486afc" />
    <rect
       class="cls-21"
       x="659.31"
       y="355.75"
       width="21.83"
       height="3.3099999"
       rx="1.65"
       ry="1.65"
       transform="rotate(-57.78,670.21277,357.40166)"
       id="rect262"
       style="fill:#f2f2f2" />
    <rect
       class="cls-20"
       x="669.29999"
       y="339.89001"
       width="21.83"
       height="3.3099999"
       rx="1.65"
       ry="1.65"
       transform="matrix(0.53,-0.85,0.85,0.53,28.59,734.9)"
       id="rect264"
       style="fill:#486afc" />
    <rect
       class="cls-21"
       x="649.87"
       y="347.01001"
       width="18.440001"
       height="3.3099999"
       rx="1.65"
       ry="1.65"
       transform="rotate(-57.78,659.08918,348.66319)"
       id="rect266"
       style="fill:#f2f2f2" />
    <rect
       class="cls-20"
       x="658.31"
       y="333.62"
       width="18.440001"
       height="3.3099999"
       rx="1.65"
       ry="1.65"
       transform="rotate(-57.78,667.53063,335.2717)"
       id="rect268"
       style="fill:#486afc" />
    <rect
       class="cls-20"
       x="663.42999"
       y="336.26001"
       width="21.5"
       height="3.3099999"
       rx="1.65"
       ry="1.65"
       transform="rotate(122.22,674.1791,337.9141)"
       id="rect270"
       style="fill:#486afc" />
    <rect
       class="cls-23"
       x="653.59003"
       y="351.87"
       width="21.5"
       height="3.3099999"
       rx="1.65"
       ry="1.65"
       transform="rotate(122.22,664.33854,353.52541)"
       id="rect272"
       style="fill:#ffe368" />
    <rect
       class="cls-20"
       x="654.02002"
       y="335.60999"
       width="7.8600001"
       height="3.3099999"
       rx="1.65"
       ry="1.65"
       transform="rotate(122.22,657.94912,337.26794)"
       id="rect274"
       style="fill:#486afc" />
    <rect
       class="cls-23"
       x="653.21997"
       y="338.23001"
       width="6.1700001"
       height="3.3099999"
       rx="1.65"
       ry="1.65"
       transform="rotate(122.22,656.30702,339.87741)"
       id="rect276"
       style="fill:#ffe368" />
    <rect
       class="cls-20"
       x="640.69"
       y="322.69"
       width="17.540001"
       height="3.3099999"
       rx="1.65"
       ry="1.65"
       transform="rotate(122.22,649.46151,324.34011)"
       id="rect278"
       style="fill:#486afc" />
    <rect
       class="cls-23"
       x="632.65997"
       y="335.42999"
       width="17.540001"
       height="3.3099999"
       rx="1.65"
       ry="1.65"
       transform="matrix(-0.53,0.85,-0.85,-0.53,1268.6,-25.85)"
       id="rect280"
       style="fill:#ffe368" />
    <rect
       class="cls-21"
       x="647"
       y="331.47"
       width="10.5"
       height="3.3099999"
       rx="1.65"
       ry="1.65"
       transform="rotate(122.22,652.24625,333.12315)"
       id="rect282"
       style="fill:#f2f2f2" />
    <rect
       class="cls-20"
       x="645.87"
       y="335.17999"
       width="8.0699997"
       height="3.3099999"
       rx="1.65"
       ry="1.65"
       transform="rotate(122.22,649.90785,336.829)"
       id="rect284"
       style="fill:#486afc" />
    <path
       class="cls-20"
       d="M 731.92,410.87 725.77,407 c -5.51,-3.46 -3.93,-10.12 -1.06,-22.21 0.24,-1 0.48,-2 0.73,-3.1 3.41,-14.56 1.3,-22.08 -7.81,-27.76 -8.35,-5.21 -19.11,-0.28 -25.56,6.51 -7,7.34 -19.48,13.13 -31.79,5.29 -9.65,-6.14 -8.6,-13.54 -7.5,-21.37 a 73.07,73.07 0 0 0 0.8,-7.7 c 0.47,-13.67 -0.32,-21.26 -2.36,-22.54 l -7.22,-4.54 1.52,-2.42 7.19,4.53 c 3.21,2 4.24,9.05 3.69,25.06 a 76.42,76.42 0 0 1 -0.82,8 c -1.1,7.79 -1.89,13.42 6.2,18.57 10.85,6.91 22,1.71 28.19,-4.84 7.47,-7.86 19.38,-13.07 29.15,-7 11.8,7.36 12.16,17.65 9.07,30.83 -0.25,1.08 -0.49,2.11 -0.73,3.11 -2.83,11.92 -3.83,16.85 -0.2,19.14 l 6.15,3.88 z"
       id="path286"
       inkscape:connector-curvature="0"
       style="fill:#486afc" />
    <path
       class="cls-20"
       d="m 713.32,391.4 c -5.47,1.5 -11.07,0.81 -17.32,-3.17 -9.72,-6.18 -10.16,-19.17 -6.29,-29.3 3.22,-8.44 3.12,-20.71 -7.79,-27.52 -8.14,-5.08 -12.88,-1.94 -19.43,2.41 a 73.32,73.32 0 0 1 -6.86,4.2 c -14.2,7.4 -21,9.5 -24.19,7.48 l -7.19,-4.5 1.52,-2.42 7.19,4.54 c 2,1.28 9.22,-1.28 21.35,-7.61 a 70.48,70.48 0 0 0 6.6,-4 c 6.59,-4.38 12.82,-8.52 22.52,-2.46 12.38,7.72 12.56,21.51 9,31 -3.35,8.75 -3.16,20.58 5.15,25.87 9.05,5.76 16.75,4.43 28.41,-4.93 l 2.48,-2 c 9.67,-7.8 15,-12.1 20.5,-8.63 l 6.15,3.88 -1.52,2.41 -6.16,-3.88 c -3.63,-2.28 -7.64,0.75 -17.18,8.45 l -2.48,2 c -4.98,3.86 -9.67,6.86 -14.46,8.18 z"
       id="path288"
       inkscape:connector-curvature="0"
       style="fill:#486afc" />
    <path
       class="cls-20"
       d="m 621.53,514.5 a 200.47,200.47 0 0 1 -20.48,-1.44 l -2.37,-0.24 c -6.85,-0.71 -17,-8.6 -20.59,-18.8 -3.59,-10.2 -4.3,-37.54 1,-44 3.85,-4.68 13.68,-11.17 23.19,-17.44 2.79,-1.84 5.42,-3.58 7.8,-5.2 10.55,-7.22 35.82,-24.1 42.48,-25 7.22,-0.95 10.72,1.51 23.44,16.43 v 0 c 4.29,5 9.18,11.62 13.12,16.9 l 3.12,4.19 c 5.7,7.56 9.38,13.75 4.75,24.61 -4.51,10.58 -30.21,33.28 -43.36,41.39 -10.87,6.71 -21.27,8.6 -32.1,8.6 z m 33.48,-110 a 17.68,17.68 0 0 0 -2.12,0.16 c -5,0.67 -24.73,13.14 -41.48,24.59 -2.4,1.64 -5,3.38 -7.83,5.22 -8.93,5.89 -19.05,12.57 -22.67,17 -4.43,5.39 -4.21,31.65 -0.64,41.79 3.48,9.87 13.21,16.7 18.65,17.26 l 2.37,0.25 c 18.4,1.91 34.29,3.56 51.14,-6.83 14.16,-8.74 38.5,-31.06 42.45,-40.33 4.16,-9.76 1.08,-14.94 -4.47,-22.31 -0.95,-1.26 -2,-2.68 -3.13,-4.19 -3.91,-5.26 -8.78,-11.8 -13,-16.78 v 0 C 663.16,407.29 659.56,404.51 655,404.51 Z"
       id="path290"
       inkscape:connector-curvature="0"
       style="fill:#486afc" />
    <circle
       class="cls-21"
       cx="622"
       cy="491.17001"
       r="13.12"
       id="circle292"
       style="fill:#f2f2f2" />
    <ellipse
       class="cls-23"
       cx="603.23999"
       cy="449.76999"
       rx="13.98"
       ry="5.5700002"
       transform="rotate(-36.11,603.21461,449.75147)"
       id="ellipse294"
       style="fill:#ffe368" />
    <ellipse
       class="cls-23"
       cx="589.90002"
       cy="478.92999"
       rx="5.5700002"
       ry="13.98"
       transform="rotate(-0.58,587.35135,476.16507)"
       id="ellipse296"
       style="fill:#ffe368" />
    <ellipse
       class="cls-23"
       cx="675.78003"
       cy="446.34"
       rx="5.5700002"
       ry="13.98"
       transform="rotate(-50.45,675.74931,446.33481)"
       id="ellipse298"
       style="fill:#ffe368" />
    <ellipse
       class="cls-23"
       cx="662.08002"
       cy="479.51001"
       rx="13.98"
       ry="5.5700002"
       transform="rotate(-39.95,662.05167,479.50544)"
       id="ellipse300"
       style="fill:#ffe368" />
    <ellipse
       class="cls-23"
       cx="648.39001"
       cy="423.72"
       rx="13.98"
       ry="5.5700002"
       transform="rotate(-8.78,648.16449,423.57837)"
       id="ellipse302"
       style="fill:#ffe368" />
    <path
       class="cls-21"
       d="m 662.6,458.79 c -1.22,-10.27 -0.51,-12.27 -16.08,-17.71 -15.57,-5.44 -18,-5.52 -22.38,2.94 -4.38,8.46 -5,10.5 -9,16.58 -4,6.08 2.89,6.86 10.81,6.88 7.92,0.02 14.85,5 23.67,4.88 8.82,-0.12 14.04,-4.64 12.98,-13.57 z"
       id="path304"
       inkscape:connector-curvature="0"
       style="fill:#f2f2f2" />
    <circle
       class="cls-21"
       cx="606.25"
       cy="467"
       r="3.46"
       id="circle306"
       style="fill:#f2f2f2" />
    <circle
       class="cls-21"
       cx="602.53998"
       cy="499.76999"
       r="3.46"
       id="circle308"
       style="fill:#f2f2f2" />
    <circle
       class="cls-21"
       cx="646.26001"
       cy="496.29999"
       r="3.46"
       id="circle310"
       style="fill:#f2f2f2" />
    <circle
       class="cls-21"
       cx="628.76001"
       cy="427.38"
       r="3.46"
       id="circle312"
       style="fill:#f2f2f2" />
    <circle
       class="cls-21"
       cx="670.52002"
       cy="428.92001"
       r="3.46"
       id="circle314"
       style="fill:#f2f2f2" />
    <rect
       class="cls-20"
       x="669.17999"
       y="468.91"
       width="15.03"
       height="2.1400001"
       rx="1.04"
       ry="1.04"
       transform="rotate(53.89,676.70805,470.00543)"
       id="rect316"
       style="fill:#486afc" />
    <rect
       class="cls-20"
       x="671.09998"
       y="466.60999"
       width="15.03"
       height="2.1400001"
       rx="1.04"
       ry="1.04"
       transform="rotate(53.89,678.63215,467.70293)"
       id="rect318"
       style="fill:#486afc" />
    <rect
       class="cls-20"
       x="672.33002"
       y="463.37"
       width="15.03"
       height="2.1400001"
       rx="1.04"
       ry="1.04"
       transform="rotate(53.89,679.85419,464.45762)"
       id="rect320"
       style="fill:#486afc" />
    <rect
       class="cls-20"
       x="612.48999"
       y="435.39001"
       width="15.03"
       height="2.1400001"
       rx="1.04"
       ry="1.04"
       transform="rotate(-19.97,619.97045,436.44391)"
       id="rect322"
       style="fill:#486afc" />
    <rect
       class="cls-20"
       x="610.81"
       y="432.91"
       width="15.03"
       height="2.1400001"
       rx="1.04"
       ry="1.04"
       transform="rotate(-19.97,618.30066,433.95392)"
       id="rect324"
       style="fill:#486afc" />
    <rect
       class="cls-20"
       x="608.03998"
       y="430.82001"
       width="15.03"
       height="2.1400001"
       rx="1.04"
       ry="1.04"
       transform="rotate(-19.97,615.50347,431.88032)"
       id="rect326"
       style="fill:#486afc" />
    <rect
       class="cls-20"
       x="598.25"
       y="478.07001"
       width="15.03"
       height="2.1400001"
       rx="1.04"
       ry="1.04"
       transform="rotate(-88.59,605.80259,479.14089)"
       id="rect328"
       style="fill:#486afc" />
    <rect
       class="cls-20"
       x="595.33002"
       y="478.73001"
       width="15.03"
       height="2.1400001"
       rx="1.04"
       ry="1.04"
       transform="rotate(-88.59,602.87919,479.79962)"
       id="rect330"
       style="fill:#486afc" />
    <rect
       class="cls-20"
       x="592.38"
       y="480.54999"
       width="15.03"
       height="2.1400001"
       rx="1.04"
       ry="1.04"
       transform="rotate(-88.59,599.92449,481.61818)"
       id="rect332"
       style="fill:#486afc" />
    <path
       class="cls-21"
       d="m 472.09,37 -18.2,-4.84 13.29,-13.34 z m -12.24,-6.45 7.86,2.09 -2.12,-7.85 z"
       id="path334"
       inkscape:connector-curvature="0"
       style="fill:#f2f2f2" />
    <path
       class="cls-21"
       d="m 534.65,53.67 -18.2,-4.84 13.29,-13.35 z m -12.24,-6.45 7.87,2.09 -2.12,-7.85 z"
       id="path336"
       inkscape:connector-curvature="0"
       style="fill:#f2f2f2" />
    <path
       class="cls-21"
       d="M 489.87,99.73 471.67,94.89 485,81.54 Z m -12.24,-6.45 7.86,2.09 -2.12,-7.85 z"
       id="path338"
       inkscape:connector-curvature="0"
       style="fill:#f2f2f2" />
    <path
       class="cls-21"
       d="M 481.4,68.84 463.19,64 476.49,50.65 Z m -12.24,-6.46 7.86,2.1 -2.12,-7.86 z"
       id="path340"
       inkscape:connector-curvature="0"
       style="fill:#f2f2f2" />
    <path
       class="cls-21"
       d="M 503.86,46.29 485.65,41.45 499,28.11 Z m -12.24,-6.45 7.86,2.09 -2.12,-7.85 z"
       id="path342"
       inkscape:connector-curvature="0"
       style="fill:#f2f2f2" />
    <path
       class="cls-21"
       d="m 520.45,107.74 -18.21,-4.84 13.3,-13.34 z m -12.24,-6.45 7.86,2.09 -2.07,-7.85 z"
       id="path344"
       inkscape:connector-curvature="0"
       style="fill:#f2f2f2" />
    <path
       class="cls-21"
       d="m 497.52,130.76 -18.21,-4.84 13.3,-13.35 z m -12.24,-6.45 7.86,2.09 -2.14,-7.85 z"
       id="path346"
       inkscape:connector-curvature="0"
       style="fill:#f2f2f2" />
    <path
       class="cls-21"
       d="m 542.65,85.46 -18.21,-4.84 13.3,-13.34 z M 530.41,79 l 7.86,2.09 -2.12,-7.85 z"
       id="path348"
       inkscape:connector-curvature="0"
       style="fill:#f2f2f2" />
    <path
       class="cls-21"
       d="M 565.92,62.11 547.71,57.27 561,43.92 Z m -12.24,-6.45 7.86,2.09 -2.12,-7.86 z"
       id="path350"
       inkscape:connector-curvature="0"
       style="fill:#f2f2f2" />
    <path
       class="cls-23"
       d="m 492,56.87 -33.87,-9 L 482.86,23 Z M 464.08,46.25 487.61,52.51 481.27,29 Z"
       id="path352"
       inkscape:connector-curvature="0"
       style="fill:#ffe368" />
    <path
       class="cls-23"
       d="m 554.68,73.62 -33.88,-9 24.74,-24.83 z M 526.77,63 550.3,69.26 544,45.75 Z"
       id="path354"
       inkscape:connector-curvature="0"
       style="fill:#ffe368" />
    <path
       class="cls-23"
       d="m 509.57,119.35 -33.88,-9 24.74,-24.83 z m -27.91,-10.62 23.53,6.27 -6.35,-23.51 z"
       id="path356"
       inkscape:connector-curvature="0"
       style="fill:#ffe368" />
    <path
       class="cls-20"
       d="m 532.09,96.82 -65.4,-17.39 47.76,-47.94 z m -59.43,-19 55.05,14.64 -14.84,-55 z"
       id="path358"
       inkscape:connector-curvature="0"
       style="fill:#486afc" />
    <path
       class="cls-22"
       d="m 484.16,144.72 -35.31,-130.83 131,34.83 z m -30.94,-126.47 32.53,120.5 88.1,-88.42 z"
       id="path360"
       inkscape:connector-curvature="0"
       style="fill:#7594f9" />
    <flowRoot
       xml:space="preserve"
       id="flowRoot5060"
       style="font-style:normal;font-variant:normal;font-weight:normal;font-stretch:normal;font-size:10.66666698px;line-height:1.25;font-family:'Open Sans';-inkscape-font-specification:'Open Sans, Normal';font-variant-ligatures:normal;font-variant-caps:normal;font-variant-numeric:normal;font-feature-settings:normal;text-align:center;letter-spacing:0px;word-spacing:0px;writing-mode:lr-tb;text-anchor:middle;fill:#000000;fill-opacity:1;stroke:none"><flowRegion
         id="flowRegion5062"><rect
           id="rect5064"
           width="432.6156"
           height="230.67918"
           x="129.71098"
           y="-56.667629" /></flowRegion><flowPara
         id="flowPara5066"></flowPara></flowRoot>    <flowRoot
       xml:space="preserve"
       id="flowRoot5068"
       style="font-style:normal;font-variant:normal;font-weight:normal;font-stretch:normal;font-size:10.66666698px;line-height:1.25;font-family:'Open Sans';-inkscape-font-specification:'Open Sans, Normal';font-variant-ligatures:normal;font-variant-caps:normal;font-variant-numeric:normal;font-feature-settings:normal;text-align:center;letter-spacing:0px;word-spacing:0px;writing-mode:lr-tb;text-anchor:middle;fill:#000000;fill-opacity:1;stroke:none"><flowRegion
         id="flowRegion5070"><rect
           id="rect5072"
           width="1.4739884"
           height="58.959538"
           x="550.53467"
           y="159.27168" /></flowRegion><flowPara
         id="flowPara5074"></flowPara></flowRoot>    <text
       xml:space="preserve"
       style="font-style:normal;font-variant:normal;font-weight:normal;font-stretch:normal;font-size:10.66666698px;line-height:1.25;font-family:'Open Sans';-inkscape-font-specification:'Open Sans, Normal';font-variant-ligatures:normal;font-variant-caps:normal;font-variant-numeric:normal;font-feature-settings:normal;text-align:center;letter-spacing:0px;word-spacing:0px;writing-mode:lr-tb;text-anchor:middle;fill:#000000;fill-opacity:1;stroke:none"
       x="647.08093"
       y="212.33527"
       id="text5082"><tspan
         sodipodi:role="line"
         id="tspan5080"
         x="647.08093"
         y="221.78645"></tspan></text>
    <text
       xml:space="preserve"
       style="font-style:normal;font-variant:normal;font-weight:bold;font-stretch:normal;font-size:53.25066757px;line-height:1;font-family:'Century Gothic';-inkscape-font-specification:'Century Gothic, Bold';font-variant-ligatures:normal;font-variant-caps:normal;font-variant-numeric:normal;font-feature-settings:normal;text-align:start;letter-spacing:0px;word-spacing:0px;writing-mode:lr-tb;text-anchor:start;fill:#0000ff;fill-opacity:1;stroke:none"
       x="547.27173"
       y="164.74567"
       id="text5086"><tspan
         sodipodi:role="line"
         x="547.27173"
         y="164.74567"
         id="tspan5088"
         style="line-height:1">Akce na MUNI</tspan></text>
    <text
       xml:space="preserve"
       style="font-style:normal;font-variant:normal;font-weight:bold;font-stretch:normal;font-size:43.33333206px;line-height:1.25;font-family:'Century Gothic';-inkscape-font-specification:'Century Gothic, Bold';font-variant-ligatures:normal;font-variant-caps:normal;font-variant-numeric:normal;font-feature-settings:normal;text-align:start;letter-spacing:0px;word-spacing:0px;writing-mode:lr-tb;text-anchor:start;fill:#0000ff;fill-opacity:1;stroke:none"
       x="546.06348"
       y="219.34671"
       id="text5092"><tspan
         sodipodi:role="line"
         id="tspan5090"
         x="546.06348"
         y="219.34671">pro stedokolky</tspan></text>
    <text
       xml:space="preserve"
       style="font-style:normal;font-variant:normal;font-weight:normal;font-stretch:normal;font-size:24px;line-height:1.25;font-family:'Century Gothic';-inkscape-font-specification:'Century Gothic, Normal';font-variant-ligatures:normal;font-variant-caps:normal;font-variant-numeric:normal;font-feature-settings:normal;text-align:center;letter-spacing:0px;word-spacing:0px;writing-mode:lr-tb;text-anchor:middle;fill:#0000ff;fill-opacity:1;stroke:none"
       x="621.07513"
       y="274.45377"
       id="text5098"><tspan
         sodipodi:role="line"
         id="tspan5096"
         x="621.07513"
         y="274.45377">Vce info</tspan></text>
  </g>
</svg>
