<?xml version="1.0" encoding="UTF-8" standalone="no"?>
<svg
   xmlns:dc="http://purl.org/dc/elements/1.1/"
   xmlns:cc="http://creativecommons.org/ns#"
   xmlns:rdf="http://www.w3.org/1999/02/22-rdf-syntax-ns#"
   xmlns:svg="http://www.w3.org/2000/svg"
   xmlns="http://www.w3.org/2000/svg"
   xmlns:sodipodi="http://sodipodi.sourceforge.net/DTD/sodipodi-0.dtd"
   xmlns:inkscape="http://www.inkscape.org/namespaces/inkscape"
   viewBox="0 0 1020 628"
   version="1.1"
   id="svg363"
   sodipodi:docname="soc_s.svg"
   inkscape:version="0.92.1 r15371"
   inkscape:export-filename="/home/apophis/jan/KSI/ks-muni-web/static/soc_fb_preview.png"
   inkscape:export-xdpi="56.470001"
   inkscape:export-ydpi="56.470001">
  <metadata
     id="metadata367">
    <rdf:RDF>
      <cc:Work
         rdf:about="">
        <dc:format>image/svg+xml</dc:format>
        <dc:type
           rdf:resource="http://purl.org/dc/dcmitype/StillImage" />
        <dc:title>zahlavi_bile_vystupy_novyvizual</dc:title>
      </cc:Work>
    </rdf:RDF>
  </metadata>
  <sodipodi:namedview
     pagecolor="#ffffff"
     bordercolor="#666666"
     borderopacity="1"
     objecttolerance="10"
     gridtolerance="10"
     guidetolerance="10"
     inkscape:pageopacity="0"
     inkscape:pageshadow="2"
     inkscape:window-width="1920"
     inkscape:window-height="1062"
     id="namedview365"
     showgrid="false"
     inkscape:zoom="0.67843137"
     inkscape:cx="244.17368"
     inkscape:cy="314"
     inkscape:window-x="0"
     inkscape:window-y="0"
     inkscape:window-maximized="1"
     inkscape:current-layer="Vrstva_14" />
  <defs
     id="defs4">
    <style
       id="style2">.cls-1{fill:#c3d4fc;}.cls-2,.cls-4,.cls-9{fill:blue;}.cls-3{fill:#efefef;}.cls-4{font-size:25.56px;font-family:NeueHaasUnicaPro-Regular, Neue Haas Unica Pro;}.cls-5{letter-spacing:-0.02em;}.cls-6{letter-spacing:0.01em;}.cls-7{letter-spacing:-0.01em;}.cls-8{letter-spacing:-0.02em;}.cls-9{font-size:53.25px;font-family:NeueHaasUnicaPro-Bold, Neue Haas Unica Pro;font-weight:700;}.cls-10{letter-spacing:-0.03em;}.cls-11{letter-spacing:0.01em;}.cls-12{font-size:42.6px;}.cls-13{letter-spacing:-0.01em;}.cls-14{letter-spacing:-0.01em;}.cls-15{letter-spacing:0.01em;}.cls-16{letter-spacing:0em;}.cls-17{letter-spacing:-0.03em;}.cls-18{fill:none;stroke:blue;stroke-miterlimit:10;stroke-width:4px;}.cls-19{fill:#fff;}.cls-20{fill:#486afc;}.cls-21{fill:#f2f2f2;}.cls-22{fill:#7594f9;}.cls-23{fill:#ffe368;}.cls-24{opacity:0.89;}</style>
  </defs>
  <title
     id="title6">zahlavi_bile_vystupy_novyvizual</title>
  <g
     id="Vrstva_14"
     data-name="Vrstva 14">
    <polygon
       class="cls-1"
       points="1036.53,0 -10.57,0 -10.57,572.65 1036.53,561.27 "
       id="polygon8"
       style="fill:#c3d4fc"
       transform="matrix(0.974119,0,0,1,10.296435,-0.46621491)" />
    <rect
       class="cls-2"
       x="64.900002"
       y="0.52999997"
       width="188.81"
       height="102.91"
       id="rect10"
       style="fill:#0000ff" />
    <circle
       class="cls-3"
       cx="992.47998"
       cy="389.16"
       r="1.8"
       id="circle12"
       style="fill:#efefef" />
    <path
       class="cls-3"
       d="m 964.9,392.12 a 1.15,1.15 0 0 0 1.16,-1.16 1.16,1.16 0 1 0 -1.16,1.16 z"
       id="path14"
       inkscape:connector-curvature="0"
       style="fill:#efefef" />
    <path
       class="cls-3"
       d="m 995.58,402.44 a 1.42,1.42 0 1 0 -1.42,-1.43 1.43,1.43 0 0 0 1.42,1.43 z"
       id="path16"
       inkscape:connector-curvature="0"
       style="fill:#efefef" />
    <path
       class="cls-3"
       d="m 962.32,402.05 a 1.68,1.68 0 1 0 -1.67,-1.67 1.68,1.68 0 0 0 1.67,1.67 z"
       id="path18"
       inkscape:connector-curvature="0"
       style="fill:#efefef" />
    <path
       class="cls-3"
       d="m 995.83,404.63 a 1,1 0 0 0 1,1 1,1 0 0 0 1,-1 1,1 0 0 0 -1,-1 1,1 0 0 0 -1,1 z"
       id="path20"
       inkscape:connector-curvature="0"
       style="fill:#efefef" />
    <path
       class="cls-3"
       d="m 992.48,400.24 a 1.81,1.81 0 1 0 1.8,1.81 1.8,1.8 0 0 0 -1.8,-1.81 z"
       id="path22"
       inkscape:connector-curvature="0"
       style="fill:#efefef" />
    <path
       class="cls-3"
       d="m 968.68,412.87 a 2.62,2.62 0 1 0 -2.62,2.62 2.61,2.61 0 0 0 2.62,-2.62 z"
       id="path24"
       inkscape:connector-curvature="0"
       style="fill:#efefef" />
    <path
       class="cls-3"
       d="m 990.68,412.87 a 1.8,1.8 0 1 0 1.8,-1.8 1.8,1.8 0 0 0 -1.8,1.8 z"
       id="path26"
       inkscape:connector-curvature="0"
       style="fill:#efefef" />
    <path
       class="cls-3"
       d="m 961.94,405.36 a 1.51,1.51 0 1 0 -1.51,-1.51 1.51,1.51 0 0 0 1.51,1.51 z"
       id="path28"
       inkscape:connector-curvature="0"
       style="fill:#efefef" />
    <path
       class="cls-3"
       d="m 961.3,412.87 a 1,1 0 0 0 1,1 1,1 0 1 0 -1,-1 z"
       id="path30"
       inkscape:connector-curvature="0"
       style="fill:#efefef" />
    <path
       class="cls-3"
       d="M 1898.5,546.67 1141.43,546 1110.67,525.13 h -120.5 v -90.35 c 4.07,-0.68 6.7,-1.76 6.7,-3 0,-1.24 -2.63,-2.27 -6.7,-2.95 v -6.14 c 4.07,-0.74 6.7,-1.9 6.7,-3.2 0,-0.52 -0.43,-1 -1.21,-1.48 a 1.93,1.93 0 1 0 -2.53,-1.83 2.1,2.1 0 0 0 0.2,0.87 28.36,28.36 0 0 0 -3.16,-0.76 v -5.88 c 4.07,-0.78 6.7,-2 6.7,-3.34 0,-1.34 -2.63,-2.56 -6.7,-3.32 v -5.4 a 21.11,21.11 0 0 0 4.18,-1.22 1.21,1.21 0 0 0 -0.07,0.37 1.3,1.3 0 0 0 2.59,0 1.29,1.29 0 0 0 -1,-1.24 1.94,1.94 0 0 0 1,-1.47 c 0,-0.61 -0.47,-1.18 -1.28,-1.7 h 0.24 a 1.16,1.16 0 1 0 -1.16,-1.15 1.19,1.19 0 0 0 0.32,0.79 25.13,25.13 0 0 0 -7.52,-2 4.37,4.37 0 0 0 -3,-7.59 h -0.33 c -1,-2.49 -1.79,-4.53 -1.79,-4.53 v -2.28 h 1.23 v -0.62 h -1.23 v -4.57 h 1.22 v -0.63 h -1.22 V 366 h 1.22 v -0.62 h -1.22 v -4.58 h 1.22 v -0.64 h -1.22 v -4.57 h 1.22 V 355 h -1.22 v -4.62 h 1.22 v -0.63 h -1.22 v -4.62 h 1.22 v -0.62 h -1.22 v -4.63 h 1.22 v -0.62 h -1.22 V 337 H 981 v 0 l -1.46,1.45 v -1.52 h 0.34 v -2.85 h -0.62 v -0.57 h 0.62 v -2.85 h -0.62 v -0.6 h 0.62 v -2.83 h -0.62 v -0.6 h 0.62 v -2.85 h -0.62 V 323 h 0.62 v -2.85 h -2 V 323 h 0.62 v 0.76 h -0.62 v 2.85 h 0.62 v 0.6 h -0.62 v 2.83 h 0.62 v 0.6 h -0.62 v 2.85 h 0.62 v 0.57 h -0.62 v 2.85 h 0.32 v 1.52 L 976.75,337 v 0 h -1.35 v 2.3 h -1.22 v 0.62 h 1.22 v 4.63 h -1.22 v 0.62 h 1.22 v 4.62 h -1.22 v 0.63 h 1.22 V 355 h -1.22 v 0.63 h 1.22 v 4.57 h -1.22 v 0.64 h 1.22 v 4.58 h -1.22 V 366 h 1.22 v 4.58 h -1.22 v 0.63 h 1.22 v 4.57 h -1.19 v 0.62 h 1.19 v 2.28 l -2.66,6.72 a 3,3 0 1 0 -2.09,5.14 l -0.17,0.42 c -4.9,0.79 -8.16,2.21 -8.16,3.83 0,1.45 2.63,2.74 6.71,3.56 V 400 a 2.57,2.57 0 1 0 -2.61,4.4 c -2.55,0.73 -4.1,1.68 -4.1,2.71 0,1.36 2.63,2.56 6.71,3.34 v 5.88 c -4.08,0.75 -6.71,1.9 -6.71,3.2 0,1.3 2.68,2.47 6.68,3.2 v 6.14 c -4.08,0.68 -6.71,1.74 -6.71,2.95 0,1.21 2.63,2.28 6.71,3 v 90.31 h -18.3 v -40.57 l -5.92,-9.88 v -5.92 l -4.94,-3.46 -16.79,-31.59 -11.36,1.21 V 391.24 H 910 v -10.37 h -0.86 v -13 h -3 v 13 h -0.87 v 10.37 h -1.73 v -32.1 h -2 v -8.7 h -5.1 l -5.1,-105.76 a 3.14,3.14 0 0 0 -0.3,-6.26 l -0.05,-1.11 v 1.11 a 3.14,3.14 0 0 0 -0.25,6.26 l -4.27,105.76 h -6 v 8.7 h -2 v 31.11 h -1.6 V 379.89 H 876 v -13 h -3 v 13 h -0.86 v 10.36 h -1.72 v 16.27 l -8.15,-9.85 -6.54,0.84 V 383.83 H 854 v -10.36 h -0.87 v -13 h -3 v 13 h -0.86 v 10.36 h -1.73 v -32.09 h -2 V 343 h -5.12 l -5.09,-105.76 a 3.14,3.14 0 0 0 -0.29,-6.26 l -0.06,-1.11 v 1.11 a 3.14,3.14 0 0 0 -0.26,6.26 L 830.53,343 h -6 v 8.7 h -2 v 31.11 H 821 v -10.33 h -0.86 v -13 h -3 v 13 h -0.87 v 10.37 h -1.73 V 402.8 L 777,407.6 c -0.42,-4 -0.76,-7.47 -0.76,-7.47 l -0.94,7.69 -1.16,0.15 v -7.35 l -3,-7 -1.39,-14.46 -0.86,14.91 -3.59,4.35 v 16 l -2,2.73 c -0.51,-7.27 -1.11,-15.61 -1.11,-15.61 0,0.37 -0.85,11.07 -1.5,19.22 l -5.87,8.12 c -0.92,-9 -1.76,-18.57 -1.76,-18.57 l -3.43,25.69 -15.71,21.75 c -0.64,-2.75 -1.21,-5.33 -1.21,-5.33 -0.07,0.39 -0.6,3.88 -1.1,7.14 l -2.12,-16 c 0,0.48 -0.34,7.76 -0.69,15.22 l -0.78,-6.34 -1.82,16 -1.64,2.28 v 8.39 l -3,6.92 v 39 h -91.72 l -102,15 v 0 l -56.82,-35.29 h -39.39 l -0.18,-7.21 1.12,-0.18 -11.75,-5.23 -6.07,-0.51 v -2.64 h -1.26 v 2.54 l -8.38,-0.71 -1.51,-2.39 h -1.17 v -0.63 h -1.26 v 0.63 h -5.31 V 486 h -3.32 v 2.49 h -2.94 v -1.79 h -1.91 v 1.79 H 384 v -2.24 h -2 v 2.24 h -1 v -2.24 h -1 v 2.24 h -3.4 l -7.5,-0.63 V 485 h -1.89 v 2.71 l -2,-0.16 -9.85,-5.38 -10.54,-0.85 v -2 h -1.12 v 1.9 l -1.85,-0.15 -4.41,2.07 h -3.36 l -0.87,0.91 -1.33,-0.7 v -9.48 h 0.49 v -1.22 h -0.67 l -1.5,-2.59 -1.54,-1.29 v -1.3 l -0.46,-2.62 h -0.73 l -0.74,2.66 v 1.29 l -1.64,1.44 -1.47,2.38 h -0.32 v 1 h 0.34 v 9 l -3.08,-0.14 v 1.12 l -2,-0.07 v -0.7 h -2.75 v -13.91 h -0.7 V 472 h -0.66 v 4.24 h 0.66 v 6 l -12.48,-9.5 h -5.84 l -3.22,2.1 -2.8,-0.07 -2.59,-2.8 h -23.99 l -12.32,12 h 0.91 v 6.72 l -1.4,1.68 V 501 l -6.65,-0.07 v -4 h 1.78 l -7.23,-5.47 v -2.23 H 238 v 1.24 l -6.77,-5.11 h -3.36 v -1.64 h -2.7 v 1.64 h -6.35 v -1.64 h -2.7 v 1.64 H 209 v -1.64 h -2.71 v 1.64 h -6.11 v -1.64 h -2.71 v 1.64 h -2.38 l -15.68,11 v 8.51 L -27,515.21 l 4.72,2.74 -62.27,-6.66 -58.52,-0.44 0.36,-19 h -58.07 v -4.93 h -2.54 V 470 h 1 v -9.45 a 20.36,20.36 0 0 0 -11.37,-18.24 v -3.2 h -17.89 v 3.2 a 20.32,20.32 0 0 0 -11.37,18.24 V 470 h 1.05 v 16.93 h -2.56 v 4.93 h -8.94 v -59.3 h -9.32 A 19.65,19.65 0 0 0 -276,422.12 v -1.66 h -2.73 v -0.68 h -3.09 v 0.68 h -2.73 v 1.66 a 19.65,19.65 0 0 0 -14.69,14.07 h -10.85 v 4.73 h -13.83 v -13.1 h -16.72 v -4.24 h -14.56 v 4.24 h -4 v 13.1 H -383 v -6.18 h -2.43 v 6.18 h -1.34 v -6.18 h -2.42 v 6.18 h -3.14 v -8.36 h -5.45 a 48.11,48.11 0 0 0 -35.58,-32.37 v -3.47 h -4.08 v -1.08 h -12.17 v 1.08 h -4.08 v 3.47 a 48.13,48.13 0 0 0 -35.59,32.37 h -5.27 v 5.81 h -80.2 v 55.06 l -197.11,-0.17 v 3.14 49.83 h -568.04 v 87.92 l 1789.42,-5.43 1449,5.43 z M -468.77,495.84 h -7.89 v -18.9 h 7.89 z m 9.72,0 H -467 v -18.9 h 8 z m 9.72,0 h -7.93 v -18.9 h 7.93 z m 9.71,0 h -7.92 v -18.9 h 7.92 z m 9.72,0 h -7.92 v -18.9 h 7.92 z m 9.72,0 h -7.93 v -18.9 h 7.93 z m 9.7,0 h -7.91 v -18.9 h 7.91 z m 23.07,-7.88 h -4.88 v -16.11 h 4.88 z m 6.44,0 h -4.89 v -16.11 h 4.86 z m 6.45,0 h -4.9 v -16.11 h 4.9 z m 6.44,0 H -373 v -16.11 h 4.89 z m 6.45,0 h -4.9 v -16.11 h 4.9 z m 6.44,0 h -4.9 v -16.11 h 4.9 z m 6.44,0 h -4.89 v -16.11 h 4.89 z m 6.45,0 h -4.9 v -16.11 h 4.9 z m 6.43,0 h -4.9 v -16.11 h 4.9 z m 6.44,0 h -4.89 v -16.11 h 4.89 z m 6.45,0 h -4.9 v -16.11 h 4.9 z m 6.44,0 h -4.89 v -16.11 h 4.89 z m 6.45,0 H -315 v -16.11 h 4.9 z m 48.66,5 h -39.67 v -16 h 39.67 z m 1241.1,-111 0.61,1.37 -0.49,3.08 c -0.04,-1.55 -0.09,-3.14 -0.12,-4.48 z m 3.3,1.58 -0.2,0.07 v -0.68 z m -1.9,6.83 h -1 l 0.24,-1.27 a 4.23,4.23 0 0 0 0.76,1.24 z m -0.05,-13.9 v 1.35 l -1.35,-1.35 z m -1.39,-0.62 1.39,-1.39 v 1.39 z m 1.39,-4.57 v 1.36 l -1.38,-1.36 z m -1.38,-0.63 1.38,-1.38 v 1.38 z M 981,366 v 1.37 L 979.64,366 Z M 979.62,365.38 981,364 v 1.38 z M 981,360.8 v 1.37 l -1.38,-1.37 z m -1.38,-0.64 1.38,-1.36 v 1.36 z M 981,355.59 V 357 l -1.38,-1.37 z m -1.38,-0.63 1.38,-1.36 v 1.4 z m 1.38,-4.62 v 1.37 l -1.38,-1.37 z m -1.38,-0.63 1.38,-1.36 v 1.36 z m 1.38,-4.62 v 1.38 l -1.38,-1.38 z m -1.38,-0.62 1.38,-1.37 v 1.37 z m 1.38,-6.62 v 1.37 h -1.38 z m 0,2 v 1.38 l -1.38,-1.38 z m -1.46,0.81 1.46,1.46 v 0.1 l -1.46,1.45 z m 0,5.25 1.46,1.49 v 0.1 l -1.44,1.5 z m 0,5.25 1.46,1.46 v 0.1 l -1.46,1.45 z m 0,5.25 1.46,1.45 V 358 l -1.46,1.45 z m 0,5.2 1.46,1.49 v 0 l -1.46,1.46 z m 0,5.2 1.46,1.49 v 0.05 l -1.46,1.46 z m 0,5.21 1.46,1.48 v 0 l -1.44,1.5 z m 0,5.18 1.46,1.45 v 0 l -0.4,2.52 -1.06,-2.52 z m -1.25,4.53 0.32,8.57 v 0 l -1.07,-6.67 z m -1.56,-43.87 1.37,1.37 h -1.37 z m 0,2 h 1.37 l -1.37,1.38 z m 0,2.27 1.45,-1.46 v 3 l -1.45,-1.45 z m 0,1 1.38,1.37 h -1.38 z m 0,2 h 1.37 l -1.37,1.38 z m 0,2.27 1.45,-1.46 v 3 l -1.45,-1.45 z m 0,1 1.37,1.36 h -1.37 z m 0,2 h 1.37 l -1.37,1.37 z m 0,2.27 1.45,-1.46 v 3 l -1.45,-1.45 z m 0,1 1.38,1.36 h -1.38 z m 0,2 h 1.37 l -1.35,1.33 z m 0,2.26 1.45,-1.45 v 3 L 976.75,358 Z m 0,0.95 1.38,1.36 h -1.38 z m 0,2 h 1.37 l -1.37,1.37 z m 0,2.26 1.45,-1.46 v 3 l -1.45,-1.46 z m 0,0.94 1.38,1.38 h -1.38 z m 0,2 h 1.37 l -1.37,1.37 z m 0,2.26 1.45,-1.46 v 3 l -1.45,-1.46 z m 0,0.94 1.38,1.38 h -1.38 z m 0,2 h 1.37 l -1.37,1.36 z m 0,2.25 1.45,-1.45 V 375 l -1.45,-1.45 z m 0,0.93 1.39,1.39 h -1.39 z m 0,2 h 1.36 l -1.36,1.35 z m 0,2.24 1.45,-1.45 v 1.49 c 0,0 -0.41,1.07 -1,2.6 l -0.42,-2.6 z m -0.43,4.72 v 0.06 a 0.33,0.33 0 0 1 0,0.06 c 0,0 0.02,-0.11 0.02,-0.14 z m -0.42,4.31 0.84,-2.09 0.93,4.73 c -0.7,0 -1.38,0 -2,0.09 0.06,-0.79 0.14,-1.73 0.25,-2.75 z m -3.85,2.54 a 3,3 0 0 0 1.64,-2.64 2.91,2.91 0 0 0 -0.18,-0.94 l 1.54,-3.77 -0.4,4.73 c -0.45,1.15 -0.88,2.19 -1.21,3 -0.55,0.05 -1.08,0.11 -1.61,0.18 z"
       id="path32"
       inkscape:connector-curvature="0"
       style="fill:#efefef" />
    <path
       class="cls-19"
       d="m 99,34.93 h 5.31 V 69 H 99 Z m 5.51,0 h 1.8 L 109.63,69 h -1.8 z m 8.62,0 h 1.8 L 111.63,69 h -1.8 z m 2,0 h 5.36 V 69 h -5.36 z"
       id="path82"
       inkscape:connector-curvature="0"
       style="fill:#ffffff" />
    <path
       class="cls-19"
       d="M 140.62,34.93 V 61 a 3,3 0 0 0 1,2.24 3.14,3.14 0 0 0 4.44,0 3,3 0 0 0 1,-2.24 V 34.93 h 5.36 v 26.26 a 7.28,7.28 0 0 1 -1.22,4.09 9,9 0 0 1 -3.19,3 8.45,8.45 0 0 1 -8.34,0 9,9 0 0 1 -3.19,-3 7.28,7.28 0 0 1 -1.22,-4.09 V 34.93 Z"
       id="path84"
       inkscape:connector-curvature="0"
       style="fill:#ffffff" />
    <path
       class="cls-19"
       d="M 174.29,34.93 V 69 h -5.36 V 34.93 Z m 2.05,0 5.07,34.07 h -1.85 l -5.07,-34.11 z m 10.62,0 V 69 H 181.6 V 34.93 Z"
       id="path86"
       inkscape:connector-curvature="0"
       style="fill:#ffffff" />
    <path
       class="cls-19"
       d="M 209.33,67.14 V 36.83 h -4.58 v -1.9 h 14.57 v 1.9 h -4.63 v 30.31 h 4.63 V 69 h -14.57 v -1.9 z"
       id="path88"
       inkscape:connector-curvature="0"
       style="fill:#ffffff" />
    <flowRoot
       xml:space="preserve"
       id="flowRoot5060"
       style="font-style:normal;font-variant:normal;font-weight:normal;font-stretch:normal;font-size:10.66666698px;line-height:1.25;font-family:'Open Sans';-inkscape-font-specification:'Open Sans, Normal';font-variant-ligatures:normal;font-variant-caps:normal;font-variant-numeric:normal;font-feature-settings:normal;text-align:center;letter-spacing:0px;word-spacing:0px;writing-mode:lr-tb;text-anchor:middle;fill:#000000;fill-opacity:1;stroke:none"><flowRegion
         id="flowRegion5062"><rect
           id="rect5064"
           width="432.6156"
           height="230.67918"
           x="129.71098"
           y="-56.667629" /></flowRegion><flowPara
         id="flowPara5066" /></flowRoot>    <flowRoot
       xml:space="preserve"
       id="flowRoot5068"
       style="font-style:normal;font-variant:normal;font-weight:normal;font-stretch:normal;font-size:10.66666698px;line-height:1.25;font-family:'Open Sans';-inkscape-font-specification:'Open Sans, Normal';font-variant-ligatures:normal;font-variant-caps:normal;font-variant-numeric:normal;font-feature-settings:normal;text-align:center;letter-spacing:0px;word-spacing:0px;writing-mode:lr-tb;text-anchor:middle;fill:#000000;fill-opacity:1;stroke:none"><flowRegion
         id="flowRegion5070"><rect
           id="rect5072"
           width="1.4739884"
           height="58.959538"
           x="550.53467"
           y="159.27168" /></flowRegion><flowPara
         id="flowPara5074" /></flowRoot>    <text
       xml:space="preserve"
       style="font-style:normal;font-variant:normal;font-weight:normal;font-stretch:normal;font-size:10.66666698px;line-height:1.25;font-family:'Open Sans';-inkscape-font-specification:'Open Sans, Normal';font-variant-ligatures:normal;font-variant-caps:normal;font-variant-numeric:normal;font-feature-settings:normal;text-align:center;letter-spacing:0px;word-spacing:0px;writing-mode:lr-tb;text-anchor:middle;fill:#000000;fill-opacity:1;stroke:none"
       x="647.08093"
       y="212.33527"
       id="text5082"><tspan
         sodipodi:role="line"
         id="tspan5080"
         x="647.08093"
         y="221.78645" /></text>
    <text
       xml:space="preserve"
       style="font-style:normal;font-variant:normal;font-weight:bold;font-stretch:normal;font-size:53.25066757px;line-height:1;font-family:'Century Gothic';-inkscape-font-specification:'Century Gothic, Bold';font-variant-ligatures:normal;font-variant-caps:normal;font-variant-numeric:normal;font-feature-settings:normal;text-align:start;letter-spacing:0px;word-spacing:0px;writing-mode:lr-tb;text-anchor:start;fill:#0000ff;fill-opacity:1;stroke:none"
       x="547.27173"
       y="164.74567"
       id="text5086"><tspan
         sodipodi:role="line"
         x="547.27173"
         y="164.74567"
         id="tspan5088"
         style="line-height:1">SOČ na MUNI</tspan></text>
    <text
       xml:space="preserve"
       style="font-style:normal;font-variant:normal;font-weight:bold;font-stretch:normal;font-size:43.33333206px;line-height:1.25;font-family:'Century Gothic';-inkscape-font-specification:'Century Gothic, Bold';font-variant-ligatures:normal;font-variant-caps:normal;font-variant-numeric:normal;font-feature-settings:normal;text-align:start;letter-spacing:0px;word-spacing:0px;writing-mode:lr-tb;text-anchor:start;fill:#0000ff;fill-opacity:1;stroke:none"
       x="546.06348"
       y="219.34671"
       id="text5092"><tspan
         sodipodi:role="line"
         id="tspan5090"
         x="546.06348"
         y="219.34671">pro středoškoláky</tspan></text>
    <g
       id="g5047"
       transform="translate(559.24472,630.21311)">
      <path
         class="cls-22"
         d="m 119.4886,-323.76694 a 1.39,1.39 0 0 1 -1.19,-1.08 20.65,20.65 0 0 0 -38.26,-5.23 1.41,1.41 0 1 1 -2.47,-1.34 23.46,23.46 0 0 1 43.47,5.93 1.42,1.42 0 0 1 -1.06,1.69 1.35,1.35 0 0 1 -0.49,0.03 z"
         id="path87"
         inkscape:connector-curvature="0"
         style="fill:#486afc" />
      <path
         class="cls-22"
         d="m 117.1386,-261.58694 h -0.34 a 23.4,23.4 0 0 1 -20.13,-22.62 1.4104343,1.4104343 0 0 1 2.82,-0.07 20.65,20.65 0 0 0 36.44,12.76 1.41,1.41 0 1 1 2.15,1.81 23.62,23.62 0 0 1 -20.94,8.12 z"
         id="path89"
         inkscape:connector-curvature="0"
         style="fill:#486afc" />
      <path
         class="cls-22"
         d="m 174.2386,-278.56694 a 1.36,1.36 0 0 1 -0.72,-0.31 1.4,1.4 0 0 1 -0.18,-2 20.65,20.65 0 0 0 -18.92,-33.66 1.41,1.41 0 1 1 -0.42,-2.78 23.63,23.63 0 0 1 21.34,8 23.39,23.39 0 0 1 0.16,30.28 1.41,1.41 0 0 1 -1.26,0.47 z"
         id="path91"
         inkscape:connector-curvature="0"
         style="fill:#486afc" />
      <path
         class="cls-22"
         d="m 167.3386,-250.80694 a 1.41,1.41 0 0 1 -0.92,-0.53 1.39,1.39 0 0 1 0.23,-2 20.65,20.65 0 0 0 -11.66,-36.74 1.41,1.41 0 1 1 0.16,-2.81 23.46,23.46 0 0 1 13.24,41.81 1.45,1.45 0 0 1 -1.05,0.27 z"
         id="path93"
         inkscape:connector-curvature="0"
         style="fill:#486afc" />
      <path
         class="cls-22"
         d="m 121.2186,-238.80694 a 23.39,23.39 0 0 1 -19.12,-31 1.41,1.41 0 1 1 2.66,0.93 20.65,20.65 0 0 0 29.53,24.88 1.41,1.41 0 1 1 1.36,2.46 23.57,23.57 0 0 1 -14.43,2.73 z"
         id="path95"
         inkscape:connector-curvature="0"
         style="fill:#486afc" />
      <path
         class="cls-22"
         d="m 146.1186,-264.07694 a 14.7,14.7 0 0 1 -8,-25.48 1.41,1.41 0 0 1 1.89,2.09 11.89,11.89 0 0 0 8.09,20.7 1.41,1.41 0 0 1 0,2.81 13.16,13.16 0 0 1 -1.98,-0.12 z"
         id="path97"
         inkscape:connector-curvature="0"
         style="fill:#486afc" />
      <path
         class="cls-22"
         d="m 93.5586,-298.23694 a 13.65,13.65 0 0 1 -4.11,-1.2 13.82,13.82 0 0 1 -7.45,-16.27 1.38,1.38 0 0 1 1.73,-1 1.4,1.4 0 0 1 1,1.73 11,11 0 0 0 16.64,12.25 1.41,1.41 0 1 1 1.53,2.36 14,14 0 0 1 -9.34,2.13 z"
         id="path99"
         inkscape:connector-curvature="0"
         style="fill:#486afc" />
      <path
         class="cls-22"
         d="m 148.7586,-259.92694 a 1.42,1.42 0 0 1 -1.11,-0.82 10.62,10.62 0 0 1 0.84,-10.21 10.5,10.5 0 0 1 13.07,-3.77 1.41,1.41 0 1 1 -1.15,2.57 7.73,7.73 0 0 0 -10.2,10.25 1.42,1.42 0 0 1 -1.46,2 z"
         id="path101"
         inkscape:connector-curvature="0"
         style="fill:#486afc" />
      <path
         class="cls-22"
         d="m 114.9386,-305.89694 h -0.07 a 1.41,1.41 0 0 1 -1.14,-1.63 7.74,7.74 0 0 0 -12.4,-7.46 1.39,1.39 0 0 1 -2,-0.23 1.41,1.41 0 0 1 0.23,-2 10.65,10.65 0 0 1 10.12,-1.63 10.52,10.52 0 0 1 6.79,11.8 1.41,1.41 0 0 1 -1.53,1.15 z"
         id="path103"
         inkscape:connector-curvature="0"
         style="fill:#486afc" />
      <path
         class="cls-22"
         d="m 88.4586,-317.64694 a 1.41,1.41 0 0 1 -1.11,-0.81 10.67,10.67 0 0 1 0.84,-10.21 10.52,10.52 0 0 1 13.09,-3.77 1.4032195,1.4032195 0 1 1 -1.15,2.56 7.74,7.74 0 0 0 -10.21,10.26 1.41,1.41 0 0 1 -0.7,1.86 1.35,1.35 0 0 1 -0.76,0.11 z"
         id="path105"
         inkscape:connector-curvature="0"
         style="fill:#486afc" />
      <path
         class="cls-22"
         d="m 69.6886,-306.23694 a 1.41,1.41 0 0 1 -1.13,-0.84 14.59,14.59 0 0 1 1.77,-14 14.43,14.43 0 0 1 18.16,-4.37 1.4042525,1.4042525 0 1 1 -1.26,2.51 11.66,11.66 0 0 0 -16.05,14.76 1.4,1.4 0 0 1 -0.79,1.82 1.31,1.31 0 0 1 -0.7,0.12 z"
         id="path107"
         inkscape:connector-curvature="0"
         style="fill:#486afc" />
      <path
         class="cls-22"
         d="m 149.2286,-279.25694 a 1.4,1.4 0 0 1 -0.84,-0.43 1.42,1.42 0 0 1 0.05,-2 14.86,14.86 0 0 0 2.12,-19.11 15,15 0 0 0 -12.89,-6.56 1.41,1.41 0 0 1 -0.1,-2.81 17.71,17.71 0 0 1 12.85,30.53 1.39,1.39 0 0 1 -1.19,0.38 z"
         id="path109"
         inkscape:connector-curvature="0"
         style="fill:#486afc" />
      <path
         class="cls-22"
         d="m 59.8686,-304.07694 a 1.37,1.37 0 0 1 -1,-0.65 23.46,23.46 0 0 1 26.58,-34.9 1.41,1.41 0 0 1 -0.8,2.7 20.65,20.65 0 0 0 -23.39,30.71 1.41,1.41 0 0 1 -0.45,1.94 1.39,1.39 0 0 1 -0.94,0.2 z"
         id="path111"
         inkscape:connector-curvature="0"
         style="fill:#486afc" />
      <path
         class="cls-22"
         d="m 64.8486,-273.96694 a 22.65,22.65 0 0 1 -8.54,-42 1.41,1.41 0 1 1 1.42,2.43 19.83,19.83 0 0 0 16.24,36 1.4,1.4 0 0 1 1.78,0.89 1.42,1.42 0 0 1 -0.89,1.78 22.81,22.81 0 0 1 -10.01,0.9 z"
         id="path113"
         inkscape:connector-curvature="0"
         style="fill:#486afc" />
      <path
         class="cls-22"
         d="m 142.4186,-232.07694 a 22.81,22.81 0 0 1 -14.2,-7.53 1.41,1.41 0 1 1 2.11,-1.86 19.83,19.83 0 0 0 32.23,-22.82 1.4127721,1.4127721 0 0 1 2.46,-1.39 22.94,22.94 0 0 1 2.86,9.64 22.64,22.64 0 0 1 -25.42,24 z"
         id="path115"
         inkscape:connector-curvature="0"
         style="fill:#486afc" />
      <path
         class="cls-22"
         d="m 111.8686,-299.23694 h -0.09 a 1.41,1.41 0 0 1 -1.11,-1.65 16.54,16.54 0 0 1 32.76,3 1.41,1.41 0 1 1 -2.81,0 13.72,13.72 0 0 0 -27.19,-2.46 1.41,1.41 0 0 1 -1.56,1.11 z"
         id="path117"
         inkscape:connector-curvature="0"
         style="fill:#486afc" />
      <path
         class="cls-22"
         d="m 105.5586,-280.07694 a 16.42,16.42 0 0 1 -6.48,-2.28 16.61,16.61 0 0 1 -7.84,-12.34 1.41,1.41 0 1 1 2.8,-0.3 13.72,13.72 0 0 0 25.36,5.65 13.64,13.64 0 0 0 1.94,-5.77 1.41,1.41 0 1 1 2.8,0.27 16.53,16.53 0 0 1 -18.58,14.77 z"
         id="path119"
         inkscape:connector-curvature="0"
         style="fill:#486afc" />
      <path
         class="cls-22"
         d="m 139.2686,-240.07694 a 16.37,16.37 0 0 1 -6.47,-2.28 16.65,16.65 0 0 1 -7.85,-12.33 1.41,1.41 0 1 1 2.8,-0.31 13.72,13.72 0 0 0 27.3,-0.12 1.41,1.41 0 1 1 2.8,0.27 16.53,16.53 0 0 1 -18.58,14.77 z"
         id="path121"
         inkscape:connector-curvature="0"
         style="fill:#486afc" />
      <path
         class="cls-22"
         d="m 84.3486,-270.07694 a 1.48,1.48 0 0 1 -0.41,-0.12 1.41,1.41 0 0 1 -0.69,-1.87 13.82,13.82 0 0 0 -0.29,-12.13 13.73,13.73 0 0 0 -23.16,-1.88 1.41,1.41 0 1 1 -2.26,-1.68 16.68,16.68 0 0 1 5.59,-4.77 16.54,16.54 0 0 1 22.68,21.6 1.43,1.43 0 0 1 -1.46,0.85 z"
         id="path123"
         inkscape:connector-curvature="0"
         style="fill:#486afc" />
      <path
         class="cls-22"
         d="m 151.3386,-301.29694 a 1.41,1.41 0 0 1 -1,-2.24 c 0.72,-1 3,-4.69 1.43,-12.27 a 19.94,19.94 0 0 0 -23.37,-15.53 20.08,20.08 0 0 0 -8,3.61 1.4030057,1.4030057 0 1 1 -1.69,-2.24 22.84,22.84 0 0 1 9.17,-4.13 22.76,22.76 0 0 1 26.68,17.73 c 1.71,8.49 -0.79,13 -1.94,14.52 a 1.4,1.4 0 0 1 -1.28,0.55 z"
         id="path125"
         inkscape:connector-curvature="0"
         style="fill:#486afc" />
      <path
         class="cls-22"
         d="m 83.9886,-258.85694 a 22.38,22.38 0 0 1 -18.64,-15.9 1.41,1.41 0 0 1 2.7,-0.79 19.63,19.63 0 0 0 33,8 1.41,1.41 0 1 1 2,1.94 22.48,22.48 0 0 1 -16.87,6.94 c -0.7,-0.04 -1.45,-0.1 -2.19,-0.19 z"
         id="path127"
         inkscape:connector-curvature="0"
         style="fill:#486afc" />
      <path
         class="cls-22"
         d="m 143.3386,-211.37694 h -0.19 l -10.53,-2.84 a 1.41,1.41 0 0 1 -0.58,-2.4 11.4,11.4 0 0 0 3.16,-9.56 37.48,37.48 0 0 0 -2.32,-9.64 1.41,1.41 0 0 1 2.56,-1.18 40.25,40.25 0 0 1 2.55,10.44 14.27,14.27 0 0 1 -2.5,10.2 l 7.55,2 a 114.7,114.7 0 0 0 8.33,-10.8 c 4.14,-6.15 9.15,-16.71 9.2,-16.82 a 1.41,1.41 0 1 1 2.54,1.21 161.83,161.83 0 0 1 -9.41,17.19 113.52,113.52 0 0 1 -9.14,11.75 1.45,1.45 0 0 1 -1.22,0.45 z"
         id="path129"
         inkscape:connector-curvature="0"
         style="fill:#486afc" />
    </g>
    <g
       id="g5098"
       transform="translate(-636.763,672.13873)">
      <path
         class="cls-22"
         d="m 726.7786,-201.17694 -63.29,-59.52 a 1.4,1.4 0 0 1 -0.06,-2 l 74,-78.72 a 1.42,1.42 0 0 1 2,-0.06 l 52.55,49.4 a 1.42,1.42 0 0 1 0.06,2 l -10,10.63 9.74,9.16 a 1.42,1.42 0 0 1 0.06,2 l -63.07,67.06 a 1.4,1.4 0 0 1 -1.99,0.05 z m -60.34,-60.6 61.24,57.59 61.14,-65 -9.73,-9.15 a 1.4,1.4 0 0 1 -0.06,-2 l 10,-10.63 -50.47,-47.48 z"
         id="path131"
         inkscape:connector-curvature="0"
         style="fill:#486afc" />
      <path
         class="cls-22"
         d="m 766.7586,-289.95694 -20.21,-19 a 1.4,1.4 0 1 1 1.92,-2 l 20.22,19 a 1.42,1.42 0 0 1 0.06,2 1.4,1.4 0 0 1 -1.99,0 z"
         id="path133"
         inkscape:connector-curvature="0"
         style="fill:#486afc" />
      <path
         class="cls-22"
         d="m 774.9686,-269.87694 -34.59,-32.53 a 1.4043593,1.4043593 0 0 1 1.92,-2.05 l 34.6,32.53 a 1.42,1.42 0 0 1 0.06,2 1.4,1.4 0 0 1 -1.99,0.05 z"
         id="path135"
         inkscape:connector-curvature="0"
         style="fill:#486afc" />
      <path
         class="cls-22"
         d="m 768.7986,-263.31694 -34.59,-32.53 a 1.4,1.4 0 0 1 -0.06,-2 1.42,1.42 0 0 1 2,-0.06 l 34.59,32.53 a 1.42,1.42 0 0 1 0.06,2 1.4,1.4 0 0 1 -2,0.06 z"
         id="path137"
         inkscape:connector-curvature="0"
         style="fill:#486afc" />
      <path
         class="cls-22"
         d="m 762.6286,-256.75694 -34.59,-32.53 a 1.41,1.41 0 0 1 1.93,-2.05 l 34.59,32.53 a 1.42,1.42 0 0 1 0.06,2 1.4,1.4 0 0 1 -1.99,0.05 z"
         id="path139"
         inkscape:connector-curvature="0"
         style="fill:#486afc" />
      <path
         class="cls-22"
         d="m 756.4586,-250.19694 -34.59,-32.53 a 1.41,1.41 0 0 1 1.93,-2 l 34.59,32.53 a 1.41,1.41 0 1 1 -1.93,2 z"
         id="path141"
         inkscape:connector-curvature="0"
         style="fill:#486afc" />
      <path
         class="cls-22"
         d="m 750.2886,-243.63694 -34.59,-32.53 a 1.41,1.41 0 0 1 1.93,-2 l 34.59,32.53 a 1.41,1.41 0 1 1 -1.93,2 z"
         id="path143"
         inkscape:connector-curvature="0"
         style="fill:#486afc" />
      <path
         class="cls-22"
         d="m 789.8486,-268.23694 a 1.37,1.37 0 0 1 -0.44,-1 l 0.2,-21.78 a 1.41,1.41 0 1 1 2.81,0 l -0.2,21.78 a 1.41,1.41 0 0 1 -2.37,1 z"
         id="path145"
         inkscape:connector-curvature="0"
         style="fill:#486afc" />
      <path
         class="cls-22"
         d="m 699.1286,-298.59694 a 1.39,1.39 0 0 1 -0.24,-1.74 l 23.67,-39.85 a 1.41,1.41 0 0 1 1.91,-0.5 l 9,5.13 a 1.4040744,1.4040744 0 1 1 -1.39,2.44 l -7.82,-4.44 -22.92,38.65 a 1.42,1.42 0 0 1 -1.93,0.5 1.64,1.64 0 0 1 -0.28,-0.19 z"
         id="path147"
         inkscape:connector-curvature="0"
         style="fill:#486afc" />
      <path
         class="cls-22"
         d="m 695.0686,-294.27694 a 1.43,1.43 0 0 1 -0.35,-1.54 l 15.84,-40.79 a 1.4,1.4 0 0 1 0.76,-0.79 1.38,1.38 0 0 1 1.09,0 l 7.9,3.3 a 1.41,1.41 0 0 1 -1.08,2.6 l -6.57,-2.75 -15.31,39.45 a 1.39,1.39 0 0 1 -1.82,0.8 1.27,1.27 0 0 1 -0.46,-0.28 z"
         id="path149"
         inkscape:connector-curvature="0"
         style="fill:#486afc" />
      <path
         class="cls-22"
         d="m 762.1186,-316.27694 a 1.41,1.41 0 0 1 1.52,-2.32 l 29.55,12.73 a 1.41,1.41 0 0 1 0.71,1.9 l -3.27,6.9 a 1.41,1.41 0 1 1 -2.54,-1.21 l 2.65,-5.58 -28.18,-12.16 a 1.43,1.43 0 0 1 -0.44,-0.26 z"
         id="path151"
         inkscape:connector-curvature="0"
         style="fill:#486afc" />
      <path
         class="cls-22"
         d="m 789.9686,-281.77694 a 1.39,1.39 0 0 1 -0.23,-1.75 l 5.4,-8.86 -20.91,-12.55 a 1.41,1.41 0 1 1 1.45,-2.41 l 22.12,13.27 a 1.44,1.44 0 0 1 0.64,0.87 1.43,1.43 0 0 1 -0.16,1.07 l -6.14,10.06 a 1.39,1.39 0 0 1 -1.93,0.47 1.08,1.08 0 0 1 -0.24,-0.17 z"
         id="path153"
         inkscape:connector-curvature="0"
         style="fill:#486afc" />
      <path
         class="cls-22"
         d="m 731.6186,-206.32694 a 1.41,1.41 0 0 1 -0.3,-1.63 1.39,1.39 0 0 1 1.87,-0.66 l 7.88,3.75 26.19,-41.37 a 1.41,1.41 0 1 1 2.38,1.5 l -26.86,42.42 a 1.39,1.39 0 0 1 -1.79,0.52 l -9,-4.28 a 1.78,1.78 0 0 1 -0.37,-0.25 z"
         id="path155"
         inkscape:connector-curvature="0"
         style="fill:#486afc" />
      <path
         class="cls-22"
         d="m 744.5586,-208.26694 a 1.41,1.41 0 0 1 1.47,-2.34 l 6.53,2.53 16.37,-39.8 a 1.4104077,1.4104077 0 1 1 2.61,1.07 l -16.9,41.08 a 1.41,1.41 0 0 1 -1.81,0.77 l -7.79,-3 a 1.56,1.56 0 0 1 -0.48,-0.31 z"
         id="path157"
         inkscape:connector-curvature="0"
         style="fill:#486afc" />
      <path
         class="cls-22"
         d="m 666.1086,-246.36694 a 1.37,1.37 0 0 1 -0.39,-0.64 1.42,1.42 0 0 1 0.15,-1.12 l 4.69,-7.72 a 1.41,1.41 0 1 1 2.41,1.46 l -3.91,6.43 27.09,13.88 a 1.41,1.41 0 0 1 -1.28,2.51 l -28.44,-14.6 a 1.24,1.24 0 0 1 -0.32,-0.2 z"
         id="path159"
         inkscape:connector-curvature="0"
         style="fill:#486afc" />
      <path
         class="cls-22"
         d="m 671.4786,-235.98694 a 1.41,1.41 0 0 1 -0.34,-1.56 l 2.59,-6.29 a 1.4104077,1.4104077 0 0 1 2.61,1.07 l -2,4.94 29.39,10.95 a 1.4068493,1.4068493 0 1 1 -1,2.63 l -30.76,-11.45 a 1.49,1.49 0 0 1 -0.49,-0.29 z"
         id="path161"
         inkscape:connector-curvature="0"
         style="fill:#486afc" />
      <circle
         class="cls-23"
         cx="705.41858"
         cy="-288.30695"
         r="4.9899998"
         id="circle163"
         style="fill:#ffe040" />
      <circle
         class="cls-23"
         cx="734.35864"
         cy="-319.07693"
         r="4.9899998"
         id="circle165"
         style="fill:#ffe040" />
      <circle
         class="cls-22"
         cx="715.0686"
         cy="-298.55695"
         r="4.9899998"
         id="circle167"
         style="fill:#486afc" />
      <circle
         class="cls-24"
         cx="724.71863"
         cy="-308.81696"
         r="4.9899998"
         id="circle169"
         style="opacity:0.88999999;fill:#8198ef" />
    </g>
    <g
       id="g5023"
       transform="translate(105.42766,369.53719)">
      <path
         class="cls-22"
         d="m 43.1986,-221.35694 a 38.74,38.74 0 0 0 -31.49,61.33 c 0,0 0,0.1 0.07,0.14 11.07,14.31 11.74,27.17 11.75,27.3 a 1.4,1.4 0 0 0 1.4,1.35 h 0.06 a 1.41,1.41 0 0 0 1.35,-1.46 c 0,-0.43 -0.41,-8.11 -5.61,-18.34 a 67,67 0 0 0 -6.72,-10.57 l 0.1,0.1 a 35.95,35.95 0 1 1 56.91,1.66 h 0.11 a 1.42,1.42 0 0 0 -0.37,0.32 60.81,60.81 0 0 0 -5.83,9 c -5.49,10.45 -4.9,17.62 -4.86,18 a 1.4,1.4 0 0 0 1.4,1.27 h 0.13 a 1.4,1.4 0 0 0 1.27,-1.53 c 0,-0.11 -0.84,-10.83 10.14,-25 v -0.07 a 38.74,38.74 0 0 0 -29.84,-63.48 z"
         id="path171"
         inkscape:connector-curvature="0"
         style="fill:#486afc" />
      <path
         class="cls-22"
         d="m 65.4986,-123.14694 h -44.59 a 2.81,2.81 0 0 1 -2.82,-2.81 v -4.58 a 2.81,2.81 0 0 1 2.82,-2.81 h 44.59 a 2.81,2.81 0 0 1 2.81,2.81 v 4.58 a 2.81,2.81 0 0 1 -2.81,2.81 z m -44.59,-7.39 v 4.58 h 44.59 v -4.58 z"
         id="path173"
         inkscape:connector-curvature="0"
         style="fill:#486afc" />
      <path
         class="cls-22"
         d="m 64.2686,-115.75694 h -42.14 a 2.82,2.82 0 0 1 -2.81,-2.82 v -4.57 a 2.81,2.81 0 0 1 2.81,-2.81 h 42.14 a 2.82,2.82 0 0 1 2.82,2.81 v 4.57 a 2.83,2.83 0 0 1 -2.82,2.82 z m -42.14,-7.39 v 4.57 h 42.14 v -4.57 z"
         id="path175"
         inkscape:connector-curvature="0"
         style="fill:#486afc" />
      <path
         class="cls-22"
         d="m 62.5586,-108.37694 h -38.77 a 2.81,2.81 0 0 1 -2.82,-2.81 v -4.57 a 2.82,2.82 0 0 1 2.82,-2.82 h 38.77 a 2.81,2.81 0 0 1 2.81,2.82 v 4.57 a 2.81,2.81 0 0 1 -2.81,2.81 z m -38.77,-7.38 v 4.57 h 38.77 v -4.57 z"
         id="path177"
         inkscape:connector-curvature="0"
         style="fill:#486afc" />
      <path
         class="cls-22"
         d="m 13.5586,-177.90694 a 1.4,1.4 0 0 1 -1.4,-1.29 c 0,-0.41 -0.75,-10.11 6.68,-21.25 7.43,-11.14 17.2,-13.68 17.61,-13.78 a 1.41,1.41 0 1 1 0.67,2.73 c -0.08,0 -9.12,2.39 -15.94,12.62 -6.82,10.23 -6.23,19.36 -6.22,19.45 a 1.4,1.4 0 0 1 -1.29,1.51 z"
         id="path179"
         inkscape:connector-curvature="0"
         style="fill:#486afc" />
      <path
         class="cls-22"
         d="m 51.9686,-97.86694 h -17.53 a 1.39,1.39 0 0 1 -1.36,-1 l -2.81,-10.51 a 1.4,1.4 0 0 1 1.35,-1.77 h 23.16 a 1.41,1.41 0 0 1 1.12,0.55 1.44,1.44 0 0 1 0.24,1.22 l -2.81,10.51 a 1.41,1.41 0 0 1 -1.36,1 z m -16.41,-2.81 h 15.37 l 2.06,-7.7 h -19.53 z"
         id="path181"
         inkscape:connector-curvature="0"
         style="fill:#486afc" />
      <path
         class="cls-22"
         d="m 37.9086,-130.53694 a 1.41,1.41 0 0 1 -1.38,-1.12 l -6.28,-30.6 a 1.39,1.39 0 0 1 1.11,-1.67 6.41,6.41 0 0 0 0.48,-0.69 c 0.54,-0.85 1.27,-2 2.63,-2 a 2.91,2.91 0 0 1 2.55,2.08 3.76,3.76 0 0 0 0.27,0.53 c 0.1,-0.13 0.28,-0.43 0.4,-0.63 a 3.33,3.33 0 0 1 2.76,-2 3.06,3.06 0 0 1 2.7,2.2 1.42,1.42 0 0 1 0.08,0.18 l 0.24,-0.37 c 0.54,-0.85 1.27,-2 2.63,-2 a 2.91,2.91 0 0 1 2.55,2.08 5.24,5.24 0 0 0 0.27,0.53 c 0.1,-0.13 0.28,-0.43 0.4,-0.63 a 3.33,3.33 0 0 1 2.76,-2 3.08,3.08 0 0 1 2.71,2.2 4.66,4.66 0 0 0 0.24,0.5 1.4,1.4 0 0 1 0.84,0.49 1.42,1.42 0 0 1 0.29,1.17 l -6.25,30.61 a 1.42,1.42 0 0 1 -1.66,1.09 1.39,1.39 0 0 1 -1.1,-1.66 l 6,-29.54 a 4.6,4.6 0 0 1 -1,-1.47 l -0.21,-0.44 c -0.07,0.14 -0.2,0.35 -0.3,0.51 a 3.41,3.41 0 0 1 -2.85,2 3.11,3.11 0 0 1 -2.77,-2.22 v -0.08 c -0.08,0.11 -0.15,0.23 -0.21,0.32 -0.53,0.83 -1.25,2 -2.59,2 a 2.94,2.94 0 0 1 -2.66,-2.1 l -0.21,-0.44 -0.3,0.51 a 3.41,3.41 0 0 1 -2.86,2 3.1,3.1 0 0 1 -2.76,-2.21 v -0.09 c -0.08,0.11 -0.15,0.23 -0.21,0.32 a 6.63,6.63 0 0 1 -1,1.32 l 6.08,29.57 a 1.41,1.41 0 0 1 -1.1,1.66 1.33,1.33 0 0 1 -0.29,0.09 z"
         id="path183"
         inkscape:connector-curvature="0"
         style="fill:#486afc" />
      <path
         class="cls-23"
         d="m 81.1386,-139.81694 a 4.92,4.92 0 0 1 -3.45,-8.44 l 0.25,-0.25 a 4.9285799,4.9285799 0 1 1 7,6.94 l -0.34,0.35 a 4.93,4.93 0 0 1 -3.46,1.4 z m -76.09,-0.22 a 4.91,4.91 0 0 1 -3.48,-1.44 l -0.32,-0.32 a 4.93,4.93 0 1 1 7,-6.92 l 0.27,0.27 a 4.92,4.92 0 0 1 -3.48,8.41 z m 87.93,-17.21 a 4.92,4.92 0 0 1 -4.54,-6.83 l 0.16,-0.37 a 4.9242309,4.9242309 0 0 1 9.09,3.79 l -0.16,0.39 a 4.92,4.92 0 0 1 -4.55,3.02 z m -99.68,-0.29 a 4.93,4.93 0 0 1 -4.54,-3 l -0.18,-0.43 a 4.93,4.93 0 0 1 9.12,-3.73 l 0.14,0.33 a 4.92,4.92 0 0 1 -2.63,6.45 4.77,4.77 0 0 1 -1.91,0.38 z m 103.94,-20.35 v 0 a 4.92,4.92 0 0 1 -4.87,-5 v -0.58 a 4.93,4.93 0 1 1 9.85,0 v 0.67 a 4.91,4.91 0 0 1 -4.98,4.91 z m -108.07,-0.36 a 4.88,4.88 0 0 1 -4.93,-4.87 v -0.49 a 4.93,4.93 0 0 1 4.93,-4.85 h 0.06 a 4.92,4.92 0 0 1 4.86,5 v 0.24 a 5,5 0 0 1 -4.92,4.97 z m 104.06,-20.54 a 4.92,4.92 0 0 1 -4.56,-3.06 l -0.14,-0.33 a 4.9227482,4.9227482 0 1 1 9.07,-3.83 l 0.18,0.43 a 4.94,4.94 0 0 1 -2.69,6.43 5.08,5.08 0 0 1 -1.86,0.36 z m -100,-0.09 a 4.93,4.93 0 0 1 -4.55,-6.82 l 0.17,-0.39 a 4.93,4.93 0 1 1 9.09,3.8 l -0.16,0.38 a 4.93,4.93 0 0 1 -4.56,3.03 z m 88.33,-17.47 a 4.89,4.89 0 0 1 -3.51,-1.47 l -0.24,-0.24 a 4.93,4.93 0 0 1 6.91,-7 l 0.34,0.35 a 4.93,4.93 0 0 1 -3.5,8.38 z m -76.68,-0.07 a 4.93,4.93 0 0 1 -3.49,-8.4 l 0.33,-0.33 a 4.92,4.92 0 1 1 6.91,7 l -0.26,0.26 a 4.89,4.89 0 0 1 -3.47,1.47 z m 59.21,-11.73 a 4.92,4.92 0 0 1 -1.9,-0.38 l -0.35,-0.15 a 4.9220169,4.9220169 0 1 1 3.73,-9.11 l 0.43,0.18 a 4.92,4.92 0 0 1 -1.91,9.46 z m -41.72,0 a 4.92,4.92 0 0 1 -1.89,-9.47 l 0.41,-0.17 a 4.9247538,4.9247538 0 1 1 3.72,9.12 l -0.36,0.15 a 5,5 0 0 1 -1.86,0.33 z m 21.07,-4.15 h -0.42 a 4.93,4.93 0 0 1 0,-9.85 h 0.46 a 4.93,4.93 0 0 1 0,9.85 z"
         id="path185"
         inkscape:connector-curvature="0"
         style="fill:#ffe040" />
    </g>
    <g
       id="g5118"
       transform="translate(-494.71928,316.44293)">
      <path
         class="cls-22"
         d="m 850.9086,-64.22694 a 70,70 0 1 1 70,-70 70.08,70.08 0 0 1 -70,70 z m 0,-137.19 a 67.19,67.19 0 1 0 67.19,67.19 67.26,67.26 0 0 0 -67.19,-67.19 z"
         id="path187"
         inkscape:connector-curvature="0"
         style="fill:#486afc" />
      <path
         class="cls-22"
         d="m 850.9086,-74.74694 a 59.48,59.48 0 1 1 59.48,-59.48 59.54,59.54 0 0 1 -59.48,59.48 z m 0,-116.15 a 56.67,56.67 0 1 0 56.65,56.67 56.73,56.73 0 0 0 -56.65,-56.67 z"
         id="path189"
         inkscape:connector-curvature="0"
         style="fill:#486afc" />
      <path
         class="cls-22"
         d="m 850.9086,-124.01694 a 10.21,10.21 0 1 1 10.21,-10.21 10.22,10.22 0 0 1 -10.21,10.21 z m 0,-17.61 a 7.4,7.4 0 1 0 7.4,7.4 7.4,7.4 0 0 0 -7.4,-7.4 z"
         id="path191"
         inkscape:connector-curvature="0"
         style="fill:#486afc" />
      <path
         class="cls-22"
         d="m 858.1986,-139.65694 a 1.41,1.41 0 0 1 -1,-2.43 l 23,-21.71 a 1.41,1.41 0 0 1 1.93,2.05 l -23,21.7 a 1.37,1.37 0 0 1 -0.93,0.39 z"
         id="path193"
         inkscape:connector-curvature="0"
         style="fill:#486afc" />
      <path
         class="cls-22"
         d="m 866.1586,-116.54694 a 1.42,1.42 0 0 1 -1,-0.44 l -9,-9.51 a 1.4,1.4 0 1 1 2,-1.93 l 9,9.51 a 1.41,1.41 0 0 1 -1,2.37 z"
         id="path195"
         inkscape:connector-curvature="0"
         style="fill:#486afc" />
      <circle
         class="cls-23"
         cx="850.90857"
         cy="-134.19693"
         r="4.9899998"
         id="circle197"
         style="fill:#ffe040" />
      <path
         class="cls-22"
         d="m 850.9086,-170.07694 a 1.41,1.41 0 0 1 -1.41,-1.41 v -11 a 1.41,1.41 0 0 1 2.82,0 v 11 a 1.41,1.41 0 0 1 -1.41,1.41 z"
         id="path199"
         inkscape:connector-curvature="0"
         style="fill:#486afc" />
      <path
         class="cls-22"
         d="m 832.2486,-165.07694 a 1.4,1.4 0 0 1 -1.22,-0.71 l -5.51,-9.54 a 1.41,1.41 0 0 1 2.44,-1.41 l 5.51,9.55 a 1.41,1.41 0 0 1 -0.51,1.92 1.43,1.43 0 0 1 -0.71,0.19 z"
         id="path201"
         inkscape:connector-curvature="0"
         style="fill:#486afc" />
      <path
         class="cls-22"
         d="m 818.5586,-151.44694 a 1.37,1.37 0 0 1 -0.7,-0.19 l -9.55,-5.51 a 1.41,1.41 0 0 1 1.41,-2.44 l 9.55,5.51 a 1.41,1.41 0 0 1 -0.71,2.63 z"
         id="path203"
         inkscape:connector-curvature="0"
         style="fill:#486afc" />
      <path
         class="cls-22"
         d="m 813.5586,-132.78694 h -11 a 1.41,1.41 0 0 1 0,-2.82 h 11 a 1.41,1.41 0 1 1 0,2.82 z"
         id="path205"
         inkscape:connector-curvature="0"
         style="fill:#486afc" />
      <path
         class="cls-22"
         d="m 809.0486,-108.61694 a 1.41,1.41 0 0 1 -0.71,-2.63 l 9.55,-5.51 a 1.41,1.41 0 0 1 1.41,2.44 l -9.55,5.51 a 1.37,1.37 0 0 1 -0.7,0.19 z"
         id="path207"
         inkscape:connector-curvature="0"
         style="fill:#486afc" />
      <path
         class="cls-22"
         d="m 826.7386,-90.92694 a 1.37,1.37 0 0 1 -0.7,-0.19 1.4,1.4 0 0 1 -0.48,-1.96 l 5.51,-9.54 a 1.41,1.41 0 1 1 2.44,1.4 l -5.51,9.55 a 1.4,1.4 0 0 1 -1.26,0.74 z"
         id="path209"
         inkscape:connector-curvature="0"
         style="fill:#486afc" />
      <path
         class="cls-22"
         d="m 850.9086,-84.44694 a 1.41,1.41 0 0 1 -1.41,-1.41 v -11 a 1.41,1.41 0 0 1 2.82,0 v 11 a 1.41,1.41 0 0 1 -1.41,1.41 z"
         id="path211"
         inkscape:connector-curvature="0"
         style="fill:#486afc" />
      <path
         class="cls-22"
         d="m 875.0786,-90.92694 a 1.41,1.41 0 0 1 -1.22,-0.7 l -5.51,-9.55 a 1.41,1.41 0 0 1 2.44,-1.4 l 5.51,9.54 a 1.41,1.41 0 0 1 -0.51,1.92 1.43,1.43 0 0 1 -0.71,0.19 z"
         id="path213"
         inkscape:connector-curvature="0"
         style="fill:#486afc" />
      <path
         class="cls-22"
         d="m 892.7686,-108.61694 a 1.39,1.39 0 0 1 -0.7,-0.19 l -9.54,-5.51 a 1.41,1.41 0 1 1 1.4,-2.44 l 9.55,5.51 a 1.41,1.41 0 0 1 -0.71,2.63 z"
         id="path215"
         inkscape:connector-curvature="0"
         style="fill:#486afc" />
      <path
         class="cls-22"
         d="m 899.2486,-132.78694 h -11 a 1.41,1.41 0 0 1 0,-2.82 h 11 a 1.41,1.41 0 0 1 0,2.82 z"
         id="path217"
         inkscape:connector-curvature="0"
         style="fill:#486afc" />
      <path
         class="cls-22"
         d="m 883.2286,-151.44694 a 1.41,1.41 0 0 1 -0.7,-2.63 l 9.54,-5.51 a 1.41,1.41 0 0 1 1.41,2.44 l -9.55,5.51 a 1.37,1.37 0 0 1 -0.7,0.19 z"
         id="path219"
         inkscape:connector-curvature="0"
         style="fill:#486afc" />
      <path
         class="cls-22"
         d="m 869.5586,-165.07694 a 1.37,1.37 0 0 1 -0.7,-0.19 1.4,1.4 0 0 1 -0.52,-1.92 l 5.51,-9.55 a 1.41,1.41 0 0 1 2.44,1.41 l -5.51,9.54 a 1.39,1.39 0 0 1 -1.22,0.71 z"
         id="path221"
         inkscape:connector-curvature="0"
         style="fill:#486afc" />
    </g>
    <g
       id="g4995"
       transform="translate(970.24204,599.6604)">
      <path
         class="cls-22"
         d="m -477.0514,-151.00694 a 70.35,70.35 0 0 1 0,-140.7 71.28,71.28 0 0 1 12.2,1.06 1.4114266,1.4114266 0 0 1 -0.49,2.78 67.54,67.54 0 1 0 54.76,78.47 1.42,1.42 0 0 1 1.64,-1.14 1.41,1.41 0 0 1 1.13,1.64 70.29,70.29 0 0 1 -69.24,57.89 z"
         id="path223"
         inkscape:connector-curvature="0"
         style="fill:#486afc" />
      <path
         class="cls-22"
         d="m -408.1014,-219.94694 a 1.41,1.41 0 0 1 -1.41,-1.41 67.55,67.55 0 0 0 -41.58,-62.35 1.41,1.41 0 0 1 1.08,-2.6 70.36,70.36 0 0 1 43.31,65 1.41,1.41 0 0 1 -1.4,1.36 z"
         id="path225"
         inkscape:connector-curvature="0"
         style="fill:#486afc" />
      <path
         class="cls-22"
         d="m -472.1014,-163.07694 a 1.41,1.41 0 0 1 -0.12,-2.81 55.69,55.69 0 1 0 -47.41,-91.37 1.41,1.41 0 0 1 -2.15,-1.81 58.51,58.51 0 1 1 49.8,96 z"
         id="path227"
         inkscape:connector-curvature="0"
         style="fill:#486afc" />
      <path
         class="cls-22"
         d="m -487.1514,-163.74694 a 1.15,1.15 0 0 1 -0.26,0 58.55,58.55 0 0 1 -38.43,-25.33 1.410328,1.410328 0 0 1 2.35,-1.56 55.64,55.64 0 0 0 36.58,24.08 1.41,1.41 0 0 1 -0.24,2.8 z"
         id="path229"
         inkscape:connector-curvature="0"
         style="fill:#486afc" />
      <path
         class="cls-22"
         d="m -530.9314,-201.07694 a 1.42,1.42 0 0 1 -1.33,-0.95 58.55,58.55 0 0 1 3.36,-46.45 1.4044661,1.4044661 0 1 1 2.49,1.3 55.68,55.68 0 0 0 -3.19,44.22 1.41,1.41 0 0 1 -0.84,1.88 1.55,1.55 0 0 1 -0.49,0 z"
         id="path231"
         inkscape:connector-curvature="0"
         style="fill:#486afc" />
      <path
         class="cls-22"
         d="m -477.0514,-178.17694 a 43.18,43.18 0 1 1 41.08,-56.46 1.4025423,1.4025423 0 1 1 -2.67,0.86 40.36,40.36 0 1 0 2,12.42 1.41,1.41 0 1 1 2.81,0 43.23,43.23 0 0 1 -43.22,43.18 z"
         id="path233"
         inkscape:connector-curvature="0"
         style="fill:#486afc" />
      <path
         class="cls-22"
         d="m -477.0514,-191.07694 a 30.55,30.55 0 0 1 -30.26,-29.18 1.4108862,1.4108862 0 0 1 2.82,-0.1 27.44,27.44 0 1 0 3.67,-14.72 1.4047242,1.4047242 0 0 1 -2.43,-1.41 30.28,30.28 0 1 1 26.2,45.41 z"
         id="path235"
         inkscape:connector-curvature="0"
         style="fill:#486afc" />
      <path
         class="cls-22"
         d="m -477.5914,-204.94694 a 16.52,16.52 0 1 1 10.44,-29.32 1.41,1.41 0 0 1 0.2,2 1.39,1.39 0 0 1 -2,0.2 13.75,13.75 0 1 0 4.86,8.42 1.41,1.41 0 0 1 2.78,-0.45 16.72,16.72 0 0 1 0.22,2.65 16.54,16.54 0 0 1 -16.5,16.5 z"
         id="path237"
         inkscape:connector-curvature="0"
         style="fill:#486afc" />
      <path
         class="cls-22"
         d="m -518.8214,-222.67694 h -0.09 l -15.21,-1 a 1.41,1.41 0 0 1 0.2,-2.81 l 15.2,1 a 1.41,1.41 0 0 1 -0.1,2.81 z"
         id="path239"
         inkscape:connector-curvature="0"
         style="fill:#486afc" />
      <path
         class="cls-22"
         d="m -461.2614,-258.59694 a 1.37,1.37 0 0 1 -0.61,-0.15 1.4,1.4 0 0 1 -0.65,-1.88 l 6.72,-13.76 a 1.41,1.41 0 1 1 2.53,1.23 l -6.72,13.77 a 1.42,1.42 0 0 1 -1.27,0.79 z"
         id="path241"
         inkscape:connector-curvature="0"
         style="fill:#486afc" />
      <path
         class="cls-22"
         d="m -512.8114,-161.07694 a 1.41,1.41 0 0 1 -1.23,-2.09 l 5.67,-10.3 a 1.41,1.41 0 0 1 2.47,1.36 l -5.67,10.3 a 1.43,1.43 0 0 1 -1.24,0.73 z"
         id="path243"
         inkscape:connector-curvature="0"
         style="fill:#486afc" />
      <path
         class="cls-22"
         d="m -413.7114,-192.73694 a 1.41,1.41 0 0 1 -0.6,-0.13 l -10.76,-5.05 a 1.41,1.41 0 1 1 1.19,-2.55 l 10.76,5 a 1.41,1.41 0 0 1 -0.59,2.68 z"
         id="path245"
         inkscape:connector-curvature="0"
         style="fill:#486afc" />
      <path
         class="cls-22"
         d="m -441.8914,-264.79694 a 1.38,1.38 0 0 1 -0.87,-0.31 1.4,1.4 0 0 1 -0.23,-2 l 7.41,-9.38 a 1.41,1.41 0 0 1 2.21,1.74 l -7.41,9.38 a 1.42,1.42 0 0 1 -1.11,0.57 z"
         id="path247"
         inkscape:connector-curvature="0"
         style="fill:#486afc" />
      <path
         class="cls-22"
         d="m -490.8514,-246.38694 a 1.39,1.39 0 0 1 -1.2,-0.67 l -6.26,-10.13 a 1.41,1.41 0 0 1 2.4,-1.48 l 6.25,10.13 a 1.41,1.41 0 0 1 -1.19,2.15 z"
         id="path249"
         inkscape:connector-curvature="0"
         style="fill:#486afc" />
      <path
         class="cls-22"
         d="m -488.8514,-193.63694 a 1.34,1.34 0 0 1 -0.69,-0.18 1.41,1.41 0 0 1 -0.53,-1.92 l 6.8,-12 a 1.41,1.41 0 0 1 2.45,1.39 l -6.8,12 a 1.41,1.41 0 0 1 -1.23,0.71 z"
         id="path251"
         inkscape:connector-curvature="0"
         style="fill:#486afc" />
      <circle
         class="cls-23"
         cx="-477.59143"
         cy="-221.46693"
         r="4.9899998"
         id="circle253"
         style="fill:#ffe040" />
      <circle
         class="cls-24"
         cx="-429.33142"
         cy="-227.80693"
         r="4.9899998"
         id="circle255"
         style="opacity:0.88999999;fill:#8198ef" />
    </g>
    <g
       id="g5013"
       transform="translate(431.31981,581.86342)">
      <path
         class="cls-22"
         d="m -87.4414,-199.43694 h -84.46 a 5.42,5.42 0 0 1 -5.42,-5.42 v -61.62 a 5.42,5.42 0 0 1 5.42,-5.41 h 84.46 a 5.42,5.42 0 0 1 5.42,5.41 v 61.62 a 5.42,5.42 0 0 1 -5.42,5.42 z m -84.46,-69.64 a 2.61,2.61 0 0 0 -2.6,2.6 v 61.62 a 2.6,2.6 0 0 0 2.6,2.6 h 84.46 a 2.59,2.59 0 0 0 2.6,-2.6 v -61.62 a 2.6,2.6 0 0 0 -2.6,-2.6 z"
         id="path257"
         inkscape:connector-curvature="0"
         style="fill:#486afc" />
      <path
         class="cls-22"
         d="m -60.7714,-173.30694 h -137.53 a 1.41,1.41 0 0 1 -1,-2.38 l 24.62,-26.12 a 1.4,1.4 0 0 1 2,1.92 l -22.36,23.81 h 131 l -22.4,-23.81 a 1.4043593,1.4043593 0 0 1 2.05,-1.92 l 24.62,26.12 a 1.41,1.41 0 0 1 -1,2.38 z"
         id="path259"
         inkscape:connector-curvature="0"
         style="fill:#486afc" />
      <path
         class="cls-22"
         d="m -60.7714,-166.89694 h -137.53 a 1.41,1.41 0 1 1 0,-2.81 h 137.53 a 1.41,1.41 0 1 1 0,2.81 z"
         id="path261"
         inkscape:connector-curvature="0"
         style="fill:#486afc" />
      <path
         class="cls-22"
         d="m -91.6514,-204.88694 h -77.91 a 1.41,1.41 0 1 1 0,-2.82 h 77.91 a 1.41,1.41 0 1 1 0,2.82 z"
         id="path263"
         inkscape:connector-curvature="0"
         style="fill:#486afc" />
      <path
         class="cls-22"
         d="m -114.7514,-181.49694 h -32.83 a 1.41,1.41 0 0 1 -1.27,-2 l 5.16,-10.88 a 1.4,1.4 0 0 1 1.27,-0.8 h 22.75 a 1.4,1.4 0 0 1 1.28,0.83 l 4.95,10.86 a 1.41,1.41 0 0 1 -1.28,2 z m -30.6,-2.82 h 28.42 l -3.65,-8.06 h -21 z"
         id="path265"
         inkscape:connector-curvature="0"
         style="fill:#486afc" />
      <circle
         class="cls-23"
         cx="-161.99139"
         cy="-254.58694"
         r="4.9899998"
         id="circle267"
         style="fill:#ffe040" />
      <circle
         class="cls-23"
         cx="-161.99139"
         cy="-240.92694"
         r="4.9899998"
         id="circle269"
         style="fill:#ffe040" />
      <circle
         class="cls-23"
         cx="-161.99139"
         cy="-227.94693"
         r="4.9899998"
         id="circle271"
         style="fill:#ffe040" />
      <path
         class="cls-22"
         d="m -125.7714,-253.17694 h -22.16 a 1.41,1.41 0 1 1 0,-2.82 h 22.16 a 1.41,1.41 0 1 1 0,2.82 z"
         id="path273"
         inkscape:connector-curvature="0"
         style="fill:#486afc" />
      <path
         class="cls-22"
         d="m -125.7714,-246.14694 h -22.16 a 1.41,1.41 0 1 1 0,-2.81 h 22.16 a 1.41,1.41 0 1 1 0,2.81 z"
         id="path275"
         inkscape:connector-curvature="0"
         style="fill:#486afc" />
      <path
         class="cls-22"
         d="m -125.7714,-239.07694 h -22.16 a 1.41,1.41 0 1 1 0,-2.82 h 22.16 a 1.41,1.41 0 1 1 0,2.82 z"
         id="path277"
         inkscape:connector-curvature="0"
         style="fill:#486afc" />
      <path
         class="cls-22"
         d="m -125.7714,-232.55694 h -22.16 a 1.41,1.41 0 1 1 0,-2.81 h 22.16 a 1.41,1.41 0 1 1 0,2.81 z"
         id="path279"
         inkscape:connector-curvature="0"
         style="fill:#486afc" />
      <path
         class="cls-22"
         d="m -125.7714,-225.51694 h -22.16 a 1.41,1.41 0 1 1 0,-2.82 h 22.16 a 1.41,1.41 0 1 1 0,2.82 z"
         id="path281"
         inkscape:connector-curvature="0"
         style="fill:#486afc" />
      <path
         class="cls-22"
         d="m -96.0514,-253.17694 h -22.16 a 1.41,1.41 0 0 1 0,-2.82 h 22.16 a 1.41,1.41 0 0 1 0,2.82 z"
         id="path283"
         inkscape:connector-curvature="0"
         style="fill:#486afc" />
      <path
         class="cls-22"
         d="m -96.0514,-246.14694 h -22.16 a 1.41,1.41 0 0 1 0,-2.81 h 22.16 a 1.41,1.41 0 1 1 0,2.81 z"
         id="path285"
         inkscape:connector-curvature="0"
         style="fill:#486afc" />
      <path
         class="cls-22"
         d="m -96.0514,-239.07694 h -22.16 a 1.41,1.41 0 0 1 0,-2.82 h 22.16 a 1.41,1.41 0 0 1 0,2.82 z"
         id="path287"
         inkscape:connector-curvature="0"
         style="fill:#486afc" />
    </g>
    <g
       id="g5054"
       transform="translate(85.49133,362.60115)">
      <path
         class="cls-25"
         d="m 443.7486,-269.41694 a 1.41,1.41 0 0 1 -0.77,-0.75 l -4.42,-10.35 a 1.41,1.41 0 0 1 1.07,-2 l 13.9,-2.15 54.13,-23.1 -3.72,-8.74 a 1.39,1.39 0 0 1 0.74,-1.84 l 8.41,-3.59 c 0.21,-0.1 5.67,-2.84 0.3,-15.43 -4.19,-9.81 -11,-8.87 -11.89,-8.69 l -16.37,7 11,25.89 a 1.4,1.4 0 0 1 -0.74,1.84 l -14.23,6.08 a 1.41,1.41 0 0 1 -1.11,-2.59 l 12.94,-5.52 -11,-25.88 a 1.39,1.39 0 0 1 0.74,-1.85 l 17.83,-7.56 0.21,-0.08 c 0.1,0 9.87,-2.3 15.25,10.31 2.67,6.25 3.26,11.32 1.77,15.05 a 7.3,7.3 0 0 1 -3.56,4.06 l -7.11,3 3.72,8.74 a 1.39,1.39 0 0 1 -0.74,1.84 l -55.59,23.73 a 1.33,1.33 0 0 1 -0.34,0.1 l -12.28,1.9 3.71,8.69 a 1.4,1.4 0 0 1 -1.82,1.85 z"
         id="path289"
         inkscape:connector-curvature="0"
         style="fill:#ffe368" />
      <path
         class="cls-22"
         d="m 364.8786,-270.55694 a 1.4,1.4 0 0 1 -0.74,-0.7 1.44,1.44 0 0 1 0,-1.2 l 10,-21.4 a 1.35,1.35 0 0 1 0.72,-0.69 l 100.29,-42.81 a 1.42,1.42 0 0 1 1.85,0.74 l 11.43,26.79 a 1.41,1.41 0 0 1 -0.74,1.85 l -100.3,42.8 a 1.43,1.43 0 0 1 -0.89,0.07 l -21.42,-5.39 z m 11.57,-21.62 -9,19.37 19.31,4.85 98.56,-42.06 -10.33,-24.2 z"
         id="path291"
         inkscape:connector-curvature="0"
         style="fill:#486afc" />
      <path
         class="cls-22"
         d="m 476.5586,-303.68694 a 1.43,1.43 0 0 1 -0.77,-0.76 l -11.43,-26.78 a 1.41,1.41 0 0 1 2.59,-1.11 l 11.43,26.79 a 1.42,1.42 0 0 1 -0.74,1.85 1.44,1.44 0 0 1 -1.08,0.01 z"
         id="path293"
         inkscape:connector-curvature="0"
         style="fill:#486afc" />
      <path
         class="cls-22"
         d="m 386.3386,-289.27694 a 1.45,1.45 0 0 1 -0.77,-0.75 1.41,1.41 0 0 1 0.75,-1.85 l 73.12,-31.2 a 1.41,1.41 0 0 1 1.1,2.59 l -73.12,31.21 a 1.44,1.44 0 0 1 -1.08,0 z"
         id="path295"
         inkscape:connector-curvature="0"
         style="fill:#486afc" />
      <path
         class="cls-22"
         d="m 372.8486,-268.55694 a 1.41,1.41 0 0 1 -0.77,-0.75 l -4.25,-10 a 1.41,1.41 0 1 1 2.59,-1.11 l 4.25,10 a 1.39,1.39 0 0 1 -0.74,1.84 1.35,1.35 0 0 1 -1.08,0.02 z"
         id="path297"
         inkscape:connector-curvature="0"
         style="fill:#486afc" />
    </g>
  </g>
</svg>
