<?xml version="1.0" encoding="UTF-8" standalone="no"?>
<svg
   xmlns:dc="http://purl.org/dc/elements/1.1/"
   xmlns:cc="http://creativecommons.org/ns#"
   xmlns:rdf="http://www.w3.org/1999/02/22-rdf-syntax-ns#"
   xmlns:svg="http://www.w3.org/2000/svg"
   xmlns="http://www.w3.org/2000/svg"
   xmlns:sodipodi="http://sodipodi.sourceforge.net/DTD/sodipodi-0.dtd"
   xmlns:inkscape="http://www.inkscape.org/namespaces/inkscape"
   viewBox="0 0 130 144.28024"
   version="1.1"
   id="svg300"
   sodipodi:docname="bulb.svg"
   inkscape:version="0.92.1 r15371"
   width="130"
   height="144.28024">
  <metadata
     id="metadata304">
    <rdf:RDF>
      <cc:Work
         rdf:about="">
        <dc:format>image/svg+xml</dc:format>
        <dc:type
           rdf:resource="http://purl.org/dc/dcmitype/StillImage" />
        <dc:title>zahlavi_SOC_vystupy_alternovanebarvy</dc:title>
      </cc:Work>
    </rdf:RDF>
  </metadata>
  <sodipodi:namedview
     pagecolor="#ffffff"
     bordercolor="#666666"
     borderopacity="1"
     objecttolerance="10"
     gridtolerance="10"
     guidetolerance="10"
     inkscape:pageopacity="0"
     inkscape:pageshadow="2"
     inkscape:window-width="1920"
     inkscape:window-height="1062"
     id="namedview302"
     showgrid="false"
     inkscape:zoom="3.1316346"
     inkscape:cx="98.599199"
     inkscape:cy="42.256052"
     inkscape:window-x="0"
     inkscape:window-y="0"
     inkscape:window-maximized="1"
     inkscape:current-layer="svg300"
     fit-margin-top="0"
     fit-margin-left="0"
     fit-margin-right="0"
     fit-margin-bottom="0" />
  <defs
     id="defs4">
    <style
       id="style2">.cls-1{fill:#c3d4fc;}.cls-12,.cls-2,.cls-4{fill:blue;}.cls-3{fill:#efefef;}.cls-4{font-size:20.98px;font-family:NeueHaasUnicaPro-Regular, Neue Haas Unica Pro;}.cls-5{letter-spacing:0.01em;}.cls-6{letter-spacing:-0.01em;}.cls-7{letter-spacing:-0.01em;}.cls-8{letter-spacing:0.01em;}.cls-9{letter-spacing:-0.02em;}.cls-10{letter-spacing:-0.02em;}.cls-11{letter-spacing:0.01em;}.cls-12{font-size:43.72px;font-family:NeueHaasUnicaPro-Bold, Neue Haas Unica Pro;font-weight:700;}.cls-13{letter-spacing:0.01em;}.cls-14{letter-spacing:0.02em;}.cls-15{font-size:34.97px;}.cls-16{letter-spacing:-0.01em;}.cls-17{letter-spacing:0.01em;}.cls-18{letter-spacing:0em;}.cls-19{letter-spacing:-0.03em;}.cls-20{fill:none;stroke:blue;stroke-miterlimit:10;stroke-width:4px;}.cls-21{fill:#fff;}.cls-22{fill:#486afc;}.cls-23{fill:#ffe040;}.cls-24{fill:#8198ef;}.cls-25{fill:#ffe368;}</style>
  </defs>
  <title
     id="title6">zahlavi_SOC_vystupy_alternovanebarvy</title>
  <g
     id="g3904"
     transform="translate(6.0075)">
    <path
       class="cls-22"
       d="M 58.96,20.79 A 38.74,38.74 0 0 0 27.47,82.12 c 0,0 0,0.1 0.07,0.14 11.07,14.31 11.74,27.17 11.75,27.3 a 1.4,1.4 0 0 0 1.4,1.35 h 0.06 a 1.41,1.41 0 0 0 1.35,-1.46 c 0,-0.43 -0.41,-8.11 -5.61,-18.34 A 67,67 0 0 0 29.77,80.54 l 0.1,0.1 a 35.95,35.95 0 1 1 56.91,1.66 h 0.11 a 1.42,1.42 0 0 0 -0.37,0.32 60.81,60.81 0 0 0 -5.83,9 c -5.49,10.45 -4.9,17.62 -4.86,18 a 1.4,1.4 0 0 0 1.4,1.27 h 0.13 a 1.4,1.4 0 0 0 1.27,-1.53 c 0,-0.11 -0.84,-10.83 10.14,-25 V 84.29 A 38.74,38.74 0 0 0 58.93,20.81 Z"
       id="path171"
       inkscape:connector-curvature="0"
       style="fill:#486afc" />
    <path
       class="cls-22"
       d="M 81.26,119 H 36.67 a 2.81,2.81 0 0 1 -2.82,-2.81 v -4.58 a 2.81,2.81 0 0 1 2.82,-2.81 h 44.59 a 2.81,2.81 0 0 1 2.81,2.81 v 4.58 A 2.81,2.81 0 0 1 81.26,119 Z m -44.59,-7.39 v 4.58 h 44.59 v -4.58 z"
       id="path173"
       inkscape:connector-curvature="0"
       style="fill:#486afc" />
    <path
       class="cls-22"
       d="M 80.03,126.39 H 37.89 a 2.82,2.82 0 0 1 -2.81,-2.82 V 119 a 2.81,2.81 0 0 1 2.81,-2.81 h 42.14 a 2.82,2.82 0 0 1 2.82,2.81 v 4.57 a 2.83,2.83 0 0 1 -2.82,2.82 z M 37.89,119 v 4.57 H 80.03 V 119 Z"
       id="path175"
       inkscape:connector-curvature="0"
       style="fill:#486afc" />
    <path
       class="cls-22"
       d="M 78.32,133.77 H 39.55 a 2.81,2.81 0 0 1 -2.82,-2.81 v -4.57 a 2.82,2.82 0 0 1 2.82,-2.82 h 38.77 a 2.81,2.81 0 0 1 2.81,2.82 v 4.57 a 2.81,2.81 0 0 1 -2.81,2.81 z m -38.77,-7.38 v 4.57 h 38.77 v -4.57 z"
       id="path177"
       inkscape:connector-curvature="0"
       style="fill:#486afc" />
    <path
       class="cls-22"
       d="m 29.32,64.24 a 1.4,1.4 0 0 1 -1.4,-1.29 C 27.92,62.54 27.17,52.84 34.6,41.7 42.03,30.56 51.8,28.02 52.21,27.92 a 1.41,1.41 0 1 1 0.67,2.73 c -0.08,0 -9.12,2.39 -15.94,12.62 -6.82,10.23 -6.23,19.36 -6.22,19.45 a 1.4,1.4 0 0 1 -1.29,1.51 z"
       id="path179"
       inkscape:connector-curvature="0"
       style="fill:#486afc" />
    <path
       class="cls-22"
       d="M 67.73,144.28 H 50.2 a 1.39,1.39 0 0 1 -1.36,-1 L 46.03,132.77 A 1.4,1.4 0 0 1 47.38,131 h 23.16 a 1.41,1.41 0 0 1 1.12,0.55 1.44,1.44 0 0 1 0.24,1.22 l -2.81,10.51 a 1.41,1.41 0 0 1 -1.36,1 z m -16.41,-2.81 h 15.37 l 2.06,-7.7 H 49.22 Z"
       id="path181"
       inkscape:connector-curvature="0"
       style="fill:#486afc" />
    <path
       class="cls-22"
       d="m 53.67,111.61 a 1.41,1.41 0 0 1 -1.38,-1.12 l -6.28,-30.6 a 1.39,1.39 0 0 1 1.11,-1.67 6.41,6.41 0 0 0 0.48,-0.69 c 0.54,-0.85 1.27,-2 2.63,-2 a 2.91,2.91 0 0 1 2.55,2.08 3.76,3.76 0 0 0 0.27,0.53 c 0.1,-0.13 0.28,-0.43 0.4,-0.63 a 3.33,3.33 0 0 1 2.76,-2 3.06,3.06 0 0 1 2.7,2.2 1.42,1.42 0 0 1 0.08,0.18 l 0.24,-0.37 c 0.54,-0.85 1.27,-2 2.63,-2 a 2.91,2.91 0 0 1 2.55,2.08 5.24,5.24 0 0 0 0.27,0.53 c 0.1,-0.13 0.28,-0.43 0.4,-0.63 a 3.33,3.33 0 0 1 2.76,-2 3.08,3.08 0 0 1 2.71,2.2 4.66,4.66 0 0 0 0.24,0.5 1.4,1.4 0 0 1 0.84,0.49 1.42,1.42 0 0 1 0.29,1.17 l -6.25,30.61 a 1.42,1.42 0 0 1 -1.66,1.09 1.39,1.39 0 0 1 -1.1,-1.66 l 6,-29.54 a 4.6,4.6 0 0 1 -1,-1.47 L 67.7,78.45 c -0.07,0.14 -0.2,0.35 -0.3,0.51 a 3.41,3.41 0 0 1 -2.85,2 3.11,3.11 0 0 1 -2.77,-2.22 v -0.08 c -0.08,0.11 -0.15,0.23 -0.21,0.32 -0.53,0.83 -1.25,2 -2.59,2 a 2.94,2.94 0 0 1 -2.66,-2.1 l -0.21,-0.44 -0.3,0.51 a 3.41,3.41 0 0 1 -2.86,2 3.1,3.1 0 0 1 -2.76,-2.21 v -0.09 c -0.08,0.11 -0.15,0.23 -0.21,0.32 a 6.63,6.63 0 0 1 -1,1.32 l 6.08,29.57 a 1.41,1.41 0 0 1 -1.1,1.66 1.33,1.33 0 0 1 -0.29,0.09 z"
       id="path183"
       inkscape:connector-curvature="0"
       style="fill:#486afc" />
    <path
       class="cls-23"
       d="m 96.9,102.33 a 4.92,4.92 0 0 1 -3.45,-8.44 l 0.25,-0.25 a 4.9285799,4.9285799 0 1 1 7,6.94 l -0.34,0.35 a 4.93,4.93 0 0 1 -3.46,1.4 z m -76.09,-0.22 a 4.91,4.91 0 0 1 -3.48,-1.44 l -0.32,-0.32 a 4.93,4.93 0 1 1 7,-6.92 l 0.27,0.27 a 4.92,4.92 0 0 1 -3.48,8.41 z M 108.74,84.9 a 4.92,4.92 0 0 1 -4.54,-6.83 l 0.16,-0.37 a 4.9242309,4.9242309 0 0 1 9.09,3.79 l -0.16,0.39 a 4.92,4.92 0 0 1 -4.55,3.02 z M 9.06,84.61 a 4.93,4.93 0 0 1 -4.54,-3 L 4.34,81.18 a 4.93,4.93 0 0 1 9.12,-3.73 l 0.14,0.33 a 4.92,4.92 0 0 1 -2.63,6.45 4.77,4.77 0 0 1 -1.91,0.38 z M 113,64.26 v 0 a 4.92,4.92 0 0 1 -4.87,-5 v -0.58 a 4.93,4.93 0 1 1 9.85,0 v 0.67 A 4.91,4.91 0 0 1 113,64.26 Z M 4.93,63.9 A 4.88,4.88 0 0 1 0,59.03 v -0.49 a 4.93,4.93 0 0 1 4.93,-4.85 h 0.06 a 4.92,4.92 0 0 1 4.86,5 v 0.24 A 5,5 0 0 1 4.93,63.9 Z M 108.99,43.36 a 4.92,4.92 0 0 1 -4.56,-3.06 l -0.14,-0.33 a 4.9227482,4.9227482 0 1 1 9.07,-3.83 l 0.18,0.43 a 4.94,4.94 0 0 1 -2.69,6.43 5.08,5.08 0 0 1 -1.86,0.36 z M 8.99,43.27 A 4.93,4.93 0 0 1 4.44,36.45 l 0.17,-0.39 a 4.93,4.93 0 1 1 9.09,3.8 l -0.16,0.38 A 4.93,4.93 0 0 1 8.98,43.27 Z M 97.32,25.8 a 4.89,4.89 0 0 1 -3.51,-1.47 l -0.24,-0.24 a 4.93,4.93 0 0 1 6.91,-7 l 0.34,0.35 a 4.93,4.93 0 0 1 -3.5,8.38 z M 20.64,25.73 a 4.93,4.93 0 0 1 -3.49,-8.4 L 17.48,17 a 4.92,4.92 0 1 1 6.91,7 l -0.26,0.26 a 4.89,4.89 0 0 1 -3.47,1.47 z M 79.85,14 a 4.92,4.92 0 0 1 -1.9,-0.38 L 77.6,13.47 a 4.9220169,4.9220169 0 1 1 3.73,-9.11 l 0.43,0.18 A 4.92,4.92 0 0 1 79.85,14 Z M 38.13,14 A 4.92,4.92 0 0 1 36.24,4.53 l 0.41,-0.17 a 4.9247538,4.9247538 0 1 1 3.72,9.12 l -0.36,0.15 a 5,5 0 0 1 -1.86,0.33 z M 59.2,9.85 h -0.42 a 4.93,4.93 0 0 1 0,-9.85 h 0.46 a 4.93,4.93 0 0 1 0,9.85 z"
       id="path185"
       inkscape:connector-curvature="0"
       style="fill:#ffe040" />
  </g>
</svg>
