<?xml version="1.0" encoding="UTF-8"?>
<!-- Generator: Adobe Illustrator 16.0.0, SVG Export Plug-In . SVG Version: 6.00 Build 0)  -->
<!DOCTYPE svg PUBLIC "-//W3C//DTD SVG 1.1//EN" "http://www.w3.org/Graphics/SVG/1.1/DTD/svg11.dtd">
<svg version="1.1" id="Layer_1" xmlns="http://www.w3.org/2000/svg" xmlns:xlink="http://www.w3.org/1999/xlink" x="0px" y="0px" width="1000px" height="1000px" viewBox="0 0 1000 1000" enable-background="new 0 0 1000 1000" xml:space="preserve">
<circle fill="#FFC92C" cx="500" cy="500" r="473.937"/>
<circle fill="#FDEEAB" cx="500" cy="500" r="418.439"/>
<g>
	<path fill="#FFD56C" d="M843.572,589.95c-8.141,4.116-14.117,8.378-19.176,14.009c4.223-14.566,7.581-29.959,10.025-46.189   c17.645,1.953,30.38-2.089,44.813-14.093c12.49-10.393,18.344-19.813,22.481-36.181c-18.772-1.915-31.491,1.984-46.496,14.234   c-9.283,7.585-14.973,14.579-19.178,24.221c1.873-15.529,2.94-31.795,3.12-48.823c0.019-1.588,0.006-3.165,0.006-4.745   c18.126-1.897,29.984-8.664,41.956-23.857c10.212-12.949,14.112-23.47,14.976-40.398c-18.729,2.303-30.413,8.943-42.718,24.28   c-7.97,9.933-12.204,18.361-14.36,29.463c-0.558-18.971-2.523-37.331-5.825-54.993c16.639-5.922,26.644-15.154,35.211-32.284   c7.475-14.947,9.246-26.095,6.813-42.857c-17.87,6.444-28.02,15.543-37.074,33.267c-4.927,9.647-7.479,17.666-8.155,26.689   c-3.924-16.676-9.06-32.684-15.331-47.942c14.337-9.339,22.037-20.477,26.959-38.628c4.414-16.288,3.985-27.605-1.638-43.45   c-16.234,10.284-24.395,21.436-29.814,40.802c-2.539,9.077-3.601,16.582-3.144,24.225c-6.857-14.133-14.733-27.552-23.556-40.185   c11.928-12.204,17.205-24.746,18.476-43.396c1.168-16.911-1.439-27.875-10.026-42.125c-13.892,13.673-19.703,26.417-21.245,46.563   c-0.711,9.221-0.311,16.66,1.496,23.876c-9.466-11.817-19.84-22.844-31.036-33.019c9.568-14.796,12.386-28.349,9.998-47.096   c-2.144-16.792-6.831-26.94-17.983-38.953c-10.94,16.47-14.152,30.209-11.757,50.271c1.201,10.026,3.267,17.685,7.02,24.864   c-11.914-9.626-24.637-18.361-38.117-26.138c6.933-17.094,7.181-31.195,1.073-49.37c-5.352-15.966-11.899-24.842-25.142-34.111   c-7.508,18.537-7.981,32.716-1.75,51.8c3.512,10.731,7.508,18.287,13.659,25.04c-14.089-7.292-28.921-13.58-44.435-18.795   c3.606-18.534,1.186-32.497-8.415-49.101c-8.326-14.401-16.454-21.638-31.21-27.752c-3.737,19.808-1.456,33.784,8.332,51.053   c5.667,9.989,11.176,16.576,18.818,21.882c-5.024-1.471-10.097-2.845-15.252-4.09l-12.315,2.831   c8.065,1.95,16.009,4.215,23.809,6.761c-12.453,2.349-22.16,8.366-32.277,19.52c-11.027,12.165-15.6,22.364-17.575,39.176   c18.84-0.899,30.933-6.642,44.197-21.012c9.922-10.752,14.755-19.882,17.452-33.585c13.954,5.159,27.422,11.252,40.337,18.214   c-10.815,0.449-20.387,4.237-31.067,11.899c-13.147,9.433-19.599,18.382-24.792,34.393c18.599,3.322,31.544,0.395,47.31-10.708   c11.288-7.943,17.729-15.486,22.906-27.359c12.33,7.519,24.09,15.87,35.191,24.975c-10.154-1.583-19.886,0.068-31.286,4.962   c-14.688,6.285-22.743,13.606-30.923,28.125c17.55,7.391,30.78,7.412,48.347,0.053c12.446-5.193,20.168-11.062,27.455-21.294   c10.743,9.921,20.761,20.603,29.984,31.985c-9.675-3.87-19.553-4.444-31.711-2.205c-15.578,2.885-24.875,8.255-35.696,20.625   c15.737,11.152,28.674,14.117,47.285,10.844c13.247-2.326,21.952-6.366,31.125-14.838c8.67,12.112,16.482,24.911,23.35,38.334   c-8.805-6.116-18.451-8.953-30.961-9.466c-15.797-0.643-25.93,2.527-38.92,12.221c13.238,14.402,25.312,20.177,44.153,21.144   c13.457,0.675,22.788-1.357,33.45-7.662c5.989,13.637,11.036,27.841,15.061,42.551c-7.385-7.809-16.212-12.672-28.217-15.927   c-15.344-4.151-25.871-3.305-40.445,3.27c10.148,17.046,20.834,25.4,39.079,30.52c12.926,3.641,22.393,3.762,33.9,0.074   c2.992,14.178,5.042,28.775,6.09,43.745c-5.638-8.708-13.156-15.11-23.824-20.744c-14.191-7.484-24.657-8.997-40.196-5.812   c6.633,18.93,15.465,29.486,32.314,38.569c11.725,6.328,20.837,8.587,32.515,7.674c0.022,2.412,0.022,4.828,0,7.255   c-0.143,12.745-0.781,25.024-1.896,36.85c-3.822-9.776-9.936-17.721-19.282-25.602c-12.43-10.487-22.377-14.299-38.187-14.638   c2.811,19.975,9.409,32.277,24.125,44.919c10.455,8.97,19.062,13.21,31.018,14.854c-2.456,16.997-5.95,32.989-10.403,48.011   c-1.151-12.745-5.708-23.293-14.602-34.734c-10.128-13.032-19.108-18.983-34.519-22.847c-1.128,20.183,2.947,33.69,14.897,49.323   c9.024,11.831,17.058,17.933,29.707,22.245c-6.125,17.472-13.625,33.536-22.343,48.279c2.468-14.588,0.277-26.968-6.941-41.657   c-7.377-14.998-15.016-22.827-29.334-30.029c-5.019,19.484-3.647,33.586,5,51.564c6.722,13.968,13.593,21.78,25.767,29.001   c-9.269,14.287-19.739,27.247-31.27,38.93c4.277-12.7,4.26-24.699,0.32-39.611c-4.307-16.326-10.262-25.674-22.866-35.913   c-8.692,17.945-10.092,32.045-5.114,51.548c3.715,14.552,8.661,23.593,18.341,32.924c-10.493,9.58-21.75,18.229-33.683,25.972   c4.167-9.546,5.567-19.7,4.775-32.345c-1.038-16.934-5.053-27.398-15.397-40.223c-11.979,15.603-16.078,29.094-14.998,49.267   c0.733,13.604,3.313,23.025,9.431,33.028c-13.614,7.579-27.979,14.128-42.96,19.691c6.227-8.566,9.708-18.354,11.442-31.25   c2.252-16.784,0.366-27.926-7.271-42.761c-14.75,12.588-21.383,24.871-24.233,44.852c-1.952,13.704-1.203,23.596,3.043,34.997   c-18.774,5.904-38.384,10.386-58.62,13.575c15.066-7.966,23.646-18.351,30.03-35.985c5.717-15.812,6.208-27.129,1.89-43.445   c-17.011,8.73-26.044,19.095-33.021,37.869c-5.7,15.376-6.508,26.417-3.015,42.199c-0.953,0.146-1.919,0.271-2.878,0.405   c-0.136,0-0.271-0.005-0.417-0.005l0.01,0.063c-11.04,1.558-22.25,2.747-33.608,3.565c-12.235,0.883-23.505,4.358-34.127,9.438   c-10.556-5.028-21.749-8.466-33.901-9.336c-11.357-0.811-22.567-2.01-33.608-3.564l0.012-0.063c-0.141,0-0.271,0.005-0.415,0.005   c-0.96-0.135-1.923-0.261-2.882-0.406c3.497-15.782,2.686-26.822-3.017-42.199c-6.977-18.773-16.009-29.144-33.021-37.869   c-4.314,16.316-3.824,27.618,1.894,43.445c6.384,17.635,14.967,28.021,30.029,35.986c-20.233-3.19-39.848-7.671-58.617-13.576   c4.246-11.401,4.993-21.293,3.037-34.996c-2.856-19.984-9.48-32.267-24.229-44.868c-7.631,14.855-9.522,25.99-7.268,42.779   c1.733,12.89,5.212,22.68,11.442,31.248c-14.984-5.578-29.349-12.113-42.964-19.694c6.119-10,8.698-19.424,9.427-33.026   c1.089-20.173-3.015-33.665-14.994-49.266c-10.345,12.823-14.358,23.294-15.404,40.223c-0.784,12.655,0.616,22.8,4.788,32.352   c-11.938-7.751-23.193-16.399-33.688-25.973c9.685-9.335,14.624-18.379,18.34-32.932c4.975-19.5,3.577-33.597-5.113-51.545   c-12.608,10.238-18.558,19.585-22.868,35.905c-3.939,14.925-3.958,26.917,0.329,39.624c-11.535-11.689-22.01-24.648-31.278-38.942   c12.176-7.214,19.042-15.026,25.769-28.995c8.65-17.979,10.019-32.079,5-51.564c-14.319,7.203-21.958,15.031-29.335,30.022   c-7.219,14.678-9.406,27.071-6.948,41.664c-8.715-14.744-16.212-30.809-22.335-48.278c12.649-4.313,20.682-10.414,29.709-22.233   c11.944-15.648,16.02-29.152,14.888-49.33c-15.405,3.862-24.387,9.808-34.514,22.837c-8.893,11.445-13.451,21.996-14.603,34.745   c-4.454-15.03-7.939-31.023-10.399-48.02c11.956-1.646,20.571-5.879,31.017-14.851c14.721-12.641,21.317-24.944,24.122-44.919   c-15.813,0.335-25.753,4.15-38.186,14.639c-9.345,7.88-15.46,15.821-19.284,25.601c-1.107-11.826-1.753-24.105-1.885-36.851   c-0.026-2.427-0.026-4.844,0-7.253c11.673,0.911,20.782-1.351,32.509-7.678c16.847-9.082,25.687-19.641,32.308-38.566   c-15.534-3.186-26-1.678-40.19,5.812c-10.668,5.633-18.19,12.035-23.826,20.744c1.049-14.969,3.103-29.567,6.087-43.747   c11.518,3.689,20.98,3.565,33.905-0.074c18.237-5.135,28.932-13.472,39.077-30.517c-14.572-6.576-25.103-7.439-40.438-3.271   c-12.006,3.255-20.836,8.118-28.223,15.927c4.019-14.706,9.076-28.911,15.058-42.548c10.663,6.306,19.994,8.337,33.452,7.663   c18.841-0.969,30.915-6.746,44.152-21.151c-12.983-9.691-23.118-12.878-38.921-12.218c-12.502,0.514-22.149,3.35-30.955,9.466   c6.864-13.423,14.679-26.222,23.353-38.336c9.166,8.472,17.873,12.515,31.121,14.84c18.608,3.273,31.548,0.287,47.282-10.844   c-10.82-12.367-20.114-17.744-35.702-20.62c-12.157-2.258-22.031-1.677-31.703,2.189c9.227-11.376,19.245-22.059,29.981-31.976   c7.291,10.233,15.009,16.101,27.453,21.294c17.572,7.355,30.799,7.338,48.349-0.065c-8.186-14.506-16.237-21.827-30.922-28.112   c-11.401-4.895-21.131-6.546-31.291-4.959c11.109-9.107,22.863-17.453,35.2-24.977c5.18,11.87,11.611,19.417,22.906,27.359   c15.763,11.103,28.707,14.033,47.305,10.708c-5.191-16.015-11.644-24.975-24.791-34.393c-10.67-7.663-20.249-11.451-31.07-11.899   c12.917-6.959,26.389-13.056,40.341-18.216c2.695,13.703,7.531,22.833,17.451,33.581c13.271,14.377,25.361,20.117,44.198,21.015   c-1.976-16.827-6.549-27.024-17.578-39.174c-10.12-11.154-19.821-17.171-32.272-19.524c7.803-2.537,15.743-4.804,23.806-6.763   l-12.32-2.824c-5.15,1.247-10.225,2.621-15.249,4.088c7.638-5.303,13.153-11.893,18.819-21.881   c9.793-17.268,12.069-31.249,8.326-51.055c-14.752,6.115-22.872,13.352-31.203,27.756c-9.596,16.599-12.02,30.563-8.411,49.099   c-15.511,5.212-30.345,11.502-44.442,18.795c6.155-6.753,10.152-14.304,13.662-25.04c6.238-19.082,5.754-33.264-1.747-51.8   c-13.242,9.268-19.788,18.147-25.144,34.107c-6.104,18.178-5.851,32.278,1.073,49.376c-13.482,7.771-26.211,16.51-38.127,26.142   c3.757-7.182,5.834-14.838,7.034-24.867c2.39-20.067-0.822-33.829-11.757-50.276c-11.157,12.012-15.843,22.161-17.982,38.954   c-2.393,18.746,0.421,32.301,9.997,47.089c-11.199,10.179-21.571,21.205-31.042,33.026c1.812-7.218,2.21-14.655,1.502-23.873   c-1.547-20.151-7.358-32.894-21.255-46.567c-8.575,14.252-11.188,25.214-10.028,42.125c1.277,18.65,6.552,31.192,18.486,43.399   c-8.828,12.627-16.7,26.047-23.558,40.181c0.455-7.643-0.598-15.147-3.142-24.224c-5.415-19.364-13.578-30.515-29.814-40.803   c-5.628,15.845-6.057,27.163-1.64,43.447c4.919,18.156,12.619,29.29,26.96,38.632c-6.273,15.252-11.407,31.258-15.333,47.934   c-0.677-9.023-3.226-17.041-8.151-26.682c-9.054-17.723-19.202-26.823-37.08-33.264c-2.432,16.76-0.657,27.907,6.822,42.853   c8.563,17.127,18.562,26.36,35.198,32.282c-3.294,17.663-5.265,36.022-5.814,54.991c-2.166-11.096-6.393-19.525-14.367-29.459   c-12.302-15.335-23.989-21.975-42.718-24.278c0.871,16.927,4.771,27.45,14.976,40.391c11.977,15.202,23.834,21.953,41.956,23.861   c-0.005,1.574-0.012,3.147,0.006,4.73c0.184,17.04,1.247,33.309,3.125,48.848c-4.208-9.653-9.898-16.65-19.184-24.229   c-14.998-12.252-27.721-16.146-46.495-14.236c4.138,16.371,9.995,25.789,22.486,36.179c14.436,12.009,27.158,16.054,44.81,14.101   c2.455,16.228,5.81,31.63,10.03,46.193c-5.06-5.634-11.035-9.895-19.18-14.017c-17.053-8.645-30.25-9.607-48.242-3.558   c7.217,15.095,14.772,22.994,29.014,30.376c15.604,8.095,28.319,9.505,44.008,4.629c4.922,13.954,10.677,27.077,17.182,39.416   c-4.972-2.907-10.521-5.006-17.343-6.729c-18.351-4.657-31.449-2.658-47.87,7.276c9.983,13.141,18.914,19.191,34.27,23.244   c16.166,4.249,28.528,3.094,42.244-4.326c7.648,12.014,16.082,23.169,25.22,33.499c-5.167-1.549-10.729-2.286-17.339-2.452   c-18.849-0.461-31.278,4.404-45.419,17.792c12.324,10.625,22.229,14.552,38.036,15.095c16.758,0.563,28.675-3.376,40.737-13.852   c10.717,10.17,22.195,19.396,34.349,27.691c-6.418-0.901-12.977-0.476-20.872,1.124c-18.527,3.741-29.744,11.283-40.977,27.518   c14.118,7.66,24.567,9.304,40.135,6.306c17.218-3.326,28.327-10.291,38.427-24.369c12.645,7.428,25.907,13.966,39.681,19.634   c-4.916,0.913-9.928,2.594-15.561,5.125c-17.397,7.811-26.905,17.672-34.745,36.058c15.288,4.357,25.831,3.622,40.475-2.778   c15.444-6.763,24.82-15.51,31.853-30.21c11.306,3.783,22.892,7.034,34.72,9.77c-1.536,1.045-3.099,2.187-4.713,3.428   c-15.314,11.792-22.505,23.709-26.287,43.51c15.811,0.548,25.93-2.71,38.849-12.488c11.094-8.373,17.978-17.09,22.198-28.673   c12.254,1.902,24.704,3.307,37.305,4.211c5.961,0.43,11.493,1.502,16.709,3.055c-24.295,16.098-45.748,38.513-68.848,53.2   l18.432,8.253c25.731-16.359,43.812-40.157,67.856-53.905c24.144,13.736,42.247,37.613,68.035,54.007l18.441-8.253   c-23.17-14.732-44.684-37.23-69.06-53.337c5.276-1.597,10.877-2.692,16.921-3.12c12.594-0.91,25.044-2.311,37.299-4.212   c4.218,11.582,11.104,20.296,22.195,28.697c12.921,9.753,23.036,13.011,38.853,12.462c-3.782-19.799-10.974-31.716-26.287-43.508   c-1.615-1.242-3.18-2.383-4.719-3.42c11.831-2.744,23.419-5.994,34.721-9.777c7.033,14.699,16.41,23.447,31.856,30.212   c14.644,6.398,25.188,7.135,40.474,2.776c-7.835-18.386-17.342-28.246-34.743-36.059c-5.633-2.529-10.646-4.211-15.563-5.125   c13.779-5.668,27.038-12.203,39.688-19.633c10.099,14.078,21.207,21.045,38.422,24.362c15.567,3.004,26.017,1.36,40.134-6.3   c-11.238-16.232-22.442-23.775-40.979-27.515c-7.892-1.602-14.452-2.022-20.869-1.127c12.153-8.297,23.635-17.52,34.348-27.691   c12.063,10.477,23.979,14.422,40.738,13.852c15.804-0.541,25.704-4.472,38.026-15.092c-14.129-13.39-26.563-18.255-45.415-17.795   c-6.605,0.16-12.165,0.906-17.33,2.44c9.139-10.32,17.566-21.471,25.226-33.484c13.704,7.419,26.066,8.575,42.227,4.325   c15.371-4.052,24.289-10.103,34.274-23.251c-16.414-9.93-29.526-11.929-47.872-7.264c-6.813,1.715-12.36,3.813-17.334,6.716   c6.509-12.333,12.267-25.457,17.181-39.41c15.683,4.877,28.399,3.465,44.001-4.622c14.247-7.39,21.794-15.281,29.014-30.382   C873.822,580.341,860.624,581.308,843.572,589.95"/>
</g>
<g>
	<path fill="#FFEFAB" stroke="#000000" d="M633.226,509.955c-9.161-13.733-50.13-44.232-56.078-53.32   c-5.946-9.088-5.248-12.567-5.303-17.941c0.412-22.36,14.169-45.467,14.169-65.536c0-10.42-0.525-20.78-3.894-30.622   c-9.361-27.354-27.4-51.96-54.204-61.149c-7.571-2.598-19.143-2.857-27.605-2.875v-0.001c-0.107,0-0.222,0-0.329,0   s-0.221,0-0.329,0v0.001c-8.464,0.018-20.032,0.278-27.608,2.875c-26.803,9.188-44.842,33.794-54.204,61.149   c-3.366,9.841-3.891,20.201-3.891,30.622c0,20.069,13.755,43.176,14.17,65.536c-0.055,5.374,0.642,8.853-5.306,17.941   c-5.948,9.087-46.916,39.586-56.076,53.32c-13.89,20.826-10.906,31.09,4.609,26.021c5.671-1.854,21.118-6.359,21.118-6.359   s7.71,38.739,7.71,57.587c0,78.54,40.657,100.434,99.477,100.694v0.006c0.111,0,0.219-0.004,0.329-0.004   c0.109,0,0.219,0.004,0.329,0.004v-0.006c58.819-0.261,103.917-22.154,103.917-100.694c0-18.848,3.267-57.587,3.267-57.587   s15.449,4.505,21.12,6.359C644.131,541.045,647.116,530.781,633.226,509.955z"/>
	<path fill="#FFC92D" d="M504.399,417.738c-2.431,3.314-6.404,3.315-8.834,0l-9.64-13.15c-2.428-3.314-1.053-6.025,3.056-6.025   h22.003c4.108,0,5.483,2.713,3.053,6.025L504.399,417.738z"/>
	<g>
		<circle fill="#FFC92B" cx="532.168" cy="366.26" r="8.367"/>
		<circle fill="#FFC92B" cx="468.475" cy="366.26" r="8.365"/>
		<path fill="#FFC92B" d="M575.358,349.786c-6.627,2.437-13.258,4.876-19.884,7.313c-2.688-8.821-11.742-14.782-20.945-15.277    c-9.082-0.488-16.283,5.469-19.658,13.18c-3.788-3.269-8.959-4.184-14.21-4.271c-0.12-0.003-0.228,0.018-0.338,0.028    c-0.114-0.01-0.22-0.031-0.341-0.028c-5.234,0.087-10.385,0.995-14.171,4.236c-3.334-7.627-10.52-12.65-19.698-13.145    c-9.955-0.535-17.654,6.661-20.528,15.432c-6.767-2.489-13.533-4.979-20.299-7.468c-3.399-1.251-4.853,4.167-1.491,5.402    c6.89,2.536,13.781,5.071,20.672,7.605c-0.021,0.25-0.06,0.498-0.073,0.748c-0.66,12.268,10.421,21.11,21.719,21.719    c11.965,0.645,20.65-9.883,21.637-20.884c0.061-0.254,0.099-0.527,0.082-0.835c0.018-0.304-0.021-0.569-0.079-0.822    c-0.037-0.427-0.104-0.838-0.159-1.256c2.631-4.479,7.616-5.048,12.389-5.127c0.121-0.003,0.227-0.027,0.341-0.04    c0.11,0.013,0.218,0.037,0.338,0.04c4.758,0.08,9.726,0.646,12.36,5.085c-0.06,0.428-0.089,0.857-0.127,1.285    c-0.062,0.256-0.099,0.527-0.082,0.835c-0.017,0.302,0.019,0.568,0.079,0.821c1.003,11.856,9.625,20.251,21.638,20.898    c12.267,0.661,21.109-10.422,21.717-21.719c0.017-0.263-0.006-0.514-0.002-0.772c6.868-2.526,13.736-5.053,20.603-7.581    C580.21,353.953,578.757,348.535,575.358,349.786z M449.997,363.541c-0.49-9.118,7.715-15.661,16.116-16.114    c9.117-0.492,15.664,7.712,16.116,16.114C481.111,384.311,451.115,384.311,449.997,363.541z M534.529,379.656    c-9.116,0.49-15.661-7.713-16.113-16.116c1.117-20.767,31.11-20.769,32.229,0C551.134,372.657,542.932,379.204,534.529,379.656z"/>
	</g>
	<path fill="#FFC92B" d="M638.533,510.931c-9.493-14.234-51.955-45.847-58.122-55.266c-6.166-9.418-5.439-13.026-5.498-18.594   c0.432-23.176,14.688-47.127,14.688-67.926c0-10.801-0.545-21.541-4.034-31.738c-9.703-28.354-22.476-67.392-85.136-67.474   c-0.147,0-0.29,0.003-0.431,0.006c-0.142-0.003-0.285-0.006-0.432-0.006c-62.662,0.082-75.434,39.12-85.138,67.474   c-3.489,10.197-4.033,20.937-4.033,31.738c0,20.801,14.26,44.75,14.687,67.926c-0.056,5.569,0.667,9.176-5.499,18.594   c-6.163,9.419-48.625,41.032-58.12,55.266c-14.397,21.584-11.304,32.226,4.777,26.97c5.877-1.923,21.888-6.591,21.888-6.591   s4.634,40.151,4.634,59.687c0,38.891,26.232,72.156,15.021,76.971c-11.212,4.811-12.242,4.879-19.649,9.094   c-7.409,4.215-11.082,17.686,8.545,17.646c19.626-0.039,24.165-0.079,24.165-0.079s51.634,0.43,59.39,1.104   c9.128,0.798,17.548-0.042,19.765-0.292c2.217,0.25,10.638,1.09,19.762,0.292c7.759-0.675,59.391-1.104,59.391-1.104   s4.538,0.04,24.166,0.079c19.626,0.04,15.953-13.431,8.545-17.646c-7.409-4.215-8.438-4.283-19.649-9.094   c-11.212-4.814,15.021-38.08,15.021-76.971c0-19.535,4.636-59.687,4.636-59.687s16.009,4.668,21.887,6.591   C649.839,543.156,652.934,532.515,638.533,510.931z M564.36,665.506c-27.451,23.115-64.134,20.832-64.269,20.836   c-0.003,0-0.056,0.002-0.093,0.003c-0.037-0.001-0.087-0.003-0.09-0.003c-0.135-0.004-36.822,2.279-64.27-20.836   c-16.737-14.099-25.596-37.636-25.081-76.896c1.358-103.647,21.725-105.686,26.82-143.746c0,0,0.341-14.952-0.677-22.769   c-0.647-4.957-10.027-27.525-8.497-55.391c1.531-27.867,12.063-44.008,29.227-54.373c15.517-9.372,37.975-9.575,42.135-9.527v0.007   c0.111,0.001,0.187,0.002,0.187,0.002s0.087-0.002,0.228-0.006c0.17,0.003,0.268,0.007,0.268,0.007s0.072-0.003,0.185-0.004v-0.009   c4.159-0.047,26.618,0.157,42.138,9.528c17.157,10.365,27.691,26.506,29.222,54.372c1.529,27.866-7.85,50.431-8.494,55.392   c-1.02,7.816-0.68,22.771-0.68,22.771c5.098,38.059,25.463,40.097,26.822,143.744C589.956,627.87,581.098,651.407,564.36,665.506z"/>
	<g>
		<g>
			<path fill="#FFC92D" d="M470.079,556.662c2.466,0,4.483-2.017,4.483-4.482v-0.193c0-2.469,2.018-4.484,4.482-4.484h41.872     c2.468,0,4.485,2.016,4.485,4.484v0.193c0,2.466,2.015,4.482,4.481,4.482h2.996c2.468,0,4.484-2.017,4.484-4.482v-12.154     c0-2.465-2.017-4.482-4.484-4.482h-65.794c-2.466,0-4.483,2.018-4.483,4.482v12.154c0,2.466,2.017,4.482,4.483,4.482H470.079z"/>
		</g>
		<g>
			<path fill="#FFC92D" d="M529.883,589.185c-2.467,0-4.481,2.015-4.481,4.481v0.192c0,2.467-2.018,4.483-4.485,4.483h-41.872     c-2.464,0-4.482-2.017-4.482-4.483v-0.192c0-2.467-2.017-4.481-4.483-4.481h-2.994c-2.466,0-4.483,2.015-4.483,4.481v12.156     c0,2.466,2.017,4.481,4.483,4.481h65.794c2.468,0,4.484-2.016,4.484-4.481v-12.156c0-2.467-2.017-4.481-4.484-4.481H529.883z"/>
		</g>
	</g>
	<path fill="#FFC92D" d="M517.906,574.42c0,2.467-2.015,4.483-4.482,4.483h-26.885c-2.467,0-4.483-2.017-4.483-4.483v-2.996   c0-2.467,2.016-4.482,4.483-4.482h26.885c2.468,0,4.482,2.016,4.482,4.482V574.42z"/>
</g>
</svg>