<?xml version="1.0" encoding="UTF-8" standalone="no"?>
<svg
   xmlns:dc="http://purl.org/dc/elements/1.1/"
   xmlns:cc="http://creativecommons.org/ns#"
   xmlns:rdf="http://www.w3.org/1999/02/22-rdf-syntax-ns#"
   xmlns:svg="http://www.w3.org/2000/svg"
   xmlns="http://www.w3.org/2000/svg"
   xmlns:sodipodi="http://sodipodi.sourceforge.net/DTD/sodipodi-0.dtd"
   xmlns:inkscape="http://www.inkscape.org/namespaces/inkscape"
   viewBox="0 0 155 84.48"
   version="1.1"
   id="svg5750"
   sodipodi:docname="mu_stitek.svg"
   width="155"
   height="84.480003"
   inkscape:version="0.92.1 r15371">
  <metadata
     id="metadata5754">
    <rdf:RDF>
      <cc:Work
         rdf:about="">
        <dc:format>image/svg+xml</dc:format>
        <dc:type
           rdf:resource="http://purl.org/dc/dcmitype/StillImage" />
        <dc:title>zahlavi_bile_vystupy_novyvizual</dc:title>
      </cc:Work>
    </rdf:RDF>
  </metadata>
  <sodipodi:namedview
     pagecolor="#ffffff"
     bordercolor="#666666"
     borderopacity="1"
     objecttolerance="10"
     gridtolerance="10"
     guidetolerance="10"
     inkscape:pageopacity="0"
     inkscape:pageshadow="2"
     inkscape:window-width="1920"
     inkscape:window-height="1182"
     id="namedview5752"
     showgrid="false"
     fit-margin-top="0"
     fit-margin-left="0"
     fit-margin-right="0"
     fit-margin-bottom="0"
     inkscape:zoom="3.1316345"
     inkscape:cx="147.48381"
     inkscape:cy="-4.8609915"
     inkscape:window-x="0"
     inkscape:window-y="0"
     inkscape:window-maximized="1"
     inkscape:current-layer="svg5750" />
  <defs
     id="defs5362">
    <style
       id="style5360">.cls-1{fill:#c3d4fc;}.cls-2,.cls-4,.cls-9{fill:blue;}.cls-3{fill:#efefef;}.cls-4{font-size:20.98px;font-family:NeueHaasUnicaPro-Regular, Neue Haas Unica Pro;}.cls-5{letter-spacing:-0.02em;}.cls-6{letter-spacing:0.01em;}.cls-7{letter-spacing:-0.01em;}.cls-8{letter-spacing:-0.02em;}.cls-9{font-size:43.72px;font-family:NeueHaasUnicaPro-Bold, Neue Haas Unica Pro;font-weight:700;}.cls-10{letter-spacing:-0.03em;}.cls-11{letter-spacing:0.01em;}.cls-12{font-size:34.97px;}.cls-13{letter-spacing:-0.01em;}.cls-14{letter-spacing:0.01em;}.cls-15{letter-spacing:0em;}.cls-16{letter-spacing:-0.03em;}.cls-17{fill:none;stroke:blue;stroke-miterlimit:10;stroke-width:4px;}.cls-18{fill:#fff;}.cls-19{fill:#ffe368;}.cls-20{fill:#7594f9;}.cls-21{fill:#f2f2f2;}.cls-22{fill:#486afc;}.cls-23{opacity:0.89;}</style>
  </defs>
  <title
     id="title5364">zahlavi_bile_vystupy_novyvizual</title>
  <g
     id="g6338"
     transform="translate(-692.07001)">
    <rect
       class="cls-2"
       x="692.07001"
       width="155"
       height="84.480003"
       id="rect5368"
       y="0"
       style="fill:#0000ff" />
    <path
       class="cls-18"
       d="m 720.07,28.24 h 4.36 v 28 h -4.36 z m 4.52,0 h 1.48 l 2.72,28 h -1.48 z m 7.08,0 h 1.48 l -2.72,28 H 729 Z m 1.64,0 h 4.4 v 28 h -4.4 z"
       id="path5426"
       inkscape:connector-curvature="0"
       style="fill:#ffffff" />
    <path
       class="cls-18"
       d="m 754.23,28.24 v 21.4 a 2.45,2.45 0 0 0 0.82,1.84 2.62,2.62 0 0 0 1.82,0.76 2.59,2.59 0 0 0 1.82,-0.76 2.41,2.41 0 0 0 0.82,-1.84 v -21.4 h 4.4 V 49.8 a 5.94,5.94 0 0 1 -1,3.36 7.34,7.34 0 0 1 -2.62,2.42 6.95,6.95 0 0 1 -6.84,0 7.43,7.43 0 0 1 -2.62,-2.42 6,6 0 0 1 -1,-3.36 V 28.24 Z"
       id="path5428"
       inkscape:connector-curvature="0"
       style="fill:#ffffff" />
    <path
       class="cls-18"
       d="m 781.87,28.24 v 28 h -4.4 v -28 z m 1.68,0 4.16,28 h -1.52 l -4.16,-28 z m 8.72,0 v 28 h -4.4 v -28 z"
       id="path5430"
       inkscape:connector-curvature="0"
       style="fill:#ffffff" />
    <path
       class="cls-18"
       d="M 810.63,54.68 V 29.8 h -3.76 v -1.56 h 12 V 29.8 H 815 v 24.88 h 3.8 v 1.56 h -12 v -1.56 z"
       id="path5432"
       inkscape:connector-curvature="0"
       style="fill:#ffffff" />
  </g>
</svg>
