<?xml version="1.0" encoding="UTF-8" standalone="no"?>
<!-- Created with Inkscape (http://www.inkscape.org/) -->

<svg
   xmlns:dc="http://purl.org/dc/elements/1.1/"
   xmlns:cc="http://creativecommons.org/ns#"
   xmlns:rdf="http://www.w3.org/1999/02/22-rdf-syntax-ns#"
   xmlns:svg="http://www.w3.org/2000/svg"
   xmlns="http://www.w3.org/2000/svg"
   xmlns:sodipodi="http://sodipodi.sourceforge.net/DTD/sodipodi-0.dtd"
   xmlns:inkscape="http://www.inkscape.org/namespaces/inkscape"
   width="58.418488mm"
   height="39.80286mm"
   viewBox="0 0 58.418488 39.80286"
   version="1.1"
   id="svg4957"
   inkscape:version="0.92.1 r15371"
   sodipodi:docname="mu_stitek.svg">
  <defs
     id="defs4951">
    <clipPath
       clipPathUnits="userSpaceOnUse"
       id="clipPath754">
      <path
         d="M 0,365.377 H 1920 V 0 H 0 Z"
         id="path752"
         inkscape:connector-curvature="0" />
    </clipPath>
  </defs>
  <sodipodi:namedview
     id="base"
     pagecolor="#ffffff"
     bordercolor="#666666"
     borderopacity="1.0"
     inkscape:pageopacity="0.0"
     inkscape:pageshadow="2"
     inkscape:zoom="0.98994949"
     inkscape:cx="316.2873"
     inkscape:cy="-39.670524"
     inkscape:document-units="mm"
     inkscape:current-layer="layer1"
     showgrid="false"
     inkscape:window-width="1920"
     inkscape:window-height="1182"
     inkscape:window-x="0"
     inkscape:window-y="0"
     inkscape:window-maximized="1"
     fit-margin-top="0"
     fit-margin-left="0"
     fit-margin-right="0"
     fit-margin-bottom="0" />
  <metadata
     id="metadata4954">
    <rdf:RDF>
      <cc:Work
         rdf:about="">
        <dc:format>image/svg+xml</dc:format>
        <dc:type
           rdf:resource="http://purl.org/dc/dcmitype/StillImage" />
        <dc:title></dc:title>
      </cc:Work>
    </rdf:RDF>
  </metadata>
  <g
     inkscape:label="Layer 1"
     inkscape:groupmode="layer"
     id="layer1"
     transform="translate(94.221149,-86.598571)">
    <path
       d="m -94.221149,126.40143 h 15.940616 V 86.598571 h -15.940616 z"
       style="fill:#054899;fill-opacity:1;fill-rule:nonzero;stroke:none;stroke-width:0.35277775"
       id="path746"
       inkscape:connector-curvature="0" />
    <g
       transform="matrix(0.35277777,0,0,-0.35277777,-236.04063,215.49545)"
       id="g748">
      <g
         id="g750"
         clip-path="url(#clipPath754)">
        <g
           id="g756"
           transform="translate(437.3604,300.9259)">
          <path
             d="m 0,0 c -1.329,0 -2.392,-1.063 -2.392,-2.392 v -21.264 c 0,-1.994 -0.665,-3.721 -1.994,-5.051 v 26.448 c 0,1.196 -0.797,2.126 -1.993,2.259 -1.063,0.133 -2.127,-0.531 -2.392,-1.595 -3.855,-15.815 -3.988,-15.948 -3.988,-15.948 0,0 0,0.133 -3.987,15.948 -0.266,1.064 -1.462,1.728 -2.525,1.595 -1.196,-0.133 -1.994,-1.063 -1.994,-2.259 v -26.315 c -1.195,1.462 -1.993,3.19 -1.993,5.051 v 21.264 c 0,1.329 -1.063,2.392 -2.392,2.392 -1.329,0 -2.26,-1.063 -2.26,-2.392 v -21.264 c 0,-7.443 6.645,-12.759 15.018,-12.759 8.373,0 15.018,5.183 15.018,12.759 V -2.259 C 2.259,-1.063 1.329,0 0,0 m -16.746,-31.498 v 13.423 c 0,0 0.133,-0.797 2.791,-10.764 0.133,-0.532 0.532,-0.931 1.329,-0.931 0.797,0 1.196,0.399 1.329,0.931 0.797,3.056 2.791,10.631 2.791,10.631 V -31.63 c -1.196,-0.399 -2.658,-0.665 -3.987,-0.665 -1.728,0.133 -3.057,0.399 -4.253,0.797"
             style="fill:#ffffff;fill-opacity:1;fill-rule:nonzero;stroke:none"
             id="path758"
             inkscape:connector-curvature="0" />
        </g>
        <g
           id="g760"
           transform="translate(464.2065,300.7931)">
          <path
             d="M 0,0 H 2.126 L 4.784,-8.904 7.841,0 h 2.127 l 1.595,-11.031 -1.994,-0.265 -0.93,8.638 -2.791,-8.373 H 3.721 L 1.196,-2.658 0,-11.296 l -1.994,0.265 z"
             style="fill:#054899;fill-opacity:1;fill-rule:nonzero;stroke:none"
             id="path762"
             inkscape:connector-curvature="0" />
        </g>
        <g
           id="g764"
           transform="translate(482.1484,298.6667)">
          <path
             d="m 0,0 v 0 l -1.462,-4.253 h 2.658 z m -3.19,-9.17 -1.86,0.531 4.252,10.633 H 1.063 L 5.05,-8.639 3.057,-9.17 1.993,-5.98 h -3.854 z"
             style="fill:#054899;fill-opacity:1;fill-rule:nonzero;stroke:none"
             id="path766"
             inkscape:connector-curvature="0" />
        </g>
        <g
           id="g768"
           transform="translate(491.3184,289.4967)">
          <path
             d="m 0,0 c -1.063,0 -1.994,0.266 -3.057,0.797 l 0.798,1.595 c 0.531,-0.399 1.329,-0.797 1.993,-0.797 1.196,0 1.728,0.664 1.728,1.594 0,2.127 -4.519,1.33 -4.519,5.051 0,1.861 1.462,3.189 3.722,3.189 1.063,0 2.126,-0.398 3.056,-0.93 L 2.924,9.037 C 2.259,9.436 1.595,9.834 0.797,9.834 c -0.93,0 -1.86,-0.531 -1.86,-1.461 0,-2.127 4.651,-1.462 4.651,-5.051 C 3.588,1.462 1.994,0 0,0"
             style="fill:#054899;fill-opacity:1;fill-rule:nonzero;stroke:none"
             id="path770"
             inkscape:connector-curvature="0" />
        </g>
        <g
           id="g772"
           transform="translate(500.8872,298.6667)">
          <path
             d="m 0,0 v 0 l -1.462,-4.253 h 2.658 z m -3.189,-9.17 -1.861,0.531 4.253,10.633 h 1.86 L 5.05,-8.639 3.057,-9.17 1.994,-5.98 H -1.86 Z"
             style="fill:#054899;fill-opacity:1;fill-rule:nonzero;stroke:none"
             id="path774"
             inkscape:connector-curvature="0" />
        </g>
        <g
           id="g776"
           transform="translate(510.7222,295.7428)">
          <path
             d="M 0,0 C 0.532,0 1.861,0.266 1.861,1.728 1.861,2.791 1.063,3.323 0,3.323 H -1.196 V 0 Z M -0.665,-1.595 H -1.329 V -5.98 h -2.127 l 0.133,11.03 h 3.456 c 2.658,0 3.721,-1.462 3.721,-3.189 0,-1.462 -0.797,-2.393 -2.126,-2.924 L 4.917,-5.183 3.057,-6.246 0,-1.994 c -0.133,0.266 -0.399,0.399 -0.665,0.399"
             style="fill:#054899;fill-opacity:1;fill-rule:nonzero;stroke:none"
             id="path778"
             inkscape:connector-curvature="0" />
        </g>
        <g
           id="g780"
           transform="translate(519.228,294.2809)">
          <path
             d="M 0,0 -3.588,5.582 -1.728,6.645 1.196,1.994 4.12,6.645 5.98,5.582 2.259,0.133 2.126,-4.519 H 0 Z"
             style="fill:#054899;fill-opacity:1;fill-rule:nonzero;stroke:none"
             id="path782"
             inkscape:connector-curvature="0" />
        </g>
        <g
           id="g784"
           transform="translate(526.5376,300.7931)">
          <path
             d="M 0,0 H 2.126 V -5.183 L 6.645,0.133 8.107,-1.063 4.253,-5.449 8.107,-10.101 6.512,-11.296 2.126,-5.715 1.993,-11.031 H 0 Z"
             style="fill:#054899;fill-opacity:1;fill-rule:nonzero;stroke:none"
             id="path786"
             inkscape:connector-curvature="0" />
        </g>
        <g
           id="g788"
           transform="translate(537.4355,295.2111)">
          <path
             d="M 0,0 C 0,-2.392 1.462,-4.12 3.721,-4.12 5.98,-4.12 7.442,-2.259 7.442,0 7.442,2.393 5.98,4.12 3.721,4.12 1.994,4.12 0,2.525 0,0 m -2.126,0 c 0,3.19 2.658,5.715 5.847,5.715 3.589,0 5.981,-2.525 5.981,-5.715 0,-3.189 -2.525,-5.714 -5.981,-5.714 -3.189,0 -5.847,2.392 -5.847,5.714"
             style="fill:#054899;fill-opacity:1;fill-rule:nonzero;stroke:none"
             id="path790"
             inkscape:connector-curvature="0" />
        </g>
        <g
           id="g792"
           transform="translate(547.6689,300.2614)">
          <path
             d="M 0,0 2.126,0.665 4.917,-7.974 8.107,0.665 10.101,0 5.848,-10.499 H 3.987 Z"
             style="fill:#054899;fill-opacity:1;fill-rule:nonzero;stroke:none"
             id="path794"
             inkscape:connector-curvature="0" />
        </g>
        <g
           id="g796"
           transform="translate(562.5537,298.6667)">
          <path
             d="m 0,0 v 0 l -1.462,-4.253 h 2.658 z m -3.189,-9.17 -1.861,0.531 4.253,10.633 h 1.86 L 5.05,-8.639 3.057,-9.17 1.994,-5.98 H -1.86 Z"
             style="fill:#054899;fill-opacity:1;fill-rule:nonzero;stroke:none"
             id="path798"
             inkscape:connector-curvature="0" />
        </g>
        <g
           id="g800"
           transform="translate(467.2632,272.6178)">
          <path
             d="M 0,0 C 1.595,0 2.392,1.063 2.525,2.525 V 9.436 H 4.519 V 2.393 C 4.519,-0.266 2.658,-1.86 0,-1.86 c -2.658,0 -4.386,1.462 -4.386,4.385 v 6.911 h 1.994 V 2.393 C -2.525,0.931 -1.329,0 0,0"
             style="fill:#054899;fill-opacity:1;fill-rule:nonzero;stroke:none"
             id="path802"
             inkscape:connector-curvature="0" />
        </g>
        <g
           id="g804"
           transform="translate(474.4399,281.7882)">
          <path
             d="m 0,0 1.86,0.532 5.184,-8.373 -0.133,8.24 h 1.993 v -10.765 l -2.126,-0.532 -5.05,8.373 0.132,-8.107 h -1.993 z"
             style="fill:#054899;fill-opacity:1;fill-rule:nonzero;stroke:none"
             id="path806"
             inkscape:connector-curvature="0" />
        </g>
        <g
           id="g808"
           transform="translate(486.0024,282.1872)">
          <path
             d="M 0,0 H 1.994 V -11.031 H -0.133 Z"
             style="fill:#054899;fill-opacity:1;fill-rule:nonzero;stroke:none"
             id="path810"
             inkscape:connector-curvature="0" />
        </g>
        <g
           id="g812"
           transform="translate(489.458,281.6554)">
          <path
             d="M 0,0 1.993,0.665 4.917,-7.974 8.107,0.665 10.101,0 5.848,-10.5 H 3.854 Z"
             style="fill:#054899;fill-opacity:1;fill-rule:nonzero;stroke:none"
             id="path814"
             inkscape:connector-curvature="0" />
        </g>
        <g
           id="g816"
           transform="translate(506.8682,271.1559)">
          <path
             d="m 0,0 h -5.981 l 0.133,11.031 H 0 V 9.17 H -3.854 V 6.379 H 0 V 4.785 H -3.854 V 1.728 H 0 Z"
             style="fill:#054899;fill-opacity:1;fill-rule:nonzero;stroke:none"
             id="path818"
             inkscape:connector-curvature="0" />
        </g>
        <g
           id="g820"
           transform="translate(512.5825,277.1369)">
          <path
             d="M 0,0 C 0.532,0 1.861,0.266 1.861,1.728 1.861,2.791 1.063,3.322 0,3.322 H -1.196 V 0 Z M -0.664,-1.595 H -1.329 V -5.981 H -3.455 L -3.322,5.05 h 3.455 c 2.658,0 3.721,-1.462 3.721,-3.19 0,-1.462 -0.797,-2.392 -2.126,-2.923 L 4.917,-5.184 3.057,-6.247 0,-1.994 c -0.133,0.266 -0.398,0.399 -0.664,0.399"
             style="fill:#054899;fill-opacity:1;fill-rule:nonzero;stroke:none"
             id="path822"
             inkscape:connector-curvature="0" />
        </g>
        <g
           id="g824"
           transform="translate(526.1387,271.1559)">
          <path
             d="m 0,0 h -7.044 l -0.664,1.196 5.316,7.974 h -5.05 v 1.861 h 7.044 L 0.266,9.569 -4.917,1.728 H 0 Z"
             style="fill:#054899;fill-opacity:1;fill-rule:nonzero;stroke:none"
             id="path826"
             inkscape:connector-curvature="0" />
        </g>
        <g
           id="g828"
           transform="translate(528.1323,282.1872)">
          <path
             d="M 0,0 H 2.126 L 1.994,-11.031 h -2.127 z"
             style="fill:#054899;fill-opacity:1;fill-rule:nonzero;stroke:none"
             id="path830"
             inkscape:connector-curvature="0" />
        </g>
        <g
           id="g832"
           transform="translate(534.7773,280.3263)">
          <path
             d="M 0,0 H -3.189 V 1.861 H 5.05 V 0 H 1.994 L 1.861,-9.17 h -1.994 z"
             style="fill:#054899;fill-opacity:1;fill-rule:nonzero;stroke:none"
             id="path834"
             inkscape:connector-curvature="0" />
        </g>
        <g
           id="g836"
           transform="translate(544.3462,280.0607)">
          <path
             d="m 0,0 v 0 l -1.462,-4.253 h 2.658 z m -3.189,-9.17 -1.861,0.531 4.253,10.632 h 1.86 L 5.05,-8.639 3.057,-9.17 1.994,-5.981 H -1.86 Z"
             style="fill:#054899;fill-opacity:1;fill-rule:nonzero;stroke:none"
             id="path838"
             inkscape:connector-curvature="0" />
        </g>
      </g>
    </g>
  </g>
</svg>
