<?xml version="1.0" encoding="UTF-8"?>
<!-- Generator: Adobe Illustrator 16.0.0, SVG Export Plug-In . SVG Version: 6.00 Build 0)  -->
<!DOCTYPE svg PUBLIC "-//W3C//DTD SVG 1.1//EN" "http://www.w3.org/Graphics/SVG/1.1/DTD/svg11.dtd">
<svg version="1.1" id="Layer_1" xmlns="http://www.w3.org/2000/svg" xmlns:xlink="http://www.w3.org/1999/xlink" x="0px" y="0px" width="1000px" height="1000px" viewBox="0 0 1000 1000" enable-background="new 0 0 1000 1000" xml:space="preserve">
<circle fill="#FAAC40" cx="500" cy="500" r="473.937"/>
<circle fill="#F7DDBC" cx="500" cy="500" r="418.439"/>
<polygon fill="#FAAC40" points="203.175,290 641.388,290 655.715,344.466 626.239,394.047 277.855,397.682 500.597,785.695   432.05,785.695 173.808,336.516 "/>
<polygon fill="#60411A" points="616.907,336.516 641.388,290 655.715,344.466 626.239,394.047 "/>
<polygon points="542.228,518.88 544.669,520.128 570.396,474.81 567.951,473.61 "/>
<polygon fill="#FAAC40" points="640.142,342.646 701.359,342.646 440.625,796.713 509.176,799.152 801.715,290 670.752,290 "/>
<polygon fill="#AD732C" points="173.808,336.516 616.907,336.516 641.388,290 203.175,290 "/>
<polygon fill="#60411A" points="509.176,799.152 534.899,840.784 826.193,340.15 801.715,290 "/>
<polygon fill="#AD732C" points="640.142,342.646 646.333,393.202 672.328,393.202 701.359,342.646 "/>
<polygon fill="#AD732C" points="567.951,473.61 570.396,474.81 578.971,516.435 553.246,566.64 544.669,520.128 542.228,518.88   381.898,518.88 408.82,473.61 "/>
<polygon fill="#AD732C" points="440.625,796.713 509.176,799.152 534.899,840.784 462.859,837.505 "/>
<polygon fill="#60411A" points="544.669,520.128 570.396,474.81 578.971,516.435 553.246,566.64 "/>
<polygon fill="#AD732C" points="526.323,737.986 500.597,785.695 277.855,397.682 335.577,398.191 "/>
<polygon fill="#FAAC40" points="381.898,518.88 542.228,518.88 544.669,520.128 553.246,566.64 392.952,566.64 382.595,523.06 "/>
</svg>