<?xml version="1.0" encoding="UTF-8" standalone="no"?>
<!-- Created with Inkscape (http://www.inkscape.org/) -->

<svg
   xmlns:dc="http://purl.org/dc/elements/1.1/"
   xmlns:cc="http://creativecommons.org/ns#"
   xmlns:rdf="http://www.w3.org/1999/02/22-rdf-syntax-ns#"
   xmlns:svg="http://www.w3.org/2000/svg"
   xmlns="http://www.w3.org/2000/svg"
   xmlns:sodipodi="http://sodipodi.sourceforge.net/DTD/sodipodi-0.dtd"
   xmlns:inkscape="http://www.inkscape.org/namespaces/inkscape"
   width="19.425014mm"
   height="13.229167mm"
   viewBox="0 0 19.425015 13.229167"
   version="1.1"
   id="svg8"
   inkscape:version="0.92.1 r15371"
   sodipodi:docname="econ.svg">
  <defs
     id="defs2">
    <clipPath
       id="clipPath4522"
       clipPathUnits="userSpaceOnUse">
      <path
         inkscape:connector-curvature="0"
         id="path4520"
         d="M 0,77.453 H 101.603 V 0 H 0 Z" />
    </clipPath>
  </defs>
  <sodipodi:namedview
     id="base"
     pagecolor="#ffffff"
     bordercolor="#666666"
     borderopacity="1.0"
     inkscape:pageopacity="0.0"
     inkscape:pageshadow="2"
     inkscape:zoom="1.4"
     inkscape:cx="-319.11361"
     inkscape:cy="74.925748"
     inkscape:document-units="mm"
     inkscape:current-layer="layer1"
     showgrid="false"
     fit-margin-top="0"
     fit-margin-left="0"
     fit-margin-right="0"
     fit-margin-bottom="0"
     inkscape:window-width="1920"
     inkscape:window-height="1182"
     inkscape:window-x="0"
     inkscape:window-y="0"
     inkscape:window-maximized="1" />
  <metadata
     id="metadata5">
    <rdf:RDF>
      <cc:Work
         rdf:about="">
        <dc:format>image/svg+xml</dc:format>
        <dc:type
           rdf:resource="http://purl.org/dc/dcmitype/StillImage" />
        <dc:title />
      </cc:Work>
    </rdf:RDF>
  </metadata>
  <g
     inkscape:label="Layer 1"
     inkscape:groupmode="layer"
     id="layer1"
     transform="translate(-351.11361,-328.32805)">
    <g
       transform="matrix(0.25848667,0,0,-0.25848667,347.69538,344.9291)"
       inkscape:label="econ-lg-eng-cmyk"
       id="g4512"
       style="fill:#bbbbbb;fill-opacity:1;stroke:none;stroke-opacity:1">
      <path
         inkscape:connector-curvature="0"
         id="path4514"
         style="fill:#bbbbbb;fill-opacity:1;fill-rule:nonzero;stroke:none;stroke-opacity:1"
         d="m 23.153,64.224 h 3.3 V 43.225 h -3.3 z m -1.229,0 h 1.109 l -2.04,-20.999 h -1.109 z m -5.311,0 h 1.111 l 2.04,-20.999 h -1.111 z m -3.389,0 h 3.271 V 43.225 h -3.271 z" />
      <g
         id="g4516"
         style="fill:#bbbbbb;fill-opacity:1;stroke:none;stroke-opacity:1">
        <g
           clip-path="url(#clipPath4522)"
           id="g4518"
           style="fill:#bbbbbb;fill-opacity:1;stroke:none;stroke-opacity:1">
          <g
             transform="translate(38.8428,64.2236)"
             id="g4524"
             style="fill:#bbbbbb;fill-opacity:1;stroke:none;stroke-opacity:1">
            <path
               inkscape:connector-curvature="0"
               id="path4526"
               style="fill:#bbbbbb;fill-opacity:1;fill-rule:nonzero;stroke:none;stroke-opacity:1"
               d="m 0,0 v -16.049 c 0,-1.14 1.021,-1.95 1.98,-1.95 0.96,0 1.98,0.81 1.98,1.95 V 0 h 3.3 v -16.17 c 0,-2.819 -2.55,-5.01 -5.28,-5.01 -2.73,0 -5.28,2.191 -5.28,5.01 L -3.3,0 Z" />
          </g>
          <path
             inkscape:connector-curvature="0"
             id="path4528"
             style="fill:#bbbbbb;fill-opacity:1;fill-rule:nonzero;stroke:none;stroke-opacity:1"
             d="m 67.373,43.225 h -3.301 v 20.999 h 3.301 z m -6.54,20.999 3.12,-20.999 h -1.14 l -3.12,20.999 z m -1.26,-20.999 h -3.3 v 20.999 h 3.3 z" />
          <g
             transform="translate(81.1426,44.3945)"
             id="g4530"
             style="fill:#bbbbbb;fill-opacity:1;stroke:none;stroke-opacity:1">
            <path
               inkscape:connector-curvature="0"
               id="path4532"
               style="fill:#bbbbbb;fill-opacity:1;fill-rule:nonzero;stroke:none;stroke-opacity:1"
               d="m 0,0 v 18.659 h -2.819 v 1.17 H 6.15 v -1.17 H 3.3 V 0 H 6.15 V -1.17 H -2.819 V 0 Z" />
          </g>
          <g
             transform="translate(15.2334,34.2236)"
             id="g4534"
             style="fill:#bbbbbb;fill-opacity:1;stroke:none;stroke-opacity:1">
            <path
               inkscape:connector-curvature="0"
               id="path4536"
               style="fill:#bbbbbb;fill-opacity:1;fill-rule:nonzero;stroke:none;stroke-opacity:1"
               d="m 0,0 h 10.02 v -1.5 h -8.4 v -7.739 h 8.04 v -1.5 H 1.62 v -8.76 h 8.4 v -1.5 H 0 Z" />
          </g>
          <g
             transform="translate(35.8428,18.0547)"
             id="g4538"
             style="fill:#bbbbbb;fill-opacity:1;stroke:none;stroke-opacity:1">
            <path
               inkscape:connector-curvature="0"
               id="path4540"
               style="fill:#bbbbbb;fill-opacity:1;fill-rule:nonzero;stroke:none;stroke-opacity:1"
               d="m 0,0 v 11.339 c 0,2.881 2.34,5.01 5.19,5.01 2.88,0 5.19,-2.129 5.19,-5.01 V 10.56 H 8.76 v 0.75 c 0,1.949 -1.71,3.479 -3.57,3.479 -1.919,0 -3.57,-1.53 -3.57,-3.479 V 0.029 c 0,-1.949 1.651,-3.479 3.57,-3.479 1.86,0 3.57,1.53 3.57,3.479 V 0.72 h 1.62 V 0 C 10.38,-2.97 8.07,-5.01 5.19,-5.01 2.34,-5.01 0,-2.97 0,0" />
          </g>
          <g
             transform="translate(61.8232,32.8438)"
             id="g4542"
             style="fill:#bbbbbb;fill-opacity:1;stroke:none;stroke-opacity:1">
            <path
               inkscape:connector-curvature="0"
               id="path4544"
               style="fill:#bbbbbb;fill-opacity:1;fill-rule:nonzero;stroke:none;stroke-opacity:1"
               d="M 0,0 C -1.92,0 -3.57,-1.351 -3.57,-3.479 V -14.76 c 0,-2.13 1.65,-3.479 3.57,-3.479 1.859,0 3.569,1.349 3.569,3.479 V -3.479 C 3.569,-1.351 1.859,0 0,0 m 0,1.56 c 2.88,0 5.189,-2.1 5.189,-5.01 v -11.339 c 0,-2.97 -2.309,-5.01 -5.189,-5.01 -2.88,0 -5.19,2.04 -5.19,5.01 V -3.45 c 0,2.91 2.31,5.01 5.19,5.01" />
          </g>
          <path
             inkscape:connector-curvature="0"
             id="path4546"
             style="fill:#bbbbbb;fill-opacity:1;fill-rule:nonzero;stroke:none;stroke-opacity:1"
             d="m 88.373,13.225 h -1.62 v 20.999 h 1.62 z m -8.25,20.999 6.51,-20.999 h -1.17 l -6.45,20.999 z m -1.23,-20.999 h -1.619 v 20.999 h 1.619 z" />
        </g>
      </g>
    </g>
  </g>
</svg>
