<?xml version="1.0" encoding="UTF-8" standalone="no"?>
<!-- Created with Inkscape (http://www.inkscape.org/) -->

<svg
   xmlns:dc="http://purl.org/dc/elements/1.1/"
   xmlns:cc="http://creativecommons.org/ns#"
   xmlns:rdf="http://www.w3.org/1999/02/22-rdf-syntax-ns#"
   xmlns:svg="http://www.w3.org/2000/svg"
   xmlns="http://www.w3.org/2000/svg"
   xmlns:sodipodi="http://sodipodi.sourceforge.net/DTD/sodipodi-0.dtd"
   xmlns:inkscape="http://www.inkscape.org/namespaces/inkscape"
   width="24.000051mm"
   height="24.03299mm"
   viewBox="0 0 24.000051 24.03299"
   version="1.1"
   id="svg8"
   inkscape:version="0.92.1 r15371"
   sodipodi:docname="esf.svg">
  <defs
     id="defs2">
    <clipPath
       id="clipPath4609"
       clipPathUnits="userSpaceOnUse">
      <path
         inkscape:connector-curvature="0"
         id="path4607"
         d="M 0,70.866 H 70.866 V 0 H 0 Z" />
    </clipPath>
  </defs>
  <sodipodi:namedview
     id="base"
     pagecolor="#ffffff"
     bordercolor="#666666"
     borderopacity="1.0"
     inkscape:pageopacity="0.0"
     inkscape:pageshadow="2"
     inkscape:zoom="3.959798"
     inkscape:cx="-49.051152"
     inkscape:cy="46.177937"
     inkscape:document-units="mm"
     inkscape:current-layer="layer1"
     showgrid="false"
     fit-margin-top="0"
     fit-margin-left="0"
     fit-margin-right="0"
     fit-margin-bottom="0"
     inkscape:window-width="1920"
     inkscape:window-height="1182"
     inkscape:window-x="0"
     inkscape:window-y="0"
     inkscape:window-maximized="1" />
  <metadata
     id="metadata5">
    <rdf:RDF>
      <cc:Work
         rdf:about="">
        <dc:format>image/svg+xml</dc:format>
        <dc:type
           rdf:resource="http://purl.org/dc/dcmitype/StillImage" />
        <dc:title></dc:title>
      </cc:Work>
    </rdf:RDF>
  </metadata>
  <g
     inkscape:label="Layer 1"
     inkscape:groupmode="layer"
     id="layer1"
     transform="translate(-332.71426,-317.48945)">
    <path
       inkscape:connector-curvature="0"
       id="path4613"
       style="fill:#bbbbbb;fill-opacity:1;fill-rule:nonzero;stroke:none;stroke-width:0.35277778"
       d="m 343.49056,317.71241 0.005,-7.1e-4 0.27446,0.58456 -0.44133,0.0455 z m -0.20567,0.77541 0.55563,-0.0579 0.23071,0.45579 0.16228,-0.072 -0.67028,-1.26188 -0.15945,0.0166 -0.42722,1.38077 0.16052,0.0324 z m -4.5907,1.8034 c 0.0847,0.12417 0.0483,0.26458 -0.0825,0.35383 -0.0878,0.0614 -0.20355,0.0829 -0.2921,0.0804 l 0.007,0.14147 c 0.1344,-0.007 0.24412,-0.0374 0.36689,-0.12136 0.24447,-0.16686 0.2547,-0.40146 0.14146,-0.56691 -0.23989,-0.34996 -0.70238,0.0494 -0.8696,-0.19509 -0.0931,-0.13582 -0.0243,-0.27022 0.0723,-0.3369 0.10442,-0.0713 0.19756,-0.0773 0.29351,-0.079 l -0.0166,-0.13864 c -0.12629,0.009 -0.24659,0.0406 -0.35666,0.11641 -0.19755,0.13582 -0.25541,0.35137 -0.13687,0.52494 0.2667,0.38946 0.67874,-0.0635 0.87347,0.22084 m 5.80284,-2.67688 h 0.20109 c 0.21872,10e-4 0.30056,0.1277 0.30021,0.27305 0,0.19473 -0.17286,0.25506 -0.33866,0.254 h -0.16793 z m -0.004,0.65616 h 0.10724 c 0.127,7.1e-4 0.17039,0.078 0.25153,0.18698 l 0.3168,0.43427 0.14922,-0.0893 -0.27128,-0.36124 c -0.0564,-0.0677 -0.13159,-0.19262 -0.2219,-0.20885 v -0.004 c 0.19015,-0.0243 0.34078,-0.15275 0.34113,-0.37394 0.001,-0.22508 -0.17321,-0.35596 -0.42862,-0.35666 l -0.40781,-10e-4 -0.0159,1.35114 h 0.17004 z m -3.2505,-0.10407 0.004,-0.001 0.38206,0.51999 -0.42404,0.12947 z m -1.60866,1.97697 -0.31927,-1.12783 0.004,-7e-4 0.83185,0.85795 0.14534,-0.0677 -0.0952,-1.20015 0.004,-0.002 0.64382,0.97579 0.13688,-0.0938 -0.004,-0.006 0.16122,10e-4 0.0487,-0.51329 0.5341,-0.16369 0.31539,0.40146 0.14464,-0.1016 -0.90206,-1.10843 -0.15275,0.0476 -0.15134,1.43369 -0.75812,-1.12642 -0.16475,0.0769 0.0818,1.2192 -0.85055,-0.86148 -0.15734,0.0737 0.34643,1.32856 z m 3.10409,-1.46755 c 0.03,0.14746 -0.0586,0.26282 -0.21414,0.29457 -0.10477,0.0208 -0.21907,-0.004 -0.30056,-0.0402 l -0.0487,0.133 c 0.12665,0.0459 0.23954,0.0607 0.38559,0.031 0.29069,-0.0586 0.39158,-0.26987 0.35101,-0.46743 -0.0843,-0.41522 -0.66534,-0.22825 -0.7246,-0.51929 -0.0335,-0.15981 0.0829,-0.25682 0.19826,-0.28081 0.12418,-0.025 0.21237,0.005 0.30127,0.0413 l 0.0385,-0.1337 c -0.11994,-0.042 -0.24271,-0.0586 -0.37324,-0.0325 -0.23565,0.0483 -0.37253,0.22542 -0.33125,0.43003 0.0938,0.46355 0.64981,0.20708 0.7179,0.54399 m -4.70641,19.92347 -0.13547,-0.0988 0.31221,-0.42475 0.16228,0.11818 c 0.1778,0.12735 0.16933,0.27975 0.0847,0.39582 -0.11466,0.15804 -0.28963,0.10654 -0.42369,0.01 m 0.57856,0.0625 c 0.13193,-0.18204 0.0681,-0.39018 -0.139,-0.53975 l -0.33055,-0.23954 -0.80222,1.08761 0.13758,0.10054 0.34502,-0.46425 0.0878,0.0632 c 0.10301,0.0737 0.0914,0.16227 0.0949,0.29809 l 0.004,0.53728 0.17286,0.0148 -0.009,-0.44979 c -0.006,-0.0892 0.006,-0.23566 -0.0579,-0.30092 l 0.003,-0.002 c 0.16792,0.09 0.36512,0.0741 0.49389,-0.10477 m -2.36644,-1.52012 -0.29069,-0.33585 0.60819,-0.22825 0.002,0.004 z m 0.38594,-0.71791 -1.37619,0.44309 0.066,0.15029 0.4886,-0.16228 0.36618,0.42121 -0.23918,0.45085 0.15099,0.091 0.64841,-1.27353 z m 0.71579,0.89747 c 0.0924,0.0875 0.11782,0.17674 0.1397,0.26952 l 0.13088,-0.0444 c -0.0342,-0.12206 -0.0907,-0.23283 -0.18733,-0.32455 -0.17427,-0.1644 -0.39864,-0.17533 -0.54151,-0.0247 -0.32632,0.3429 0.20285,0.65158 -0.0342,0.90064 -0.10407,0.10936 -0.24871,0.10301 -0.36336,-0.006 -0.0783,-0.0744 -0.12383,-0.18204 -0.1397,-0.27058 l -0.13759,0.037 c 0.0353,0.13017 0.0875,0.23177 0.19544,0.33302 0.21485,0.20461 0.44591,0.16616 0.58491,0.0201 0.29139,-0.30692 -0.19579,-0.67592 0.008,-0.89077 0.11324,-0.11959 0.25893,-0.0801 0.34431,7.1e-4 m 1.44568,1.90394 0.44168,0.26141 0.0713,-0.1203 -0.44309,-0.26352 0.23742,-0.39264 0.45544,0.27058 0.0716,-0.12171 -0.59796,-0.3549 -0.69956,1.15747 0.61489,0.36442 0.0723,-0.12136 -0.46743,-0.27728 z m 10.92376,-20.34399 0.004,0.002 0.15805,1.32256 0.15593,0.0173 0.61207,-1.17405 -0.15135,-0.0765 -0.49212,0.94721 -0.004,-0.002 -0.16863,-1.3155 -0.1524,-0.0102 -0.60995,1.1684 0.15134,0.078 z m -4.02766,0.0113 0.16722,0.0166 0.0695,-0.57326 0.58138,-0.66005 -0.13758,-0.10054 -0.50447,0.62406 -0.34643,-0.70979 -0.15981,0.0684 0.39934,0.76024 z m 3.14219,-0.5087 0.003,0.002 -0.0113,0.64488 -0.41593,-0.15346 z m -0.87842,0.98354 0.35067,-0.37853 0.52422,0.19332 0.006,0.51047 0.17674,0.008 -0.0448,-1.4291 -0.15028,-0.0554 -0.99272,1.05199 z m -1.33279,-0.35242 0.14499,-0.67134 0.14005,-0.64946 -0.1651,-0.0339 -0.28469,1.3215 z m 1.08232,0.25788 0.37924,-1.29717 -0.16228,-0.0455 -0.37924,1.29646 z m -0.28293,-0.17851 -0.44908,-0.71296 0.6858,-0.45473 -0.0935,-0.12489 -0.79763,0.54187 0.50765,0.83397 z m -10.67188,3.33657 -1.00965,-0.89852 -0.11041,0.12664 1.00859,0.89853 z m -3.68158,7.46231 c 0.005,0.18838 0.16051,0.33302 0.34819,0.32703 0.18803,-0.006 0.33231,-0.16193 0.32702,-0.34855 -0.006,-0.18697 -0.16192,-0.33337 -0.34925,-0.32632 -0.18732,0.006 -0.33231,0.16087 -0.32596,0.34784 m 0.48295,-0.90805 c 0.41063,0.0385 0.56056,-0.18344 0.58702,-0.47307 0.0254,-0.26318 -0.0533,-0.54787 -0.48366,-0.59443 l -0.83749,-0.084 -0.0155,0.16722 0.82832,0.0829 c 0.3048,0.0289 0.38805,0.2092 0.37006,0.40393 -0.0226,0.23848 -0.1457,0.35631 -0.39193,0.33373 -0.12489,-0.0113 -0.25295,-0.025 -0.37924,-0.0392 l -0.49565,-0.0501 -0.0152,0.16722 0.46672,0.0469 c 0.13759,0.0155 0.25788,0.0282 0.36654,0.0388 m -0.66957,-1.68557 0.0293,0.15099 1.28446,0.2928 0.037,-0.16651 -1.05128,-0.23742 7.1e-4,-0.004 1.23825,-0.48965 -0.0226,-0.15487 -1.29046,-0.29386 -0.0367,0.16615 1.04246,0.23601 -0.001,0.004 z m 1.67463,-1.00401 -1.2894,-0.40746 -0.0483,0.16017 1.28799,0.40816 z m 1.72085,9.93705 0.11395,-0.0822 -0.59972,-0.82903 -0.11395,0.0822 0.25012,0.34643 -0.98707,0.70097 0.0984,0.13511 0.98743,-0.69991 z m -2.78765,-4.80519 0.14041,-0.019 -0.0734,-0.53622 0.45579,-0.0575 0.0741,0.54962 0.1397,-0.019 -0.0967,-0.71613 -1.34091,0.17003 0.0226,0.16722 0.60713,-0.073 z m 1.13983,3.59269 0.75882,-0.36477 -0.0737,-0.15134 -0.75036,0.36054 c -0.27516,0.13405 -0.44026,0.024 -0.52564,-0.1517 -0.10583,-0.21555 -0.0628,-0.38065 0.16017,-0.48895 0.11218,-0.0554 0.2293,-0.10936 0.34395,-0.16369 l 0.44874,-0.2159 -0.0734,-0.15063 -0.42263,0.20214 c -0.12523,0.0593 -0.23495,0.11112 -0.33337,0.1591 -0.36971,0.18098 -0.38277,0.44838 -0.25506,0.70979 0.11571,0.23565 0.33055,0.43956 0.72249,0.25541 m -0.98037,-2.75096 -0.0984,-0.43251 0.64453,0.0847 3.5e-4,0.004 z m 0.67839,-0.45191 -1.42275,-0.25647 -0.0134,0.16369 0.50906,0.0857 0.12418,0.54433 -0.42334,0.2861 0.0903,0.15135 1.17157,-0.81845 z m 1.94698,-10.6486 0.84737,0.86466 0.11924,-0.11888 -0.84737,-0.86537 0.30198,-0.30162 -0.0995,-0.0998 -0.7239,0.72284 0.0991,0.0998 z m 15.02551,-1.52435 0.004,0.002 -0.16122,0.62548 -0.369,-0.24695 z m -1.08303,0.75177 0.42898,-0.28575 0.46496,0.30939 -0.11183,0.49812 0.16969,0.048 0.28963,-1.39806 -0.13335,-0.0892 -1.21003,0.79022 z m -13.09405,0.008 0.003,-0.003 0.55386,0.33125 -0.33902,0.28399 z m 0.41698,1.24989 -0.15451,-0.49212 0.42827,-0.35807 0.44697,0.24694 0.0935,-0.14887 -1.26189,-0.67169 -0.12241,0.10301 0.41874,1.38324 z m -2.55975,1.99038 -0.44344,-0.28575 0.10759,-0.16969 c 0.11713,-0.18486 0.26882,-0.18591 0.39088,-0.10936 0.16404,0.10513 0.12383,0.28257 0.0346,0.42368 z m 0.59372,0.38417 -0.48401,-0.31644 0.0575,-0.091 c 0.0677,-0.1076 0.15769,-0.1016 0.2921,-0.11359 l 0.53657,-0.037 0.004,-0.17251 -0.44874,0.0363 c -0.0885,0.0113 -0.23424,0.009 -0.29598,0.0762 l -0.003,-0.002 c 0.0801,-0.17427 0.0515,-0.36971 -0.13476,-0.48789 -0.1898,-0.12065 -0.39335,-0.0438 -0.53058,0.17215 l -0.21837,0.34467 1.13524,0.73413 z m -0.1658,0.27975 -0.12594,-0.0649 -0.2473,0.48331 -0.41698,-0.21731 0.23353,-0.45756 -0.12488,-0.0639 -0.2353,0.45896 -0.4064,-0.21237 0.24095,-0.47131 -0.12453,-0.0642 -0.3168,0.61877 1.19768,0.62653 z m -2.05352,1.38748 1.41428,-0.009 0.0579,-0.14605 -1.03011,-1.01918 -0.1009,0.12841 0.91864,0.88724 -1.26154,-0.0173 z m 1.88418,-3.02154 c 0.3743,0.28857 0.62654,-0.26917 0.89853,-0.0593 0.11994,0.0917 0.12841,0.23671 0.0317,0.3616 -0.0653,0.085 -0.16792,0.14181 -0.254,0.16616 l 0.0505,0.1337 c 0.12629,-0.0487 0.22119,-0.11077 0.31115,-0.22895 0.18203,-0.23495 0.11888,-0.46073 -0.0399,-0.58385 -0.33549,-0.25859 -0.65299,0.26388 -0.88759,0.0829 -0.13017,-0.0995 -0.10653,-0.24871 -0.0346,-0.34149 0.0773,-0.10054 0.16334,-0.13582 0.254,-0.16721 l -0.0582,-0.12559 c -0.11818,0.0469 -0.22154,0.115 -0.30197,0.22013 -0.14711,0.18979 -0.13441,0.41346 0.0303,0.54187 m 0.35702,12.31547 -0.0882,-0.14252 -1.15393,0.70379 0.39299,0.63182 0.11924,-0.0744 -0.3041,-0.48966 z m 14.27021,3.83646 0.47625,0.95638 -0.003,0.002 -1.16346,-0.63747 -0.0977,0.11748 0.58737,1.17969 0.15099,-0.0769 -0.48189,-0.96414 0.004,-0.002 1.16311,0.64841 0.10513,-0.11501 -0.58914,-1.18568 z m 2.25707,-17.85303 0.11748,0.10619 c 0.14464,0.13088 0.17462,0.27234 0.0649,0.39476 -0.12524,0.13899 -0.25612,0.12065 -0.38382,0.006 l -0.14711,-0.1323 z m 0.4004,-0.4385 0.0995,0.09 c 0.16122,0.14499 0.16898,0.26246 0.0681,0.37394 -0.0924,0.10337 -0.22366,0.11113 -0.38735,-0.037 l -0.0945,-0.0843 z m -0.10407,1.06362 c 0.11536,-0.1277 0.12806,-0.28751 0.0212,-0.4258 l 0.002,-0.003 c 0.14605,0.0709 0.27658,0.0483 0.3877,-0.0737 0.10055,-0.11218 0.14394,-0.31221 -0.0772,-0.51153 l -0.2787,-0.25012 -0.91264,0.99554 0.28187,0.25471 c 0.19685,0.17709 0.41487,0.19191 0.57538,0.0137 m 1.6249,13.34418 0.63359,0.12417 -0.22437,0.38277 -0.4124,-0.50342 z m -0.17039,-0.0113 0.86148,1.16064 0.12065,-0.11007 -0.31115,-0.41063 0.28258,-0.4819 0.50412,0.0822 0.0374,-0.17251 -1.41393,-0.20602 z m 0.46954,1.53917 c -0.18732,0.25082 -0.52211,0.28081 -0.77258,0.0938 -0.25012,-0.18627 -0.31644,-0.51682 -0.12982,-0.76694 0.0797,-0.10654 0.16545,-0.17921 0.29104,-0.21943 l -0.0646,-0.13511 c -0.13582,0.0635 -0.242,0.14146 -0.33866,0.27058 -0.23954,0.32138 -0.19721,0.74753 0.1337,0.99483 0.35454,0.26423 0.75353,0.16686 0.99307,-0.15381 0.0854,-0.1136 0.12911,-0.26741 0.1457,-0.40711 l -0.13547,-0.0187 c -0.0155,0.12276 -0.0515,0.24659 -0.12242,0.34184 m -1.65699,0.0868 1.00965,0.89747 0.11148,-0.12594 -1.01036,-0.89712 z m -0.37924,0.41875 0.45861,1.13241 -1.07738,-0.55386 -0.1263,0.11959 0.74331,1.15465 0.13723,-0.091 -0.65476,-0.97084 0.003,-0.002 1.05798,0.55562 0.11677,-0.11007 -0.46496,-1.11019 0.002,-0.002 0.91581,0.72602 0.10124,-0.13159 -1.08055,-0.83996 z m 2.46839,-11.01408 1.03046,-0.31468 0.002,0.004 -0.83327,1.03929 0.0956,0.12206 1.26717,-0.38347 -0.0512,-0.16157 -1.02164,0.31115 -10e-4,-0.004 0.82197,-1.04105 -0.0995,-0.11642 -1.26119,0.38206 z m -1.47179,-2.72027 c 0.15487,0.21343 0.40181,0.37606 0.75565,0.12489 l 0.68368,-0.49036 -0.0988,-0.13547 -0.67592,0.48542 c -0.2473,0.18027 -0.42898,0.0995 -0.54433,-0.0578 -0.14182,-0.19403 -0.12736,-0.36337 0.0727,-0.51047 0.10195,-0.0734 0.20637,-0.14676 0.3108,-0.22014 l 0.40463,-0.29033 -0.0991,-0.13618 -0.381,0.27235 c -0.11289,0.0804 -0.21202,0.15063 -0.30057,0.21519 -0.33337,0.24201 -0.29915,0.508 -0.1277,0.74295 m 0.54786,0.76377 0.94651,-0.51823 0.001,0.004 -0.6043,1.1864 0.11888,0.10124 1.1624,-0.63359 -0.0818,-0.14887 -0.93804,0.51365 -0.002,-0.004 0.59337,-1.18568 -0.121,-0.0935 -1.15782,0.63112 z m -0.53587,-2.71533 0.13547,0.14852 c 0.14746,0.16192 0.11007,0.30762 0.003,0.40534 -0.14393,0.13123 -0.30445,0.0459 -0.41663,-0.0769 l -0.11324,-0.12418 z m -0.91722,0.82585 0.43215,-0.38382 0.072,0.0787 c 0.0861,0.0935 0.0571,0.1785 0.0332,0.3115 l -0.10442,0.52775 0.16686,0.049 0.0808,-0.44344 c 0.0131,-0.0885 0.0536,-0.22825 0.004,-0.30586 l 0.003,-0.003 c 0.14641,0.12347 0.34326,0.14711 0.50554,-0.002 0.1658,-0.15099 0.14499,-0.36795 -0.0279,-0.55668 l -0.27588,-0.30057 -1.00435,0.90382 z m 3.41736,10.40024 -0.7994,-0.26423 -0.0515,0.16087 0.78987,0.25964 c 0.29245,0.0942 0.33478,0.28857 0.27481,0.47449 -0.0741,0.22824 -0.21943,0.3175 -0.45543,0.2413 -0.11924,-0.0381 -0.2413,-0.0794 -0.3609,-0.12065 l -0.47307,-0.15628 -0.0526,0.15981 0.44591,0.1471 c 0.13123,0.0445 0.24588,0.0836 0.35031,0.11713 0.39193,0.12594 0.58666,-0.0571 0.67556,-0.33373 0.0811,-0.25118 0.0677,-0.54751 -0.3436,-0.68545 m -0.83855,1.70004 -0.0695,0.15275 -0.47872,-0.22013 0.0826,-0.18274 c 0.0896,-0.20003 0.23918,-0.2219 0.37147,-0.16334 0.1778,0.0801 0.16193,0.26212 0.0942,0.41346 m 0.36547,-0.0466 0.526,-0.11254 -0.0208,-0.1725 -0.43885,0.10054 c -0.0854,0.0233 -0.23107,0.0416 -0.28152,0.11641 l -0.004,-0.001 c 0.054,-0.1831 -0.001,-0.37289 -0.20249,-0.46391 -0.20461,-0.0928 -0.39547,0.0123 -0.50095,0.24554 l -0.16757,0.37182 1.22732,0.56657 0.0691,-0.15487 -0.52317,-0.24483 0.0441,-0.0981 c 0.0522,-0.11501 0.14111,-0.12348 0.27234,-0.15311 m -0.0614,-3.29071 1.05022,0.62583 -1.19274,0.2099 -0.0293,0.17074 1.29081,0.47132 0.0543,-0.15523 -1.10878,-0.37747 7e-4,-0.004 1.17899,-0.19755 0.0265,-0.15769 -1.04176,-0.60396 v -0.005 l 1.16911,0.0258 0.001,-0.16616 -1.36843,-0.0159 z m -3.84281,8.42186 c -0.25823,0.17674 -0.5842,0.0981 -0.76164,-0.16016 -0.17675,-0.25647 -0.13371,-0.58984 0.12453,-0.76694 0.25752,-0.17674 0.58384,-0.0981 0.76129,0.15981 0.17674,0.25718 0.13335,0.58985 -0.12418,0.76729 m -0.7179,-1.04351 c -0.32879,0.22719 -0.4258,0.64487 -0.19191,0.98566 0.25047,0.36406 0.65899,0.4004 0.98883,0.17321 0.32985,-0.22613 0.42722,-0.64311 0.19297,-0.98495 -0.25047,-0.36337 -0.65934,-0.40041 -0.98989,-0.17392 m -4.79319,3.03847 -0.0497,-0.46849 0.51011,-0.0589 -0.0162,-0.1397 -0.51153,0.0589 -0.049,-0.45649 0.52635,-0.0596 -0.0166,-0.1397 -0.69039,0.0787 0.14217,1.34338 0.70943,-0.0804 -0.0155,-0.1397 z m 1.44462,-0.2099 c -0.30586,0.0653 -0.57714,-0.13229 -0.64311,-0.43815 -0.0649,-0.30515 0.10266,-0.5969 0.40816,-0.66146 0.12912,-0.0282 0.24166,-0.0265 0.36301,0.0261 l 0.0409,-0.145 c -0.14464,-0.0413 -0.27516,-0.0533 -0.43356,-0.0194 -0.39158,0.084 -0.64064,0.43286 -0.55386,0.83785 0.0921,0.43145 0.45649,0.62124 0.84808,0.53834 0.13934,-0.0307 0.27234,-0.11642 0.37817,-0.21096 l -0.0899,-0.10301 c -0.0924,0.0822 -0.20144,0.15098 -0.31786,0.17568 m -4.8835,-0.0116 -0.18662,-1.19627 -0.17074,-0.0335 -0.49566,1.28165 0.15417,0.0579 0.3997,-1.10137 0.004,10e-4 0.17286,1.18216 0.15769,0.03 0.62406,-1.03011 0.005,0.001 -0.0487,1.1677 0.16651,0.003 0.0427,-1.36772 -0.1785,-0.0342 z m 2.26907,0.30762 c -0.31292,10e-4 -0.53799,-0.248 -0.53869,-0.56092 -10e-4,-0.31185 0.2226,-0.56303 0.53481,-0.56374 0.31256,-0.001 0.53834,0.24836 0.53869,0.56127 10e-4,0.31186 -0.22296,0.56268 -0.53481,0.56339 m -0.004,-1.26541 c -0.4004,0.002 -0.71614,0.2921 -0.71437,0.70555 10e-4,0.44097 0.31856,0.70203 0.71896,0.70097 0.4004,-7.1e-4 0.71579,-0.2921 0.71473,-0.70556 -0.002,-0.44097 -0.31856,-0.70202 -0.71932,-0.70096 m -3.14501,-0.42651 -0.27658,0.78493 c -0.0991,0.28928 -0.29421,0.32808 -0.47942,0.26458 -0.22613,-0.0776 -0.31292,-0.22507 -0.23178,-0.45932 0.0402,-0.11923 0.0843,-0.23988 0.127,-0.35948 l 0.16581,-0.46954 -0.15805,-0.055 -0.15628,0.44239 c -0.0469,0.13017 -0.0882,0.24518 -0.12417,0.34819 -0.13335,0.38982 0.0459,0.58702 0.32102,0.68227 0.24977,0.0857 0.54504,0.078 0.6918,-0.3302 l 0.2794,-0.79375 z m 7.05273,1.0227 c -0.29492,0.10301 -0.58949,-0.0579 -0.69321,-0.35243 -0.10406,-0.29421 0.0247,-0.60571 0.31997,-0.70873 0.29493,-0.10407 0.5895,0.0579 0.69321,0.35243 0.10372,0.29457 -0.025,0.60466 -0.31997,0.70873 m -0.42086,-1.19415 c -0.37677,0.13299 -0.57961,0.51047 -0.44168,0.90134 0.14605,0.41593 0.53093,0.55845 0.90876,0.42545 0.37817,-0.13264 0.58102,-0.51117 0.44273,-0.90099 -0.14605,-0.41698 -0.53128,-0.55845 -0.90981,-0.4258 m 7.03827,-11.42083 1.33985,-0.17427 -0.0236,-0.16581 -1.33949,0.17357 z m 0.76306,1.48237 c -0.18768,-0.007 -0.34431,0.13794 -0.34996,0.32526 -0.007,0.18768 0.13794,0.3422 0.32491,0.35031 0.18803,0.006 0.34361,-0.13899 0.35031,-0.32597 0.007,-0.18732 -0.13794,-0.34254 -0.32526,-0.3496 m 0.0423,-2.78412 c -0.46284,0.0945 -0.20637,0.65052 -0.54257,0.71931 -0.14817,0.03 -0.26282,-0.0582 -0.29492,-0.21413 -0.0212,-0.10478 0.003,-0.21943 0.0406,-0.30057 l -0.13406,-0.048 c -0.0452,0.12665 -0.061,0.23919 -0.0307,0.38453 0.0596,0.29069 0.27093,0.39123 0.46849,0.35137 0.41451,-0.085 0.22577,-0.6664 0.51717,-0.72531 0.16087,-0.0328 0.25788,0.0829 0.28187,0.19826 0.025,0.12417 -0.005,0.21131 -0.0406,0.30056 l 0.13335,0.0385 c 0.0413,-0.1196 0.0586,-0.24271 0.0314,-0.37324 -0.0473,-0.23495 -0.22508,-0.37218 -0.43004,-0.33126 m -22.52733,6.79238 c -0.10301,-0.29527 0.0589,-0.58949 0.35384,-0.69391 0.29386,-0.10195 0.60501,0.0265 0.70873,0.32208 0.0434,0.12489 0.0554,0.23566 0.0194,0.36231 l 0.14852,0.0233 c 0.0226,-0.14887 0.0176,-0.27975 -0.0356,-0.43286 -0.13229,-0.37747 -0.50977,-0.58067 -0.90064,-0.44309 -0.41699,0.1457 -0.55916,0.53129 -0.42651,0.90876 0.0476,0.1337 0.15028,0.25506 0.25717,0.3489 l 0.0907,-0.10231 c -0.0931,-0.0815 -0.17569,-0.18133 -0.21555,-0.29316 m 23.08225,-4.60445 c 0.0554,-0.1136 0.0878,-0.2346 0.0773,-0.36619 -0.0173,-0.23953 -0.17674,-0.39793 -0.38559,-0.38205 -0.47131,0.036 -0.2854,0.61877 -0.6283,0.64523 -0.15028,0.0113 -0.25364,-0.091 -0.26528,-0.24836 -0.008,-0.1076 0.03,-0.21802 0.0772,-0.29386 l -0.12629,-0.0646 c -0.061,0.11959 -0.0903,0.22966 -0.079,0.37747 0.0226,0.29633 0.22013,0.42263 0.42086,0.40711 0.42263,-0.0321 0.30833,-0.63253 0.60431,-0.65441 0.16369,-0.013 0.24589,0.1136 0.25471,0.23072 0.01,0.127 -0.0314,0.20955 -0.078,0.29351 z m -16.41969,10.59709 c -0.084,0.17533 -0.26493,0.15628 -0.41522,0.0854 l -0.15169,-0.0716 0.22966,-0.47484 0.18132,0.0868 c 0.19826,0.0935 0.21837,0.24271 0.15593,0.3743 m -0.0699,-0.46461 -0.3683,-0.17498 -0.59055,1.21603 0.15311,0.0737 0.25541,-0.51929 0.097,0.0452 c 0.11465,0.0554 0.1203,0.14464 0.14782,0.27658 l 0.10265,0.52776 0.17181,-0.0176 -0.0914,-0.44027 c -0.0215,-0.0864 -0.0367,-0.23213 -0.11148,-0.28398 l 0.002,-0.005 c 0.18239,0.0589 0.37324,0.007 0.46779,-0.19297 0.0963,-0.20285 -0.004,-0.39546 -0.23566,-0.50553 m 14.51469,-13.45671 0.12947,-0.0561 -0.21484,-0.49812 0.43427,-0.18274 0.20249,0.47202 0.12912,-0.0557 -0.2032,-0.47308 0.42298,-0.1785 0.20884,0.48683 0.12912,-0.0554 -0.27411,-0.63923 -1.24636,0.52246 z m -10.86026,2.4324 c -0.078,0.0395 -0.17251,0.01 -0.21061,-0.0656 l 0.28187,-0.14288 c 0.0384,0.0751 0.007,0.16863 -0.0713,0.20849 m 1.01317,1.72403 c 0.006,-0.16016 0.0755,-0.31926 0.20391,-0.43603 l 0.20214,-0.18451 c 0.055,-0.0512 0.11677,-0.0885 0.18239,-0.11641 7e-4,-0.0388 0.001,-0.0769 0.001,-0.1143 -0.007,-0.45297 -0.13124,-0.84314 -0.41099,-1.1042 -0.0953,-0.09 -0.36406,-0.26987 -0.67768,-0.27199 -0.29634,-0.002 -0.65017,0.005 -1.28905,0.50447 -0.17675,0.13688 -0.19932,0.1965 -0.066,0.34184 0.10865,0.11995 0.47519,0.16863 0.66922,0.16087 0.34466,-0.0131 0.53445,-0.14534 0.61312,-0.37959 0.15523,-0.006 0.24589,0.0303 0.32773,0.10301 0.10619,0.0953 0.20462,0.30692 0.20991,0.65511 0.004,0.25153 -0.0434,0.56797 -0.15311,0.93169 0.0571,-0.043 0.1203,-0.0737 0.18697,-0.09 m -2.59327,-2.13184 c -0.22225,-0.20637 -0.57079,-0.19261 -0.77611,0.0296 -0.20602,0.22189 -0.19226,0.56973 0.0296,0.77505 0.13899,0.12947 0.32667,0.17251 0.49812,0.13194 l 2.0454,1.85702 0.4064,-0.38382 -2.03411,-1.92299 c 0.0265,-0.17428 -0.0303,-0.35878 -0.16934,-0.48684 m -0.29986,2.14489 c 0.078,0.0321 0.11501,0.12383 0.0808,0.20532 -0.0339,0.0804 -0.12418,0.11889 -0.20249,0.0864 z m -0.0557,1.41076 c 0.2533,0.23142 0.6022,0.3295 0.99837,0.32773 l 0.82902,-0.78387 c -0.27869,0.0945 -0.52705,0.14499 -0.73448,0.15734 -0.34643,0.0215 -0.56515,-0.061 -0.66957,-0.15981 -0.0773,-0.0744 -0.12136,-0.16263 -0.12665,-0.31856 0.22719,-0.0956 0.34466,-0.29598 0.33126,-0.63958 -0.007,-0.19509 -0.084,-0.55598 -0.21096,-0.65476 -0.15558,-0.12241 -0.21237,-0.0952 -0.3369,0.0907 -0.44874,0.67593 -0.42863,1.02906 -0.40394,1.32468 0.0261,0.31186 0.22649,0.56692 0.32385,0.65617 m 5.12798,1.93675 0.25506,0.23213 c 0.0949,0.0878 0.24306,0.0818 0.33126,-0.0127 0.0878,-0.0953 0.0818,-0.24342 -0.0131,-0.33091 l -0.0748,-0.0699 -0.20285,-0.14252 c -0.15769,-0.10689 -0.34466,-0.21766 -0.6985,-0.21943 -0.13229,0 -0.28716,0.0173 -0.47166,0.0589 0.0399,0.0667 0.0861,0.12629 0.13864,0.17427 0.23989,0.21237 0.55598,0.26564 0.73589,0.31009 m -1.5494,-2.35197 c 0.21908,-0.0102 0.3362,0.0374 0.41593,0.11007 0.0631,0.0589 0.11782,0.15169 0.14957,0.30868 0.0215,0.10054 0.0293,0.22437 0.0226,0.37077 l -0.80151,-0.75812 c 0.0769,-0.0166 0.14923,-0.0268 0.21343,-0.0314 m 0.0903,1.0287 c 0.10795,-0.005 0.2346,-0.0226 0.37818,-0.0547 0.12453,-0.0293 0.24236,-0.0406 0.35243,-0.0406 0.10089,0 0.19614,0.01 0.28433,0.0258 0.0314,0.005 0.0617,0.012 0.0945,0.0201 0.0247,-0.24941 0.0205,-0.47766 -0.0219,-0.68474 -0.0501,-0.25012 -0.15946,-0.4766 -0.33761,-0.64205 -0.10372,-0.0963 -0.22543,-0.16475 -0.35878,-0.21132 l -0.0512,0.0483 c -0.12171,0.11113 -0.27517,0.16616 -0.42757,0.16616 h -0.0261 c -0.0265,0.0769 -0.0727,0.15028 -0.13829,0.21096 l -1.04281,0.92534 c 0.0296,0.27728 0.13547,0.52881 0.33161,0.70908 0.37359,0.34502 0.94721,0.35278 1.51271,0.22437 0.71191,-0.16369 1.06151,0.0254 1.2887,0.18274 -0.042,-0.17639 -0.18768,-0.42122 -0.37747,-0.59796 -0.10866,-0.10054 -0.29916,-0.17851 -0.4699,-0.20602 -0.17145,-0.0296 -0.36195,-0.0367 -0.57997,0.012 -0.36336,0.084 -0.75918,0.10231 -0.94933,-0.0734 -0.0787,-0.0741 -0.13582,-0.18732 -0.14111,-0.40746 -0.001,-0.0617 0.003,-0.1337 0.0141,-0.2106 z m 2.44475,-4.32788 c -0.15169,-0.16474 -0.40816,-0.17603 -0.57361,-0.024 0,0 -0.12348,0.1644 -0.32844,0.48155 -0.17145,-0.0501 -0.36371,-0.0131 -0.50518,0.11606 l -0.73201,0.67169 c -0.11712,0.1083 -0.17498,0.25647 -0.17004,0.40569 -0.12453,-0.006 -0.25153,0.0356 -0.35066,0.12736 l -0.20179,0.1845 c -0.13264,0.12065 -0.18168,0.2981 -0.14676,0.46143 -0.0981,-0.009 -0.20037,0.0212 -0.27904,0.0935 l -3.04271,2.87337 c -0.12277,0.11289 -0.13088,0.30339 -0.0187,0.42545 0.11536,0.12665 0.32491,0.11113 0.4258,0.0183 l 3.12914,-2.77919 c 0.0787,-0.072 0.11748,-0.17074 0.11748,-0.26952 0.0466,0.0148 0.0949,0.0215 0.14428,0.0215 0.11713,0 0.23495,-0.0416 0.32809,-0.12735 l 0.20214,-0.18521 c 0.0988,-0.091 0.15169,-0.21343 0.15734,-0.33725 0.0205,0.002 0.0413,0.003 0.0621,0.003 0.1277,0 0.25541,-0.0455 0.3563,-0.13829 l 0.73131,-0.67098 c 0.14217,-0.12982 0.19579,-0.31821 0.16087,-0.49389 0.41381,-0.23425 0.50906,-0.28434 0.50906,-0.28434 0.16474,-0.15099 0.17603,-0.40816 0.025,-0.57362 m 0.65899,6.13058 h 1.79035 v -6.43467 h -1.79035 z m -10.75654,1.02693 h 13.66237 v -0.79622 h -13.66237 z m 1.11477,-1.02693 h 1.79035 v -6.43467 h -1.79035 z m 12.32817,-8.67305 h -13.22352 v 1.24707 h 13.22352 z m -0.4071,1.52436 v -0.0332 h -2.76719 v 0.0332 c 0,0.2667 0.22331,0.48436 0.49777,0.48436 h 1.77094 c 0.27552,0 0.49848,-0.21766 0.49848,-0.48436 m -9.15564,-2.81305 2.95063,-1.20897 2.95134,1.20897 z m 10.3759,0.62371 -7.42527,-3.11185 -7.42527,3.11185 0.19897,0.41063 h 14.45295 z m -10.86309,2.18934 v -0.0332 h -2.76683 v 0.0332 c 0,0.2667 0.22366,0.48436 0.49882,0.48436 h 1.76954 c 0.27552,0 0.49847,-0.21766 0.49847,-0.48436 m -4.09116,9.25089 h 15.05832 v -0.79622 h -15.05832 z" />
  </g>
</svg>
