<?xml version="1.0" encoding="UTF-8" standalone="no"?>
<svg
   xmlns:dc="http://purl.org/dc/elements/1.1/"
   xmlns:cc="http://creativecommons.org/ns#"
   xmlns:rdf="http://www.w3.org/1999/02/22-rdf-syntax-ns#"
   xmlns:svg="http://www.w3.org/2000/svg"
   xmlns="http://www.w3.org/2000/svg"
   id="svg5321"
   version="1.1"
   viewBox="0 0 13.229167 13.229167"
   height="13.229167mm"
   width="13.229167mm">
  <defs
     id="defs5315">
    <clipPath
       clipPathUnits="userSpaceOnUse"
       id="clipPath18">
      <path
         d="M 0,600 H 600 V 0 H 0 Z"
         id="path16" />
    </clipPath>
    <clipPath
       clipPathUnits="userSpaceOnUse"
       id="clipPath30">
      <path
         d="M 0,600 H 600 V 0 H 0 Z"
         id="path28" />
    </clipPath>
    <clipPath
       clipPathUnits="userSpaceOnUse"
       id="clipPath2693">
      <path
         d="M 0,70.866 H 70.866 V 0 H 0 Z"
         id="path2691" />
    </clipPath>
    <clipPath
       clipPathUnits="userSpaceOnUse"
       id="clipPath2853">
      <path
         d="M 0,70.866 H 70.866 V 0 H 0 Z"
         id="path2851" />
    </clipPath>
  </defs>
  <metadata
     id="metadata5318">
    <rdf:RDF>
      <cc:Work
         rdf:about="">
        <dc:format>image/svg+xml</dc:format>
        <dc:type
           rdf:resource="http://purl.org/dc/dcmitype/StillImage" />
        <dc:title></dc:title>
      </cc:Work>
    </rdf:RDF>
  </metadata>
  <g
     transform="matrix(0.60884761,0,0,0.60731219,-57.703226,-76.428126)"
     id="layer1"
     style="fill:#939597;fill-opacity:1">
    <g
       id="g2845"
       transform="matrix(0.31938215,0,0,-0.31938215,94.321964,148.05463)"
       style="fill:#939597;fill-opacity:1">
      <g
         id="g2847"
         style="fill:#939597;fill-opacity:1">
        <g
           id="g2849"
           clip-path="url(#clipPath2853)"
           style="fill:#939597;fill-opacity:1">
          <g
             id="g2855"
             transform="translate(38.2039,10.8486)"
             style="fill:#939597;fill-opacity:1">
            <path
               d="m 0,0 -0.173,-0.084 h -4.763 l -1.642,2.943 h 4.586 l 0.173,0.084 20.425,35.575 1.559,-3.202 z M 2.165,25.879 2.337,25.795 2.944,22.851 1.125,19.301 0.518,22.59 0.345,22.678 h -11.337 l 1.904,3.201 z M -2.598,3.811 -18.349,31.249 h 3.807 l 4.068,-7.185 -0.867,-1.474 1.907,-3.546 2.337,-0.088 6.318,-11.771 z M 6.145,31.249 7.53,33.758 7.875,31.249 H 9.522 L -2.426,10.734 -6.839,18.956 h 7.964 l 1.991,3.895 -0.694,3.205 H -9.261 l -1.04,-1.735 -3.98,6.928 z m 5.453,3.719 -1.903,-3.462 H 8.136 L 7.615,34.968 Z M 7.787,36.007 7.269,35.14 7.442,34.104 6.145,31.678 5.626,35.401 7.269,38.345 Z m -31.245,2.598 H 7.096 L 5.454,35.574 H -25.361 Z M -7.446,3.811 h 1.129 L -6.839,3.032 -5.02,-0.257 H 0 l 20.426,35.573 c -0.261,0.603 -1.731,3.547 -1.731,3.547 H 9.434 L 7.964,36.269 7.357,38.863 H -23.63 l -2.077,-3.289 z M 0.345,22.678 0.518,22.59 2.337,25.795 2.165,25.879 Z M 0,0 -0.173,-0.084 -1.992,2.859 -1.819,2.943 Z m -35.747,21.727 c 0,-0.519 0.434,-0.952 0.952,-0.952 0.434,0 0.864,0.433 0.864,0.952 0,0.433 -0.43,0.863 -0.864,0.863 -0.518,0 -0.952,-0.43 -0.952,-0.863 m 63.618,0 c 0,-0.519 0.43,-0.952 0.952,-0.952 0.43,0 0.864,0.433 0.864,0.952 0,0.433 -0.434,0.863 -0.864,0.863 -0.522,0 -0.952,-0.43 -0.952,-0.863 m -64.485,2.337 v 0.434 c 0,0.084 0,0.257 0.261,0.257 h 3.201 c 0.261,0 0.261,-0.173 0.261,-0.257 v -0.434 h 0.172 v 1.903 h -0.172 v -0.433 c 0,-0.085 -0.088,-0.258 -0.346,-0.258 h -1.473 v 0.346 c 0,0.345 0.349,0.606 0.779,0.691 v 0.173 h -1.731 v -0.173 c 0.433,-0.085 0.694,-0.346 0.694,-0.691 v -0.346 h -1.385 c -0.261,0 -0.261,0 -0.261,0.258 v 0.606 c 0,0.261 0.088,0.518 0.261,0.779 0.173,0.088 0.518,0.261 0.952,0.346 v 0.172 l -1.386,-0.084 v -3.289 z m 0.173,5.71 c 2.253,-1.469 3.377,-2.164 3.462,-2.249 0.088,-0.088 0.176,-0.172 0.088,-0.433 h 0.172 l 0.261,1.473 -0.172,0.085 c -0.173,-0.779 -0.089,-0.952 -1.125,-0.172 l 0.257,1.558 0.779,0.172 c 0.089,0 0.346,-0.088 0.261,-0.518 l 0.173,-0.088 0.261,1.647 H -32.2 c 0,-0.261 -0.085,-0.35 -0.346,-0.435 l -3.895,-0.778 c -0.173,-0.089 -0.173,-0.173 0,-0.262 m 2.686,0.173 -0.261,-1.382 -1.731,0.953 z m -1.128,5.282 c -0.346,-0.434 -0.518,-0.607 -0.606,-0.953 -0.346,-1.039 0.349,-2.076 1.646,-2.421 1.124,-0.349 2.076,0.345 2.422,1.297 0.261,0.779 -0.173,1.47 -0.952,1.904 -0.085,0 -0.173,-0.088 -0.085,-0.173 0.691,-0.434 1.125,-0.952 0.864,-1.731 -0.084,-0.694 -0.952,-0.952 -2.076,-0.606 -1.386,0.345 -1.819,1.04 -1.559,1.642 0.089,0.261 0.261,0.522 0.519,0.695 0.261,0.085 0.694,0.173 1.128,0.173 l 0.084,0.084 -1.642,0.522 v -0.173 z m 0.349,1.297 c 0.346,0.694 0,0.867 1.731,-0.085 0.864,-0.434 1.382,-0.606 1.643,-0.606 0.433,0 1.819,0.779 1.385,2.249 -0.088,0.261 -0.345,0.521 -0.779,0.695 l -1.819,0.863 c -0.346,0.261 -0.43,0.434 -0.173,0.867 l -0.257,0.173 -0.695,-1.474 0.261,-0.172 c 0.258,0.606 0.258,0.606 0.864,0.261 2.771,-1.125 2.51,-1.559 2.165,-2.25 -0.258,-0.606 -0.434,-0.694 -0.864,-0.694 -0.173,0 -0.695,0.173 -1.558,0.606 -0.779,0.434 -1.213,0.606 -1.301,0.691 0,0.088 0.088,0.261 0.261,0.607 l -0.173,0.172 -0.867,-1.815 z m 2.161,4.501 c 0.349,0.607 0.088,0.692 1.907,-0.433 1.988,-1.125 1.643,-0.952 1.298,-1.558 l 0.084,-0.085 1.819,2.856 -1.297,0.952 -0.088,-0.173 c 0.779,-0.691 0.952,-1.125 0.606,-1.731 -0.606,-0.952 -0.173,-0.952 -2.164,0.172 -1.816,1.125 -1.559,0.952 -1.125,1.647 l -0.173,0.085 -1.04,-1.643 z m 3.116,2.422 0.089,0.177 c -0.952,1.73 -0.173,1.903 0,1.73 1.642,-1.385 2.51,-2.164 2.51,-2.252 0.084,-0.084 0,-0.173 -0.261,-0.43 l 0.172,-0.176 1.125,1.385 -0.173,0.173 c -0.173,-0.258 -0.345,-0.43 -0.43,-0.43 -0.088,0.084 -0.867,0.779 -2.51,2.161 -0.349,0.349 0,1.213 1.643,0.172 l 0.088,0.261 -1.213,0.952 -2.076,-2.594 z m 2.599,5.454 c 1.124,-2.422 1.642,-3.719 1.558,-3.895 0,-0.085 -0.088,-0.258 -0.173,-0.346 l 0.173,-0.084 1.036,1.036 -0.084,0.173 c -0.607,-0.779 -0.779,-0.173 -0.868,0.088 l -0.172,0.434 1.124,1.124 c 1.386,-0.695 1.04,-0.518 0.606,-0.952 l 0.173,-0.088 1.213,1.125 -0.173,0.088 c -0.172,-0.173 -0.345,-0.261 -0.518,-0.173 l -3.638,1.643 c -0.173,0.088 -0.346,0.088 -0.257,-0.173 m 2.337,-1.385 -1.04,-1.037 -0.779,1.815 z m 2.076,4.59 c -0.433,0 -2.425,-0.434 -1.297,-2.08 0.345,-0.43 0.864,-0.43 1.643,-0.173 1.212,0.434 1.212,0.434 1.558,0.088 0.345,-0.345 0.173,-0.867 -0.261,-1.213 -0.603,-0.345 -1.297,-0.345 -1.988,0.346 l -0.173,-0.173 0.864,-1.297 0.261,0.172 0.084,0.518 c 1.301,-0.429 1.908,1.386 1.474,1.993 -0.522,0.694 -0.868,0.606 -1.992,0.172 -0.606,-0.172 -1.731,-0.345 -1.47,0.607 0.173,0.779 1.125,1.04 2.161,0.261 l 0.176,0.084 -0.955,1.125 -0.085,-0.085 z m 4.932,-0.522 c 0,-0.43 -0.084,-0.691 -0.345,-0.779 v -0.173 l 1.297,0.606 -0.085,0.173 c -0.345,-0.257 -0.606,-0.518 -0.606,0.867 l 1.385,0.691 c 1.041,-0.779 1.041,-0.779 0.434,-1.036 v -0.177 l 1.47,0.695 -0.088,0.085 c -0.257,-0.085 -0.43,-0.085 -0.603,0.088 l -2.859,2.683 c -0.173,0.172 -0.257,0.172 -0.257,-0.085 z m 1.474,1.558 -1.297,-0.606 -0.177,1.991 z m 0.952,3.032 c 0.606,0.257 0.606,0.518 1.297,-1.474 0.694,-1.988 0.606,-1.731 0,-1.988 v -0.176 l 1.819,0.606 -0.088,0.173 c -0.607,-0.085 -0.518,-0.519 -1.213,1.558 0.867,0.261 1.213,0.173 1.474,-0.691 0.257,-0.779 1.558,-1.297 1.385,0.434 0,0.084 -0.172,0.257 -0.172,0 0.172,-0.607 -0.177,-0.868 -0.695,-0.173 -0.346,0.779 -0.434,0.603 -1.213,0.779 0.867,0.43 1.128,0.863 0.952,1.297 -0.257,0.691 -0.864,0.864 -1.643,0.519 l -1.992,-0.691 z m 1.815,-1.128 c -0.779,1.819 -0.779,1.558 0.176,1.819 0.43,0.088 0.78,0 0.952,-0.346 0.346,-0.694 -0.088,-1.124 -0.779,-1.385 z m 2.859,1.128 0.173,0.084 c 0.173,1.386 0.779,1.731 1.036,1.474 0.088,0 0.177,-0.522 0.349,-1.647 0.258,-1.124 0.346,-1.73 0.258,-1.818 0,-0.085 -0.173,-0.085 -0.519,-0.173 v -0.173 l 1.819,0.261 v 0.173 c -0.694,-0.088 -0.606,-0.346 -1.039,1.819 -0.173,1.125 -0.261,1.643 -0.261,1.731 0.088,0.084 0.867,0.606 1.473,-1.128 h 0.258 l -0.346,1.558 -3.289,-0.603 z m 4.241,2.076 c 0.691,0.085 0.691,0.085 0.691,-0.261 0.173,-2.076 0.173,-3.2 0.088,-3.289 -0.088,-0.084 -0.261,-0.084 -0.606,-0.173 v -0.172 l 1.903,0.172 v 0.173 c -0.345,0 -0.606,0 -0.691,0.089 -0.088,0.084 -0.088,1.124 -0.176,3.2 0,0.346 0,0.346 0.695,0.434 v 0.173 l -1.904,-0.173 z m 4.675,0 c -0.434,0.261 -0.695,0.434 -1.04,0.434 -0.695,0 -1.213,-0.522 -1.213,-1.301 0,-0.258 0.088,-0.518 0.345,-0.779 0.173,-0.085 0.434,-0.257 0.868,-0.346 1.124,-0.257 1.297,-0.345 1.297,-0.863 0,-0.434 -0.345,-0.779 -0.952,-0.779 -0.691,0 -1.297,0.43 -1.385,1.385 h -0.258 v -1.558 h 0.258 l 0.345,0.346 c 0.261,-0.262 0.606,-0.434 1.04,-0.434 0.779,0 1.386,0.606 1.386,1.297 0,0.695 -0.346,0.952 -1.559,1.213 -0.951,0.345 -1.04,0.345 -1.04,0.867 0,0.346 0.434,0.691 0.868,0.691 0.606,0 0.952,-0.345 1.297,-1.298 h 0.173 l -0.085,1.471 H -1.125 Z M 2.249,58.08 C 3.028,57.819 2.944,58.164 2.594,56.003 2.337,53.923 2.249,54.269 1.558,54.357 v -0.173 l 1.904,-0.346 v 0.173 c -0.695,0.085 -0.779,-0.173 -0.434,1.904 0.346,2.165 0.173,2.076 1.125,1.819 v 0.173 L 2.249,58.252 Z M 4.675,57.558 C 4.932,57.473 5.104,57.473 5.193,57.385 5.277,57.301 5.02,56.349 4.414,54.445 4.325,54.096 3.98,53.923 3.635,54.011 L 3.546,53.838 5.193,53.405 v 0.088 C 4.759,53.75 4.675,54.011 4.759,54.357 l 0.695,2.337 1.47,-3.807 0.261,-0.089 c 0.602,2.338 0.951,3.462 1.124,3.551 0.173,0.084 0.346,0.084 0.518,0 l 0.089,0.172 -1.474,0.434 V 56.779 C 7.615,56.694 7.703,56.606 7.787,56.433 7.875,56.349 7.703,55.397 7.185,53.666 l -1.559,3.807 -0.951,0.261 z m 4.413,-1.382 c 0.691,-0.261 0.952,0 0,-2.08 C 8.309,52.108 8.394,52.453 7.787,52.714 L 7.703,52.538 9.434,51.847 9.522,52.02 c -0.695,0.26 -0.956,-0.085 0,1.903 0.775,-0.345 0.775,-0.606 0.691,-1.209 h 0.084 l 0.695,1.643 -0.173,0.088 C 10.558,54.011 10.297,53.75 9.606,54.096 l 0.519,1.385 c 0.521,0.261 1.991,-0.345 1.558,-1.643 l 0.088,-0.088 0.434,1.298 -3.032,1.301 z m 5.799,-2.51 c -0.694,0.518 -2.076,0 -2.598,-0.868 -0.606,-1.212 -0.257,-2.337 0.607,-2.855 0.867,-0.518 2.076,-0.172 2.682,0.952 0.607,1.04 0.346,2.249 -0.691,2.771 m 0,-0.261 c 0.519,-0.345 0.78,-0.867 0.085,-2.249 -0.779,-1.301 -1.47,-1.385 -1.988,-1.04 -0.607,0.345 -0.779,1.04 -0.088,2.337 0.69,1.04 1.385,1.297 1.991,0.952 m 2.338,-1.558 c 0.345,-0.261 0.43,-0.518 0.257,-0.779 -1.209,-1.643 -1.904,-2.422 -1.988,-2.51 -0.088,0 -0.261,0.088 -0.522,0.345 l -0.085,-0.173 1.47,-1.124 0.089,0.088 c -0.434,0.43 -0.779,0.173 0.606,1.816 0.864,-0.519 0.779,-0.78 0.345,-1.386 -0.433,-0.691 -0.433,-1.124 -0.172,-1.386 0.43,-0.257 0.779,-0.084 1.209,0.349 0.088,0.085 0.172,0.346 -0.085,0.085 -0.694,-0.518 -0.867,-0.172 -0.518,0.346 0.43,0.778 0.346,0.951 -0.088,1.646 0.952,-1.04 2.944,-0.088 1.213,1.558 l -1.647,1.213 z m 0,-2.165 c 1.036,1.474 0.863,1.474 1.558,0.868 0.43,-0.261 0.518,-0.522 0.43,-0.779 -0.173,-0.607 -0.779,-1.125 -1.988,-0.089 m 3.98,-1.213 c 0.261,-0.257 0.345,-0.429 0.261,-0.518 0,-0.084 -0.779,-0.691 -2.253,-1.992 -0.346,-0.257 -0.518,-0.257 -0.864,0 l -0.172,-0.084 1.036,-1.125 0.172,0.085 c -0.257,0.349 -0.345,0.606 -0.257,0.694 0.085,0.085 0.952,0.864 2.595,2.249 l -1.988,-3.634 0.084,-0.088 3.896,1.385 c -1.731,-1.47 -2.683,-2.249 -2.856,-2.249 -0.088,0 -0.261,0.173 -0.433,0.434 l -0.173,-0.088 1.213,-1.471 0.172,0.085 c -0.433,0.607 -0.779,0.346 0.952,1.731 1.816,1.473 1.47,1.125 1.731,0.779 l 0.173,0.088 -0.779,0.952 -3.201,-1.213 1.642,3.117 -0.779,0.952 z m 5.108,-6.317 c -2.598,-0.433 -3.984,-0.607 -4.157,-0.607 -0.084,0.089 -0.26,0.174 -0.345,0.35 l -0.173,-0.088 0.779,-1.298 0.173,0.085 c -0.261,0.606 -0.606,0.695 0.779,0.867 l 0.864,-1.385 c -0.691,-1.04 -0.691,-1.04 -1.036,-0.434 l -0.173,-0.084 0.863,-1.386 0.089,0.085 c -0.089,0.261 -0.089,0.433 0,0.522 l 2.421,3.2 c 0.089,0.173 0.089,0.173 -0.084,0.173 m -1.907,-1.903 -0.776,1.296 1.904,0.35 z m 1.646,-0.78 0.088,-0.172 c 0.43,0.088 0.776,0.088 1.037,0 0.694,-0.261 0.694,-0.607 0.606,-0.692 0,-0.087 -1.04,-0.521 -3.201,-1.385 -0.088,0 -0.088,-0.088 -0.349,0.518 l -0.173,-0.088 0.695,-1.643 0.172,0.089 c -0.088,0.43 -0.606,0.518 1.47,1.297 1.04,0.434 1.559,0.607 1.647,0.518 0.084,0 0.863,-0.606 -0.779,-1.558 l 0.084,-0.173 1.474,0.607 -1.301,3.028 z m 4.329,-9.173 c 0.257,0.431 0.257,0.78 0.257,1.125 -0.172,0.952 -1.124,1.731 -2.51,1.558 -1.036,-0.172 -1.903,-1.124 -1.731,-2.08 0.089,-0.952 0.695,-1.381 1.647,-1.381 0.173,0 0.173,0.172 0,0.172 -0.779,0.084 -1.386,0.43 -1.474,1.209 -0.084,0.695 0.522,1.301 1.647,1.386 1.47,0.261 2.076,-0.257 2.164,-0.952 0,-0.257 -0.088,-0.519 -0.261,-0.779 -0.261,-0.258 -0.518,-0.434 -0.952,-0.691 v -0.089 l 1.643,0.262 -0.084,0.172 z m -1.301,5.451 c 0.088,-0.691 0.173,-0.691 -0.173,-0.779 l -3.028,-0.864 c -0.088,0 -0.172,-0.088 -0.433,0.606 h -0.173 l 0.518,-1.903 0.173,0.084 c -0.085,0.695 -0.43,0.695 1.646,1.297 2.165,0.607 1.731,0.35 1.992,-0.257 h 0.173 l -0.522,1.904 z m 1.819,-7.703 c 0,-0.779 -0.088,-0.691 -0.172,-0.691 -0.089,0 -0.607,0.257 -1.731,0.691 -2.165,0.952 -1.992,0.867 -1.992,1.212 h -0.173 l 0.085,-1.124 h 0.176 c 0,0.691 0,0.518 1.643,-0.173 v -1.128 c -1.731,-0.084 -1.558,-0.173 -1.558,0.522 h -0.173 l 0.261,-3.289 1.558,0.084 -0.088,0.173 c -1.125,0.177 -1.298,0.261 -1.47,1.213 0,0.694 -0.261,0.779 1.815,0.779 0,-0.952 -0.173,-1.037 -0.779,-1.037 v -0.088 l 1.904,0.088 v 0.085 c -0.603,0.088 -0.864,0.346 -0.952,0.952 l 1.474,0.088 c 0.084,0 0.257,0.173 0.257,-0.952 0.088,-0.522 -0.346,-0.867 -1.125,-0.951 l 0.089,-0.177 1.297,0.177 -0.173,3.546 z m -1.903,-1.213 v 1.04 l 1.815,-0.779 c 0,-0.173 -0.173,-0.173 -0.345,-0.173 z M -32.803,20.08 c 0.084,-0.779 0.345,-0.691 -1.474,-1.124 -0.863,-0.173 -1.385,-0.346 -1.558,-0.519 -0.345,-0.345 -0.43,-0.867 -0.345,-1.558 0.088,-0.434 0.345,-0.779 0.691,-1.04 0.26,-0.172 0.867,-0.085 1.819,0.173 0.951,0.261 1.558,0.349 1.646,0.261 0.085,-0.085 0.173,-0.346 0.257,-0.606 l 0.261,0.087 -0.433,1.643 -0.173,-0.084 c 0,-0.346 0,-0.522 -0.261,-0.606 -0.085,-0.089 -2.595,-0.868 -3.028,-0.607 -0.607,0.607 -0.607,1.558 -0.088,1.904 0.088,0.088 0.606,0.172 1.473,0.433 0.864,0.261 1.297,0.434 1.386,0.346 0.084,-0.085 0.172,-0.258 0.257,-0.607 h 0.261 l -0.518,1.992 z m 1.209,-4.498 c 0.088,-0.173 0.088,-0.346 0,-0.522 0,-0.084 -0.952,-0.518 -2.767,-1.124 -0.349,-0.085 -0.695,0.088 -0.779,0.433 l -0.173,-0.088 0.603,-1.554 0.176,0.084 c -0.088,0.261 -0.176,0.434 -0.088,0.518 0.088,0.173 1.04,0.607 2.771,1.213 l -2.253,-3.55 c -0.084,-0.173 0,-0.173 0.088,-0.173 2.165,0.779 3.374,1.128 3.55,1.04 0.173,-0.088 0.258,-0.172 0.346,-0.261 h 0.172 l -0.518,1.386 -0.176,-0.085 c 0.088,-0.088 0.088,-0.261 0,-0.434 -0.085,-0.172 -0.952,-0.518 -2.683,-1.124 l 2.165,3.462 -0.261,0.864 z m 1.474,-3.984 c 0.345,-0.606 0.518,-0.691 -1.213,-1.47 -1.646,-0.779 -1.731,-0.867 -2.076,-0.261 l -0.173,-0.084 0.863,-1.647 0.173,0.089 c -0.345,0.606 -0.257,0.691 1.213,1.469 1.643,0.78 1.731,0.868 2.076,0.262 l 0.173,0.084 -0.952,1.731 z m 0.952,-1.815 c 0.084,-0.173 0.172,-0.345 0.084,-0.434 0,-0.088 -0.779,-1.297 -2.337,-3.462 0,0 -0.085,-0.173 0.088,-0.088 2.598,0.606 3.98,0.868 4.068,0.779 0.173,-0.084 0.261,-0.173 0.346,-0.257 l 0.088,0.084 -0.779,1.302 -0.173,-0.089 c 0.346,-0.606 0.43,-0.691 0.173,-0.779 -0.088,-0.088 -1.125,-0.261 -2.944,-0.606 1.125,1.646 1.731,2.425 1.819,2.425 0.085,0.085 0.085,0.085 0.173,0.085 0.084,0 0.173,-0.173 0.345,-0.434 l 0.173,0.088 -0.952,1.47 z m 2.421,-3.635 c 0.346,-0.349 0.261,-0.606 -1.124,-1.731 -1.297,-1.04 -1.386,-1.128 -1.731,-0.694 l -0.173,-0.085 2.165,-2.598 1.209,0.867 -0.085,0.173 c -1.47,-1.04 -2.337,0.691 -2.337,0.691 0,0.088 0.434,0.434 1.386,1.212 0.433,-0.694 0.345,-0.951 -0.089,-1.3 l 0.089,-0.173 1.469,1.301 -0.084,0.085 c -0.434,-0.346 -0.695,-0.434 -1.301,0.172 l 1.128,0.952 c 0.603,0.088 1.816,-1.382 0.518,-2.077 l 0.085,-0.084 1.128,0.864 -2.164,2.51 z m 2.51,-2.943 C -23.542,2.51 -23.891,2.51 -25.016,1.128 -26.14,-0.173 -26.225,0 -26.658,0.434 l -0.173,-0.085 1.47,-1.301 0.088,0.088 c -0.606,0.607 -0.522,0.518 0.779,1.816 l 0.257,-0.258 c 0.346,-0.345 0.346,-0.606 0,-1.124 -0.69,-1.04 -0.518,-1.213 -0.345,-1.385 0.345,-0.346 0.779,-0.262 1.213,0.257 0.084,0.088 0.084,0.176 -0.089,0.088 -1.815,-0.952 0.78,1.297 -0.433,1.904 0.867,-0.607 1.301,-0.518 1.646,-0.173 0.434,0.433 0.346,1.04 -0.261,1.646 l -1.558,1.47 z M -24.409,1.04 c 1.297,1.47 1.04,1.47 1.646,0.867 0.779,-0.779 0.346,-1.213 -0.088,-1.473 -0.346,-0.085 -0.607,-0.173 -1.558,0.606 m 5.365,-2.077 c -0.345,0.434 -0.345,0.691 -0.691,0.953 -0.606,0.345 -1.297,0.257 -1.731,-0.346 -0.172,-0.261 -0.172,-0.607 -0.088,-0.867 0.088,-0.261 0.261,-0.518 0.522,-0.78 0.691,-0.863 0.864,-1.036 0.518,-1.469 -0.261,-0.346 -0.606,-0.434 -1.213,-0.089 -0.606,0.346 -0.779,1.125 -0.345,1.904 l -0.173,0.173 -0.867,-1.297 0.176,-0.173 0.519,0.088 c 0,-0.349 0.172,-0.695 0.606,-0.952 1.988,-0.694 2.855,1.037 1.209,2.249 -0.603,0.779 -0.691,0.864 -0.346,1.297 0.261,0.262 0.695,0.346 1.125,0.089 0.434,-0.346 0.606,-0.868 0.349,-1.82 l 0.085,-0.084 0.779,1.209 -0.173,0.088 z m 0.867,-0.433 c 0.261,-0.088 0.434,-0.261 0.434,-0.518 0,-0.173 -0.522,-1.125 -1.474,-2.771 -0.084,-0.173 -0.345,-0.173 -0.779,0.088 l -0.084,-0.176 1.731,-0.864 0.084,0.173 c -0.43,0.088 -0.606,0.261 -0.518,0.518 l 1.47,2.771 c 0.088,0.261 0.177,0.261 0.779,-0.088 l 0.088,0.176 -1.646,0.864 z m 1.47,-2.422 0.173,-0.088 c 0.779,1.297 1.558,1.04 1.558,0.691 0.089,-0.085 -0.084,-0.603 -0.518,-1.558 -0.345,-0.952 -0.606,-1.555 -0.691,-1.643 -0.088,-0.088 -0.349,0 -0.606,0.173 l -0.088,-0.173 1.646,-0.691 0.085,0.173 c -0.691,0.257 -0.607,0.257 0.088,2.076 0.434,0.952 0.606,1.386 0.691,1.47 0.261,0.088 1.124,0.173 0.694,-1.642 l 0.258,-0.089 0.433,1.474 -3.028,1.209 z m 5.627,-0.349 c -1.643,-2.076 -2.51,-3.116 -2.595,-3.201 -0.088,-0.088 -0.261,-0.088 -0.433,0 l -0.089,-0.173 1.559,-0.433 v 0.173 c -0.864,0.172 -0.691,0.345 -0.085,1.212 l 1.558,-0.518 c 0.258,-1.128 0,-1.128 -0.433,-1.04 l -0.089,-0.173 1.559,-0.434 0.088,0.173 c -0.261,0.089 -0.434,0.173 -0.434,0.434 l -0.345,3.98 c -0.088,0.173 -0.173,0.088 -0.261,0 m -0.085,-2.683 -1.385,0.434 1.124,1.558 z m 4.759,1.298 c -0.433,0.522 -1.819,1.3 -2.337,-0.519 -0.084,-0.257 0,-0.518 0.173,-0.779 0.173,-0.173 0.434,-0.345 0.867,-0.518 1.037,-0.433 1.125,-0.433 1.125,-1.04 0,-0.43 -0.434,-0.691 -1.04,-0.606 C -8.309,-9 -8.827,-8.482 -8.827,-7.53 H -9.088 L -9.261,-9 l 0.257,-0.088 0.349,0.349 c 0.258,-0.349 0.603,-0.522 1.037,-0.607 1.385,-0.26 1.646,1.209 1.385,1.643 -0.084,0.346 -0.433,0.522 -1.213,0.868 -0.951,0.518 -0.951,0.433 -0.951,1.036 0.088,0.349 0.522,0.606 0.951,0.522 0.607,-0.089 0.868,-0.434 1.129,-1.474 h 0.172 l 0.085,1.474 h -0.173 z m 3.029,0 c 0.694,0 0.606,0 0.606,-0.258 l 0.173,-2.855 c 0,-0.434 -0.085,-0.607 -0.518,-0.607 v -0.172 l 1.558,0.084 v 0.173 c -0.607,0 -0.779,0.261 -0.779,0.695 l -0.173,3.028 1.731,-3.808 h 0.173 l 1.04,3.98 0.257,-3.462 c 0,-0.084 -0.085,-0.26 -0.346,-0.26 L 0,-9.088 0.084,-9.261 1.992,-9.173 1.904,-9 H 1.558 c -0.261,0 -0.345,0 -0.345,0.261 l -0.177,3.113 c 0,0.26 -0.084,0.349 0.607,0.349 v 0.173 l -1.386,-0.089 -0.863,-3.373 -1.559,3.2 -1.297,-0.084 z m 6.923,1.04 C 3.028,-7.269 2.767,-8.655 2.683,-8.739 c 0,-0.089 -0.089,-0.089 -0.346,-0.173 v -0.176 l 1.47,0.26 v 0.173 C 3.201,-8.739 2.855,-8.828 3.201,-7.615 l 1.558,0.258 c 0.867,-1.209 0.606,-1.037 0.088,-1.125 v -0.173 l 1.643,0.346 -0.084,0.172 c -0.261,-0.084 -0.434,0 -0.522,0.177 l -2.077,3.374 c -0.172,0.172 -0.172,0.088 -0.261,0 m 1.129,-2.511 -1.474,-0.26 0.345,1.907 z m 3.546,3.462 c -0.346,0.089 -2.51,0.173 -1.731,-1.642 0.261,-0.607 0.695,-0.695 1.474,-0.607 1.209,0.258 1.297,0.173 1.47,-0.433 0.261,-0.346 0.088,-0.691 -0.518,-0.952 -0.695,-0.261 -1.474,0 -1.82,0.779 L 6.835,-6.578 7.357,-8.048 7.53,-7.96 7.875,-7.442 C 8.136,-7.703 8.566,-7.703 9,-7.53 c 1.385,0.433 0.952,1.992 0.434,2.164 -0.261,0.262 -0.518,0.262 -1.47,0.173 -1.129,-0.173 -1.558,0.173 -1.301,0.867 0.433,0.952 1.124,0.691 2.253,-0.26 l 0.172,0.088 -0.606,1.297 -0.173,-0.088 z m 2.076,1.298 c 0.261,-2.595 0.349,-3.98 0.261,-4.065 -0.084,-0.088 -0.173,-0.261 -0.345,-0.349 l 0.084,-0.084 1.386,0.69 -0.085,0.173 c -0.433,-0.345 -0.779,-0.257 -0.779,0.779 l 1.386,0.695 c 1.297,-0.868 0.951,-0.779 0.345,-1.04 l 0.085,-0.173 1.473,0.691 -0.088,0.173 -0.173,-0.085 c -0.084,-0.088 -0.261,0 -0.433,0.085 l -2.94,2.686 c -0.089,0.084 -0.177,0.084 -0.177,-0.176 m 1.735,-1.989 -1.301,-0.606 -0.173,1.904 z m 0.257,2.768 c 0.607,0.349 0.695,0.261 0.779,0.176 1.125,-1.646 1.731,-2.598 1.731,-2.771 0.088,-0.088 -0.084,-0.261 -0.345,-0.433 l 0.088,-0.173 1.554,1.04 -0.084,0.173 C 15.406,-3.98 15.406,-3.807 15.321,-3.719 l -0.867,1.297 c 0.867,0.518 0.867,0.518 1.47,-0.088 0.779,-0.952 0.867,-0.779 1.212,-0.603 0.434,0.258 0.434,0.603 0.089,1.209 -0.089,0.089 -0.089,0 -0.089,-0.084 0.261,-1.731 -1.04,0.863 -2.076,0.084 0.607,0.607 1.036,1.125 0.518,1.647 -0.257,0.43 -0.863,0.43 -1.642,0 l -1.731,-1.125 z m 2.076,-0.691 c -1.036,1.47 -1.036,1.297 -0.429,1.646 1.47,0.864 2.16,-0.522 0.429,-1.646 m 1.647,3.116 c 0.261,0.173 0.345,0.261 0.434,0.261 0.084,0.085 0.951,-0.176 2.421,-0.694 l 0.779,-0.952 c 0.089,-0.085 0.089,-0.173 -0.345,-0.607 L 19.385,-1.297 20.859,0 20.687,0.173 C 20.253,-0.257 20.165,-0.779 19.128,0.867 18.434,3.55 18.606,3.205 18.956,3.55 l -0.173,0.088 -1.04,-0.955 0.088,-0.173 0.173,0.173 c 0.084,0.088 0.345,0.088 0.43,0 0.088,-0.085 0.172,-0.691 0.433,-1.816 -2.51,0.607 -1.992,0.779 -1.642,1.125 L 17.136,2.165 15.839,1.04 Z m 3.289,3.029 c 0.345,0.433 0.434,0.345 0.518,0.26 1.558,-1.297 2.337,-2.076 2.426,-2.164 0.084,-0.085 0.084,-0.261 -0.173,-0.518 l 0.173,-0.089 1.209,1.386 -0.173,0.172 c -0.43,-0.69 -0.43,-0.518 -1.385,0.262 l -0.085,0.863 c 2.51,0 2.249,-0.345 1.819,-0.779 L 23.803,3.205 24.927,4.59 24.755,4.674 C 24.667,4.59 24.582,4.502 24.406,4.417 c -0.085,0 -1.037,0.085 -2.683,0.257 -0.257,1.731 -0.173,1.904 0.088,2.253 l -0.173,0.085 -1.04,-1.213 0.173,-0.173 c 0.261,0.346 0.434,0.434 0.522,0.088 0.084,-0.088 0.257,-0.867 0.345,-2.337 -1.992,1.643 -1.646,1.47 -1.212,1.904 L 20.341,5.454 19.128,3.983 Z m 2.683,3.377 c 0.345,0.606 0.345,0.606 0.691,0.345 1.731,-1.04 2.598,-1.646 2.686,-1.731 0.085,-0.088 0,-0.345 -0.261,-0.606 l 0.173,-0.088 1.04,1.558 -0.173,0.088 C 25.791,6.233 26.052,5.972 22.936,8.052 22.59,8.309 22.59,8.225 23.024,8.831 l -0.173,0.085 -1.04,-1.559 z m 1.646,3.461 c 1.816,-1.818 2.683,-2.77 2.767,-3.027 0.089,-0.177 0.089,-0.35 0,-0.522 H 26.57 L 27.265,8.57 27.092,8.658 C 26.743,7.879 26.658,7.964 25.879,8.831 l 0.691,1.385 c 1.125,0 1.213,-0.176 0.952,-0.606 l 0.173,-0.088 0.694,1.47 -0.172,0.088 c -0.089,-0.173 -0.173,-0.261 -0.434,-0.346 l -4.068,0.258 c -0.085,0 -0.261,0 -0.085,-0.258 m 2.683,-0.518 -0.606,-1.3 -1.386,1.385 z m -1.558,2.161 c 0.257,0.607 0,0.868 3.116,-0.43 0.346,-0.088 0.518,-0.522 0.43,-0.779 l 0.173,-0.088 0.522,1.558 -0.173,0.089 c -0.088,-0.434 0.084,-0.78 -3.116,0.345 l 3.895,1.297 0.085,0.173 c -2.165,0.779 -3.29,1.212 -3.374,1.297 -0.088,0.088 -0.173,0.261 -0.088,0.606 l -0.173,0.089 -0.434,-1.386 0.173,-0.088 c 0.088,0.434 0,0.867 3.032,-0.43 l -3.896,-1.301 -0.345,-0.864 z m 4.586,3.377 c 0.346,-0.26 0.434,-0.433 0.346,-0.778 h 0.172 l 0.346,1.469 -0.173,0.089 c -0.173,-0.78 -0.173,-0.867 -1.125,-0.173 l 0.346,1.558 c 1.558,0.43 1.128,0 1.04,-0.434 h 0.173 l 0.345,1.559 -0.173,0.084 c -0.084,-0.257 -0.172,-0.345 -0.345,-0.43 l -3.98,-0.606 c -0.088,0 -0.261,0 -0.088,-0.173 z m -0.345,2.165 -0.346,-1.474 -1.646,1.125 z"
               style="fill:#939597;fill-opacity:1;fill-rule:nonzero;stroke:none"
               id="path2857" />
          </g>
        </g>
      </g>
    </g>
  </g>
</svg>
