<?xml version="1.0" encoding="UTF-8" standalone="no"?>
<!-- Created with Inkscape (http://www.inkscape.org/) -->

<svg
   xmlns:dc="http://purl.org/dc/elements/1.1/"
   xmlns:cc="http://creativecommons.org/ns#"
   xmlns:rdf="http://www.w3.org/1999/02/22-rdf-syntax-ns#"
   xmlns:svg="http://www.w3.org/2000/svg"
   xmlns="http://www.w3.org/2000/svg"
   xmlns:sodipodi="http://sodipodi.sourceforge.net/DTD/sodipodi-0.dtd"
   xmlns:inkscape="http://www.inkscape.org/namespaces/inkscape"
   width="65mm"
   height="44.755455mm"
   viewBox="0 0 65 44.755455"
   version="1.1"
   id="svg8"
   inkscape:version="0.92.1 r15371"
   sodipodi:docname="fi.svg"
   inkscape:export-filename="/home/apophis/jan/KSI/intersob-web/public/images/logo-prf.png"
   inkscape:export-xdpi="25.4"
   inkscape:export-ydpi="25.4">
  <defs
     id="defs2">
    <clipPath
       id="clipPath4560"
       clipPathUnits="userSpaceOnUse">
      <path
         inkscape:connector-curvature="0"
         id="path4558"
         d="M 0,82.21 H 174.25 V 0 H 0 Z" />
    </clipPath>
    <clipPath
       id="clipPath4560-3"
       clipPathUnits="userSpaceOnUse">
      <path
         inkscape:connector-curvature="0"
         id="path4558-6"
         d="M 0,82.21 H 174.25 V 0 H 0 Z" />
    </clipPath>
    <clipPath
       id="clipPath4560-7"
       clipPathUnits="userSpaceOnUse">
      <path
         inkscape:connector-curvature="0"
         id="path4558-0"
         d="M 0,82.21 H 174.25 V 0 H 0 Z" />
    </clipPath>
    <clipPath
       id="clipPath5141"
       clipPathUnits="userSpaceOnUse">
      <path
         inkscape:connector-curvature="0"
         id="path5139"
         d="M 0,77.453 H 100.528 V 0 H 0 Z" />
    </clipPath>
    <clipPath
       id="clipPath5141-7"
       clipPathUnits="userSpaceOnUse">
      <path
         inkscape:connector-curvature="0"
         id="path5139-9"
         d="M 0,77.453 H 100.528 V 0 H 0 Z" />
    </clipPath>
    <clipPath
       id="clipPath5301"
       clipPathUnits="userSpaceOnUse">
      <path
         inkscape:connector-curvature="0"
         id="path5299"
         d="M 0,77.453 H 100.528 V 0 H 0 Z" />
    </clipPath>
    <clipPath
       id="clipPath5301-2"
       clipPathUnits="userSpaceOnUse">
      <path
         inkscape:connector-curvature="0"
         id="path5299-9"
         d="M 0,77.453 H 100.528 V 0 H 0 Z" />
    </clipPath>
  </defs>
  <sodipodi:namedview
     id="base"
     pagecolor="#ffffff"
     bordercolor="#666666"
     borderopacity="1.0"
     inkscape:pageopacity="0.0"
     inkscape:pageshadow="2"
     inkscape:zoom="0.98994949"
     inkscape:cx="16.787588"
     inkscape:cy="-7.6918697"
     inkscape:document-units="mm"
     inkscape:current-layer="layer1"
     showgrid="false"
     inkscape:window-width="1920"
     inkscape:window-height="1182"
     inkscape:window-x="0"
     inkscape:window-y="0"
     inkscape:window-maximized="1"
     fit-margin-top="0"
     fit-margin-left="0"
     fit-margin-right="0"
     fit-margin-bottom="0" />
  <metadata
     id="metadata5">
    <rdf:RDF>
      <cc:Work
         rdf:about="">
        <dc:format>image/svg+xml</dc:format>
        <dc:type
           rdf:resource="http://purl.org/dc/dcmitype/StillImage" />
        <dc:title />
      </cc:Work>
    </rdf:RDF>
  </metadata>
  <g
     inkscape:label="Layer 1"
     inkscape:groupmode="layer"
     id="layer1"
     transform="translate(-45,-108.79366)">
    <g
       transform="matrix(0.87756485,0,0,-0.87756485,33.395082,165.15438)"
       inkscape:label="inf-lg-cze-white"
       id="g5291"
       style="fill:#bbbbbb;fill-opacity:1">
      <path
         inkscape:connector-curvature="0"
         id="path5293"
         style="fill:#bbbbbb;fill-opacity:1;fill-rule:nonzero;stroke:none"
         d="m 23.153,64.224 h 3.3 V 43.225 h -3.3 z m -1.229,0 h 1.109 l -2.04,-20.999 h -1.109 z m -5.311,0 h 1.111 l 2.04,-20.999 h -1.111 z m -3.389,0 h 3.271 V 43.225 h -3.271 z" />
      <g
         id="g5295"
         style="fill:#bbbbbb;fill-opacity:1">
        <g
           clip-path="url(#clipPath5301)"
           id="g5297"
           style="fill:#bbbbbb;fill-opacity:1">
          <g
             transform="translate(38.8428,64.2236)"
             id="g5303"
             style="fill:#bbbbbb;fill-opacity:1">
            <path
               inkscape:connector-curvature="0"
               id="path5305"
               style="fill:#bbbbbb;fill-opacity:1;fill-rule:nonzero;stroke:none"
               d="m 0,0 v -16.05 c 0,-1.138 1.021,-1.949 1.98,-1.949 0.96,0 1.98,0.811 1.98,1.949 V 0 h 3.3 v -16.169 c 0,-2.82 -2.55,-5.01 -5.28,-5.01 -2.73,0 -5.28,2.19 -5.28,5.01 L -3.3,0 Z" />
          </g>
          <path
             inkscape:connector-curvature="0"
             id="path5307"
             style="fill:#bbbbbb;fill-opacity:1;fill-rule:nonzero;stroke:none"
             d="m 67.373,43.225 h -3.301 v 20.999 h 3.301 z m -6.54,20.999 3.12,-20.999 h -1.14 l -3.12,20.999 z m -1.26,-20.999 h -3.3 v 20.999 h 3.3 z" />
          <g
             transform="translate(81.1426,44.3945)"
             id="g5309"
             style="fill:#bbbbbb;fill-opacity:1">
            <path
               inkscape:connector-curvature="0"
               id="path5311"
               style="fill:#bbbbbb;fill-opacity:1;fill-rule:nonzero;stroke:none"
               d="m 0,0 v 18.659 h -2.819 v 1.17 H 6.15 v -1.17 H 3.3 V 0 H 6.15 V -1.17 H -2.819 V 0 Z" />
          </g>
          <g
             transform="translate(15.3838,34.2236)"
             id="g5313"
             style="fill:#bbbbbb;fill-opacity:1">
            <path
               inkscape:connector-curvature="0"
               id="path5315"
               style="fill:#bbbbbb;fill-opacity:1;fill-rule:nonzero;stroke:none"
               d="M 0,0 H 9.989 V -1.5 H 1.62 v -8.729 h 8.009 v -1.5 H 1.62 v -9.27 H 0 Z" />
          </g>
          <g
             transform="translate(40.0127,14.2744)"
             id="g5317"
             style="fill:#bbbbbb;fill-opacity:1">
            <path
               inkscape:connector-curvature="0"
               id="path5319"
               style="fill:#bbbbbb;fill-opacity:1;fill-rule:nonzero;stroke:none"
               d="m 0,0 v 18.899 h -3.66 v 1.05 h 8.94 v -1.05 H 1.62 V 0 H 5.28 V -1.05 H -3.66 V 0 Z" />
          </g>
        </g>
      </g>
    </g>
  </g>
</svg>
