<?xml version="1.0" encoding="UTF-8" standalone="no"?>
<svg
   xmlns:dc="http://purl.org/dc/elements/1.1/"
   xmlns:cc="http://creativecommons.org/ns#"
   xmlns:rdf="http://www.w3.org/1999/02/22-rdf-syntax-ns#"
   xmlns:svg="http://www.w3.org/2000/svg"
   xmlns="http://www.w3.org/2000/svg"
   xmlns:sodipodi="http://sodipodi.sourceforge.net/DTD/sodipodi-0.dtd"
   xmlns:inkscape="http://www.inkscape.org/namespaces/inkscape"
   width="13.229167mm"
   height="13.229167mm"
   viewBox="0 0 13.229167 13.229167"
   version="1.1"
   id="svg5321"
   sodipodi:docname="fi.svg"
   inkscape:version="0.92.1 r15371">
  <sodipodi:namedview
     pagecolor="#ffffff"
     bordercolor="#666666"
     borderopacity="1"
     objecttolerance="10"
     gridtolerance="10"
     guidetolerance="10"
     inkscape:pageopacity="0"
     inkscape:pageshadow="2"
     inkscape:window-width="1920"
     inkscape:window-height="1182"
     id="namedview19"
     showgrid="false"
     inkscape:zoom="4.7199999"
     inkscape:cx="25.000001"
     inkscape:cy="25.000001"
     inkscape:window-x="0"
     inkscape:window-y="0"
     inkscape:window-maximized="1"
     inkscape:current-layer="svg5321" />
  <defs
     id="defs5315">
    <clipPath
       id="clipPath18"
       clipPathUnits="userSpaceOnUse">
      <path
         id="path16"
         d="M 0,600 H 600 V 0 H 0 Z" />
    </clipPath>
    <clipPath
       id="clipPath30"
       clipPathUnits="userSpaceOnUse">
      <path
         id="path28"
         d="M 0,600 H 600 V 0 H 0 Z" />
    </clipPath>
    <clipPath
       id="clipPath2693"
       clipPathUnits="userSpaceOnUse">
      <path
         id="path2691"
         d="M 0,70.866 H 70.866 V 0 H 0 Z" />
    </clipPath>
    <clipPath
       id="clipPath2853"
       clipPathUnits="userSpaceOnUse">
      <path
         id="path2851"
         d="M 0,70.866 H 70.866 V 0 H 0 Z" />
    </clipPath>
  </defs>
  <metadata
     id="metadata5318">
    <rdf:RDF>
      <cc:Work
         rdf:about="">
        <dc:format>image/svg+xml</dc:format>
        <dc:type
           rdf:resource="http://purl.org/dc/dcmitype/StillImage" />
        <dc:title />
      </cc:Work>
    </rdf:RDF>
  </metadata>
  <path
     inkscape:connector-curvature="0"
     d="m 7.153418,11.383011 -0.033641,0.01629 H 6.1935878 L 5.8742926,10.828466 h 0.8917709 l 0.033641,-0.01629 3.9717445,-6.9002932 0.303155,0.6210749 z M 7.5744132,6.3633993 7.6078595,6.3796923 7.7258937,6.9507243 7.3721799,7.6392989 7.2541457,7.0013491 7.220505,6.9842802 H 5.015968 L 5.3862104,6.3633993 Z M 6.6482238,10.643812 3.5853621,5.321809 H 4.3256525 L 5.1166957,6.7154452 4.9481032,7.0013491 5.318929,7.6891478 5.7733704,7.7062167 7.0019375,9.9893748 Z M 8.3483443,5.321809 8.6176646,4.8351517 8.6847516,5.321809 H 9.0050191 L 6.68167,9.3009942 5.8235398,7.7062167 H 7.3721799 L 7.75934,6.9507243 7.6243882,6.3290676 H 5.3525697 L 5.1503364,6.6655963 4.3764053,5.321809 Z M 9.4087078,4.6004544 9.0386598,5.2719601 H 8.7355044 L 8.6341933,4.6004544 Z M 8.6676396,4.3989251 8.5669118,4.5670925 8.6005526,4.7680399 8.3483443,5.2385982 8.2474222,4.5164677 8.5669118,3.9454357 Z M 2.5918912,3.8950049 H 8.5332711 L 8.2139759,4.4829118 H 2.2218432 Z M 5.7055056,10.643812 H 5.9250454 L 5.8235398,10.79491 6.1772536,11.43286 H 7.153418 L 11.125357,4.5329547 C 11.074604,4.415994 10.788755,3.844962 10.788755,3.844962 H 8.987907 L 8.7020581,4.3481064 8.5840239,3.844962 H 2.5584449 L 2.1545618,4.4829118 Z M 7.220505,6.9842802 7.2541457,7.0013491 7.6078595,6.3796923 7.5744132,6.3633993 Z m -0.067087,4.3987308 -0.033641,0.01629 -0.3537138,-0.570838 0.033641,-0.01629 z M 0.20223297,7.1687406 c 0,0.1006677 0.0843935,0.1846544 0.18512122,0.1846544 0.0843935,0 0.16800917,-0.083987 0.16800917,-0.1846544 0,-0.083987 -0.0836157,-0.1673915 -0.16800917,-0.1673915 -0.10072772,0 -0.18512122,0.083405 -0.18512122,0.1673915 m 12.37084203,0 c 0,0.1006677 0.08362,0.1846544 0.185121,0.1846544 0.08362,0 0.168009,-0.083987 0.168009,-0.1846544 0,-0.083987 -0.08439,-0.1673915 -0.168009,-0.1673915 -0.101505,0 -0.185121,0.083405 -0.185121,0.1673915 M 0.03364043,6.7154452 v -0.084181 c 0,-0.016293 0,-0.049849 0.05075277,-0.049849 h 0.62245065 c 0.0507528,0 0.0507528,0.033556 0.0507528,0.049849 v 0.084181 h 0.0334463 V 6.3463304 h -0.0334463 v 0.083987 c 0,0.016487 -0.017112,0.050043 -0.0672815,0.050043 h -0.2864323 v -0.067112 c 0,-0.066918 0.0678648,-0.1175426 0.15148049,-0.1340296 V 6.2456628 H 0.21876165 v 0.033556 c 0.084199,0.016487 0.13495181,0.067112 0.13495181,0.1340296 V 6.48036 H 0.0843932 c -0.05075277,0 -0.05075277,0 -0.05075277,-0.050043 V 6.3127745 c 0,-0.050625 0.01711205,-0.1004737 0.05075277,-0.1510985 C 0.11803393,6.144607 0.18512092,6.111051 0.26951442,6.094564 V 6.0612023 L -2.9222e-7,6.0774954 V 6.7154452 Z M 0.06728116,5.6079069 c 0.43810725,0.2849341 0.65667474,0.4197396 0.67320342,0.4362266 0.017112,0.017069 0.0342241,0.033362 0.017112,0.083987 h 0.0334463 l 0.0507528,-0.28571 -0.0334463,-0.016487 C 0.77470867,5.9770217 0.79104289,6.0105776 0.58958745,5.8592851 L 0.6395624,5.5570882 0.79104289,5.5237262 c 0.0173065,0 0.0672814,0.017069 0.0507528,0.1004737 l 0.0336407,0.017069 0.0507528,-0.3194598 h -0.0342241 c 0,0.050625 -0.0165287,0.067888 -0.0672815,0.084375 L 0.06728116,5.5570882 c -0.03364073,0.017263 -0.03364073,0.033556 0,0.050819 M 0.58958745,5.574351 0.53883468,5.8424102 0.20223297,5.6575619 Z M 0.37024214,4.5498296 C 0.30296069,4.6340103 0.26951442,4.6675662 0.25240238,4.734678 0.18512092,4.9362073 0.32026719,5.1373486 0.5724754,5.2042664 0.79104289,5.2719601 0.97616411,5.1373486 1.0434456,4.9526943 1.0941983,4.8015958 1.0098048,4.6675662 0.85832434,4.5833855 c -0.0165287,0 -0.0336407,0.017069 -0.0165287,0.033556 C 0.97616411,4.7011221 1.0605576,4.8015958 1.0098048,4.9526943 0.99347061,5.0873057 0.82468362,5.1373486 0.60611613,5.0702369 0.33660142,5.003319 0.25240238,4.8685136 0.30296069,4.7517469 0.32026719,4.7011221 0.35371346,4.6504973 0.40388287,4.6169414 0.45463564,4.6004544 0.53883468,4.5833855 0.62322818,4.5833855 L 0.6395624,4.5670925 0.32026719,4.4658429 v 0.033556 z m 0.0678648,-0.2515721 c 0.0672815,-0.1346115 0,-0.1681674 0.33660171,0.016487 0.16800917,0.084181 0.26873695,0.1175426 0.31948965,0.1175426 0.084199,0 0.3537138,-0.1510985 0.2693203,-0.4362266 C 1.3464065,3.9454357 1.2964316,3.8950049 1.2120381,3.8612551 L 0.85832434,3.6938636 C 0.79104289,3.6432388 0.77470867,3.6096829 0.82468362,3.5256962 L 0.77470867,3.4921403 0.6395624,3.7780442 0.69031517,3.8114061 C 0.74048458,3.6938636 0.74048458,3.6938636 0.85832434,3.7607814 1.3971593,3.9789916 1.3464065,4.0631723 1.2793195,4.1972019 1.2291501,4.3147445 1.1949261,4.3318134 1.1113104,4.3318134 c -0.033641,0 -0.13514629,-0.033556 -0.30296101,-0.1175426 C 0.6568689,4.1300901 0.5724754,4.0967282 0.55536336,4.0802412 c 0,-0.017069 0.017112,-0.050625 0.0507528,-0.1177366 L 0.5724754,3.9291427 0.40388287,4.2811886 Z m 0.42021738,-0.873035 c 0.0678648,-0.1177366 0.017112,-0.1342236 0.37082578,0.083987 0.3865767,0.2182102 0.3194897,0.1846544 0.2524027,0.3021969 L 1.497887,3.8278931 1.8516008,3.27393 1.5993926,3.0892757 1.5822805,3.1228316 C 1.733761,3.2568612 1.7674017,3.3410418 1.7001203,3.4585844 1.5822805,3.6432388 1.6664796,3.6432388 1.2793195,3.4252225 0.92618916,3.2070122 0.97616411,3.2405681 1.0605576,3.1057627 L 1.0269169,3.0892757 0.82468362,3.4079596 Z M 1.4642463,2.9554401 1.4815528,2.9211083 c -0.1851212,-0.3355589 -0.033641,-0.3691148 0,-0.3355589 0.3192952,0.2686411 0.4880822,0.4197396 0.4880822,0.4368085 0.016334,0.016293 0,0.033556 -0.050753,0.083405 L 1.952328,3.1399009 2.17109,2.8712598 2.137449,2.8377038 c -0.03364,0.050043 -0.067086,0.083405 -0.083615,0.083405 C 2.036722,2.9048153 1.8852415,2.7700098 1.5657519,2.5019507 c -0.067865,-0.067694 0,-0.2352792 0.3194896,-0.033362 L 1.9023536,2.417964 1.6664796,2.2333096 1.2627909,2.7364539 Z M 1.969635,1.8975567 c 0.2185675,0.4697825 0.3192952,0.7213547 0.302961,0.7554924 0,0.016487 -0.017112,0.050043 -0.033641,0.067112 L 2.272596,2.7364539 2.4740514,2.5355065 2.4577172,2.5019507 C 2.339683,2.6530491 2.3062367,2.5355065 2.2889302,2.4848818 L 2.2554839,2.4007011 2.4740514,2.1826848 c 0.2695147,0.1348055 0.2022333,0.1004737 0.1178398,0.1846544 l 0.033641,0.017069 0.235874,-0.2182103 -0.033641,-0.017069 c -0.033446,0.033556 -0.067087,0.050625 -0.1007277,0.033556 L 2.01961,1.8640009 C 1.9859692,1.846932 1.9523285,1.846932 1.969635,1.8975567 M 2.4240765,2.1661978 2.2218432,2.3673392 2.0703627,2.0152933 Z M 2.8277652,1.2759 c -0.084199,0 -0.4715535,0.084181 -0.2522082,0.4034465 0.067087,0.083405 0.1680091,0.083405 0.3194896,0.033556 0.2356796,-0.084181 0.2356796,-0.084181 0.302961,-0.017069 0.067087,0.066918 0.033641,0.1681674 -0.050753,0.2352791 -0.1172564,0.066918 -0.2522083,0.066918 -0.3865767,-0.067112 L 2.7270369,1.8975566 2.895046,2.1491288 2.945799,2.1157668 2.962133,2.0152931 C 3.2151197,2.0985041 3.3331539,1.7464583 3.2487604,1.6287217 3.1472549,1.4941102 3.0799734,1.5111791 2.8614059,1.5953598 2.7435661,1.6287217 2.5248042,1.6622776 2.575557,1.4776232 2.6091977,1.3265248 2.7943189,1.2759 2.9957744,1.4269985 l 0.034224,-0.016293 -0.1857046,-0.2182102 -0.016529,0.016487 z m 0.9590523,0.1012495 c 0,0.083405 -0.016334,0.1340296 -0.067087,0.1510985 V 1.561804 L 3.9719388,1.4442613 3.9554101,1.4107054 C 3.8883231,1.4605543 3.8375703,1.5111791 3.8375703,1.2425381 L 4.1068906,1.1085085 c 0.2024277,0.1510984 0.2024277,0.1510984 0.084394,0.2009474 v 0.034332 L 4.477133,1.2089822 4.460021,1.1924952 C 4.410046,1.2089822 4.3764053,1.2089822 4.3427646,1.1754263 L 3.7868175,0.65501907 c -0.033641,-0.0333619 -0.049975,-0.0333619 -0.049975,0.016487 z M 4.0734443,1.0749526 3.8212361,1.1924952 3.7868175,0.80631151 Z M 4.2585655,0.4868517 C 4.3764053,0.4370028 4.3764053,0.386378 4.5107737,0.77275562 c 0.1349518,0.38560178 0.1178398,0.33575288 0,0.38560178 v 0.034138 L 4.8644875,1.0749526 4.8473754,1.0413967 C 4.7293412,1.0578837 4.7466477,1.1420644 4.6115015,0.73919973 4.780094,0.68857495 4.8473754,0.70564385 4.8981282,0.87322932 c 0.049975,0.15109848 0.302961,0.25157218 0.2693203,-0.0841807 0,-0.016293 -0.033446,-0.0498489 -0.033446,0 0.033446,0.11773656 -0.034419,0.16836134 -0.1351463,0.0335559 C 4.9315745,0.67150606 4.9144624,0.70564385 4.7629819,0.67150606 4.9315745,0.58810126 4.9823273,0.50411455 4.9481032,0.41993389 4.8981282,0.2859043 4.780094,0.25234841 4.6286135,0.31926622 L 4.241259,0.45329581 Z m 0.352936,0.21879215 C 4.460021,0.35282211 4.460021,0.40344689 4.6457255,0.35282211 c 0.083616,-0.0170689 0.151675,0 0.1851213,0.0671118 0.067281,0.13461148 -0.017112,0.21801629 -0.1514805,0.26864106 z M 5.1674485,0.4868517 5.2010895,0.4705587 C 5.2347305,0.20172366 5.35257,0.13480585 5.4025449,0.18465477 c 0.017112,0 0.034419,0.10124956 0.067865,0.31945981 0.050169,0.21801629 0.067281,0.33555888 0.050169,0.35262777 0,0.016487 -0.033641,0.016487 -0.1009222,0.0335559 V 0.9238541 L 5.7733704,0.87322932 V 0.83967343 C 5.6384186,0.85674232 5.6555307,0.90678521 5.5713316,0.4868517 5.5376909,0.26864144 5.5205789,0.16816775 5.5205789,0.15109885 5.5376909,0.13480582 5.6891714,0.03355626 5.8070112,0.369891 h 0.050169 L 5.7898991,0.06769405 5.1503364,0.18465474 Z M 5.9921324,0.08418104 c 0.1343684,-0.01648699 0.1343684,-0.01648699 0.1343684,0.05062478 0.033641,0.40267066 0.033641,0.62068695 0.017112,0.6379498 -0.017112,0.016293 -0.050753,0.016293 -0.1178398,0.0335559 v 0.0333619 l 0.370048,-0.0333619 v -0.0335559 c -0.067087,0 -0.1178398,0 -0.1343685,-0.0172628 -0.017112,-0.016293 -0.017112,-0.21801629 -0.034224,-0.62068695 0,-0.06711177 0,-0.06711177 0.1351463,-0.08418066 V 0.01706927 L 5.9921324,0.05062516 Z m 0.9090774,0 C 6.8168163,0.03355626 6.7660635,3.7638e-7 6.6989765,3.7638e-7 c -0.1351462,0 -0.235874,0.10124955362 -0.235874,0.25234803362 0,0.0500429 0.017112,0.1004737 0.067087,0.15109848 0.033641,0.016487 0.084394,0.0498489 0.168787,0.0671118 0.2185675,0.0498489 0.2522082,0.0669178 0.2522082,0.16739151 0,0.0841807 -0.067087,0.15109847 -0.1851212,0.15109847 -0.1343684,0 -0.2522082,-0.0834048 -0.2693202,-0.26864106 h -0.050169 v 0.30219695 h 0.050169 l 0.067087,-0.0671118 c 0.050753,0.0508187 0.1178397,0.0841807 0.2022332,0.0841807 0.1514805,0 0.2695147,-0.11754259 0.2695147,-0.25157217 0,-0.13480545 -0.067281,-0.18465437 -0.3031554,-0.23527915 C 6.547496,0.2859043 6.5301895,0.2859043 6.5301895,0.18465474 c 0,-0.0671118 0.084394,-0.13402958 0.168787,-0.13402958 0.1178398,0 0.1851212,0.06691781 0.2522082,0.25176614 h 0.033641 L 6.9682968,0.01706927 h -0.033641 z m 0.6895376,0.03336193 c 0.1514805,0.0506248 0.1351463,-0.016293 0.067087,0.40286462 C 7.6078595,0.9238541 7.5907474,0.85674232 7.456379,0.83967343 v 0.0335559 L 7.8266214,0.9403411 V 0.90678521 C 7.6914752,0.89029821 7.6751409,0.9403411 7.7422279,0.53747648 7.8095094,0.11754297 7.7758686,0.13480582 7.9609899,0.18465474 V 0.15109885 L 7.5907474,0.08418104 Z m 0.471748,0.10124955 c 0.049975,0.016487 0.083421,0.016487 0.1007277,0.0335559 0.016334,0.016293 -0.033641,0.2009474 -0.1514805,0.57025613 -0.017307,0.0676937 -0.084394,0.10124956 -0.1514805,0.0841807 L 7.8429556,0.9403411 8.1632231,1.0243278 V 1.0072589 C 8.0788296,0.95740999 8.0624954,0.90678521 8.0788296,0.83967343 L 8.2139759,0.386378 l 0.2858489,0.7384235 0.050753,0.017263 c 0.117062,-0.45348945 0.1849268,-0.67150573 0.2185675,-0.68876859 0.033641,-0.016293 0.067281,-0.016293 0.1007277,0 l 0.017306,-0.033362 -0.2866267,-0.0841807 V 0.369891 c 0.033641,0.016487 0.050753,0.0335559 0.067087,0.0671118 0.017112,0.016293 -0.016334,0.2009474 -0.117062,0.53670024 L 8.2474222,0.23527952 8.0624954,0.18465474 Z M 8.9206256,0.4868517 c 0.1343684,0.0506248 0.1851212,0 0,0.40344651 C 8.7691451,1.2759 8.7856738,1.2089822 8.6676396,1.1583574 l -0.016334,0.034138 0.3366017,0.1340296 0.017112,-0.033556 c -0.1351463,-0.050431 -0.1858991,0.016487 0,-0.3691148 C 9.155722,0.990772 9.155722,1.0413968 9.1393877,1.1583575 h 0.016334 L 9.290868,0.83967343 9.2572273,0.82260454 c -0.050753,0.0841807 -0.1015055,0.13480545 -0.235874,0.0676937 l 0.1009222,-0.2686411 c 0.1013111,-0.0506248 0.38716,0.0669178 0.302961,0.31868396 L 9.4423485,0.95740999 9.526742,0.70564385 8.9371543,0.45329581 Z M 10.04827,0.97370302 c -0.1349513,-0.1004737 -0.4036882,0 -0.5051938,0.16836138 C 9.4252365,1.3771495 9.4931013,1.5953598 9.6611105,1.6958335 9.829703,1.7963072 10.064799,1.7291954 10.182639,1.5111791 10.300673,1.3094559 10.24992,1.0749526 10.04827,0.97370302 m 0,0.0506248 c 0.100923,0.066918 0.151675,0.1681674 0.01653,0.4362265 C 9.9133187,1.7129024 9.7789502,1.7291954 9.6782225,1.6622776 9.5601883,1.5953598 9.526742,1.4605543 9.6611105,1.2089822 9.7952844,1.0072589 9.9304307,0.95740999 10.04827,1.0243278 m 0.454636,0.302197 c 0.06709,0.050625 0.08362,0.1004737 0.04997,0.1510984 -0.235096,0.318684 -0.370242,0.4697825 -0.386576,0.4868514 -0.01711,0 -0.05075,-0.017069 -0.101506,-0.066918 l -0.01653,0.033556 0.285849,0.2180163 0.01731,-0.017069 c -0.08439,-0.083405 -0.151481,-0.033556 0.11784,-0.3522398 0.168009,0.1006677 0.15148,0.1512924 0.06709,0.268835 -0.0842,0.1340296 -0.0842,0.2180163 -0.03345,0.2688351 0.08362,0.049849 0.151481,0.016293 0.235097,-0.067694 0.01711,-0.016487 0.03345,-0.067112 -0.01653,-0.016487 -0.134952,0.1004737 -0.168593,0.033362 -0.100728,-0.067112 0.08362,-0.1509045 0.06728,-0.1844604 -0.01711,-0.3192658 0.185121,0.2017232 0.572476,0.017069 0.235874,-0.302197 L 10.519241,1.3094559 Z m 0,0.4199335 c 0.201456,-0.285904 0.167815,-0.285904 0.302961,-0.1683614 0.08362,0.050625 0.100728,0.1012496 0.08362,0.1510985 -0.03364,0.1177366 -0.15148,0.2182103 -0.386577,0.017263 m 0.773932,0.2352791 c 0.05075,0.049849 0.06709,0.083211 0.05075,0.1004737 0,0.016293 -0.15148,0.1340296 -0.438107,0.3863776 -0.06728,0.049849 -0.100728,0.049849 -0.168009,0 l -0.03345,0.016293 0.201455,0.2182102 0.03345,-0.016487 c -0.04997,-0.067694 -0.06709,-0.1175426 -0.04997,-0.1346115 0.01653,-0.016487 0.185122,-0.1675854 0.504611,-0.4362265 l -0.386576,0.7048676 0.01633,0.017069 0.757597,-0.2686411 c -0.336602,0.2851281 -0.521723,0.4362266 -0.555364,0.4362266 -0.01711,0 -0.05075,-0.033556 -0.0842,-0.084181 l -0.03364,0.017069 0.235874,0.285322 0.03345,-0.016487 c -0.0842,-0.1177365 -0.151481,-0.067112 0.185121,-0.3357528 0.35313,-0.28571 0.285849,-0.2182103 0.336602,-0.1510985 L 11.9164,2.703092 11.76492,2.5184377 11.142469,2.7537168 11.461764,2.1491289 11.310284,1.9644746 Z m 0.993276,1.2252748 c -0.505194,0.083987 -0.774709,0.1177366 -0.80835,0.1177366 -0.01633,-0.017263 -0.05056,-0.03375 -0.06709,-0.067888 l -0.03364,0.017069 0.15148,0.2517662 0.03364,-0.016487 c -0.05075,-0.1175426 -0.11784,-0.1348055 0.15148,-0.1681674 l 0.168009,0.2686411 C 11.731279,3.811406 11.731279,3.811406 11.664192,3.6938638 l -0.03364,0.016293 0.167815,0.268835 0.01731,-0.016487 c -0.01731,-0.050625 -0.01731,-0.083987 0,-0.1012495 l 0.470775,-0.620687 c 0.01731,-0.033556 0.01731,-0.033556 -0.01633,-0.033556 M 11.899288,3.576127 11.748391,3.3247488 12.118634,3.2568612 Z m 0.320073,0.1512924 0.01711,0.033362 c 0.08362,-0.017069 0.150897,-0.017069 0.20165,0 0.134952,0.050625 0.134952,0.1177365 0.11784,0.1342235 0,0.016875 -0.202233,0.1010556 -0.622451,0.2686411 -0.01711,0 -0.01711,0.017069 -0.06787,-0.1004737 l -0.03364,0.017069 0.135146,0.3186839 0.03345,-0.017263 c -0.01711,-0.083405 -0.117839,-0.1004737 0.285849,-0.2515722 0.202233,-0.084181 0.303156,-0.1177366 0.320268,-0.1004737 0.01633,0 0.167814,0.1175426 -0.151481,0.302197 l 0.01633,0.033556 0.286627,-0.1177365 -0.252986,-0.587325 z m 0.841796,1.779238 c 0.04997,-0.083599 0.04997,-0.1512925 0.04997,-0.2182103 -0.03345,-0.1846544 -0.218567,-0.3357528 -0.488082,-0.302197 -0.201456,0.033362 -0.370048,0.2180163 -0.336602,0.4034466 0.01731,0.1846543 0.135146,0.2678652 0.320268,0.2678652 0.03364,0 0.03364,-0.033362 0,-0.033362 -0.151481,-0.016293 -0.269515,-0.083405 -0.286627,-0.2345032 -0.01633,-0.1348055 0.101505,-0.2523481 0.320267,-0.2688351 0.285849,-0.050625 0.403689,0.049849 0.420801,0.1846544 0,0.049849 -0.01711,0.1006677 -0.05075,0.1510985 -0.05075,0.050043 -0.100727,0.084181 -0.185121,0.1340296 v 0.017263 l 0.31949,-0.050819 -0.01633,-0.033362 z M 12.808171,4.4493559 c 0.01711,0.1340296 0.03364,0.1340296 -0.03364,0.1510985 l -0.58881,0.1675855 c -0.01711,0 -0.03345,0.017069 -0.0842,-0.1175426 h -0.03364 l 0.100727,0.3691148 0.03364,-0.016293 c -0.01653,-0.1348054 -0.08362,-0.1348054 0.320073,-0.2515721 0.420995,-0.1177366 0.336602,-0.067888 0.387355,0.049849 h 0.03364 L 12.841812,4.4322871 Z m 0.353714,1.4941099 c 0,0.1510985 -0.01711,0.1340296 -0.03345,0.1340296 -0.01731,0 -0.118035,-0.049849 -0.336602,-0.1340296 C 12.370842,5.7588114 12.404482,5.7752984 12.404482,5.7083806 h -0.03364 l 0.01653,0.2180163 h 0.03422 c 0,-0.1340296 0,-0.1004737 0.31949,0.033556 V 6.178745 C 12.40448,6.195038 12.438121,6.212301 12.438121,6.0774955 h -0.03364 l 0.05075,0.6379498 0.302961,-0.016293 -0.01711,-0.033556 c -0.218762,-0.034332 -0.252403,-0.050625 -0.285849,-0.2352792 0,-0.1346115 -0.05075,-0.1510985 0.352936,-0.1510985 0,0.1846544 -0.03364,0.2011414 -0.15148,0.2011414 V 6.497429 L 13.026933,6.48036 V 6.463873 C 12.909677,6.4468041 12.858924,6.3967612 12.841812,6.2792186 l 0.286627,-0.017069 c 0.01633,0 0.04997,-0.033556 0.04997,0.1846544 0.01711,0.1012496 -0.06728,0.1681674 -0.218762,0.1844604 l 0.01731,0.034332 0.252208,-0.034332 -0.03364,-0.6877987 z M 12.791837,6.1787449 V 5.9770217 l 0.352936,0.1510985 c 0,0.033556 -0.03364,0.033556 -0.06709,0.033556 z M 0.77470867,7.4882004 c 0.0163342,0.1510985 0.067087,0.1340296 -0.28662676,0.2180163 -0.16781472,0.033556 -0.26932026,0.067112 -0.30296099,0.1006677 -0.067087,0.066918 -0.0836157,0.1681673 -0.067087,0.3021969 0.017112,0.084181 0.067087,0.1510985 0.13436845,0.2017233 0.0505583,0.033362 0.16859253,0.016487 0.35371375,-0.033556 0.18492676,-0.050625 0.30296098,-0.067694 0.32007303,-0.050625 0.0165287,0.016487 0.0336407,0.067112 0.049975,0.1175426 l 0.0507528,-0.016875 -0.0841991,-0.318684 -0.0336407,0.016293 c 0,0.067112 0,0.1012495 -0.0507528,0.1175426 C 0.84179566,8.1597061 0.35371346,8.3108046 0.26951442,8.2601798 0.1514802,8.1424433 0.1514802,7.9579829 0.25240238,7.8908711 c 0.017112,-0.017069 0.11783976,-0.033362 0.2864323,-0.083987 0.16800917,-0.050625 0.25220821,-0.084181 0.26951471,-0.067112 0.0163342,0.016487 0.0334463,0.050043 0.049975,0.1177366 h 0.0507528 L 0.80834939,7.4711315 Z M 1.0098048,8.3606535 c 0.017112,0.033556 0.017112,0.067112 0,0.1012496 0,0.016293 -0.18512118,0.1004737 -0.53805712,0.2180163 -0.0678648,0.016487 -0.13514626,-0.017069 -0.15148049,-0.083987 l -0.0336407,0.017069 0.1172564,0.3014211 0.0342241,-0.016293 C 0.42099491,8.8475048 0.40388287,8.8139489 0.42099491,8.7976559 0.43810696,8.7641 0.62322818,8.6799194 0.95982988,8.5623768 L 0.52172263,9.2509513 c -0.0163342,0.033556 0,0.033556 0.0171121,0.033556 C 0.95982988,9.1334088 1.1949261,9.0657151 1.2291501,9.082784 c 0.033641,0.017069 0.050169,0.033362 0.067281,0.050625 h 0.033446 l -0.100727,-0.2688353 -0.034224,0.016487 c 0.017112,0.017069 0.017112,0.050625 0,0.084181 C 1.1783971,8.9986037 1.0098048,9.0657154 0.67320313,9.183258 L 1.0941983,8.511752 1.0434456,8.3441665 Z m 0.2866268,0.7727553 c 0.067087,0.1175425 0.1007277,0.1340295 -0.235874,0.285128 -0.32007302,0.1510985 -0.3366017,0.1681674 -0.4036887,0.050625 l -0.0336407,0.016293 0.16781471,0.3194598 0.0336407,-0.017263 C 0.75759662,9.670109 0.77470867,9.653622 1.0605576,9.5027175 1.3800473,9.351425 1.3971593,9.3343562 1.4642463,9.4518987 L 1.497887,9.4356057 1.3127658,9.0998529 Z m 0.1851212,0.3520458 c 0.016334,0.033556 0.033446,0.066918 0.016334,0.084181 0,0.017069 -0.1514805,0.2515722 -0.4544414,0.6715054 0,0 -0.016529,0.03356 0.017112,0.01707 0.5051943,-0.117543 0.7739311,-0.168361 0.7910432,-0.151099 0.033641,0.01629 0.050753,0.03356 0.067281,0.04985 l 0.017112,-0.01629 -0.1514805,-0.2525414 -0.033641,0.017263 c 0.067281,0.1175424 0.083616,0.1340294 0.033641,0.1510984 -0.017112,0.01707 -0.2187619,0.05062 -0.5724757,0.117542 C 1.4308,9.8547634 1.5486398,9.7036649 1.5657519,9.7036649 c 0.016529,-0.016487 0.016529,-0.016487 0.033641,-0.016487 0.016334,0 0.033641,0.033556 0.067087,0.084181 l 0.03364,-0.017069 -0.1851212,-0.2851281 z m 0.4707757,0.7050614 c 0.067282,0.06769 0.050753,0.117543 -0.2185675,0.335753 -0.2522082,0.201723 -0.2695147,0.218792 -0.3366017,0.134612 l -0.033641,0.01649 0.4209952,0.50392 0.2350962,-0.168168 -0.016529,-0.03356 c -0.285849,0.201724 -0.4544415,-0.134029 -0.4544415,-0.134029 0,-0.01707 0.084394,-0.08418 0.2695147,-0.235085 0.084199,0.134611 0.067087,0.18446 -0.017306,0.252154 l 0.017306,0.03356 0.2856545,-0.252348 -0.016334,-0.01649 c -0.084394,0.06711 -0.1351463,0.08418 -0.2529861,-0.03336 L 2.0538337,10.40931 c 0.1172564,-0.01707 0.3531303,0.26806 0.1007277,0.402865 l 0.016529,0.01629 0.2193453,-0.167585 -0.4208008,-0.486852 z m 0.4880822,0.570838 C 2.575557,10.89616 2.5076922,10.89616 2.2889302,11.164219 2.0703627,11.416567 2.0538341,11.383011 1.969635,11.29883 l -0.033641,0.01649 0.2858489,0.252348 0.017112,-0.01707 C 2.1211155,11.43286 2.1374497,11.450123 2.3904358,11.198357 l 0.049975,0.05004 c 0.067281,0.06692 0.067281,0.117542 0,0.218016 -0.134174,0.201723 -0.1007277,0.235279 -0.067087,0.268641 0.067087,0.06711 0.1514805,0.05082 0.235874,-0.04985 0.016334,-0.01707 0.016334,-0.03414 -0.017307,-0.01707 -0.3529359,0.184654 0.1516749,-0.251572 -0.084199,-0.369309 0.1685925,0.117737 0.252986,0.100474 0.320073,0.03356 0.084394,-0.08399 0.067281,-0.201723 -0.050753,-0.319266 l -0.302961,-0.285128 z m -0.033446,0.419934 c 0.252208,-0.285128 0.202233,-0.285128 0.3200728,-0.168168 0.1514805,0.151099 0.067281,0.23528 -0.017112,0.28571 -0.067281,0.01649 -0.1180342,0.03356 -0.302961,-0.117542 m 1.0432514,0.402864 c -0.067087,-0.08418 -0.067087,-0.134029 -0.1343684,-0.184848 -0.1178398,-0.06692 -0.2522082,-0.04985 -0.3366017,0.06711 -0.033446,0.05063 -0.033446,0.117736 -0.017112,0.168167 0.017112,0.05063 0.050753,0.100474 0.1015056,0.151293 0.1343684,0.167391 0.1680091,0.200947 0.1007277,0.284934 -0.050753,0.06711 -0.1178398,0.08418 -0.235874,0.01726 -0.1178398,-0.06711 -0.1514805,-0.218211 -0.067087,-0.369309 l -0.033641,-0.03356 -0.1685925,0.251572 0.034224,0.03356 0.1009222,-0.01707 c 0,0.06769 0.033446,0.134806 0.1178398,0.184654 0.3865766,0.134612 0.5551692,-0.201141 0.2350962,-0.436226 -0.1172564,-0.151099 -0.1343685,-0.167586 -0.067281,-0.251572 0.050753,-0.05082 0.1351463,-0.06711 0.2187619,-0.01726 0.084394,0.06711 0.1178398,0.168361 0.067865,0.353016 l 0.016529,0.01629 0.1514805,-0.234504 -0.033641,-0.01707 z m 0.1685926,0.08399 c 0.050753,0.01707 0.084394,0.05063 0.084394,0.100474 0,0.03356 -0.1015056,0.21821 -0.2866268,0.537476 -0.016334,0.03356 -0.067087,0.03356 -0.1514805,-0.01707 l -0.016334,0.03414 0.3366017,0.167585 0.016334,-0.03356 c -0.083616,-0.01707 -0.1178397,-0.05062 -0.1007277,-0.100473 l 0.2858489,-0.537476 c 0.017112,-0.05063 0.034419,-0.05063 0.1514805,0.01707 l 0.017112,-0.03414 -0.320073,-0.167586 z m 0.2858489,0.469782 0.033641,0.01707 c 0.1514805,-0.251572 0.302961,-0.201723 0.302961,-0.134029 0.017306,0.01649 -0.016334,0.11696 -0.1007277,0.302197 -0.067087,0.184654 -0.1178398,0.301615 -0.1343684,0.318684 -0.017112,0.01707 -0.067865,0 -0.1178398,-0.03356 l -0.017112,0.03356 0.3200731,0.134029 0.016529,-0.03356 c -0.1343685,-0.04985 -0.1180343,-0.04985 0.017112,-0.40267 0.084394,-0.184655 0.1178398,-0.268835 0.1343684,-0.285128 0.050753,-0.01707 0.2185675,-0.03356 0.1349519,0.31849 l 0.050169,0.01726 0.084199,-0.285904 -0.5888099,-0.234504 z m 1.0941986,0.06769 c -0.3194896,0.402671 -0.4880822,0.604394 -0.5046108,0.620881 -0.017112,0.01707 -0.050753,0.01707 -0.084199,0 l -0.017307,0.03356 0.3031555,0.08399 v -0.03356 C 4.5278855,12.877125 4.5615262,12.843565 4.6793657,12.6754 l 0.302961,0.100473 c 0.050169,0.218792 0,0.218792 -0.084199,0.201724 l -0.017307,0.03355 0.3031555,0.08418 0.017112,-0.03356 c -0.050753,-0.01726 -0.084394,-0.03356 -0.084394,-0.08418 l -0.067087,-0.77198 c -0.017112,-0.03356 -0.033641,-0.01707 -0.050753,0 m -0.016529,0.520407 -0.2693203,-0.08418 0.2185675,-0.302197 z m 0.9254116,-0.251766 c -0.084199,-0.101249 -0.3537138,-0.252154 -0.4544415,0.100668 -0.016334,0.04985 0,0.100474 0.033641,0.151098 0.033641,0.03356 0.084394,0.06692 0.1685926,0.100474 0.2016499,0.08399 0.2187619,0.08399 0.2187619,0.201723 0,0.08341 -0.084394,0.13403 -0.2022332,0.117543 -0.1343685,-0.01707 -0.2350962,-0.117543 -0.2350962,-0.302197 h -0.050753 l -0.033641,0.285128 0.049975,0.01707 0.067865,-0.06769 c 0.050169,0.06769 0.1172564,0.10125 0.2016499,0.117737 0.2693202,0.05043 0.320073,-0.234503 0.2693202,-0.318684 -0.016334,-0.06711 -0.084199,-0.10125 -0.235874,-0.168361 -0.1849267,-0.100474 -0.1849267,-0.08399 -0.1849267,-0.200948 0.017112,-0.06769 0.1015055,-0.117542 0.1849267,-0.101249 0.1180342,0.01726 0.168787,0.08418 0.2195398,0.285903 h 0.033446 l 0.016529,-0.285903 h -0.033641 z m 0.5890044,0 c 0.1349518,0 0.1178397,0 0.1178397,0.05004 l 0.033641,0.553769 c 0,0.08418 -0.016529,0.117737 -0.1007278,0.117737 v 0.03336 l 0.302961,-0.01629 v -0.03356 c -0.1180342,0 -0.1514805,-0.05063 -0.1514805,-0.134806 l -0.033641,-0.587325 0.3366017,0.738618 h 0.033641 l 0.2022333,-0.77198 0.049975,0.671506 c 0,0.01629 -0.016529,0.05043 -0.067281,0.05043 H 7.153418 l 0.016334,0.03356 0.3710203,-0.01707 -0.017112,-0.03356 H 7.456379 c -0.050753,0 -0.067087,0 -0.067087,-0.05063 L 7.354873,12.474235 c 0,-0.05043 -0.016334,-0.06769 0.1180343,-0.06769 v -0.03356 L 7.203393,12.39027 7.0355782,13.044512 6.7324228,12.423825 6.4802146,12.440118 Z m 1.3462123,-0.201723 c -0.1007277,0.520407 -0.1514804,0.789242 -0.1678147,0.805535 0,0.01726 -0.017307,0.01726 -0.067281,0.03356 v 0.03414 L 7.8937067,13.09533 V 13.06177 C 7.7758669,13.07806 7.7085855,13.09533 7.7758669,12.860047 l 0.302961,-0.05004 c 0.1685926,0.234503 0.1178398,0.201141 0.017112,0.21821 v 0.03356 l 0.3194896,-0.06711 -0.016334,-0.03336 c -0.050753,0.01629 -0.084394,0 -0.1015055,-0.03433 L 7.8937084,12.272533 c -0.033446,-0.03336 -0.033446,-0.01707 -0.050753,0 m 0.2195398,0.487045 -0.2866268,0.05043 0.067087,-0.369891 z M 8.752033,12.088073 c -0.067281,-0.01726 -0.4880822,-0.03356 -0.3366017,0.31849 0.050753,0.117736 0.1351463,0.134805 0.2866268,0.117736 0.2350962,-0.05004 0.2522082,-0.03356 0.2858489,0.08399 0.050753,0.06711 0.017112,0.134029 -0.1007277,0.184654 -0.1351463,0.05063 -0.2866267,0 -0.3539082,-0.151098 l -0.050753,0.01707 0.1015056,0.285128 0.033641,-0.01707 0.067087,-0.100474 c 0.050753,0.05063 0.1343684,0.05063 0.2187619,0.01707 0.2693203,-0.08399 0.1851213,-0.386378 0.084393,-0.41974 -0.050753,-0.05082 -0.1007277,-0.05082 -0.2858489,-0.03356 -0.2195398,0.03356 -0.302961,-0.03356 -0.252986,-0.168168 0.084199,-0.184654 0.2185675,-0.134029 0.4381072,0.05043 l 0.033446,-0.01707 -0.1178398,-0.251572 -0.033641,0.01707 z m 0.4036888,-0.251767 c 0.050753,0.503339 0.067865,0.77198 0.050753,0.788467 -0.016334,0.01707 -0.033641,0.05063 -0.067087,0.06769 l 0.016334,0.01629 0.2695147,-0.133836 -0.016529,-0.03356 c -0.084199,0.06692 -0.1514805,0.04985 -0.1514805,-0.151098 l 0.269515,-0.134795 c 0.2522082,0.168361 0.1849268,0.151099 0.067087,0.201723 l 0.016529,0.03356 0.2864323,-0.134029 -0.017112,-0.03356 -0.033641,0.01649 c -0.016334,0.01707 -0.050753,0 -0.084199,-0.01649 l -0.571698,-0.520989 c -0.017307,-0.01629 -0.034418,-0.01629 -0.034418,0.03414 m 0.3373795,0.385796 -0.2529861,0.117543 -0.033641,-0.369309 z m 0.049975,-0.536894 c 0.1180343,-0.06769 0.1351463,-0.05063 0.1514805,-0.03414 0.218762,0.319266 0.3366017,0.50392 0.3366017,0.537476 0.01711,0.01707 -0.01633,0.05063 -0.067087,0.08399 l 0.017112,0.03356 0.3021834,-0.201723 -0.01633,-0.03356 c -0.117839,0.08418 -0.117839,0.05062 -0.134368,0.03356 L 9.9640714,11.852793 c 0.1685926,-0.100473 0.1685926,-0.100473 0.2858486,0.01707 0.151481,0.184655 0.168593,0.151099 0.23568,0.116961 0.08439,-0.05004 0.08439,-0.116961 0.01731,-0.234503 -0.01731,-0.01726 -0.01731,0 -0.01731,0.01629 0.05075,0.335753 -0.202233,-0.167392 -0.403689,-0.01629 0.118034,-0.117737 0.201456,-0.218211 0.100728,-0.31946 -0.04997,-0.0834 -0.167815,-0.0834 -0.3192953,0 L 9.526742,11.65107 Z m 0.4036887,0.13403 c -0.2014554,-0.285129 -0.2014554,-0.251573 -0.083421,-0.319266 0.2858495,-0.167586 0.4200235,0.101249 0.083421,0.319266 m 0.3202675,-0.604394 c 0.05075,-0.03356 0.06709,-0.05063 0.08439,-0.05063 0.01633,-0.01649 0.184927,0.03414 0.470776,0.134611 l 0.15148,0.184655 c 0.01731,0.01649 0.01731,0.03356 -0.06709,0.117736 l 0.01633,0.03336 0.286627,-0.251572 -0.03345,-0.03356 c -0.08439,0.0834 -0.101506,0.184654 -0.303156,-0.134611 -0.134951,-0.520408 -0.101505,-0.45349 -0.03345,-0.520408 l -0.03364,-0.01707 -0.202233,0.185236 0.01711,0.03356 0.03364,-0.03356 c 0.01633,-0.01707 0.06709,-0.01707 0.08362,0 0.01711,0.01649 0.03345,0.134029 0.0842,0.35224 -0.488083,-0.117737 -0.387355,-0.151099 -0.319296,-0.218211 l -0.01731,-0.03356 -0.252208,0.218211 z m 0.639563,-0.587519 c 0.06709,-0.08399 0.08439,-0.06692 0.100728,-0.05043 0.302961,0.251572 0.454441,0.40267 0.471748,0.419739 0.01633,0.01649 0.01633,0.05063 -0.03364,0.100474 l 0.03364,0.01726 0.235096,-0.268835 -0.03364,-0.03336 c -0.08362,0.133836 -0.08362,0.100474 -0.26932,-0.05082 l -0.01653,-0.167391 c 0.488083,0 0.43733,0.06692 0.353714,0.151098 l 0.03364,0.01629 0.218567,-0.268641 -0.03345,-0.01629 c -0.01711,0.01629 -0.03364,0.03336 -0.06786,0.04985 -0.01653,0 -0.20165,-0.01649 -0.521723,-0.04985 -0.04997,-0.335753 -0.03364,-0.369309 0.01711,-0.437002 l -0.03364,-0.01649 -0.202234,0.235279 0.03364,0.03356 c 0.05075,-0.06711 0.08439,-0.08418 0.101506,-0.01707 0.01633,0.01707 0.04997,0.168167 0.06709,0.453295 -0.387355,-0.318684 -0.320073,-0.285128 -0.23568,-0.369308 l -0.01653,-0.03356 -0.235874,0.285322 z m 0.521723,-0.655019 c 0.06709,-0.1175426 0.06709,-0.1175426 0.134368,-0.066918 0.336602,0.201723 0.505195,0.319266 0.522307,0.335753 0.01653,0.01707 0,0.06692 -0.05075,0.117543 l 0.03364,0.01707 0.202233,-0.302196 -0.03364,-0.01707 c -0.06786,0.117542 -0.01711,0.168167 -0.623034,-0.2352796 -0.06728,-0.049849 -0.06728,-0.033556 0.01711,-0.1510985 l -0.03364,-0.016487 -0.202234,0.3023909 z m 0.320073,-0.6713118 c 0.35313,0.3526278 0.521723,0.5372822 0.538057,0.5871311 0.01731,0.034332 0.01731,0.067888 0,0.1012495 h 0.03364 l 0.135146,-0.268641 -0.03364,-0.017069 C 12.35373,9.8547634 12.337201,9.8382764 12.18572,9.670109 l 0.134369,-0.2686411 c 0.218762,0 0.235874,0.034138 0.185121,0.1175426 l 0.03364,0.017069 0.134952,-0.2851281 -0.03345,-0.017069 c -0.01731,0.033556 -0.03364,0.050625 -0.08439,0.067112 L 11.76492,9.2509513 c -0.01653,0 -0.05075,0 -0.01653,0.050043 M 12.270114,9.4014679 12.152274,9.653622 11.88276,9.3849809 Z M 11.967153,8.9823103 c 0.04997,-0.1177366 0,-0.1683614 0.605922,0.083405 0.06728,0.017069 0.100728,0.1012495 0.08362,0.1510985 l 0.03364,0.017069 0.101506,-0.302197 -0.03364,-0.017263 c -0.01711,0.084181 0.01633,0.1512925 -0.605922,-0.066918 l 0.757403,-0.2515721 0.01653,-0.033556 C 12.50521,8.4112783 12.286448,8.3272916 12.270114,8.3108046 12.253002,8.2937357 12.236473,8.2601798 12.253002,8.193262 l -0.03364,-0.017263 -0.08439,0.2688351 0.03364,0.017069 c 0.01711,-0.084181 0,-0.1681674 0.589588,0.083405 l -0.757597,0.252348 -0.06709,0.1675855 z m 0.891771,-0.6550187 c 0.06728,0.050431 0.08439,0.083987 0.06728,0.1509045 h 0.03345 l 0.06728,-0.2849341 -0.03364,-0.017263 c -0.03364,0.1512925 -0.03364,0.1681674 -0.218762,0.033556 l 0.06728,-0.3021969 c 0.302961,-0.083405 0.219345,0 0.202233,0.084181 h 0.03364 l 0.06709,-0.3023909 -0.03364,-0.016293 c -0.01633,0.049849 -0.03345,0.066918 -0.06709,0.083405 l -0.773931,0.1175426 c -0.01711,0 -0.05075,0 -0.01711,0.033556 z M 12.791837,7.9073581 12.724555,8.193262 12.404482,7.9750517 Z"
     style="fill:#bbbbbb;fill-opacity:1;fill-rule:nonzero;stroke:none;stroke-width:0.19420971"
     id="path2857" />
</svg>
