<?xml version="1.0" encoding="UTF-8" standalone="no"?>
<svg
   xmlns:dc="http://purl.org/dc/elements/1.1/"
   xmlns:cc="http://creativecommons.org/ns#"
   xmlns:rdf="http://www.w3.org/1999/02/22-rdf-syntax-ns#"
   xmlns:svg="http://www.w3.org/2000/svg"
   xmlns="http://www.w3.org/2000/svg"
   id="svg5321"
   version="1.1"
   viewBox="0 0 13.229167 13.229167"
   height="13.229167mm"
   width="13.229167mm">
  <defs
     id="defs5315">
    <clipPath
       clipPathUnits="userSpaceOnUse"
       id="clipPath18">
      <path
         d="M 0,600 H 600 V 0 H 0 Z"
         id="path16" />
    </clipPath>
    <clipPath
       clipPathUnits="userSpaceOnUse"
       id="clipPath30">
      <path
         d="M 0,600 H 600 V 0 H 0 Z"
         id="path28" />
    </clipPath>
    <clipPath
       clipPathUnits="userSpaceOnUse"
       id="clipPath2693">
      <path
         d="M 0,70.866 H 70.866 V 0 H 0 Z"
         id="path2691" />
    </clipPath>
    <clipPath
       clipPathUnits="userSpaceOnUse"
       id="clipPath2853">
      <path
         d="M 0,70.866 H 70.866 V 0 H 0 Z"
         id="path2851" />
    </clipPath>
  </defs>
  <metadata
     id="metadata5318">
    <rdf:RDF>
      <cc:Work
         rdf:about="">
        <dc:format>image/svg+xml</dc:format>
        <dc:type
           rdf:resource="http://purl.org/dc/dcmitype/StillImage" />
        <dc:title></dc:title>
      </cc:Work>
    </rdf:RDF>
  </metadata>
  <g
     transform="matrix(0.61195267,0,0,0.61164515,-111.34225,-77.020603)"
     id="layer1"
     style="fill:#939597;fill-opacity:1">
    <g
       style="fill:#939597;fill-opacity:1"
       id="layer1-0"
       transform="matrix(0.02663957,0,0,0.02663957,179.43504,123.4183)">
      <path
         d="m 179.465,320.731 c 0,5.904 -4.784,10.688 -10.688,10.688 -5.904,0 -10.688,-4.784 -10.688,-10.688 0,-5.903 4.784,-10.688 10.688,-10.688 5.904,0 10.688,4.785 10.688,10.688 m 662.642,0 c 0,5.904 -4.783,10.688 -10.686,10.688 -5.905,0 -10.689,-4.784 -10.689,-10.688 0,-5.903 4.784,-10.688 10.689,-10.688 5.903,0 10.686,4.785 10.686,10.688 m -75.71,-56.62 0.915,1.164 -8.48,11.246 c 0.552,3.599 3.126,7.888 4.761,9.962 5.224,6.636 12.978,10.341 20.69,4.266 11.779,-9.281 -9.665,-34.456 5.925,-46.736 10.035,-7.906 22.247,-2.472 29.304,6.486 2.743,3.483 5.845,9.642 7.014,14.364 l -11.751,8.456 -0.721,-0.915 6.655,-10.485 c -1.146,-3.67 -2.8,-6.799 -5.024,-9.62 -4.115,-5.225 -11.968,-6.832 -17.521,-2.456 -13.023,10.256 10.742,33.604 -6.424,47.127 -7.217,5.684 -19.757,6.825 -32.629,-9.514 -3.135,-3.98 -5.444,-7.94 -7.344,-14.105 z m -14.836,-63.556 -27.409,13.372 18.058,15.438 z m -60.913,17.786 c 2.545,0.924 5.547,1.96 8.366,2.566 21.046,-10.48 45.494,-21.526 63.622,-31.026 l 1.763,1.508 c -7.853,22.179 -14.899,45.044 -22.012,67.169 l 4.751,8.091 -0.962,1.122 c -3.978,-3.957 -7.876,-7.846 -12.127,-11.484 -3.615,-3.085 -7.42,-5.786 -11.304,-8.553 l 0.962,-1.122 c 2.418,1.235 6.759,3.142 9.992,4.235 1.914,-4.192 5.798,-13.93 6.736,-17.3 -3.304,-2.962 -6.684,-5.991 -10.054,-8.873 -3.37,-2.883 -6.731,-5.614 -10.167,-8.418 -5.666,2.239 -11.002,5.877 -15.965,9.41 l 4.774,8.388 -0.961,1.124 c -2.856,-2.995 -5.708,-5.996 -8.923,-8.741 -2.97,-2.536 -6.212,-4.753 -9.455,-6.974 z m -12.132,-82.41 c 7.73,4.98 15.37,9.905 23.313,14.522 7.942,4.615 16.002,8.814 24.157,13.061 l -9.018,15.521 -1.277,-0.743 1.504,-8.896 c 0.528,-3.846 -0.175,-4.742 -13.866,-12.698 l -23.13,39.798 c -2.653,4.567 -3.846,7.044 -4.044,8.644 -0.142,1.504 1.141,3.712 6.754,10.026 l -0.744,1.279 c -4.082,-2.859 -7.887,-5.56 -13.542,-8.847 -5.665,-3.288 -9.889,-5.258 -14.391,-7.386 l 0.74,-1.277 c 8.263,1.749 10.907,1.821 12.058,0.898 1.291,-0.959 2.846,-3.225 5.5,-7.792 l 23.129,-39.801 c -13.692,-7.956 -14.819,-8.121 -17.896,-5.762 l -6.986,5.713 -1.276,-0.743 z m -66.785,44.301 8.568,0.516 c 2.8,0.113 3.257,-0.16 6.411,-7.652 2.479,-5.83 5.1,-11.718 7.479,-17.588 2.386,-5.868 4.614,-11.916 6.896,-17.826 3.54,-9.271 3.719,-9.997 2.141,-11.435 l -7.104,-6.076 0.556,-1.369 c 4.534,2.295 9.168,4.633 14.65,6.856 4.887,1.989 9.841,3.542 14.889,5.138 l -0.552,1.369 -9.332,-0.596 c -2.135,-0.071 -2.512,0.575 -6.443,9.688 -2.479,5.831 -5.095,11.72 -7.48,17.586 -2.38,5.871 -4.609,11.92 -6.895,17.829 -2.961,7.572 -2.828,8.081 -0.74,9.955 l 6.504,5.602 -0.561,1.37 c -4.436,-2.258 -9.955,-4.952 -14.254,-6.7 -4.893,-1.985 -10.728,-3.9 -15.29,-5.296 z m -45.093,-30.333 1.433,0.361 0.184,14.081 c 2.637,2.51 7.296,4.325 9.857,4.968 8.195,2.046 16.592,0.227 18.973,-9.299 3.639,-14.548 -28.733,-21.326 -23.923,-40.583 3.096,-12.396 16.079,-15.573 27.142,-12.809 4.306,1.075 10.525,4.044 14.346,7.065 l -4.121,13.878 -1.132,-0.28 -1.15,-12.369 c -3.151,-2.203 -6.379,-3.66 -9.861,-4.532 -6.454,-1.614 -13.646,1.923 -15.362,8.788 -4.019,16.083 29.068,19.995 23.77,41.196 -2.225,8.911 -11.444,17.491 -31.623,12.45 -4.916,-1.228 -9.167,-2.943 -14.441,-6.658 z m -58.771,-23.94 7.172,0.398 c 9.799,0.547 18.955,-0.53 19.601,-12.125 0.516,-9.276 -5.69,-13.643 -15.602,-14.195 -3.372,-0.186 -6.545,-0.257 -9.702,-0.431 z m -22.311,34.291 8.268,-2.291 c 3.007,-0.783 3.453,-1.181 3.903,-9.3 l 2.121,-38.16 c 0.552,-9.91 0.278,-10.667 -2.003,-11.531 l -8.692,-3.446 0.08,-1.475 c 3.879,0.639 8.81,1.336 14.504,1.654 5.481,0.304 11.533,-0.207 19.021,0.21 13.916,0.773 22.664,6.969 22.079,17.513 -0.593,10.648 -8.464,15.283 -18.25,16.325 l 13.339,22.528 c 5.607,9.512 6.095,10.278 11.936,11.659 l -0.081,1.476 c -2.413,-0.345 -4.931,-0.698 -7.357,-0.832 -2.526,-0.139 -5.174,-0.076 -7.822,-0.012 -6.115,-11.76 -14.748,-25.775 -20.808,-34.677 l -8.117,-0.453 -0.674,12.123 c -0.763,13.705 -0.579,16.146 2.112,17.146 l 8.274,3.313 -0.082,1.475 c -4.507,-0.671 -11.549,-1.487 -15.237,-1.692 -5.375,-0.299 -11.515,-0.217 -16.598,-0.078 z m -59.123,-42.739 c -1.383,-9.828 -1.803,-10.516 -4.205,-10.924 l -9.195,-1.689 -0.208,-1.466 c 8.739,-0.801 16.742,-1.505 24.689,-2.623 9.934,-1.4 19.7,-3.205 28.841,-4.918 0.262,2.628 0.584,6.42 0.806,7.989 0.219,1.568 0.931,5.095 1.374,7.482 l -1.463,0.206 -3.825,-7.457 c -1.457,-2.779 -2.296,-2.661 -14.317,-0.969 -6.062,0.855 -10.855,1.638 -14.711,2.289 0.307,3.688 0.54,7.6 1.157,11.993 l 1.814,12.856 10.872,-1.532 c 12.648,-1.779 13.768,-2.152 14.387,-4.586 l 1.668,-7.805 1.466,-0.206 c 0.458,3.988 0.91,7.975 1.454,11.843 0.603,4.287 1.27,8.244 1.994,12.62 l -1.461,0.205 -3.842,-7.56 c -1.266,-2.168 -2.443,-2.215 -15.095,-0.434 l -10.872,1.534 2.003,14.221 c 0.679,4.808 1.671,9.571 2.498,13.933 4.928,-0.589 9.889,-0.968 14.591,-1.628 11.185,-1.579 12.743,-1.904 13.607,-3.304 1.035,-1.747 1.714,-5.256 2.725,-11.688 l 1.463,-0.207 c 0.219,3.062 0.243,6.257 0.669,9.288 l 1.12,7.95 c -5.493,0.346 -21.651,2.196 -27.51,3.024 -9.201,1.296 -19.174,3.127 -26.645,4.604 l -0.205,-1.463 7.668,-3.851 c 2.793,-1.355 3.153,-1.832 2.018,-9.879 z m -93.23,11.891 c 4.721,-1.216 9.541,-2.465 14.124,-4.079 4.181,-1.476 8.322,-3.382 12.363,-5.255 l 0.49,1.395 -3.134,2.224 c -4.125,2.908 -4.843,3.724 -4.457,4.82 0.735,2.09 24.395,28.568 32.794,37.474 0.95,-16.678 1.475,-32.984 1.065,-45.268 -0.033,-1.999 -0.021,-3.236 -0.408,-4.332 -0.387,-1.093 -3.858,-1.103 -8.729,-0.952 l -0.493,-1.397 c 3.924,-0.931 7.846,-1.867 11.633,-3.201 3.085,-1.088 5.934,-2.54 8.779,-3.989 l 0.493,1.393 c -3.894,2.604 -4.905,4.192 -5.303,8.138 -1.468,15.854 -2.423,38.243 -2.812,66.366 l -2.293,0.806 c -12.856,-15.842 -31.854,-37.354 -43.218,-49.588 -2.89,-3.121 -3.693,-3.172 -7.263,-3.146 l -3.142,-0.012 z m -8.272,80.285 5.838,-6.286 c 1.869,-2.09 1.947,-2.614 -1.831,-9.811 -2.925,-5.621 -5.805,-11.385 -8.824,-16.957 -3.017,-5.569 -6.269,-11.133 -9.377,-16.653 -4.914,-8.628 -5.359,-9.227 -7.473,-8.92 l -9.208,1.624 -0.703,-1.301 c 4.657,-2.039 9.406,-4.134 14.607,-6.95 4.64,-2.512 8.989,-5.35 13.429,-8.232 l 0.702,1.296 -6.389,6.825 c -1.412,1.605 -1.153,2.308 3.389,11.133 2.925,5.621 5.807,11.385 8.824,16.954 3.017,5.572 6.269,11.134 9.377,16.655 3.964,7.096 4.444,7.317 7.219,6.896 l 8.456,-1.459 0.703,1.3 c -4.563,1.992 -10.15,4.537 -14.235,6.748 -4.643,2.517 -9.828,5.804 -13.801,8.439 z m -43.031,-50.432 -4.035,6.34 c -1.315,2.09 -1.501,3.573 -0.422,5.138 4.999,6.95 15.795,22.226 19.552,27.064 2.654,3.417 10.101,13.007 17.652,22.384 l -2.005,1.553 c -11.487,-3.778 -23.134,-6.896 -34.764,-10.167 l -34.606,-9.615 -0.165,0.129 7.252,9.34 c 8.548,11.006 21.475,27.303 22.952,28.693 1.289,1.141 2.39,1.355 5.392,0.229 l 6.863,-2.524 0.908,1.167 c -3.927,2.518 -7.94,5.095 -11.607,7.947 -3.585,2.783 -6.83,5.84 -10.158,8.955 l -0.905,-1.167 4.459,-7.341 c 0.843,-1.322 1.011,-2.656 0.509,-3.472 -1.737,-2.93 -10.805,-15.806 -19.092,-26.48 l -12.823,-16.509 -2.38,-0.827 c -3.49,0.841 -6.787,1.93 -10.103,3.169 l -0.907,-1.167 c 2.929,-1.737 5.854,-3.479 8.522,-5.55 2.503,-1.942 4.744,-4.218 6.988,-6.495 3.851,1.687 7.673,2.995 11.748,4.107 l 48.207,13.362 0.038,-0.296 -15.672,-20.181 c -3.106,-4.004 -6.366,-8.025 -9.788,-11.916 -1.979,-2.206 -3.165,-2.352 -6.363,-1.475 l -7.251,2.024 -0.908,-1.171 c 3.679,-2.319 7.44,-4.706 10.86,-7.362 3.752,-2.911 7.244,-6.161 10.822,-9.471 z m -70.091,56.208 -1.574,4.723 c -0.851,2.856 -1.061,4.605 0.584,6.094 4.421,3.927 11.236,9.276 25.599,21.399 15.663,13.198 15.144,25.776 5.13,37.908 -9.742,11.807 -21.661,15.797 -34.121,5.517 l -22.881,-18.882 c -6.844,-5.645 -8.673,-6.745 -11.449,-5.204 l -7.12,3.983 -1.141,-0.941 c 3.62,-3.721 7.103,-7.28 10.262,-11.107 3.561,-4.317 6.728,-8.821 9.963,-13.402 l 1.142,0.938 -1.705,4.888 c -1.984,5.89 -2.199,6.813 0.519,9.326 4.601,4.212 11.604,9.988 24.149,20.338 10.421,8.6 19.212,11.883 29.893,-1.065 7.061,-8.552 5.998,-18.052 -3.775,-26.115 -10.016,-8.265 -23.032,-18.865 -29.19,-22.851 -1.598,-1.046 -3.257,-0.365 -5.807,1.23 l -5.079,3.337 -1.141,-0.943 c 3.217,-3.233 6.432,-6.467 9.387,-10.046 2.557,-3.094 4.852,-6.54 7.214,-10.068 z m 657.886,174.37 -0.489,-1.395 11.651,-7.914 c 0.641,-3.585 -0.415,-8.475 -1.292,-10.963 -2.809,-7.966 -8.955,-13.971 -18.218,-10.707 -14.14,4.984 -1.956,35.73 -20.678,42.329 -12.048,4.249 -21.852,-4.836 -25.646,-15.59 -1.476,-4.181 -2.423,-11.006 -2.008,-15.859 l 13.853,-4.211 0.387,1.096 -9.687,7.779 c -0.1,3.842 0.462,7.339 1.655,10.726 2.21,6.271 9.125,10.327 15.799,7.975 15.635,-5.512 0.665,-35.272 21.276,-42.541 8.659,-3.054 20.899,-0.092 27.814,19.523 1.683,4.782 2.597,9.274 2.413,15.722 z m 27.96,45.751 -4.284,-7.434 c -1.446,-2.404 -1.928,-2.63 -9.921,-1.138 -6.232,1.136 -12.591,2.189 -18.798,3.431 -6.212,1.245 -12.49,2.713 -18.684,4.056 -9.687,2.154 -10.389,2.399 -10.725,4.511 l -1.159,9.276 -1.451,0.29 c -0.574,-5.048 -1.179,-10.207 -2.333,-16.004 -1.037,-5.178 -2.465,-10.167 -3.912,-15.262 l 1.447,-0.29 4.638,8.119 c 1.117,1.821 1.866,1.782 11.638,0.042 6.231,-1.136 12.59,-2.191 18.802,-3.434 6.207,-1.24 12.485,-2.708 18.679,-4.054 7.952,-1.697 8.301,-2.091 8.716,-4.867 l 1.099,-8.51 1.446,-0.29 c 0.561,4.951 1.349,11.038 2.259,15.594 1.036,5.175 2.648,11.098 3.991,15.677 z m -12.235,61.199 -0.085,-1.476 13.396,-4.36 c 1.612,-3.266 1.961,-8.255 1.806,-10.893 -0.476,-8.432 -4.71,-15.91 -14.514,-15.347 -14.97,0.853 -11.821,33.772 -31.641,34.908 -12.75,0.731 -19.642,-10.723 -20.297,-22.106 -0.249,-4.428 0.731,-11.253 2.484,-15.794 l 14.48,-0.193 0.061,1.162 -11.464,4.777 c -1.168,3.662 -1.602,7.176 -1.395,10.76 0.377,6.642 5.893,12.458 12.958,12.057 16.544,-0.947 10.444,-33.699 32.269,-34.946 9.167,-0.523 20.098,5.727 21.29,26.49 0.282,5.063 -0.09,9.63 -2.065,15.771 z m -45.616,13.947 1.531,7.357 c 0.514,2.414 1.409,3.61 3.275,3.979 8.429,1.503 26.815,4.935 32.882,5.788 4.283,0.599 16.308,2.286 28.257,3.751 l -0.354,2.508 c -10.869,5.303 -21.395,11.176 -32.014,16.94 l -31.52,17.218 -0.033,0.208 11.714,1.641 c 13.801,1.941 34.427,4.624 36.459,4.586 1.715,-0.076 2.652,-0.692 4.021,-3.592 l 3.162,-6.594 1.466,0.202 c -1.064,4.544 -2.145,9.191 -2.791,13.791 -0.626,4.497 -0.829,8.946 -1.037,13.5 l -1.465,-0.202 -1.914,-8.377 c -0.32,-1.536 -1.131,-2.61 -2.055,-2.842 -3.29,-0.89 -18.764,-3.809 -32.146,-5.688 L 836.536,572 l -2.281,1.065 c -1.918,3.036 -3.521,6.118 -5.038,9.318 l -1.466,-0.207 c 0.891,-3.285 1.776,-6.57 2.248,-9.922 0.443,-3.134 0.462,-6.33 0.485,-9.525 3.936,-1.472 7.593,-3.196 11.288,-5.241 l 43.888,-24.011 -0.185,-0.241 -25.301,-3.549 c -5.021,-0.707 -10.157,-1.314 -15.323,-1.726 -2.956,-0.202 -3.913,0.519 -5.591,3.375 l -3.79,6.5 -1.465,-0.198 c 1.018,-4.232 2.05,-8.563 2.652,-12.854 0.666,-4.703 0.905,-9.469 1.16,-14.333 z m -15.486,126.694 c -9.326,-3.399 -10.129,-3.356 -11.617,-1.429 l -5.813,7.324 -1.391,-0.504 c 3.394,-8.094 6.537,-15.484 9.286,-23.025 3.431,-9.428 6.434,-18.892 9.219,-27.767 2.442,1.004 5.944,2.502 7.429,3.044 1.49,0.543 4.936,1.57 7.249,2.306 l -0.504,1.386 -8.381,-0.128 c -3.135,-0.023 -3.426,0.77 -7.583,12.181 -2.094,5.754 -3.663,10.351 -4.898,14.06 3.399,1.462 6.963,3.097 11.134,4.614 l 12.198,4.45 3.756,-10.318 c 4.375,-12.005 4.572,-13.169 2.716,-14.857 l -6.099,-5.146 0.504,-1.385 c 3.733,1.47 7.467,2.945 11.139,4.278 4.066,1.485 7.87,2.759 12.075,4.177 l -0.509,1.391 -8.48,-0.169 c -2.508,0.093 -3.101,1.116 -7.475,13.121 l -3.757,10.313 13.494,4.916 c 4.558,1.664 9.234,3.025 13.467,4.346 1.8,-4.624 3.794,-9.177 5.42,-13.641 3.87,-10.619 4.313,-12.143 3.488,-13.564 -1.056,-1.735 -3.832,-3.984 -9.036,-7.901 l 0.505,-1.39 c 2.805,1.249 5.638,2.729 8.512,3.775 l 7.542,2.748 c -2.277,5.016 -8.239,20.146 -10.266,25.702 -3.177,8.729 -6.25,18.396 -8.456,25.684 l -1.39,-0.505 0.201,-8.578 c 0.119,-3.105 -0.132,-3.643 -7.767,-6.425 z m -18.173,10.082 -1.598,7.338 c -0.519,2.418 -0.18,3.875 1.376,4.974 7.084,4.797 22.482,15.417 27.677,18.66 3.672,2.296 13.971,8.729 24.289,14.927 l -1.344,2.146 c -12.085,0.419 -24.091,1.508 -36.133,2.446 l -35.804,2.907 -0.113,0.175 10.03,6.27 c 11.821,7.386 29.567,18.227 31.438,19.023 1.603,0.621 2.711,0.442 5.138,-1.65 l 5.571,-4.732 1.254,0.783 c -2.818,3.714 -5.693,7.522 -8.153,11.462 -2.409,3.847 -4.402,7.835 -6.449,11.907 l -1.254,-0.783 1.655,-8.428 c 0.339,-1.536 0.038,-2.842 -0.717,-3.436 -2.64,-2.149 -15.587,-11.109 -27.05,-18.274 l -17.726,-11.076 -2.522,0.047 c -2.982,1.994 -5.702,4.152 -8.39,6.457 l -1.254,-0.781 c 2.15,-2.645 4.295,-5.284 6.091,-8.15 1.673,-2.682 2.998,-5.595 4.313,-8.508 4.199,0.26 8.236,0.17 12.441,-0.188 l 49.863,-4.081 -0.07,-0.293 -21.668,-13.537 c -4.295,-2.687 -8.744,-5.336 -13.297,-7.81 -2.616,-1.392 -3.785,-1.117 -6.481,0.806 l -6.108,4.402 -1.254,-0.783 c 2.654,-3.454 5.359,-6.984 7.654,-10.656 2.518,-4.03 4.677,-8.281 6.892,-12.628 z m -41.18,64.107 -1.993,4.558 c -1.113,2.767 -1.476,4.486 0.028,6.128 4.049,4.303 10.346,10.252 23.546,23.628 14.399,14.569 12.74,27.046 1.669,38.217 -10.772,10.879 -23.005,13.769 -34.478,2.398 l -21.073,-20.88 c -6.302,-6.245 -8.023,-7.509 -10.931,-6.227 l -7.452,3.322 -1.052,-1.041 c 3.946,-3.38 7.735,-6.604 11.233,-10.129 3.935,-3.979 7.499,-8.174 11.137,-12.444 l 1.052,1.037 -2.146,4.714 c -2.511,5.688 -2.804,6.584 -0.329,9.338 4.204,4.609 10.652,11.001 22.2,22.444 9.602,9.508 18.053,13.575 29.867,1.655 7.805,-7.877 7.611,-17.431 -1.386,-26.354 -9.222,-9.135 -21.223,-20.875 -26.991,-25.404 -1.5,-1.189 -3.215,-0.656 -5.897,0.697 l -5.358,2.86 -1.051,-1.037 c 3.492,-2.927 6.989,-5.858 10.26,-9.158 2.823,-2.852 5.421,-6.07 8.094,-9.37 z m -76.358,102.947 6.019,-3.908 c 8.239,-5.349 14.989,-11.623 8.669,-21.361 -5.059,-7.791 -12.646,-7.649 -20.976,-2.243 -2.828,1.834 -5.43,3.648 -8.083,5.374 z m 2.225,40.851 5.321,-6.731 c 1.961,-2.408 2.088,-2.988 -2.337,-9.809 L 673.001,806.81 c -5.402,-8.324 -6.066,-8.771 -8.419,-8.126 l -9.049,2.348 -0.807,-1.235 c 3.508,-1.777 7.9,-4.12 12.68,-7.226 4.609,-2.993 9.195,-6.977 15.484,-11.058 11.688,-7.589 22.406,-7.749 28.157,1.106 5.808,8.946 2.187,17.337 -5.095,23.949 l 24.062,10.314 c 10.139,4.364 10.983,4.703 16.516,2.365 l 0.807,1.239 c -2.154,1.146 -4.393,2.353 -6.43,3.668 -2.126,1.386 -4.223,2.998 -6.325,4.614 -11.873,-5.887 -27.116,-12.104 -37.26,-15.716 l -6.82,4.422 6.613,10.186 c 7.47,11.516 9.063,13.383 11.821,12.59 l 8.635,-2.201 0.806,1.24 c -4.034,2.115 -10.199,5.613 -13.301,7.626 -4.516,2.933 -9.423,6.618 -13.443,9.733 z m -62.576,13.174 c 1.184,3.055 2.418,5.972 3.794,8.95 2.697,-0.928 5.139,-1.645 7.604,-2.592 9.55,-3.686 18.467,-9.615 13.985,-21.238 -4.144,-10.737 -14.575,-10.79 -25.608,-6.533 l -6.99,2.701 z m -8.47,-21.965 7.584,-2.927 c 6.5,-2.508 16.129,-7.471 11.803,-18.698 -3.729,-9.653 -11.953,-10.44 -20.325,-7.212 -3.153,1.217 -5.222,2.018 -8.493,3.502 1.551,4.605 2.555,7.504 4.261,11.935 z m -13.634,-10.699 c -3.57,-9.258 -4.134,-9.837 -6.564,-9.687 l -9.341,0.429 -0.532,-1.376 c 5.57,-1.696 10.746,-3.242 14.687,-4.761 3.94,-1.521 11.124,-5.194 16.737,-7.362 10.539,-4.063 22.964,-3.535 27.526,8.282 3.153,8.177 -3.851,16.421 -12.769,20.885 l 0.075,0.193 c 10.017,-3.068 22.752,-3.799 27.234,7.829 3.497,9.063 -0.631,19.48 -14.813,24.952 -7.49,2.886 -15.479,5.063 -21.584,7.415 -4.629,1.791 -8.418,3.705 -12.697,5.807 l -0.533,-1.381 6.6,-5.481 c 2.413,-1.952 2.658,-2.498 -0.27,-10.087 z m -79.864,12.085 -9.803,28.879 23.677,-1.956 z m -30.254,55.783 c 2.449,-1.159 5.298,-2.559 7.712,-4.133 7.374,-22.328 16.742,-47.47 22.752,-67.035 l 2.318,-0.188 c 10.223,21.19 21.502,42.293 32.203,62.919 l 9.092,2.319 0.122,1.476 c -5.611,0.038 -11.117,0.07 -16.695,0.527 -4.731,0.392 -9.327,1.197 -14.029,2.008 l -0.125,-1.475 c 2.581,-0.845 6.995,-2.589 10.047,-4.11 -1.626,-4.318 -5.81,-13.929 -7.544,-16.964 -4.431,0.259 -8.963,0.527 -13.382,0.891 -4.421,0.367 -8.729,0.825 -13.136,1.296 -2.397,5.6 -3.57,11.949 -4.558,17.964 l 9.323,2.517 0.12,1.47 c -4.142,-0.084 -8.279,-0.164 -12.488,0.18 -3.894,0.325 -7.749,1.065 -11.609,1.811 z m -2.72,-64.098 -7.334,1.645 c -2.406,0.548 -3.584,1.467 -3.926,3.338 -1.374,8.446 -4.522,26.885 -5.279,32.961 -0.538,4.298 -2.039,16.347 -3.321,28.318 l -2.515,-0.315 c -5.463,-10.79 -11.5,-21.226 -17.426,-31.75 l -17.701,-31.26 -0.212,-0.023 -1.458,11.736 c -1.727,13.825 -4.091,34.493 -4.025,36.524 0.105,1.716 0.732,2.645 3.655,3.964 l 6.642,3.064 -0.184,1.466 c -4.556,-0.995 -9.22,-1.999 -13.832,-2.579 -4.504,-0.561 -8.956,-0.688 -13.516,-0.829 l 0.182,-1.466 8.345,-2.046 c 1.532,-0.339 2.59,-1.169 2.816,-2.097 0.837,-3.301 3.514,-18.821 5.188,-32.23 L 432,837.367 430.902,835.1 c -3.069,-1.871 -6.17,-3.427 -9.395,-4.893 l 0.184,-1.467 c 3.3,0.836 6.601,1.674 9.955,2.093 3.145,0.392 6.335,0.363 9.533,0.336 1.532,3.916 3.311,7.541 5.411,11.208 l 24.682,43.51 0.239,-0.184 3.162,-25.354 c 0.627,-5.03 1.162,-10.176 1.487,-15.348 0.156,-2.96 -0.578,-3.902 -3.458,-5.542 l -6.563,-3.686 0.183,-1.467 c 4.245,0.952 8.591,1.919 12.887,2.456 4.714,0.589 9.481,0.759 14.353,0.938 z m -110.789,-10.728 -20.642,22.451 22.438,7.787 z m -50.227,38.783 c 2.706,-0.066 5.875,-0.193 8.722,-0.66 15.771,-17.439 34.508,-36.638 47.919,-52.102 l 2.194,0.763 c 0.78,23.516 2.557,47.375 4.009,70.569 l 7.372,5.803 -0.483,1.396 c -5.149,-2.239 -10.198,-4.431 -15.484,-6.27 -4.49,-1.556 -9.017,-2.683 -13.641,-3.841 l 0.483,-1.396 c 2.703,0.269 7.44,0.457 10.85,0.302 0.257,-4.61 0.316,-15.093 -0.04,-18.566 -4.158,-1.551 -8.409,-3.145 -12.599,-4.596 -4.188,-1.456 -8.313,-2.771 -12.538,-4.129 -4.457,4.157 -8.093,9.483 -11.43,14.588 l 7.501,6.066 -0.48,1.396 c -3.755,-1.749 -7.504,-3.498 -11.494,-4.879 -3.69,-1.282 -7.52,-2.168 -11.35,-3.05 z m -34.695,-19.467 8.473,1.367 c 2.776,0.396 3.254,0.17 7.143,-6.972 3.052,-5.552 6.243,-11.146 9.203,-16.752 2.955,-5.604 5.776,-11.392 8.64,-17.048 4.449,-8.875 4.699,-9.577 3.268,-11.166 l -6.464,-6.76 0.695,-1.306 c 4.282,2.739 8.661,5.529 13.888,8.291 4.668,2.465 9.441,4.507 14.306,6.6 l -0.688,1.306 -9.227,-1.527 c -2.116,-0.283 -2.555,0.32 -7.374,9.003 -3.054,5.548 -6.246,11.147 -9.203,16.751 -2.958,5.6 -5.779,11.393 -8.64,17.044 -3.705,7.24 -3.62,7.763 -1.73,9.832 l 5.906,6.227 -0.69,1.306 c -4.19,-2.691 -9.408,-5.92 -13.513,-8.088 -4.671,-2.471 -10.28,-4.954 -14.683,-6.797 z m -36.381,-24.1 c 5.725,2.245 7.551,2.979 8.003,2.391 0.514,-0.669 0.224,-1.688 0.113,-3.098 l -3.584,-39.145 30.013,-2.583 c 5.133,-0.462 8.16,-0.942 8.8,-1.782 0.705,-0.918 -1.258,-3.219 -3.823,-7.169 l 0.898,-1.173 c 3.349,3.092 6.785,6.249 10.394,9.003 3.105,2.37 6.464,4.407 9.825,6.442 l -0.896,1.174 c -2.715,-1.146 -7.03,-2.975 -12.476,-2.621 l -33.157,2.174 4.607,45.107 c 0.121,0.887 0.542,2.937 0.733,3.215 0.518,1.06 2.073,3.714 3.792,5.821 l -0.9,1.173 c -3.771,-3.412 -7.712,-6.952 -11.819,-10.096 -3.695,-2.819 -7.556,-5.241 -11.42,-7.659 z m -34.651,-26.47 8.126,2.752 c 2.674,0.844 3.184,0.703 8.199,-5.693 3.931,-4.969 8.013,-9.96 11.856,-14.994 3.846,-5.033 7.589,-10.279 11.353,-15.374 5.854,-8.019 6.219,-8.669 5.072,-10.475 l -5.251,-7.729 0.898,-1.178 c 3.771,3.416 7.624,6.891 12.324,10.478 4.197,3.205 8.562,6.01 13.011,8.88 l -0.894,1.179 -8.844,-3.036 c -2.043,-0.631 -2.576,-0.108 -8.768,7.65 -3.928,4.968 -8.008,9.959 -11.854,14.993 -3.844,5.029 -7.586,10.28 -11.348,15.376 -4.853,6.523 -4.857,7.051 -3.337,9.407 l 4.795,7.118 -0.897,1.173 c -3.691,-3.347 -8.296,-7.399 -11.989,-10.219 -4.193,-3.205 -9.319,-6.585 -13.351,-9.139 z m -42.367,-47.262 4.289,2.715 c 4.646,2.965 6.271,3.237 9.312,0.622 l 12.399,-10.681 c 7.664,-19.415 11.399,-29.322 14.624,-40.456 -0.142,-2.107 -1.155,-4.582 -1.902,-6.584 l 1.118,-0.962 c 2.644,3.714 5.286,7.434 8.316,10.954 3.102,3.597 6.453,6.839 9.875,10.167 l -1.12,0.962 c -5.119,-3.672 -7.146,-4.572 -8.908,-3.06 -1.841,1.583 -11.732,26.824 -12.767,30.642 9.224,-2.229 31.005,-7.192 33.006,-8.912 1.282,-1.108 -1.008,-5.544 -2.583,-8.509 l 1.119,-0.961 c 2.09,3.078 4.25,6.231 6.663,9.03 2.204,2.561 4.662,4.761 7.115,6.972 l -1.12,0.961 c -3.431,-3.177 -7.301,-2.492 -13.322,-1.064 l -34.486,7.684 -12.241,10.539 c -3.04,2.615 -3.015,4.266 -0.769,9.299 l 2.05,4.648 -1.122,0.961 c -2.713,-3.794 -6.387,-8.715 -9.554,-12.392 -3.448,-4.002 -7.761,-8.366 -11.112,-11.608 z m -8.704,-77.48 3.613,6.204 c 4.942,8.483 10.88,15.53 20.914,9.686 8.031,-4.676 8.253,-12.265 3.257,-20.839 -1.699,-2.917 -3.387,-5.599 -4.982,-8.338 z m -40.912,0.254 6.464,5.643 c 2.31,2.079 2.887,2.226 9.911,-1.866 l 33.022,-19.24 c 8.576,-4.996 9.057,-5.643 8.527,-8.022 l -1.914,-9.148 1.277,-0.745 c 1.605,3.588 3.735,8.089 6.608,13.014 2.765,4.742 6.521,9.517 10.296,15.998 7.016,12.038 6.663,22.756 -2.462,28.073 -9.212,5.363 -17.418,1.348 -23.678,-6.246 l -11.456,23.54 c -4.853,9.912 -5.228,10.742 -3.16,16.384 l -1.278,0.744 c -1.044,-2.206 -2.135,-4.501 -3.355,-6.604 -1.277,-2.188 -2.788,-4.359 -4.299,-6.537 6.45,-11.581 13.396,-26.5 17.489,-36.464 l -4.094,-7.022 -10.49,6.113 c -11.861,6.914 -13.796,8.408 -13.146,11.204 l 1.789,8.733 -1.277,0.745 c -1.92,-4.139 -5.116,-10.459 -6.976,-13.65 -2.712,-4.656 -6.16,-9.732 -9.076,-13.905 z m 32.81,-64.075 -30.393,-2.53 7.612,22.502 z m -61.437,-15.878 c 1.711,2.098 3.759,4.521 5.871,6.486 23.447,1.763 50.104,4.779 70.544,5.886 l 0.745,2.202 c -18.097,15.04 -35.853,31.08 -53.278,46.451 l -0.059,9.38 -1.4,0.471 c -1.393,-5.43 -2.753,-10.771 -4.546,-16.068 -1.523,-4.501 -3.411,-8.767 -5.336,-13.131 l 1.402,-0.472 c 1.443,2.295 4.2,6.156 6.417,8.748 3.794,-2.615 12.109,-9.003 14.635,-11.416 -1.32,-4.237 -2.674,-8.569 -4.096,-12.769 -1.421,-4.2 -2.908,-8.268 -4.431,-12.434 -6.012,-0.972 -12.455,-0.581 -18.528,-0.086 l -0.193,9.653 -1.4,0.472 c -0.917,-4.034 -1.836,-8.069 -3.191,-12.071 -1.251,-3.7 -2.906,-7.264 -4.558,-10.831 z m 9.379,-57.241 0.215,1.466 -12.955,5.524 c -1.317,3.393 -1.223,8.395 -0.841,11.01 1.226,8.357 6.106,15.433 15.818,14.01 14.833,-2.179 8.786,-34.691 28.427,-37.571 12.641,-1.853 20.518,8.945 22.174,20.225 0.644,4.389 0.267,11.274 -1.077,15.951 l -14.404,1.47 -0.167,-1.149 11.001,-5.773 c 0.834,-3.748 0.955,-7.288 0.434,-10.837 -0.961,-6.584 -6.971,-11.892 -13.97,-10.869 -16.401,2.408 -7.426,34.493 -29.049,37.66 -9.09,1.338 -20.532,-3.922 -23.551,-24.505 -0.733,-5.011 -0.766,-9.597 0.66,-15.89 z m 34.727,-50.485 -27.581,-13.026 -0.754,23.744 z m -51.98,-36.407 c 0.87,2.564 1.938,5.557 3.229,8.133 21.343,9.868 45.252,22.036 64.007,30.239 l -0.076,2.319 c -22.217,7.749 -44.467,16.549 -66.174,24.835 l -3.344,8.768 -1.478,-0.048 c 0.601,-5.575 1.195,-11.053 1.376,-16.643 0.151,-4.756 -0.125,-9.409 -0.396,-14.169 l 1.475,0.047 c 0.552,2.654 1.777,7.24 2.943,10.445 4.471,-1.127 14.501,-4.186 17.711,-5.563 0.247,-4.43 0.498,-8.965 0.641,-13.397 0.139,-4.433 0.172,-8.765 0.205,-13.198 -5.291,-3.021 -11.461,-4.909 -17.325,-6.57 l -3.561,8.972 -1.478,-0.049 c 0.551,-4.104 1.105,-8.206 1.239,-12.424 0.125,-3.908 -0.174,-7.822 -0.474,-11.742 z m 25.927,-103.84 0.453,5.927 c 0.339,3.926 0.735,4.473 3.954,5.905 15.18,6.917 40.611,16.771 48.146,18.842 1.831,0.505 3.146,0.104 4.391,-1.635 l 3.735,-5.215 1.426,0.394 c -2.199,6.401 -4.386,13.139 -6.167,19.217 -17.72,1.911 -35.431,4.589 -53.172,7.37 13.363,12.333 27.411,23.755 41.542,34.877 -1.553,6.033 -3.102,12.834 -4.57,19.765 l -1.425,-0.391 -0.496,-4.957 c -0.48,-4.621 -0.867,-5.604 -2.698,-6.108 -7.021,-1.935 -45.412,-7.685 -52.133,-8.331 -3.297,-0.361 -4.346,0.665 -5.731,2.911 l -3.04,5.078 -1.423,-0.393 c 1.694,-4.572 3.422,-9.243 4.739,-14.027 1.315,-4.784 2.196,-9.578 3.08,-14.372 l 1.426,0.392 0.356,5.463 c 0.167,3.769 1.313,5.18 2.229,5.432 5.091,1.4 45.086,7.269 50.271,7.928 l 0.055,-0.2 c -16.769,-14.258 -32.146,-26.812 -48.676,-39.579 l 0.363,-1.322 c 21.333,-1.902 42.213,-5.35 63.11,-8.468 l 0.057,-0.205 c -13.07,-5.022 -41.245,-14.859 -48.065,-16.737 -2.338,-0.646 -3.611,-0.009 -5.31,2.59 l -3.292,4.786 -1.423,-0.391 c 1.612,-4.266 3.198,-8.427 4.402,-12.806 1.091,-3.969 1.779,-8.051 2.465,-12.133 z M 442.24,715.766 V 525.318 c 0.139,0.825 2.722,12.109 39.093,152.099 1.732,6.65 7.341,13.942 18.34,13.942 11.359,0 16.348,-6.344 18.319,-13.942 11.194,-43.232 38.785,-151.519 38.785,-151.519 l 0.027,189.867 c -17.567,5.91 -36.911,9.139 -57.278,9.139 -20.37,0 -39.71,-3.228 -57.286,-9.138 M 680.877,268.393 c -18.642,0 -33.762,14.923 -33.762,33.327 v 301.47 c 0,27.286 -10.168,51.971 -27.508,71.865 V 301.144 c 0,-16.104 -11.996,-29.756 -28.146,-32.04 -16.142,-2.284 -32.193,7.073 -36.112,22.961 -55.306,223.972 -55.737,225.72 -55.741,225.735 -0.005,-0.015 -0.437,-1.763 -55.914,-225.761 -3.929,-15.858 -19.978,-25.222 -36.119,-22.936 -16.146,2.288 -28.13,15.943 -28.13,32.04 v 373.911 c -17.343,-19.895 -27.512,-44.579 -27.512,-71.865 v -301.47 c 0,-18.403 -15.117,-33.327 -33.758,-33.327 -18.644,0 -32.37,14.923 -32.37,33.327 v 301.47 c 0,106 94.342,180.152 213.722,180.152 119.374,0 213.717,-74.152 213.717,-180.152 v -301.47 c 0,-18.403 -13.73,-33.326 -32.367,-33.326"
         id="path3005"
         style="fill:#939597;fill-opacity:1" />
    </g>
  </g>
</svg>
