<?xml version="1.0" encoding="UTF-8" standalone="no"?>
<svg
   xmlns:dc="http://purl.org/dc/elements/1.1/"
   xmlns:cc="http://creativecommons.org/ns#"
   xmlns:rdf="http://www.w3.org/1999/02/22-rdf-syntax-ns#"
   xmlns:svg="http://www.w3.org/2000/svg"
   xmlns="http://www.w3.org/2000/svg"
   xmlns:sodipodi="http://sodipodi.sourceforge.net/DTD/sodipodi-0.dtd"
   xmlns:inkscape="http://www.inkscape.org/namespaces/inkscape"
   width="13.229167mm"
   height="13.229167mm"
   viewBox="0 0 13.229167 13.229167"
   version="1.1"
   id="svg5321"
   sodipodi:docname="mu.svg"
   inkscape:version="0.92.1 r15371">
  <sodipodi:namedview
     pagecolor="#ffffff"
     bordercolor="#666666"
     borderopacity="1"
     objecttolerance="10"
     gridtolerance="10"
     guidetolerance="10"
     inkscape:pageopacity="0"
     inkscape:pageshadow="2"
     inkscape:window-width="1920"
     inkscape:window-height="1182"
     id="namedview16"
     showgrid="false"
     inkscape:zoom="4.7199999"
     inkscape:cx="-7.3093222"
     inkscape:cy="25.000001"
     inkscape:window-x="0"
     inkscape:window-y="0"
     inkscape:window-maximized="1"
     inkscape:current-layer="svg5321" />
  <defs
     id="defs5315">
    <clipPath
       id="clipPath18"
       clipPathUnits="userSpaceOnUse">
      <path
         id="path16"
         d="M 0,600 H 600 V 0 H 0 Z" />
    </clipPath>
    <clipPath
       id="clipPath30"
       clipPathUnits="userSpaceOnUse">
      <path
         id="path28"
         d="M 0,600 H 600 V 0 H 0 Z" />
    </clipPath>
    <clipPath
       id="clipPath2693"
       clipPathUnits="userSpaceOnUse">
      <path
         id="path2691"
         d="M 0,70.866 H 70.866 V 0 H 0 Z" />
    </clipPath>
    <clipPath
       id="clipPath2853"
       clipPathUnits="userSpaceOnUse">
      <path
         id="path2851"
         d="M 0,70.866 H 70.866 V 0 H 0 Z" />
    </clipPath>
  </defs>
  <metadata
     id="metadata5318">
    <rdf:RDF>
      <cc:Work
         rdf:about="">
        <dc:format>image/svg+xml</dc:format>
        <dc:type
           rdf:resource="http://purl.org/dc/dcmitype/StillImage" />
        <dc:title />
      </cc:Work>
    </rdf:RDF>
  </metadata>
  <path
     style="fill:#bbbbbb;stroke-width:0.01629806;fill-opacity:1"
     id="path3005"
     d="m 1.3891689,3.6935797 c 0,0.096199 -0.077989,0.1741498 -0.1742374,0.1741498 -0.096248,0 -0.1742375,-0.07795 -0.1742375,-0.1741498 0,-0.096183 0.077989,-0.1741499 0.1742375,-0.1741499 0.096248,0 0.1742374,0.077967 0.1742374,0.1741499 m 10.8024961,0 c 0,0.096199 -0.07797,0.1741498 -0.174205,0.1741498 -0.09626,0 -0.174254,-0.07795 -0.174254,-0.1741498 0,-0.096183 0.07799,-0.1741499 0.174254,-0.1741499 0.09623,0 0.174205,0.077967 0.174205,0.1741499 m -1.234237,-0.922564 0.01492,0.018966 -0.138243,0.1832419 c 0.009,0.058642 0.05096,0.1285268 0.07761,0.1623204 0.08516,0.1081268 0.211569,0.1684959 0.337292,0.06951 0.192023,-0.1512243 -0.157561,-0.5614247 0.09659,-0.7615145 0.163592,-0.1288201 0.362674,-0.040279 0.477719,0.1056826 0.04472,0.056752 0.09529,0.1571063 0.114343,0.2340464 l -0.191567,0.1377818 -0.01175,-0.014909 0.108491,-0.1708422 c -0.01868,-0.059799 -0.04565,-0.1107826 -0.0819,-0.1567479 -0.06708,-0.085136 -0.195104,-0.1113203 -0.28563,-0.040018 C 11.263,2.7056441 11.650421,3.0860755 11.370578,3.3064187 11.252925,3.3990337 11.048496,3.417625 10.838655,3.151398 10.787545,3.086548 10.749905,3.0220239 10.718932,2.9215717 Z m -0.241859,-1.035579 -0.446825,0.2178829 0.294384,0.2515461 z M 9.722556,2.0252411 c 0.041489,0.015056 0.090428,0.031936 0.1363839,0.04181 C 10.202035,1.8962907 10.60059,1.7163076 10.896116,1.561515 l 0.02874,0.024571 c -0.12802,0.361384 -0.242885,0.7339454 -0.358843,1.0944493 l 0.07745,0.1318344 -0.01568,0.018282 c -0.06485,-0.064475 -0.128395,-0.1278424 -0.197696,-0.1871199 -0.05893,-0.050267 -0.120962,-0.094277 -0.18428,-0.1393622 l 0.01568,-0.018282 c 0.03942,0.020123 0.110186,0.051196 0.162891,0.069005 0.0312,-0.068304 0.09452,-0.2269749 0.109812,-0.2818855 -0.05386,-0.048263 -0.108964,-0.097617 -0.163902,-0.1445763 -0.05494,-0.046975 -0.10973,-0.091474 -0.165744,-0.1371626 -0.09237,0.036482 -0.179357,0.09576 -0.2602643,0.1533262 l 0.077826,0.1366737 -0.01567,0.018314 C 9.9598828,2.2507821 9.9133891,2.2018839 9.8609776,2.157157 9.8125602,2.1158355 9.7597086,2.0797118 9.7068407,2.0435229 Z M 9.5247782,0.68245588 C 9.6507939,0.7635998 9.7753424,0.84384755 9.9048305,0.91907676 10.034302,0.99427339 10.165698,1.0626917 10.298642,1.1318922 l -0.147013,0.2528985 -0.02082,-0.012106 0.02452,-0.1449511 c 0.0086,-0.062667 -0.0029,-0.077266 -0.2260453,-0.2069007 L 9.5522147,1.6693 c -0.04325,0.074415 -0.062698,0.1147746 -0.065926,0.140845 -0.00231,0.024506 0.018601,0.060483 0.1101048,0.1633632 l -0.012129,0.02084 C 9.5177194,1.9477633 9.4556896,1.9037534 9.3635009,1.8501951 9.2711492,1.7966206 9.2022889,1.7645215 9.1288965,1.7298479 l 0.012064,-0.020807 c 0.1347048,0.028498 0.1778077,0.029671 0.1965715,0.014632 0.021046,-0.015626 0.046396,-0.052548 0.089662,-0.1269625 L 9.8042461,0.94819407 C 9.5810369,0.81855932 9.5626644,0.81587082 9.5125027,0.85430827 l -0.1138869,0.0930874 -0.020802,-0.0121064 z m -1.0887398,0.72183872 0.1396769,0.00841 c 0.045646,0.00184 0.053096,-0.00261 0.1045132,-0.1246814 C 8.7206415,1.1930292 8.7633695,1.0970906 8.8021523,1.001445 8.8410493,0.9058321 8.8773703,0.8072862 8.914572,0.7109889 8.972282,0.5599276 8.9752,0.54809818 8.949475,0.52466747 l -0.1158106,-0.0990021 0.00906,-0.0223064 c 0.073914,0.0373946 0.1494582,0.0754899 0.2388267,0.11171139 0.079669,0.0324087 0.1604295,0.0577132 0.2427228,0.0837184 l -0.009,0.0223064 -0.1521317,-0.009711 c -0.034805,-0.001157 -0.040951,0.009369 -0.1050348,0.15785589 -0.040413,0.0950101 -0.083059,0.19096521 -0.1219402,0.28654555 -0.038799,0.095662 -0.075137,0.194224 -0.1124034,0.290505 -0.048271,0.1233779 -0.046102,0.1316715 -0.012064,0.1622064 l 0.1060293,0.091279 -0.00915,0.022323 C 8.8362728,1.5853042 8.7463011,1.5414083 8.6762182,1.5129264 8.5964517,1.4805829 8.5013286,1.44938 8.4269581,1.4266336 Z m -0.7351133,-0.49424469 0.023361,0.005882 0.003,0.22943529 c 0.042989,0.040898 0.1189406,0.070471 0.1606904,0.080948 0.1335962,0.033337 0.2704855,0.0037 0.3093009,-0.1515176 C 8.2566006,0.83775361 7.728867,0.72731315 7.8072804,0.41354036 7.8577519,0.21156043 8.0694029,0.15979452 8.2497537,0.20483103 c 0.070197,0.017516 0.1715802,0.0658928 0.2338707,0.11511682 L 8.4164432,0.54607543 8.3979892,0.54151312 8.3792417,0.33997313 C 8.3278736,0.30407754 8.2752502,0.28033724 8.2184861,0.2661289 8.113272,0.23983045 7.9960268,0.29746219 7.9680523,0.40932023 7.902534,0.67137598 8.4419235,0.73511796 8.3555547,1.0805662 8.3192824,1.2257617 8.1689928,1.3655639 7.8400315,1.283426 7.7598901,1.263417 7.6905896,1.2354729 7.604612,1.1749408 Z M 6.7428309,0.51997251 6.85975,0.5264575 C 7.0194949,0.5353703 7.1687574,0.5178217 7.1792886,0.32889324 7.1877005,0.17775047 7.0865293,0.10659474 6.9249423,0.09760048 6.8699714,0.0945698 6.8182447,0.09341293 6.7667788,0.09057778 Z M 6.3791134,1.0787087 6.5138997,1.0413792 c 0.049021,-0.012758 0.056291,-0.019243 0.063627,-0.1515338 l 0.034577,-0.62177751 c 0.009,-0.16147315 0.00453,-0.17380768 -0.032653,-0.18788566 L 6.4377523,0.02403325 6.4390564,-3.4388e-7 C 6.5022925,0.0104115 6.5826785,0.02176839 6.675503,0.02694987 6.7648551,0.03190323 6.8635158,0.02357702 6.9855864,0.0303716 7.2124472,0.04296683 7.3550585,0.1439242 7.3455217,0.31572772 7.3358546,0.48922581 7.2075403,0.56474831 7.0480073,0.58172662 L 7.2654618,0.94879695 C 7.3568681,1.1037851 7.3648235,1.1162663 7.4600444,1.1387682 l -0.00132,0.02405 C 7.4193868,1.1571967 7.378338,1.1514449 7.338789,1.1492615 7.2976097,1.1469967 7.2544416,1.1480232 7.2112735,1.149066 7.1115858,0.95744904 6.9708492,0.72908919 6.8720581,0.58404036 l -0.1323246,-0.007381 -0.010988,0.19753168 c -0.012439,0.22330872 -0.00944,0.26308226 0.03443,0.27937626 l 0.1348841,0.053982 -0.00134,0.024034 c -0.07347,-0.010934 -0.18827,-0.02423 -0.2483923,-0.02757 -0.087624,-0.00487 -0.1877194,-0.00354 -0.2705833,-0.00127 z M 5.4152808,0.38232113 C 5.3927349,0.22218409 5.385888,0.21097385 5.3467302,0.20432591 L 5.1968319,0.17680542 5.193441,0.15291847 C 5.3359056,0.13986701 5.4663718,0.12839606 5.595925,0.11017941 5.7578707,0.08736787 5.9170776,0.05795727 6.0660956,0.03004572 c 0.00427,0.04282053 0.00952,0.10460722 0.01314,0.13017244 0.00357,0.0255489 0.015177,0.0830177 0.022399,0.12191141 l -0.02385,0.003357 -0.062356,-0.12150406 c -0.023752,-0.0452809 -0.03743,-0.0433582 -0.233398,-0.0157889 -0.098824,0.0139313 -0.17696,0.0266895 -0.2398211,0.0372969 0.005,0.0600921 0.0088,0.12383409 0.018862,0.19541346 l 0.029572,0.20947515 0.1772371,-0.0249624 c 0.2061897,-0.0289869 0.2244482,-0.0350646 0.2345392,-0.0747241 l 0.027192,-0.12717436 0.023899,-0.003357 c 0.00747,0.0649803 0.014835,0.12994433 0.023703,0.19296937 0.00983,0.0698522 0.020704,0.1343274 0.032507,0.20562977 l -0.023817,0.00334 -0.062633,-0.12318233 c -0.020639,-0.0353253 -0.039826,-0.0360911 -0.2460812,-0.007072 l -0.177237,0.0249949 0.032653,0.23171641 c 0.011069,0.0783414 0.027241,0.15594952 0.040723,0.22702372 0.080337,-0.0096 0.161212,-0.015772 0.2378648,-0.026527 0.1823397,-0.025728 0.2077384,-0.031024 0.2218235,-0.053835 0.016873,-0.028466 0.027942,-0.085641 0.044423,-0.19044379 l 0.02385,-0.003373 c 0.00357,0.0498921 0.00396,0.1019513 0.010906,0.1513383 L 6.230454,1.1222787 C 6.140906,1.1279187 5.8774959,1.1580607 5.7819816,1.1715517 5.6319854,1.1926687 5.469404,1.2225027 5.3476105,1.2465687 L 5.3442686,1.222731 5.4692735,1.159983 C 5.5148055,1.137905 5.5206745,1.130132 5.5021715,0.99901493 Z M 3.8954304,0.57607261 c 0.076963,-0.0198135 0.1555389,-0.0401646 0.2302517,-0.0664631 0.068159,-0.0240499 0.1356666,-0.0551062 0.2015436,-0.0856248 l 0.00799,0.0227301 -0.051091,0.0362378 c -0.067246,0.0473828 -0.078951,0.0606787 -0.072659,0.0785369 0.011982,0.0340544 0.3976912,0.46548589 0.534613,0.61059989 0.015487,-0.2717507 0.024046,-0.53744001 0.017362,-0.73759502 -5.379e-4,-0.0325716 -3.423e-4,-0.0527273 -0.00665,-0.0705854 -0.00631,-0.0178093 -0.062894,-0.0179722 -0.1423015,-0.0155118 l -0.00804,-0.0227627 c 0.06397,-0.0151697 0.1279068,-0.0304208 0.1896431,-0.052157 0.050292,-0.0177278 0.096737,-0.0413867 0.1431166,-0.0649966 l 0.00804,0.0226975 c -0.063481,0.0424295 -0.079962,0.0683043 -0.08645,0.13260025 -0.023931,0.25832444 -0.0395,0.62312991 -0.045842,1.08136497 l -0.037381,0.013133 C 4.5679923,1.2001476 4.2582839,0.84963191 4.0730261,0.6502916 4.0259129,0.59943815 4.0128223,0.59860716 3.9546236,0.5990308 L 3.9034022,0.59883527 Z M 3.760579,1.8842332 3.855751,1.7818094 C 3.8862197,1.747755 3.8874913,1.7392169 3.8259017,1.6219493 3.7782179,1.530361 3.7312677,1.4364426 3.6820514,1.3456526 3.6328678,1.2549116 3.5798532,1.164252 3.5291861,1.0743093 3.4490773,0.93372503 3.4418228,0.92396495 3.4073601,0.9289672 L 3.2572498,0.9554286 3.2457898,0.9342302 C 3.3217085,0.90100676 3.3991275,0.86687092 3.483915,0.82098712 3.559557,0.7800567 3.6304551,0.73381444 3.7028367,0.68685525 l 0.011444,0.021117 -0.1041545,0.11120628 c -0.023019,0.0261518 -0.018796,0.0376064 0.055248,0.18140067 0.047684,0.091588 0.094667,0.1855067 0.1438503,0.2762477 0.049184,0.09079 0.1021982,0.181417 0.1528654,0.271376 0.064622,0.1156219 0.072447,0.1192229 0.1176852,0.1123631 l 0.1378511,-0.023773 0.01146,0.021182 C 4.1547,1.6904328 4.0636198,1.731901 3.9970255,1.7679269 3.9213346,1.8089388 3.8368079,1.862497 3.7720394,1.9054316 Z M 3.0590807,1.0624962 2.9933015,1.1657999 c -0.021437,0.034054 -0.02447,0.058218 -0.00688,0.083718 0.081494,0.113243 0.2574926,0.3621495 0.3187398,0.4409797 0.043266,0.055676 0.1646681,0.2119355 0.2877657,0.364724 L 3.560241,2.0805256 C 3.3729788,2.0189679 3.1831075,1.9681634 2.9935134,1.9148658 l -0.5641525,-0.1566664 -0.00269,0.0021 0.1182233,0.1521856 c 0.1393508,0.1793313 0.3500889,0.444874 0.3741672,0.4675226 0.021013,0.018591 0.038962,0.022078 0.087901,0.00373 l 0.1118817,-0.041126 0.014802,0.019015 C 3.0696282,2.4026581 3.0042076,2.4446477 2.9444276,2.491118 2.8859844,2.5364641 2.8330839,2.5862748 2.7788303,2.6370304 l -0.014754,-0.019015 0.072691,-0.119614 c 0.013743,-0.021541 0.016481,-0.043277 0.0083,-0.056573 C 2.8167491,2.3940875 2.6689211,2.1842865 2.5338251,2.0103647 L 2.3247825,1.7413677 2.2859834,1.7278926 C 2.2290888,1.7415959 2.1753406,1.75934 2.1212826,1.7795282 l -0.014786,-0.019015 c 0.047749,-0.028303 0.095433,-0.056687 0.138927,-0.090432 0.040804,-0.031643 0.077337,-0.068728 0.1139195,-0.1058293 0.06278,0.027488 0.1250865,0.0488 0.1915178,0.066919 L 3.3367391,1.8488916 3.3373586,1.8440686 3.0818711,1.5152402 C 3.0312366,1.4499992 2.9780916,1.3844811 2.9223056,1.3210813 2.8900436,1.2851369 2.8707092,1.282758 2.8185749,1.2970478 L 2.700368,1.3300267 2.6855656,1.3109465 C 2.7455413,1.2731608 2.8068537,1.2342671 2.8626071,1.1909904 2.9237728,1.1435587 2.9806999,1.0906033 3.039029,1.0366703 Z M 1.916446,1.9783471 1.890786,2.0553031 c -0.013873,0.046536 -0.017297,0.075034 0.00952,0.099295 0.072072,0.063986 0.183171,0.1511427 0.417319,0.3486744 C 2.5729657,2.7183202 2.5645049,2.9232656 2.401255,3.120944 2.2424394,3.3133267 2.048134,3.3783396 1.845009,3.210838 L 1.4720002,2.903176 C 1.3604282,2.8111966 1.3306116,2.7932732 1.2853568,2.8183822 l -0.1160714,0.064899 -0.018601,-0.015333 c 0.059014,-0.06063 0.1157943,-0.11862 0.1672928,-0.180977 0.058052,-0.070341 0.1096809,-0.143729 0.1624184,-0.2183716 l 0.018617,0.015284 -0.027795,0.079645 c -0.032343,0.095971 -0.035848,0.1110107 0.00846,0.1519575 0.075006,0.06863 0.1891703,0.162744 0.3936809,0.3313865 0.1698857,0.1401279 0.313198,0.1936209 0.4873214,-0.017353 C 2.4757894,2.8901734 2.4584602,2.7353808 2.2991392,2.6040026 2.1358568,2.469333 1.9236679,2.296617 1.8232792,2.2316693 1.7972283,2.2146258 1.770183,2.225722 1.7286125,2.2517109 l -0.082799,0.054373 -0.018601,-0.015365 C 1.6796571,2.2380402 1.7320686,2.1853456 1.7802415,2.1270295 1.8219261,2.076616 1.8593395,2.020467 1.8978452,1.9629819 Z m 10.724963,2.8411778 -0.008,-0.02273 0.189937,-0.1289504 c 0.01045,-0.058414 -0.0068,-0.1380913 -0.02106,-0.1786306 -0.04579,-0.1297977 -0.145986,-0.227643 -0.296993,-0.1744595 -0.230512,0.081209 -0.03189,0.5821832 -0.337096,0.6897071 -0.196408,0.069233 -0.356234,-0.078798 -0.418085,-0.2540229 -0.02406,-0.068125 -0.0395,-0.1793313 -0.03274,-0.2584059 l 0.225834,-0.068614 0.0063,0.017858 -0.157919,0.1267507 c -0.0016,0.062601 0.0075,0.1195814 0.02698,0.1747691 0.03603,0.1021794 0.148757,0.1682677 0.257558,0.1299443 0.254884,-0.089812 0.01084,-0.5747206 0.346845,-0.6931614 0.14116,-0.049762 0.340699,-0.0015 0.453428,0.318107 0.02744,0.077918 0.04234,0.1511102 0.03934,0.2561736 z m 0.455808,0.745465 -0.06984,-0.1211293 c -0.02357,-0.039171 -0.03143,-0.042853 -0.161734,-0.018543 -0.101595,0.01851 -0.20526,0.035667 -0.306448,0.055905 -0.101269,0.020286 -0.203614,0.044206 -0.30459,0.066088 -0.157919,0.035097 -0.169363,0.039089 -0.17484,0.073502 l -0.01889,0.1511428 -0.02366,0.00473 C 12.027861,5.6944291 12.017998,5.6103686 11.999185,5.5159125 11.98228,5.4315423 11.959,5.3502518 11.935411,5.267234 l 0.02359,-0.00473 0.07561,0.1322907 c 0.01821,0.029671 0.03042,0.029036 0.189724,6.843e-4 0.101579,-0.01851 0.205245,-0.0357 0.306514,-0.055954 0.101187,-0.020205 0.203532,-0.044124 0.304508,-0.066056 0.129634,-0.027651 0.135324,-0.034071 0.142089,-0.079303 l 0.01792,-0.1386616 0.02357,-0.00473 c 0.0091,0.080671 0.02199,0.1798527 0.03683,0.254088 0.01689,0.084321 0.04317,0.1808304 0.06506,0.2554404 z m -0.199457,0.997174 -0.0014,-0.02405 0.218383,-0.071042 c 0.02628,-0.053216 0.03197,-0.1345067 0.02944,-0.1774901 -0.0078,-0.1373907 -0.07678,-0.2592369 -0.236609,-0.2500634 -0.244044,0.013899 -0.192708,0.5502796 -0.515817,0.5687895 -0.207853,0.011911 -0.320207,-0.1747201 -0.330885,-0.3601943 -0.0041,-0.07215 0.01192,-0.1833559 0.04049,-0.2573468 l 0.236056,-0.00314 9.94e-4,0.018934 -0.186888,0.077836 c -0.01904,0.059669 -0.02612,0.1169255 -0.02274,0.175323 0.0061,0.1082245 0.09607,0.2029902 0.211243,0.1964563 0.269703,-0.01543 0.17026,-0.5490901 0.526055,-0.5694087 0.149441,-0.00852 0.32764,0.093316 0.347072,0.431627 0.0046,0.082496 -0.0015,0.1569108 -0.03366,0.256972 z m -0.743639,0.2272519 0.02496,0.1198747 c 0.0084,0.039334 0.02297,0.058821 0.05339,0.064834 0.137411,0.02449 0.437143,0.080411 0.536048,0.094309 0.06982,0.00976 0.265855,0.037248 0.46065,0.061119 l -0.0058,0.040865 c -0.177188,0.086407 -0.348785,0.1821013 -0.521897,0.2760196 l -0.513844,0.2805494 -5.38e-4,0.00339 0.190963,0.026738 c 0.224986,0.031627 0.561235,0.075343 0.594361,0.074724 0.02796,-0.00124 0.04323,-0.011275 0.06555,-0.058528 l 0.05155,-0.1074424 0.0239,0.00329 c -0.01735,0.07404 -0.03497,0.1497578 -0.0455,0.22471 -0.01021,0.073274 -0.01352,0.1457657 -0.01691,0.2199684 l -0.02388,-0.00329 -0.0312,-0.1364945 c -0.0052,-0.025028 -0.01844,-0.042527 -0.0335,-0.046308 -0.05363,-0.014502 -0.305893,-0.062064 -0.524049,-0.09268 l -0.337552,-0.047318 -0.03719,0.017353 c -0.03127,0.049468 -0.0574,0.099686 -0.08213,0.1518271 l -0.0239,-0.00337 c 0.01453,-0.053526 0.02895,-0.1070514 0.03665,-0.1616687 0.0072,-0.051065 0.0075,-0.1031408 0.0079,-0.1552 0.06416,-0.023985 0.123782,-0.052075 0.184019,-0.085397 l 0.715469,-0.3912343 -0.003,-0.00393 -0.412461,-0.057827 c -0.08185,-0.01152 -0.165581,-0.02141 -0.249798,-0.028123 -0.04819,-0.00329 -0.06379,0.00846 -0.09114,0.054992 l -0.06179,0.1059108 -0.02388,-0.00323 c 0.0166,-0.068956 0.03342,-0.1395252 0.04323,-0.2094426 0.01086,-0.07663 0.01475,-0.1542875 0.01891,-0.2335413 z m -0.252455,2.064347 c -0.152034,-0.055383 -0.165125,-0.054683 -0.189382,-0.023284 l -0.09477,0.119337 -0.02268,-0.00821 c 0.05533,-0.1318833 0.106567,-0.2522957 0.151382,-0.3751684 0.05593,-0.1536195 0.104888,-0.3078255 0.150289,-0.4524344 0.03981,0.016359 0.0969,0.040767 0.121109,0.049599 0.02429,0.00885 0.08047,0.025581 0.118174,0.037574 l -0.0082,0.022583 -0.136628,-0.00209 c -0.05111,-3.748e-4 -0.05585,0.012546 -0.12362,0.1984767 -0.03414,0.093755 -0.05971,0.1686588 -0.07985,0.2290931 0.05541,0.023822 0.113512,0.050462 0.181509,0.07518 l 0.198853,0.072508 0.06123,-0.1681211 c 0.07132,-0.1956089 0.07453,-0.2145751 0.04428,-0.2420793 l -0.09943,-0.083849 0.0082,-0.022567 c 0.06086,0.023952 0.121729,0.047986 0.18159,0.069706 0.06629,0.024197 0.128298,0.044955 0.196849,0.06806 l -0.0083,0.022665 -0.138242,-0.00275 c -0.04089,0.00152 -0.05055,0.018184 -0.121859,0.213793 l -0.06125,0.1680396 0.219981,0.080101 c 0.07431,0.027113 0.150534,0.049289 0.219541,0.070814 0.02934,-0.075343 0.06185,-0.1495297 0.08836,-0.2222659 0.06309,-0.1730256 0.07031,-0.1978576 0.05686,-0.2210113 -0.01722,-0.02827 -0.06247,-0.064915 -0.147306,-0.1287386 l 0.0082,-0.022649 c 0.04573,0.020351 0.09191,0.044466 0.138764,0.06151 l 0.122951,0.044776 c -0.03712,0.08173 -0.134313,0.3282582 -0.167358,0.4187874 -0.05179,0.14223 -0.101888,0.2997437 -0.137851,0.4184941 l -0.02266,-0.00823 0.0033,-0.1397696 c 0.0019,-0.050593 -0.0022,-0.059359 -0.126619,-0.1046887 z m -0.296259,0.1642757 -0.02605,0.119565 c -0.0085,0.039399 -0.0029,0.063139 0.02243,0.081046 0.115485,0.078162 0.366506,0.251204 0.451195,0.3040453 0.05986,0.037411 0.227758,0.14223 0.395964,0.2432199 l -0.02191,0.034967 c -0.197011,0.00683 -0.392735,0.024571 -0.589046,0.039855 l -0.583682,0.047366 -0.0018,0.00285 0.16351,0.1021631 c 0.192708,0.1203472 0.482006,0.2969902 0.512508,0.3099602 0.02613,0.01012 0.0442,0.0072 0.08376,-0.02689 l 0.09082,-0.0771 0.02044,0.01276 c -0.04594,0.06052 -0.09281,0.122563 -0.132912,0.186761 -0.03927,0.06268 -0.07176,0.127664 -0.105133,0.194013 l -0.02044,-0.01276 0.02698,-0.137325 c 0.0055,-0.02503 6.19e-4,-0.04631 -0.01169,-0.05599 -0.04304,-0.03502 -0.254102,-0.18101 -0.440974,-0.297756 L 11.150364,9.9083241 11.10925,9.90909 C 11.06064,9.94158 11.0163,9.976742 10.972475,10.0143 l -0.02044,-0.01273 c 0.03505,-0.043097 0.07002,-0.086097 0.0993,-0.1327953 0.02727,-0.0437 0.04887,-0.091165 0.07031,-0.138629 0.06845,0.00424 0.134265,0.00277 0.202815,-0.00306 l 0.812875,-0.066496 -0.0011,-0.00477 -0.353236,-0.2205713 c -0.07002,-0.043782 -0.142546,-0.086945 -0.216769,-0.1272558 -0.04265,-0.022681 -0.0617,-0.0182 -0.105655,0.013133 l -0.09957,0.071726 -0.02044,-0.012758 c 0.04327,-0.056279 0.08736,-0.1137971 0.124777,-0.1736285 0.04105,-0.065665 0.07625,-0.1349303 0.112354,-0.2057601 z m -0.671323,1.0445565 -0.03249,0.07427 c -0.01814,0.04509 -0.02406,0.0731 4.57e-4,0.09985 0.06601,0.07011 0.168662,0.167045 0.383851,0.384993 0.234734,0.237387 0.207689,0.440687 0.02721,0.622707 -0.175607,0.177262 -0.375031,0.224351 -0.562066,0.03907 l -0.343535,-0.340217 c -0.102737,-0.101756 -0.130793,-0.122352 -0.178199,-0.101463 l -0.121484,0.05413 -0.01715,-0.01696 c 0.06433,-0.05507 0.126097,-0.107606 0.183122,-0.165042 0.06415,-0.06483 0.12225,-0.133187 0.181557,-0.202762 l 0.01715,0.0169 -0.03498,0.07681 c -0.04093,0.09268 -0.04571,0.107279 -0.0054,0.152153 0.06853,0.0751 0.173651,0.179249 0.361908,0.365701 0.156534,0.154923 0.294303,0.221191 0.486897,0.02697 0.127238,-0.128348 0.124076,-0.28402 -0.02259,-0.429411 -0.150338,-0.148846 -0.345981,-0.340137 -0.440011,-0.413932 -0.02445,-0.01937 -0.05241,-0.01069 -0.09613,0.01136 l -0.08735,0.0466 -0.01713,-0.0169 c 0.05693,-0.04769 0.113936,-0.09545 0.16726,-0.14922 0.04602,-0.04647 0.08837,-0.09891 0.13195,-0.152675 z m -1.2448007,1.677415 0.098123,-0.06368 c 0.1343135,-0.08716 0.2443527,-0.189385 0.1413234,-0.348055 -0.082473,-0.126947 -0.2061571,-0.124633 -0.3419541,-0.03655 -0.046102,0.02988 -0.088521,0.05944 -0.1317704,0.08756 z m 0.036272,0.665624 0.086744,-0.109674 c 0.031968,-0.03924 0.034039,-0.04869 -0.038098,-0.159828 L 9.4348718,11.613731 c -0.088064,-0.13563 -0.098889,-0.142914 -0.1372479,-0.132404 l -0.1475182,0.03826 -0.013156,-0.02012 c 0.057188,-0.02895 0.1287871,-0.06713 0.2067114,-0.11774 0.075137,-0.04877 0.1498984,-0.113683 0.2524226,-0.180179 0.1905397,-0.123655 0.3652662,-0.126262 0.4590203,0.01802 0.09468,0.145766 0.03565,0.282489 -0.08306,0.390224 l 0.3922631,0.168056 c 0.165287,0.07111 0.179046,0.07663 0.269246,0.03853 l 0.01316,0.02019 c -0.03511,0.01867 -0.07161,0.03834 -0.104823,0.05977 -0.03466,0.02258 -0.06884,0.04885 -0.103111,0.07518 -0.193555,-0.09592 -0.4420497,-0.197222 -0.6074188,-0.256076 l -0.1111807,0.07205 0.1078062,0.165971 c 0.1217771,0.187641 0.1477464,0.218062 0.1927083,0.20514 l 0.140769,-0.03586 0.01314,0.02021 c -0.06576,0.03446 -0.166266,0.09146 -0.2168358,0.124258 -0.073621,0.04779 -0.1536153,0.107833 -0.21915,0.158589 z m -1.020124,0.214657 c 0.019302,0.04978 0.039419,0.09731 0.06185,0.145831 0.043967,-0.01512 0.083777,-0.0268 0.1239617,-0.04223 0.1556856,-0.06006 0.3010519,-0.156667 0.2279857,-0.346051 -0.067556,-0.174949 -0.237604,-0.175812 -0.4174658,-0.106449 l -0.1139521,0.04401 z M 8.567352,12.262394 8.6909876,12.214704 C 8.7969517,12.173834 8.9539252,12.092971 8.883402,11.910039 8.822611,11.752754 8.6885423,11.73993 8.5520606,11.792527 c -0.051401,0.01983 -0.08513,0.03288 -0.1384542,0.05706 0.025285,0.07503 0.041652,0.122269 0.069463,0.194468 z M 8.3450887,12.088065 C 8.28689,11.937215 8.2776956,11.927781 8.2380813,11.930225 l -0.1522785,0.007 -0.00867,-0.02242 c 0.090803,-0.02764 0.175183,-0.05283 0.2394298,-0.07758 0.064231,-0.02478 0.1813452,-0.08463 0.2728493,-0.119956 0.1718084,-0.0662 0.3743628,-0.0576 0.4487332,0.134947 0.051401,0.133236 -0.06278,0.267563 -0.2081623,0.340299 l 0.00122,0.0031 c 0.1632987,-0.04999 0.3709067,-0.0619 0.443973,0.127565 0.057009,0.147673 -0.010287,0.317407 -0.2414839,0.406567 -0.1221032,0.04702 -0.2523411,0.0825 -0.3518658,0.12082 -0.075463,0.02918 -0.1372316,0.06037 -0.2069885,0.09462 l -0.00869,-0.0225 0.1075943,-0.08931 c 0.039337,-0.03181 0.043331,-0.0407 -0.0044,-0.164357 z M 7.043133,12.284977 6.8833229,12.755531 7.2693091,12.72366 Z m -0.4932056,0.908926 c 0.039924,-0.01888 0.086369,-0.0417 0.1257223,-0.06734 0.1202121,-0.363811 0.2729308,-0.773474 0.3709067,-1.092265 l 0.037788,-0.0031 c 0.166657,0.345269 0.3505291,0.68912 0.5249785,1.025199 l 0.1482192,0.03779 0.00199,0.02405 c -0.091471,6.19e-4 -0.1812311,0.0011 -0.2721646,0.0086 -0.077126,0.0064 -0.1520502,0.0195 -0.228703,0.03272 l -0.00204,-0.02403 c 0.042076,-0.01377 0.1140336,-0.04218 0.1637878,-0.06697 -0.026507,-0.07036 -0.094716,-0.226958 -0.1229835,-0.27641 -0.072235,0.0042 -0.1461163,0.0086 -0.2181555,0.01452 -0.072072,0.006 -0.1423016,0.01344 -0.2141452,0.02112 -0.039076,0.09125 -0.058199,0.194697 -0.074305,0.292705 l 0.151985,0.04101 0.00196,0.02395 c -0.067523,-0.0014 -0.1349655,-0.0027 -0.2035813,0.0029 -0.063481,0.0053 -0.1263255,0.01735 -0.1892518,0.02951 z m -0.044342,-1.04441 -0.1195601,0.0268 c -0.039223,0.0089 -0.058427,0.0239 -0.064002,0.05439 -0.022399,0.137619 -0.073718,0.438063 -0.086059,0.537065 -0.00877,0.07003 -0.03324,0.266358 -0.054139,0.461413 l -0.041,-0.0051 C 6.051766,13.048219 5.9533499,12.878175 5.8567433,12.706698 l -0.2885645,-0.509349 -0.00346,-3.75e-4 -0.023769,0.191226 c -0.028154,0.225264 -0.066692,0.562027 -0.065616,0.59512 0.00171,0.02796 0.011933,0.0431 0.059584,0.06459 l 0.108279,0.04992 -0.003,0.02389 C 5.5659238,13.10551 5.4898909,13.08915 5.4147053,13.0797 5.3412803,13.0706 5.2687032,13.06849 5.1943653,13.06619 l 0.00297,-0.02389 0.1360415,-0.03334 c 0.024975,-0.0055 0.042223,-0.01905 0.045907,-0.03417 0.013645,-0.05379 0.057286,-0.306669 0.084576,-0.525155 l 0.042174,-0.338018 -0.0179,-0.03694 c -0.050031,-0.03049 -0.1005843,-0.05584 -0.1531587,-0.07973 l 0.003,-0.0239 c 0.053797,0.01362 0.1076105,0.02728 0.162288,0.0341 0.05127,0.0064 0.1032741,0.0059 0.1554084,0.0055 0.024975,0.06381 0.053977,0.122873 0.088211,0.182623 l 0.4023699,0.70895 0.0039,-0.003 0.051547,-0.413117 c 0.010221,-0.08196 0.018943,-0.165808 0.024241,-0.25008 0.00254,-0.04823 -0.00942,-0.06358 -0.056373,-0.0903 l -0.106991,-0.06006 0.00298,-0.0239 c 0.069203,0.01551 0.1400518,0.03127 0.2100859,0.04002 0.076848,0.0096 0.1545608,0.01237 0.2339849,0.01528 z m -1.8061,-0.174801 -0.3365092,0.365815 0.3657878,0.126881 z M 3.880677,12.60662 c 0.044114,-0.0011 0.095775,-0.0031 0.1421874,-0.01075 0.2571014,-0.28415 0.5625549,-0.596978 0.7811832,-0.848948 l 0.035767,0.01243 c 0.012716,0.383168 0.041685,0.771926 0.065355,1.149848 l 0.1201795,0.09455 -0.00787,0.02275 c -0.08394,-0.03648 -0.1662494,-0.0722 -0.2524227,-0.102163 -0.073197,-0.02535 -0.1469965,-0.04372 -0.2223777,-0.06259 l 0.00787,-0.02275 c 0.044065,0.0044 0.1212881,0.0074 0.1768785,0.0049 0.00419,-0.07512 0.00515,-0.245924 -6.521e-4,-0.302513 -0.067784,-0.02527 -0.1370849,-0.05124 -0.2053909,-0.07489 -0.068274,-0.02372 -0.1355199,-0.04515 -0.2043965,-0.06728 -0.072659,0.06773 -0.1319334,0.154516 -0.1863337,0.237696 l 0.1222825,0.09884 -0.00782,0.02275 C 4.1839015,12.73 4.122785,12.7015 4.0577394,12.679 3.9975844,12.65811 3.9351472,12.64367 3.8727099,12.6293 Z M 3.3150735,12.289426 3.4532017,12.3117 c 0.045255,0.0065 0.053047,0.0028 0.1164464,-0.113602 0.049754,-0.09046 0.1017743,-0.181612 0.1500287,-0.272956 0.048173,-0.09131 0.094161,-0.185621 0.1408507,-0.27778 0.072528,-0.144609 0.076604,-0.156047 0.053276,-0.181938 l -0.1053772,-0.110147 0.01133,-0.02128 c 0.069806,0.04463 0.141193,0.09009 0.2264044,0.135093 0.076098,0.04017 0.1539087,0.07344 0.2332187,0.10754 l -0.011216,0.02128 -0.15042,-0.02488 c -0.034495,-0.0046 -0.041652,0.0052 -0.1202122,0.146695 -0.049787,0.0904 -0.1018232,0.181628 -0.1500287,0.27294 -0.048222,0.09125 -0.09421,0.185637 -0.1408507,0.277714 -0.060399,0.117968 -0.059014,0.12649 -0.028203,0.160202 l 0.09628,0.101463 -0.011248,0.02128 C 3.6951747,12.509476 3.61011,12.456862 3.5431896,12.421537 3.4670423,12.381275 3.3756034,12.340817 3.303825,12.310787 Z M 2.7219846,11.896741 c 0.09333,0.03658 0.1230976,0.04854 0.1304662,0.03896 0.00838,-0.0109 0.00365,-0.0275 0.00184,-0.05048 l -0.058427,-0.637827 0.4892768,-0.04209 c 0.083679,-0.0075 0.1330256,-0.01535 0.143459,-0.02904 0.011493,-0.01496 -0.020508,-0.05245 -0.062323,-0.116811 l 0.014639,-0.01911 c 0.054596,0.05038 0.1106102,0.101821 0.1694447,0.146695 0.050618,0.03862 0.1053772,0.07181 0.1601687,0.104965 l -0.014607,0.01913 c -0.04426,-0.01867 -0.1146042,-0.04847 -0.2033858,-0.04271 l -0.5405307,0.03542 0.075104,0.734972 c 0.00197,0.01445 0.00884,0.04786 0.01195,0.05239 0.00844,0.01727 0.033794,0.06052 0.061818,0.09485 l -0.014672,0.01911 c -0.061475,-0.0556 -0.1257223,-0.113276 -0.1926752,-0.164504 -0.060236,-0.04593 -0.1231792,-0.0854 -0.1861707,-0.124796 z M 2.1570985,11.46544 2.2895698,11.51028 c 0.043592,0.01375 0.051906,0.01145 0.1336615,-0.09276 0.064084,-0.08096 0.1306292,-0.162288 0.1932784,-0.244312 0.062698,-0.08201 0.1237171,-0.167486 0.1850784,-0.250503 0.095433,-0.130662 0.1013831,-0.141253 0.082685,-0.17068 l -0.085603,-0.125936 0.014639,-0.01919 c 0.061476,0.05566 0.1242877,0.112282 0.2009079,0.170728 0.06842,0.05222 0.1395791,0.09793 0.2121074,0.144691 l -0.014574,0.01921 -0.1441763,-0.04947 c -0.033305,-0.01028 -0.041994,-0.0018 -0.1429373,0.124648 -0.064035,0.08095 -0.1305477,0.162272 -0.1932458,0.244296 -0.062666,0.08194 -0.1236682,0.167502 -0.1849969,0.250536 -0.079114,0.106285 -0.07918,0.114888 -0.0544,0.153277 l 0.078169,0.11598 -0.014623,0.01911 C 2.4953683,11.74537 2.4202969,11.679347 2.360093,11.633398 2.291738,11.581176 2.2081732,11.526103 2.1424429,11.484488 Z m -0.6906736,-0.770085 0.06992,0.04424 c 0.07574,0.04831 0.1022309,0.05274 0.1518058,0.01014 L 1.890281,10.575692 C 2.0152208,10.259345 2.0761094,10.097921 2.1286838,9.9165037 2.1263689,9.8821723 2.1098548,9.8418448 2.0976771,9.8092243 l 0.018226,-0.015675 c 0.043103,0.060516 0.086173,0.1211293 0.1355688,0.178484 0.050569,0.058609 0.1051978,0.1114347 0.1609838,0.1656607 l -0.018258,0.01567 c -0.083451,-0.05983 -0.1164952,-0.0745 -0.1452196,-0.04986 -0.030012,0.02579 -0.191257,0.43707 -0.2081297,0.49928 0.1503711,-0.03632 0.5054485,-0.117186 0.5380691,-0.145212 0.020899,-0.01805 -0.016433,-0.09033 -0.042108,-0.138645 l 0.018242,-0.01566 c 0.034072,0.05015 0.069284,0.101528 0.1086213,0.147135 0.03593,0.04173 0.076001,0.07758 0.1159899,0.113601 l -0.018258,0.01566 c -0.055933,-0.05177 -0.1190221,-0.0406 -0.2171774,-0.01734 L 1.982031,10.687526 1.7824763,10.859248 c -0.049559,0.04261 -0.049151,0.06951 -0.012536,0.151517 l 0.033419,0.07573 -0.018291,0.01566 C 1.7408391,11.040347 1.680945,10.960164 1.6293161,10.900252 1.5731062,10.835043 1.502795,10.763936 1.4481665,10.711111 Z m -0.141894,-1.262456 0.0589,0.1010877 C 1.4639959,9.6722084 1.5607981,9.7870319 1.724374,9.69181 1.8552966,9.6156194 1.8589157,9.4919646 1.7774701,9.3522602 1.7497727,9.3047307 1.7222547,9.2610303 1.6962527,9.2164011 Z m -0.66695399,0.00414 0.10537716,0.091947 c 0.037658,0.033875 0.0470643,0.03627 0.16157071,-0.030405 L 1.4628547,9.1850841 C 1.602662,9.1036795 1.6105034,9.0931373 1.6018632,9.054374 l -0.031202,-0.1490572 0.020818,-0.012139 c 0.026165,0.058463 0.060889,0.1318019 0.1077246,0.2120496 0.045076,0.077266 0.1063064,0.1550697 0.1678471,0.2606708 C 1.9814264,9.5620449 1.9756718,9.7366836 1.8269145,9.8233186 1.676739,9.9107031 1.5429635,9.8452828 1.440912,9.7215465 L 1.2541545,10.105106 c -0.079114,0.161506 -0.085228,0.17503 -0.051515,0.266961 l -0.020834,0.01212 c -0.017019,-0.03594 -0.034805,-0.07334 -0.054694,-0.107605 -0.020818,-0.03565 -0.04545,-0.07103 -0.070083,-0.106514 0.105149,-0.1887 0.2183838,-0.4317896 0.2851085,-0.5941426 L 1.2753962,9.4615112 1.1043865,9.5611162 C 0.91102659,9.6737726 0.87948191,9.6981158 0.89007832,9.7436737 l 0.0291646,0.1422951 -0.0208179,0.012139 C 0.86712487,9.8306671 0.81502317,9.7276893 0.78470115,9.6756953 0.7404897,9.5998306 0.68427985,9.5171225 0.63674275,9.4491278 Z M 1.1924508,8.3930022 0.69697923,8.3517784 0.82107127,8.7184251 Z M 0.19089498,8.1342867 c 0.027893,0.034185 0.0612798,0.073665 0.09571,0.1056826 0.38223674,0.028726 0.81680342,0.077869 1.15001952,0.095906 l 0.012145,0.035879 C 1.1537495,8.616816 0.8642883,8.8781711 0.58022316,9.1286256 l -9.6183e-4,0.1528373 -0.022823,0.00767 C 0.5337294,9.2006612 0.51155846,9.1136351 0.48232869,9.027326 0.4575005,8.9539869 0.42672202,8.8844769 0.39534036,8.81337 l 0.0228556,-0.00769 c 0.023524,0.037395 0.0684691,0.1003056 0.10461096,0.1425395 C 0.58465735,8.9056101 0.72020981,8.8015243 0.76138906,8.762207 0.73987021,8.6931695 0.71779709,8.6225841 0.69461542,8.5541494 0.67145005,8.4857148 0.64720874,8.419431 0.62238055,8.3515503 0.52437196,8.3357126 0.41933714,8.3420835 0.32033413,8.350149 l -0.003146,0.1572856 -0.022823,0.00769 C 0.2794157,8.4493956 0.26443402,8.3836494 0.24234459,8.318441 0.22195059,8.2581533 0.19497052,8.2000817 0.16803935,8.1419611 Z m 0.15289795,-0.9326826 0.003505,0.023887 -0.21119448,0.090008 c -0.02147,0.055285 -0.0199375,0.1367878 -0.0137101,0.1793965 0.0199865,0.1361686 0.099541,0.2514647 0.25786757,0.2282784 C 0.62207081,7.6876692 0.52349164,7.15792 0.84368237,7.1109934 1.049758,7.0808007 1.1781701,7.2567429 1.2051665,7.4405387 c 0.010499,0.071514 0.00435,0.1836981 -0.017558,0.259905 L 0.95279273,7.7243958 0.95007026,7.705674 1.1294103,7.611609 C 1.1430063,7.550539 1.1449793,7.4928586 1.1364903,7.4350314 1.1208191,7.3277519 1.0228431,7.2412636 0.90874429,7.2579323 0.64137256,7.2971682 0.78768445,7.8199599 0.43518284,7.8715629 0.28699621,7.8933642 0.10046689,7.8076579 0.05125067,7.4722794 0.03930119,7.3906303 0.03876322,7.3159062 0.0620101,7.2133683 Z M 0.90991804,6.3790035 0.46028817,6.1667584 0.44799634,6.5536422 Z M 0.06253177,5.7857893 c 0.01418288,0.041778 0.03159358,0.090546 0.05263967,0.1325188 0.347937,0.1607888 0.73770535,0.3590537 1.04345236,0.4927131 l -0.00124,0.037786 C 0.79519974,6.5750687 0.43247668,6.7184556 0.0786057,6.8534673 L 0.02409127,6.9963328 -3.31784e-6,6.9955507 C 0.00979428,6.9047119 0.01947776,6.8154535 0.02242845,6.7243703 0.02489008,6.6468762 0.02039068,6.5710604 0.0159728,6.4935012 L 0.04001848,6.494267 C 0.04901728,6.537511 0.06898742,6.6122353 0.08799574,6.6644574 0.1608827,6.6460944 0.32439336,6.5962514 0.3767233,6.5738144 0.3807503,6.5016324 0.3848413,6.4277391 0.387173,6.3555242 0.389439,6.2832932 0.389977,6.2127077 0.390515,6.1404765 0.3042602,6.0912522 0.20367587,6.0604892 0.10808,6.0334249 L 0.05002801,6.1796143 0.02593342,6.1788159 C 0.03491591,6.1119455 0.04394731,6.0451077 0.04613179,5.9763798 0.04816956,5.912703 0.04329522,5.8489284 0.03840457,5.7850561 Z m 0.4226661,-1.6919648 0.007385,0.096574 c 0.005526,0.06397 0.0119821,0.072883 0.0644587,0.096216 0.24746679,0.1127053 0.66204703,0.273266 0.78488383,0.3070107 0.029849,0.00823 0.051287,0.00169 0.071583,-0.026641 l 0.060888,-0.084973 0.023247,0.00642 C 1.4617951,4.5927293 1.4261422,4.702518 1.3971081,4.8015527 1.1082338,4.8326904 0.81950627,4.8763257 0.53028964,4.9216392 0.74813541,5.1225926 0.97714815,5.3087022 1.207514,5.4899236 1.1821967,5.5882251 1.1569447,5.6990403 1.1330131,5.8119737 l -0.023231,-0.00637 -0.00809,-0.080769 C 1.0938716,5.6495392 1.0875627,5.6335223 1.0577134,5.6253101 0.94325596,5.5937813 0.31739974,5.500091 0.20783292,5.4895651 0.1540847,5.483683 0.13698373,5.5004006 0.11440524,5.5369968 L 0.06484667,5.6197376 0.0416487,5.6133341 C 0.06926456,5.5388381 0.09743469,5.462729 0.11890464,5.3847787 c 0.0214373,-0.07795 0.0357995,-0.1560636 0.0502106,-0.2341768 l 0.0232469,0.00639 0.005804,0.089014 c 0.002722,0.061412 0.0214047,0.084403 0.0363375,0.088509 0.0829943,0.022812 0.73499919,0.1184408 0.81952586,0.1291785 l 8.967e-4,-0.00326 C 0.78155484,5.2281122 0.53087652,5.0235579 0.26140182,4.8155329 l 0.005918,-0.021541 C 0.61509348,4.7630012 0.95548258,4.7068196 1.2961488,4.656015 L 1.297078,4.652675 C 1.0840088,4.5708465 0.62469545,4.4105628 0.51351472,4.3799627 0.47540027,4.3694369 0.45464762,4.3798161 0.42695025,4.4221641 l -0.0536667,0.077983 -0.023198,-0.00637 C 0.37636465,4.424266 0.40221988,4.3564669 0.42184768,4.2851156 0.43963333,4.2204449 0.45084922,4.1539329 0.4620325,4.087421 Z M 5.672969,10.130264 V 7.0271121 c 0.00227,0.013443 0.044374,0.1973035 0.6373004,2.478295 0.028235,0.1083548 0.1196741,0.2271704 0.2989816,0.2271704 0.1851762,0 0.2665077,-0.1033689 0.2986393,-0.2271704 C 7.0903766,8.8009866 7.5401695,7.0365626 7.5401695,7.0365626 l 4.402e-4,3.0936854 c -0.28638,0.0963 -0.601729,0.14891 -0.9337551,0.14891 -0.332075,0 -0.6473588,-0.0526 -0.9338856,-0.148894 M 9.5632676,2.8407864 c -0.3039049,0 -0.5503935,0.2431548 -0.5503935,0.5430288 v 4.9121401 c 0,0.444597 -0.1657604,0.8468134 -0.4484398,1.1709655 V 3.3744299 C 8.5644343,3.112032 8.3688735,2.8895868 8.1055937,2.8523714 7.8424442,2.815156 7.5807782,2.9676186 7.5168901,3.226497 6.6152828,6.8758878 6.6082566,6.9043697 6.6081914,6.9046141 6.6081098,6.9043697 6.6010673,6.8758878 5.6966724,3.2260734 5.6326212,2.9676838 5.3709878,2.8151071 5.1078547,2.8523551 4.84464,2.8896357 4.6492749,3.1121297 4.6492749,3.3744136 V 9.4669045 C 4.3665465,9.1427361 4.2007699,8.740536 4.2007699,8.295939 V 3.3837989 c 0,-0.2998577 -0.2464398,-0.5430288 -0.5503283,-0.5430288 -0.3039375,0 -0.527701,0.2431548 -0.527701,0.5430288 V 8.295939 c 0,1.72716 1.5379784,2.93539 3.4841303,2.93539 1.946054,0 3.4840491,-1.20823 3.4840491,-2.93539 V 3.3837989 c 0,-0.2998577 -0.223829,-0.5430125 -0.5276524,-0.5430125"
     inkscape:connector-curvature="0" />
</svg>
