<?xml version="1.0" encoding="UTF-8" standalone="no"?>
<svg
   xmlns:dc="http://purl.org/dc/elements/1.1/"
   xmlns:cc="http://creativecommons.org/ns#"
   xmlns:rdf="http://www.w3.org/1999/02/22-rdf-syntax-ns#"
   xmlns:svg="http://www.w3.org/2000/svg"
   xmlns="http://www.w3.org/2000/svg"
   xmlns:sodipodi="http://sodipodi.sourceforge.net/DTD/sodipodi-0.dtd"
   xmlns:inkscape="http://www.inkscape.org/namespaces/inkscape"
   width="65.000008mm"
   height="44.755459mm"
   viewBox="0 0 65.000008 44.755459"
   version="1.1"
   id="svg8"
   inkscape:version="1.0.2 (e86c870879, 2021-01-15)"
   sodipodi:docname="muni.svg"
   inkscape:export-filename="/home/apophis/jan/KSI/intersob-web/public/images/logo-prf.png"
   inkscape:export-xdpi="25.4"
   inkscape:export-ydpi="25.4">
  <defs
     id="defs2">
    <clipPath
       id="clipPath4560"
       clipPathUnits="userSpaceOnUse">
      <path
         inkscape:connector-curvature="0"
         id="path4558"
         d="M 0,82.21 H 174.25 V 0 H 0 Z" />
    </clipPath>
    <clipPath
       id="clipPath4560-3"
       clipPathUnits="userSpaceOnUse">
      <path
         inkscape:connector-curvature="0"
         id="path4558-6"
         d="M 0,82.21 H 174.25 V 0 H 0 Z" />
    </clipPath>
    <clipPath
       id="clipPath4560-7"
       clipPathUnits="userSpaceOnUse">
      <path
         inkscape:connector-curvature="0"
         id="path4558-0"
         d="M 0,82.21 H 174.25 V 0 H 0 Z" />
    </clipPath>
    <clipPath
       id="clipPath5141"
       clipPathUnits="userSpaceOnUse">
      <path
         inkscape:connector-curvature="0"
         id="path5139"
         d="M 0,77.453 H 100.528 V 0 H 0 Z" />
    </clipPath>
    <clipPath
       id="clipPath5141-7"
       clipPathUnits="userSpaceOnUse">
      <path
         inkscape:connector-curvature="0"
         id="path5139-9"
         d="M 0,77.453 H 100.528 V 0 H 0 Z" />
    </clipPath>
    <clipPath
       id="clipPath5301"
       clipPathUnits="userSpaceOnUse">
      <path
         inkscape:connector-curvature="0"
         id="path5299"
         d="M 0,77.453 H 100.528 V 0 H 0 Z" />
    </clipPath>
    <clipPath
       id="clipPath5301-2"
       clipPathUnits="userSpaceOnUse">
      <path
         inkscape:connector-curvature="0"
         id="path5299-9"
         d="M 0,77.453 H 100.528 V 0 H 0 Z" />
    </clipPath>
  </defs>
  <sodipodi:namedview
     id="base"
     pagecolor="#ffffff"
     bordercolor="#666666"
     borderopacity="1.0"
     inkscape:pageopacity="0.0"
     inkscape:pageshadow="2"
     inkscape:zoom="0.98994949"
     inkscape:cx="-36.750497"
     inkscape:cy="-7.6918697"
     inkscape:document-units="mm"
     inkscape:current-layer="layer1"
     showgrid="false"
     inkscape:window-width="1920"
     inkscape:window-height="1182"
     inkscape:window-x="0"
     inkscape:window-y="0"
     inkscape:window-maximized="1"
     fit-margin-top="0"
     fit-margin-left="0"
     fit-margin-right="0"
     fit-margin-bottom="0"
     inkscape:document-rotation="0" />
  <metadata
     id="metadata5">
    <rdf:RDF>
      <cc:Work
         rdf:about="">
        <dc:format>image/svg+xml</dc:format>
        <dc:type
           rdf:resource="http://purl.org/dc/dcmitype/StillImage" />
        <dc:title></dc:title>
      </cc:Work>
    </rdf:RDF>
  </metadata>
  <g
     inkscape:label="Layer 1"
     inkscape:groupmode="layer"
     id="layer1"
     transform="translate(-45,-108.79366)">
    <path
       inkscape:connector-curvature="0"
       id="path5293"
       style="fill:#bbbbbb;fill-opacity:1;fill-rule:nonzero;stroke:none;stroke-width:0.877565"
       d="m 53.713341,121.87824 h 2.895964 v 18.42798 h -2.895964 z m -1.078527,0 h 0.973219 l -1.790232,18.42798 h -0.97322 z m -4.660747,0 h 0.974974 l 1.790233,18.42798 h -0.974975 z m -2.974067,0 h 2.870514 v 18.42798 H 45 Z" />
    <g
       transform="matrix(0.87756485,0,0,-0.87756485,67.482158,121.87859)"
       id="g5303"
       style="fill:#bbbbbb;fill-opacity:1">
      <path
         inkscape:connector-curvature="0"
         id="path5305"
         style="fill:#bbbbbb;fill-opacity:1;fill-rule:nonzero;stroke:none"
         d="m 0,0 v -16.05 c 0,-1.138 1.021,-1.949 1.98,-1.949 0.96,0 1.98,0.811 1.98,1.949 V 0 h 3.3 v -16.169 c 0,-2.82 -2.55,-5.01 -5.28,-5.01 -2.73,0 -5.28,2.19 -5.28,5.01 L -3.3,0 Z" />
    </g>
    <path
       inkscape:connector-curvature="0"
       id="path5307"
       style="fill:#bbbbbb;fill-opacity:1;fill-rule:nonzero;stroke:none;stroke-width:0.877565"
       d="m 92.519259,140.30622 h -2.896842 v -18.42798 h 2.896842 z m -5.739274,-18.42798 2.738002,18.42798 h -1.000424 l -2.738002,-18.42798 z m -1.105732,18.42798 h -2.895964 v -18.42798 h 2.895964 z" />
    <g
       transform="matrix(0.87756485,0,0,-0.87756485,104.60298,139.27991)"
       id="g5309"
       style="fill:#bbbbbb;fill-opacity:1">
      <path
         inkscape:connector-curvature="0"
         id="path5311"
         style="fill:#bbbbbb;fill-opacity:1;fill-rule:nonzero;stroke:none"
         d="m 0,0 v 18.659 h -2.819 v 1.17 H 6.15 v -1.17 H 3.3 V 0 H 6.15 V -1.17 H -2.819 V 0 Z" />
    </g>
  </g>
</svg>
