<?xml version="1.0" encoding="UTF-8" standalone="no"?>
<svg
   xmlns:dc="http://purl.org/dc/elements/1.1/"
   xmlns:cc="http://creativecommons.org/ns#"
   xmlns:rdf="http://www.w3.org/1999/02/22-rdf-syntax-ns#"
   xmlns:svg="http://www.w3.org/2000/svg"
   xmlns="http://www.w3.org/2000/svg"
   id="svg5321"
   version="1.1"
   viewBox="0 0 13.229167 13.229167"
   height="13.229167mm"
   width="13.229167mm">
  <defs
     id="defs5315">
    <clipPath
       clipPathUnits="userSpaceOnUse"
       id="clipPath18">
      <path
         d="M 0,600 H 600 V 0 H 0 Z"
         id="path16" />
    </clipPath>
    <clipPath
       clipPathUnits="userSpaceOnUse"
       id="clipPath30">
      <path
         d="M 0,600 H 600 V 0 H 0 Z"
         id="path28" />
    </clipPath>
    <clipPath
       clipPathUnits="userSpaceOnUse"
       id="clipPath2693">
      <path
         d="M 0,70.866 H 70.866 V 0 H 0 Z"
         id="path2691" />
    </clipPath>
    <clipPath
       clipPathUnits="userSpaceOnUse"
       id="clipPath2853">
      <path
         d="M 0,70.866 H 70.866 V 0 H 0 Z"
         id="path2851" />
    </clipPath>
  </defs>
  <metadata
     id="metadata5318">
    <rdf:RDF>
      <cc:Work
         rdf:about="">
        <dc:format>image/svg+xml</dc:format>
        <dc:type
           rdf:resource="http://purl.org/dc/dcmitype/StillImage" />
        <dc:title></dc:title>
      </cc:Work>
    </rdf:RDF>
  </metadata>
  <g
     transform="matrix(0.60884669,0,0,0.60857927,-84.206547,-76.601386)"
     id="layer1"
     style="fill:#939597;fill-opacity:1">
    <g
       style="fill:#939597;fill-opacity:1"
       transform="matrix(0.31938214,0,0,-0.31938214,137.85254,148.05457)"
       id="g2685">
      <g
         style="fill:#939597;fill-opacity:1"
         id="g2687">
        <g
           style="fill:#939597;fill-opacity:1"
           clip-path="url(#clipPath2693)"
           id="g2689">
          <g
             style="fill:#939597;fill-opacity:1"
             transform="translate(41.5137,40.2124)"
             id="g2695">
            <path
               id="path2697"
               style="fill:#939597;fill-opacity:1;fill-rule:nonzero;stroke:none"
               d="M 0,0 C 2.077,0.26 4.309,1.541 4.469,3.815 4.513,4.45 4.396,5.038 4.193,5.604 c 2.02,0.248 4.035,1.577 4.395,3.726 0.183,1.085 0.049,2.156 -0.276,3.188 0.495,-0.05 1.016,-0.12 1.602,-0.221 0.596,-0.101 1.295,-0.185 1.511,0.062 0.15,0.172 0.355,0.671 -0.507,0.901 C 9.934,13.522 8.851,13.773 7.751,13.921 7.187,15.098 6.439,16.205 5.716,17.209 5.187,17.945 3.012,16.369 3.542,15.632 3.891,15.147 4.294,14.588 4.687,13.98 3.414,13.827 2.221,13.405 1.24,12.555 -0.41,11.128 -0.328,9.544 0.25,7.943 -1.014,7.905 -2.248,7.561 -3.173,6.594 -4.419,5.291 -4.75,3.82 -4.015,2.154 -3.993,2.1 -3.962,2.038 -3.93,1.977 -4.532,1.879 -5.092,1.716 -5.605,1.489 -5.98,1.713 -6.394,1.894 -6.849,2.016 c -0.733,0.193 -1.482,0.226 -2.23,0.198 0.55,1.046 1,2.147 0.867,3.252 -0.258,2.102 -2.16,2.724 -4.017,2.63 -0.289,-0.015 -0.625,-0.064 -0.991,-0.123 0.929,1.782 1.669,3.773 0.044,5.262 -1.165,1.066 -2.785,1.321 -4.425,1.218 0.447,0.746 0.938,1.432 1.359,1.995 0.229,0.31 0.497,0.985 -0.131,0.997 -0.975,0.017 -1.553,-0.386 -1.896,-0.846 -0.561,-0.756 -1.12,-1.593 -1.597,-2.481 -0.727,-0.158 -1.418,-0.345 -2.025,-0.524 -0.857,-0.253 -2.077,-0.793 -2.191,-1.198 -0.144,-0.5 0.268,-0.523 0.806,-0.402 0.671,0.153 1.63,0.368 2.671,0.512 -0.36,-0.96 -0.587,-1.958 -0.596,-2.962 -0.012,-1.794 0.932,-3.409 2.808,-3.665 0.495,-0.067 1.298,0.013 2.206,0.104 -0.399,-0.752 -0.761,-1.548 -0.84,-2.362 -0.265,-2.739 2.065,-3.616 4.393,-3.458 0.19,0.012 0.381,0.027 0.573,0.047 -0.349,-0.685 -0.651,-1.385 -0.774,-2.151 -0.331,-2.091 2.044,-3.539 3.761,-4.117 -0.202,-0.138 -0.391,-0.281 -0.551,-0.437 -1.179,-1.123 -1.81,-3.202 -0.762,-4.635 0.569,-0.782 1.357,-1.319 2.195,-1.794 -1.34,-0.841 -2.688,-2.015 -2.772,-3.659 -0.082,-1.634 1.157,-2.648 2.446,-3.396 -0.216,-0.132 -0.425,-0.274 -0.625,-0.432 -1.56,-1.209 -2.502,-3.099 -1.481,-4.999 0.515,-0.954 1.286,-1.712 2.179,-2.335 -0.36,-0.158 -0.696,-0.295 -0.987,-0.41 -0.542,-0.218 -1.167,-0.52 -1.151,-0.938 0.016,-0.333 0.549,-0.343 0.923,-0.212 0.802,0.279 1.573,0.566 2.309,0.89 1.127,-0.609 2.355,-1.063 3.477,-1.446 0.847,-0.293 2.734,1.513 1.895,1.799 -0.868,0.297 -1.857,0.642 -2.807,1.084 0.544,0.396 1.058,0.846 1.539,1.374 1.133,1.243 2.013,3.236 0.766,4.727 -0.57,0.682 -1.301,1.164 -2.072,1.592 1.854,1.155 3.502,2.744 2.53,4.902 -0.378,0.842 -1.295,1.479 -2.323,2.07 0.079,0.05 0.159,0.1 0.236,0.152 1.511,1.038 2.78,2.604 2.331,4.553 -0.304,1.328 -1.085,1.907 -2.055,2.258 0.886,0.311 1.767,0.695 2.375,1.17 C 0.121,-2.947 0.573,-1.709 0,0 M 5.484,12.627 C 6.24,11.182 6.73,9.606 6.258,8.209 5.973,7.368 5.625,7.4 4.65,7.472 4.158,7.511 3.668,7.581 3.179,7.654 2.625,8.655 2.099,9.661 2.087,10.792 2.07,12.288 4.296,12.625 5.484,12.627 M -18.063,8.333 c -1.129,1.238 -1.018,2.807 -0.436,4.318 1.703,-0.024 3.266,-0.464 3.841,-1.897 0.413,-1.028 -0.095,-2.14 -0.609,-3.092 -1.1,-0.104 -2.163,-0.022 -2.796,0.671 m 4.076,-5.751 c -1.01,0.982 -0.885,2.173 -0.312,3.366 0.031,0.065 0.064,0.13 0.097,0.197 2.234,0.096 4.282,-0.261 3.613,-2.776 -0.122,-0.455 -0.299,-0.888 -0.502,-1.311 -0.967,-0.092 -2.182,-0.169 -2.896,0.524 m 9.793,-26.045 c 0.128,-1.194 -0.669,-2.159 -1.73,-2.919 -1.001,0.594 -1.873,1.339 -2.394,2.308 -0.856,1.593 -0.388,2.58 1.066,3.335 0.034,0.017 0.07,0.034 0.105,0.052 1.268,-0.62 2.809,-1.43 2.953,-2.776 m -0.383,5.677 c -0.383,-0.325 -0.809,-0.588 -1.253,-0.827 -0.249,0.131 -0.496,0.262 -0.735,0.401 -0.955,0.556 -2.958,2.053 -1.912,3.413 0.385,0.5 0.935,0.874 1.542,1.197 0.318,-0.17 0.633,-0.345 0.931,-0.533 1.067,-0.666 2.899,-2.41 1.427,-3.651 M -4,-9.788 c -0.044,-0.846 -0.767,-1.399 -1.592,-1.831 -1.359,0.76 -2.627,1.562 -2.89,2.776 -0.133,0.614 0.212,1.549 1.327,2.261 1.674,-0.455 3.26,-1.103 3.155,-3.206 m 1.391,6.528 c -1.037,-0.932 -2.245,-1.098 -3.519,-1.484 -0.236,0.064 -0.472,0.133 -0.704,0.218 -1.152,0.415 -2.839,1.002 -3.53,2.073 -0.455,0.704 -0.196,1.806 0.137,2.525 0.043,0.089 0.086,0.181 0.134,0.27 0.443,0.002 0.887,-0.027 1.323,-0.125 0.398,-0.086 0.76,-0.227 1.088,-0.41 -0.29,-0.41 -0.52,-0.876 -0.687,-1.397 -0.238,-0.745 0.52,-1.087 1.037,-0.117 0.168,0.317 0.346,0.596 0.543,0.839 0.516,-0.505 0.93,-1.132 1.274,-1.806 0.379,-0.742 2.61,0.724 2.174,1.578 -0.239,0.471 -0.511,0.905 -0.823,1.301 0.42,-0.018 0.84,-0.054 1.262,-0.099 0.637,-1.237 1.129,-2.611 0.291,-3.366 m 1.684,5.195 C -1.256,2.525 -1.593,3.111 -1.843,3.734 -2.015,4.161 -2.427,5.254 -2.036,5.778 -1.642,6.302 0.096,6.01 0.9,5.884 0.998,5.87 1.098,5.852 1.196,5.835 1.301,5.622 1.407,5.407 1.507,5.197 1.761,4.659 2.809,2.419 1.88,1.979 1.117,1.623 0.02,1.795 -0.925,1.935 M -23.47,15.361 c 0.299,-0.426 1.093,-0.441 2.119,0.152 0.48,0.276 0.126,1.061 -0.436,0.724 -0.463,-0.279 -0.71,-0.426 -0.797,-0.3 -0.132,0.187 0.216,0.69 0.877,1.154 0.661,0.463 1.293,0.531 1.392,0.388 0.108,-0.157 -0.115,-0.501 -0.459,-0.883 -0.139,-0.155 0.114,-0.378 0.243,-0.27 0.876,0.748 0.87,1.193 0.6,1.577 -0.33,0.472 -1.523,0.229 -2.498,-0.45 -0.973,-0.682 -1.465,-1.487 -1.041,-2.092 m 19.074,-46.425 c 0,0.525 -0.64,0.989 -1.821,1.095 -0.552,0.047 -0.713,-0.798 -0.058,-0.845 0.536,-0.038 0.824,-0.058 0.824,-0.211 0,-0.229 -0.571,-0.441 -1.381,-0.441 -0.809,0 -1.363,0.305 -1.363,0.481 0,0.191 0.385,0.344 0.883,0.459 0.2,0.047 0.125,0.375 -0.042,0.36 -1.148,-0.111 -1.397,-0.478 -1.397,-0.948 0,-0.573 1.113,-1.063 2.303,-1.063 1.191,0 2.052,0.376 2.052,1.113 M 9.248,15.84 c -0.19,0.072 -0.309,-0.245 -0.163,-0.324 1.017,-0.544 1.426,-0.379 1.686,0.009 0.323,0.48 -0.333,1.504 -1.322,2.165 -0.99,0.663 -1.917,0.828 -2.325,0.215 -0.291,-0.433 -0.018,-1.176 0.907,-1.922 0.431,-0.346 1.036,0.269 0.517,0.671 -0.425,0.331 -0.653,0.506 -0.569,0.632 0.129,0.193 0.722,0.05 1.396,-0.397 0.669,-0.451 0.962,-1.014 0.866,-1.158 C 10.135,15.572 9.728,15.658 9.248,15.84 M -18.57,-19.59 c -0.374,0.284 -0.85,0.585 -1.155,0.669 -0.131,0.037 -0.178,0.025 -0.283,-0.052 -0.21,-0.156 -0.669,-0.612 -0.724,-0.683 -0.035,-0.045 -0.055,-0.096 -0.013,-0.126 0.048,-0.037 0.076,-0.02 0.163,0.059 0.105,0.086 0.312,0.198 0.497,0.232 0.439,0.091 0.799,-0.089 1.323,-0.488 0.783,-0.6 1.316,-2.099 0.252,-3.494 -0.434,-0.569 -0.97,-1.039 -1.697,-1.105 -0.437,-0.037 -0.87,0.089 -1.378,0.477 -0.54,0.411 -0.873,0.917 -0.912,1.272 -0.03,0.262 0.051,0.525 0.183,0.712 0.062,0.081 0.085,0.138 0.039,0.172 -0.051,0.044 -0.1,0.003 -0.171,-0.081 -0.101,-0.106 -0.343,-0.433 -0.501,-0.618 -0.169,-0.195 -0.239,-0.253 -0.276,-0.3 -0.027,-0.035 -0.025,-0.081 0.035,-0.138 0.163,-0.152 0.309,-0.347 0.509,-0.546 0.242,-0.241 0.44,-0.429 0.804,-0.706 0.873,-0.667 1.609,-0.858 2.326,-0.792 0.957,0.085 1.606,0.684 1.909,1.082 0.434,0.568 0.784,1.341 0.594,2.281 -0.182,0.87 -0.72,1.56 -1.524,2.173 m 1.907,-6.553 c -0.054,0.025 -0.096,-0.022 -0.16,-0.169 -0.226,-0.53 -0.336,-0.713 -0.373,-0.802 -0.022,-0.05 0.007,-0.084 0.059,-0.121 0.157,-0.123 0.412,-0.311 0.854,-0.5 0.943,-0.401 1.794,-0.128 2.111,0.616 0.233,0.55 0.177,1.136 -0.322,2.033 l -0.208,0.379 c -0.376,0.678 -0.346,1.034 -0.202,1.365 0.151,0.361 0.624,0.649 1.235,0.388 0.42,-0.177 0.744,-0.529 0.68,-1.095 -0.016,-0.13 -0.049,-0.285 -0.087,-0.371 -0.023,-0.055 -0.041,-0.119 0.019,-0.146 0.054,-0.022 0.107,0.045 0.155,0.143 0.056,0.104 0.254,0.5 0.413,0.874 0.062,0.148 0.056,0.19 -0.033,0.283 -0.235,0.256 -0.52,0.432 -0.914,0.598 -0.358,0.152 -0.766,0.253 -1.196,0.179 -0.625,-0.111 -0.972,-0.514 -1.138,-0.91 -0.273,-0.643 -0.181,-1.233 0.377,-2.201 l 0.129,-0.223 c 0.382,-0.665 0.439,-0.969 0.305,-1.281 -0.173,-0.408 -0.601,-0.568 -1.103,-0.356 -0.442,0.188 -0.552,0.473 -0.599,0.646 -0.068,0.237 -0.012,0.462 0.014,0.523 0.035,0.08 0.032,0.129 -0.016,0.148 M 1.318,18.255 c -0.017,-0.108 -0.009,-0.148 0.047,-0.16 0.042,-0.01 0.067,0.03 0.091,0.101 0.042,0.186 0.172,0.679 0.207,0.829 0.022,0.109 0.024,0.153 -0.025,0.163 -0.031,0.007 -0.093,0.005 -0.203,0.007 -0.112,0.01 -0.276,0.023 -0.505,0.076 l -2.849,0.63 c -0.237,0.052 -0.508,0.126 -0.712,0.195 -0.177,0.052 -0.231,0.142 -0.29,0.154 -0.043,0.01 -0.073,-0.029 -0.116,-0.12 -0.026,-0.054 -0.306,-0.677 -0.333,-0.793 -0.019,-0.076 -0.011,-0.117 0.039,-0.129 0.045,-0.01 0.072,0.015 0.098,0.07 0.025,0.055 0.082,0.133 0.178,0.226 0.141,0.133 0.321,0.131 0.743,0.054 l 1.081,-0.211 -0.655,-2.948 c -0.145,-0.663 -0.27,-1.232 -0.374,-1.524 -0.068,-0.206 -0.144,-0.354 -0.295,-0.351 -0.069,0 -0.159,0.005 -0.265,0.03 -0.088,0.019 -0.122,0.005 -0.128,-0.033 -0.011,-0.051 0.034,-0.083 0.128,-0.104 0.287,-0.064 0.744,-0.144 0.91,-0.178 0.202,-0.044 0.65,-0.165 1.125,-0.271 0.08,-0.018 0.142,-0.01 0.152,0.042 0.008,0.034 -0.022,0.066 -0.102,0.083 -0.109,0.023 -0.265,0.072 -0.361,0.109 -0.209,0.076 -0.216,0.245 -0.192,0.45 0.028,0.317 0.155,0.886 0.301,1.548 l 0.654,2.948 0.903,-0.219 C 1.205,18.773 1.355,18.528 1.328,18.338 Z M -29.805,3.206 c -0.043,0.013 -0.074,-0.042 -0.1,-0.134 -0.078,-0.27 -0.177,-0.692 -0.228,-0.867 -0.059,-0.206 -0.209,-0.647 -0.288,-0.916 -0.031,-0.115 -0.034,-0.174 0.008,-0.186 0.057,-0.017 0.083,0.02 0.104,0.091 0.025,0.085 0.06,0.177 0.101,0.248 0.082,0.146 0.223,0.181 0.466,0.126 0.232,-0.052 0.43,-0.109 1.506,-0.418 l 1.246,-0.361 c 0.688,-0.198 1.246,-0.358 1.534,-0.479 0.197,-0.083 0.306,-0.159 0.294,-0.31 -0.005,-0.068 -0.015,-0.156 -0.046,-0.263 -0.023,-0.083 -0.011,-0.118 0.024,-0.13 0.049,-0.013 0.085,0.029 0.111,0.123 0.084,0.283 0.19,0.735 0.237,0.898 0.055,0.19 0.204,0.632 0.34,1.098 0.021,0.076 0.017,0.141 -0.032,0.153 -0.036,0.012 -0.067,-0.017 -0.09,-0.096 -0.029,-0.106 -0.089,-0.257 -0.131,-0.351 -0.09,-0.204 -0.233,-0.217 -0.43,-0.184 -0.311,0.061 -0.871,0.221 -1.557,0.419 l -1.246,0.359 c -1.077,0.312 -1.275,0.369 -1.497,0.448 -0.245,0.086 -0.348,0.177 -0.329,0.377 0.01,0.09 0.02,0.149 0.04,0.218 0.022,0.073 0.019,0.12 -0.037,0.137 m 22.181,11.539 c 0.317,-0.135 0.652,-0.182 1.079,-0.174 0.392,0.005 0.801,0.079 1.165,0.319 0.526,0.356 0.68,0.866 0.672,1.296 -0.012,0.698 -0.336,1.202 -1.238,1.857 l -0.207,0.151 c -0.622,0.456 -0.795,0.71 -0.8,1.048 -0.008,0.445 0.319,0.765 0.864,0.773 0.479,0.007 0.697,-0.208 0.809,-0.346 0.158,-0.191 0.197,-0.418 0.2,-0.486 0,-0.086 0.025,-0.131 0.075,-0.131 0.06,0.003 0.081,0.062 0.078,0.223 -0.01,0.574 0.017,0.789 0.015,0.885 0,0.053 -0.038,0.073 -0.104,0.088 -0.192,0.046 -0.502,0.116 -0.983,0.108 -1.024,-0.017 -1.691,-0.608 -1.679,-1.419 0.01,-0.596 0.298,-1.108 1.118,-1.73 l 0.345,-0.259 c 0.618,-0.468 0.734,-0.807 0.74,-1.167 0.007,-0.392 -0.311,-0.844 -0.973,-0.856 -0.456,-0.005 -0.895,0.185 -1.067,0.728 -0.039,0.125 -0.069,0.279 -0.071,0.375 0,0.059 -0.01,0.123 -0.077,0.123 -0.059,0 -0.08,-0.084 -0.084,-0.193 -0.006,-0.118 -0.027,-0.561 -0.022,-0.966 0.002,-0.161 0.026,-0.198 0.145,-0.247 M -21.815,7.232 c -0.045,0.025 -0.07,-0.004 -0.097,-0.056 -0.043,-0.077 -0.102,-0.171 -0.176,-0.258 -0.106,-0.119 -0.299,-0.255 -1.014,-0.183 -1.209,0.124 -4.413,0.532 -4.854,0.572 -0.184,0.017 -0.263,0.009 -0.293,-0.05 -0.037,-0.064 0.013,-0.14 0.159,-0.322 l 3.17,-3.844 c 0.253,-0.304 0.407,-0.549 0.282,-0.864 -0.022,-0.057 -0.064,-0.152 -0.096,-0.209 -0.03,-0.052 -0.03,-0.086 0.01,-0.106 0.052,-0.028 0.085,0.003 0.131,0.087 0.183,0.336 0.359,0.702 0.398,0.773 0.109,0.201 0.279,0.469 0.394,0.676 0.039,0.069 0.047,0.116 -0.006,0.143 -0.039,0.022 -0.062,0.01 -0.106,-0.067 l -0.05,-0.098 c -0.112,-0.2 -0.227,-0.21 -0.344,-0.148 -0.075,0.042 -0.215,0.16 -0.339,0.313 l -0.734,0.854 c -0.031,0.034 -0.038,0.054 -0.019,0.086 l 0.788,1.442 c 0.018,0.032 0.04,0.046 0.081,0.04 l 1.654,-0.232 c 0.093,-0.01 0.128,-0.088 0.116,-0.14 -0.029,-0.069 -0.03,-0.101 0.007,-0.123 0.047,-0.025 0.089,0.052 0.159,0.165 0.296,0.511 0.553,0.982 0.682,1.215 0.129,0.241 0.148,0.305 0.097,0.334 m -3.188,-1.204 -0.649,-1.19 C -25.667,4.811 -25.689,4.816 -25.711,4.836 L -26.978,6.3 c -0.023,0.022 -0.048,0.052 -0.036,0.072 0.01,0.019 0.049,0.009 0.076,0.002 l 1.913,-0.293 c 0.026,-0.003 0.041,-0.02 0.022,-0.053 m -2.217,-23.189 c 0.203,0.125 0.384,0.221 1.377,0.742 l 1.146,0.606 c 0.598,0.316 1.114,0.589 1.405,0.701 0.202,0.074 0.363,0.116 0.458,0 0.044,-0.052 0.098,-0.124 0.149,-0.221 0.04,-0.079 0.077,-0.094 0.108,-0.076 0.045,0.022 0.042,0.079 -0.006,0.165 -0.066,0.13 -0.17,0.292 -0.248,0.44 -0.091,0.154 -0.165,0.297 -0.202,0.369 -0.104,0.195 -0.205,0.401 -0.341,0.687 -0.138,0.285 -0.316,0.652 -0.574,1.138 -0.132,0.248 -0.162,0.307 -0.356,0.262 -0.145,-0.037 -0.619,-0.218 -0.767,-0.297 -0.066,-0.034 -0.118,-0.062 -0.09,-0.113 0.024,-0.047 0.057,-0.045 0.135,-0.02 0.292,0.093 0.471,0.089 0.639,-0.039 0.166,-0.129 0.31,-0.4 0.399,-0.572 0.352,-0.665 0.31,-0.818 -0.133,-1.07 -0.186,-0.108 -0.787,-0.416 -1.01,-0.532 l -0.515,-0.273 c -0.039,-0.022 -0.067,-0.027 -0.085,0.005 -0.085,0.157 -0.418,0.804 -0.471,0.935 -0.1,0.256 -0.05,0.399 0.063,0.5 0.074,0.064 0.158,0.108 0.22,0.148 0.033,0.017 0.05,0.044 0.028,0.089 -0.031,0.059 -0.103,0.022 -0.154,-0.005 -0.047,-0.025 -0.316,-0.141 -0.451,-0.205 -0.346,-0.148 -0.464,-0.178 -0.503,-0.197 -0.038,-0.023 -0.041,-0.047 -0.028,-0.074 0.017,-0.033 0.063,-0.042 0.14,-0.059 0.095,-0.025 0.167,-0.113 0.263,-0.263 0.091,-0.145 0.487,-0.891 0.564,-1.034 0.019,-0.041 -0.002,-0.06 -0.048,-0.085 l -1.649,-0.87 c -0.046,-0.026 -0.072,-0.023 -0.091,0.012 -0.068,0.129 -0.413,0.821 -0.46,0.938 -0.133,0.346 -0.088,0.453 0.005,0.561 0.061,0.072 0.168,0.139 0.213,0.163 0.059,0.03 0.083,0.059 0.059,0.106 -0.024,0.045 -0.07,0.037 -0.108,0.027 -0.084,-0.029 -0.377,-0.165 -0.446,-0.195 -0.311,-0.138 -0.404,-0.145 -0.451,-0.17 -0.031,-0.017 -0.054,-0.037 -0.036,-0.071 0.017,-0.033 0.056,-0.059 0.081,-0.089 0.039,-0.045 0.109,-0.145 0.187,-0.26 0.072,-0.122 0.756,-1.418 0.867,-1.625 0.046,-0.091 0.12,-0.246 0.202,-0.419 0.088,-0.163 0.181,-0.356 0.273,-0.531 0.052,-0.096 0.089,-0.135 0.134,-0.111 0.047,0.025 0.039,0.069 0,0.143 -0.047,0.089 -0.1,0.203 -0.114,0.262 -0.067,0.239 0.01,0.346 0.222,0.477 m 6.042,0.06 c -0.127,0.156 -0.405,0.526 -0.712,0.902 -0.052,0.063 -0.107,0.098 -0.146,0.063 -0.03,-0.023 -0.023,-0.065 0.029,-0.129 0.07,-0.084 0.162,-0.221 0.216,-0.31 0.116,-0.19 0.047,-0.313 -0.092,-0.456 -0.227,-0.224 -0.675,-0.593 -1.229,-1.048 l -1.003,-0.82 c -0.867,-0.71 -1.025,-0.841 -1.218,-0.979 -0.208,-0.155 -0.341,-0.186 -0.498,-0.055 -0.066,0.057 -0.111,0.099 -0.158,0.156 -0.043,0.056 -0.087,0.081 -0.132,0.044 -0.033,-0.027 -0.005,-0.084 0.055,-0.158 0.175,-0.215 0.47,-0.538 0.586,-0.681 0.137,-0.165 0.413,-0.536 0.592,-0.755 0.074,-0.091 0.122,-0.128 0.157,-0.098 0.045,0.037 0.029,0.081 -0.018,0.135 -0.055,0.069 -0.112,0.15 -0.148,0.226 -0.073,0.149 -0.023,0.285 0.163,0.455 0.172,0.161 0.332,0.292 1.198,1.002 l 1.004,0.824 c 0.55,0.451 1,0.822 1.264,0.989 0.179,0.119 0.303,0.163 0.421,0.069 0.053,-0.042 0.121,-0.101 0.192,-0.187 0.053,-0.067 0.089,-0.077 0.119,-0.054 0.038,0.034 0.024,0.089 -0.037,0.16 -0.187,0.229 -0.499,0.574 -0.605,0.705 m -8.997,5.517 c -0.106,-0.145 -0.186,-0.229 -0.172,-0.311 0.014,-0.071 0.119,-0.071 0.264,-0.044 l 4.292,0.777 c 0.631,0.116 0.846,0.128 0.942,-0.047 0.05,-0.096 0.083,-0.226 0.1,-0.319 0.014,-0.073 0.037,-0.115 0.082,-0.105 0.063,0.012 0.059,0.08 0.039,0.174 -0.073,0.376 -0.163,0.711 -0.174,0.775 -0.03,0.14 -0.064,0.432 -0.156,0.901 -0.019,0.101 -0.046,0.164 -0.104,0.154 -0.044,-0.01 -0.049,-0.058 -0.033,-0.137 0.022,-0.113 0.041,-0.252 0.022,-0.385 -0.022,-0.153 -0.192,-0.285 -0.753,-0.411 l -3.019,-0.674 -0.006,0.02 c 0.112,0.157 0.858,1.137 1.486,2.079 0.594,0.898 1.359,2.011 1.703,2.55 0.064,0.098 0.127,0.199 0.111,0.277 -0.012,0.065 -0.083,0.082 -0.242,0.05 l -4.578,-0.817 c -0.406,-0.074 -0.569,-0.044 -0.668,0.146 -0.037,0.081 -0.049,0.14 -0.064,0.213 -0.017,0.087 -0.048,0.126 -0.088,0.119 -0.06,-0.013 -0.053,-0.087 -0.035,-0.182 0.071,-0.352 0.145,-0.624 0.162,-0.704 0.03,-0.15 0.077,-0.502 0.15,-0.877 0.021,-0.11 0.044,-0.186 0.102,-0.177 0.045,0.008 0.058,0.042 0.043,0.13 -0.022,0.101 -0.055,0.274 -0.033,0.39 0.04,0.187 0.163,0.279 0.602,0.376 l 3.235,0.709 0.005,-0.037 c -0.092,-0.145 -0.94,-1.324 -1.335,-1.914 -0.842,-1.261 -1.805,-2.592 -1.88,-2.699 m -0.954,7.844 c -0.018,-0.243 -0.058,-0.522 -0.1,-0.731 -0.029,-0.182 -0.112,-0.251 -0.116,-0.307 -0.003,-0.045 0.039,-0.071 0.133,-0.103 0.057,-0.02 0.712,-0.217 0.83,-0.227 0.081,-0.007 0.118,0.003 0.123,0.054 0.005,0.045 -0.025,0.07 -0.081,0.089 -0.057,0.02 -0.142,0.064 -0.246,0.15 -0.152,0.123 -0.171,0.302 -0.149,0.729 l 0.067,1.095 3.008,-0.267 c 0.677,-0.059 1.257,-0.111 1.56,-0.172 0.213,-0.042 0.369,-0.101 0.387,-0.251 0.007,-0.066 0.014,-0.155 0.005,-0.267 -0.008,-0.089 0.012,-0.119 0.049,-0.121 0.049,-0.005 0.076,0.044 0.085,0.138 0.026,0.295 0.046,0.76 0.062,0.928 0.017,0.206 0.081,0.666 0.123,1.15 0.006,0.08 -0.01,0.141 -0.062,0.146 -0.038,0.002 -0.061,-0.032 -0.066,-0.113 -0.013,-0.109 -0.041,-0.271 -0.066,-0.372 -0.048,-0.217 -0.213,-0.246 -0.421,-0.249 -0.318,-0.01 -0.897,0.042 -1.575,0.101 l -3.008,0.267 0.105,0.922 c 0.071,0.654 0.295,0.834 0.487,0.832 h 0.081 c 0.11,-0.003 0.149,0.007 0.155,0.067 0.003,0.044 -0.039,0.061 -0.112,0.076 -0.191,0.017 -0.695,0.084 -0.849,0.096 -0.112,0.012 -0.155,0.007 -0.161,-0.045 -0.002,-0.029 0.009,-0.088 0.02,-0.199 0.005,-0.111 0.012,-0.277 -0.008,-0.509 z m 19.127,17.737 c -0.063,-0.027 -0.145,-0.061 -0.253,-0.089 -0.086,-0.019 -0.11,-0.049 -0.103,-0.083 0.012,-0.05 0.069,-0.06 0.163,-0.037 0.142,0.034 0.326,0.091 0.491,0.13 0.17,0.047 0.328,0.084 0.407,0.104 0.214,0.052 0.439,0.096 0.75,0.153 0.311,0.067 0.708,0.145 1.245,0.275 0.272,0.064 0.336,0.079 0.343,0.278 0.003,0.15 -0.056,0.651 -0.093,0.815 -0.017,0.074 -0.032,0.132 -0.089,0.12 -0.05,-0.017 -0.058,-0.046 -0.053,-0.13 0.019,-0.307 -0.032,-0.477 -0.197,-0.606 -0.167,-0.131 -0.468,-0.199 -0.653,-0.245 -0.732,-0.173 -0.874,-0.094 -1.004,0.398 -0.058,0.205 -0.206,0.869 -0.263,1.11 l -0.134,0.568 c -0.01,0.042 -0.01,0.074 0.025,0.081 0.173,0.042 0.885,0.203 1.024,0.22 0.272,0.034 0.399,-0.049 0.469,-0.183 0.044,-0.088 0.065,-0.182 0.088,-0.251 0.01,-0.039 0.031,-0.063 0.08,-0.051 0.064,0.015 0.046,0.095 0.033,0.152 -0.013,0.052 -0.059,0.34 -0.085,0.486 -0.058,0.375 -0.056,0.496 -0.067,0.538 -0.012,0.042 -0.035,0.052 -0.062,0.046 -0.037,-0.009 -0.057,-0.051 -0.094,-0.12 -0.047,-0.087 -0.152,-0.135 -0.32,-0.192 -0.161,-0.051 -0.985,-0.248 -1.143,-0.284 -0.042,-0.011 -0.057,0.017 -0.069,0.066 l -0.431,1.814 c -0.008,0.051 -10e-4,0.076 0.037,0.084 0.143,0.034 0.9,0.198 1.023,0.213 0.368,0.042 0.46,-0.027 0.543,-0.145 0.056,-0.079 0.09,-0.197 0.103,-0.246 0.016,-0.067 0.039,-0.099 0.088,-0.087 0.05,0.013 0.055,0.059 0.052,0.097 -0.005,0.088 -0.064,0.408 -0.075,0.48 -0.056,0.336 -0.041,0.43 -0.053,0.479 -0.008,0.037 -0.023,0.065 -0.058,0.055 -0.038,-0.008 -0.076,-0.04 -0.109,-0.055 -0.053,-0.029 -0.164,-0.069 -0.296,-0.116 -0.135,-0.039 -1.565,-0.376 -1.791,-0.43 -0.101,-0.025 -0.266,-0.057 -0.456,-0.094 -0.179,-0.042 -0.391,-0.085 -0.584,-0.132 -0.107,-0.025 -0.154,-0.052 -0.14,-0.101 0.01,-0.049 0.056,-0.054 0.136,-0.035 0.099,0.023 0.225,0.045 0.284,0.045 0.248,0.005 0.335,-0.096 0.407,-0.336 0.067,-0.225 0.114,-0.425 0.373,-1.517 l 0.3,-1.26 c 0.155,-0.662 0.289,-1.227 0.323,-1.537 0.021,-0.215 0.022,-0.38 -0.112,-0.445 M 8.607,-24.805 c -0.056,-0.049 -0.081,-0.088 -0.044,-0.134 0.027,-0.033 0.082,-0.008 0.156,0.051 0.22,0.174 0.547,0.463 0.69,0.576 0.168,0.136 0.544,0.406 0.763,0.583 0.094,0.073 0.127,0.12 0.101,0.155 -0.037,0.047 -0.081,0.032 -0.138,-0.015 -0.068,-0.054 -0.15,-0.108 -0.226,-0.143 -0.149,-0.072 -0.285,-0.02 -0.453,0.165 -0.158,0.175 -0.286,0.338 -0.985,1.212 l -0.811,1.014 c -0.445,0.56 -0.81,1.013 -0.972,1.279 -0.116,0.181 -0.158,0.307 -0.062,0.423 0.042,0.052 0.102,0.118 0.188,0.185 0.069,0.057 0.079,0.091 0.053,0.121 -0.029,0.04 -0.084,0.024 -0.159,-0.035 -0.229,-0.182 -0.579,-0.491 -0.71,-0.594 -0.157,-0.125 -0.534,-0.397 -0.912,-0.701 -0.067,-0.052 -0.098,-0.104 -0.067,-0.146 0.023,-0.026 0.069,-0.022 0.131,0.03 0.086,0.067 0.223,0.158 0.314,0.21 0.187,0.113 0.312,0.044 0.452,-0.099 0.221,-0.227 0.584,-0.686 1.031,-1.241 l 0.811,-1.015 c 0.697,-0.875 0.825,-1.036 0.961,-1.23 0.148,-0.212 0.179,-0.345 0.048,-0.498 -0.059,-0.067 -0.1,-0.109 -0.16,-0.153 m -3.644,-2.539 c 0.067,0.032 0.072,0.123 0.056,0.354 l -0.373,4.971 c -0.028,0.394 -0.013,0.68 0.271,0.869 0.049,0.034 0.138,0.086 0.198,0.113 0.052,0.027 0.072,0.052 0.054,0.095 -0.026,0.052 -0.071,0.045 -0.159,0.003 -0.343,-0.169 -0.697,-0.368 -0.77,-0.402 -0.206,-0.101 -0.5,-0.22 -0.712,-0.324 -0.072,-0.034 -0.104,-0.069 -0.079,-0.121 0.02,-0.039 0.047,-0.044 0.126,-0.005 l 0.097,0.05 c 0.205,0.101 0.307,0.044 0.367,-0.076 0.037,-0.079 0.082,-0.253 0.099,-0.454 l 0.104,-1.121 c 0.008,-0.044 0,-0.066 -0.032,-0.081 l -1.477,-0.723 c -0.032,-0.017 -0.059,-0.014 -0.088,0.012 l -1.218,1.144 c -0.072,0.064 -0.054,0.145 -0.015,0.184 0.066,0.037 0.086,0.064 0.066,0.106 -0.022,0.044 -0.103,0.005 -0.226,-0.047 -0.534,-0.245 -1.018,-0.484 -1.257,-0.599 -0.245,-0.122 -0.299,-0.163 -0.271,-0.215 0.022,-0.047 0.059,-0.037 0.11,-0.01 0.082,0.037 0.183,0.081 0.291,0.109 0.155,0.034 0.396,0.036 0.935,-0.436 0.919,-0.798 3.299,-2.98 3.635,-3.267 0.143,-0.119 0.209,-0.159 0.268,-0.129 m -0.495,1.437 c -0.023,-0.01 -0.045,0.02 -0.062,0.042 l -1.399,1.344 c -0.017,0.017 -0.02,0.039 0.014,0.056 l 1.216,0.596 c 0.027,0.013 0.044,-0.005 0.05,-0.034 l 0.191,-1.925 c 0.004,-0.029 0.009,-0.069 -0.01,-0.079 m 14.348,19.323 c 0.109,0.002 0.153,0.012 0.153,0.061 0,0.034 -0.018,0.09 -0.042,0.201 -0.019,0.109 -0.044,0.269 -0.049,0.506 l -0.076,2.918 c -0.007,0.241 0.005,0.523 0.019,0.736 0.009,0.185 0.082,0.26 0.079,0.319 0,0.045 -0.044,0.064 -0.142,0.087 -0.059,0.012 -0.731,0.134 -0.849,0.131 -0.083,-0.002 -0.12,-0.017 -0.117,-0.07 0,-0.044 0.031,-0.064 0.09,-0.078 0.061,-0.013 0.15,-0.047 0.261,-0.119 0.165,-0.108 0.205,-0.28 0.232,-0.707 l 0.057,-1.099 -3.02,-0.076 c -0.678,-0.015 -1.259,-0.03 -1.571,-0.003 -0.216,0.017 -0.376,0.057 -0.41,0.204 -0.015,0.066 -0.033,0.155 -0.036,0.263 -10e-4,0.089 -0.023,0.119 -0.061,0.117 -0.051,0 -0.074,-0.052 -0.069,-0.148 0.006,-0.295 0.04,-0.758 0.045,-0.928 0.005,-0.205 -0.005,-0.671 0.007,-1.157 0.003,-0.082 0.025,-0.139 0.077,-0.139 0.037,0.002 0.056,0.04 0.056,0.122 -0.005,0.11 0.007,0.271 0.018,0.375 0.024,0.222 0.185,0.27 0.393,0.297 0.315,0.044 0.898,0.059 1.576,0.076 l 3.017,0.077 0.002,-0.928 c 0.002,-0.657 -0.2,-0.86 -0.39,-0.879 l -0.082,-0.01 c -0.108,-0.01 -0.146,-0.025 -0.143,-0.086 0,-0.044 0.045,-0.059 0.119,-0.063 0.19,0.004 0.7,-0.003 0.856,0 m -2.691,5.443 c 1.614,0.494 2.304,1.895 1.773,3.649 -0.643,2.117 -2.442,2.441 -3.648,2.075 -1.248,-0.377 -2.517,-1.657 -1.902,-3.681 0.544,-1.79 2.161,-2.529 3.777,-2.043 M 14.764,3.675 C 16.52,4.21 17.25,3.423 17.497,2.612 17.849,1.455 17.144,0.25 15.562,-0.233 13.523,-0.849 12.941,0.22 12.791,0.712 12.38,2.068 13.297,3.231 14.764,3.675 M 18.5,-8.937 c 0.021,0.102 0.061,0.266 0.105,0.453 0.035,0.181 0.082,0.388 0.121,0.583 0.02,0.109 0.015,0.163 -0.034,0.171 -0.052,0.013 -0.074,-0.03 -0.089,-0.109 -0.02,-0.101 -0.052,-0.222 -0.078,-0.276 -0.1,-0.23 -0.224,-0.264 -0.471,-0.23 -0.236,0.03 -0.438,0.069 -1.537,0.284 l -1.273,0.247 c -0.666,0.132 -1.236,0.243 -1.535,0.339 -0.202,0.07 -0.355,0.137 -0.355,0.288 -0.003,0.066 0,0.157 0.022,0.266 0.018,0.084 0,0.118 -0.034,0.126 -0.053,0.009 -0.084,-0.038 -0.101,-0.131 -0.028,-0.146 -0.053,-0.336 -0.082,-0.501 -0.027,-0.177 -0.06,-0.336 -0.074,-0.414 -0.042,-0.218 -0.095,-0.44 -0.168,-0.749 -0.07,-0.31 -0.162,-0.702 -0.269,-1.247 -0.054,-0.274 -0.066,-0.338 0.113,-0.425 0.138,-0.064 0.618,-0.22 0.783,-0.253 0.074,-0.014 0.131,-0.024 0.143,0.033 0.01,0.051 -0.018,0.071 -0.094,0.101 -0.286,0.11 -0.419,0.225 -0.471,0.43 -0.049,0.205 0.01,0.51 0.047,0.696 0.142,0.739 0.274,0.834 0.776,0.751 0.21,-0.035 0.876,-0.173 1.121,-0.221 l 0.57,-0.11 c 0.046,-0.011 0.073,-0.023 0.066,-0.06 -0.035,-0.172 -0.183,-0.888 -0.223,-1.022 -0.083,-0.261 -0.208,-0.34 -0.361,-0.347 -0.096,-0.005 -0.194,0.014 -0.265,0.022 -0.037,0.005 -0.069,-0.003 -0.079,-0.052 -0.012,-0.066 0.067,-0.082 0.126,-0.095 0.05,-0.009 0.334,-0.089 0.477,-0.121 0.364,-0.101 0.475,-0.154 0.517,-0.164 0.046,-0.007 0.063,0.013 0.07,0.04 0.005,0.038 -0.024,0.072 -0.075,0.134 -0.059,0.079 -0.059,0.194 -0.039,0.369 0.017,0.171 0.18,1.002 0.213,1.16 0.007,0.044 0.037,0.044 0.088,0.034 l 1.829,-0.355 c 0.052,-0.01 0.069,-0.03 0.064,-0.067 -0.029,-0.144 -0.192,-0.9 -0.231,-1.02 -0.113,-0.354 -0.214,-0.411 -0.356,-0.433 -0.094,-0.02 -0.217,-0.002 -0.267,0.005 -0.064,0.015 -0.103,0.008 -0.113,-0.044 -0.01,-0.05 0.029,-0.074 0.063,-0.087 0.085,-0.032 0.401,-0.108 0.471,-0.13 0.329,-0.087 0.409,-0.139 0.46,-0.148 0.035,-0.008 0.067,-0.005 0.072,0.029 0.007,0.037 -0.005,0.084 -0.005,0.121 -0.004,0.062 0.005,0.18 0.017,0.318 0.02,0.142 0.299,1.579 0.345,1.811 m -4.547,-6.034 c 1.434,0.488 3.01,0.962 3.134,0.999 0.173,0.052 0.288,0.069 0.326,0.143 0.032,0.064 -0.052,0.131 -0.182,0.195 l -3.882,1.993 c -0.571,0.292 -0.751,0.415 -0.715,0.612 0.017,0.106 0.069,0.227 0.113,0.313 0.034,0.067 0.039,0.112 -0.002,0.133 -0.059,0.029 -0.094,-0.028 -0.139,-0.113 -0.167,-0.343 -0.3,-0.662 -0.33,-0.724 -0.062,-0.123 -0.212,-0.379 -0.425,-0.808 -0.047,-0.092 -0.063,-0.159 -0.01,-0.184 0.039,-0.02 0.074,0.013 0.108,0.084 0.052,0.107 0.122,0.231 0.218,0.322 0.111,0.109 0.324,0.109 0.846,-0.131 l 2.81,-1.301 -0.01,-0.02 c -0.188,-0.058 -1.373,-0.381 -2.441,-0.746 -1.022,-0.353 -2.306,-0.767 -2.907,-0.988 -0.109,-0.037 -0.219,-0.081 -0.257,-0.153 -0.029,-0.059 0.018,-0.117 0.164,-0.189 l 4.129,-2.134 c 0.367,-0.19 0.479,-0.311 0.441,-0.521 -0.02,-0.089 -0.047,-0.145 -0.079,-0.209 -0.04,-0.079 -0.04,-0.128 0.002,-0.148 0.052,-0.027 0.093,0.037 0.134,0.123 0.159,0.322 0.265,0.585 0.299,0.656 0.069,0.139 0.247,0.448 0.416,0.79 0.049,0.099 0.079,0.175 0.025,0.2 -0.037,0.02 -0.072,0.005 -0.114,-0.077 -0.043,-0.091 -0.123,-0.249 -0.211,-0.329 -0.143,-0.126 -0.296,-0.124 -0.704,0.069 l -2.999,1.403 0.018,0.032 c 0.161,0.061 1.554,0.482 2.224,0.708 m -3.37,-7.364 -0.066,0.044 c -0.087,0.069 -0.126,0.081 -0.163,0.037 -0.029,-0.035 -0.005,-0.074 0.044,-0.126 0.146,-0.128 0.515,-0.476 0.631,-0.578 0.085,-0.075 0.122,-0.097 0.157,-0.057 0.017,0.022 0.046,0.076 0.101,0.174 0.062,0.093 0.153,0.229 0.306,0.407 l 1.914,2.202 c 0.16,0.182 0.357,0.386 0.514,0.531 0.132,0.129 0.235,0.136 0.273,0.18 0.029,0.035 0.01,0.079 -0.047,0.158 -0.034,0.05 -0.448,0.597 -0.538,0.674 -0.061,0.054 -0.098,0.066 -0.133,0.027 -0.031,-0.032 -0.019,-0.069 0.015,-0.119 0.034,-0.049 0.076,-0.135 0.111,-0.262 0.05,-0.19 -0.039,-0.35 -0.307,-0.68 l -0.7,-0.849 -2.277,1.984 c -0.512,0.445 -0.949,0.826 -1.159,1.058 -0.147,0.155 -0.241,0.298 -0.167,0.429 0.033,0.06 0.08,0.134 0.152,0.218 0.059,0.066 0.062,0.103 0.034,0.128 -0.039,0.032 -0.092,0.007 -0.153,-0.064 -0.193,-0.222 -0.48,-0.587 -0.593,-0.713 -0.134,-0.155 -0.456,-0.491 -0.774,-0.861 -0.056,-0.06 -0.078,-0.119 -0.039,-0.153 0.028,-0.025 0.07,-0.01 0.12,0.049 0.075,0.084 0.192,0.199 0.271,0.266 0.169,0.148 0.32,0.073 0.49,-0.045 0.262,-0.182 0.701,-0.561 1.212,-1.007 l 2.28,-1.985 -0.628,-0.684 c -0.44,-0.485 -0.725,-0.5 -0.881,-0.383 M 13.901,9.268 C 13.709,9.13 13.534,9.021 12.587,8.424 L 11.489,7.734 C 10.916,7.373 10.423,7.065 10.142,6.93 9.946,6.839 9.787,6.785 9.683,6.893 9.636,6.942 9.577,7.01 9.518,7.104 9.471,7.178 9.437,7.19 9.404,7.173 9.362,7.144 9.37,7.089 9.422,7.01 9.58,6.758 9.844,6.376 9.934,6.233 c 0.101,-0.16 0.332,-0.567 0.59,-0.979 0.042,-0.067 0.092,-0.106 0.136,-0.077 0.032,0.018 0.03,0.062 -0.012,0.129 -0.06,0.093 -0.133,0.239 -0.177,0.335 -0.092,0.204 0.021,0.327 0.184,0.454 0.251,0.2 0.743,0.511 1.316,0.872 l 2.493,1.568 c 0.071,0.042 0.119,0.047 0.15,0.025 0.055,-0.044 0.12,-0.133 0.18,-0.227 C 14.885,8.19 15.01,7.91 14.942,7.556 14.851,7.013 14.445,6.73 14.239,6.599 13.604,6.199 12.904,6.438 12.683,6.787 12.602,6.92 12.555,6.953 12.505,6.92 12.461,6.891 12.483,6.846 12.496,6.81 12.51,6.775 12.551,6.705 12.572,6.672 13.13,5.791 14.164,5.533 15.046,6.09 c 0.331,0.207 0.501,0.558 0.546,0.779 0.032,0.159 0.117,0.603 -0.373,1.382 -0.181,0.289 -0.427,0.638 -0.589,0.894 -0.109,0.175 -0.336,0.578 -0.543,0.91 -0.061,0.093 -0.1,0.128 -0.145,0.101 -0.041,-0.027 -0.031,-0.072 0.013,-0.141 C 14.01,9.929 14.07,9.817 14.088,9.76 14.173,9.527 14.104,9.414 13.901,9.268 m 8.602,-4.44 0.372,0.141 -0.543,1.437 1.252,0.458 0.512,-1.361 0.374,0.141 -0.515,1.366 1.219,0.447 0.528,-1.401 0.371,0.138 -0.691,1.843 -3.59,-1.318 z m -2.142,4.893 2.736,1.35 0.005,-0.009 -1.851,-3.283 0.325,-0.3 3.361,1.656 -0.214,0.427 -2.712,-1.338 -0.005,0.01 1.821,3.284 -0.334,0.278 -3.347,-1.648 z m -1.494,2.276 c 0.416,-0.622 1.094,-1.108 2.123,-0.441 l 1.987,1.314 -0.263,0.392 -1.966,-1.295 c -0.72,-0.484 -1.225,-0.236 -1.532,0.222 -0.378,0.566 -0.32,1.043 0.262,1.435 0.294,0.198 0.602,0.396 0.9,0.59 l 1.178,0.775 -0.264,0.395 -1.106,-0.729 C 19.855,14.44 19.567,14.254 19.309,14.083 18.341,13.432 18.407,12.681 18.867,11.997 M 2.563,24.133 3.666,27.793 3.208,27.928 2.104,24.267 Z m 5.963,0.94 0.009,-0.005 0.389,-3.747 0.438,-0.059 1.786,3.295 -0.425,0.224 L 9.289,22.122 9.278,22.126 8.862,25.856 8.43,25.894 6.651,22.615 7.077,22.389 Z M 26.418,1.155 C 25.095,0.96 25.735,-0.65 24.774,-0.792 c -0.42,-0.062 -0.735,0.206 -0.801,0.648 -0.042,0.3 0.044,0.622 0.162,0.844 l -0.37,0.157 c -0.148,-0.35 -0.208,-0.667 -0.148,-1.083 0.124,-0.831 0.705,-1.147 1.268,-1.063 1.188,0.175 0.744,1.846 1.575,1.969 0.461,0.067 0.717,-0.274 0.766,-0.603 0.051,-0.354 -0.046,-0.598 -0.162,-0.844 l 0.371,-0.129 c 0.137,0.333 0.204,0.678 0.149,1.049 -0.098,0.67 -0.58,1.087 -1.166,1.002 m -3.605,2.681 2.96,0.742 0.002,-0.013 -2.505,-2.815 0.255,-0.359 3.635,0.905 -0.122,0.464 -2.93,-0.734 -0.002,0.01 2.472,2.824 -0.266,0.342 -3.62,-0.9 z m 1.145,-6.457 3.816,0.257 -0.037,0.474 -3.814,-0.26 z m -36.107,28.423 c 0.091,-0.414 -0.155,-0.746 -0.591,-0.841 -0.298,-0.064 -0.624,0 -0.855,0.102 l -0.132,-0.378 c 0.36,-0.126 0.68,-0.163 1.09,-0.074 0.822,0.178 1.098,0.782 0.977,1.337 -0.256,1.173 -1.894,0.616 -2.072,1.438 -0.099,0.452 0.225,0.734 0.549,0.804 0.351,0.077 0.6,-0.004 0.851,-0.102 l 0.106,0.379 c -0.341,0.111 -0.69,0.153 -1.057,0.074 -0.664,-0.144 -1.046,-0.651 -0.919,-1.229 0.285,-1.306 1.844,-0.56 2.053,-1.51 m 11.464,-0.883 0.414,1.902 0.396,1.836 -0.463,0.096 -0.812,-3.738 z m -6.222,0.466 -0.005,1.637 0.303,0.005 c 0.362,0.005 0.485,-0.215 0.721,-0.514 l 0.922,-1.212 0.415,0.26 -0.784,1.003 c -0.163,0.193 -0.384,0.542 -0.641,0.582 v 0.012 c 0.536,0.08 0.955,0.453 0.945,1.077 -0.01,0.634 -0.507,0.999 -1.232,0.987 l -1.154,-0.02 0.029,-3.824 z m 0.539,3.502 c 0.619,0.01 0.858,-0.346 0.865,-0.755 0.007,-0.553 -0.475,-0.731 -0.945,-0.738 l -0.475,-0.008 -0.012,1.49 z m -4.103,-2.508 1.571,0.176 0.667,-1.28 0.454,0.206 -1.93,3.552 -0.452,-0.052 -1.168,-3.918 0.456,-0.09 z m 0.563,2.196 0.012,0.003 0.792,-1.646 -1.247,-0.14 z m 26.287,-13.236 1.259,1.045 0.196,-0.233 c 0.235,-0.271 0.146,-0.509 0.062,-0.883 l -0.349,-1.48 0.465,-0.157 0.277,1.247 c 0.044,0.244 0.172,0.64 0.042,0.861 l 0.009,0.008 c 0.401,-0.363 0.955,-0.45 1.431,-0.045 0.484,0.409 0.447,1.027 -0.023,1.576 l -0.747,0.881 -2.933,-2.452 z m 2.677,2.243 0.367,-0.434 c 0.402,-0.471 0.28,-0.881 -0.032,-1.145 -0.419,-0.359 -0.868,-0.099 -1.173,0.259 l -0.304,0.363 z m -35.709,7.283 1.501,0.493 0.914,-1.119 0.405,0.295 -2.613,3.087 -0.43,-0.141 -0.352,-4.076 0.464,0.008 z m 0.106,2.268 0.008,0.003 1.111,-1.449 -1.191,-0.391 z m 13.119,-1.853 0.473,-0.047 0.194,1.625 1.638,1.871 -0.386,0.284 -1.425,-1.77 -0.984,2.008 -0.455,-0.196 1.139,-2.15 z m 13.359,-4.557 1.23,0.789 1.297,-0.903 -0.342,-1.404 0.476,-0.145 0.893,3.944 -0.37,0.258 -3.467,-2.174 z m 3.105,2.069 0.007,-0.007 -0.492,-1.759 -1.029,0.718 z m 3.35,-5.878 c 0.337,0.35 0.386,0.801 0.096,1.201 l 0.008,0.007 c 0.409,-0.214 0.777,-0.163 1.104,0.177 0.295,0.307 0.434,0.867 -0.172,1.449 l -0.763,0.735 -2.673,-2.736 0.773,-0.742 c 0.542,-0.522 1.158,-0.584 1.627,-0.091 m 0.389,2.997 0.275,-0.264 c 0.442,-0.427 0.452,-0.757 0.157,-1.064 -0.272,-0.282 -0.643,-0.294 -1.093,0.139 l -0.257,0.246 z m -1.173,-1.204 0.325,-0.312 c 0.396,-0.381 0.469,-0.786 0.148,-1.122 -0.368,-0.382 -0.737,-0.32 -1.088,0.016 l -0.402,0.389 z M 3.451,23.801 4.458,24.857 5.931,24.289 V 22.844 L 6.429,22.817 6.36,26.861 5.936,27.025 3.086,24.089 Z m 2.519,2.746 0.012,-0.002 -0.06,-1.826 -1.168,0.45 z m -4.391,-1.852 -1.269,2.018 1.941,1.284 -0.265,0.354 -2.257,-1.53 1.433,-2.363 z m 1.152,-58.257 0.762,-2.926 -0.011,-0.003 -2.847,2.449 -0.338,-0.269 0.932,-3.612 0.466,0.124 -0.77,2.95 0.01,0.005 2.839,-2.474 0.362,0.254 -0.94,3.629 z m 6.439,2.357 -0.184,0.353 -2.572,-1.327 0.183,-0.354 1.074,0.556 1.546,-3.059 0.419,0.217 -1.543,3.06 z m -11.975,-3.501 -1.022,-3.303 -1.369,3.14 -0.491,-0.034 -0.437,-3.861 0.464,-0.047 0.303,3.3 0.009,0.002 1.327,-3.112 0.451,0.03 0.968,3.269 h 0.013 l 0.703,-3.231 0.459,0.109 -0.863,3.774 z m 7.756,1.943 -0.081,-4.091 0.463,0.037 0.013,1.46 1.466,0.59 0.986,-1.059 0.384,0.322 -2.809,2.909 z m 0.401,-2.165 -0.049,1.841 0.009,0.002 1.202,-1.373 z m -12.809,-2.274 c -0.063,-0.866 -0.569,-1.112 -1.119,-1.071 -0.677,0.049 -1.019,0.39 -0.969,1.09 0.027,0.351 0.058,0.715 0.088,1.074 l 0.115,1.403 -0.475,0.036 -0.106,-1.324 c -0.035,-0.39 -0.064,-0.732 -0.086,-1.041 -0.084,-1.162 0.55,-1.573 1.371,-1.633 0.745,-0.054 1.547,0.182 1.654,1.404 l 0.188,2.373 -0.475,0.035 z m -13.765,6.492 c -0.586,0.344 -1.212,0.233 -1.511,-0.278 -0.678,-1.152 0.977,-1.664 0.482,-2.503 -0.214,-0.368 -0.618,-0.443 -1.005,-0.217 -0.261,0.156 -0.457,0.423 -0.558,0.655 l -0.354,-0.187 c 0.18,-0.337 0.389,-0.582 0.75,-0.795 0.726,-0.425 1.337,-0.17 1.626,0.32 0.607,1.034 -0.971,1.738 -0.545,2.463 0.234,0.398 0.662,0.385 0.95,0.217 0.308,-0.182 0.436,-0.412 0.556,-0.654 l 0.333,0.208 c -0.174,0.313 -0.402,0.58 -0.724,0.771 m 3.846,-1.971 -1.071,0.43 -1.459,-3.535 0.447,-0.18 0.63,1.508 0.281,-0.111 c 0.333,-0.137 0.364,-0.386 0.466,-0.753 l 0.378,-1.476 0.483,0.079 -0.331,1.23 c -0.078,0.24 -0.146,0.648 -0.363,0.783 l 0.002,0.012 c 0.525,-0.135 1.057,0.047 1.288,0.625 0.238,0.59 -0.08,1.115 -0.751,1.388 m 0.276,-1.297 c -0.207,-0.514 -0.721,-0.49 -1.157,-0.315 l -0.441,0.177 0.567,1.38 0.528,-0.213 c 0.575,-0.23 0.655,-0.65 0.503,-1.029 m 5.314,-0.348 -1.134,0.215 -0.746,-3.752 0.473,-0.087 0.327,1.601 0.299,-0.055 c 0.351,-0.067 0.43,-0.307 0.601,-0.648 l 0.658,-1.373 0.46,0.172 -0.568,1.14 c -0.12,0.221 -0.266,0.608 -0.508,0.699 l 0.003,0.01 c 0.539,-0.03 1.025,0.25 1.142,0.863 0.118,0.625 -0.296,1.081 -1.007,1.215 m 0.522,-1.217 c -0.102,-0.544 -0.613,-0.621 -1.074,-0.534 l -0.466,0.089 0.288,1.464 0.56,-0.106 c 0.607,-0.118 0.769,-0.512 0.692,-0.913 m -3.836,1.627 1.438,-0.419 0.111,0.379 -1.888,0.556 -1.105,-3.662 1.94,-0.57 0.112,0.385 -1.474,0.43 0.383,1.276 1.397,-0.408 0.11,0.381 -1.4,0.411 z m 29.941,4.727 -0.008,0.007 c 0.364,0.401 0.453,0.955 0.049,1.432 -0.41,0.485 -1.026,0.448 -1.577,-0.017 l -0.881,-0.746 2.444,-2.941 0.366,0.311 -1.04,1.262 0.233,0.194 c 0.276,0.234 0.51,0.145 0.884,0.061 l 1.479,-0.355 0.156,0.466 -1.242,0.282 c -0.248,0.044 -0.64,0.172 -0.863,0.044 m -0.525,-0.109 -0.361,-0.308 -0.955,1.145 0.436,0.367 c 0.472,0.402 0.88,0.278 1.142,-0.034 0.359,-0.422 0.096,-0.869 -0.262,-1.17 m 8.837,10.325 -2.079,1.155 -0.23,-0.416 2.058,-1.143 c 0.762,-0.417 0.777,-0.98 0.512,-1.463 -0.327,-0.597 -0.78,-0.768 -1.395,-0.43 -0.309,0.169 -0.627,0.351 -0.94,0.528 l -1.231,0.685 -0.229,-0.419 1.161,-0.645 c 0.341,-0.193 0.636,-0.361 0.909,-0.509 1.025,-0.562 1.662,-0.153 2.057,0.568 0.358,0.656 0.476,1.484 -0.593,2.089 m -11.312,-10.004 -0.396,-0.264 1.29,-1.969 c 0.483,-0.72 0.233,-1.224 -0.227,-1.531 -0.566,-0.378 -1.044,-0.317 -1.432,0.268 -0.198,0.294 -0.394,0.599 -0.589,0.902 l -0.773,1.18 -0.394,-0.265 0.727,-1.11 c 0.212,-0.329 0.396,-0.618 0.569,-0.876 0.646,-0.969 1.4,-0.905 2.084,-0.448 0.622,0.414 1.114,1.091 0.446,2.122 z m 14.555,18.603 c 0.089,0.522 -0.257,1.015 -0.778,1.104 -0.525,0.091 -1.016,-0.258 -1.106,-0.779 -0.089,-0.525 0.258,-1.014 0.779,-1.106 0.523,-0.089 1.017,0.257 1.105,0.781 m 0.512,6.934 c -1.334,-0.022 -0.91,-1.703 -1.885,-1.717 -0.425,-0.008 -0.699,0.298 -0.708,0.745 -0.004,0.303 0.122,0.61 0.269,0.819 l -0.346,0.205 c -0.194,-0.332 -0.293,-0.637 -0.285,-1.056 0.012,-0.839 0.549,-1.23 1.117,-1.22 1.201,0.019 0.979,1.733 1.817,1.747 0.467,0.008 0.676,-0.364 0.683,-0.696 0.007,-0.359 -0.125,-0.589 -0.268,-0.816 l 0.35,-0.176 c 0.177,0.31 0.287,0.645 0.283,1.019 -0.014,0.68 -0.435,1.156 -1.027,1.146 m -4.363,-10.675 2.592,-2.295 -3.427,0.046 -0.174,-0.46 3.339,-1.988 0.232,0.401 -2.881,1.636 0.005,0.01 3.382,-0.076 0.158,0.424 -2.578,2.23 0.005,0.01 3.233,-0.688 0.092,0.462 -3.796,0.766 z m -3.696,-7.493 3.162,-2.149 0.262,0.395 -3.163,2.15 z m -42.907,-7.322 -3.518,-2.088 0.275,-0.372 1.247,0.756 1.276,-0.932 -0.38,-1.398 0.474,-0.155 0.992,3.92 z m -0.614,-2.223 -1.012,0.745 1.538,1.009 0.009,-0.005 z m 40.296,5.563 1.631,-3.752 0.406,0.224 -0.596,1.334 1.085,1.148 1.335,-0.552 0.218,0.454 -3.766,1.472 z m 0.464,-0.14 1.664,-0.748 -0.864,-0.91 -0.807,1.65 z m 4.095,0.153 -2.691,2.119 -0.292,-0.375 3.005,-2.366 1.287,1.668 -0.312,0.244 z m -44.126,46.354 c 0.25,-0.344 0.159,-0.748 -0.2,-1.012 -0.248,-0.177 -0.571,-0.249 -0.824,-0.249 l 0.032,-0.402 c 0.382,0.032 0.688,0.126 1.027,0.374 0.68,0.497 0.687,1.16 0.352,1.619 -0.709,0.968 -1.982,-0.202 -2.476,0.476 -0.275,0.373 -0.092,0.762 0.174,0.958 0.29,0.212 0.553,0.239 0.824,0.251 l -0.059,0.389 c -0.358,-0.037 -0.693,-0.139 -0.997,-0.361 -0.549,-0.398 -0.693,-1.019 -0.344,-1.497 0.789,-1.078 1.916,0.239 2.491,-0.546 m -8.932,-11.628 -1.421,0.812 0.146,0.267 c 0.173,0.313 0.426,0.313 0.805,0.368 l 1.51,0.196 -0.02,0.492 -1.261,-0.183 c -0.248,-0.047 -0.661,-0.064 -0.824,-0.264 l -0.009,0.005 c 0.197,0.503 0.082,1.051 -0.464,1.354 -0.556,0.307 -1.12,0.054 -1.467,-0.578 l -0.559,-1.012 3.332,-1.877 z m -1.744,0.982 -1.299,0.733 0.273,0.496 c 0.3,0.543 0.727,0.572 1.087,0.374 0.482,-0.268 0.398,-0.776 0.169,-1.188 z m -0.853,-8.024 -3.722,0.869 -0.104,-0.466 3.722,-0.868 z m 1.51,10.955 c 1.103,-0.757 1.729,0.859 2.53,0.306 0.351,-0.239 0.399,-0.647 0.147,-1.019 -0.172,-0.249 -0.454,-0.424 -0.693,-0.508 l 0.164,-0.367 c 0.347,0.156 0.607,0.347 0.844,0.693 0.476,0.693 0.263,1.321 -0.207,1.645 -0.987,0.677 -1.8,-0.851 -2.491,-0.375 -0.386,0.263 -0.341,0.688 -0.155,0.962 0.206,0.296 0.442,0.408 0.694,0.511 l -0.183,0.345 c -0.327,-0.15 -0.609,-0.357 -0.823,-0.67 -0.386,-0.558 -0.316,-1.189 0.173,-1.523 m -4.98,-9.328 3.993,0.315 0.132,0.423 -3.112,2.669 -0.258,-0.381 2.767,-2.32 -3.563,-0.205 z m 5.578,4.458 -0.366,0.158 -0.608,-1.413 -1.218,0.537 0.575,1.336 -0.365,0.159 -0.577,-1.342 -1.188,0.526 0.593,1.374 -0.368,0.159 -0.778,-1.809 3.499,-1.543 z m 8.068,-36.708 0.265,0.299 -2.164,1.924 -0.265,-0.298 0.903,-0.805 -2.302,-2.538 0.355,-0.314 2.302,2.538 z m -1.906,45.237 -0.486,1.377 1.175,1.055 1.288,-0.657 0.248,0.436 -3.633,1.768 -0.337,-0.302 1.324,-3.871 z m -1.304,3.492 0.007,0.008 1.6,-0.879 -0.933,-0.839 z m -2.446,-2.38 2.495,-2.349 0.325,0.351 -2.497,2.347 0.821,0.888 -0.293,0.27 -1.964,-2.128 0.291,-0.269 z m 1.358,-3.683 -2.977,2.404 -0.293,-0.373 2.975,-2.401 z m 8.576,7.29 -0.966,3.168 0.009,0.005 2.403,-2.379 0.405,0.198 -0.335,3.39 0.009,0.005 1.875,-2.723 0.383,0.275 -2.228,3.166 -0.46,-0.225 0.302,-3.448 -2.459,2.391 -0.441,-0.217 1.056,-3.74 z M -34.69,-22.464 c -0.454,0.757 -0.178,1.668 0.58,2.122 0.757,0.459 1.691,0.28 2.148,-0.479 0.193,-0.322 0.292,-0.624 0.263,-0.994 l 0.426,0.022 c -0.025,0.424 -0.112,0.786 -0.351,1.177 -0.583,0.972 -1.745,1.315 -2.749,0.713 -1.071,-0.646 -1.242,-1.794 -0.657,-2.765 0.208,-0.345 0.562,-0.625 0.911,-0.817 l 0.194,0.333 c -0.305,0.171 -0.59,0.402 -0.765,0.688 m 5.743,-1.971 -0.291,0.373 -1.868,-1.432 c -0.685,-0.531 -1.207,-0.321 -1.546,0.114 -0.417,0.537 -0.394,1.016 0.161,1.447 0.281,0.218 0.57,0.438 0.858,0.655 l 1.118,0.856 -0.292,0.376 -1.053,-0.805 c -0.313,-0.238 -0.587,-0.444 -0.831,-0.634 -0.92,-0.718 -0.8,-1.465 -0.294,-2.112 0.456,-0.59 1.171,-1.029 2.148,-0.29 z m 0.866,-0.911 -0.328,0.342 -2.778,-2.628 1.461,-1.518 0.287,0.278 -1.13,1.175 z m -11.916,24.054 0.119,-0.417 3.692,-0.527 0.064,0.48 -3.021,0.423 10e-4,0.012 3.378,1.668 -0.098,0.432 -3.712,0.528 -0.063,-0.479 2.995,-0.419 -0.003,-0.013 z m 6.38,-15.732 -4.088,-0.1 0.057,-0.46 1.457,0.052 0.655,-1.439 -1.014,-1.032 0.339,-0.369 2.783,2.934 z m -1.624,-1.638 -0.518,1.142 1.834,0.128 0.005,-0.009 z m -0.982,2.409 0.376,0.129 -0.496,1.446 1.231,0.411 0.511,-1.484 0.376,0.131 -0.665,1.932 -3.628,-1.209 0.157,-0.456 1.643,0.542 z m 0.052,11.742 c 0.012,0.746 -0.27,1.534 -1.496,1.572 l -2.38,0.055 -0.008,-0.475 2.353,-0.054 c 0.867,-0.015 1.142,-0.506 1.132,-1.056 -0.01,-0.681 -0.332,-1.041 -1.034,-1.029 -0.353,0.005 -0.718,0.018 -1.077,0.027 l -1.408,0.035 -0.008,-0.476 1.326,-0.032 c 0.393,-0.013 0.736,-0.022 1.044,-0.027 1.167,-0.02 1.542,0.638 1.556,1.46 m -1.339,-6.644 c 0.523,0.092 0.868,0.581 0.78,1.106 -0.09,0.521 -0.581,0.87 -1.105,0.779 -0.521,-0.089 -0.869,-0.582 -0.78,-1.104 0.091,-0.524 0.583,-0.87 1.105,-0.781" />
          </g>
        </g>
      </g>
    </g>
  </g>
</svg>
