<?xml version="1.0" encoding="UTF-8" standalone="no"?>
<!-- Created with Inkscape (http://www.inkscape.org/) -->

<svg
   xmlns:dc="http://purl.org/dc/elements/1.1/"
   xmlns:cc="http://creativecommons.org/ns#"
   xmlns:rdf="http://www.w3.org/1999/02/22-rdf-syntax-ns#"
   xmlns:svg="http://www.w3.org/2000/svg"
   xmlns="http://www.w3.org/2000/svg"
   xmlns:sodipodi="http://sodipodi.sourceforge.net/DTD/sodipodi-0.dtd"
   xmlns:inkscape="http://www.inkscape.org/namespaces/inkscape"
   version="1.1"
   id="svg2"
   xml:space="preserve"
   width="1152"
   height="1152"
   viewBox="0 0 1152 1152"
   sodipodi:docname="android-circle.svg"
   inkscape:version="0.92.2 (5c3e80d, 2017-08-06)"><metadata
     id="metadata8"><rdf:RDF><cc:Work
         rdf:about=""><dc:format>image/svg+xml</dc:format><dc:type
           rdf:resource="http://purl.org/dc/dcmitype/StillImage" /><dc:title></dc:title></cc:Work></rdf:RDF></metadata><defs
     id="defs6" /><sodipodi:namedview
     pagecolor="#ffffff"
     bordercolor="#666666"
     borderopacity="1"
     objecttolerance="10"
     gridtolerance="10"
     guidetolerance="10"
     inkscape:pageopacity="0"
     inkscape:pageshadow="2"
     inkscape:window-width="1920"
     inkscape:window-height="1016"
     id="namedview4"
     showgrid="false"
     inkscape:zoom="0.20486111"
     inkscape:cx="19.525424"
     inkscape:cy="576"
     inkscape:window-x="0"
     inkscape:window-y="27"
     inkscape:window-maximized="1"
     inkscape:current-layer="g10" /><g
     id="g10"
     inkscape:groupmode="layer"
     inkscape:label="ink_ext_XXXXXX"
     transform="matrix(1.3333333,0,0,-1.3333333,0,1152)"><g
       id="g12"
       transform="scale(0.1)"><path
         d="M 8640,4321.28 C 8640,1934.45 6706.89,0 4320,0 1934.45,0 0,1934.45 0,4321.28 0,6706.89 1934.45,8640 4320,8640 6706.89,8640 8640,6706.89 8640,4321.28"
         style="fill:#398936;fill-opacity:1;fill-rule:nonzero;stroke:none"
         id="path14"
         inkscape:connector-curvature="0" /><path
         d="m 2069.49,5154.11 c -158.67,0 -287.2,-127.25 -287.2,-285.92 V 3480.65 c 0,-157.39 128.53,-287.18 287.2,-287.18 158.73,0 286.58,129.79 286.58,287.18 v 1387.54 c 0,158.67 -127.85,285.92 -286.58,285.92"
         style="fill:#ffffff;fill-opacity:1;fill-rule:nonzero;stroke:none"
         id="path16"
         inkscape:connector-curvature="0" /><path
         d="m 6571.12,5154.11 c -157.99,0 -286.52,-127.25 -286.52,-285.92 V 3480.65 c 0,-157.39 128.53,-287.18 286.52,-287.18 158.73,0 287.92,129.79 287.92,287.18 v 1387.54 c 0,158.67 -129.19,285.92 -287.92,285.92"
         style="fill:#ffffff;fill-opacity:1;fill-rule:nonzero;stroke:none"
         id="path18"
         inkscape:connector-curvature="0" /><path
         d="m 2613.78,5154.11 c 0,-3.96 0,-6.59 0,-10.48 v -2560 c 0,-237.43 192.78,-430.21 430.15,-430.21 h 460.36 v -729.15 c 0,-157.4 128.52,-287.19 287.19,-287.19 158.68,0 287.19,129.79 287.19,287.19 v 729.15 h 489.85 v -729.15 c 0,-157.4 128.51,-287.19 286.58,-287.19 158.67,0 287.19,129.79 287.19,287.19 v 729.15 h 460.36 c 238.04,0 430.82,192.78 430.82,430.21 v 2560 c 0,3.89 -0.68,6.52 -1.34,10.48 H 2613.78"
         style="fill:#ffffff;fill-opacity:1;fill-rule:nonzero;stroke:none"
         id="path20"
         inkscape:connector-curvature="0" /><path
         d="m 5169.81,6083.9 c -89.17,0 -160.61,73.46 -160.61,161.35 0,89.17 71.44,162.64 160.61,162.64 89.85,0 161.36,-73.47 161.36,-162.64 0,-87.89 -71.51,-161.35 -161.36,-161.35 z m -1721.25,0 c -88.57,0 -162.03,73.46 -162.03,161.35 0,89.17 73.46,162.64 162.03,162.64 89.17,0 161.96,-73.47 161.96,-162.64 0,-87.89 -72.79,-161.35 -161.96,-161.35 z m 1709.51,813.15 306.86,571.76 -62.99,34.11 -307.53,-571.76 c -231.45,117.98 -493.74,184.93 -771.79,184.93 -263.63,0 -512.81,-60.37 -735.07,-167.87 l -298.33,554.7 -63.66,-34.11 297.06,-552.08 C 2992.16,6630.82 2630.17,6073.42 2625.6,5429.48 h 3395.38 c -3.89,629.5 -351.45,1177.7 -862.91,1467.57"
         style="fill:#ffffff;fill-opacity:1;fill-rule:nonzero;stroke:none"
         id="path22"
         inkscape:connector-curvature="0" /></g></g></svg>