<svg xmlns="http://www.w3.org/2000/svg" viewBox="0 0 215 215"><defs><style>.cls-1{fill:#fff;}.cls-2{fill:#6694fb;}.cls-3{fill:#ffe35e;}.cls-4{fill:#f1f1f1;}.cls-5{fill:#2f6aff;}.cls-6{fill:none;stroke:#6694fb;stroke-linecap:round;stroke-miterlimit:10;stroke-width:3px;}</style></defs><title>ikony_aktivity_novybarvy</title><g id="Vrstva_14" data-name="Vrstva 14"><circle class="cls-1" cx="107.5" cy="107.5" r="107.5"/></g><g id="Vrstva_11" data-name="Vrstva 11"><rect class="cls-2" x="140.94" y="142.67" width="17.61" height="4.66" rx="1.03" ry="1.03" transform="translate(358.09 151.11) rotate(137.6)"/><rect class="cls-3" x="133.35" y="150.37" width="15.91" height="4.66" rx="1.03" ry="1.03" transform="translate(348.62 170.19) rotate(137.6)"/><rect class="cls-4" x="134" y="130.76" width="28.15" height="4.66" rx="1.03" ry="1.03" transform="translate(347.16 131.53) rotate(137.6)"/><rect class="cls-5" x="117.12" y="146.68" width="27.03" height="4.66" rx="1.03" ry="1.03" transform="translate(327.58 170.97) rotate(137.6)"/><rect class="cls-4" x="147.98" y="152.01" width="12.49" height="4.66" rx="1.03" ry="1.03" transform="translate(372.18 164.33) rotate(137.6)"/><rect class="cls-5" x="144.91" y="155.95" width="10" height="4.66" rx="1.03" ry="1.03" transform="translate(367.34 174.09) rotate(137.6)"/><rect class="cls-4" x="135.05" y="169.44" width="29.58" height="4.66" rx="1.03" ry="1.03" transform="translate(-76.64 145.95) rotate(-42.4)"/><rect class="cls-5" x="153.8" y="152.32" width="29.58" height="4.66" rx="1.03" ry="1.03" transform="translate(-60.19 154.12) rotate(-42.4)"/><rect class="cls-4" x="29.2" y="51.81" width="28.15" height="4.66" rx="1.03" ry="1.03" transform="translate(-25.19 43.33) rotate(-42.4)"/><rect class="cls-5" x="47.04" y="35.52" width="28.15" height="4.66" rx="1.03" ry="1.03" transform="translate(-9.54 51.11) rotate(-42.4)"/><rect class="cls-2" x="126.83" y="122.67" width="30.77" height="4.66" rx="1.03" ry="1.03" transform="translate(331.53 121.43) rotate(137.6)"/><rect class="cls-3" x="107.32" y="140.49" width="30.77" height="4.66" rx="1.03" ry="1.03" transform="translate(309.62 165.55) rotate(137.6)"/><rect class="cls-4" x="101.01" y="133.03" width="30.31" height="4.66" rx="1.03" ry="1.03" transform="translate(-60.89 113.72) rotate(-42.4)"/><rect class="cls-5" x="120.23" y="115.48" width="30.31" height="4.66" rx="1.03" ry="1.03" transform="translate(-44.03 122.09) rotate(-42.4)"/><rect class="cls-2" x="99" y="124.04" width="24.58" height="4.66" rx="1.03" ry="1.03" transform="translate(-56.11 108.09) rotate(-42.4)"/><rect class="cls-3" x="114.59" y="109.81" width="24.58" height="4.66" rx="1.03" ry="1.03" transform="translate(-42.43 114.87) rotate(-42.4)"/><rect class="cls-2" x="91.86" y="106.34" width="18.79" height="4.66" rx="1.03" ry="1.03" transform="translate(-46.79 96.69) rotate(-42.4)"/><rect class="cls-3" x="102" y="97.73" width="17.36" height="4.66" rx="1.03" ry="1.03" transform="translate(-38.52 100.8) rotate(-42.4)"/><rect class="cls-2" x="94" y="87.01" width="27.42" height="4.66" rx="1.03" ry="1.03" transform="translate(247.49 82.7) rotate(137.6)"/><rect class="cls-3" x="76.61" y="102.89" width="27.42" height="4.66" rx="1.03" ry="1.03" transform="translate(227.97 122.02) rotate(137.6)"/><rect class="cls-2" x="140.77" y="177.12" width="30.77" height="4.66" rx="1.03" ry="1.03" transform="translate(-80.16 152.21) rotate(-42.4)"/><rect class="cls-3" x="160.28" y="159.3" width="30.77" height="4.66" rx="1.03" ry="1.03" transform="translate(-63.05 160.71) rotate(-42.4)"/><rect class="cls-4" x="108.61" y="107.33" width="12.53" height="4.66" rx="1.03" ry="1.03" transform="translate(273.66 113.19) rotate(137.6)"/><rect class="cls-5" x="103.84" y="112.39" width="10.98" height="4.66" rx="1.03" ry="1.03" transform="translate(267.43 125.73) rotate(137.6)"/><rect class="cls-4" x="67.19" y="96.53" width="30.77" height="4.66" rx="1.03" ry="1.03" transform="translate(-45.06 81.53) rotate(-42.4)"/><rect class="cls-5" x="86.7" y="78.72" width="30.77" height="4.66" rx="1.03" ry="1.03" transform="translate(-27.95 90.02) rotate(-42.4)"/><rect class="cls-4" x="57.71" y="80.49" width="25.99" height="4.66" rx="1.03" ry="1.03" transform="translate(-37.35 69.34) rotate(-42.4)"/><rect class="cls-5" x="74.19" y="65.45" width="25.99" height="4.66" rx="1.03" ry="1.03" transform="translate(-22.9 76.51) rotate(-42.4)"/><rect class="cls-2" x="80.09" y="71.52" width="30.31" height="4.66" rx="1.03" ry="1.03" transform="translate(215.38 64.17) rotate(137.6)"/><rect class="cls-3" x="60.87" y="89.07" width="30.31" height="4.66" rx="1.03" ry="1.03" transform="translate(193.8 107.63) rotate(137.6)"/><rect class="cls-2" x="67.89" y="64.58" width="11.08" height="4.66" rx="1.03" ry="1.03" transform="translate(172.77 66.81) rotate(137.6)"/><rect class="cls-3" x="65.86" y="67.51" width="8.7" height="4.66" rx="1.03" ry="1.03" transform="translate(169.16 74.08) rotate(137.6)"/><rect class="cls-2" x="54.36" y="43.83" width="24.73" height="4.66" rx="1.03" ry="1.03" transform="translate(147.12 35.27) rotate(137.6)"/><rect class="cls-3" x="38.68" y="58.15" width="24.73" height="4.66" rx="1.03" ry="1.03" transform="translate(129.52 70.73) rotate(137.6)"/><rect class="cls-4" x="59.82" y="56.81" width="14.8" height="4.66" rx="1.03" ry="1.03" transform="translate(156.74 57.49) rotate(137.6)"/><rect class="cls-5" x="56.97" y="60.98" width="11.38" height="4.66" rx="1.03" ry="1.03" transform="translate(151.62 67.81) rotate(137.6)"/><path class="cls-6" d="M147.93,193.26,141,185.69c-5.66-6.19-.26-14.64,9.31-32.21s11.34-30.1-.53-43c-10.76-11.68-28.63-7.74-39.69-1.07s-29.36,10.38-42.67-4.33c-13-14.42-2.71-24.4,2.19-40.06,4.65-14.88,8.4-29.54,4.8-33.49L66.35,22.7"/><path class="cls-6" d="M190.17,154.7l-6.92-7.57c-5.65-6.19-14.55-1.59-32.92,6.35s-31,8.56-42.76-4.42c-10.65-11.78-5.1-29.22,2.54-39.63s13-28.3-.44-42.89c-13.18-14.3-24-4.9-40.1-1.45-15.23,3.28-30.17,5.68-33.78,1.74L27.71,58"/></g></svg>