<?xml version="1.0" encoding="UTF-8" standalone="no"?>
<!-- Created with Inkscape (http://www.inkscape.org/) -->

<svg
   xmlns:dc="http://purl.org/dc/elements/1.1/"
   xmlns:cc="http://creativecommons.org/ns#"
   xmlns:rdf="http://www.w3.org/1999/02/22-rdf-syntax-ns#"
   xmlns:svg="http://www.w3.org/2000/svg"
   xmlns="http://www.w3.org/2000/svg"
   xmlns:sodipodi="http://sodipodi.sourceforge.net/DTD/sodipodi-0.dtd"
   xmlns:inkscape="http://www.inkscape.org/namespaces/inkscape"
   width="100mm"
   height="100mm"
   viewBox="0 0 354.33071 354.33071"
   id="svg2"
   version="1.1"
   inkscape:version="0.91 r13725"
   sodipodi:docname="bioskop_logo.svg">
  <defs
     id="defs4" />
  <sodipodi:namedview
     id="base"
     pagecolor="#ffffff"
     bordercolor="#666666"
     borderopacity="1.0"
     inkscape:pageopacity="0.0"
     inkscape:pageshadow="2"
     inkscape:zoom="0.98994949"
     inkscape:cx="168.59796"
     inkscape:cy="237.11859"
     inkscape:document-units="px"
     inkscape:current-layer="layer1"
     showgrid="false"
     inkscape:window-width="1680"
     inkscape:window-height="987"
     inkscape:window-x="-8"
     inkscape:window-y="-8"
     inkscape:window-maximized="1" />
  <metadata
     id="metadata7">
    <rdf:RDF>
      <cc:Work
         rdf:about="">
        <dc:format>image/svg+xml</dc:format>
        <dc:type
           rdf:resource="http://purl.org/dc/dcmitype/StillImage" />
        <dc:title></dc:title>
      </cc:Work>
    </rdf:RDF>
  </metadata>
  <g
     inkscape:label="Layer 1"
     inkscape:groupmode="layer"
     id="layer1"
     transform="translate(0,-698.0315)">
    <path
       inkscape:connector-curvature="0"
       id="path4148"
       style="fill:#bcacc5;fill-opacity:1;fill-rule:evenodd;stroke:none"
       d="m 339.99472,804.84739 -11.2654,5.7404 -0.4575,0.23709 c -9.28181,4.72857 -17.14439,8.73583 -23.89662,12.17539 -5.86228,2.98708 -11.00827,5.61016 -15.54482,7.92101 -4.04232,2.0604 -7.66889,3.90708 -10.93314,5.57009 -2.95702,1.50607 -5.64189,2.87187 -8.10969,4.13249 -2.33924,1.19383 -5.3931,0.78642 -6.97096,-0.79143 l -0.0735,-0.0735 -0.0751,-0.0752 -0.0735,-0.0735 -0.0752,-0.0752 -0.0751,-0.0735 -0.0735,-0.0751 -0.0751,-0.0752 -0.0752,-0.0735 -0.0735,-0.0752 -0.0752,-0.0751 -0.0751,-0.0752 -0.0735,-0.0735 -0.0752,-0.0751 -0.0751,-0.0735 -0.0735,-0.0751 -0.0751,-0.0752 -0.0735,-0.0735 -0.0752,-0.0752 -0.0735,-0.0735 -0.0752,-0.0751 -0.0751,-0.0752 -0.0752,-0.0751 -0.0735,-0.0735 -0.0752,-0.0751 -0.0751,-0.0752 -0.0735,-0.0735 -0.0752,-0.0751 -0.0751,-0.0735 -0.0735,-0.0751 -0.0751,-0.0752 -0.0735,-0.0735 -0.0752,-0.0752 -0.0735,-0.0735 -0.0752,-0.0751 -0.0751,-0.0752 -0.0752,-0.0751 -0.0735,-0.0735 -0.0752,-0.0735 -0.0735,-0.0751 -0.0751,-0.0752 -0.0752,-0.0751 -0.0735,-0.0735 -0.0752,-0.0751 -0.0751,-0.0752 -0.0735,-0.0735 -0.0752,-0.0752 -0.0751,-0.0735 -0.0735,-0.0751 -0.0751,-0.0735 -0.0735,-0.0751 -0.0751,-0.0752 -0.0752,-0.0735 -0.0735,-0.0751 -0.0751,-0.0735 -0.0735,-0.0751 -0.0751,-0.0752 -0.0735,-0.0735 -0.0752,-0.0751 -0.0735,-0.0735 -0.0751,-0.0751 -0.0751,-0.0735 -0.0735,-0.0752 -0.0752,-0.0751 -0.0751,-0.0735 -0.0735,-0.0751 -0.0751,-0.0735 -0.0735,-0.0752 -0.0752,-0.0735 -0.0735,-0.0752 -0.0751,-0.0751 -0.0735,-0.0735 -0.0751,-0.0752 -0.0735,-0.0735 -0.1486,-0.1486 -0.0752,-0.0751 -0.0751,-0.0752 -0.0735,-0.0735 -0.0751,-0.0752 -0.0752,-0.0735 -0.0735,-0.0751 -0.0751,-0.0751 -0.0735,-0.0735 -0.0751,-0.0752 -0.0735,-0.0735 -0.15027,-0.15027 -0.0751,-0.0735 -0.0735,-0.0752 -0.0752,-0.0751 -0.0735,-0.0735 -0.0751,-0.0751 -0.0751,-0.0735 -0.0735,-0.0752 -0.0752,-0.0751 -0.0751,-0.0735 -0.0735,-0.0751 -0.0751,-0.0752 -0.0735,-0.0735 -0.15028,-0.1486 -0.0735,-0.0751 -0.0751,-0.0752 -0.0752,-0.0735 -0.0735,-0.0751 -0.0751,-0.0751 -0.1486,-0.1486 -0.0735,-0.0735 -0.0752,-0.0751 -0.1486,-0.1486 -0.0751,-0.0735 -0.0752,-0.0768 -0.0735,-0.0735 -0.0751,-0.0735 -0.0735,-0.0751 -0.0751,-0.0752 -0.0735,-0.0735 -0.0752,-0.0752 -0.0751,-0.0735 -0.0735,-0.0751 -0.0751,-0.0752 -0.0735,-0.0735 -0.0751,-0.0752 -0.0752,-0.0751 -0.0735,-0.0735 -0.0351,-0.0351 -0.0751,-0.0751 -0.0735,-0.0735 -0.15028,-0.1486 -0.0735,-0.0751 -0.0751,-0.0735 -0.0751,-0.0751 -0.0735,-0.0735 -0.0735,-0.0752 -0.0752,-0.0751 -0.1486,-0.14861 -0.0751,-0.0752 -0.0752,-0.0735 -0.0735,-0.0751 -0.0751,-0.0735 -0.0735,-0.0751 -0.0751,-0.0752 -0.0752,-0.0735 -0.22373,-0.22374 -0.0735,-0.0735 -0.1486,-0.14861 -0.0752,-0.0768 -0.0735,-0.0735 -0.0751,-0.0752 -0.0752,-0.0735 -0.0735,-0.0752 -0.0752,-0.0735 -0.0751,-0.0751 -0.0735,-0.0751 -0.0752,-0.0735 -0.14861,-0.15027 -0.0751,-0.0735 -0.0735,-0.0751 -0.0751,-0.0735 -0.0752,-0.0752 -0.0735,-0.0751 -0.1486,-0.1486 -0.0751,-0.0752 -0.0735,-0.0735 -0.0752,-0.0751 -0.15027,-0.1486 -0.0735,-0.0735 -0.0752,-0.0752 -0.0735,-0.0751 -0.1486,-0.1486 -0.22374,-0.22374 -0.0751,-0.0735 -0.0735,-0.0751 -0.0751,-0.0735 -0.0752,-0.0752 -0.0735,-0.0735 -0.0735,-0.0752 -0.0752,-0.0751 -0.0751,-0.0735 -0.0735,-0.0752 -0.0752,-0.0751 -0.0735,-0.0735 -0.0752,-0.0735 -0.0751,-0.0751 -0.0735,-0.0751 -0.0735,-0.0735 -0.0751,-0.0752 -0.15027,-0.1486 -0.0735,-0.0735 -0.0751,-0.0751 -0.0735,-0.0735 -0.0752,-0.0768 -0.0735,-0.0735 -0.0751,-0.0735 -0.1486,-0.15027 -0.0735,-0.0735 -0.0752,-0.0751 -0.0751,-0.0751 -0.0751,-0.0735 -0.0735,-0.0752 -0.0752,-0.0735 -0.0751,-0.0751 -0.0735,-0.0751 -0.0751,-0.0735 -0.0735,-0.0752 -0.0752,-0.0735 -0.0751,-0.0768 -0.0735,-0.0735 -0.0751,-0.0735 -0.0752,-0.0752 -0.0735,-0.0751 -0.0751,-0.0735 -0.0751,-0.0751 -0.0735,-0.0752 -0.0752,-0.0735 -0.0751,-0.0751 -0.0735,-0.0751 -0.0751,-0.0735 -0.0735,-0.0752 -0.0752,-0.0735 -0.0751,-0.0752 -0.0735,-0.0751 -0.0751,-0.0735 -0.0735,-0.0752 -0.0768,-0.0751 -0.0735,-0.0735 -0.1486,-0.14861 -0.0752,-0.0768 -0.0735,-0.0735 -0.15027,-0.1486 -0.0735,-0.0752 -0.0752,-0.0735 -0.0751,-0.0752 -0.0735,-0.0751 -0.0751,-0.0735 -0.0752,-0.0752 -0.0735,-0.0751 -0.0751,-0.0735 -0.0751,-0.0751 c -1.57618,-1.57618 -1.98359,-4.63005 -0.78976,-6.97096 1.26062,-2.4678 2.62642,-5.15266 4.13416,-8.10969 1.66134,-3.26424 3.50802,-6.88914 5.56842,-10.93146 2.31252,-4.53822 4.93393,-9.68254 7.92101,-15.5465 3.43956,-6.75056 7.44682,-14.61314 12.17539,-23.89495 l 0.23876,-0.45916 5.73873,-11.26541 0,0.001 c 0.55768,-1.21888 1.33742,-2.36095 2.34091,-3.36443 3.96552,-3.96552 10.09996,-4.44806 14.5931,-1.44261 9.92297,6.17618 19.0996,13.47607 27.34119,21.71266 l 0,0 0.0401,0.0385 c 8.23492,8.24159 15.53648,17.41989 21.71267,27.34119 3.00377,4.49314 2.5229,10.62759 -1.44429,14.5931 -1.00348,1.00349 -2.14388,1.78323 -3.36275,2.34091 l 0,0" />
    <path
       inkscape:connector-curvature="0"
       id="path4152"
       style="fill:#9fc836;fill-opacity:1;fill-rule:evenodd;stroke:none"
       d="m 162.68187,720.15064 2.2257,14.04878 0.0935,0.5727 c 1.83165,11.5743 3.3878,21.3804 4.72021,29.80065 1.1571,7.31158 2.17394,13.72653 3.07056,19.38678 0.79979,5.0408 1.51441,9.56065 2.15892,13.63136 0.58439,3.68668 1.11201,7.03608 1.60123,10.11499 0.46584,2.91862 -1.03187,6.04428 -3.26759,7.18301 l -0.10686,0.0534 -0.10525,0.0534 -0.10513,0.055 -0.10526,0.0534 -0.10512,0.0534 -0.10526,0.0534 -0.10686,0.0534 -0.21205,0.1086 -0.10512,0.0534 -0.10526,0.0534 -0.10686,0.0552 -0.10352,0.0534 -0.10686,0.0534 -0.10526,0.0534 -0.10686,0.055 -0.10525,0.0534 -0.10513,0.0534 -0.10526,0.0534 -0.10512,0.055 -0.10686,0.0534 -0.10512,0.0534 -0.10526,0.0534 -0.10686,0.0534 -0.10512,0.0552 -0.10686,0.0534 -0.10513,0.0534 -0.10526,0.055 -0.10512,0.0534 -0.10526,0.0534 -0.10686,0.0534 -0.10525,0.055 -0.10513,0.0534 -0.10686,0.0534 -0.10512,0.0534 -0.10686,0.0534 -0.10352,0.0534 -0.10686,0.055 -0.10526,0.0534 -0.10512,0.0534 -0.10526,0.0534 -0.10686,0.055 -0.10526,0.0534 -0.10512,0.0534 -0.10686,0.055 -0.10513,0.0534 -0.10525,0.0534 -0.10513,0.0534 -0.10526,0.0534 -0.21205,0.10859 -0.10512,0.0534 -0.10526,0.0534 -0.10512,0.0534 -0.10686,0.0534 -0.10526,0.055 -0.10512,0.0534 -0.10526,0.0534 -0.10512,0.0534 -0.10686,0.0534 -0.10513,0.055 -0.10526,0.0534 -0.21205,0.10686 -0.10352,0.055 -0.10686,0.0534 -0.10512,0.0534 -0.10526,0.0534 -0.10512,0.0534 -0.10686,0.0552 -0.10513,0.0534 -0.10352,0.0534 -0.10686,0.0534 -0.10525,0.0534 -0.10526,0.055 -0.10686,0.0534 -0.10526,0.0534 -0.10512,0.0534 -0.10526,0.0534 -0.21205,0.10859 -0.10512,0.0534 -0.10526,0.0534 -0.10686,0.0534 -0.31557,0.16196 -0.10686,0.0534 -0.10526,0.055 -0.10513,0.0534 -0.10525,0.0534 -0.10526,0.0534 -0.10686,0.0534 -0.21038,0.10859 -0.10686,0.0534 -0.10513,0.0534 -0.10525,0.0552 -0.10513,0.0534 -0.10525,0.0534 -0.10686,0.0534 -0.21038,0.1086 -0.10526,0.0534 -0.10686,0.0534 -0.10526,0.0534 -0.10512,0.0534 -0.10526,0.055 -0.10526,0.0534 -0.10686,0.0534 -0.10526,0.055 -0.10686,0.0534 -0.10525,0.0534 -0.10513,0.0534 -0.10525,0.0534 -0.10513,0.0534 -0.10526,0.055 -0.10686,0.0534 -0.10525,0.0534 -0.10513,0.055 -0.10686,0.0517 -0.10352,0.0552 -0.10686,0.0534 -0.10512,0.0534 -0.10526,0.0534 -0.10526,0.0552 -0.10512,0.0517 -0.0517,0.0267 0.001,0 -0.10526,0.055 -0.10686,0.0534 -0.10525,0.0534 -0.10513,0.0534 -0.10525,0.0534 -0.10686,0.0534 -0.10353,0.0552 -0.10686,0.0534 -0.10525,0.0534 -0.10526,0.0534 -0.10512,0.0552 -0.10686,0.0534 -0.10513,0.0534 -0.10526,0.0534 -0.10512,0.0534 -0.10526,0.0534 -0.10686,0.055 -0.10525,0.0534 -0.10513,0.0534 -0.10525,0.055 -0.10513,0.0518 -0.10686,0.055 -0.10512,0.0534 -0.10526,0.0534 -0.10686,0.055 -0.10526,0.0534 -0.10525,0.0534 -0.10513,0.0534 -0.10686,0.0534 -0.10512,0.0534 -0.10526,0.0552 -0.10512,0.0534 -0.10526,0.0534 -0.10686,0.055 -0.10526,0.0534 -0.10512,0.0534 -0.10686,0.0534 -0.10513,0.0534 -0.10525,0.055 -0.10513,0.0534 -0.10686,0.0534 -0.10512,0.0534 -0.10526,0.0534 -0.10526,0.055 -0.10512,0.0534 -0.10686,0.0534 -0.10512,0.055 -0.10526,0.0534 -0.10512,0.0534 -0.10526,0.0534 -0.10686,0.0534 -0.10526,0.0534 -0.10512,0.055 -0.10686,0.0534 -0.10513,0.0534 -0.10525,0.0552 -0.10513,0.0534 -0.10526,0.0534 -0.10686,0.0534 -0.10525,0.0534 -0.10526,0.0534 -0.21038,0.10859 -0.10513,0.0534 -0.10525,0.0534 -0.10686,0.0534 -0.10526,0.055 -0.10512,0.0534 -0.10526,0.0534 -0.10513,0.0534 -0.10525,0.0534 -0.10686,0.0534 -0.10526,0.055 -0.10512,0.0534 -0.10526,0.0534 -0.10686,0.0534 -0.10526,0.0534 -0.10512,0.055 -0.10686,0.0534 -0.10526,0.0534 -0.10512,0.0534 -0.21038,0.1086 -0.10526,0.0534 -0.10686,0.0534 -0.10526,0.055 -0.10512,0.0534 -0.21205,0.10686 -0.10526,0.0534 -0.10513,0.055 -0.10686,0.0534 -0.10512,0.0534 -0.10526,0.0534 -0.10512,0.055 -0.10686,0.0534 -0.10526,0.0552 -0.21038,0.10512 -0.10686,0.055 -0.10526,0.0534 -0.10512,0.0534 -0.10686,0.055 -0.10512,0.0534 -0.10686,0.0534 -0.10353,0.055 -0.10686,0.0517 -0.10512,0.0552 -0.10526,0.0534 -0.10686,0.0534 -0.10525,0.055 -0.10526,0.0534 -0.10686,0.0534 -0.10352,0.0534 -0.10686,0.055 -0.10526,0.0534 -0.10686,0.0534 -0.10526,0.0534 -0.10512,0.055 -0.10686,0.0534 -0.10513,0.0534 -0.10525,0.0534 -0.10686,0.0534 -0.10526,0.0534 -0.10512,0.0552 -0.10526,0.0534 -0.10513,0.0534 -0.10686,0.055 c -2.23404,1.13873 -5.64355,0.51427 -7.73234,-1.57786 -2.20232,-2.20733 -4.59999,-4.60167 -7.24145,-7.24145 -2.91361,-2.91528 -6.14947,-6.14947 -9.75934,-9.75934 -4.05067,-4.05067 -8.64399,-8.64566 -13.87847,-13.88014 -6.02926,-6.02759 -13.046969,-13.04864 -21.335316,-21.33365 l -0.407405,-0.41241 -10.058219,-10.05822 0.0013,0 c -1.110345,-1.02018 -2.062069,-2.25074 -2.786715,-3.67332 -2.86352,-5.62352 -1.245589,-12.35405 3.529727,-16.11586 10.05655,-8.47034 21.058145,-15.7502 32.737632,-21.70598 l -0.001,0 0.0552,-0.0283 c 11.68116,-5.94744 24.03855,-10.56915 36.80167,-13.72653 5.85226,-1.65133 12.24885,0.99513 15.11404,6.61865 0.72465,1.42091 1.16043,2.91361 1.33408,4.41133" />
    <path
       inkscape:connector-curvature="0"
       id="path4156"
       style="fill:#a4bdbb;fill-opacity:1;fill-rule:evenodd;stroke:none"
       d="m 267.273,735.92421 -6.09938,11.97001 -0.24545,0.48922 c -5.0241,9.8612 -9.28014,18.21633 -12.9351,25.38933 -3.17575,6.22961 -5.96079,11.69785 -8.41691,16.51825 -2.18896,4.29445 -4.15085,8.14642 -5.91905,11.6127 -1.59957,3.14236 -3.05554,5.99586 -4.38962,8.61895 -1.26563,2.48784 -4.14418,4.04399 -6.48508,3.67499 l -0.11194,-0.0184 -0.1102,-0.0183 -0.1102,-0.0167 -0.11193,-0.0183 -0.10847,-0.0167 -0.11193,-0.0184 -0.1102,-0.0167 -0.1102,-0.0184 -0.1102,-0.0167 -0.11194,-0.0167 -0.2204,-0.0367 -0.1102,-0.0167 -0.11193,-0.0184 -0.1102,-0.0167 -0.1102,-0.0184 -0.1102,-0.0167 -0.1102,-0.0184 -0.1118,-0.0167 -0.1102,-0.0167 -0.1102,-0.0184 -0.11181,-0.0184 -0.1102,-0.0167 -0.1102,-0.0167 -0.1102,-0.0184 -0.11193,-0.0167 -0.2204,-0.0351 -0.11194,-0.0183 -0.2204,-0.0351 -0.11193,-0.0184 -0.1102,-0.0167 -0.1102,-0.0167 -0.3306,-0.0534 -0.11194,-0.0184 -0.1102,-0.0167 -0.1102,-0.0184 -0.11019,-0.0167 -0.11181,-0.0184 -0.1102,-0.0167 -0.1102,-0.0167 -0.1102,-0.0184 -0.1102,-0.0167 -0.11193,-0.0184 -0.1102,-0.0167 -0.1102,-0.0184 -0.1102,-0.0167 -0.22207,-0.0351 -0.1102,-0.0184 -0.1102,-0.0167 -0.11194,-0.0183 -0.10846,-0.0167 -0.11193,-0.0183 -0.1102,-0.0167 -0.1102,-0.0183 -0.1102,-0.0167 -0.1102,-0.0167 -0.1102,-0.0183 -0.11194,-0.0184 -0.1102,-0.0167 -0.1102,-0.0167 -0.1102,-0.0183 -0.1102,-0.0167 -0.2204,-0.0351 -0.1118,-0.0184 -0.1086,-0.0167 -0.11193,-0.0184 -0.1102,-0.0167 -0.1102,-0.0184 -0.1102,-0.0167 -0.1102,-0.0184 -0.11194,-0.0167 -0.1102,-0.0184 -0.1102,-0.0167 -0.22039,-0.0351 -0.1102,-0.0167 -0.11194,-0.0184 -0.1102,-0.0167 -0.1102,-0.0184 -0.1102,-0.0167 -0.1102,-0.0184 -0.11193,-0.0183 -0.1102,-0.0167 -0.1102,-0.0183 -0.1102,-0.0167 -0.11194,-0.0167 -0.1102,-0.0183 -0.2204,-0.0351 -0.1118,-0.0167 -0.1102,-0.0183 -0.1102,-0.0184 -0.1102,-0.0167 -0.1102,-0.0167 -0.11194,-0.0184 -0.1102,-0.0167 -0.11019,-0.0184 -0.1102,-0.0184 -0.1102,-0.0167 -0.11194,-0.0167 -0.1102,-0.0184 -0.1102,-0.0167 -0.1102,-0.0184 -0.1102,-0.0167 -0.11193,-0.0184 -0.1102,-0.0167 -0.1102,-0.0184 -0.1102,-0.0167 -0.1102,-0.0184 -0.11181,-0.0167 -0.1102,-0.0183 -0.11019,-0.0167 -0.1102,-0.0183 -0.1102,-0.0167 -0.11181,-0.0183 -0.1102,-0.0167 -0.1102,-0.0184 -0.2204,-0.0334 -0.11019,-0.0183 -0.1102,-0.0167 -0.0534,-0.008 0,0 -0.1102,-0.0184 -0.1102,-0.0167 -0.1102,-0.0167 -0.11181,-0.0184 -0.10859,-0.0167 -0.1118,-0.0184 -0.1102,-0.0184 -0.1102,-0.0167 -0.1102,-0.0167 -0.1102,-0.0184 -0.11194,-0.0167 -0.1102,-0.0184 -0.1102,-0.0167 -0.2204,-0.0351 -0.11193,-0.0183 -0.1102,-0.0167 -0.1102,-0.0183 -0.11194,-0.0167 -0.1086,-0.0167 -0.1118,-0.02 -0.1102,-0.0167 -0.1102,-0.0184 -0.1102,-0.0167 -0.1102,-0.0167 -0.1118,-0.0184 -0.1086,-0.0167 -0.11193,-0.0167 -0.1102,-0.0184 -0.1102,-0.0184 -0.11194,-0.0167 -0.1102,-0.0184 -0.1102,-0.0167 -0.11193,-0.0184 -0.10847,-0.0167 -0.11193,-0.0184 -0.1102,-0.0167 -0.1102,-0.0184 -0.1102,-0.0167 -0.1102,-0.0184 -0.11194,-0.0167 -0.11193,-0.0167 -0.10847,-0.0184 -0.11193,-0.0167 -0.1102,-0.0184 -0.2204,-0.035 -0.1102,-0.0184 -0.1102,-0.0167 -0.11194,-0.0167 -0.1102,-0.0183 -0.1102,-0.0167 -0.1102,-0.0183 -0.11019,-0.0167 -0.11181,-0.0184 -0.1102,-0.0167 -0.1102,-0.0184 -0.1102,-0.0167 -0.1102,-0.0184 -0.1102,-0.0167 -0.11019,-0.0167 -0.11194,-0.0184 -0.1102,-0.0184 -0.1102,-0.0167 -0.1102,-0.0167 -0.1102,-0.0184 -0.1102,-0.0184 -0.1102,-0.0167 -0.3306,-0.0517 -0.1118,-0.0184 -0.1102,-0.0183 -0.11194,-0.0167 -0.1102,-0.0167 -0.1102,-0.0184 -0.11019,-0.0167 -0.1102,-0.0183 -0.1102,-0.0167 -0.11181,-0.0183 -0.1102,-0.0167 -0.1102,-0.0183 -0.1102,-0.0167 -0.11019,-0.0183 -0.1102,-0.0167 -0.11181,-0.0184 -0.1102,-0.0167 -0.11193,-0.0184 -0.10847,-0.0167 -0.11193,-0.0184 -0.1102,-0.0167 -0.1102,-0.0167 -0.11194,-0.0184 -0.1102,-0.0184 -0.2204,-0.0351 -0.1102,-0.0167 -0.11193,-0.0184 -0.1102,-0.0167 -0.1118,-0.0184 -0.1086,-0.0167 -0.11194,-0.0167 -0.1102,-0.0184 -0.1102,-0.0167 -0.2204,-0.0351 -0.11193,-0.0184 -0.1102,-0.0183 -0.1102,-0.0167 -0.22207,-0.0351 -0.1102,-0.0167 -0.11194,-0.0183 -0.10846,-0.0184 -0.11193,-0.0167 -0.1102,-0.0167 -0.1102,-0.0184 -0.11194,-0.0184 -0.1102,-0.0167 -0.1118,-0.0184 -0.1086,-0.0167 -0.11193,-0.0167 -0.1102,-0.0184 -0.1102,-0.0184 -0.1102,-0.0167 -0.11181,-0.0167 -0.2204,-0.0351 c -2.33923,-0.37067 -4.59832,-2.73996 -5.03244,-5.49829 -0.4575,-2.9086 -0.96175,-6.06933 -1.51274,-9.5523 -0.60944,-3.8453 -1.28567,-8.11303 -2.04037,-12.87499 -0.84653,-5.34468 -1.80493,-11.40566 -2.90025,-18.30984 -1.25895,-7.95106 -2.72494,-17.21284 -4.45641,-28.14431 l -0.0835,-0.54265 -2.10047,-13.26736 c -0.28218,-1.39587 -0.32392,-2.86352 -0.0884,-4.35289 0.93169,-5.88566 5.90403,-10.13168 11.64276,-10.35542 12.38577,-0.88828 24.83498,-0.34396 37.06213,1.58954 l 0.0584,0.008 c 12.22548,1.94185 24.2339,5.26954 35.73974,9.94134 5.3881,1.98693 8.80428,7.56036 7.8726,13.44769 -0.23543,1.4877 -0.72966,2.87187 -1.42926,4.11078" />
    <path
       inkscape:connector-curvature="0"
       id="path4160"
       style="fill:#f5b31c;fill-opacity:1;fill-rule:evenodd;stroke:none"
       d="m 65.430715,774.84805 10.05655,10.05822 0.414083,0.4074 c 8.285008,8.28668 15.307729,15.30606 21.335314,21.33364 5.232808,5.23616 9.827798,9.82948 13.878468,13.88015 3.60988,3.60987 6.84574,6.84406 9.75935,9.75934 2.63978,2.64145 5.03579,5.03913 7.24145,7.24145 2.09212,2.08879 2.71659,5.49663 1.57786,7.73234 l -0.0534,0.10526 -0.0552,0.10526 -0.0534,0.10686 -0.0534,0.10525 -0.0552,0.10526 -0.0534,0.10686 -0.0534,0.10526 -0.0534,0.10512 -0.0534,0.10686 -0.055,0.10513 -0.0534,0.10525 -0.0534,0.10526 -0.055,0.10686 -0.0534,0.10526 -0.0534,0.10526 -0.0534,0.10512 -0.0534,0.10686 -0.055,0.10512 -0.0534,0.10526 -0.0534,0.10526 -0.055,0.10686 -0.0534,0.10526 -0.0534,0.10525 -0.0534,0.10686 -0.055,0.10526 -0.0534,0.10686 -0.0534,0.10526 -0.0534,0.10526 -0.0534,0.10512 -0.0552,0.10526 -0.0534,0.10525 -0.0534,0.10686 -0.0534,0.10526 -0.0534,0.10526 -0.055,0.10686 -0.0534,0.10526 -0.0534,0.10525 -0.0534,0.10513 -0.1086,0.21205 -0.0534,0.10526 -0.055,0.10686 -0.0518,0.10525 -0.055,0.10526 -0.0534,0.10526 -0.0534,0.10512 -0.0552,0.10686 -0.0517,0.10513 -0.055,0.10525 -0.0534,0.10526 -0.0534,0.10686 -0.0534,0.10526 -0.055,0.10526 -0.0534,0.10686 -0.0534,0.10525 -0.0534,0.10526 -0.0552,0.10512 -0.0534,0.10526 -0.0534,0.10526 -0.0534,0.10686 -0.0534,0.10526 -0.0534,0.10525 -0.055,0.10513 -0.0534,0.10525 -0.0534,0.10526 -0.0534,0.10526 -0.055,0.10686 -0.0534,0.10526 -0.0534,0.10512 -0.0534,0.10526 -0.0534,0.10526 -0.0534,0.10686 -0.055,0.10525 -0.0534,0.10526 -0.0534,0.10526 -0.0534,0.10512 -0.055,0.10686 -0.0534,0.10512 -0.0534,0.10526 -0.0534,0.10526 -0.0534,0.10686 -0.0552,0.10526 -0.0534,0.10525 -0.0534,0.10513 -0.0534,0.10686 -0.0534,0.10512 -0.055,0.10526 -0.0534,0.10526 -0.0534,0.10525 -0.0534,0.10686 -0.055,0.10526 -0.0534,0.10526 -0.0534,0.10512 -0.0534,0.10686 -0.0534,0.10513 -0.055,0.10686 -0.0534,0.10352 -0.0534,0.10686 -0.0552,0.10526 -0.0517,0.10525 -0.055,0.10513 -0.0534,0.10686 -0.0534,0.10512 -0.055,0.10526 -0.0534,0.10526 -0.0534,0.10686 -0.0534,0.10525 -0.0534,0.10526 -0.0534,0.10526 -0.055,0.10686 -0.0534,0.10526 -0.0534,0.10512 -0.0552,0.10526 -0.0534,0.10525 -0.0534,0.10686 -0.0534,0.10526 -0.0534,0.10526 -0.055,0.10512 -0.0534,0.10686 -0.0534,0.10513 -0.0534,0.10525 -0.0534,0.10526 -0.0552,0.10686 -0.0534,0.10526 -0.0534,0.10352 -0.0534,0.10686 -0.0534,0.10512 -0.0267,0.0501 0.001,0 -0.0534,0.10526 -0.055,0.10686 -0.0534,0.10526 -0.0534,0.10512 -0.0534,0.10526 -0.055,0.10526 -0.0534,0.10686 -0.0534,0.10525 -0.0534,0.10526 -0.0534,0.10526 -0.0552,0.10686 -0.0534,0.10352 -0.0534,0.10686 -0.0534,0.10526 -0.0534,0.10526 -0.055,0.10525 -0.0534,0.10686 -0.0534,0.10526 -0.0534,0.10512 -0.0534,0.10526 -0.055,0.10686 -0.0534,0.10526 -0.0534,0.10526 -0.0534,0.10525 -0.0534,0.10526 -0.055,0.10686 -0.0534,0.10526 -0.0534,0.10512 -0.0534,0.10686 -0.055,0.10513 -0.0534,0.10525 -0.0534,0.10526 -0.0534,0.10526 -0.0534,0.10686 -0.055,0.10526 -0.0534,0.10512 -0.0534,0.10686 -0.055,0.10512 -0.0534,0.10526 -0.0534,0.10526 -0.0534,0.10526 -0.0534,0.10686 -0.0552,0.10525 -0.0534,0.10526 -0.0534,0.10686 -0.0552,0.10526 -0.0517,0.10512 -0.055,0.10686 -0.0534,0.10352 -0.0534,0.10686 -0.0534,0.10526 -0.055,0.10526 -0.0534,0.10512 -0.0534,0.10686 -0.0534,0.10513 -0.0534,0.10525 -0.055,0.10526 -0.0534,0.10526 -0.0534,0.10686 -0.0534,0.10525 -0.055,0.10526 -0.0534,0.10513 -0.0534,0.10525 -0.0534,0.10526 -0.0534,0.10526 -0.0534,0.10686 -0.0534,0.10352 -0.055,0.10686 -0.0534,0.10526 -0.0534,0.10525 -0.0534,0.10686 -0.055,0.10526 -0.0517,0.10526 -0.0552,0.10512 -0.0534,0.10526 -0.0534,0.10686 -0.0552,0.10512 -0.0534,0.10526 -0.0534,0.10526 -0.0534,0.10686 -0.0534,0.10526 -0.10846,0.21038 -0.0534,0.10525 -0.055,0.10686 -0.0517,0.10526 -0.055,0.10686 -0.0534,0.10526 -0.0534,0.10526 -0.055,0.10525 -0.0534,0.10513 -0.0534,0.10686 -0.0534,0.10526 -0.0552,0.10686 -0.0534,0.10352 -0.0534,0.10686 -0.0534,0.10525 -0.0534,0.10526 -0.055,0.10526 -0.0534,0.10686 -0.0534,0.10526 -0.0534,0.10512 -0.0534,0.10686 -0.1086,0.21038 -0.0534,0.10526 -0.055,0.10686 -0.0534,0.10526 -0.0534,0.10525 -0.0534,0.10686 -0.0534,0.10526 -0.0552,0.10526 -0.0534,0.10686 -0.0534,0.10526 -0.0552,0.10512 -0.0534,0.10526 -0.0534,0.10525 -0.055,0.10686 -0.0534,0.10526 -0.0534,0.10686 -0.0534,0.10526 -0.0534,0.10526 -0.055,0.10512 -0.0534,0.10686 -0.0534,0.10526 -0.0534,0.10512 -0.055,0.10526 -0.0534,0.10686 c -1.13873,2.23572 -4.26439,3.73343 -7.18301,3.26759 -3.07724,-0.49089 -6.42664,-1.01852 -10.113317,-1.60124 -4.072377,-0.6445 -8.592231,-1.3608 -13.633028,-2.15891 -5.658584,-0.89662 -12.075207,-1.91347 -19.386784,-3.07056 -8.420252,-1.33241 -18.224679,-2.88857 -29.798978,-4.72022 l -0.572704,-0.0952 -14.048781,-2.22403 0,-0.001 c -1.497713,-0.17198 -2.990417,-0.60944 -4.412993,-1.33408 -5.62185,-2.86519 -8.2699806,-9.26178 -6.616986,-15.11238 3.157386,-12.76312 7.779091,-25.11883 13.72653,-36.80166 l 0,0 0.02671,-0.055 c 5.955789,-11.67782 13.235642,-22.67942 21.705985,-32.73597 3.763484,-4.77532 10.492339,-6.39325 16.115859,-3.52973 1.422577,0.72465 2.653139,1.67637 3.67332,2.78505 l 0,0" />
    <path
       inkscape:connector-curvature="0"
       id="path4164"
       style="fill:#f5925a;fill-opacity:1;fill-rule:evenodd;stroke:none"
       d="m 22.708333,874.21137 13.267361,2.10214 0.54265,0.0835 c 10.931468,1.7298 20.193244,3.19579 28.144313,4.45641 6.905843,1.09364 12.966822,2.05372 18.309833,2.89858 4.761959,0.7547 9.02969,1.43093 12.874989,2.04036 3.482975,0.551 6.643701,1.05525 9.552301,1.51274 2.75833,0.43412 5.12762,2.69155 5.49829,5.03245 l 0.0183,0.1102 0.0167,0.11194 0.0167,0.1102 0.0183,0.1102 0.0167,0.1102 0.0183,0.1102 0.0184,0.11193 0.0167,0.1102 0.0167,0.1102 0.0184,0.1102 0.0167,0.11194 0.0184,0.1102 0.0167,0.1102 0.0184,0.1102 0.0183,0.1118 0.0167,0.1102 0.0184,0.1102 0.0167,0.1102 0.0167,0.1102 0.0183,0.11193 0.0167,0.1102 0.0184,0.11194 0.0167,0.1102 0.0184,0.1102 0.0167,0.1102 0.0184,0.1102 0.0167,0.11193 0.0183,0.1102 0.0167,0.1102 0.0183,0.1102 0.0167,0.11194 0.0183,0.1102 0.0167,0.1102 0.0184,0.11193 0.0167,0.1102 0.0184,0.1102 0.0167,0.1102 0.0184,0.1102 0.0167,0.11194 0.0183,0.1086 0.0167,0.11193 0.0183,0.1102 0.0167,0.1102 0.0183,0.1118 0.0167,0.1102 0.0183,0.1102 0.0167,0.11194 0.0184,0.1086 0.0167,0.11193 0.0184,0.1102 0.0167,0.1102 0.0183,0.1102 0.0167,0.11194 0.0183,0.1102 0.0167,0.1102 0.0167,0.1102 0.0184,0.11019 0.0183,0.1102 0.0167,0.1102 0.0167,0.11194 0.0183,0.1102 0.0167,0.1102 0.0183,0.1102 0.0167,0.1102 0.0184,0.1102 0.0167,0.1102 0.0184,0.1102 0.0167,0.11193 0.0184,0.1102 0.0167,0.1102 0.0183,0.1102 0.0167,0.1102 0.0183,0.11194 0.0167,0.1102 0.0183,0.1102 0.0167,0.1102 0.0183,0.1102 0.0167,0.1118 0.0184,0.1102 0.0167,0.1102 0.0167,0.1102 0.0183,0.1102 0.0167,0.1102 0.0184,0.1102 0.0167,0.11193 0.0184,0.1102 0.0167,0.1102 0.0184,0.1102 0.0167,0.11194 0.0183,0.1102 0.0167,0.1102 0.0183,0.1102 0.0184,0.11193 0.0167,0.1102 0.0167,0.1102 0.0184,0.11194 0.0167,0.10859 0.0184,0.11194 0.0167,0.1086 0.0184,0.11193 0.0167,0.11181 0.0183,0.10859 0.0184,0.11194 0.0167,0.1102 0.0167,0.1102 0.0167,0.1102 0.0184,0.11193 0.0183,0.1102 0.0167,0.1102 0.0184,0.1102 0.0167,0.1102 0.0184,0.11194 0.0167,0.1102 0.0183,0.1102 0.0167,0.1102 0.0167,0.1102 0.0184,0.1102 0.0183,0.1118 0.0167,0.1102 0.0183,0.1102 0.0167,0.1102 0.0167,0.1102 0.0183,0.1118 0.0167,0.1102 0.0183,0.1102 0.0167,0.1102 0.0184,0.1102 0.008,0.0517 0.0184,0.11194 0.0167,0.1102 0.0183,0.1102 0.0167,0.1102 0.0167,0.1102 0.0184,0.11193 0.0167,0.1086 0.0183,0.1102 0.0167,0.11194 0.0183,0.11019 0.0167,0.1102 0.0183,0.1102 0.0167,0.1102 0.0183,0.11194 0.0167,0.1102 0.0184,0.1102 0.0167,0.1102 0.0184,0.11193 0.0167,0.1102 0.0184,0.1102 0.0167,0.1102 0.0183,0.1102 0.0167,0.1102 0.0167,0.11194 0.0184,0.1102 0.0183,0.1102 0.0167,0.1102 0.0167,0.1102 0.0183,0.11193 0.0167,0.1102 0.0183,0.1102 0.0184,0.1102 0.0167,0.11194 0.0183,0.1102 0.0167,0.1102 0.0167,0.1102 0.0184,0.11193 0.0167,0.1086 0.0183,0.11194 0.0167,0.1102 0.0183,0.11193 0.0184,0.1102 0.0167,0.1102 0.0167,0.1102 0.0183,0.1102 0.0167,0.1102 0.0184,0.1102 0.0167,0.1118 0.0184,0.1102 0.0167,0.1102 0.0184,0.1102 0.0167,0.11194 0.0183,0.1102 0.0167,0.1102 0.0167,0.1102 0.0184,0.11193 0.0183,0.1102 0.0167,0.1086 0.0184,0.11193 0.0167,0.1102 0.0167,0.1102 0.0183,0.1102 0.0167,0.1102 0.0183,0.11194 0.0167,0.1102 0.0184,0.1102 0.0167,0.1102 0.0184,0.1102 0.0167,0.1102 0.0183,0.1102 0.0167,0.1102 0.0183,0.11193 0.0167,0.1102 0.0183,0.1102 0.0167,0.1102 0.0183,0.1102 0.0167,0.1102 0.0184,0.11194 0.0167,0.1102 0.0184,0.1102 0.0167,0.1102 0.0184,0.11019 0.0167,0.11194 0.0183,0.1102 0.0167,0.1102 0.0351,0.22207 0.0167,0.1102 0.0183,0.1102 0.0167,0.1102 0.0183,0.1118 0.0167,0.1102 0.0183,0.1102 0.0167,0.1102 0.0183,0.1102 0.0167,0.1118 0.0184,0.1102 0.0183,0.1102 0.0167,0.1102 0.0183,0.11194 0.0167,0.1102 0.0167,0.1102 0.0183,0.11193 0.0167,0.1086 0.0183,0.1118 0.0167,0.1102 0.0183,0.11194 0.0183,0.1102 0.0167,0.1102 0.0167,0.1102 0.0184,0.1118 0.0167,0.1102 0.0184,0.1102 0.0167,0.1102 0.0183,0.1102 0.0167,0.1118 0.0183,0.1102 0.0167,0.1102 0.0183,0.11193 0.0167,0.1102 0.0184,0.1102 0.0167,0.1102 0.0184,0.11194 0.0167,0.1086 0.0184,0.1118 0.0167,0.1102 0.0183,0.1102 0.0167,0.11193 c 0.37067,2.33924 -1.18549,5.21946 -3.67333,6.48508 -2.62475,1.33409 -5.47658,2.79006 -8.61894,4.38962 -3.46628,1.76821 -7.318257,3.73009 -11.612703,5.91906 -4.822068,2.45611 -10.288636,5.24116 -16.518254,8.41524 -7.172993,3.65662 -15.528128,7.91267 -25.389323,12.93677 l -0.48922,0.24544 -11.970015,6.09938 c -1.240581,0.6996 -2.623085,1.19383 -4.11245,1.42926 -5.885661,0.93169 -11.459086,-2.48617 -13.446018,-7.87259 -4.671796,-11.50585 -8.00116,-23.51259 -9.9413413,-35.73974 l 0,0 -0.010018,-0.0585 c -1.9318327,-12.22882 -2.476152,-24.67636 -1.589546,-37.06213 0.2237386,-5.73706 4.4697634,-10.71107 10.3554244,-11.64276 1.489364,-0.23543 2.957023,-0.19368 4.352885,0.0884 l 0,0" />
    <path
       inkscape:connector-curvature="0"
       id="path4168"
       style="fill:#ec393d;fill-opacity:1;fill-rule:evenodd;stroke:none"
       d="m 44.816709,976.01744 11.265406,-5.7404 0.457495,-0.23709 c 9.281813,-4.7269 17.144389,-8.73583 23.896619,-12.17539 5.863956,-2.98708 11.008274,-5.60849 15.546495,-7.92101 4.042326,-2.0604 7.667226,-3.90708 10.931466,-5.57009 2.95702,-1.50606 5.64189,-2.87187 8.10969,-4.13249 2.34091,-1.1955 5.3931,-0.78642 6.97096,0.79143 l 0.0735,0.0735 0.0752,0.0751 0.0752,0.0735 0.0735,0.0751 0.0751,0.0735 0.1486,0.15027 0.0735,0.0752 0.0768,0.0735 0.0735,0.0752 0.0752,0.0751 0.0735,0.0735 0.0752,0.0751 0.0735,0.0752 0.0752,0.0735 0.1486,0.1486 0.0752,0.0751 0.0751,0.0752 0.0735,0.0735 0.0752,0.0751 0.0752,0.0752 0.1486,0.14861 0.0752,0.0735 0.0735,0.0751 0.0752,0.0751 0.0751,0.0735 0.0735,0.0752 0.0752,0.0751 0.0752,0.0735 0.0735,0.0751 0.0751,0.0752 0.1486,0.1486 0.0752,0.0752 0.0735,0.0735 0.0751,0.0752 0.0752,0.0735 0.0735,0.0751 0.0752,0.0751 0.0735,0.0735 0.0752,0.0752 0.0752,0.0735 0.0752,0.0751 0.0735,0.0751 0.0751,0.0735 0.0735,0.0752 0.0752,0.0735 0.0735,0.0751 0.0752,0.0751 0.0735,0.0735 0.0752,0.0752 0.0752,0.0751 0.0735,0.0735 0.0751,0.0751 0.0752,0.0752 0.0735,0.0735 0.0752,0.0735 0.0735,0.0751 0.0751,0.0751 0.0735,0.0735 0.0752,0.0752 0.0735,0.0735 0.0751,0.0752 0.0752,0.0735 0.0735,0.0751 0.14861,0.1486 0.0751,0.0752 0.0752,0.0735 0.0735,0.0751 0.0752,0.0735 0.0735,0.0751 0.0751,0.0752 0.0735,0.0735 0.0752,0.0751 0.0735,0.0751 0.0751,0.0735 0.0752,0.0735 0.0735,0.0752 0.0752,0.0751 0.0752,0.0735 0.0735,0.0751 0.0752,0.0735 0.0735,0.0752 0.0752,0.0751 0.0752,0.0751 0.0735,0.0735 0.0752,0.0752 0.0735,0.0735 0.0752,0.0751 0.0751,0.0735 0.0735,0.0751 0.0752,0.0752 0.0752,0.0735 0.0735,0.0751 0.0751,0.0751 0.0752,0.0735 0.0735,0.0752 0.0752,0.0751 0.0735,0.0735 0.0752,0.0751 0.0735,0.0735 0.0752,0.0752 0.0752,0.0751 0.0735,0.0735 0.0752,0.0751 0.0735,0.0735 0.0752,0.0752 0.0752,0.0735 0.0735,0.0768 0.0752,0.0735 0.0752,0.0735 0.0735,0.0751 0.0751,0.0752 0.0735,0.0735 0.15027,0.14861 0.0735,0.0751 0.0751,0.0735 0.0735,0.0752 0.0752,0.0751 0.0735,0.0735 0.0752,0.0751 0.0735,0.0735 0.0752,0.0752 0.0351,0.0351 0,0 0.0752,0.0751 0.0752,0.0735 0.0735,0.0751 0.0735,0.0735 0.0768,0.0752 0.0735,0.0735 0.0735,0.0752 0.0752,0.0735 0.0752,0.0751 0.0735,0.0735 0.0752,0.0751 0.0735,0.0752 0.0752,0.0751 0.0752,0.0735 0.0735,0.0751 0.0751,0.0735 0.0752,0.0752 0.0735,0.0735 0.0752,0.0751 0.0735,0.0735 0.0751,0.0751 0.0735,0.0752 0.0752,0.0735 0.0752,0.0751 0.0735,0.0751 0.0751,0.0735 0.0752,0.0752 0.0735,0.0751 0.0752,0.0735 0.0735,0.0751 0.0752,0.0735 0.0752,0.0752 0.0752,0.0751 0.0735,0.0735 0.0751,0.0751 0.0735,0.0735 0.0752,0.0768 0.0735,0.0735 0.0752,0.0735 0.0735,0.0751 0.0752,0.0752 0.0752,0.0735 0.0735,0.0751 0.0751,0.0735 0.0752,0.0751 0.0735,0.0752 0.0752,0.0735 0.0735,0.0751 0.0751,0.0751 0.0752,0.0735 0.0735,0.0735 0.0752,0.0751 0.0752,0.0752 0.0735,0.0735 0.0752,0.0751 0.0735,0.0735 0.0752,0.0751 0.0735,0.0752 0.0752,0.0735 0.0752,0.0751 0.0735,0.0752 0.0752,0.0735 0.0735,0.0752 0.0752,0.0735 0.0735,0.0751 0.0752,0.0735 0.0751,0.0751 0.0735,0.0735 0.0752,0.0752 0.0735,0.0751 0.0752,0.0735 0.0751,0.0735 0.0735,0.0751 0.0752,0.0752 0.0735,0.0735 0.0752,0.0752 0.0735,0.0735 0.15027,0.15027 0.0735,0.0735 0.0751,0.0752 0.0735,0.0751 0.1486,0.1486 0.0752,0.0751 0.0751,0.0735 0.0752,0.0751 0.0735,0.0735 0.0752,0.0751 0.0735,0.0735 0.0752,0.0768 0.0752,0.0735 0.0735,0.0752 0.0752,0.0735 0.0751,0.0752 0.0735,0.0735 0.0752,0.0751 0.0735,0.0752 0.0752,0.0735 0.0751,0.0752 0.0752,0.0751 0.0735,0.0735 0.0752,0.0751 0.0735,0.0735 0.37235,0.37401 0.0752,0.0735 0.0752,0.0751 0.0735,0.0752 0.0752,0.0735 0.0751,0.0752 0.0735,0.0751 0.0752,0.0735 0.0752,0.0751 0.0735,0.0735 0.0752,0.0752 0.0752,0.0751 0.0735,0.0752 0.0752,0.0735 0.0735,0.0752 0.0752,0.0735 0.0752,0.0751 0.0735,0.0752 0.0752,0.0735 0.0751,0.0752 c 1.57619,1.57786 1.9836,4.63006 0.78977,6.97096 -1.26062,2.46614 -2.62643,5.15267 -4.13249,8.10969 -1.66301,3.26425 -3.50969,6.88915 -5.57009,10.93147 -2.31252,4.53822 -4.93393,9.68254 -7.92101,15.54648 -3.43957,6.7506 -7.44682,14.6132 -12.17706,23.895 l -0.23543,0.4591 -5.74039,11.2654 0,-0 c -0.55768,1.2189 -1.33743,2.3609 -2.34091,3.3644 -3.965517,3.9672 -10.099962,4.4464 -14.593101,1.4443 -9.922974,-6.1762 -19.099597,-13.4777 -27.341192,-21.7143 l 0,0 -0.03847,-0.038 c -8.236586,-8.2416 -15.538145,-17.4182 -21.714333,-27.34119 -3.003774,-4.49313 -2.522903,-10.62758 1.444283,-14.59477 1.003484,-1.00181 2.145553,-1.78156 3.362758,-2.33923 l 0,0" />
  </g>
</svg>
