<?xml version="1.0" encoding="UTF-8" standalone="no"?>
<!-- Created with Inkscape (http://www.inkscape.org/) -->

<svg
   xmlns:dc="http://purl.org/dc/elements/1.1/"
   xmlns:cc="http://creativecommons.org/ns#"
   xmlns:rdf="http://www.w3.org/1999/02/22-rdf-syntax-ns#"
   xmlns:svg="http://www.w3.org/2000/svg"
   xmlns="http://www.w3.org/2000/svg"
   xmlns:sodipodi="http://sodipodi.sourceforge.net/DTD/sodipodi-0.dtd"
   xmlns:inkscape="http://www.inkscape.org/namespaces/inkscape"
   width="100mm"
   height="100mm"
   viewBox="0 0 354.33071 354.3307"
   id="svg2"
   version="1.1"
   inkscape:version="0.91 r13725"
   sodipodi:docname="bioskop_logo.svg">
  <defs
     id="defs4" />
  <sodipodi:namedview
     id="base"
     pagecolor="#ffffff"
     bordercolor="#666666"
     borderopacity="1.0"
     inkscape:pageopacity="0.0"
     inkscape:pageshadow="2"
     inkscape:zoom="0.7"
     inkscape:cx="53.652387"
     inkscape:cy="223.25443"
     inkscape:document-units="px"
     inkscape:current-layer="layer1"
     showgrid="false"
     inkscape:window-width="1680"
     inkscape:window-height="987"
     inkscape:window-x="-8"
     inkscape:window-y="-8"
     inkscape:window-maximized="1" />
  <metadata
     id="metadata7">
    <rdf:RDF>
      <cc:Work
         rdf:about="">
        <dc:format>image/svg+xml</dc:format>
        <dc:type
           rdf:resource="http://purl.org/dc/dcmitype/StillImage" />
        <dc:title></dc:title>
      </cc:Work>
    </rdf:RDF>
  </metadata>
  <g
     inkscape:label="Layer 1"
     inkscape:groupmode="layer"
     id="layer1"
     transform="translate(0,-698.0315)">
    <g
       id="g4149"
       transform="matrix(1.1676034,0,0,1.1676034,-136.83409,137.53762)">
      <g
         transform="matrix(1.25,0,0,-1.25,380.54997,563.9497)"
         id="g4146">
        <path
           inkscape:connector-curvature="0"
           id="path4148"
           style="fill:#bcacc5;fill-opacity:1;fill-rule:evenodd;stroke:none"
           d="M 0,0 -6.747,-3.438 -7.021,-3.58 c -5.559,-2.832 -10.268,-5.232 -14.312,-7.292 -3.511,-1.789 -6.593,-3.36 -9.31,-4.744 -2.421,-1.234 -4.593,-2.34 -6.548,-3.336 -1.771,-0.902 -3.379,-1.72 -4.857,-2.475 -1.401,-0.715 -3.23,-0.471 -4.175,0.474 l -0.044,0.044 -0.045,0.045 -0.044,0.044 -0.045,0.045 -0.045,0.044 -0.044,0.045 -0.045,0.045 -0.045,0.044 -0.044,0.045 -0.045,0.045 -0.045,0.045 -0.044,0.044 -0.045,0.045 -0.045,0.044 -0.044,0.045 -0.045,0.045 -0.044,0.044 -0.045,0.045 -0.044,0.044 -0.045,0.045 -0.045,0.045 -0.045,0.045 -0.044,0.044 -0.045,0.045 -0.045,0.045 -0.044,0.044 -0.045,0.045 -0.045,0.044 -0.044,0.045 -0.045,0.045 -0.044,0.044 -0.045,0.045 -0.044,0.044 -0.045,0.045 -0.045,0.045 -0.045,0.045 -0.044,0.044 -0.045,0.044 -0.044,0.045 -0.045,0.045 -0.045,0.045 -0.044,0.044 -0.045,0.045 -0.045,0.045 -0.044,0.044 -0.045,0.045 -0.045,0.044 -0.044,0.045 -0.045,0.044 -0.044,0.045 -0.045,0.045 -0.045,0.044 -0.044,0.045 -0.045,0.044 -0.044,0.045 -0.045,0.045 -0.044,0.044 -0.045,0.045 -0.044,0.044 -0.045,0.045 -0.045,0.044 -0.044,0.045 -0.045,0.045 -0.045,0.044 -0.044,0.045 -0.045,0.044 -0.044,0.045 -0.045,0.044 -0.044,0.045 -0.045,0.045 -0.044,0.044 -0.045,0.045 -0.044,0.044 -0.089,0.089 -0.045,0.045 -0.045,0.045 -0.044,0.044 -0.045,0.045 -0.045,0.044 -0.044,0.045 -0.045,0.045 -0.044,0.044 -0.045,0.045 -0.044,0.044 -0.09,0.09 -0.045,0.044 -0.044,0.045 -0.045,0.045 -0.044,0.044 -0.045,0.045 -0.045,0.044 -0.044,0.045 -0.045,0.045 -0.045,0.044 -0.044,0.045 -0.045,0.045 -0.044,0.044 -0.09,0.089 -0.044,0.045 -0.045,0.045 -0.045,0.044 -0.044,0.045 -0.045,0.045 -0.089,0.089 -0.044,0.044 -0.045,0.045 -0.089,0.089 -0.045,0.044 -0.045,0.046 -0.044,0.044 -0.045,0.044 -0.044,0.045 -0.045,0.045 -0.044,0.044 -0.045,0.045 -0.045,0.044 -0.044,0.045 -0.045,0.045 -0.044,0.044 -0.045,0.045 -0.045,0.045 -0.044,0.044 -0.021,0.021 -0.045,0.045 -0.044,0.044 -0.09,0.089 -0.044,0.045 -0.045,0.044 -0.045,0.045 -0.044,0.044 -0.044,0.045 -0.045,0.045 -0.089,0.089 -0.045,0.045 -0.045,0.044 -0.044,0.045 -0.045,0.044 -0.044,0.045 -0.045,0.045 -0.045,0.044 -0.134,0.134 -0.044,0.044 -0.089,0.089 -0.045,0.046 -0.044,0.044 -0.045,0.045 -0.045,0.044 -0.044,0.045 -0.045,0.044 -0.045,0.045 -0.044,0.045 -0.045,0.044 -0.089,0.09 -0.045,0.044 -0.044,0.045 -0.045,0.044 -0.045,0.045 -0.044,0.045 -0.089,0.089 -0.045,0.045 -0.044,0.044 -0.045,0.045 -0.09,0.089 -0.044,0.044 -0.045,0.045 -0.044,0.045 -0.089,0.089 -0.134,0.134 -0.045,0.044 -0.044,0.045 -0.045,0.044 -0.045,0.045 -0.044,0.044 -0.044,0.045 -0.045,0.045 -0.045,0.044 -0.044,0.045 -0.045,0.045 -0.044,0.044 -0.045,0.044 -0.045,0.045 -0.044,0.045 -0.044,0.044 -0.045,0.045 -0.09,0.089 -0.044,0.044 -0.045,0.045 -0.044,0.044 -0.045,0.046 -0.044,0.044 -0.045,0.044 -0.089,0.09 -0.044,0.044 -0.045,0.045 -0.045,0.045 -0.045,0.044 -0.044,0.045 -0.045,0.044 -0.045,0.045 -0.044,0.045 -0.045,0.044 -0.044,0.045 -0.045,0.044 -0.045,0.046 -0.044,0.044 -0.045,0.044 -0.045,0.045 -0.044,0.045 -0.045,0.044 -0.045,0.045 -0.044,0.045 -0.045,0.044 -0.045,0.045 -0.044,0.045 -0.045,0.044 -0.044,0.045 -0.045,0.044 -0.045,0.045 -0.044,0.045 -0.045,0.044 -0.044,0.045 -0.046,0.045 -0.044,0.044 -0.089,0.089 -0.045,0.046 -0.044,0.044 -0.09,0.089 -0.044,0.045 -0.045,0.044 -0.045,0.045 -0.044,0.045 -0.045,0.044 -0.045,0.045 -0.044,0.045 -0.045,0.044 -0.045,0.045 c -0.944,0.944 -1.188,2.773 -0.473,4.175 0.755,1.478 1.573,3.086 2.476,4.857 0.995,1.955 2.101,4.126 3.335,6.547 1.385,2.718 2.955,5.799 4.744,9.311 2.06,4.043 4.46,8.752 7.292,14.311 l 0.143,0.275 3.437,6.747 0,-10e-4 c 0.334,0.73 0.801,1.414 1.402,2.015 2.375,2.375 6.049,2.664 8.74,0.864 5.943,-3.699 11.439,-8.071 16.375,-13.004 l 0,0 0.024,-0.023 C -5.193,21.581 -0.82,16.084 2.879,10.142 4.678,7.451 4.39,3.777 2.014,1.402 1.413,0.801 0.73,0.334 0,0 l 0,0" />
      </g>
      <g
         transform="matrix(1.25,0,0,-1.25,247.80622,500.5422)"
         id="g4150">
        <path
           inkscape:connector-curvature="0"
           id="path4152"
           style="fill:#9fc836;fill-opacity:1;fill-rule:evenodd;stroke:none"
           d="m 0,0 1.333,-8.414 0.056,-0.343 c 1.097,-6.932 2.029,-12.805 2.827,-17.848 0.693,-4.379 1.302,-8.221 1.839,-11.611 0.479,-3.019 0.907,-5.726 1.293,-8.164 0.35,-2.208 0.666,-4.214 0.959,-6.058 0.279,-1.748 -0.618,-3.62 -1.957,-4.302 L 6.286,-56.772 6.223,-56.804 6.16,-56.837 6.097,-56.869 6.034,-56.901 5.971,-56.933 5.907,-56.965 5.78,-57.03 5.717,-57.062 5.654,-57.094 5.59,-57.127 5.528,-57.159 5.464,-57.191 5.401,-57.223 5.337,-57.256 5.274,-57.288 5.211,-57.32 5.148,-57.352 5.085,-57.385 5.021,-57.417 4.958,-57.449 4.895,-57.481 4.831,-57.513 4.768,-57.546 4.704,-57.578 4.641,-57.61 4.578,-57.643 4.515,-57.675 4.452,-57.707 4.388,-57.739 4.325,-57.772 4.262,-57.804 4.198,-57.836 4.135,-57.868 4.071,-57.9 4.009,-57.932 3.945,-57.965 3.882,-57.997 3.819,-58.029 3.756,-58.061 3.692,-58.094 3.629,-58.126 3.566,-58.158 3.502,-58.191 3.439,-58.223 3.376,-58.255 3.313,-58.287 3.25,-58.319 3.123,-58.384 3.06,-58.416 2.997,-58.448 2.934,-58.48 2.87,-58.512 2.807,-58.545 2.744,-58.577 2.681,-58.609 2.618,-58.641 2.554,-58.673 2.491,-58.706 2.428,-58.738 2.301,-58.802 2.239,-58.835 2.175,-58.867 2.112,-58.899 2.049,-58.931 1.986,-58.963 1.922,-58.996 1.859,-59.028 1.797,-59.06 1.733,-59.092 1.67,-59.124 1.607,-59.157 1.543,-59.189 1.48,-59.221 1.417,-59.253 1.354,-59.285 1.227,-59.35 1.164,-59.382 1.101,-59.414 1.037,-59.446 0.848,-59.543 0.784,-59.575 0.721,-59.608 0.658,-59.64 0.595,-59.672 0.532,-59.704 0.468,-59.736 0.342,-59.801 0.278,-59.833 0.215,-59.865 0.152,-59.898 0.089,-59.93 l -0.063,-0.032 -0.064,-0.032 -0.126,-0.065 -0.063,-0.032 -0.064,-0.032 -0.063,-0.032 -0.063,-0.032 -0.063,-0.033 -0.063,-0.032 -0.064,-0.032 -0.063,-0.033 -0.064,-0.032 -0.063,-0.032 -0.063,-0.032 -0.063,-0.032 -0.063,-0.032 -0.063,-0.033 -0.064,-0.032 -0.063,-0.032 -0.063,-0.033 -0.064,-0.031 -0.062,-0.033 -0.064,-0.032 -0.063,-0.032 -0.063,-0.032 -0.063,-0.033 -0.063,-0.031 -0.031,-0.016 10e-4,0 -0.063,-0.033 -0.064,-0.032 -0.063,-0.032 -0.063,-0.032 -0.063,-0.032 -0.064,-0.032 -0.062,-0.033 -0.064,-0.032 -0.063,-0.032 -0.063,-0.032 -0.063,-0.033 -0.064,-0.032 -0.063,-0.032 -0.063,-0.032 -0.063,-0.032 -0.063,-0.032 -0.064,-0.033 -0.063,-0.032 -0.063,-0.032 -0.063,-0.033 -0.063,-0.031 -0.064,-0.033 -0.063,-0.032 -0.063,-0.032 -0.064,-0.033 -0.063,-0.032 -0.063,-0.032 -0.063,-0.032 -0.064,-0.032 -0.063,-0.032 -0.063,-0.033 -0.063,-0.032 -0.063,-0.032 -0.064,-0.033 -0.063,-0.032 -0.063,-0.032 -0.064,-0.032 -0.063,-0.032 -0.063,-0.033 -0.063,-0.032 -0.064,-0.032 -0.063,-0.032 -0.063,-0.032 -0.063,-0.033 -0.063,-0.032 -0.064,-0.032 -0.063,-0.033 -0.063,-0.032 -0.063,-0.032 -0.063,-0.032 -0.064,-0.032 -0.063,-0.032 -0.063,-0.033 -0.064,-0.032 -0.063,-0.032 -0.063,-0.033 -0.063,-0.032 -0.063,-0.032 -0.064,-0.032 -0.063,-0.032 -0.063,-0.032 -0.126,-0.065 -0.063,-0.032 -0.063,-0.032 -0.064,-0.032 -0.063,-0.033 -0.063,-0.032 -0.063,-0.032 -0.063,-0.032 -0.063,-0.032 -0.064,-0.032 -0.063,-0.033 -0.063,-0.032 -0.063,-0.032 -0.064,-0.032 -0.063,-0.032 -0.063,-0.033 -0.064,-0.032 -0.063,-0.032 -0.063,-0.032 -0.126,-0.065 -0.063,-0.032 -0.064,-0.032 -0.063,-0.033 -0.063,-0.032 -0.127,-0.064 -0.063,-0.032 -0.063,-0.033 -0.064,-0.032 -0.063,-0.032 -0.063,-0.032 -0.063,-0.033 -0.064,-0.032 -0.063,-0.033 -0.126,-0.063 -0.064,-0.033 -0.063,-0.032 -0.063,-0.032 -0.064,-0.033 -0.063,-0.032 -0.064,-0.032 -0.062,-0.033 -0.064,-0.031 -0.063,-0.033 -0.063,-0.032 -0.064,-0.032 -0.063,-0.033 -0.063,-0.032 -0.064,-0.032 -0.062,-0.032 -0.064,-0.033 -0.063,-0.032 -0.064,-0.032 -0.063,-0.032 -0.063,-0.033 -0.064,-0.032 -0.063,-0.032 -0.063,-0.032 -0.064,-0.032 -0.063,-0.032 -0.063,-0.033 -0.063,-0.032 -0.063,-0.032 -0.064,-0.033 c -1.338,-0.682 -3.38,-0.308 -4.631,0.945 -1.319,1.322 -2.755,2.756 -4.337,4.337 -1.745,1.746 -3.683,3.683 -5.845,5.845 -2.426,2.426 -5.177,5.178 -8.312,8.313 -3.611,3.61 -7.814,7.815 -12.778,12.777 l -0.244,0.247 -6.024,6.024 10e-4,0 c -0.665,0.611 -1.235,1.348 -1.669,2.2 -1.715,3.368 -0.746,7.399 2.114,9.652 6.023,5.073 12.612,9.433 19.607,13 l -0.001,0 0.033,0.017 c 6.996,3.562 14.397,6.33 22.041,8.221 C -6.346,7.595 -2.515,6.01 -0.799,2.642 -0.365,1.791 -0.104,0.897 0,0" />
      </g>
      <g
         transform="matrix(1.25,0,0,-1.25,326.10747,512.35095)"
         id="g4154">
        <path
           inkscape:connector-curvature="0"
           id="path4156"
           style="fill:#a4bdbb;fill-opacity:1;fill-rule:evenodd;stroke:none"
           d="M 0,0 -3.653,-7.169 -3.8,-7.462 c -3.009,-5.906 -5.558,-10.91 -7.747,-15.206 -1.902,-3.731 -3.57,-7.006 -5.041,-9.893 -1.311,-2.572 -2.486,-4.879 -3.545,-6.955 -0.958,-1.882 -1.83,-3.591 -2.629,-5.162 -0.758,-1.49 -2.482,-2.422 -3.884,-2.201 l -0.067,0.011 -0.066,0.011 -0.066,0.01 -0.067,0.011 -0.065,0.01 -0.067,0.011 -0.066,0.01 -0.066,0.011 -0.066,0.01 -0.067,0.01 -0.132,0.022 -0.066,0.01 -0.067,0.011 -0.066,0.01 -0.066,0.011 -0.066,0.01 -0.066,0.011 -0.067,0.01 -0.066,0.01 -0.066,0.011 -0.067,0.011 -0.066,0.01 -0.066,0.01 -0.066,0.011 -0.067,0.01 -0.132,0.021 -0.067,0.011 -0.132,0.021 -0.067,0.011 -0.066,0.01 -0.066,0.01 -0.198,0.032 -0.067,0.011 -0.066,0.01 -0.066,0.011 -0.066,0.01 -0.067,0.011 -0.066,0.01 -0.066,0.01 -0.066,0.011 -0.066,0.01 -0.067,0.011 -0.066,0.01 -0.066,0.011 -0.066,0.01 -0.133,0.021 -0.066,0.011 -0.066,0.01 -0.067,0.011 -0.065,0.01 -0.067,0.011 -0.066,0.01 -0.066,0.011 -0.066,0.01 -0.066,0.01 -0.066,0.011 -0.067,0.011 -0.066,0.01 -0.066,0.01 -0.066,0.011 -0.066,0.01 -0.132,0.021 -0.067,0.011 -0.065,0.01 -0.067,0.011 -0.066,0.01 -0.066,0.011 -0.066,0.01 -0.066,0.011 -0.067,0.01 -0.066,0.011 -0.066,0.01 -0.132,0.021 -0.066,0.01 -0.067,0.011 -0.066,0.01 -0.066,0.011 -0.066,0.01 -0.066,0.011 -0.067,0.011 -0.066,0.01 -0.066,0.011 -0.066,0.01 -0.067,0.01 -0.066,0.011 -0.132,0.021 -0.067,0.01 -0.066,0.011 -0.066,0.011 -0.066,0.01 -0.066,0.01 -0.067,0.011 -0.066,0.01 -0.066,0.011 -0.066,0.011 -0.066,0.01 -0.067,0.01 -0.066,0.011 -0.066,0.01 -0.066,0.011 -0.066,0.01 -0.067,0.011 -0.066,0.01 -0.066,0.011 -0.066,0.01 -0.066,0.011 -0.067,0.01 -0.066,0.011 -0.066,0.01 -0.066,0.011 -0.066,0.01 -0.067,0.011 -0.066,0.01 -0.066,0.011 -0.132,0.02 -0.066,0.011 -0.066,0.01 -0.032,0.005 0,0 -0.066,0.011 -0.066,0.01 -0.066,0.01 -0.067,0.011 -0.065,0.01 -0.067,0.011 -0.066,0.011 -0.066,0.01 -0.066,0.01 -0.066,0.011 -0.067,0.01 -0.066,0.011 -0.066,0.01 -0.132,0.021 -0.067,0.011 -0.066,0.01 -0.066,0.011 -0.067,0.01 -0.065,0.01 -0.067,0.012 -0.066,0.01 -0.066,0.011 -0.066,0.01 -0.066,0.01 -0.067,0.011 -0.065,0.01 -0.067,0.01 -0.066,0.011 -0.066,0.011 -0.067,0.01 -0.066,0.011 -0.066,0.01 -0.067,0.011 -0.065,0.01 -0.067,0.011 -0.066,0.01 -0.066,0.011 -0.066,0.01 -0.066,0.011 -0.067,0.01 -0.067,0.01 -0.065,0.011 -0.067,0.01 -0.066,0.011 -0.132,0.021 -0.066,0.011 -0.066,0.01 -0.067,0.01 -0.066,0.011 -0.066,0.01 -0.066,0.011 -0.066,0.01 -0.067,0.011 -0.066,0.01 -0.066,0.011 -0.066,0.01 -0.066,0.011 -0.066,0.01 -0.066,0.01 -0.067,0.011 -0.066,0.011 -0.066,0.01 -0.066,0.01 -0.066,0.011 -0.066,0.011 -0.066,0.01 -0.198,0.031 -0.067,0.011 -0.066,0.011 -0.067,0.01 -0.066,0.01 -0.066,0.011 -0.066,0.01 -0.066,0.011 -0.066,0.01 -0.067,0.011 -0.066,0.01 -0.066,0.011 -0.066,0.01 -0.066,0.011 -0.066,0.01 -0.067,0.011 -0.066,0.01 -0.067,0.011 -0.065,0.01 -0.067,0.011 -0.066,0.01 -0.066,0.01 -0.067,0.011 -0.066,0.011 -0.132,0.021 -0.066,0.01 -0.067,0.011 -0.066,0.01 -0.067,0.011 -0.065,0.01 -0.067,0.01 -0.066,0.011 -0.066,0.01 -0.132,0.021 -0.067,0.011 -0.066,0.011 -0.066,0.01 -0.133,0.021 -0.066,0.01 -0.067,0.011 -0.065,0.011 -0.067,0.01 -0.066,0.01 -0.066,0.011 -0.067,0.011 -0.066,0.01 -0.067,0.011 -0.065,0.01 -0.067,0.01 -0.066,0.011 -0.066,0.011 -0.066,0.01 -0.067,0.01 -0.132,0.021 c -1.401,0.222 -2.754,1.641 -3.014,3.293 -0.274,1.742 -0.576,3.635 -0.906,5.721 -0.365,2.303 -0.77,4.859 -1.222,7.711 -0.507,3.201 -1.081,6.831 -1.737,10.966 -0.754,4.762 -1.632,10.309 -2.669,16.856 l -0.05,0.325 -1.258,7.946 c -0.169,0.836 -0.194,1.715 -0.053,2.607 0.558,3.525 3.536,6.068 6.973,6.202 7.418,0.532 14.874,0.206 22.197,-0.952 l 0.035,-0.005 C -17.942,15.307 -10.75,13.314 -3.859,10.516 -0.632,9.326 1.414,5.988 0.856,2.462 0.715,1.571 0.419,0.742 0,0" />
      </g>
      <g
         transform="matrix(1.25,0,0,-1.25,174.99997,541.49095)"
         id="g4158">
        <path
           inkscape:connector-curvature="0"
           id="path4160"
           style="fill:#f5b31c;fill-opacity:1;fill-rule:evenodd;stroke:none"
           d="m 0,0 6.023,-6.024 0.248,-0.244 c 4.962,-4.963 9.168,-9.167 12.778,-12.777 3.134,-3.136 5.886,-5.887 8.312,-8.313 2.162,-2.162 4.1,-4.099 5.845,-5.845 1.581,-1.582 3.016,-3.018 4.337,-4.337 1.253,-1.251 1.627,-3.292 0.945,-4.631 l -0.032,-0.063 -0.033,-0.063 -0.032,-0.064 -0.032,-0.063 -0.033,-0.063 -0.032,-0.064 -0.032,-0.063 -0.032,-0.063 -0.032,-0.064 -0.033,-0.063 -0.032,-0.063 -0.032,-0.063 -0.033,-0.064 -0.032,-0.063 -0.032,-0.063 -0.032,-0.063 -0.032,-0.064 -0.033,-0.063 -0.032,-0.063 -0.032,-0.063 -0.033,-0.064 -0.032,-0.063 -0.032,-0.063 -0.032,-0.064 -0.033,-0.063 -0.032,-0.064 -0.032,-0.063 -0.032,-0.063 -0.032,-0.063 -0.033,-0.063 -0.032,-0.063 -0.032,-0.064 -0.032,-0.063 -0.032,-0.063 -0.033,-0.064 -0.032,-0.063 -0.032,-0.063 -0.032,-0.063 -0.065,-0.127 -0.032,-0.063 -0.033,-0.064 -0.031,-0.063 -0.033,-0.063 -0.032,-0.063 -0.032,-0.063 -0.033,-0.064 -0.031,-0.063 -0.033,-0.063 -0.032,-0.063 -0.032,-0.064 -0.032,-0.063 -0.033,-0.063 -0.032,-0.064 -0.032,-0.063 -0.032,-0.063 -0.033,-0.063 -0.032,-0.063 -0.032,-0.063 -0.032,-0.064 -0.032,-0.063 -0.032,-0.063 -0.033,-0.063 -0.032,-0.063 -0.032,-0.063 -0.032,-0.063 -0.033,-0.064 -0.032,-0.063 -0.032,-0.063 -0.032,-0.063 -0.032,-0.063 -0.032,-0.064 -0.033,-0.063 -0.032,-0.063 -0.032,-0.063 -0.032,-0.063 -0.033,-0.064 -0.032,-0.063 -0.032,-0.063 -0.032,-0.063 -0.032,-0.064 -0.033,-0.063 -0.032,-0.063 -0.032,-0.063 -0.032,-0.064 -0.032,-0.063 -0.033,-0.063 -0.032,-0.063 -0.032,-0.063 -0.032,-0.064 -0.033,-0.063 -0.032,-0.063 -0.032,-0.063 -0.032,-0.064 -0.032,-0.063 -0.033,-0.064 -0.032,-0.062 -0.032,-0.064 -0.033,-0.063 -0.031,-0.063 -0.033,-0.063 -0.032,-0.064 -0.032,-0.063 -0.033,-0.063 -0.032,-0.063 -0.032,-0.064 -0.032,-0.063 -0.032,-0.063 -0.032,-0.063 -0.033,-0.064 -0.032,-0.063 -0.032,-0.063 -0.033,-0.063 -0.032,-0.063 -0.032,-0.064 -0.032,-0.063 -0.032,-0.063 -0.033,-0.063 -0.032,-0.064 -0.032,-0.063 -0.032,-0.063 -0.032,-0.063 -0.033,-0.064 -0.032,-0.063 -0.032,-0.062 -0.032,-0.064 -0.032,-0.063 -0.016,-0.03 10e-4,0 -0.032,-0.063 -0.033,-0.064 -0.032,-0.063 -0.032,-0.063 -0.032,-0.063 -0.033,-0.063 -0.032,-0.064 -0.032,-0.063 -0.032,-0.063 -0.032,-0.063 -0.033,-0.064 -0.032,-0.062 -0.032,-0.064 -0.032,-0.063 -0.032,-0.063 -0.033,-0.063 -0.032,-0.064 -0.032,-0.063 -0.032,-0.063 -0.032,-0.063 -0.033,-0.064 -0.032,-0.063 -0.032,-0.063 -0.032,-0.063 -0.032,-0.063 -0.033,-0.064 -0.032,-0.063 -0.032,-0.063 -0.032,-0.064 -0.033,-0.063 -0.032,-0.063 -0.032,-0.063 -0.032,-0.063 -0.032,-0.064 -0.033,-0.063 -0.032,-0.063 -0.032,-0.064 -0.033,-0.063 -0.032,-0.063 -0.032,-0.063 -0.032,-0.063 -0.032,-0.064 -0.033,-0.063 -0.032,-0.063 -0.032,-0.064 -0.033,-0.063 -0.031,-0.063 -0.033,-0.064 -0.032,-0.062 -0.032,-0.064 -0.032,-0.063 -0.033,-0.063 -0.032,-0.063 -0.032,-0.064 -0.032,-0.063 -0.032,-0.063 -0.033,-0.063 -0.032,-0.063 -0.032,-0.064 -0.032,-0.063 -0.033,-0.063 -0.032,-0.063 -0.032,-0.063 -0.032,-0.063 -0.032,-0.063 -0.032,-0.064 -0.032,-0.062 -0.033,-0.064 -0.032,-0.063 -0.032,-0.063 -0.032,-0.064 -0.033,-0.063 -0.031,-0.063 -0.033,-0.063 -0.032,-0.063 -0.032,-0.064 -0.033,-0.063 -0.032,-0.063 -0.032,-0.063 -0.032,-0.064 -0.032,-0.063 -0.065,-0.126 -0.032,-0.063 -0.033,-0.064 -0.031,-0.063 -0.033,-0.064 -0.032,-0.063 -0.032,-0.063 -0.033,-0.063 -0.032,-0.063 -0.032,-0.064 -0.032,-0.063 -0.033,-0.064 -0.032,-0.062 -0.032,-0.064 -0.032,-0.063 -0.032,-0.063 -0.033,-0.063 -0.032,-0.064 -0.032,-0.063 -0.032,-0.063 -0.032,-0.064 -0.065,-0.126 -0.032,-0.063 -0.033,-0.064 -0.032,-0.063 -0.032,-0.063 -0.032,-0.064 -0.032,-0.063 -0.033,-0.063 -0.032,-0.064 -0.032,-0.063 -0.033,-0.063 -0.032,-0.063 -0.032,-0.063 -0.033,-0.064 -0.032,-0.063 -0.032,-0.064 -0.032,-0.063 -0.032,-0.063 -0.033,-0.063 -0.032,-0.064 -0.032,-0.063 -0.032,-0.063 -0.033,-0.063 -0.032,-0.064 c -0.682,-1.339 -2.554,-2.236 -4.302,-1.957 -1.843,0.294 -3.849,0.61 -6.057,0.959 -2.439,0.386 -5.146,0.815 -8.165,1.293 -3.389,0.537 -7.232,1.146 -11.611,1.839 -5.043,0.798 -10.915,1.73 -17.847,2.827 l -0.343,0.057 -8.414,1.332 0,10e-4 c -0.897,0.103 -1.791,0.365 -2.643,0.799 -3.367,1.716 -4.953,5.547 -3.963,9.051 1.891,7.644 4.659,15.044 8.221,22.041 l 0,0 0.016,0.033 c 3.567,6.994 7.927,13.583 13,19.606 2.254,2.86 6.284,3.829 9.652,2.114 C -1.348,1.234 -0.611,0.664 0,0 l 0,0" />
      </g>
      <g
         transform="matrix(1.25,0,0,-1.25,143.01622,615.87845)"
         id="g4162">
        <path
           inkscape:connector-curvature="0"
           id="path4164"
           style="fill:#f5925a;fill-opacity:1;fill-rule:evenodd;stroke:none"
           d="m 0,0 7.946,-1.259 0.325,-0.05 c 6.547,-1.036 12.094,-1.914 16.856,-2.669 4.136,-0.655 7.766,-1.23 10.966,-1.736 2.852,-0.452 5.408,-0.857 7.711,-1.222 2.086,-0.33 3.979,-0.632 5.721,-0.906 1.652,-0.26 3.071,-1.612 3.293,-3.014 l 0.011,-0.066 0.01,-0.067 0.01,-0.066 0.011,-0.066 0.01,-0.066 0.011,-0.066 0.011,-0.067 0.01,-0.066 0.01,-0.066 0.011,-0.066 0.01,-0.067 0.011,-0.066 0.01,-0.066 0.011,-0.066 0.011,-0.067 0.01,-0.066 0.011,-0.066 0.01,-0.066 0.01,-0.066 0.011,-0.067 0.01,-0.066 0.011,-0.067 0.01,-0.066 0.011,-0.066 0.01,-0.066 0.011,-0.066 0.01,-0.067 0.011,-0.066 0.01,-0.066 0.011,-0.066 0.01,-0.067 0.011,-0.066 0.01,-0.066 0.011,-0.067 0.01,-0.066 0.011,-0.066 0.01,-0.066 0.011,-0.066 0.01,-0.067 0.011,-0.065 0.01,-0.067 0.011,-0.066 0.01,-0.066 0.011,-0.067 0.01,-0.066 0.011,-0.066 0.01,-0.067 0.011,-0.065 0.01,-0.067 0.011,-0.066 0.01,-0.066 0.011,-0.066 0.01,-0.067 0.011,-0.066 0.01,-0.066 0.01,-0.066 0.011,-0.066 0.011,-0.066 0.01,-0.066 0.01,-0.067 0.011,-0.066 0.01,-0.066 0.011,-0.066 0.01,-0.066 0.011,-0.066 0.01,-0.066 0.011,-0.066 0.01,-0.067 0.011,-0.066 0.01,-0.066 0.011,-0.066 0.01,-0.066 0.011,-0.067 0.01,-0.066 0.011,-0.066 0.01,-0.066 0.011,-0.066 0.01,-0.067 0.011,-0.066 0.01,-0.066 0.01,-0.066 0.011,-0.066 0.01,-0.066 0.011,-0.066 0.01,-0.067 0.011,-0.066 0.01,-0.066 0.011,-0.066 0.01,-0.067 0.011,-0.066 0.01,-0.066 0.011,-0.066 0.011,-0.067 0.01,-0.066 0.01,-0.066 0.011,-0.067 0.01,-0.065 0.011,-0.067 0.01,-0.065 0.011,-0.067 0.01,-0.067 0.011,-0.065 0.011,-0.067 0.01,-0.066 0.01,-0.066 0.01,-0.066 0.011,-0.067 0.011,-0.066 0.01,-0.066 0.011,-0.066 0.01,-0.066 0.011,-0.067 0.01,-0.066 0.011,-0.066 0.01,-0.066 0.01,-0.066 0.011,-0.066 0.011,-0.067 0.01,-0.066 0.011,-0.066 0.01,-0.066 0.01,-0.066 0.011,-0.067 0.01,-0.066 0.011,-0.066 0.01,-0.066 0.011,-0.066 0.005,-0.031 0.011,-0.067 0.01,-0.066 0.011,-0.066 0.01,-0.066 0.01,-0.066 0.011,-0.067 0.01,-0.065 0.011,-0.066 0.01,-0.067 0.011,-0.066 0.01,-0.066 0.011,-0.066 0.01,-0.066 0.011,-0.067 0.01,-0.066 0.011,-0.066 0.01,-0.066 0.011,-0.067 0.01,-0.066 0.011,-0.066 0.01,-0.066 0.011,-0.066 0.01,-0.066 0.01,-0.067 0.011,-0.066 0.011,-0.066 0.01,-0.066 0.01,-0.066 0.011,-0.067 0.01,-0.066 0.011,-0.066 0.011,-0.066 0.01,-0.067 0.011,-0.066 0.01,-0.066 0.01,-0.066 0.011,-0.067 0.01,-0.065 0.011,-0.067 0.01,-0.066 0.011,-0.067 0.011,-0.066 0.01,-0.066 0.01,-0.066 0.011,-0.066 0.01,-0.066 0.011,-0.066 0.01,-0.067 0.011,-0.066 0.01,-0.066 0.011,-0.066 0.01,-0.067 0.011,-0.066 0.01,-0.066 0.01,-0.066 0.011,-0.067 0.011,-0.066 0.01,-0.065 0.011,-0.067 0.01,-0.066 0.01,-0.066 0.011,-0.066 0.01,-0.066 0.011,-0.067 0.01,-0.066 0.011,-0.066 0.01,-0.066 0.011,-0.066 0.01,-0.066 0.011,-0.066 0.01,-0.066 0.011,-0.067 0.01,-0.066 0.011,-0.066 0.01,-0.066 0.011,-0.066 0.01,-0.066 0.011,-0.067 0.01,-0.066 0.011,-0.066 0.01,-0.066 0.011,-0.066 0.01,-0.067 0.011,-0.066 0.01,-0.066 0.021,-0.133 0.01,-0.066 0.011,-0.066 0.01,-0.066 0.011,-0.067 0.01,-0.066 0.011,-0.066 0.01,-0.066 0.011,-0.066 0.01,-0.067 0.011,-0.066 0.011,-0.066 0.01,-0.066 0.011,-0.067 0.01,-0.066 0.01,-0.066 0.011,-0.067 0.01,-0.065 0.011,-0.067 0.01,-0.066 0.011,-0.067 0.011,-0.066 0.01,-0.066 0.01,-0.066 0.011,-0.067 0.01,-0.066 0.011,-0.066 0.01,-0.066 0.011,-0.066 0.01,-0.067 0.011,-0.066 0.01,-0.066 0.011,-0.067 0.01,-0.066 0.011,-0.066 0.01,-0.066 0.011,-0.067 0.01,-0.065 0.011,-0.067 0.01,-0.066 0.011,-0.066 0.01,-0.067 c 0.222,-1.401 -0.71,-3.126 -2.2,-3.884 -1.572,-0.799 -3.28,-1.671 -5.162,-2.629 -2.076,-1.059 -4.383,-2.234 -6.955,-3.545 -2.888,-1.471 -6.162,-3.139 -9.893,-5.04 -4.296,-2.19 -9.3,-4.739 -15.206,-7.748 l -0.293,-0.147 -7.169,-3.653 c -0.743,-0.419 -1.571,-0.715 -2.463,-0.856 -3.525,-0.558 -6.863,1.489 -8.053,4.715 -2.798,6.891 -4.792,14.082 -5.954,21.405 l 0,0 -0.006,0.035 c -1.157,7.324 -1.483,14.779 -0.952,22.197 0.134,3.436 2.677,6.415 6.202,6.973 C -1.715,0.194 -0.836,0.169 0,0 l 0,0" />
      </g>
      <g
         transform="matrix(1.25,0,0,-1.25,159.56747,692.0947)"
         id="g4166">
        <path
           inkscape:connector-curvature="0"
           id="path4168"
           style="fill:#ec393d;fill-opacity:1;fill-rule:evenodd;stroke:none"
           d="M 0,0 6.747,3.438 7.021,3.58 c 5.559,2.831 10.268,5.232 14.312,7.292 3.512,1.789 6.593,3.359 9.311,4.744 2.421,1.234 4.592,2.34 6.547,3.336 1.771,0.902 3.379,1.72 4.857,2.475 1.402,0.716 3.23,0.471 4.175,-0.474 l 0.044,-0.044 0.045,-0.045 0.045,-0.044 0.044,-0.045 0.045,-0.044 0.089,-0.09 0.044,-0.045 0.046,-0.044 0.044,-0.045 0.045,-0.045 0.044,-0.044 0.045,-0.045 0.044,-0.045 0.045,-0.044 0.089,-0.089 0.045,-0.045 0.045,-0.045 0.044,-0.044 0.045,-0.045 0.045,-0.045 0.089,-0.089 0.045,-0.044 0.044,-0.045 0.045,-0.045 0.045,-0.044 0.044,-0.045 0.045,-0.045 0.045,-0.044 0.044,-0.045 0.045,-0.045 0.089,-0.089 0.045,-0.045 0.044,-0.044 0.045,-0.045 0.045,-0.044 0.044,-0.045 0.045,-0.045 0.044,-0.044 0.045,-0.045 0.045,-0.044 0.045,-0.045 0.044,-0.045 0.045,-0.044 0.044,-0.045 0.045,-0.044 0.044,-0.045 0.045,-0.045 0.044,-0.044 0.045,-0.045 0.045,-0.045 0.044,-0.044 0.045,-0.045 0.045,-0.045 0.044,-0.044 0.045,-0.044 0.044,-0.045 0.045,-0.045 0.044,-0.044 0.045,-0.045 0.044,-0.044 0.045,-0.045 0.045,-0.044 0.044,-0.045 0.089,-0.089 0.045,-0.045 0.045,-0.044 0.044,-0.045 0.045,-0.044 0.044,-0.045 0.045,-0.045 0.044,-0.044 0.045,-0.045 0.044,-0.045 0.045,-0.044 0.045,-0.044 0.044,-0.045 0.045,-0.045 0.045,-0.044 0.044,-0.045 0.045,-0.044 0.044,-0.045 0.045,-0.045 0.045,-0.045 0.044,-0.044 0.045,-0.045 0.044,-0.044 0.045,-0.045 0.045,-0.044 0.044,-0.045 0.045,-0.045 0.045,-0.044 0.044,-0.045 0.045,-0.045 0.045,-0.044 0.044,-0.045 0.045,-0.045 0.044,-0.044 0.045,-0.045 0.044,-0.044 0.045,-0.045 0.045,-0.045 0.044,-0.044 0.045,-0.045 0.044,-0.044 0.045,-0.045 0.045,-0.044 0.044,-0.046 0.045,-0.044 0.045,-0.044 0.044,-0.045 0.045,-0.045 0.044,-0.044 0.09,-0.089 0.044,-0.045 0.045,-0.044 0.044,-0.045 0.045,-0.045 0.044,-0.044 0.045,-0.045 0.044,-0.044 0.045,-0.045 0.021,-0.021 0,0 0.045,-0.045 0.045,-0.044 0.044,-0.045 0.044,-0.044 0.046,-0.045 0.044,-0.044 0.044,-0.045 0.045,-0.044 0.045,-0.045 0.044,-0.044 0.045,-0.045 0.044,-0.045 0.045,-0.045 0.045,-0.044 0.044,-0.045 0.045,-0.044 0.045,-0.045 0.044,-0.044 0.045,-0.045 0.044,-0.044 0.045,-0.045 0.044,-0.045 0.045,-0.044 0.045,-0.045 0.044,-0.045 0.045,-0.044 0.045,-0.045 0.044,-0.045 0.045,-0.044 0.044,-0.045 0.045,-0.044 0.045,-0.045 0.045,-0.045 0.044,-0.044 0.045,-0.045 0.044,-0.044 0.045,-0.046 0.044,-0.044 0.045,-0.044 0.044,-0.045 0.045,-0.045 0.045,-0.044 0.044,-0.045 0.045,-0.044 0.045,-0.045 0.044,-0.045 0.045,-0.044 0.044,-0.045 0.045,-0.045 0.045,-0.044 0.044,-0.044 0.045,-0.045 0.045,-0.045 0.044,-0.044 0.045,-0.045 0.044,-0.044 0.045,-0.045 0.044,-0.045 0.045,-0.044 0.045,-0.045 0.044,-0.045 0.045,-0.044 0.044,-0.045 0.045,-0.044 0.044,-0.045 0.045,-0.044 0.045,-0.045 0.044,-0.044 0.045,-0.045 0.044,-0.045 0.045,-0.044 0.045,-0.044 0.044,-0.045 0.045,-0.045 0.044,-0.044 0.045,-0.045 0.044,-0.044 0.09,-0.09 0.044,-0.044 0.045,-0.045 0.044,-0.045 0.089,-0.089 0.045,-0.045 0.045,-0.044 0.045,-0.045 0.044,-0.044 0.045,-0.045 0.044,-0.044 0.045,-0.046 0.045,-0.044 0.044,-0.045 0.045,-0.044 0.045,-0.045 0.044,-0.044 0.045,-0.045 0.044,-0.045 0.045,-0.044 0.045,-0.045 0.045,-0.045 0.044,-0.044 0.045,-0.045 0.044,-0.044 0.223,-0.224 0.045,-0.044 0.045,-0.045 0.044,-0.045 0.045,-0.044 0.045,-0.045 0.044,-0.045 0.045,-0.044 0.045,-0.045 0.044,-0.044 L 57.218,9.959 57.263,9.914 57.307,9.869 57.352,9.825 57.396,9.78 57.441,9.736 57.486,9.691 57.53,9.646 57.575,9.602 57.62,9.557 C 58.564,8.612 58.808,6.784 58.093,5.382 57.338,3.905 56.52,2.296 55.618,0.525 54.622,-1.43 53.516,-3.601 52.282,-6.022 c -1.385,-2.718 -2.955,-5.799 -4.744,-9.311 -2.06,-4.043 -4.46,-8.752 -7.293,-14.311 l -0.141,-0.275 -3.438,-6.747 0,10e-4 c -0.334,-0.73 -0.801,-1.414 -1.402,-2.015 -2.375,-2.376 -6.049,-2.663 -8.74,-0.865 -5.943,3.699 -11.439,8.072 -16.375,13.005 l 0,0 -0.023,0.023 c -4.933,4.936 -9.306,10.432 -13.005,16.375 -1.799,2.691 -1.511,6.365 0.865,8.741 0.601,0.6 1.285,1.067 2.014,1.401 l 0,0" />
      </g>
      <g
         transform="matrix(1.25,0,0,-1.25,377.55247,724.36595)"
         id="g4170">
        <path
           sodipodi:nodetypes="ccccccccccsccccccccccccccsccccccccccccccccsscc"
           inkscape:connector-curvature="0"
           id="path4172"
           style="fill:#231f20;fill-opacity:1;fill-rule:nonzero;stroke:none"
           d="m 0,0 c -0.024,3.459 -0.726,6.676 -2.081,9.652 -1.354,2.951 -3.241,5.467 -5.66,7.571 -2.419,2.08 -5.201,3.556 -8.37,4.403 l 0,0.435 c 2.855,1.282 5.274,3 7.281,5.128 1.984,2.153 3.484,4.596 4.524,7.353 1.016,2.734 1.548,5.637 1.548,8.709 -0.024,5.467 -1.379,10.039 -4.064,13.691 -2.66,3.653 -6.507,6.386 -11.514,8.225 -5.032,1.838 -11.055,2.758 -18.094,2.758 -3.023,0 -6.12,-0.025 -9.313,-0.049 -3.169,-0.049 -6.289,-0.096 -9.385,-0.145 -3.096,-0.072 -6.048,-0.145 -8.83,-0.242 -2.806,-0.073 -5.321,-0.169 -7.595,-0.29 l 0,-97.823 c 7.136,0 13.304,-0.049 18.529,-0.146 5.225,-0.072 9.385,-0.12 12.531,-0.145 7.111,0.025 13.207,0.896 18.335,2.54 5.104,1.669 9.313,3.943 12.579,6.822 3.265,2.878 5.684,6.168 7.256,9.869 C -0.774,-7.983 0.024,-4.088 0,0 Z m -26.706,39.768 c 0.025,-2.468 -0.508,-4.596 -1.572,-6.386 -1.064,-1.766 -2.733,-3.121 -5.031,-4.064 -2.274,-0.968 -5.249,-1.452 -8.926,-1.452 -1.307,0 -2.516,0 -3.604,0.025 -1.114,0 -2.129,0.048 -3.073,0.12 l 0,21.771 c 1.234,0.073 2.54,0.145 3.968,0.194 1.427,0.072 2.999,0.096 4.741,0.096 4.62,-0.024 8.031,-0.967 10.232,-2.806 2.201,-1.838 3.29,-4.33 3.265,-7.498 z m 2.468,-40.203 c 0,-2.492 -0.629,-4.645 -1.838,-6.484 -1.234,-1.838 -3,-3.289 -5.371,-4.305 -2.346,-1.016 -5.225,-1.524 -8.611,-1.548 -0.992,0 -2.032,0.024 -3.169,0.072 -1.113,0.049 -2.177,0.121 -3.193,0.194 -1.016,0.048 -1.838,0.121 -2.492,0.169 l 0,23.367 c 0.629,0.049 1.451,0.073 2.468,0.097 1.04,0.024 2.032,0.048 2.999,0.048 l 2.081,0 c 5.466,0 9.699,-0.991 12.651,-2.975 2.951,-1.959 4.45,-4.838 4.475,-8.635 z" />
      </g>
    </g>
  </g>
</svg>
