<svg xmlns="http://www.w3.org/2000/svg" viewBox="0 0 214.56 214.56"><defs><style>.cls-1,.cls-3{fill:#fff;}.cls-2{fill:none;}.cls-2,.cls-3{stroke:#6694fb;stroke-linecap:round;stroke-linejoin:round;stroke-width:3px;}</style></defs><title>ikony_aktivity_novybarvy</title><g id="Vrstva_14" data-name="Vrstva 14"><circle class="cls-1" cx="107.5" cy="107.5" r="107.5"/></g><g id="Vrstva_20" data-name="Vrstva 20"><ellipse class="cls-2" cx="74.49" cy="87.58" rx="35.58" ry="52.57"/><ellipse class="cls-3" cx="135.97" cy="108.77" rx="39.69" ry="46.46"/><line class="cls-2" x1="74.49" y1="100.5" x2="74.49" y2="174.07"/><line class="cls-2" x1="135.97" y1="90.79" x2="135.97" y2="174.07"/><line class="cls-3" x1="119.97" y1="98.32" x2="135.97" y2="112.93"/><line class="cls-3" x1="119.97" y1="110.36" x2="135.97" y2="124.97"/><line class="cls-3" x1="119.97" y1="121.62" x2="135.97" y2="136.23"/><line class="cls-3" x1="151.97" y1="98.32" x2="135.97" y2="112.93"/><line class="cls-3" x1="151.97" y1="110.36" x2="135.97" y2="124.97"/><line class="cls-3" x1="151.97" y1="121.62" x2="135.97" y2="136.23"/><line class="cls-2" x1="62.53" y1="162" x2="62.53" y2="174.07"/><line class="cls-2" x1="84.03" y1="168.36" x2="84.03" y2="174.07"/><line class="cls-2" x1="89.65" y1="168.36" x2="89.65" y2="174.07"/><line class="cls-2" x1="119.57" y1="162.4" x2="119.57" y2="174.07"/><line class="cls-2" x1="112.49" y1="169.31" x2="112.49" y2="174.07"/><line class="cls-2" x1="100.07" y1="158.29" x2="100.07" y2="174.07"/><line class="cls-2" x1="146.57" y1="169.37" x2="146.57" y2="174.07"/><line class="cls-2" x1="162.9" y1="179.54" x2="44.76" y2="179.54"/></g></svg>