<?xml version="1.0" encoding="UTF-8" standalone="no"?>
<!-- Created with Inkscape (http://www.inkscape.org/) -->

<svg
   xmlns:dc="http://purl.org/dc/elements/1.1/"
   xmlns:cc="http://creativecommons.org/ns#"
   xmlns:rdf="http://www.w3.org/1999/02/22-rdf-syntax-ns#"
   xmlns:svg="http://www.w3.org/2000/svg"
   xmlns="http://www.w3.org/2000/svg"
   xmlns:sodipodi="http://sodipodi.sourceforge.net/DTD/sodipodi-0.dtd"
   xmlns:inkscape="http://www.inkscape.org/namespaces/inkscape"
   width="100mm"
   height="100mm"
   viewBox="0 0 100 100"
   version="1.1"
   id="svg8"
   inkscape:version="0.91 r13725"
   sodipodi:docname="boh-zeme_logo.svg">
  <defs
     id="defs2" />
  <sodipodi:namedview
     id="base"
     pagecolor="#ffffff"
     bordercolor="#666666"
     borderopacity="1.0"
     inkscape:pageopacity="0.0"
     inkscape:pageshadow="2"
     inkscape:zoom="1.4"
     inkscape:cx="39.257858"
     inkscape:cy="267.14821"
     inkscape:document-units="mm"
     inkscape:current-layer="layer1"
     showgrid="false"
     inkscape:window-width="1680"
     inkscape:window-height="987"
     inkscape:window-x="-8"
     inkscape:window-y="-8"
     inkscape:window-maximized="1" />
  <metadata
     id="metadata5">
    <rdf:RDF>
      <cc:Work
         rdf:about="">
        <dc:format>image/svg+xml</dc:format>
        <dc:type
           rdf:resource="http://purl.org/dc/dcmitype/StillImage" />
        <dc:title></dc:title>
      </cc:Work>
    </rdf:RDF>
  </metadata>
  <g
     inkscape:label="Layer 1"
     inkscape:groupmode="layer"
     id="layer1"
     transform="translate(0,-197)">
    <g
       id="g4166"
       transform="matrix(2.2057987,0,0,2.2057987,-114.14968,32.795421)">
      <path
         d="m 76.876151,75.843953 0,0 c 0.26035,0.122414 0.529872,0.246945 0.808919,0.37712 0.288925,0.134761 0.587728,0.272697 0.89782,0.418042 0.305505,-0.145345 0.60078,-0.283281 0.885472,-0.418042 0.274461,-0.130175 0.541514,-0.254706 0.798336,-0.37712 -0.56515,0 -1.131006,0 -1.69545,0 -0.564797,0 -1.130653,0 -1.695097,0 z m -0.343606,0.132292 0,0 c -0.139347,0.532695 -0.300214,1.144059 -0.48895,1.860197 0.402872,-0.191205 0.789517,-0.372533 1.160639,-0.547863 0.356305,-0.168628 0.700264,-0.328437 1.030817,-0.486481 -0.309739,-0.150636 -0.608895,-0.293158 -0.896762,-0.433211 -0.277283,-0.135114 -0.546452,-0.264936 -0.805744,-0.392642 z m 2.401711,0.828322 0,0 c 0.334434,0.155575 0.68192,0.3175 1.044222,0.486481 0.374651,0.174978 0.767292,0.356658 1.175809,0.547864 -0.208492,-0.718608 -0.385939,-1.329972 -0.540456,-1.862667 -0.255764,0.127706 -0.521758,0.257528 -0.795161,0.392642 -0.283986,0.140053 -0.579261,0.282575 -0.884414,0.43568 z m -2.544939,1.248481 0,0 c 0.736953,0 1.475317,0.0011 2.21227,0.0021 0.736953,0.0014 1.475669,0 2.213328,0 -0.410634,-0.198614 -0.805392,-0.391231 -1.181453,-0.572911 -0.362656,-0.175331 -0.7112,-0.346428 -1.045986,-0.509412 -0.330906,0.162984 -0.674159,0.334434 -1.032581,0.509412 -0.371828,0.18168 -0.760589,0.371827 -1.165578,0.570794 z m -0.07161,0.325967 0,0 c 0.341842,0.219075 0.6985,0.455789 1.072445,0.698147 0.392641,0.254353 0.804686,0.524933 1.237544,0.807508 0.424745,-0.282575 0.831145,-0.551391 1.214614,-0.805039 0.367947,-0.243063 0.71755,-0.479072 1.053042,-0.700616 -0.763058,0 -1.526822,0 -2.289175,0 -0.762353,0 -1.526117,0 -2.28847,0 z m -0.479848,0.239536 0,0 c -0.264866,1.008944 -0.588539,2.239433 -0.992188,3.773311 0.630203,-0.41275 1.223681,-0.810683 1.786714,-1.184628 0.525992,-0.349602 1.030111,-0.680508 1.50495,-1.001536 -0.433211,-0.295628 -0.843492,-0.579967 -1.234722,-0.8509 -0.370417,-0.256469 -0.727428,-0.49918 -1.064754,-0.736247 z m 3.288665,1.587147 0,0 c 0.4826,0.321028 0.995186,0.652992 1.531409,1.003653 0.572558,0.375356 1.177572,0.769761 1.820333,1.184981 -0.445911,-1.533878 -0.803628,-2.764367 -1.096433,-3.773312 -0.331259,0.236714 -0.682273,0.47872 -1.045281,0.733778 -0.384175,0.269875 -0.786342,0.558095 -1.210028,0.8509 z m -3.80238,2.682875 0,0 c 1.11386,0 2.230049,0 3.344122,0 1.114072,0 2.229908,0 3.345039,0 -0.652639,-0.456141 -1.264709,-0.870655 -1.838678,-1.268589 -0.54222,-0.376766 -1.0541,-0.726369 -1.537758,-1.062566 -0.474839,0.336197 -0.976489,0.6858 -1.509184,1.062566 -0.563739,0.397934 -1.163461,0.812448 -1.803541,1.268589 z m -0.166617,0.756709 0,0 c 0.489902,0.534811 1.013777,1.101372 1.582808,1.72473 0.607483,0.665692 1.273881,1.370895 1.992842,2.168173 0.695678,-0.797278 1.344083,-1.502834 1.932164,-2.168173 0.550686,-0.623358 1.060097,-1.189919 1.535289,-1.72473 -1.174045,0 -2.349148,0 -3.522134,0 -1.172986,0 -2.348089,0 -3.520969,0 z m -0.794562,0.585964 0,0 c -0.678003,2.578453 -1.636289,6.221589 -3.062569,11.643078 1.418413,-1.587147 2.69628,-3.035653 3.815926,-4.2799 1.023232,-1.137709 1.943983,-2.198864 2.78183,-3.121378 -0.716845,-0.861131 -1.379009,-1.65982 -1.979789,-2.374547 -0.562257,-0.668867 -1.074209,-1.299281 -1.555398,-1.867253 z M 69.074187,97.68478 c 3.174859,-9.822745 4.723907,-14.618759 5.647867,-17.479082 0.66107,-2.045758 1.125326,-3.480153 1.467944,-4.545189 0.792691,0 1.585736,0 2.37878,0 0.792692,0 1.586442,0 2.380545,0 0.372181,1.065036 0.876653,2.5019 1.594556,4.548011 0.926747,2.639837 2.432755,6.933848 5.374217,15.317612 -0.573617,-0.0635 -1.128184,-0.109008 -1.666875,-0.1397 L 83.011309,84.231246 c -0.466725,0.567972 -0.962025,1.200503 -1.505655,1.867253 -0.581731,0.714022 -1.221317,1.513416 -1.913114,2.374547 l 0,0 c 0.861836,0.922514 1.810102,1.984728 2.865966,3.123495 1.028348,1.109486 2.189339,2.381602 3.467806,3.772605 -0.794103,-0.03739 -1.55328,-0.04233 -2.284236,-0.02046 -0.698147,-0.839611 -1.357489,-1.6383 -1.985081,-2.39148 -1.047044,-1.256948 -2.027414,-2.40524 -2.897011,-3.472745 -0.842081,1.067505 -1.789995,2.215444 -2.803172,3.470275 -1.034804,1.280936 -2.152651,2.695928 -3.400461,4.217811 -1.114566,0.213078 -2.262893,0.395112 -3.482164,0.512234 l 0,0"
         style="fill:#690f18;fill-opacity:1;fill-rule:nonzero;stroke:none"
         id="path829"
         inkscape:connector-curvature="0" />
      <path
         d="m 56.503973,97.065655 c 0.230153,9.832975 8.275533,17.736255 18.163647,17.736255 9.887798,0 17.933601,-7.90328 18.163612,-17.736255 -16.321265,-3.954287 -19.146698,4.641855 -36.327259,0"
         style="fill:#305c13;fill-opacity:1;fill-rule:evenodd;stroke:none"
         id="path833"
         inkscape:connector-curvature="0" />
      <path
         d="m 78.833715,99.491708 5.214761,5.217232 0,4.92372 -3.474861,-3.47486 0,10.02418 -3.481917,0 0,-10.02418 -3.475109,3.47486 0,-4.92372 5.217126,-5.217232"
         style="fill:#ffffff;fill-opacity:1;fill-rule:nonzero;stroke:none"
         id="path837"
         inkscape:connector-curvature="0" />
      <path
         d="m 85.322004,80.925718 c 5.704064,3.616678 9.491487,9.985023 9.491487,17.237076 0,11.262436 -9.13377,20.396206 -20.396378,20.396206 -11.26229,0 -20.395919,-9.13377 -20.395919,-20.396206 0,-9.70139 6.776614,-17.821982 15.85334,-19.887496 -8.077377,2.132895 -14.034771,9.490076 -14.034771,18.236496 0,10.414706 8.446136,18.860916 18.860948,18.860916 10.414918,0 18.861124,-8.44621 18.861124,-18.860916 0,-6.475942 -3.266017,-12.189884 -8.239831,-15.586076"
         style="fill:#690f18;fill-opacity:1;fill-rule:evenodd;stroke:none"
         id="path841"
         inkscape:connector-curvature="0" />
    </g>
  </g>
</svg>
