<svg xmlns="http://www.w3.org/2000/svg" viewBox="0 0 214.56 214.56"><defs><style>.cls-1,.cls-3{fill:#fff;}.cls-2{fill:none;}.cls-2,.cls-3{stroke:#6694fb;stroke-linecap:round;stroke-linejoin:round;stroke-width:3px;}.cls-4{fill:#ffe35e;}</style></defs><title>ikony_aktivity_novybarvy</title><g id="Vrstva_14" data-name="Vrstva 14"><circle class="cls-1" cx="107.5" cy="107.5" r="107.5"/></g><g id="Vrstva_19" data-name="Vrstva 19"><path class="cls-2" d="M113.83,90.91s-7,25.47-7,49.6,13.6,64.06,13.6,64.06"/><path class="cls-2" d="M84.67,136.36s10.89,1.48,24.4,25.19"/><path class="cls-3" d="M117.77,149.24s-1.39-14.22,9-24.68,25.4-8.28,25.4-8.28.67,15.19-9,23.91S117.77,149.24,117.77,149.24Z"/><path class="cls-3" d="M117.71,149.18s12.81-6.33,26.26-.34,16.72,20.83,16.72,20.83-14,6-25.55,0S117.71,149.18,117.71,149.18Z"/><path class="cls-1" d="M68.62,137.79a41,41,0,0,1-18.45-5c-13.32-7-21-18.64-17.17-26,1.89-3.61,6.52-5.68,12.7-5.68a41,41,0,0,1,18.45,5c6.58,3.44,12,8.14,15.2,13.21,3.06,4.82,3.76,9.36,2,12.78C79.43,135.72,74.8,137.79,68.62,137.79Z"/><path class="cls-4" d="M45.7,99.62v3a39.48,39.48,0,0,1,17.75,4.82c12.38,6.48,20,17.45,16.54,24-1.62,3.1-5.77,4.88-11.37,4.88a39.45,39.45,0,0,1-17.75-4.82C38.49,125,30.92,114,34.33,107.5c1.62-3.1,5.77-4.88,11.37-4.88v-3m0,0c-6.53,0-11.78,2.19-14,6.49-4.24,8.1,3.73,20.65,17.81,28a42.47,42.47,0,0,0,19.14,5.16c6.53,0,11.78-2.19,14-6.49,4.24-8.1-3.73-20.65-17.81-28A42.34,42.34,0,0,0,45.7,99.62Z"/><path class="cls-1" d="M59.63,147.57c-.92,0-1.86,0-2.8-.08-7.41-.43-14.26-2.48-19.29-5.77-4.78-3.13-7.29-7-7.07-10.83.43-7.61,11.54-13.56,25.29-13.56.92,0,1.87,0,2.8.08,7.41.42,14.27,2.47,19.3,5.76,4.78,3.13,7.29,7,7.06,10.84C84.49,141.61,73.38,147.57,59.63,147.57Z"/><path class="cls-4" d="M55.76,115.83v3h0c.9,0,1.81,0,2.71.08,14,.8,25.38,7.67,25,15-.39,6.7-11.06,12.15-23.8,12.15-.89,0-1.81,0-2.71-.08-14-.8-25.37-7.68-25-15,.38-6.69,11.05-12.14,23.79-12.14v-3m0,0c-14.56,0-26.3,6.4-26.79,15-.52,9.13,11.91,17.27,27.78,18.18q1.45.09,2.88.09c14.56,0,26.3-6.4,26.79-15C87,125,74.51,116.82,58.64,115.91c-1,0-1.93-.08-2.88-.08Z"/><path class="cls-1" d="M76.5,143.58c-7.42,0-16.22-8-21.4-19.35C48.88,110.54,50,96.6,57.53,93.17a8.62,8.62,0,0,1,3.59-.76c7.43,0,16.23,8,21.41,19.35,6.22,13.7,5.13,27.63-2.43,31.07A8.63,8.63,0,0,1,76.5,143.58Z"/><path class="cls-4" d="M61.12,93.91h0c6.75,0,15.18,7.77,20,18.48,3,6.52,4.3,13.27,3.75,19-.5,5.13-2.43,8.7-5.43,10.07a7.2,7.2,0,0,1-3,.62c-6.74,0-15.17-7.77-20-18.47-3-6.53-4.3-13.28-3.75-19,.49-5.13,2.42-8.71,5.43-10.08a7.18,7.18,0,0,1,3-.62m0-3a10.1,10.1,0,0,0-4.21.89c-8.33,3.79-9.75,18.58-3.18,33.05,5.53,12.17,15,20.23,22.77,20.23a10.15,10.15,0,0,0,4.22-.89c8.32-3.78,9.75-18.58,3.17-33C78.36,99,68.94,90.91,61.12,90.91Z"/><path class="cls-1" d="M119.39,90.61a11.72,11.72,0,0,1-4.43-.85c-4.88-2-8.14-7.27-9.18-14.9-1.08-7.92.37-17.31,4.08-26.44C116.2,32.84,128,21.53,137.94,21.53a11.53,11.53,0,0,1,4.43.85c4.88,2,8.14,7.27,9.18,14.9,1.09,7.92-.36,17.31-4.08,26.44C141.13,79.3,129.32,90.61,119.39,90.61Z"/><path class="cls-4" d="M137.94,20v3a10.18,10.18,0,0,1,3.87.74c4.36,1.77,7.29,6.64,8.26,13.71,1,7.66-.37,16.78-4,25.67-6.12,15-17.34,26-26.69,26a10.25,10.25,0,0,1-3.87-.74c-9.44-3.84-11.39-21.88-4.27-39.39C117.37,34,128.59,23,137.94,23V20m0,0c-10.4,0-22.71,11.21-29.47,27.82-7.88,19.38-5.23,38.76,5.92,43.3a13.12,13.12,0,0,0,5,1c10.41,0,22.71-11.21,29.47-27.83,7.88-19.37,5.23-38.76-5.92-43.29a13.12,13.12,0,0,0-5-1Z"/><path class="cls-1" d="M115.06,89.17c-8.66,0-17.69-11.27-21-26.2-1.79-8.06-1.68-16,.31-22.39,1.91-6.09,5.29-10,9.53-10.91a9.78,9.78,0,0,1,2-.22c8.65,0,17.68,11.26,21,26.2,1.79,8.05,1.68,16-.32,22.38-1.91,6.1-5.29,10-9.52,10.91A9.29,9.29,0,0,1,115.06,89.17Z"/><path class="cls-4" d="M105.92,31h0c7.83,0,16.42,11,19.54,25,3.4,15.28-.58,29.7-8.7,31.51a8.13,8.13,0,0,1-1.7.19c-7.84,0-16.42-11-19.55-25-3.4-15.27.59-29.7,8.71-31.5a7.38,7.38,0,0,1,1.7-.19m0-3a11.08,11.08,0,0,0-2.36.26c-9.88,2.2-14.8,17.91-11,35.08,3.53,15.83,13.24,27.38,22.48,27.38a11,11,0,0,0,2.35-.26c9.89-2.2,14.8-17.91,11-35.09C124.87,39.5,115.16,28,105.92,28Z"/><path class="cls-1" d="M122.77,91.17c-9.19,0-16-3.19-18.14-8.54-3.77-9.3,6.77-22.38,23.49-29.17a51.51,51.51,0,0,1,19-4c9.19,0,16,3.19,18.14,8.54,3.77,9.3-6.77,22.38-23.49,29.16A51.33,51.33,0,0,1,122.77,91.17Z"/><path class="cls-4" d="M147.15,48v3h0c8.56,0,14.82,2.84,16.75,7.6,1.55,3.84.26,8.71-3.64,13.7-4.28,5.47-11,10.27-19,13.51a49.73,49.73,0,0,1-18.46,3.86c-8.56,0-14.82-2.84-16.75-7.6-3.4-8.39,7-20.86,22.66-27.22A50,50,0,0,1,147.15,51V48m0,0a53,53,0,0,0-19.59,4.07c-17.52,7.11-28.41,21-24.32,31.12,2.5,6.18,10,9.48,19.53,9.48a52.84,52.84,0,0,0,19.59-4.08c17.52-7.1,28.41-21,24.32-31.12-2.51-6.17-10-9.47-19.53-9.47Z"/></g></svg>