<?xml version="1.0" encoding="UTF-8" standalone="no"?>
<!-- Created with Inkscape (http://www.inkscape.org/) -->

<svg
   width="100mm"
   height="100mm"
   viewBox="0 0 100 100"
   version="1.1"
   id="svg5"
   xml:space="preserve"
   inkscape:version="1.2.2 (b0a8486541, 2022-12-01)"
   sodipodi:docname="brkos_logo.svg"
   xmlns:inkscape="http://www.inkscape.org/namespaces/inkscape"
   xmlns:sodipodi="http://sodipodi.sourceforge.net/DTD/sodipodi-0.dtd"
   xmlns="http://www.w3.org/2000/svg"
   xmlns:svg="http://www.w3.org/2000/svg"><sodipodi:namedview
     id="namedview7"
     pagecolor="#ffffff"
     bordercolor="#000000"
     borderopacity="0.25"
     inkscape:showpageshadow="2"
     inkscape:pageopacity="0.0"
     inkscape:pagecheckerboard="0"
     inkscape:deskcolor="#d1d1d1"
     inkscape:document-units="mm"
     showgrid="false"
     inkscape:zoom="1.829812"
     inkscape:cx="299.48432"
     inkscape:cy="174.6081"
     inkscape:window-width="2560"
     inkscape:window-height="1420"
     inkscape:window-x="0"
     inkscape:window-y="0"
     inkscape:window-maximized="1"
     inkscape:current-layer="layer1" /><defs
     id="defs2"><clipPath
       clipPathUnits="userSpaceOnUse"
       id="clipPath312"><path
         d="M 0,0 H 37 V 31 H 0 Z"
         id="path310" /></clipPath></defs><g
     inkscape:label="Layer 1"
     inkscape:groupmode="layer"
     id="layer1"><g
       id="g314"
       transform="matrix(2.3652685,0,0,2.3652685,6.9861306,14.016434)"
       clip-path="url(#clipPath358)"><path
         d="m 24.051,10.645 c 0.004,0 0.004,0.003 0.004,0.003 l 0.004,-0.007 -0.012,0.007 0.004,-0.003 M 7.078,13.094 c -0.406,1.41 -0.894,2.984 -1.308,4.39 -0.395,1.434 -1.157,4.313 -1.309,8.043 -0.008,0.278 -0.188,2.493 -0.195,2.895 0,0.18 0,0.355 0,0.562 0.062,0.043 0.312,0.196 0.558,0.34 0.211,0.129 0.481,-0.031 0.465,-0.281 -0.363,-7.586 1.094,-11.391 1.328,-12.184 0.117,-0.39 0.567,-3.203 0.461,-3.765"
         style="fill:#191919;fill-opacity:1;fill-rule:nonzero;stroke:none"
         id="path316" /><path
         d="m 26.668,15.051 c -0.25,0.152 -1.793,0.179 -2.52,0.082 -0.402,-0.055 -1.808,-0.285 -2.113,-0.379 -0.262,-0.078 -0.488,-0.367 -0.402,-0.621 0.105,-0.317 0.519,-1.051 0.582,-1.153 0.117,-0.195 0.703,-1.714 1.832,-2.156 0.363,0.102 0.707,0.141 0.996,0.293 0.492,0.262 1.508,0.731 1.621,2.981 0.012,0.242 -0.055,0.308 -0.098,0.531 0.028,0.004 0.129,0.027 0.235,0.035 0.082,0.008 0.445,0.035 -0.133,0.383 m 2.027,-0.418 c -0.183,0.023 -0.507,0.098 -0.656,0.016 -0.215,-0.125 -0.363,-0.426 -0.387,-0.665 -0.027,-0.296 -0.304,-0.921 -0.336,-1.003 -0.121,-0.317 -0.261,-0.633 -0.343,-0.961 -0.028,-0.11 0.07,-0.336 0.156,-0.368 0.137,-0.043 0.332,0.004 0.465,0.079 0.14,0.078 0.234,0.234 0.383,0.398 0.078,0.051 0.136,-0.301 -0.02,-0.48 -0.297,-0.336 -1.418,-0.887 -1.547,-0.957 0.035,0.132 0.07,0.32 0.07,0.32 -1.507,-0.539 -2.402,-0.41 -2.621,-0.395 -0.867,0.153 -1.484,1.094 -1.703,1.371 -0.172,0.215 -0.777,1.532 -0.933,1.907 -0.082,0.195 -0.086,0.425 -0.278,0.535 -0.308,0.176 -0.66,0.129 -1.054,0.062 -0.407,-0.066 -0.539,-0.14 -0.946,-0.261 l -1.453,-0.86 c -0.023,0.035 -0.012,0.195 -0.035,0.231 0.059,0.156 0.203,0.328 0.313,0.39 0.687,0.403 1.179,0.754 1.972,0.996 0.379,0.118 0.57,0.368 0.863,0.387 0.813,0.055 1.633,0.016 2.469,0.016 0.16,-0.016 1.438,0.008 1.793,0.011 0.637,0.012 0.871,0 1.805,-0.074 0.082,-0.008 0.793,-0.258 0.918,-0.254 0.398,0.008 0.797,0.051 1.144,0.075 0.297,-0.29 0.098,-0.457 -0.039,-0.516 m 3.149,-4.125 c -0.004,-0.008 -0.008,-0.02 -0.012,-0.031 l 0.012,0.05 c 0,-0.007 0,-0.011 0,-0.019"
         style="fill:#191919;fill-opacity:1;fill-rule:nonzero;stroke:none"
         id="path318" /><path
         d="m 29.527,22.203 c 0.543,-0.055 1.078,-0.207 1.621,-0.234 0.465,-0.024 2.528,-0.453 2.59,-0.465 0.844,-0.137 2.657,-0.352 2.633,-0.426 -0.09,-0.258 -2.394,-2.98 -3.105,-3.914 -0.547,-0.719 -1.414,-2.48 -1.489,-2.519 0.039,0 0.18,-0.469 0.184,-0.704 0.004,-0.273 -0.023,-0.546 -0.039,-0.82 0.031,0 0.324,-0.926 0.441,-1.816 0.075,-0.563 -0.535,0.273 -0.531,0.254 0.074,-0.305 0.449,-1.446 0.34,-2.032 C 32.02,8.723 31.656,10.09 31.656,10.09 31.559,9.914 31.738,8.973 31.473,8.215 30.762,6.191 30.945,8.41 30.945,8.41 29.461,5.34 23.926,3.137 23.098,2.793 21.887,2.289 16.703,0.148 16.25,0.008 c -0.691,-0.082 0.094,0.508 0.109,0.64 -0.195,-0.039 -1.468,-0.507 -1.75,-0.589 -0.453,-0.125 -0.625,0.039 -0.953,0.074 0,0.019 0.438,0.328 0.149,0.363 C 12.77,0.633 10.637,0.473 10.613,0.473 9.668,0.473 8.719,0.438 7.777,0.477 7.012,0.508 4.699,0.477 4.422,0.73 4.488,0.938 4.719,1.199 4.781,1.398 3.605,1.547 2.434,1.688 1.262,1.852 0.879,1.902 0.5,2.008 0.121,2.105 0.07,2.121 0.039,2.234 0,2.309 L 1.293,2.891 C 1.285,2.918 2.871,3.676 3.082,3.965 2.465,4.148 1.766,3.844 1.309,3.777 1.383,4.34 3.406,5.418 3.734,5.633 4.676,6.238 5.605,7.668 6.219,7.777 L 5.922,8.012 c 0.195,0.109 0.418,0.16 0.519,0.3 0.301,0.43 0.559,0.883 0.594,1.442 0.02,0.348 0.121,0.695 0.207,1.039 0.024,0.09 0.129,0.16 0.16,0.195 -0.109,0.61 -0.183,1.297 -0.289,1.895 C 9.125,11.105 7.207,7.504 5.875,6.113 5.742,5.812 5.031,5.352 4.328,5.07 4.516,4.992 4.668,4.852 4.645,4.68 4.09,4.695 3.371,4.703 2.887,4.402 3.375,4.352 3.852,4.207 4.02,3.93 3.535,3.633 3.078,3.324 2.598,3.07 2.117,2.816 1.121,2.355 1.137,2.312 2.207,2.148 3.402,2.199 3.758,2.184 4.258,2.164 6.012,2.391 4.84,1.824 4.836,1.781 5.816,1.836 6.125,1.93 6.824,2.137 6.078,1.43 5.934,1.27 6.668,1.168 7.145,1.504 8.043,1.523 7.875,1.258 7.539,1.102 7.539,1.059 7.859,1.039 8.18,1.004 8.5,1 c 0.789,-0.012 1.582,0.012 2.375,-0.02 0.551,-0.019 2.801,0.153 3.387,0.204 0.113,0.007 0.636,-0.246 0.742,-0.223 0.371,0.074 0.324,0.23 0.695,0.309 0.645,0.14 1.289,0.285 1.946,0.414 -0.02,-0.098 -0.09,-0.329 -0.125,-0.489 0.132,0 2.648,0.817 3.558,1.203 0.574,0.243 1.145,0.489 1.707,0.758 0.52,0.25 1.024,0.532 1.527,0.805 0.61,0.336 1.227,0.66 1.817,1.023 0.887,0.543 1.769,1.094 2.625,1.684 0.434,0.301 2.699,2.215 2.508,6.469 -0.004,0.097 0.023,0.519 -0.039,0.551 -0.45,0.226 -0.828,0.128 -0.336,1.328 0.039,0.089 -0.563,0.273 -0.633,0.632 1.394,0.368 2.609,1.797 2.769,1.954 0.579,0.574 2.215,2.16 2.36,2.488 0.023,0.055 -0.039,0.238 -0.106,0.238 -2.957,0.039 -4.836,-0.555 -5.593,-0.766 -0.688,-0.191 -4.161,-1.398 -4.426,-2.414 -0.344,0.274 -0.422,0.707 -0.211,0.817 3.465,1.73 4.293,1.773 4.699,1.875 0.652,0.16 4.184,0.851 4.598,0.898 -0.258,0.524 -3.985,0.977 -3.985,1.008 -0.781,0.082 -2.316,0.129 -3.418,-0.031 -0.199,-0.223 -0.629,-0.797 -0.636,-0.785 -0.246,0.492 -0.035,1.793 0.015,1.984 0.121,0.465 0.293,1.086 0.375,1.524 0.071,0.351 0.121,0.71 0.231,1.05 0.136,0.43 0.722,2.024 0.941,2.344 0.188,0.27 0.91,1.266 1.086,1.477 0.277,0.336 0.621,0.617 0.945,0.91 0.231,0.207 0.473,0.332 0.735,0.015 -3.035,-2.168 -2.988,-5.398 -3.121,-5.98 -0.114,-0.496 0.043,-0.867 0.351,-1.262 0.168,-0.215 0.77,-0.695 1.664,-0.789"
         style="fill:#191919;fill-opacity:1;fill-rule:nonzero;stroke:none"
         id="path320" /></g></g></svg>
