<?xml version="1.0" encoding="UTF-8" standalone="no"?>
<!-- Created with Inkscape (http://www.inkscape.org/) -->

<svg
   xmlns:dc="http://purl.org/dc/elements/1.1/"
   xmlns:cc="http://creativecommons.org/ns#"
   xmlns:rdf="http://www.w3.org/1999/02/22-rdf-syntax-ns#"
   xmlns:svg="http://www.w3.org/2000/svg"
   xmlns="http://www.w3.org/2000/svg"
   xmlns:sodipodi="http://sodipodi.sourceforge.net/DTD/sodipodi-0.dtd"
   xmlns:inkscape="http://www.inkscape.org/namespaces/inkscape"
   width="100mm"
   height="100mm"
   viewBox="0 0 354.33071 354.33071"
   id="svg2"
   version="1.1"
   inkscape:version="0.91 r13725"
   sodipodi:docname="brkos_logo.svg">
  <defs
     id="defs4">
    <clipPath
       id="clipPath4150"
       clipPathUnits="userSpaceOnUse">
      <path
         inkscape:connector-curvature="0"
         id="path4152"
         d="m 0,867.398 867.398,0 L 867.398,0 0,0 0,867.398 Z" />
    </clipPath>
    <clipPath
       id="clipPath4158"
       clipPathUnits="userSpaceOnUse">
      <path
         inkscape:connector-curvature="0"
         id="path4160"
         d="m -80.7544,866.128 1257.7444,0 0,-868.80013 -1257.7444,0 0,868.80013 z" />
    </clipPath>
    <clipPath
       id="clipPath4162"
       clipPathUnits="userSpaceOnUse">
      <path
         inkscape:connector-curvature="0"
         id="path4164"
         d="m 1176.986,-2.672 -1257.741,0 0,868.8 1257.741,0 0,-868.8 z" />
    </clipPath>
    <linearGradient
       id="linearGradient4170"
       spreadMethod="pad"
       gradientTransform="matrix(1319.5067,761.81757,761.81757,-1319.5067,-111.63761,50.81913)"
       gradientUnits="userSpaceOnUse"
       y2="0"
       x2="1"
       y1="0"
       x1="0">
      <stop
         id="stop4172"
         offset="0"
         style="stop-opacity:0.8;stop-color:#ffffff" />
      <stop
         id="stop4174"
         offset="1"
         style="stop-opacity:1;stop-color:#ffffff" />
    </linearGradient>
    <mask
       id="mask4176"
       height="1"
       width="1"
       y="0"
       x="0"
       maskUnits="userSpaceOnUse">
      <g
         id="g4178">
        <g
           id="g4180">
          <g
             id="g4182">
            <g
               id="g4184">
              <path
                 inkscape:connector-curvature="0"
                 id="path4186"
                 style="fill:url(#linearGradient4170);stroke:none"
                 d="m -32768,32767 65535,0 0,-65535 -65535,0 0,65535 z" />
            </g>
          </g>
        </g>
      </g>
    </mask>
    <linearGradient
       id="linearGradient4188"
       spreadMethod="pad"
       gradientTransform="matrix(1319.5067,761.81757,761.81757,-1319.5067,-111.63761,50.81913)"
       gradientUnits="userSpaceOnUse"
       y2="0"
       x2="1"
       y1="0"
       x1="0">
      <stop
         id="stop4190"
         offset="0"
         style="stop-opacity:1;stop-color:#8d2b1c" />
      <stop
         id="stop4192"
         offset="1"
         style="stop-opacity:1;stop-color:#4e2f50" />
    </linearGradient>
    <clipPath
       id="clipPath4216"
       clipPathUnits="userSpaceOnUse">
      <path
         inkscape:connector-curvature="0"
         id="path4218"
         d="m -42.2712,887.076 1223.2312,0 0,-920.4216 -1223.2312,0 0,920.4216 z" />
    </clipPath>
    <clipPath
       id="clipPath4321"
       clipPathUnits="userSpaceOnUse">
      <path
         inkscape:connector-curvature="0"
         id="path4323"
         d="m 0,867.398 867.398,0 L 867.398,0 0,0 0,867.398 Z" />
    </clipPath>
    <clipPath
       id="clipPath4329"
       clipPathUnits="userSpaceOnUse">
      <path
         inkscape:connector-curvature="0"
         id="path4331"
         d="m -80.7544,866.128 1257.7444,0 0,-868.80013 -1257.7444,0 0,868.80013 z" />
    </clipPath>
    <clipPath
       id="clipPath4333"
       clipPathUnits="userSpaceOnUse">
      <path
         inkscape:connector-curvature="0"
         id="path4335"
         d="m 1176.986,-2.672 -1257.741,0 0,868.8 1257.741,0 0,-868.8 z" />
    </clipPath>
    <mask
       id="mask4347"
       height="1"
       width="1"
       y="0"
       x="0"
       maskUnits="userSpaceOnUse">
      <g
         id="g4349">
        <g
           id="g4351">
          <g
             id="g4353">
            <g
               id="g4355">
              <path
                 inkscape:connector-curvature="0"
                 id="path4357"
                 style="fill:url(#linearGradient4170);stroke:none"
                 d="m -32768,32767 65535,0 0,-65535 -65535,0 0,65535 z" />
            </g>
          </g>
        </g>
      </g>
    </mask>
    <clipPath
       id="clipPath4387"
       clipPathUnits="userSpaceOnUse">
      <path
         inkscape:connector-curvature="0"
         id="path4389"
         d="m -42.2712,887.076 1223.2312,0 0,-920.4216 -1223.2312,0 0,920.4216 z" />
    </clipPath>
    <clipPath
       id="clipPath4486"
       clipPathUnits="userSpaceOnUse">
      <path
         inkscape:connector-curvature="0"
         id="path4488"
         d="m 0,867.398 867.398,0 L 867.398,0 0,0 0,867.398 Z" />
    </clipPath>
    <clipPath
       id="clipPath4494"
       clipPathUnits="userSpaceOnUse">
      <path
         inkscape:connector-curvature="0"
         id="path4496"
         d="m -80.7544,866.128 1257.7444,0 0,-868.80013 -1257.7444,0 0,868.80013 z" />
    </clipPath>
    <clipPath
       id="clipPath4498"
       clipPathUnits="userSpaceOnUse">
      <path
         inkscape:connector-curvature="0"
         id="path4500"
         d="m 1176.986,-2.672 -1257.741,0 0,868.8 1257.741,0 0,-868.8 z" />
    </clipPath>
    <mask
       id="mask4512"
       height="1"
       width="1"
       y="0"
       x="0"
       maskUnits="userSpaceOnUse">
      <g
         id="g4514">
        <g
           id="g4516">
          <g
             id="g4518">
            <g
               id="g4520">
              <path
                 inkscape:connector-curvature="0"
                 id="path4522"
                 style="fill:url(#linearGradient4170);stroke:none"
                 d="m -32768,32767 65535,0 0,-65535 -65535,0 0,65535 z" />
            </g>
          </g>
        </g>
      </g>
    </mask>
    <clipPath
       id="clipPath4552"
       clipPathUnits="userSpaceOnUse">
      <path
         inkscape:connector-curvature="0"
         id="path4554"
         d="m -42.2712,887.076 1223.2312,0 0,-920.4216 -1223.2312,0 0,920.4216 z" />
    </clipPath>
  </defs>
  <sodipodi:namedview
     id="base"
     pagecolor="#ffffff"
     bordercolor="#666666"
     borderopacity="1.0"
     inkscape:pageopacity="0.0"
     inkscape:pageshadow="2"
     inkscape:zoom="0.98994949"
     inkscape:cx="30.323544"
     inkscape:cy="199.86709"
     inkscape:document-units="px"
     inkscape:current-layer="layer1"
     showgrid="false"
     showguides="true"
     inkscape:guide-bbox="true"
     inkscape:window-width="1680"
     inkscape:window-height="987"
     inkscape:window-x="-8"
     inkscape:window-y="-8"
     inkscape:window-maximized="1" />
  <metadata
     id="metadata7">
    <rdf:RDF>
      <cc:Work
         rdf:about="">
        <dc:format>image/svg+xml</dc:format>
        <dc:type
           rdf:resource="http://purl.org/dc/dcmitype/StillImage" />
        <dc:title />
      </cc:Work>
    </rdf:RDF>
  </metadata>
  <g
     inkscape:label="Layer 1"
     inkscape:groupmode="layer"
     id="layer1"
     transform="translate(0,-698.0315)">
    <g
       id="g4850"
       transform="matrix(0.40849842,0,0,-0.40849842,-460.71429,1053.7908)" />
    <g
       id="g4872"
       transform="matrix(0.40849842,0,0,-0.40849842,-460.71429,1053.7908)" />
    <g
       id="g4957"
       transform="matrix(1.2213474,0,0,1.2213474,523.47702,-157.1488)"
       style="fill:#000000">
      <path
         inkscape:connector-curvature="0"
         id="path4886"
         style="fill:#000000;fill-opacity:1;fill-rule:nonzero;stroke:none"
         d="m -213.96727,799.37451 c 0.0494,-0.34477 0.0985,-0.54208 0.0494,-0.68955 -2.02043,-9.60951 -3.84397,-19.21903 -6.20918,-28.7301 -1.72509,-6.94815 -4.63237,-13.55152 -9.26474,-19.21862 -3.74512,-4.58295 -8.47594,-7.29333 -14.58666,-7.14546 -3.99103,0.0989 -8.03231,0.14788 -12.02375,0.34518 -13.30561,0.49265 -26.46293,2.02003 -39.42336,5.27249 -13.05847,3.25247 -25.4278,8.03272 -36.17049,16.4102 -8.52537,6.6524 -14.98087,14.83299 -17.88856,25.47723 -0.73897,2.75941 -1.3795,5.56824 -0.78799,8.57438 0.5911,-0.14787 0.9853,-0.24632 1.3795,-0.34518 14.98086,-4.97714 30.20805,-8.86972 45.78001,-11.28477 13.55193,-2.11888 27.15289,-3.10459 40.80327,-2.16831 17.00089,0.93628 33.41109,4.28719 48.34252,13.50251 m -99.49428,103.68303 c -14.58667,8.47593 -30.99605,8.32805 -47.65257,4.43506 2.56251,10.00372 10.39792,21.48539 23.94945,26.70926 15.91714,5.61767 33.65781,6.50493 50.56025,7.09603 18.03603,0.68995 35.62842,-1.72468 52.778,-7.39178 4.73041,-1.5768 9.70756,-2.95671 13.8963,-5.51922 5.76595,-3.49879 13.55193,-10.05315 17.44452,-18.52908 -20.25336,-0.5911 -30.55283,1.18301 -43.6113,-3.74511 9.85585,-15.17776 15.91714,-29.22235 25.57568,-44.10435 -0.0989,0.93628 -0.49306,1.67525 -0.83783,2.41463 -3.25246,7.34235 -6.6528,14.58666 -9.60952,22.02787 -1.23203,3.10418 -1.7741,6.55395 -2.11888,9.90486 -0.34477,3.94201 1.42893,5.81457 5.37135,6.35665 1.5768,0.19771 3.20344,0.29616 4.78025,0.19771 8.4265,-0.49306 16.36036,-2.9081 24.24479,-5.76596 0.69036,-0.24632 1.33048,-1.08415 1.57721,-1.77411 5.42036,-14.63609 6.15975,-29.51809 2.31619,-44.64683 -3.64667,-14.38936 -10.89057,-26.95559 -19.90899,-38.58513 -2.66055,-3.40034 -5.864,-5.96285 -9.70756,-7.88483 -6.15975,-3.05516 -12.7141,-4.73082 -19.41593,-5.864 -12.27088,-2.11929 -24.68883,-2.56251 -37.10718,-2.31618 -18.72597,0.3942 -37.25505,2.16831 -55.48797,6.4555 -5.12502,1.23203 -10.1516,3.05516 -15.12874,4.87869 -3.20304,1.18261 -5.22347,3.44936 -6.35705,6.94815 -4.53352,14.29091 -8.32806,28.7297 -9.85585,43.66113 -1.13317,11.18632 -1.08415,22.32362 1.33048,33.36207 0.14788,0.73938 0.93628,1.67566 1.62624,1.87255 6.60337,2.06946 13.15773,4.13932 19.85956,5.86441 4.38563,1.13317 8.91956,1.52737 13.40365,0.49265 2.75981,-0.64094 4.09029,-1.9224 4.04127,-4.73082 -0.0989,-3.10459 -0.44363,-6.30804 -1.28146,-9.26434 -2.46406,-8.77169 -6.55436,-16.90285 -10.79212,-24.93556 -0.1973,-0.34477 -0.34477,-0.7884 -0.49265,-1.13318 l 0.29535,-0.14787 c 9.65894,14.93143 16.50864,28.58182 26.31506,43.66113 m -38.14191,63.91488 -3.35091,0 c -0.83783,-0.1973 -1.62623,-0.3946 -2.46406,-0.64093 -3.94201,-1.08415 -5.61767,-3.79454 -4.08989,-7.58908 1.03473,-2.51309 2.61153,-4.87829 4.38564,-6.99758 1.92198,-2.31578 4.28719,-4.18834 6.50493,-6.35664 -0.1969,-0.14788 -0.3942,-0.29576 -0.59151,-0.39461 -7.93385,-4.23777 -13.55153,-10.64425 -17.49394,-18.62753 -8.03231,-16.31094 -11.58053,-33.657 -12.17162,-51.74245 -0.44363,-12.81256 2.1679,-25.18189 6.15975,-37.30408 4.68139,-14.19246 10.0033,-28.1386 14.43878,-42.42951 3.64667,-11.77741 10.10217,-21.48538 19.3665,-29.46866 9.46164,-8.18018 20.30278,-14.04459 31.78486,-18.67655 26.26563,-10.59522 53.76329,-15.67082 81.85246,-17.88815 1.28105,-0.0988 1.5768,0.49265 1.92198,1.42893 9.80642,24.68883 19.16961,49.4761 23.16105,75.98806 1.13317,7.39178 3.84356,14.53723 6.20876,21.68269 3.64667,11.28477 7.34276,22.56994 8.87055,34.39679 0.34477,2.56251 0.64011,5.12502 0.93628,7.68753 l 0,9.65854 c -0.0985,0.3942 -0.29617,0.7884 -0.29617,1.18301 -0.68954,10.20021 -3.30148,19.9576 -7.68712,29.17291 -5.56865,11.7284 -13.20675,21.97844 -22.56995,31.24278 0.88726,0.88685 1.87256,1.72468 2.75982,2.66096 3.10459,3.30189 6.01228,6.75125 7.2439,11.23575 1.08457,3.94201 -0.54207,6.8497 -4.58253,7.2439 -3.00655,0.29575 -6.20959,0.049 -9.11687,-0.68954 -8.91956,-2.21774 -16.55767,-6.89954 -23.75255,-12.51721 -0.68995,-0.54208 -1.57721,-1.03473 -2.41463,-1.18261 -6.84971,-1.03513 -13.69982,-2.02043 -20.54911,-2.95712 -9.75739,-1.33048 -19.36691,-1.28064 -28.97602,1.5282 -6.40648,1.87255 -13.15773,2.5621 -19.76111,3.84356 -0.83742,0.14787 -1.7737,0.49265 -2.41463,1.03472 -6.8497,5.61808 -14.38936,10.00372 -22.81586,12.71411 -3.40075,1.28146 -6.99799,1.92198 -10.49678,2.75981" />
      <path
         inkscape:connector-curvature="0"
         id="path4890"
         style="fill:#000000;fill-opacity:1;fill-rule:nonzero;stroke:none"
         d="m -280.05027,856.58741 c 3.54822,-3.00614 6.55395,-5.86399 8.67283,-9.56009 1.92239,-3.40034 1.03513,-5.46979 -2.75941,-6.4555 -3.59723,-0.93628 -7.19488,-0.88685 -10.79212,0.0494 -4.38564,1.1826 -5.42077,3.49879 -2.7594,7.14545 2.26675,3.05516 5.02616,5.81457 7.6381,8.82071 m 28.08917,-44.74528 c -2.56292,0.14787 -5.17445,0.73897 -7.58909,1.5768 -5.51922,1.87297 -9.90486,5.22388 -11.13689,11.3342 -1.37991,6.6528 1.3795,11.9257 6.50452,15.91714 11.82726,9.21531 24.93515,2.31619 30.15903,-5.81498 4.58295,-7.04659 2.85786,-14.53723 -4.33662,-18.9723 -4.09029,-2.61194 -8.67324,-4.33662 -13.60095,-4.04086 m -56.17834,0.29575 c -5.76555,0 -11.3342,1.77411 -15.27621,4.82927 -4.97714,3.89299 -6.4555,9.65853 -3.89299,15.42449 5.91343,13.5021 23.70272,16.70554 33.85431,6.06089 7.29333,-7.6381 5.56865,-18.5781 -3.64666,-23.65369 -3.44936,-1.87256 -7.09603,-2.71039 -11.03845,-2.66096 m 28.87757,54.60112 c -6.11073,-6.94855 -12.36892,-13.40405 -15.32563,-21.73211 -4.18875,1.37991 -8.32847,3.05516 -12.61566,4.09029 -5.56865,1.33048 -11.23534,1.67525 -16.90244,0.3942 -8.62381,-1.97141 -12.7141,-8.42691 -12.07358,-17.00129 1.33048,-17.34648 17.88856,-28.43394 35.08675,-23.70312 5.61767,1.52778 10.59481,4.13931 14.19205,8.87013 4.2876,5.61767 4.78066,11.62954 1.37991,17.83913 -0.1969,0.34477 -0.34478,0.64052 -0.49265,0.93628 l 11.7284,0 c -0.54208,-2.21774 -1.33089,-4.28719 -1.52779,-6.40648 -0.49265,-5.4698 1.77411,-10.05274 5.61808,-13.79786 9.26434,-9.01801 26.80771,-13.20675 39.71871,-0.93627 4.92772,4.68139 7.98288,10.39751 8.08173,17.34606 0.0985,8.03231 -3.84397,13.55153 -11.58052,15.57196 -9.90527,2.56251 -19.71168,1.92199 -29.12389,-2.46406 -0.54208,-0.24632 -1.13318,-0.49265 -1.67566,-0.7884 -3.15361,8.32806 -8.72226,14.88241 -14.48781,21.78154" />
      <path
         inkscape:connector-curvature="0"
         id="path4894"
         style="fill:#000000;fill-opacity:1;fill-rule:nonzero;stroke:none"
         d="m -297.98788,828.89273 c 0,4.04087 -3.15402,7.14545 -7.14545,7.14545 -3.89299,-0.0494 -7.04701,-3.20303 -7.04701,-7.09602 0,-3.99185 3.20344,-7.14586 7.19488,-7.14586 3.94242,0.0494 7.04701,3.20344 6.99758,7.09643" />
      <path
         inkscape:connector-curvature="0"
         id="path4898"
         style="fill:#000000;fill-opacity:1;fill-rule:nonzero;stroke:none"
         d="m -256.98767,836.03806 c -3.89299,-0.0494 -6.99799,-3.25206 -6.99799,-7.14545 0.0494,-3.94242 3.3019,-7.09603 7.29374,-7.04701 3.94201,0.0494 6.99758,3.20344 6.99758,7.14586 -0.0494,3.94201 -3.30189,7.09603 -7.29333,7.0466" />
      <path
         inkscape:connector-curvature="0"
         id="path4902"
         style="fill:#000000;fill-opacity:1;fill-rule:nonzero;stroke:none"
         d="m -227.46966,716.9803 c 7.8109,0 14.14303,6.33173 14.14303,14.14303 0,7.8109 -6.33213,14.14303 -14.14303,14.14303 -7.8109,0 -14.14303,-6.33213 -14.14303,-14.14303 0,-7.8113 6.33213,-14.14303 14.14303,-14.14303" />
    </g>
  </g>
</svg>
