<?xml version="1.0" encoding="UTF-8" standalone="no"?>
<!-- Created with Inkscape (http://www.inkscape.org/) -->

<svg
   width="100mm"
   height="100mm"
   viewBox="0 0 100 100"
   version="1.1"
   id="svg5"
   xml:space="preserve"
   inkscape:version="1.2.2 (b0a8486541, 2022-12-01)"
   sodipodi:docname="chem-kavarna_logo.svg"
   xmlns:inkscape="http://www.inkscape.org/namespaces/inkscape"
   xmlns:sodipodi="http://sodipodi.sourceforge.net/DTD/sodipodi-0.dtd"
   xmlns="http://www.w3.org/2000/svg"
   xmlns:svg="http://www.w3.org/2000/svg"><sodipodi:namedview
     id="namedview7"
     pagecolor="#ffffff"
     bordercolor="#000000"
     borderopacity="0.25"
     inkscape:showpageshadow="2"
     inkscape:pageopacity="0.0"
     inkscape:pagecheckerboard="0"
     inkscape:deskcolor="#d1d1d1"
     inkscape:document-units="mm"
     showgrid="false"
     inkscape:zoom="1.2938725"
     inkscape:cx="179.30669"
     inkscape:cy="343.54235"
     inkscape:window-width="2560"
     inkscape:window-height="1420"
     inkscape:window-x="0"
     inkscape:window-y="0"
     inkscape:window-maximized="1"
     inkscape:current-layer="svg5" /><defs
     id="defs2"><clipPath
       clipPathUnits="userSpaceOnUse"
       id="clipPath469"><path
         d="M 0,149.89 H 335.331 V 0 H 0 Z"
         id="path467" /></clipPath></defs><g
     inkscape:label="Layer 1"
     inkscape:groupmode="layer"
     id="layer1" /><path
     d="M 9.5e-7,100 H 99.999999 V -2e-6 H 9.5e-7 Z"
     style="fill:#e8d47e;fill-opacity:1;fill-rule:nonzero;stroke:none;stroke-width:0.446043"
     id="path455" /><g
     id="g463"
     transform="matrix(0.64873652,0,0,-0.64873652,-4.5242249,97.650458)"><g
       id="g465"
       clip-path="url(#clipPath469)"><g
         id="g471"
         transform="translate(90.2391,31.1899)"><path
           d="M 0,0 C -1.205,0.588 -1.475,0.339 -1.394,-1.132 -0.192,-1.656 -0.594,-0.24 0,0 m -13.47,45.962 c -0.092,0.014 -0.183,0.027 -0.275,0.04 -0.332,-1.062 -0.665,-2.123 -0.997,-3.184 l 0.319,-0.095 c 1.26,0.798 0.765,2.121 0.953,3.239 m 56.876,18.892 c -0.555,0.409 -1.004,0.342 -1.322,-0.233 -0.375,-0.678 -0.181,-1.199 0.61,-1.807 1.064,0.419 0.402,1.389 0.712,2.04 M 0.012,-1.124 C 1.292,-1.023 2.267,-1.876 3.64,-1.783 2.074,-0.14 0.945,0.09 0.012,-1.124 m 18.08,-0.592 c -0.427,-0.216 -0.908,-0.301 -1.074,-0.575 -0.346,-0.574 -0.572,-1.249 -0.056,-1.901 1.453,0.847 1.481,0.898 1.13,2.476 m 1.971,86.098 c 0.751,0.132 1.549,-0.955 2.328,0.051 -0.047,0.426 -0.093,0.851 -0.151,1.382 -0.793,-0.03 -1.551,-0.059 -2.32,-0.088 0.058,-0.539 0.099,-0.929 0.143,-1.345 m -66.022,-2.5 c -0.291,-0.36 -0.574,-0.669 -0.808,-1.011 -0.326,-0.477 -0.203,-0.956 0.211,-1.279 0.418,-0.323 0.913,-0.375 1.199,0.209 0.274,0.561 0.493,1.148 0.769,1.8 -0.635,0.13 -1.019,0.209 -1.371,0.281 M 27.829,9.794 c -1.168,0.027 -2.152,-0.253 -2.912,-1.215 2.02,-0.842 2.02,-0.842 3.306,-0.165 -0.125,0.44 -0.254,0.889 -0.394,1.38 m -37.44,70.992 c -0.74,-0.433 -1.312,-0.77 -1.899,-1.114 -0.165,-0.639 -0.02,-1.242 0.664,-1.377 0.473,-0.093 1.155,-0.013 1.494,0.279 0.881,0.76 -0.212,1.369 -0.259,2.212 M -58.055,66.074 c 0.015,-0.176 0.031,-0.352 0.046,-0.528 0.637,-0.149 1.269,-0.337 1.915,-0.429 0.293,-0.042 0.857,0.059 0.879,0.175 0.081,0.43 0.097,0.944 -0.081,1.324 -0.11,0.233 -0.677,0.458 -0.936,0.373 -0.64,-0.209 -1.219,-0.598 -1.823,-0.915 m 13.179,-2.526 c 1.477,0.422 2.686,0.767 3.943,1.127 -0.314,0.553 -0.576,1.013 -0.896,1.576 -1.326,-0.492 -2.099,-1.489 -3.047,-2.703 m 1.808,-1.987 c 0.077,-0.498 0.15,-1.15 0.829,-1.005 1.028,0.22 2.223,0.303 2.633,1.658 -1.296,0.589 -2.4,0.183 -3.462,-0.653 m 16.549,-7.373 c -0.338,10e-4 -0.648,0.087 -0.876,-0.013 -0.681,-0.301 -1.596,-0.322 -1.873,-1.184 -0.206,-0.642 0.175,-1.122 0.706,-1.457 1.654,0.5 2.005,0.943 2.043,2.654 M 7.78,31.108 C 7.521,30.731 7.336,30.462 7.158,30.202 6.792,30.468 6.439,30.89 6.262,30.826 5.277,30.47 4.326,30.015 3.389,29.541 3.267,29.479 3.188,29.041 3.28,28.912 3.41,28.728 3.725,28.559 3.946,28.575 5.45,28.687 6.774,29.36 8.234,29.845 8.058,30.334 7.941,30.659 7.78,31.108 M 1.779,-3.52 c -0.823,0.255 -1.723,0.259 -2.06,0.697 -0.655,0.85 -1.752,0.551 -2.421,1.233 -0.136,0.138 -0.613,-0.058 -1.018,-0.111 1.47,-2.067 3.581,-3.663 5.499,-1.819 m -13.956,46.744 c 1.454,0.323 1.861,0.679 2.005,1.883 0.166,1.388 0.622,2.703 0.25,4.211 -0.212,0.854 -0.798,1.252 -1.138,1.895 -0.072,0.138 -0.622,0.024 -1.202,0.029 1.713,-1.328 2.449,-4.31 0.085,-8.018 m 6.851,-6.807 c -0.634,-0.009 -1.2,0.064 -1.731,-0.042 -0.848,-0.17 -1.673,-0.459 -2.499,-0.695 0.221,-0.601 0.443,-1.206 0.66,-1.797 2.331,-0.415 3.783,0.575 3.57,2.534 m 45.057,41.249 c 0.458,1.105 0.374,1.895 -0.255,2.705 -0.8,1.031 -2.842,1.506 -4.325,0.834 0,-0.079 -0.01,-0.159 10e-4,-0.235 0.119,-0.773 1.178,-1.273 0.662,-2.247 -0.013,-0.025 0.247,-0.257 0.404,-0.296 0.649,-0.164 0.88,0.168 0.832,0.773 -0.046,0.569 -0.102,1.138 0.733,1.344 0.594,-0.877 1.208,-1.784 1.948,-2.878 M 26.2,73.014 c -1.14,-0.418 -2.261,-0.753 -3.304,-1.25 -0.418,-0.2 -0.556,-0.743 -0.081,-1.201 0.325,-0.313 0.593,-0.684 0.905,-1.049 0.53,0.181 1.092,0.352 1.636,0.566 0.539,0.212 1.06,0.466 1.667,0.736 -0.245,0.655 -0.476,1.272 -0.823,2.198 M -13.294,39.876 c 0.242,-1.304 0.469,-2.523 0.73,-3.928 0.846,0.426 1.502,0.755 2.24,1.126 -0.247,1.305 -0.486,2.569 -0.757,4.003 -0.855,-0.464 -1.536,-0.833 -2.213,-1.201 M 9.968,10.822 c 1.451,1.015 2.842,1.959 4.19,2.961 0.222,0.165 0.257,0.584 0.378,0.885 -0.274,0.082 -0.561,0.261 -0.818,0.225 -0.74,-0.106 -1.483,-0.25 -2.198,-0.468 C 10.277,14.047 9.468,12.28 9.968,10.822 m 1.313,45.896 c 1.306,-0.073 2.352,0.334 3.329,0.992 0.696,0.469 0.802,1.296 0.21,1.88 -0.789,0.779 -2.333,0.793 -3.205,-0.121 -0.426,-0.446 -0.674,-1.134 -0.804,-1.754 -0.064,-0.306 0.322,-0.706 0.47,-0.997 M -5.33,63.061 c 0.366,0.669 0.943,1.226 0.875,1.689 -0.276,1.891 -0.75,3.753 -1.143,5.587 -0.644,-0.084 -1.29,-0.169 -1.934,-0.254 0.312,-2.926 1.072,-5.458 2.202,-7.022 M 35.098,32.032 c 1.396,0.111 1.405,0.106 1.987,1.122 0.395,0.689 0.643,1.501 1.161,2.071 0.991,1.089 1.109,2.152 0.327,3.358 -0.021,0.032 -0.059,0.053 -0.272,0.231 -0.425,-0.515 -1.178,-1.016 -1.2,-1.548 -0.037,-0.851 -0.555,-1.359 -0.983,-1.785 -0.996,-0.99 -1.008,-2.124 -1.02,-3.449 m -2.556,0.393 c 0.666,2.118 1.268,4.228 2.017,6.285 0.204,0.559 0.471,1.47 1.637,1.12 -0.2,0.364 -0.438,0.72 -0.6,0.689 -0.558,-0.11 -1.227,-0.211 -1.608,-0.574 -1.263,-1.202 -2.301,-2.584 -2.662,-4.365 -0.074,-0.36 -0.265,-0.695 -0.387,-1.046 -0.158,-0.458 -0.259,-0.879 0.301,-1.196 0.497,-0.281 0.941,-0.656 1.302,-0.913 m -62.137,46.718 c 1.668,-0.897 2.165,-0.981 2.956,-0.43 -0.079,0.084 -0.141,0.19 -0.234,0.241 -1.02,0.558 -2.054,1.089 -3.065,1.663 -1.004,0.57 -2.095,0.646 -3.092,0.225 -0.448,-0.189 -0.653,-0.953 -0.816,-1.213 0.495,-0.82 0.79,-1.395 1.166,-1.91 0.433,-0.594 0.883,-1.198 1.426,-1.686 0.521,-0.467 1.082,-0.416 1.47,0.362 -0.285,0.173 -0.58,0.297 -0.803,0.501 -0.343,0.315 -0.719,0.641 -0.931,1.042 -0.297,0.565 0.068,0.951 0.737,0.951 0.323,0 0.647,0.132 1.186,0.254 m 6.643,-53.361 c -0.052,0.095 -0.105,0.192 -0.158,0.287 -2.235,0.468 -5.157,-1.009 -6.218,-3.161 -0.777,-1.576 -0.949,-2.048 0.83,-2.842 0.066,-0.029 0.154,-0.008 0.432,-0.017 0.16,0.374 0.418,0.802 0.524,1.265 0.219,0.951 0.515,1.748 1.473,2.282 1.102,0.615 2.083,1.448 3.117,2.186 m 54.344,12.315 c -2.833,-0.62 -5.321,-0.001 -7.85,0.494 -0.043,-0.631 -0.081,-1.177 -0.116,-1.689 2.336,-0.654 4.562,-1.278 6.813,-1.909 0.393,1.06 0.734,1.976 1.153,3.104 M -27.63,26.121 c -1.461,1.156 -2.044,3.058 -3.891,3.75 -0.756,-0.649 -1.514,-1.3 -2.369,-2.036 1.574,-1.212 2.963,-2.282 4.331,-3.335 0.725,0.609 1.297,1.089 1.929,1.621 M -0.006,63.75 c -0.225,0.221 -0.272,0.305 -0.339,0.326 -1.734,0.549 -4.524,-1.066 -4.973,-2.836 -0.125,-0.491 -0.315,-1.016 -0.63,-1.397 -0.34,-0.411 -0.343,-0.79 -0.386,-1.279 -0.091,-1.007 0.776,-1.362 1.165,-2.08 0.251,1.288 1.156,2.408 0.713,3.81 -0.051,0.16 0.249,0.622 0.344,0.61 1.486,-0.192 2.084,1.07 2.999,1.794 0.396,0.313 0.736,0.696 1.107,1.052 m -3.483,-7.525 c -0.243,-0.953 -0.243,-0.953 0.335,-1.165 1.08,-0.397 1.931,-0.015 2.618,0.814 0.614,0.739 1.126,1.571 1.793,2.254 1.182,1.211 1.38,2.664 0.442,4.165 C 1.082,62.271 0.972,61.86 0.863,61.345 0.786,60.974 0.558,60.58 0.282,60.317 -0.085,59.969 -0.736,59.836 -0.961,59.438 -1.513,58.46 -2.025,57.417 -2.287,56.335 c -0.145,-0.603 -0.346,-0.862 -0.93,-1.064 -0.086,0.303 -0.161,0.564 -0.272,0.954 m -10.272,-4.112 c -0.115,0.054 -0.229,0.109 -0.343,0.163 -0.474,-0.277 -1.001,-0.491 -1.409,-0.843 -0.999,-0.865 -2.178,-1.664 -1.64,-3.324 0.103,-0.319 0.005,-0.709 -0.023,-1.064 -0.114,-1.437 0.174,-2.796 0.701,-4.101 0.112,0.007 0.168,-0.006 0.183,0.013 1.032,1.349 1.132,3.025 1.592,4.575 0.052,0.174 0.009,0.416 -0.075,0.583 -0.398,0.793 -10e-4,1.41 0.343,2.09 0.302,0.596 0.453,1.269 0.671,1.908 M 13.597,36.407 c 1.206,-0.662 2.4,-0.33 3.608,-0.284 1.727,0.065 2.936,0.992 4.099,2.062 0.411,0.378 0.273,0.855 -0.193,1.076 -0.325,0.155 -0.772,0.209 -1.12,0.124 -0.876,-0.213 -1.786,-0.416 -2.575,-0.829 -1.487,-0.779 -2.788,-0.532 -4.295,0.36 0.161,-0.848 0.322,-1.697 0.476,-2.509 m 8.584,5.197 c -0.287,0.901 -0.902,1.445 -1.552,2.052 -1.173,1.096 -2.258,1.512 -3.539,0.235 0.146,-0.11 0.343,-0.258 0.54,-0.406 -1.025,-1.341 -1.025,-1.341 -2.818,-0.986 0.027,-0.898 -1.728,-0.46 -1.246,-1.919 2.838,0.337 5.668,0.674 8.615,1.024 M -41.087,36.85 c -0.024,-2.289 0.286,-4.198 1.484,-5.817 0.442,-0.596 1.073,-1.267 1.735,-1.432 0.873,-0.218 1.876,0.153 2.798,0.045 1.277,-0.15 1.766,0.564 2.21,1.535 0.42,0.918 0.272,1.776 -0.09,2.649 -0.196,0.474 -0.442,0.939 -0.562,1.434 -0.348,1.432 -1.242,2.222 -2.654,2.583 -1.067,0.273 -2.091,0.709 -3.143,1.045 -0.207,0.066 -0.454,0.004 -0.683,0.002 -0.029,-0.088 -0.059,-0.176 -0.089,-0.265 0.962,-0.803 1.911,-1.623 2.889,-2.407 1.242,-0.996 2.336,-2.077 2.706,-3.717 0.091,-0.404 0.34,-0.78 0.556,-1.145 0.291,-0.493 0.173,-0.888 -0.36,-0.858 -1.169,0.067 -2.367,0.148 -3.175,1.2 -0.634,0.826 -1.469,1.487 -1.684,2.632 -0.118,0.626 -0.575,1.208 -0.956,1.757 -0.195,0.281 -0.56,0.443 -0.982,0.759 m 6.64,1.709 c 0.364,-0.368 0.719,-0.632 0.947,-0.979 0.391,-0.593 0.675,-1.254 1.052,-1.856 0.529,-0.843 0.978,-1.682 1.091,-2.716 0.071,-0.655 0.276,-1.488 0.732,-1.877 1.56,-1.33 3.253,-2.504 4.908,-3.722 0.205,-0.151 0.494,-0.314 0.72,-0.285 0.619,0.078 1.298,0.126 1.822,0.42 1.284,0.72 1.982,-0.137 2.748,-0.865 0.254,-0.242 0.443,-0.551 0.73,-0.916 1.654,0.819 3.283,1.624 5.053,2.5 -0.98,0.931 -0.817,1.809 -0.517,2.716 0.446,1.343 0.886,2.689 1.278,4.048 0.079,0.274 -0.045,0.619 -0.114,0.921 -0.291,1.266 -0.596,2.528 -0.917,3.879 -0.499,0.039 -1.056,0.028 -1.588,0.139 -0.484,0.101 -1.167,0.198 -1.369,0.533 -0.753,1.255 -1.312,2.605 -1.162,4.151 0.091,0.942 0.059,1.897 0.085,2.969 -1.639,0.021 -3.119,-0.12 -4.542,0.103 -1.413,0.222 -1.994,-0.487 -2.723,-1.46 -1.303,-1.737 -2.933,-3.046 -5.292,-3.114 -0.429,-0.012 -1.042,-0.349 -1.232,-0.712 -0.651,-1.249 -1.152,-2.577 -1.71,-3.877 m 47.572,-3.686 c -2.185,1.724 -1.974,2.149 -1.789,3.996 0.024,0.234 -0.025,0.483 0.034,0.705 0.235,0.888 0.484,1.774 0.774,2.646 0.043,0.13 0.332,0.174 0.499,0.27 0.238,0.137 0.497,0.256 0.701,0.435 2.157,1.904 2.137,1.903 1.532,4.709 -0.196,0.909 -0.27,1.845 -0.419,2.907 -0.979,-0.335 -1.811,-0.763 -2.686,-0.885 -1.125,-0.157 -2.302,-0.188 -3.424,-0.037 -0.526,0.071 -1.196,0.599 -1.412,1.09 -0.374,0.848 -0.621,1.833 -0.599,2.752 0.029,1.186 0.374,2.364 0.58,3.525 C 5.955,57.064 4.866,57.2 3.775,57.215 3.411,57.22 2.826,57.01 2.712,56.741 2.054,55.189 0.812,54.207 -0.55,53.428 c -1.617,-0.926 -3.34,-1.755 -5.167,-0.356 -0.721,0.552 -1.463,1.077 -2.194,1.614 -0.754,-0.692 -1.506,-1.382 -2.375,-2.181 1.968,-1.252 3.571,-2.65 3.466,-5.19 -0.099,-2.379 -1.076,-4.158 -3.235,-5.189 0.308,-1.678 0.604,-3.291 0.922,-5.022 1.333,0.926 2.744,0.598 4.104,0.527 0.94,-0.048 1.638,-0.628 1.856,-1.578 0.231,-1.004 0.345,-2.021 -0.113,-3.022 -0.428,-0.934 -0.8,-1.892 -1.206,-2.86 1.974,-0.695 3.854,-1.357 5.745,-2.023 0.034,0.038 0.102,0.089 0.138,0.157 0.109,0.21 0.191,0.435 0.309,0.64 0.991,1.717 2.139,3.236 4.375,3.291 1.034,0.026 2.049,0.507 3.111,0.09 0.181,-0.071 0.51,0.091 0.711,0.232 1.064,0.74 2.109,1.508 3.228,2.315 M -25.394,21.066 c 0.315,-0.142 0.645,-0.233 0.729,0.236 0.138,0.774 0.758,0.952 1.326,0.885 0.296,-0.035 0.53,-0.589 0.856,-0.987 0.115,0.138 0.326,0.308 0.431,0.529 0.335,0.708 0.576,1.464 0.957,2.144 0.392,0.699 0.283,1.105 -0.215,1.247 -1.821,-1.046 -3.309,-2.219 -4.06,-4.068 -0.145,-0.238 -0.291,-0.476 -0.536,-0.879 0.991,0.084 0.711,0.506 0.512,0.893 m -4.682,2.011 c -0.518,0.485 -0.935,0.995 -1.461,1.341 -1.261,0.832 -2.38,1.832 -3.56,2.759 -0.298,0.234 -0.919,0.122 -1.381,0.069 -2.548,-0.291 -3.976,0.643 -5.084,2.931 -0.19,0.394 -0.267,0.865 -0.527,1.199 -1.112,1.422 -0.768,2.886 -0.258,4.394 0.137,0.401 0.141,0.852 0.174,1.282 0.091,1.196 1.393,2.635 2.562,2.763 0.259,0.029 0.54,-0.082 0.802,-0.157 1.067,-0.306 2.13,-0.624 3.215,-0.943 0.786,1.566 1.521,3.029 2.302,4.584 -1.236,0.989 -2.478,2.071 -2.303,3.767 0.157,1.529 0.761,2.973 1.828,3.969 -0.536,1.446 -0.937,2.759 -1.506,3.995 -0.561,1.218 -1.294,2.357 -1.973,3.568 -1.163,-0.332 -2.296,-0.583 -3.372,-0.985 -0.993,-0.37 -1.946,-0.546 -2.995,-0.286 -0.846,0.209 -1.72,0.306 -2.372,0.417 -0.18,2.13 -0.336,3.994 -0.51,6.062 -1.302,-0.212 -2.485,-0.501 -3.682,-0.573 -1.174,-0.07 -2.362,0.08 -3.744,0.143 -0.627,-0.693 -0.873,-2.055 -2.127,-2.569 -0.684,-0.281 -1.354,-0.596 -1.928,-0.849 -0.473,0.375 -0.815,0.675 -1.184,0.933 -0.668,0.468 -1.237,2.463 -0.866,3.195 0.288,0.57 0.526,1.2 0.801,1.72 0.401,0.761 1.35,1.266 2.131,1.779 0.41,0.269 0.956,0.351 1.452,0.46 0.185,0.041 0.413,-0.064 0.608,-0.135 0.181,-0.067 0.338,-0.205 0.52,-0.263 0.333,-0.105 0.885,-0.077 0.979,-0.276 0.3,-0.639 0.471,-1.348 0.602,-2.047 0.031,-0.165 -0.288,-0.397 -0.655,-0.865 1.36,-0.058 2.474,-0.251 3.546,-0.115 1.253,0.159 2.473,0.595 3.7,0.936 0.175,0.049 0.414,0.212 0.447,0.362 0.316,1.408 1.595,1.848 2.58,2.551 0.552,0.394 0.494,0.75 0.234,1.204 -1.048,1.829 -2.109,3.649 -3.153,5.479 -0.105,0.185 -0.128,0.416 -0.188,0.626 -0.15,0.524 -0.3,1.049 -0.451,1.576 -0.904,-0.106 -1.148,-1.002 -2.031,-1.197 -0.948,-0.21 -1.365,0.549 -2.052,0.573 -0.744,1.441 0.142,2.737 0.921,3.623 1.003,1.139 2.543,1.808 3.868,2.653 0.128,0.083 0.375,-0.041 0.566,-0.035 0.35,0.01 0.699,0.046 1.258,0.085 0.019,-0.019 0.189,-0.239 0.405,-0.398 1.5,-1.107 1.49,-2.503 0.076,-4.031 -0.073,-0.079 -0.24,-0.064 -0.324,-0.139 -1.593,-1.399 -1.594,-1.877 -0.456,-3.738 1.055,-1.727 1.968,-3.541 2.987,-5.395 1.711,0.868 3.399,0.365 5.329,0.097 0.556,0.754 1.266,1.698 1.953,2.657 0.272,0.38 0.474,0.813 0.746,1.194 0.788,1.104 0.793,1.097 0.052,2.293 -0.376,0.608 -0.733,1.226 -1.103,1.836 -0.597,0.982 -0.601,2.021 -0.236,3.062 0.105,0.297 0.369,0.588 0.636,0.768 0.512,0.345 1.064,0.646 1.632,0.886 0.228,0.096 0.547,0.003 0.818,-0.042 1.158,-0.194 2.397,0.034 3.454,-0.675 0.571,-0.384 1.277,-0.488 1.858,-0.779 1.581,-0.792 1.801,-3.906 0.258,-4.821 -1.328,-0.787 -2.614,-1.836 -4.279,-1.938 -0.299,-0.018 -0.602,0.018 -1.11,0.037 -1.066,-1.578 -2.229,-3.3 -3.389,-5.016 1.671,-1.363 1.914,-3.952 1.005,-5.754 -0.549,-1.089 -1.238,-2.108 -1.805,-3.189 -0.183,-0.349 -0.374,-0.899 -0.227,-1.182 1.073,-2.058 2.231,-4.072 3.398,-6.164 0.425,0.4 0.825,0.763 1.212,1.141 1.46,1.427 3.382,1.841 5.252,2.268 1.292,0.295 2.41,-0.706 2.446,-2.027 0.02,-0.751 0.409,-1.606 -0.386,-2.233 -0.053,-0.042 -0.115,-0.167 -0.094,-0.197 0.554,-0.781 -0.051,-1.404 -0.387,-2.173 1.997,-0.167 3.89,-0.325 5.901,-0.493 0.337,2.388 2.356,3.583 3.697,5.054 0.852,0.041 1.536,0.073 2.411,0.115 0.319,-0.201 0.84,-0.529 1.356,-0.854 0.959,0.996 1.844,1.944 2.761,2.86 0.606,0.607 1.022,1.278 1.108,2.156 0.034,0.34 0.218,0.664 0.333,0.996 0.062,0.18 0.232,0.451 0.169,0.525 -0.646,0.763 -0.013,1.399 0.149,2.086 0.065,0.281 0.114,0.623 0.014,0.876 -0.907,2.3 -1.828,4.585 -1.979,7.103 -0.044,0.744 -0.261,1.378 -1.293,1.538 -1.318,0.204 -2.123,1.326 -2.74,2.386 -1.014,1.741 -1.59,3.691 -1.958,5.665 -0.305,1.635 0.551,2.853 1.848,3.758 0.451,0.316 0.979,0.522 1.475,0.773 1.145,0.581 2.238,0.79 3.465,0.05 0.926,-0.559 2.077,-0.743 3.012,-1.289 0.647,-0.379 1.141,-1.058 1.624,-1.666 0.364,-0.456 0.619,-1.004 0.888,-1.529 0.098,-0.191 0.099,-0.433 0.138,-0.652 0.194,-1.067 0.146,-2.197 0.943,-3.1 0.167,-0.189 0.182,-0.602 0.125,-0.883 -0.3,-1.468 -1.016,-2.651 -2.429,-3.314 -0.106,-0.05 -0.204,-0.126 -0.291,-0.206 -0.057,-0.052 -0.087,-0.131 -0.113,-0.172 0.369,-1.979 0.734,-3.933 1.106,-5.932 1.299,0.187 2.46,0.353 3.758,0.54 -0.019,0.044 0.046,-0.323 0.168,-0.343 0.864,-0.144 1.02,-0.908 1.384,-1.486 0.105,-0.167 0.134,-0.382 0.239,-0.547 0.834,-1.294 1.845,-2.537 0.963,-4.262 1.469,-0.31 2.762,-0.583 4.05,-0.855 1.447,2.33 3.379,3.798 5.907,4.509 1.407,0.395 2.556,-0.018 3.631,-0.867 0.307,-0.242 0.607,-0.495 0.963,-0.787 1.138,0.963 2.299,1.944 3.534,2.989 -0.804,0.693 -2.112,0.951 -1.799,2.359 -1.232,0.629 -0.63,1.739 -0.628,2.642 0.003,1.117 0.567,2.058 1.386,2.808 0.737,0.675 1.515,1.304 2.451,2.104 -0.322,1.245 -0.666,2.693 -1.076,4.121 -0.338,1.177 -0.728,2.34 -1.152,3.489 -0.151,0.413 -0.383,0.961 -0.725,1.108 -1.183,0.513 -1.257,1.727 -1.78,2.626 -0.429,0.738 0.079,1.869 0.899,2.22 0.789,0.338 1.636,0.561 2.478,0.745 0.34,0.074 0.782,0.004 1.093,-0.161 1.773,-0.943 2.766,-2.426 2.925,-4.446 0.057,-0.725 -1.168,-1.828 -2.127,-1.908 -0.389,-0.033 -0.778,-0.062 -1.319,-0.104 0.075,-0.639 -0.013,-1.291 0.236,-1.766 0.878,-1.674 1.449,-3.432 1.781,-5.281 0.033,-0.181 0.14,-0.348 0.255,-0.623 1.888,1.378 3.315,0.258 4.911,-0.895 1.02,1.328 2.023,2.634 3.026,3.94 0.025,0.031 0.039,0.072 0.069,0.098 1.274,1.141 1.782,2.507 1.557,4.253 -0.126,0.97 1.671,1.964 2.684,1.668 0.515,-0.151 1.052,-0.248 1.585,-0.313 0.995,-0.121 2.747,-2.031 2.919,-3.222 0.172,-1.193 -0.781,-2.849 -2.023,-3.18 -1.014,-0.27 -2.117,-0.436 -3.147,-0.325 -0.488,0.053 -0.897,0.858 -1.479,1.467 -0.108,-0.071 -0.436,-0.199 -0.638,-0.435 -1.113,-1.298 -2.201,-2.617 -3.286,-3.939 -0.959,-1.169 -0.995,-1.204 -0.233,-2.308 0.453,-0.657 1.006,-1.281 1.627,-1.778 0.568,-0.455 1.283,-0.731 1.943,-1.065 1.582,-0.799 3.165,-1.598 4.761,-2.369 0.443,-0.214 0.93,-0.338 1.402,-0.488 0.652,-0.206 1.102,0.027 1.529,0.567 1.408,1.78 2.664,1.898 4.435,0.498 0.416,-0.329 0.999,-0.551 1.244,-0.973 0.561,-0.972 0.261,-2.174 -0.746,-2.799 -1.156,-0.717 -2.37,-1.44 -3.66,-1.8 -0.675,-0.189 -1.637,0.273 -2.327,0.682 -0.337,0.2 -0.413,0.942 -0.485,1.456 -0.071,0.507 -0.805,1.438 -1.423,1.701 -1.775,0.756 -3.539,1.533 -5.303,2.314 -0.382,0.168 -0.743,0.384 -1.177,0.612 -0.216,-1.768 -0.64,-3.431 -2.444,-4.043 -1.527,-0.517 -3.168,-0.946 -4.521,0.574 -0.168,-0.269 -0.246,-0.356 -0.28,-0.457 -0.037,-0.111 -0.035,-0.234 -0.043,-0.295 -0.686,0.142 -1.363,0.282 -1.888,0.39 -1.187,-0.922 -2.284,-1.761 -3.367,-2.62 -0.59,-0.468 -1.1,-0.917 -0.387,-1.763 0.229,-0.271 0.045,-0.891 0.052,-1.351 0.027,-1.931 -0.919,-3.512 -1.935,-5.021 -0.372,-0.552 -1.117,-0.852 -1.74,-1.303 0.279,-1.873 0.564,-3.778 0.837,-5.601 1.187,10e-4 2.349,0.047 3.506,-0.007 1.971,-0.091 2.895,-1.385 3.388,-3.11 0.162,-0.57 0.305,-1.147 0.418,-1.729 0.158,-0.81 0.553,-1.16 1.4,-1.199 2.15,-0.099 4.299,-0.219 6.45,-0.286 0.263,-0.008 0.595,0.197 0.792,0.402 0.681,0.709 1.326,1.459 2.346,1.679 0.481,0.103 0.428,0.842 1.178,0.754 1.178,-0.14 2.115,-0.625 2.951,-1.383 0.169,-0.153 0.173,-0.475 0.293,-0.697 0.256,-0.47 0.54,-0.924 0.808,-1.387 0.109,-0.188 0.293,-0.38 0.297,-0.573 0.03,-1.564 0.448,-3.15 -0.199,-4.679 -0.164,-0.385 -0.369,-0.77 -0.633,-1.091 -0.579,-0.703 -1.181,-1.391 -1.824,-2.036 -0.687,-0.691 -1.475,-1.184 -2.534,-0.908 -0.265,0.069 -0.56,0.108 -0.826,0.065 -2.352,-0.377 -3.158,0.449 -3.774,2.692 -0.224,0.815 -0.507,1.216 -1.33,1.389 -0.802,0.169 -1.547,0.601 -2.348,0.777 -0.812,0.177 -1.671,0.293 -2.492,0.224 -0.546,-0.046 -0.915,0.034 -1.411,0.259 -0.516,0.235 -1.463,0.333 -1.79,0.028 -1.169,-1.089 -2.667,-1.041 -4.021,-1.474 -0.335,-0.107 -0.684,-0.22 -1.03,-0.234 -0.498,-0.019 -1.079,-0.101 -1.481,0.114 -0.787,0.419 -1.353,0.563 -1.86,-0.366 -0.146,-0.269 -0.584,-0.376 -0.884,-0.565 -0.315,-0.199 -0.625,-0.407 -1.03,-0.672 0.302,-0.238 0.463,-0.418 0.665,-0.517 1.417,-0.697 2.031,-1.872 2.081,-3.404 0.006,-0.205 0.064,-0.424 0.156,-0.607 0.308,-0.608 0.212,-1.204 -0.029,-1.79 -0.625,-1.517 -1.668,-2.482 -3.396,-2.516 -0.468,-0.01 -0.935,-0.032 -1.557,-0.053 0.163,-2.419 1.75,-4.397 1.909,-6.91 1.114,0.318 2.028,0.67 2.975,0.833 2.436,0.419 3.75,-1.013 3.263,-3.457 -0.114,-0.572 0.106,-1.217 -0.357,-1.747 -0.049,-0.057 0.34,-0.687 0.625,-0.8 0.504,-0.199 1.088,-0.299 1.631,-0.274 1.216,0.057 2.264,-0.373 3.279,-0.946 0.932,-0.525 1.578,-0.447 2.356,0.325 1.527,1.516 3.779,1.466 5.685,-0.136 0.328,-0.275 0.64,-0.571 0.949,-0.867 C 31.406,8.64 31.617,8.483 31.697,8.28 31.773,8.084 31.692,7.832 31.704,7.605 31.757,6.639 32.123,5.538 31.272,4.82 30.244,3.953 28.959,3.768 27.641,4.163 27.109,4.322 26.552,4.456 26.078,4.726 25.734,4.921 25.525,5.341 25.224,5.627 25.006,5.835 24.759,6.055 24.483,6.151 23.732,6.414 23.567,6.641 23.73,7.43 22.396,7.943 21.093,8.645 19.705,8.918 18.398,9.176 17.003,8.981 15.638,8.986 15.621,7.59 14.644,6.69 13.607,5.893 13.137,5.531 13.021,5.244 13.201,4.716 c 0.705,-2.057 1.388,-4.121 2.11,-6.277 0.672,0.291 1.212,0.587 1.79,0.753 0.377,0.109 0.836,0.128 1.209,0.017 1.734,-0.514 2.006,-1.118 1.347,-2.753 -0.344,-0.852 -0.59,-1.751 -1.014,-2.559 -0.751,-1.43 -2.137,-1.905 -3.624,-2.162 -0.385,-0.066 -0.768,-0.147 -1.183,-0.228 -1.778,1.479 -1.598,3.874 0.63,5.889 C 13.538,-0.237 12.583,2.2 11.592,4.726 11.37,4.748 11.026,4.865 10.724,4.798 9.603,4.548 8.705,4.985 7.879,5.647 7.489,5.96 7.154,6.03 6.788,5.646 5.554,4.353 4.319,3.06 3.082,1.769 2.831,1.506 2.565,1.257 2.271,0.967 3.083,0.325 3.548,-0.099 4.068,-0.439 4.682,-0.84 5.254,-2.472 4.929,-3.1 4.722,-3.502 4.419,-3.868 4.279,-4.29 3.884,-5.484 2.668,-5.604 1.819,-5.945 c -2.287,-0.915 -4.909,0.134 -6.318,2.217 -0.743,1.1 -0.269,2.887 1.041,3.592 1.139,0.614 2.343,1.11 3.517,1.659 C 0.131,1.557 0.201,1.648 0.263,1.641 1.642,1.47 2.252,2.573 3.066,3.329 3.62,3.844 4.18,4.356 4.693,4.909 5.177,5.43 5.604,6.003 6.067,6.566 5.544,7.65 5.232,8.706 5.433,9.968 c 0.222,1.391 1.042,2.276 1.959,3.151 0.689,0.656 1.805,1.14 2.046,1.913 0.237,0.763 -0.379,1.798 -0.635,2.708 -0.4,1.425 -0.824,2.842 -1.212,4.269 -0.139,0.512 -0.35,0.797 -0.945,0.879 -0.742,0.102 -1.453,0.413 -2.187,0.594 -1.612,0.399 -2.455,1.494 -3.142,2.956 -0.31,0.662 -1.271,1.139 -2.038,1.437 -1.215,0.47 -2.539,0.652 -3.769,1.091 -0.643,0.23 -1.208,0.167 -1.707,-0.116 -2.174,-1.234 -4.463,-1.65 -6.941,-1.312 -0.473,0.065 -1.051,-0.29 -1.515,-0.564 -1.352,-0.798 -2.67,-1.653 -4.016,-2.494 0.724,-3.052 -1.19,-4.961 -3.165,-6.636 -0.793,-0.672 -2.216,-0.609 -3.359,-0.851 -0.293,-0.062 -0.614,0.015 -0.914,-0.024 -1.463,-0.192 -2.783,-0.054 -3.582,1.426 -0.07,0.13 -0.232,0.209 -0.346,0.318 -1.69,1.635 -1.718,2.54 -0.041,4.364"
           style="fill:#000000;fill-opacity:1;fill-rule:nonzero;stroke:none"
           id="path473" /></g><g
         id="g475"
         transform="translate(49.1517,68.04)"><path
           d="M 0,0 C 0.422,-0.316 0.788,-0.479 0.982,-0.759 1.364,-1.308 1.82,-1.89 1.938,-2.516 2.153,-3.661 2.988,-4.322 3.623,-5.148 4.43,-6.2 5.628,-6.281 6.798,-6.348 7.33,-6.378 7.449,-5.983 7.158,-5.49 6.942,-5.125 6.692,-4.749 6.602,-4.345 6.231,-2.706 5.138,-1.624 3.895,-0.628 2.917,0.156 1.968,0.976 1.006,1.779 1.036,1.868 1.066,1.956 1.095,2.044 1.324,2.046 1.571,2.108 1.778,2.042 2.83,1.706 3.854,1.27 4.921,0.997 6.333,0.636 7.228,-0.154 7.576,-1.586 7.696,-2.081 7.941,-2.546 8.138,-3.021 8.5,-3.893 8.647,-4.751 8.227,-5.669 7.783,-6.64 7.294,-7.354 6.017,-7.204 5.096,-7.096 4.092,-7.467 3.219,-7.25 2.557,-7.084 1.926,-6.414 1.485,-5.817 0.286,-4.198 -0.024,-2.29 0,0"
           style="fill:#ffffff;fill-opacity:1;fill-rule:nonzero;stroke:none"
           id="path477" /></g><g
         id="g479"
         transform="translate(112.4203,72.7944)"><path
           d="m 0,0 c -2.947,-0.351 -5.777,-0.687 -8.615,-1.024 -0.482,1.458 1.273,1.021 1.246,1.918 1.793,-0.355 1.793,-0.355 2.818,0.987 -0.197,0.148 -0.394,0.296 -0.54,0.406 1.281,1.277 2.366,0.861 3.539,-0.235 C -0.902,1.445 -0.287,0.9 0,0"
           style="fill:#ffffff;fill-opacity:1;fill-rule:nonzero;stroke:none"
           id="path481" /></g><g
         id="g483"
         transform="translate(103.8363,67.5972)"><path
           d="M 0,0 C -0.154,0.812 -0.315,1.661 -0.477,2.509 1.031,1.617 2.332,1.37 3.819,2.148 4.607,2.562 5.518,2.765 6.394,2.978 6.742,3.063 7.189,3.008 7.514,2.854 7.979,2.633 8.118,2.156 7.707,1.778 6.544,0.708 5.335,-0.219 3.607,-0.284 2.4,-0.33 1.206,-0.663 0,0"
           style="fill:#ffffff;fill-opacity:1;fill-rule:nonzero;stroke:none"
           id="path485" /></g><g
         id="g487"
         transform="translate(76.4779,83.3032)"><path
           d="m 0,0 c -0.218,-0.639 -0.369,-1.312 -0.671,-1.909 -0.344,-0.679 -0.741,-1.297 -0.343,-2.089 0.084,-0.168 0.127,-0.41 0.075,-0.584 -0.459,-1.549 -0.56,-3.226 -1.592,-4.575 -0.014,-0.019 -0.071,-0.006 -0.182,-0.012 -0.528,1.305 -0.815,2.664 -0.702,4.101 0.028,0.355 0.126,0.745 0.023,1.064 -0.538,1.66 0.642,2.459 1.64,3.323 0.408,0.353 0.936,0.567 1.409,0.844 C -0.229,0.108 -0.115,0.054 0,0"
           style="fill:#ffffff;fill-opacity:1;fill-rule:nonzero;stroke:none"
           id="path489" /></g><g
         id="g491"
         transform="translate(86.7499,87.4146)"><path
           d="M 0,0 C 0.111,-0.389 0.186,-0.65 0.272,-0.954 0.856,-0.752 1.057,-0.493 1.203,0.11 1.464,1.192 1.976,2.236 2.528,3.214 2.753,3.611 3.404,3.744 3.771,4.093 4.047,4.355 4.275,4.749 4.353,5.12 4.461,5.635 4.571,6.046 5.188,6.069 6.126,4.567 5.928,3.114 4.747,1.904 4.08,1.22 3.567,0.388 2.954,-0.351 2.267,-1.18 1.416,-1.562 0.335,-1.165 -0.243,-0.952 -0.243,-0.952 0,0"
           style="fill:#ffffff;fill-opacity:1;fill-rule:nonzero;stroke:none"
           id="path493" /></g><g
         id="g495"
         transform="translate(90.2333,94.9404)"><path
           d="m 0,0 c -0.371,-0.356 -0.711,-0.739 -1.107,-1.052 -0.915,-0.725 -1.513,-1.986 -2.999,-1.795 -0.095,0.013 -0.395,-0.449 -0.344,-0.61 0.443,-1.402 -0.463,-2.522 -0.714,-3.809 -0.388,0.718 -1.255,1.072 -1.165,2.08 0.044,0.488 0.047,0.867 0.387,1.278 0.315,0.382 0.505,0.906 0.63,1.398 0.449,1.769 3.239,3.385 4.973,2.835 C -0.272,0.304 -0.226,0.22 0,0"
           style="fill:#ffffff;fill-opacity:1;fill-rule:nonzero;stroke:none"
           id="path497" /></g><g
         id="g499"
         transform="translate(67.2875,56.9717)"><path
           d="m 0,0 c -1.034,-0.738 -2.016,-1.57 -3.118,-2.186 -0.958,-0.534 -1.254,-1.331 -1.472,-2.282 -0.107,-0.463 -0.365,-0.891 -0.524,-1.265 -0.279,0.009 -0.366,-0.012 -0.432,0.017 -1.779,0.795 -1.608,1.266 -0.83,2.842 1.061,2.152 3.982,3.629 6.218,3.162 C -0.105,0.192 -0.053,0.096 0,0"
           style="fill:#ffffff;fill-opacity:1;fill-rule:nonzero;stroke:none"
           id="path501" /></g><g
         id="g503"
         transform="translate(60.6444,110.3325)"><path
           d="m 0,0 c -0.54,-0.121 -0.863,-0.254 -1.186,-0.254 -0.669,0 -1.034,-0.386 -0.737,-0.951 0.212,-0.4 0.588,-0.727 0.931,-1.042 0.222,-0.204 0.518,-0.328 0.803,-0.501 -0.388,-0.778 -0.95,-0.829 -1.471,-0.361 -0.543,0.487 -0.992,1.091 -1.425,1.686 -0.376,0.515 -0.671,1.089 -1.166,1.909 0.163,0.26 0.368,1.024 0.816,1.214 0.997,0.421 2.087,0.344 3.092,-0.226 C 0.668,0.901 1.702,0.369 2.722,-0.188 2.814,-0.239 2.876,-0.345 2.956,-0.429 2.165,-0.98 1.667,-0.896 0,0"
           style="fill:#ffffff;fill-opacity:1;fill-rule:nonzero;stroke:none"
           id="path505" /></g><g
         id="g507"
         transform="translate(122.7806,63.6147)"><path
           d="m 0,0 c -0.36,0.257 -0.805,0.632 -1.302,0.914 -0.56,0.316 -0.458,0.737 -0.3,1.195 0.122,0.351 0.313,0.686 0.386,1.046 0.361,1.781 1.399,3.163 2.663,4.366 0.381,0.362 1.049,0.463 1.607,0.573 0.162,0.031 0.4,-0.324 0.6,-0.689 C 2.489,7.755 2.221,6.844 2.018,6.285 1.269,4.229 0.667,2.118 0,0"
           style="fill:#ffffff;fill-opacity:1;fill-rule:nonzero;stroke:none"
           id="path509" /></g><g
         id="g511"
         transform="translate(125.3368,63.2222)"><path
           d="M 0,0 C 0.012,1.325 0.024,2.458 1.02,3.449 1.449,3.875 1.967,4.383 2.003,5.234 2.025,5.766 2.778,6.267 3.204,6.782 3.416,6.604 3.455,6.583 3.476,6.551 4.257,5.345 4.139,4.282 3.148,3.193 2.63,2.623 2.383,1.811 1.988,1.122 1.405,0.105 1.396,0.111 0,0"
           style="fill:#ffffff;fill-opacity:1;fill-rule:nonzero;stroke:none"
           id="path513" /></g><g
         id="g515"
         transform="translate(101.5204,87.9077)"><path
           d="m 0,0 c -0.148,0.292 -0.534,0.691 -0.47,0.997 0.13,0.62 0.378,1.309 0.803,1.754 0.873,0.914 2.417,0.9 3.206,0.122 C 4.131,2.288 4.024,1.461 3.329,0.992 2.352,0.334 1.306,-0.073 0,0"
           style="fill:#ffffff;fill-opacity:1;fill-rule:nonzero;stroke:none"
           id="path517" /></g><g
         id="g519"
         transform="translate(100.2074,42.0122)"><path
           d="M 0,0 C -0.5,1.458 0.309,3.225 1.552,3.603 2.267,3.82 3.009,3.965 3.75,4.07 4.007,4.107 4.294,3.927 4.567,3.846 4.446,3.544 4.412,3.126 4.19,2.961 2.842,1.959 1.451,1.015 0,0"
           style="fill:#ffffff;fill-opacity:1;fill-rule:nonzero;stroke:none"
           id="path521" /></g><g
         id="g523"
         transform="translate(76.9447,71.0659)"><path
           d="M 0,0 C 0.678,0.368 1.359,0.737 2.213,1.201 2.484,-0.233 2.723,-1.497 2.97,-2.802 2.232,-3.173 1.577,-3.502 0.73,-3.928 0.469,-2.523 0.243,-1.304 0,0"
           style="fill:#ffffff;fill-opacity:1;fill-rule:nonzero;stroke:none"
           id="path525" /></g><g
         id="g527"
         transform="translate(116.4388,104.2041)"><path
           d="M 0,0 C 0.347,-0.926 0.578,-1.543 0.824,-2.198 0.216,-2.468 -0.305,-2.723 -0.844,-2.934 -1.388,-3.148 -1.949,-3.319 -2.48,-3.5 c -0.312,0.365 -0.58,0.736 -0.904,1.048 -0.476,0.458 -0.338,1.002 0.08,1.202 C -2.261,-0.753 -1.14,-0.418 0,0"
           style="fill:#ffffff;fill-opacity:1;fill-rule:nonzero;stroke:none"
           id="path529" /></g><g
         id="g531"
         transform="translate(129.9706,108.856)"><path
           d="M 0,0 C -0.741,1.094 -1.354,2.001 -1.949,2.878 -2.783,2.672 -2.727,2.103 -2.682,1.534 -2.633,0.929 -2.865,0.597 -3.513,0.761 -3.67,0.8 -3.93,1.032 -3.917,1.057 -3.401,2.031 -4.46,2.531 -4.579,3.304 -4.591,3.38 -4.581,3.46 -4.58,3.539 -3.097,4.211 -1.056,3.736 -0.255,2.705 0.374,1.895 0.458,1.105 0,0"
           style="fill:#ffffff;fill-opacity:1;fill-rule:nonzero;stroke:none"
           id="path533" /></g><g
         id="g535"
         transform="translate(84.9134,67.6069)"><path
           d="m 0,0 c 0.213,-1.958 -1.24,-2.949 -3.571,-2.534 -0.217,0.591 -0.438,1.196 -0.659,1.797 0.825,0.236 1.65,0.525 2.499,0.695 C -1.201,0.064 -0.634,-0.009 0,0"
           style="fill:#ffffff;fill-opacity:1;fill-rule:nonzero;stroke:none"
           id="path537" /></g><g
         id="g539"
         transform="translate(78.0624,74.4136)"><path
           d="M 0,0 C 2.364,3.708 1.627,6.69 -0.085,8.018 0.495,8.014 1.044,8.127 1.117,7.989 1.457,7.347 2.043,6.949 2.254,6.094 2.627,4.586 2.17,3.271 2.004,1.883 1.86,0.68 1.454,0.324 0,0"
           style="fill:#ffffff;fill-opacity:1;fill-rule:nonzero;stroke:none"
           id="path541" /></g><g
         id="g543"
         transform="translate(64.8627,52.248)"><path
           d="M 0,0 C 0.758,1.843 2.246,3.016 4.067,4.062 4.564,3.92 4.673,3.514 4.282,2.815 3.901,2.135 3.66,1.378 3.325,0.671 3.22,0.45 3.008,0.28 2.893,0.142 2.567,0.54 2.333,1.094 2.038,1.129 1.47,1.196 0.85,1.018 0.711,0.244 0.628,-0.225 0.298,-0.134 -0.017,0.008 Z"
           style="fill:#ffffff;fill-opacity:1;fill-rule:nonzero;stroke:none"
           id="path545" /></g><g
         id="g547"
         transform="translate(92.0184,27.6699)"><path
           d="M 0,0 C -1.918,-1.844 -4.029,-0.248 -5.499,1.819 -5.094,1.872 -4.617,2.068 -4.481,1.93 -3.813,1.248 -2.715,1.547 -2.06,0.697 -1.724,0.259 -0.823,0.255 0,0"
           style="fill:#ffffff;fill-opacity:1;fill-rule:nonzero;stroke:none"
           id="path549" /></g><g
         id="g551"
         transform="translate(98.0194,62.2979)"><path
           d="m 0,0 c 0.161,-0.449 0.278,-0.774 0.454,-1.263 -1.46,-0.485 -2.785,-1.157 -4.288,-1.27 -0.221,-0.016 -0.536,0.153 -0.666,0.337 -0.092,0.129 -0.014,0.567 0.109,0.629 0.936,0.474 1.888,0.929 2.872,1.285 0.178,0.064 0.53,-0.358 0.896,-0.624 0.179,0.26 0.364,0.53 0.623,0.906"
           style="fill:#ffffff;fill-opacity:1;fill-rule:nonzero;stroke:none"
           id="path553" /></g><g
         id="g555"
         transform="translate(63.7201,85.3774)"><path
           d="m 0,0 c -0.038,-1.711 -0.389,-2.153 -2.043,-2.653 -0.531,0.335 -0.912,0.814 -0.706,1.457 0.277,0.861 1.192,0.883 1.873,1.183 C -0.648,0.088 -0.338,0.001 0,0"
           style="fill:#ffffff;fill-opacity:1;fill-rule:nonzero;stroke:none"
           id="path557" /></g><g
         id="g559"
         transform="translate(47.1712,92.751)"><path
           d="M 0,0 C 1.062,0.836 2.166,1.242 3.461,0.653 3.052,-0.702 1.857,-0.785 0.829,-1.005 0.149,-1.15 0.077,-0.499 0,0"
           style="fill:#ffffff;fill-opacity:1;fill-rule:nonzero;stroke:none"
           id="path561" /></g><g
         id="g563"
         transform="translate(45.3631,94.7378)"><path
           d="M 0,0 C 0.948,1.214 1.721,2.211 3.047,2.704 3.367,2.141 3.629,1.68 3.943,1.127 2.686,0.768 1.477,0.422 0,0"
           style="fill:#ffffff;fill-opacity:1;fill-rule:nonzero;stroke:none"
           id="path565" /></g><g
         id="g567"
         transform="translate(32.1844,97.2642)"><path
           d="M 0,0 C 0.604,0.317 1.183,0.706 1.822,0.915 2.082,1 2.648,0.775 2.758,0.542 2.937,0.162 2.92,-0.353 2.839,-0.783 2.818,-0.898 2.254,-1 1.96,-0.958 1.314,-0.865 0.683,-0.677 0.045,-0.528 0.03,-0.352 0.015,-0.176 0,0"
           style="fill:#ffffff;fill-opacity:1;fill-rule:nonzero;stroke:none"
           id="path569" /></g><g
         id="g571"
         transform="translate(80.6283,111.9761)"><path
           d="M 0,0 C 0.046,-0.843 1.14,-1.452 0.259,-2.212 -0.08,-2.504 -0.762,-2.584 -1.235,-2.491 -1.919,-2.356 -2.064,-1.753 -1.899,-1.114 -1.312,-0.77 -0.74,-0.434 0,0"
           style="fill:#ffffff;fill-opacity:1;fill-rule:nonzero;stroke:none"
           id="path573" /></g><g
         id="g575"
         transform="translate(118.0682,40.9839)"><path
           d="M 0,0 C 0.14,-0.491 0.269,-0.939 0.394,-1.38 -0.893,-2.057 -0.893,-2.057 -2.913,-1.215 -2.152,-0.253 -1.168,0.027 0,0"
           style="fill:#ffffff;fill-opacity:1;fill-rule:nonzero;stroke:none"
           id="path577" /></g><g
         id="g579"
         transform="translate(44.2801,113.0723)"><path
           d="M 0,0 C 0.352,-0.072 0.736,-0.151 1.371,-0.281 1.095,-0.933 0.876,-1.521 0.602,-2.081 0.316,-2.665 -0.179,-2.614 -0.597,-2.29 -1.011,-1.968 -1.134,-1.488 -0.808,-1.011 -0.574,-0.669 -0.291,-0.36 0,0"
           style="fill:#ffffff;fill-opacity:1;fill-rule:nonzero;stroke:none"
           id="path581" /></g><g
         id="g583"
         transform="translate(110.3021,115.5718)"><path
           d="M 0,0 C -0.044,0.416 -0.085,0.806 -0.143,1.345 0.626,1.375 1.384,1.403 2.177,1.433 2.235,0.902 2.281,0.477 2.328,0.051 1.549,-0.955 0.751,0.132 0,0"
           style="fill:#ffffff;fill-opacity:1;fill-rule:nonzero;stroke:none"
           id="path585" /></g><g
         id="g587"
         transform="translate(108.3309,29.4736)"><path
           d="m 0,0 c 0.351,-1.578 0.323,-1.629 -1.129,-2.476 -0.517,0.652 -0.29,1.328 0.055,1.901 C -0.908,-0.3 -0.427,-0.216 0,0"
           style="fill:#ffffff;fill-opacity:1;fill-rule:nonzero;stroke:none"
           id="path589" /></g><g
         id="g591"
         transform="translate(90.2513,30.0659)"><path
           d="M 0,0 C 0.933,1.214 2.062,0.984 3.628,-0.659 2.255,-0.752 1.279,0.101 0,0"
           style="fill:#ffffff;fill-opacity:1;fill-rule:nonzero;stroke:none"
           id="path593" /></g><g
         id="g595"
         transform="translate(133.6454,96.0444)"><path
           d="m 0,0 c -0.311,-0.652 0.352,-1.622 -0.712,-2.04 -0.791,0.607 -0.985,1.129 -0.61,1.807 C -1.004,0.342 -0.555,0.408 0,0"
           style="fill:#ffffff;fill-opacity:1;fill-rule:nonzero;stroke:none"
           id="path597" /></g><g
         id="g599"
         transform="translate(76.7689,77.1523)"><path
           d="m 0,0 c -0.188,-1.118 0.307,-2.441 -0.953,-3.24 l -0.319,0.095 c 0.333,1.062 0.665,2.123 0.998,3.185 C -0.183,0.026 -0.091,0.013 0,0"
           style="fill:#ffffff;fill-opacity:1;fill-rule:nonzero;stroke:none"
           id="path601" /></g><g
         id="g603"
         transform="translate(90.2391,31.1899)"><path
           d="M 0,0 C -0.594,-0.24 -0.192,-1.656 -1.394,-1.132 -1.475,0.339 -1.205,0.588 0,0"
           style="fill:#ffffff;fill-opacity:1;fill-rule:nonzero;stroke:none"
           id="path605" /></g><g
         id="g607"
         transform="translate(64.8456,52.2563)"><path
           d="m 0,0 c 0.198,-0.388 0.479,-0.81 -0.512,-0.893 0.245,0.402 0.39,0.641 0.533,0.882 C 0.017,-0.008 0,0 0,0"
           style="fill:#ffffff;fill-opacity:1;fill-rule:nonzero;stroke:none"
           id="path609" /></g></g></g></svg>
