<svg xmlns="http://www.w3.org/2000/svg" viewBox="0 0 215 215"><defs><style>.cls-1{fill:#fff;}.cls-2{fill:none;stroke:#6694fb;stroke-miterlimit:10;stroke-width:3px;}.cls-3{fill:#ffe35e;}.cls-4{fill:#6694fb;}</style></defs><title>ikony_aktivity_novybarvy</title><g id="Vrstva_14" data-name="Vrstva 14"><circle class="cls-1" cx="107.5" cy="107.5" r="107.5"/></g><g id="Vrstva_8" data-name="Vrstva 8"><ellipse class="cls-2" cx="108.69" cy="108.66" rx="91.61" ry="34.65" transform="translate(-39.87 69.28) rotate(-30.15)"/><ellipse class="cls-2" cx="108.69" cy="108.66" rx="91.61" ry="34.65" transform="matrix(0.26, -0.97, 0.97, 0.26, -24.2, 185.86)"/><ellipse class="cls-2" cx="108.69" cy="108.66" rx="34.65" ry="91.61" transform="translate(-24.2 185.86) rotate(-75.15)"/><circle class="cls-3" cx="101.2" cy="41.07" r="7.42"/><circle class="cls-3" cx="29.2" cy="153.71" r="7.42"/><circle class="cls-3" cx="174.65" cy="147.58" r="7.42"/><path class="cls-1" d="M101.86,101.08a5.92,5.92,0,1,1,5.92-5.92A5.93,5.93,0,0,1,101.86,101.08Z"/><path class="cls-3" d="M101.86,90.74a4.42,4.42,0,1,1-4.42,4.42,4.42,4.42,0,0,1,4.42-4.42m0-3a7.42,7.42,0,1,0,7.42,7.42,7.42,7.42,0,0,0-7.42-7.42Z"/><path class="cls-1" d="M122,106a5.92,5.92,0,1,1,5.92-5.92A5.93,5.93,0,0,1,122,106Z"/><path class="cls-3" d="M122,95.66a4.42,4.42,0,1,1-4.42,4.42A4.42,4.42,0,0,1,122,95.66m0-3a7.42,7.42,0,1,0,7.42,7.42A7.42,7.42,0,0,0,122,92.66Z"/><path class="cls-1" d="M98,107.83a5.92,5.92,0,1,1,5.92-5.92A5.93,5.93,0,0,1,98,107.83Z"/><path class="cls-4" d="M98,97.49a4.42,4.42,0,1,1-4.42,4.42A4.42,4.42,0,0,1,98,97.49m0-3a7.42,7.42,0,1,0,7.42,7.42A7.42,7.42,0,0,0,98,94.49Z"/><circle class="cls-1" cx="106.04" cy="118.63" r="5.92"/><path class="cls-4" d="M106,114.21a4.42,4.42,0,1,1-4.42,4.42,4.42,4.42,0,0,1,4.42-4.42m0-3a7.42,7.42,0,1,0,7.42,7.42,7.42,7.42,0,0,0-7.42-7.42Z"/><path class="cls-1" d="M112.08,99.74A5.92,5.92,0,1,1,118,93.82,5.93,5.93,0,0,1,112.08,99.74Z"/><path class="cls-4" d="M112.08,89.4a4.42,4.42,0,1,1-4.42,4.42,4.42,4.42,0,0,1,4.42-4.42m0-3a7.42,7.42,0,1,0,7.42,7.42,7.42,7.42,0,0,0-7.42-7.42Z"/><path class="cls-1" d="M96.69,118.47a5.92,5.92,0,1,1,5.92-5.92A5.93,5.93,0,0,1,96.69,118.47Z"/><path class="cls-3" d="M96.69,108.13a4.42,4.42,0,1,1-4.43,4.42,4.43,4.43,0,0,1,4.43-4.42m0-3a7.42,7.42,0,1,0,7.42,7.42,7.43,7.43,0,0,0-7.42-7.42Z"/><path class="cls-1" d="M105.45,106a5.92,5.92,0,1,1,5.93-5.92A5.93,5.93,0,0,1,105.45,106Z"/><path class="cls-3" d="M105.45,95.66a4.42,4.42,0,1,1-4.42,4.42,4.43,4.43,0,0,1,4.42-4.42m0-3a7.42,7.42,0,1,0,7.43,7.42,7.42,7.42,0,0,0-7.43-7.42Z"/><path class="cls-1" d="M114.61,109.71a5.93,5.93,0,1,1,5.92-5.93A5.93,5.93,0,0,1,114.61,109.71Z"/><path class="cls-4" d="M114.61,99.36a4.43,4.43,0,1,1-4.42,4.42,4.43,4.43,0,0,1,4.42-4.42m0-3a7.43,7.43,0,1,0,7.42,7.42,7.42,7.42,0,0,0-7.42-7.42Z"/><path class="cls-1" d="M122,116.51a5.92,5.92,0,1,1,5.92-5.92A5.93,5.93,0,0,1,122,116.51Z"/><path class="cls-4" d="M122,106.17a4.42,4.42,0,1,1-4.42,4.42,4.43,4.43,0,0,1,4.42-4.42m0-3a7.42,7.42,0,1,0,7.42,7.42,7.42,7.42,0,0,0-7.42-7.42Z"/><path class="cls-1" d="M115.16,123.34a5.92,5.92,0,1,1,5.92-5.92A5.92,5.92,0,0,1,115.16,123.34Z"/><path class="cls-3" d="M115.16,113a4.42,4.42,0,1,1-4.42,4.42,4.42,4.42,0,0,1,4.42-4.42m0-3a7.42,7.42,0,1,0,7.42,7.42,7.42,7.42,0,0,0-7.42-7.42Z"/><path class="cls-1" d="M105.45,115.25a5.92,5.92,0,1,1,5.93-5.92A5.93,5.93,0,0,1,105.45,115.25Z"/><path class="cls-4" d="M105.45,104.91a4.42,4.42,0,1,1-4.42,4.42,4.43,4.43,0,0,1,4.42-4.42m0-3a7.42,7.42,0,1,0,7.43,7.42,7.42,7.42,0,0,0-7.43-7.42Z"/></g></svg>