<svg xmlns="http://www.w3.org/2000/svg" viewBox="0 0 214.56 214.56"><defs><style>.cls-1{fill:none;stroke:#6694fb;stroke-linecap:round;stroke-linejoin:round;stroke-width:3px;}.cls-2{fill:#fff;}.cls-3{fill:#ffe35e;}</style></defs><title>ikony_aktivity_novybarvy</title><g id="Vrstva_22" data-name="Vrstva 22"><rect class="cls-1" x="81.9" y="71.55" width="49.35" height="72.28" rx="3.17" ry="3.17"/><rect class="cls-1" x="87.65" y="77.31" width="37.83" height="60.75" rx="3.17" ry="3.17"/><rect class="cls-1" x="119.31" y="63.48" width="6.65" height="9.49" transform="translate(190.86 -54.41) rotate(90)"/><rect class="cls-1" x="103.24" y="63.48" width="6.65" height="9.49" transform="translate(174.79 -38.35) rotate(90)"/><rect class="cls-1" x="87.18" y="63.48" width="6.65" height="9.49" transform="translate(158.73 -22.28) rotate(90)"/><rect class="cls-1" x="119.31" y="142.41" width="6.65" height="9.49" transform="translate(269.79 24.52) rotate(90)"/><rect class="cls-1" x="103.24" y="142.41" width="6.65" height="9.49" transform="translate(253.72 40.58) rotate(90)"/><rect class="cls-1" x="87.18" y="142.41" width="6.65" height="9.49" transform="translate(237.65 56.65) rotate(90)"/><rect class="cls-1" x="75.25" y="78.84" width="6.65" height="9.49"/><rect class="cls-1" x="75.25" y="94.91" width="6.65" height="9.49"/><rect class="cls-1" x="75.25" y="110.97" width="6.65" height="9.49"/><rect class="cls-1" x="75.25" y="127.04" width="6.65" height="9.49"/><rect class="cls-1" x="131.24" y="78.84" width="6.65" height="9.49"/><rect class="cls-1" x="131.24" y="94.91" width="6.65" height="9.49"/><rect class="cls-1" x="131.24" y="110.97" width="6.65" height="9.49"/><rect class="cls-1" x="131.24" y="127.04" width="6.65" height="9.49"/><polyline class="cls-1" points="75.25 83.59 53.33 83.59 38.84 69.1"/><polyline class="cls-1" points="75.25 131.78 53.33 131.78 38.84 146.27"/><line class="cls-1" x1="75.25" y1="99.65" x2="38.84" y2="99.65"/><polyline class="cls-1" points="90.5 150.48 90.5 166.49 80.12 176.88 80.12 184.84"/><polyline class="cls-1" points="122.64 150.48 122.64 166.49 133.02 176.88 133.02 184.84"/><line class="cls-1" x1="106.75" y1="150.48" x2="106.75" y2="184.84"/><polyline class="cls-1" points="90.5 64.9 90.5 48.88 80.12 38.49 80.12 30.53"/><polyline class="cls-1" points="122.64 64.9 122.64 48.88 133.02 38.49 133.02 30.53"/><line class="cls-1" x1="106.75" y1="64.9" x2="106.75" y2="30.53"/><polyline class="cls-1" points="75.25 115.72 63.34 115.72 38.84 115.72"/><polyline class="cls-1" points="137.89 83.59 159.81 83.59 174.29 69.1"/><polyline class="cls-1" points="137.89 131.78 159.81 131.78 174.29 146.27"/><line class="cls-1" x1="137.89" y1="99.65" x2="174.29" y2="99.65"/><polyline class="cls-1" points="137.89 115.72 149.8 115.72 174.29 115.72"/><path class="cls-1" d="M94,96.28v34.36a1.49,1.49,0,0,0,1.49,1.49H113"/><path class="cls-2" d="M133,28.7a5.92,5.92,0,1,1,5.92-5.92A5.93,5.93,0,0,1,133,28.7Z"/><path class="cls-3" d="M133,18.36a4.42,4.42,0,1,1-4.42,4.42A4.42,4.42,0,0,1,133,18.36m0-3a7.42,7.42,0,1,0,7.42,7.42A7.42,7.42,0,0,0,133,15.36Z"/><path class="cls-2" d="M107.24,28.7a5.92,5.92,0,1,1,5.92-5.92A5.93,5.93,0,0,1,107.24,28.7Z"/><path class="cls-3" d="M107.24,18.36a4.42,4.42,0,1,1-4.42,4.42,4.43,4.43,0,0,1,4.42-4.42m0-3a7.42,7.42,0,1,0,7.42,7.42,7.42,7.42,0,0,0-7.42-7.42Z"/><path class="cls-2" d="M80.12,28.7A5.92,5.92,0,1,1,86,22.78,5.93,5.93,0,0,1,80.12,28.7Z"/><path class="cls-3" d="M80.12,18.36a4.42,4.42,0,1,1-4.42,4.42,4.42,4.42,0,0,1,4.42-4.42m0-3a7.42,7.42,0,1,0,7.42,7.42,7.42,7.42,0,0,0-7.42-7.42Z"/><path class="cls-2" d="M133,197.7a5.92,5.92,0,1,1,5.92-5.92A5.93,5.93,0,0,1,133,197.7Z"/><path class="cls-3" d="M133,187.36a4.42,4.42,0,1,1-4.42,4.42,4.42,4.42,0,0,1,4.42-4.42m0-3a7.42,7.42,0,1,0,7.42,7.42,7.42,7.42,0,0,0-7.42-7.42Z"/><path class="cls-2" d="M107.24,197.7a5.92,5.92,0,1,1,5.92-5.92A5.93,5.93,0,0,1,107.24,197.7Z"/><path class="cls-3" d="M107.24,187.36a4.42,4.42,0,1,1-4.42,4.42,4.43,4.43,0,0,1,4.42-4.42m0-3a7.42,7.42,0,1,0,7.42,7.42,7.42,7.42,0,0,0-7.42-7.42Z"/><path class="cls-2" d="M80.12,197.7A5.92,5.92,0,1,1,86,191.78,5.93,5.93,0,0,1,80.12,197.7Z"/><path class="cls-3" d="M80.12,187.36a4.42,4.42,0,1,1-4.42,4.42,4.42,4.42,0,0,1,4.42-4.42m0-3a7.42,7.42,0,1,0,7.42,7.42,7.42,7.42,0,0,0-7.42-7.42Z"/><path class="cls-2" d="M180.94,70.82a5.92,5.92,0,1,1,5.93-5.92A5.93,5.93,0,0,1,180.94,70.82Z"/><path class="cls-3" d="M180.94,60.48a4.42,4.42,0,1,1-4.42,4.42,4.43,4.43,0,0,1,4.42-4.42m0-3a7.42,7.42,0,1,0,7.43,7.42,7.42,7.42,0,0,0-7.43-7.42Z"/><path class="cls-2" d="M180.94,104.52a5.92,5.92,0,1,1,5.93-5.92A5.93,5.93,0,0,1,180.94,104.52Z"/><path class="cls-3" d="M180.94,94.18a4.42,4.42,0,1,1-4.42,4.42,4.44,4.44,0,0,1,4.42-4.42m0-3a7.42,7.42,0,1,0,7.43,7.42,7.42,7.42,0,0,0-7.43-7.42Z"/><path class="cls-2" d="M180.94,122.69a5.92,5.92,0,1,1,5.93-5.92A5.93,5.93,0,0,1,180.94,122.69Z"/><path class="cls-3" d="M180.94,112.35a4.42,4.42,0,1,1-4.42,4.42,4.43,4.43,0,0,1,4.42-4.42m0-3a7.42,7.42,0,1,0,7.43,7.42,7.42,7.42,0,0,0-7.43-7.42Z"/><path class="cls-2" d="M180.94,155.42a5.92,5.92,0,1,1,5.93-5.92A5.93,5.93,0,0,1,180.94,155.42Z"/><path class="cls-3" d="M180.94,145.08a4.42,4.42,0,1,1-4.42,4.42,4.44,4.44,0,0,1,4.42-4.42m0-3a7.42,7.42,0,1,0,7.43,7.42,7.42,7.42,0,0,0-7.43-7.42Z"/><path class="cls-2" d="M33.61,71.3a5.92,5.92,0,1,1,5.92-5.92A5.93,5.93,0,0,1,33.61,71.3Z"/><path class="cls-3" d="M33.61,61a4.42,4.42,0,1,1-4.42,4.42A4.43,4.43,0,0,1,33.61,61m0-3A7.42,7.42,0,1,0,41,65.38,7.42,7.42,0,0,0,33.61,58Z"/><path class="cls-2" d="M33.61,105a5.92,5.92,0,1,1,5.92-5.92A5.93,5.93,0,0,1,33.61,105Z"/><path class="cls-3" d="M33.61,94.67a4.42,4.42,0,1,1-4.42,4.42,4.42,4.42,0,0,1,4.42-4.42m0-3A7.42,7.42,0,1,0,41,99.09a7.42,7.42,0,0,0-7.42-7.42Z"/><path class="cls-2" d="M33.61,123.18a5.92,5.92,0,1,1,5.92-5.92A5.93,5.93,0,0,1,33.61,123.18Z"/><path class="cls-3" d="M33.61,112.84a4.42,4.42,0,1,1-4.42,4.42,4.42,4.42,0,0,1,4.42-4.42m0-3A7.42,7.42,0,1,0,41,117.26a7.42,7.42,0,0,0-7.42-7.42Z"/><path class="cls-2" d="M33.61,155.91A5.92,5.92,0,1,1,39.53,150,5.93,5.93,0,0,1,33.61,155.91Z"/><path class="cls-3" d="M33.61,145.57A4.42,4.42,0,1,1,29.19,150a4.42,4.42,0,0,1,4.42-4.42m0-3A7.42,7.42,0,1,0,41,150a7.42,7.42,0,0,0-7.42-7.42Z"/></g></svg>