<?xml version="1.0" encoding="UTF-8" standalone="no"?>
<!-- Creator: CorelDRAW X7 -->

<svg
   xmlns:dc="http://purl.org/dc/elements/1.1/"
   xmlns:cc="http://creativecommons.org/ns#"
   xmlns:rdf="http://www.w3.org/1999/02/22-rdf-syntax-ns#"
   xmlns:svg="http://www.w3.org/2000/svg"
   xmlns="http://www.w3.org/2000/svg"
   xmlns:sodipodi="http://sodipodi.sourceforge.net/DTD/sodipodi-0.dtd"
   xmlns:inkscape="http://www.inkscape.org/namespaces/inkscape"
   xml:space="preserve"
   width="150mm"
   height="150mm"
   version="1.1"
   style="clip-rule:evenodd;fill-rule:evenodd;image-rendering:optimizeQuality;shape-rendering:geometricPrecision;text-rendering:geometricPrecision"
   viewBox="0 0 5905.7117 5905.5622"
   id="svg2"
   inkscape:version="0.91 r13725"
   sodipodi:docname="ibis_logo.svg"><metadata
     id="metadata60"><rdf:RDF><cc:Work
         rdf:about=""><dc:format>image/svg+xml</dc:format><dc:type
           rdf:resource="http://purl.org/dc/dcmitype/StillImage" /><dc:title></dc:title></cc:Work></rdf:RDF></metadata><sodipodi:namedview
     pagecolor="#ffffff"
     bordercolor="#666666"
     borderopacity="1"
     objecttolerance="10"
     gridtolerance="10"
     guidetolerance="10"
     inkscape:pageopacity="0"
     inkscape:pageshadow="2"
     inkscape:window-width="1680"
     inkscape:window-height="987"
     id="namedview58"
     showgrid="false"
     units="mm"
     inkscape:snap-bbox="true"
     inkscape:bbox-paths="true"
     inkscape:bbox-nodes="true"
     inkscape:snap-bbox-edge-midpoints="true"
     inkscape:snap-bbox-midpoints="true"
     inkscape:snap-page="true"
     inkscape:zoom="0.8970306"
     inkscape:cx="424.5561"
     inkscape:cy="391.27358"
     inkscape:window-x="-8"
     inkscape:window-y="-8"
     inkscape:window-maximized="1"
     inkscape:current-layer="svg2" /><defs
     id="defs4"><style
       type="text/css"
       id="style6"><![CDATA[
    .str1 {stroke:black;stroke-width:13.8898}
    .str0 {stroke:black;stroke-width:13.8898}
    .fil0 {fill:none;fill-rule:nonzero}
    .fil1 {fill:black;fill-rule:nonzero}
    .fil2 {fill:#39A37B;fill-rule:nonzero}
   ]]></style></defs><g
     id="g4214"
     transform="matrix(1.334853,0,0,1.334853,-1087.228,7528.1822)"><polygon
       transform="translate(0,-5787.5855)"
       class="fil0 str0"
       points="2192,2982 2192,2519 2595,2287 2997,2519 2997,2982 2595,3213 "
       id="polygon10"
       style="fill:none;fill-rule:nonzero;stroke:#000000;stroke-width:13.88980007" /><polygon
       transform="translate(0,-5787.5855)"
       class="fil0 str0"
       points="1790,2285 1790,1822 2192,1590 2595,1822 2595,2285 2192,2517 "
       id="polygon12"
       style="fill:none;fill-rule:nonzero;stroke:#000000;stroke-width:13.88980007" /><polygon
       transform="translate(0,-5787.5855)"
       class="fil0 str0"
       points="1387,2982 1387,2519 1790,2287 2192,2519 2192,2982 1790,3213 "
       id="polygon14"
       style="fill:none;fill-rule:nonzero;stroke:#000000;stroke-width:13.88980007" /><polygon
       transform="translate(0,-5787.5855)"
       class="fil0 str0"
       points="2192,1588 2192,1125 2595,894 2997,1125 2997,1588 2595,1820 "
       id="polygon16"
       style="fill:none;fill-rule:nonzero;stroke:#000000;stroke-width:13.88980007" /><polyline
       transform="translate(0,-5787.5855)"
       class="fil0 str0"
       points="984,1824 1374,1600 1790,1824 1790,2287 1387,2519 984,2287 "
       id="polyline18"
       style="fill:none;fill-rule:nonzero;stroke:#000000;stroke-width:13.88980007" /><path
       class="fil1 str1"
       d="m 2251,-4187.5855 c 0,33 -26,59 -59,59 -32,0 -59,-26 -59,-59 0,-33 27,-59 59,-59 33,0 59,26 59,59 z"
       id="path20"
       inkscape:connector-curvature="0"
       style="fill:#000000;fill-rule:nonzero;stroke:#000000;stroke-width:13.88980007" /><path
       class="fil1 str1"
       d="m 2654,-3500.5855 c 0,33 -27,59 -59,59 -33,0 -59,-26 -59,-59 0,-33 26,-59 59,-59 32,0 59,26 59,59 z"
       id="path22"
       inkscape:connector-curvature="0"
       style="fill:#000000;fill-rule:nonzero;stroke:#000000;stroke-width:13.88980007" /><path
       class="fil1 str1"
       d="m 2654,-4871.5855 c 0,33 -27,59 -59,59 -33,0 -59,-26 -59,-59 0,-33 26,-59 59,-59 32,0 59,26 59,59 z"
       id="path24"
       inkscape:connector-curvature="0"
       style="fill:#000000;fill-rule:nonzero;stroke:#000000;stroke-width:13.88980007" /><path
       class="fil1 str1"
       d="m 1849,-3963.5855 c 0,32 -27,59 -59,59 -33,0 -60,-27 -60,-59 0,-33 27,-59 60,-59 32,0 59,26 59,59 z"
       id="path26"
       inkscape:connector-curvature="0"
       style="fill:#000000;fill-rule:nonzero;stroke:#000000;stroke-width:13.88980007" /><path
       class="fil1 str1"
       d="m 2251,-3268.5855 c 0,32 -26,59 -59,59 -33,0 -59,-27 -59,-59 0,-33 26,-60 59,-60 33,0 59,27 59,60 z"
       id="path28"
       inkscape:connector-curvature="0"
       style="fill:#000000;fill-rule:nonzero;stroke:#000000;stroke-width:13.88980007" /><path
       class="fil1 str1"
       d="m 1829,-3500.5855 c 0,33 -27,59 -59,59 -33,0 -59,-26 -59,-59 0,-33 26,-59 59,-59 32,0 59,26 59,59 z"
       id="path30"
       inkscape:connector-curvature="0"
       style="fill:#000000;fill-rule:nonzero;stroke:#000000;stroke-width:13.88980007" /><path
       class="fil1 str1"
       d="m 1446,-3268.5855 c 0,32 -26,59 -59,59 -33,0 -59,-27 -59,-59 0,-33 26,-60 59,-60 33,0 59,27 59,60 z"
       id="path32"
       inkscape:connector-curvature="0"
       style="fill:#000000;fill-rule:nonzero;stroke:#000000;stroke-width:13.88980007" /><path
       class="fil1 str1"
       d="m 1044,-3500.5855 c 0,33 -27,59 -60,59 -32,0 -59,-26 -59,-59 0,-33 27,-59 59,-59 33,0 60,26 60,59 z"
       id="path34"
       inkscape:connector-curvature="0"
       style="fill:#000000;fill-rule:nonzero;stroke:#000000;stroke-width:13.88980007" /><path
       class="fil1 str1"
       d="m 1044,-3963.5855 c 0,32 -27,59 -60,59 -32,0 -59,-27 -59,-59 0,-33 27,-59 59,-59 33,0 60,26 60,59 z"
       id="path36"
       inkscape:connector-curvature="0"
       style="fill:#000000;fill-rule:nonzero;stroke:#000000;stroke-width:13.88980007" /><path
       class="fil1 str1"
       d="m 2654,-3967.5855 c 0,33 -27,59 -59,59 -33,0 -59,-26 -59,-59 0,-33 26,-59 59,-59 32,0 59,26 59,59 z"
       id="path38"
       inkscape:connector-curvature="0"
       style="fill:#000000;fill-rule:nonzero;stroke:#000000;stroke-width:13.88980007" /><path
       class="fil1 str1"
       d="m 1433,-4187.5855 c 0,33 -27,59 -59,59 -33,0 -60,-26 -60,-59 0,-33 27,-59 60,-59 32,0 59,26 59,59 z"
       id="path40"
       inkscape:connector-curvature="0"
       style="fill:#000000;fill-rule:nonzero;stroke:#000000;stroke-width:13.88980007" /><path
       class="fil1 str1"
       d="m 2251,-4662.5855 c 0,33 -26,60 -59,60 -33,0 -59,-27 -59,-60 0,-32 26,-59 59,-59 33,0 59,27 59,59 z"
       id="path42"
       inkscape:connector-curvature="0"
       style="fill:#000000;fill-rule:nonzero;stroke:#000000;stroke-width:13.88980007" /><path
       class="fil1 str1"
       d="m 2666,-2574.5855 c 0,33 -27,59 -60,59 -32,0 -59,-26 -59,-59 0,-32 27,-59 59,-59 33,0 60,27 60,59 z"
       id="path44"
       inkscape:connector-curvature="0"
       style="fill:#000000;fill-rule:nonzero;stroke:#000000;stroke-width:13.88980007" /><path
       class="fil1 str1"
       d="m 1446,-2805.5855 c 0,32 -26,59 -59,59 -33,0 -59,-27 -59,-59 0,-33 26,-59 59,-59 33,0 59,26 59,59 z"
       id="path46"
       inkscape:connector-curvature="0"
       style="fill:#000000;fill-rule:nonzero;stroke:#000000;stroke-width:13.88980007" /><path
       class="fil1 str1"
       d="m 1849,-2574.5855 c 0,33 -27,59 -59,59 -33,0 -60,-26 -60,-59 0,-32 27,-59 60,-59 32,0 59,27 59,59 z"
       id="path48"
       inkscape:connector-curvature="0"
       style="fill:#000000;fill-rule:nonzero;stroke:#000000;stroke-width:13.88980007" /><path
       class="fil1 str1"
       d="m 2251,-2804.5855 c 0,33 -26,59 -59,59 -32,0 -59,-26 -59,-59 0,-33 27,-59 59,-59 33,0 59,26 59,59 z"
       id="path50"
       inkscape:connector-curvature="0"
       style="fill:#000000;fill-rule:nonzero;stroke:#000000;stroke-width:13.88980007" /><path
       class="fil2"
       d="m 5070,-2906.5855 c -84,-36 -198,-90 -369,-129 -5,-2 -9,-4 -12,-8 -19,-25 -105,-116 -300,-15 -1,1 -2,1 -3,2 -18,14 -235,120 -513,-160 0,0 -272,-200 -137,-868 1,-6 0,-11 -3,-16 -25,-39 -143,-221 -200,-238 -6,-2 -12,-6 -15,-13 -15,-32 -100,-154 -562,-594 0,-1 -1,-1 -1,-2 -9,-6 -93,-75 -125,-119 -9,-13 -28,-13 -36,0 -50,75 -141,281 -4,659 0,0 28,42 -80,-34 -14,-10 -32,-2 -35,14 -22,144 -75,652 151,786 0,0 138,12 113,575 0,0 -8,53 53,28 0,0 -60,43 -30,70 10,9 11,24 1,33 -56,48 -195,162 -280,178 -8,1 -15,8 -17,16 -5,19 -15,53 -37,85 -9,13 -2,31 13,34 78,17 282,37 518,-131 0,0 -234,144 -262,183 -1,2 -2,4 -3,6 -11,39 -131,419 -167,442 0,0 -85,91 -116,146 -3,5 -13,22 -11,28 4,12 7,19 -46,52 -5,3 -10,7 -12,12 l -37,99 c -1,5 6,9 10,5 39,-29 163,-135 207,-147 7,-1 12,-7 14,-14 26,-82 162,-513 182,-552 13,-26 20,-39 23,-45 2,-4 5,-7 9,-10 36,-18 220,-116 250,-136 2,-2 4,-3 6,-3 43,-13 484,-142 562,-194 2,-1 3,-2 4,-2 13,-5 83,-29 178,-31 62,-1 128,3 210,14 0,0 1,0 1,0 7,0 61,3 121,14 84,16 387,-4 418,-40 3,-4 8,-8 13,-8 41,0 192,-4 338,63 20,9 87,26 83,13 -9,-26 -35,-35 -65,-48 z"
       id="path52"
       inkscape:connector-curvature="0"
       style="fill:#39a37b;fill-rule:nonzero" /></g></svg>