<?xml version="1.0" encoding="UTF-8" standalone="no"?>
<!-- Created with Inkscape (http://www.inkscape.org/) -->

<svg
   xmlns:dc="http://purl.org/dc/elements/1.1/"
   xmlns:cc="http://creativecommons.org/ns#"
   xmlns:rdf="http://www.w3.org/1999/02/22-rdf-syntax-ns#"
   xmlns:svg="http://www.w3.org/2000/svg"
   xmlns="http://www.w3.org/2000/svg"
   xmlns:sodipodi="http://sodipodi.sourceforge.net/DTD/sodipodi-0.dtd"
   xmlns:inkscape="http://www.inkscape.org/namespaces/inkscape"
   width="100mm"
   height="100mm"
   viewBox="0 0 354.33071 354.33071"
   id="svg2"
   version="1.1"
   inkscape:version="0.91 r13725"
   sodipodi:docname="ibis_logo.svg">
  <defs
     id="defs4">
    <pattern
       y="0"
       x="0"
       height="6"
       width="6"
       patternUnits="userSpaceOnUse"
       id="EMFhbasepattern" />
  </defs>
  <sodipodi:namedview
     id="base"
     pagecolor="#ffffff"
     bordercolor="#666666"
     borderopacity="1.0"
     inkscape:pageopacity="0.0"
     inkscape:pageshadow="2"
     inkscape:zoom="1.4"
     inkscape:cx="200.21529"
     inkscape:cy="238.68491"
     inkscape:document-units="px"
     inkscape:current-layer="layer1"
     showgrid="false"
     inkscape:window-width="1680"
     inkscape:window-height="987"
     inkscape:window-x="-8"
     inkscape:window-y="-8"
     inkscape:window-maximized="1" />
  <metadata
     id="metadata7">
    <rdf:RDF>
      <cc:Work
         rdf:about="">
        <dc:format>image/svg+xml</dc:format>
        <dc:type
           rdf:resource="http://purl.org/dc/dcmitype/StillImage" />
        <dc:title></dc:title>
      </cc:Work>
    </rdf:RDF>
  </metadata>
  <g
     inkscape:label="Layer 1"
     inkscape:groupmode="layer"
     id="layer1"
     transform="translate(0,-698.0315)">
    <g
       id="g4212"
       transform="matrix(3.0050004,0,0,3.0050004,-441.00609,-999.29487)">
      <path
         style="fill:#000000;fill-opacity:1;fill-rule:evenodd;stroke:none"
         d="m 183.52253,642.28498 c 0.97056,0 1.76078,-0.7891 1.76078,-1.75853 0,-0.95899 -0.79022,-1.74837 -1.76078,-1.74837 -0.96069,0 -1.75091,0.78938 -1.75091,1.74837 0,0.96943 0.79022,1.75853 1.75091,1.75853 z"
         id="path4141"
         inkscape:connector-curvature="0" />
      <path
         style="fill:#000000;fill-opacity:1;fill-rule:evenodd;stroke:none"
         d="m 183.52253,605.00686 c 0.97056,0 1.76078,-0.78934 1.76078,-1.7485 0,-0.96918 -0.79022,-1.7585 -1.76078,-1.7585 -0.96069,0 -1.75091,0.78932 -1.75091,1.7585 0,0.95916 0.79022,1.7485 1.75091,1.7485 z"
         id="path4143"
         inkscape:connector-curvature="0" />
      <path
         style="fill:#000000;fill-opacity:1;fill-rule:evenodd;stroke:none"
         d="m 194.54839,586.37275 c 0.9604,0 1.7509,-0.78935 1.7509,-1.7585 0,-0.95919 -0.7905,-1.74851 -1.7509,-1.74851 -0.97057,0 -1.76107,0.78932 -1.76107,1.74851 0,0.96915 0.7905,1.7585 1.76107,1.7585 z"
         id="path4145"
         inkscape:connector-curvature="0" />
      <path
         style="fill:#000000;fill-opacity:1;fill-rule:evenodd;stroke:none"
         d="m 172.50661,623.6411 c 0.9705,0 1.75085,-0.7795 1.75085,-1.74865 0,-0.96915 -0.78035,-1.74837 -1.75085,-1.74837 -0.97054,0 -1.75094,0.77922 -1.75094,1.74837 0,0.96915 0.7804,1.74865 1.75094,1.74865 z"
         id="path4147"
         inkscape:connector-curvature="0" />
      <path
         style="fill:#000000;fill-opacity:1;fill-rule:evenodd;stroke:none"
         d="m 194.54839,648.58982 c 0.9604,0 1.7509,-0.7795 1.7509,-1.74865 0,-0.96915 -0.7905,-1.74836 -1.7509,-1.74836 -0.97057,0 -1.76107,0.77921 -1.76107,1.74836 0,0.96915 0.7905,1.74865 1.76107,1.74865 z"
         id="path4149"
         inkscape:connector-curvature="0" />
      <path
         style="fill:#000000;fill-opacity:1;fill-rule:evenodd;stroke:none"
         d="m 194.54839,611.32153 c 0.9604,0 1.7509,-0.78937 1.7509,-1.75853 0,-0.95927 -0.7905,-1.74864 -1.7509,-1.74864 -0.97057,0 -1.76107,0.78937 -1.76107,1.74864 0,0.96916 0.7905,1.75853 1.76107,1.75853 z"
         id="path4151"
         inkscape:connector-curvature="0" />
      <path
         style="fill:#000000;fill-opacity:1;fill-rule:evenodd;stroke:none"
         d="m 183.52253,629.95554 c 0.97056,0 1.76078,-0.78938 1.76078,-1.74837 0,-0.96915 -0.79022,-1.75853 -1.76078,-1.75853 -0.96069,0 -1.75091,0.78938 -1.75091,1.75853 0,0.95899 0.79022,1.74837 1.75091,1.74837 z"
         id="path4153"
         inkscape:connector-curvature="0" />
      <path
         style="fill:#000000;fill-opacity:1;fill-rule:evenodd;stroke:none"
         d="m 194.54839,623.6411 c 0.9604,0 1.7509,-0.7795 1.7509,-1.74865 0,-0.96915 -0.7905,-1.74837 -1.7509,-1.74837 -0.97057,0 -1.76107,0.77922 -1.76107,1.74837 0,0.96915 0.7905,1.74865 1.76107,1.74865 z"
         id="path4155"
         inkscape:connector-curvature="0" />
      <path
         style="fill:#000000;fill-opacity:1;fill-rule:evenodd;stroke:none"
         d="m 172.50661,648.58982 c 0.9705,0 1.75085,-0.7795 1.75085,-1.74865 0,-0.96915 -0.78035,-1.74836 -1.75085,-1.74836 -0.97054,0 -1.75094,0.77921 -1.75094,1.74836 0,0.96915 0.7804,1.74865 1.75094,1.74865 z"
         id="path4157"
         inkscape:connector-curvature="0" />
      <path
         style="fill:#000000;fill-opacity:1;fill-rule:evenodd;stroke:none"
         d="m 172.50661,611.32153 c 0.9705,0 1.75085,-0.78937 1.75085,-1.75853 0,-0.95927 -0.78035,-1.74864 -1.75085,-1.74864 -0.97054,0 -1.75094,0.78937 -1.75094,1.74864 0,0.96916 0.7804,1.75853 1.75094,1.75853 z"
         id="path4159"
         inkscape:connector-curvature="0" />
      <path
         style="fill:#000000;fill-opacity:1;fill-rule:evenodd;stroke:none"
         d="m 183.52253,592.67737 c 0.97056,0 1.76078,-0.77933 1.76078,-1.74851 0,-0.95919 -0.79022,-1.74851 -1.76078,-1.74851 -0.96069,0 -1.75091,0.78932 -1.75091,1.74851 0,0.96918 0.79022,1.74851 1.75091,1.74851 z"
         id="path4161"
         inkscape:connector-curvature="0" />
      <path
         style="fill:#000000;fill-opacity:1;fill-rule:evenodd;stroke:none"
         d="m 161.49074,629.95554 c 0.96051,0 1.75093,-0.78938 1.75093,-1.74837 0,-0.96915 -0.79042,-1.75853 -1.75093,-1.75853 -0.97054,0 -1.76096,0.78938 -1.76096,1.75853 0,0.95899 0.79042,1.74837 1.76096,1.74837 z"
         id="path4163"
         inkscape:connector-curvature="0" />
      <path
         style="fill:#000000;fill-opacity:1;fill-rule:evenodd;stroke:none"
         d="m 161.49074,642.28498 c 0.96051,0 1.75093,-0.7891 1.75093,-1.75853 0,-0.95899 -0.79042,-1.74837 -1.75093,-1.74837 -0.97054,0 -1.76096,0.78938 -1.76096,1.74837 0,0.96943 0.79042,1.75853 1.76096,1.75853 z"
         id="path4165"
         inkscape:connector-curvature="0" />
      <path
         style="fill:#000000;fill-opacity:1;fill-rule:evenodd;stroke:none"
         d="m 161.49074,605.00686 c 0.96051,0 1.75093,-0.78934 1.75093,-1.7485 0,-0.96918 -0.79042,-1.7585 -1.75093,-1.7585 -0.97054,0 -1.76096,0.78932 -1.76096,1.7585 0,0.95916 0.79042,1.7485 1.76096,1.7485 z"
         id="path4167"
         inkscape:connector-curvature="0" />
      <path
         style="fill:#000000;fill-opacity:1;fill-rule:evenodd;stroke:none"
         d="m 150.46485,623.6411 c 0.97054,0 1.76096,-0.7795 1.76096,-1.74865 0,-0.96915 -0.79042,-1.74837 -1.76096,-1.74837 -0.96051,0 -1.75093,0.77922 -1.75093,1.74837 0,0.96915 0.79042,1.74865 1.75093,1.74865 z"
         id="path4169"
         inkscape:connector-curvature="0" />
      <path
         style="fill:#000000;fill-opacity:1;fill-rule:evenodd;stroke:none"
         d="m 150.46485,611.32153 c 0.97054,0 1.76096,-0.78937 1.76096,-1.75853 0,-0.95927 -0.79042,-1.74864 -1.76096,-1.74864 -0.96051,0 -1.75093,0.78937 -1.75093,1.74864 0,0.96916 0.79042,1.75853 1.75093,1.75853 z"
         id="path4171"
         inkscape:connector-curvature="0" />
      <path
         style="fill:none;stroke:#000000;stroke-width:0.59031445px;stroke-linecap:butt;stroke-linejoin:miter;stroke-miterlimit:4;stroke-dasharray:none;stroke-opacity:1"
         d="m 161.49074,640.52645 11.01587,6.31472 11.01592,-6.31472 0,-12.31928 -11.01592,-6.31472 -11.01587,6.31472 z"
         id="path4173"
         inkscape:connector-curvature="0" />
      <path
         style="fill:none;stroke:#000000;stroke-width:0.59031445px;stroke-linecap:butt;stroke-linejoin:miter;stroke-miterlimit:4;stroke-dasharray:none;stroke-opacity:1"
         d="m 172.46659,621.76262 11.02574,6.30457 11.01598,-6.30457 0,-12.32944 -11.01598,-6.31472 -11.02574,6.31472 z"
         id="path4175"
         inkscape:connector-curvature="0" />
      <path
         style="fill:none;stroke:#000000;stroke-width:0.59031445px;stroke-linecap:butt;stroke-linejoin:miter;stroke-miterlimit:4;stroke-dasharray:none;stroke-opacity:1"
         d="m 183.45254,602.98858 11.0157,6.3145 11.01598,-6.3145 0,-12.3295 -11.01598,-6.31461 -11.0157,6.31461 z"
         id="path4177"
         inkscape:connector-curvature="0" />
      <path
         style="fill:none;stroke:#000000;stroke-width:0.59031445px;stroke-linecap:butt;stroke-linejoin:miter;stroke-miterlimit:4;stroke-dasharray:none;stroke-opacity:1"
         d="m 183.52253,640.52645 11.02586,6.31472 11.01569,-6.31472 0,-12.31928 -11.01569,-6.31472 -11.02586,6.31472 z"
         id="path4179"
         inkscape:connector-curvature="0" />
      <path
         style="fill:none;stroke:#000000;stroke-width:0.59031445px;stroke-linecap:butt;stroke-linejoin:miter;stroke-miterlimit:4;stroke-dasharray:none;stroke-opacity:1"
         d="m 150.46485,621.89245 11.02589,6.1547 11.01587,-6.31444 0,-12.31957 -11.01587,-6.31466 -11.02589,6.31466"
         id="path4181"
         inkscape:connector-curvature="0" />
      <path
         style="fill:#39a37b;fill-opacity:1;fill-rule:evenodd;stroke:none"
         d="m 197.71012,586.00307 -0.3604,0.28975 c 0.52042,0.83928 0.29013,1.73852 0.38044,3.05737 0.25993,3.48703 1.11054,5.33547 1.88101,8.31291 -1.57085,-0.4496 -1.46078,-1.23892 -2.90181,-1.07907 -0.97028,1.98831 -0.74027,9.15221 -0.67028,11.69007 l -0.0799,0.05 -0.0903,1.53867 c 1.28073,1.13905 0.83058,6.00484 4.53249,8.03317 2.86145,1.5686 2.69156,5.4754 3.26193,8.84231 -1.34084,-0.70923 -6.45358,-4.02647 -7.53421,-3.9164 0.14027,0.87912 -0.07,0.49953 1.60105,1.39869 1.60076,0.84921 4.61236,2.79767 5.95291,3.20718 l -0.0398,6.52441 c 0.30001,0.32992 0.01,0.0401 0.42023,0.39963 l 0.44027,0.36971 c -0.60057,0.92936 -0.26021,1.0493 -0.11007,2.06841 -4.04227,3.91668 -7.7343,4.97557 -7.94427,5.17539 -0.3604,0.67959 -1.17066,2.50811 -1.28073,3.03755 0.41007,0.41967 0.49022,0.32964 0.74027,0.57941 0.47047,0.47977 0.13011,0.02 0.50038,0.81929 -0.15014,-1.72833 0.0999,0.63951 9.34495,-2.16803 -2.77143,2.79767 -2.51122,0.36971 -4.1021,5.24538 -0.76059,2.33821 -1.55082,4.58611 -2.41131,6.85433 -1.04055,2.74772 -2.30124,3.50689 -3.8021,5.48527 -0.92061,1.20904 -0.58025,2.07829 -1.76078,2.86766 -0.98073,0.65927 -0.5303,-0.02 -1.03068,1.3287 -0.29012,0.7795 -0.50038,1.17913 -0.65024,2.08817 1.17038,-0.51929 3.03163,-2.3179 4.44218,-3.21706 0.51026,-0.32991 1.10067,-0.56952 1.60105,-0.96915 0.83029,-1.43877 2.27104,-6.7643 2.99155,-8.92245 0.97056,-2.96757 1.75091,-7.03411 3.80182,-8.03318 l 5.69327,-3.08751 11.50591,-3.68667 c 3.44199,-1.23895 4.87257,-2.56794 9.27495,-2.57781 6.32348,-0.0102 8.71474,1.61854 16.81903,0.50941 3.2416,-0.43942 3.55177,-1.99814 10.00534,-0.24977 1.58073,0.42983 2.90153,1.17913 4.58244,1.36906 -0.02,-1.17912 -1.07046,-1.20904 -2.03115,-1.61883 -0.92033,-0.39962 -1.93096,-0.88928 -2.89137,-1.23895 -2.16125,-0.79925 -3.81225,-1.3287 -6.09346,-1.92814 -1.80086,-0.48966 -1.9208,-2.52787 -5.79289,-1.87847 -3.30171,0.54948 -5.56316,4.06654 -12.57666,0.37958 -2.09127,-1.09897 -3.04179,-2.24817 -4.4625,-3.53708 -5.71303,-5.19543 -5.16269,-15.32693 -3.89213,-22.39067 0.28025,-1.50884 -0.25005,-1.92848 -0.95052,-2.91764 -3.84189,-5.39538 -3.05167,-3.1673 -5.63288,-6.50446 -2.86145,-3.68684 -10.57571,-11.19045 -13.8873,-14.23786 l -3.22185,-2.96747 c -0.6604,-0.75935 -0.17018,-0.63945 -1.22061,-0.91921 -1.50086,1.22895 -2.11131,4.14647 -2.3512,6.52445 z"
         id="path4183"
         inkscape:connector-curvature="0" />
    </g>
  </g>
</svg>
