<svg xmlns="http://www.w3.org/2000/svg" viewBox="0 0 215 215"><defs><style>.cls-1{fill:#fff;}.cls-2{fill:none;stroke:#6694fb;stroke-miterlimit:10;stroke-width:3px;}.cls-3{fill:#ffe35e;}.cls-4{fill:#6694fb;}</style></defs><title>ikony_aktivity_novybarvy</title><g id="Vrstva_14" data-name="Vrstva 14"><circle class="cls-1" cx="107.5" cy="107.5" r="107.5"/></g><g id="Vrstva_2" data-name="Vrstva 2"><path class="cls-2" d="M66.23,180.26c22.15,16.63,26.85,18,35.18,14.89s36-23.89,47.81-36.59,31.47-39.91,36.25-49.39-4.07-45.78-11.93-58.31-23.49-19.45-32-18.43c-27,3.22-50.45,5.23-71.34,25.63-16,15.65-42.94,53.72-45.62,68.32-2.8,15.23,3.4,21.89,13.36,30.35C45.52,163.18,56.87,173.23,66.23,180.26Z"/><circle class="cls-2" cx="108.48" cy="70.79" r="15.64"/><ellipse class="cls-2" cx="159.87" cy="109.81" rx="19.39" ry="7.72" transform="translate(-33.65 122.61) rotate(-38.27)"/><ellipse class="cls-2" cx="160.53" cy="66.22" rx="7.72" ry="19.39" transform="translate(-10.9 38.53) rotate(-13.24)"/><ellipse class="cls-2" cx="58.8" cy="144.32" rx="7.72" ry="19.39" transform="translate(-94.03 174.81) rotate(-79.11)"/><ellipse class="cls-2" cx="68.86" cy="90.72" rx="19.39" ry="7.72" transform="translate(-45.04 90.35) rotate(-52.61)"/><ellipse class="cls-2" cx="102.12" cy="170.98" rx="19.39" ry="7.72" transform="translate(-55.44 49.16) rotate(-21.44)"/><path class="cls-2" d="M75.72,120.51c4.14,11.75,3.84,14.28,23.55,16.55s22.6,1.74,25.5-9.35,3.09-13.65,6.18-21.84-5.2-7.29-14.51-5.22-18.74-1.94-29.07.51S72.12,110.31,75.72,120.51Z"/><circle class="cls-3" cx="147.05" cy="89.66" r="4.79"/><circle class="cls-3" cx="125.43" cy="46.03" r="4.79"/><circle class="cls-3" cx="82.51" cy="62.81" r="4.79"/><circle class="cls-3" cx="98.15" cy="148.45" r="4.79"/><circle class="cls-3" cx="69.68" cy="164.18" r="4.79"/><rect class="cls-4" x="121.69" y="67.16" width="20.85" height="2.97" rx="1.48" ry="1.48" transform="translate(173.64 -74.33) rotate(78.74)"/><rect class="cls-4" x="126.9" y="63.74" width="20.85" height="2.97" rx="1.48" ry="1.48" transform="translate(174.49 -82.19) rotate(78.74)"/><rect class="cls-4" x="131.43" y="59.68" width="20.85" height="2.97" rx="1.48" ry="1.48" transform="translate(174.15 -89.9) rotate(78.74)"/><rect class="cls-4" x="41.06" y="124.12" width="20.85" height="2.97" rx="1.48" ry="1.48" transform="translate(-39.25 24.63) rotate(-19.65)"/><rect class="cls-4" x="36.92" y="119.46" width="20.85" height="2.97" rx="1.48" ry="1.48" transform="translate(-37.92 22.97) rotate(-19.65)"/><rect class="cls-4" x="32.25" y="115.58" width="20.85" height="2.97" rx="1.48" ry="1.48" transform="translate(-36.89 21.17) rotate(-19.65)"/><rect class="cls-4" x="133.14" y="144.36" width="20.85" height="2.97" rx="1.48" ry="1.48" transform="translate(-49.54 213.6) rotate(-64.79)"/><rect class="cls-4" x="126.92" y="144" width="20.85" height="2.97" rx="1.48" ry="1.48" transform="translate(-52.79 207.77) rotate(-64.79)"/><rect class="cls-4" x="120.87" y="144.58" width="20.85" height="2.97" rx="1.48" ry="1.48" transform="translate(-56.78 202.63) rotate(-64.79)"/></g></svg>