<?xml version="1.0" encoding="UTF-8" standalone="no"?>
<!-- Created with Inkscape (http://www.inkscape.org/) -->

<svg
   xmlns:dc="http://purl.org/dc/elements/1.1/"
   xmlns:cc="http://creativecommons.org/ns#"
   xmlns:rdf="http://www.w3.org/1999/02/22-rdf-syntax-ns#"
   xmlns:svg="http://www.w3.org/2000/svg"
   xmlns="http://www.w3.org/2000/svg"
   xmlns:sodipodi="http://sodipodi.sourceforge.net/DTD/sodipodi-0.dtd"
   xmlns:inkscape="http://www.inkscape.org/namespaces/inkscape"
   width="100mm"
   height="100mm"
   viewBox="0 0 354.33071 354.33071"
   id="svg2"
   version="1.1"
   inkscape:version="0.91 r13725"
   sodipodi:docname="komar_logo.svg">
  <defs
     id="defs4">
    <pattern
       y="0"
       x="0"
       height="6"
       width="6"
       patternUnits="userSpaceOnUse"
       id="EMFhbasepattern" />
  </defs>
  <sodipodi:namedview
     id="base"
     pagecolor="#ffffff"
     bordercolor="#666666"
     borderopacity="1.0"
     inkscape:pageopacity="0.0"
     inkscape:pageshadow="2"
     inkscape:zoom="0.98994949"
     inkscape:cx="143.3042"
     inkscape:cy="290.95279"
     inkscape:document-units="px"
     inkscape:current-layer="layer1"
     showgrid="false"
     inkscape:window-width="1680"
     inkscape:window-height="987"
     inkscape:window-x="-8"
     inkscape:window-y="-8"
     inkscape:window-maximized="1" />
  <metadata
     id="metadata7">
    <rdf:RDF>
      <cc:Work
         rdf:about="">
        <dc:format>image/svg+xml</dc:format>
        <dc:type
           rdf:resource="http://purl.org/dc/dcmitype/StillImage" />
        <dc:title></dc:title>
      </cc:Work>
    </rdf:RDF>
  </metadata>
  <g
     inkscape:label="Layer 1"
     inkscape:groupmode="layer"
     id="layer1"
     transform="translate(0,-698.0315)">
    <g
       id="g4182"
       transform="matrix(1.1911684,0,0,1.1911684,806.78293,-293.26029)">
      <path
         style="fill:#000000;fill-opacity:1;fill-rule:evenodd;stroke:none"
         d="m -517.4754,988.15248 z m 0,0 c 0.80038,0.07 12.9667,4.86579 13.59718,5.10568 l 20.28077,7.76334 c 1.14046,0.4496 2.16126,0.8292 3.33164,1.2788 l 13.60734,5.2056 c 1.14074,0.4696 2.38139,0.8193 3.42195,1.3188 0,2.328 -0.16031,49.9375 0.0598,50.487 0,0.01 36.22943,36.4589 37.08992,37.0485 l 3.7719,-3.7068 c -0.65024,-0.9494 -32.71745,-32.7422 -34.59846,-34.6204 -1.20058,-1.1992 -0.96041,-0.6494 -0.96041,-2.8877 l 0,-50.0572 c -0.56021,-0.2899 -1.34083,-0.4996 -1.9812,-0.7595 -0.66011,-0.2698 -1.34055,-0.5196 -2.06107,-0.7992 -6.14313,-2.4681 -12.37657,-4.61607 -18.48978,-7.06407 l -8.28436,-3.18713 c -0.75042,-0.26981 -1.34083,-0.49982 -2.0811,-0.7795 l -8.21436,-3.12731 c -6.49365,-2.61789 -13.91751,-5.37548 -20.54098,-7.88331 -1.30076,-0.49953 -2.92157,-1.25899 -4.18225,-1.54855 0.59041,-0.86925 29.28563,-29.31499 32.69742,-32.7121 2.05119,-2.04837 1.46078,-1.39897 1.46078,-4.5164 0,-7.96318 0,-15.93624 0,-23.90958 0,-7.87316 -0.16002,-15.92637 -0.01,-23.78964 0.0198,-0.88929 0.60029,-1.13905 1.17038,-1.69842 l 4.48253,-4.4862 c 2.03116,-2.01846 3.96212,-3.9466 5.98311,-5.97493 l 22.38192,-22.35104 c 0.42023,-0.41964 1.25081,-1.01913 1.41083,-1.58863 -0.50038,-0.72937 -1.34084,-1.27892 -1.93097,-1.92837 l -0.66025,-0.70939 c -0.28024,-0.27977 -0.77046,-0.5995 -0.90057,-0.96918 -0.69031,0.0599 -1.19069,0.87926 -1.66088,1.33886 -0.52013,0.52957 -0.9604,0.96918 -1.49069,1.49872 l -33.10777,33.0518 c -0.27997,0.27968 -0.47019,0.46962 -0.75043,0.73942 -0.41007,0.39963 -0.41007,0.31976 -0.41007,1.0891 l 0.01,48.19876 c 0,0.49981 0,0.98919 0.0102,1.48872 0,0.75946 0.0999,0.80941 -0.28025,1.22908 -0.95053,1.02926 -2.05119,2.01817 -3.06155,3.03756 -2.21121,2.2081 -29.31555,29.50464 -30.20624,30.0942 -1.07047,-0.70951 -29.12534,-29.13521 -33.06742,-32.96186 -0.85061,-0.80942 -0.60028,-1.22908 -0.60028,-2.39805 l 0,-48.179 c 0.01,-1.71845 0.0299,-1.28891 -0.90057,-2.20811 l -34.65874,-34.62039 c -0.27997,-0.27977 -0.47018,-0.4596 -0.75043,-0.74936 -0.34008,-0.33971 -0.43011,-0.5995 -0.97028,-0.64945 -0.1301,0.37967 -2.06135,2.15818 -2.58149,2.64775 -0.34007,0.31973 -0.6604,0.58951 -0.90057,0.95919 0.16002,0.60946 2.27133,2.46789 2.83154,3.0274 1.03067,1.01913 1.96116,1.95834 2.99155,2.98746 l 28.3052,28.266 c 0.28025,0.2698 0.47018,0.46962 0.75043,0.73942 0.39002,0.36943 0.50009,0.31948 0.54017,0.95899 0.15014,2.8575 -0.01,8.74268 -0.01,11.95973 l 0,35.73978 c 0,2.18807 -0.42023,2.78751 0.59013,3.76682 l 9.72537,9.71155 c 0.68016,0.67959 23.27233,23.01042 23.8427,23.86979 -0.44027,0.0999 -0.67056,0.21985 -1.01064,0.35955 -0.37027,0.12982 -0.65024,0.19981 -1.02051,0.34967 l -16.39881,6.28481 c -0.67027,0.23961 -1.31064,0.54949 -2.06107,0.80913 -2.82137,0.93924 -5.53296,2.17819 -8.29451,3.16738 -3.49165,1.25899 -6.78349,2.67772 -10.2853,3.92656 l -10.28559,3.91668 c -0.6302,0.25992 -1.28072,0.48965 -1.98092,0.76934 -0.38015,0.14986 -0.58024,0.23988 -0.97056,0.38974 -2.26116,0.88931 -12.31646,4.54601 -13.52719,5.17571 l 0,49.9273 c 0,2.1283 0.25005,1.8184 -0.90057,2.9574 -1.3208,1.3189 -2.54141,2.548 -3.86193,3.8668 -0.3604,0.3496 -30.17605,29.9045 -30.76646,30.7839 l 3.71207,3.7666 c 0.69032,-0.4795 37.02953,-36.9184 37.02953,-36.9184 0.37028,-0.5495 0.15015,-2.9475 0.15015,-3.8269 l 0,-46.8201 6.75357,-2.5976 c 1.74103,-0.5797 3.30172,-1.3089 5.04275,-1.9284 l 6.76346,-2.5877 c 0.54045,-0.1998 1.11082,-0.4197 1.71111,-0.6596 l 6.85348,-2.61785 c 1.16078,-0.45946 2.15138,-0.84921 3.35195,-1.25871 l 3.42166,-1.31911 c 1.10067,-0.39962 2.3114,-0.92907 3.40191,-1.3287 1.21073,-0.44958 2.24113,-0.81929 3.4417,-1.29879 2.27133,-0.91948 4.51245,-1.68881 6.76374,-2.57781 1.13058,-0.44987 2.24113,-0.83933 3.42194,-1.31911 1.13059,-0.45946 2.27105,-1.02898 3.43183,-1.29879 -0.59041,0.88928 -23.29265,23.33017 -24.96341,24.99867 -0.93048,0.9294 -1.94112,1.8384 -2.81149,2.7875 -0.48035,0.5097 -0.27009,1.7188 -0.27009,2.4681 l 0,47.4395 c 0,2.1382 0.02,1.5387 -2.03115,3.5769 l -27.86493,27.8263 c -0.36999,0.3799 -5.51293,5.2756 -5.51293,5.7051 0.12023,0.4496 0.46031,0.6497 0.77047,0.9593 l 0.71035,0.6595 c 0.12023,0.1197 0.13998,0.1299 0.26021,0.2498 0.35024,0.3395 1.6208,1.5186 1.74103,1.8584 0.53001,-0.04 0.58025,-0.2497 0.91045,-0.5895 l 11.28578,-11.2706 c 4.03239,-4.0264 7.98435,-7.973 12.02662,-12.0097 4.04199,-4.0366 7.99422,-7.9832 12.03621,-12.0198 0.76059,-0.7592 1.04055,-0.7391 1.03068,-1.9583 l -0.01,-49.6875 c 0,-0.7694 -0.0102,-0.6895 0.40019,-1.0891 l 9.11465,-9.0822 c 0.67056,-0.6796 23.29236,-23.48005 24.15286,-24.05974 1.17066,0.7795 28.88544,28.97544 33.07785,32.96214 0.74027,0.7092 0.46003,1.3987 0.46003,2.5279 0,16.0161 0.1301,32.0426 0,48.059 -0.01,1.6084 0.09,1.2689 0.97056,2.148 1.94112,1.9383 35.31898,35.4898 36.18935,36.0694 l 3.7719,-3.6968 c -0.60004,-0.8695 -32.60715,-32.6523 -34.72805,-34.7404 -0.84046,-0.8393 -0.72051,-0.4598 -0.72051,-2.0283 0.0401,-6.8044 0.1301,-49.5179 -0.0601,-49.9875 -0.25005,-0.6294 -26.97424,-26.62742 -27.86465,-27.95612 z"
         id="path4141"
         inkscape:connector-curvature="0" />
      <path
         style="fill:#000000;fill-opacity:1;fill-rule:evenodd;stroke:none"
         d="m -662.60281,963.00394 c 0,-1.3589 0.29015,-2.16832 0.89047,-3.08751 0.98052,-1.48873 2.68142,-2.45788 4.29228,-3.18714 6.38339,-2.8877 14.76787,-2.80755 21.62159,-2.80755 l 12.09632,0.86925 c 7.10382,0.79925 17.83955,2.65768 24.89341,4.526 l 17.66937,5.13559 c 4.9626,1.64875 8.41446,3.07735 12.97686,4.97586 2.58148,1.06906 6.39346,2.84763 8.92471,4.15629 0.38015,0.19981 0.60029,0.36971 1.03068,0.58956 l 4.32223,2.52787 -7.53392,0.81929 c -3.09175,0.42954 -7.75434,0.7095 -10.89603,1.06906 -0.95053,0.11006 -2.07095,0.1301 -3.10163,0.25992 l -9.50496,0.71939 c -0.91045,0.01 -2.31112,0.0398 -3.19165,0.16989 l -8.29451,0.31976 c -0.70048,0.01 -0.8605,0.12982 -1.61092,0.12982 -2.3512,0.01 -4.33212,0.11995 -6.73354,0.11995 l -9.10478,0.01 c -1.40066,0 -4.22232,-0.25965 -6.10333,-0.25965 l -7.97419,-0.49981 c -2.54141,-0.18966 -8.19432,-0.89916 -11.21608,-1.4986 -4.69239,-0.92936 -8.15424,-1.64875 -12.5566,-3.39711 -4.80255,-1.91827 -10.89578,-5.82507 -10.89578,-11.66001 z m -5.36287,-0.27997 0,-0.71938 0,-0.11966 c 0,-2.51799 1.83097,-5.5753 3.5819,-7.12414 0.9505,-0.83905 2.0611,-1.57847 3.16168,-2.20811 3.63195,-2.08816 8.34447,-2.89757 12.5467,-3.52693 1.43075,-0.21985 3.35178,-0.32963 4.9026,-0.45946 0.86046,-0.07 1.74094,0.0799 2.58137,-0.0401 1.03056,-0.13998 9.34491,0.0401 10.4755,0.19982 1.08062,0.13998 2.63144,0.22973 3.78206,0.32963 0.73039,0.0601 1.21073,0.07 1.96116,0.14986 0.51026,0.0499 1.21045,0.18993 1.77094,0.23001 3.22157,0.20969 11.19576,1.61854 14.2875,2.16803 8.90468,1.57875 17.56946,3.96663 26.1239,6.65424 8.18445,2.57781 12.21656,4.3163 19.40052,7.40381 3.22156,1.37894 5.34275,2.56766 8.30439,4.02647 l 3.91188,2.19823 c 3.58196,1.98825 6.61359,4.17632 9.9853,6.45442 0.50038,0.33979 1.99108,1.30895 2.27133,1.71873 -0.47018,0 -13.90735,2.01817 -16.58874,2.23802 -3.45186,0.29972 -7.16393,0.86925 -10.70582,1.13905 -0.64036,0.05 -1.45062,0.21985 -2.13106,0.23961 -2.1113,0.0499 -6.85376,0.70951 -8.60467,0.74958 l -11.09585,0.73914 c -0.36011,0.02 -0.75043,-0.0197 -1.1207,0.0102 -5.0927,0.41967 -13.86727,0.61948 -19.20014,0.61948 l -19.6105,-0.83933 c -3.02147,-0.38975 -5.94303,-0.59943 -9.15472,-1.06906 -10.23555,-1.49888 -25.94393,-5.28545 -29.94606,-16.04631 -0.82043,-2.19822 -0.88047,-3.16738 -0.89047,-5.11584 z"
         id="path4143"
         inkscape:connector-curvature="0" />
      <path
         style="fill:#000000;fill-opacity:1;fill-rule:evenodd;stroke:none"
         d="m -445.40713,980.30924 -6.98359,0 c -4.51245,0 -8.81493,-0.23989 -13.21703,-0.36971 -0.64037,-0.0102 -0.77047,-0.13011 -1.49098,-0.13011 -2.06107,0 -3.18178,-0.25964 -4.87257,-0.2396 -1.61093,0.01 -17.52939,-1.3589 -18.88998,-1.54884 l -12.39661,-1.56859 c 0.47018,-0.10978 1.61092,-0.85937 2.12118,-1.11901 2.22109,-1.14893 3.88197,-2.15815 6.39318,-3.31724 l 3.32176,-1.53868 c 0.37027,-0.17977 0.76058,-0.31975 1.13086,-0.49953 4.78254,-2.31789 16.18855,-6.29468 21.55134,-7.8534 l 13.01693,-3.44706 c 8.24428,-1.74837 13.42729,-2.88742 22.28201,-3.88648 l 8.97467,-0.74958 c 0.73039,0.0102 0.91045,-0.0898 1.50085,-0.11967 2.03088,-0.11006 9.7251,-0.0401 12.18636,0.27969 l 5.00267,0.72926 c 1.04055,0.17977 2.10115,0.47978 3.10162,0.75946 2.00124,0.54948 3.56193,1.20904 5.27276,2.33793 4.34255,2.86766 3.1417,7.48368 0.50038,10.96066 -1.97104,2.5877 -5.99327,4.61603 -9.09489,5.86514 -0.48006,0.18966 -0.99032,0.35955 -1.54065,0.56953 -1.96117,0.72926 -4.56241,1.44864 -6.71379,1.88835 -2.34103,0.48937 -4.65243,0.92907 -7.14361,1.3287 -2.75166,0.44958 -12.87695,1.42889 -15.65853,1.42889 -1.48082,-0.01 -2.58121,0.10978 -4.12214,0.11994 -0.80038,0 -1.11054,0.12983 -1.99108,0.12983 -0.75043,-0.01 -1.4907,-0.01 -2.24112,-0.01 z m -72.8187,-0.48966 0,0.23989 c 0.5303,0 13.53707,1.96822 16.4688,2.23802 5.69298,0.51958 11.16584,1.23896 17.08912,1.73849 1.41054,0.11995 2.90152,0.27969 4.2322,0.37959 l 3.25176,0.23989 c 0.4002,0.0398 0.81026,-0.0102 1.21046,0.0299 2.77142,0.30988 5.93315,0.36971 8.75481,0.59944 l 4.48225,0.12982 c 0.78035,0.0102 1.31064,0.1301 2.24113,0.1301 0.70048,0 1.69108,-0.0601 2.35148,0.02 1.36059,0.14986 3.07142,0.10979 4.63239,0.0999 0.89041,0 1.2906,0.12982 2.24113,0.12982 4.7927,-0.0299 10.05529,-0.13998 14.71789,-0.37987 l 4.85253,-0.24977 c 3.01159,-0.14986 8.64475,-0.8492 11.57619,-1.25871 2.76154,-0.38975 5.81321,-0.98919 8.55472,-1.67866 5.31255,-1.32898 10.04513,-2.99748 14.48759,-5.94501 1.99108,-1.3287 3.85205,-3.04743 5.21265,-5.00577 2.06135,-2.97745 2.69155,-5.48527 2.69155,-9.26197 0,-1.51864 -0.64036,-3.01752 -1.1605,-4.0767 -0.28024,-0.54949 -0.65052,-1.12889 -1.01063,-1.60839 -0.24018,-0.30988 -0.36012,-0.39962 -0.62033,-0.73942 -1.48082,-1.89851 -5.30295,-3.85685 -7.51417,-4.58611 -1.46078,-0.4795 -2.65119,-0.80941 -4.18196,-1.16896 -4.39251,-1.03915 -6.00344,-0.75946 -9.48521,-1.23896 l -7.20372,-0.16002 c -0.68044,0.02 -1.03068,0.1301 -1.86098,0.1301 -2.24141,-0.0102 -5.59308,0.17978 -7.77437,0.45946 l -3.72195,0.38975 c -2.9416,0.29972 -7.92423,0.94911 -10.8156,1.52852 l -3.49194,0.6096 c -2.25128,0.29972 -11.49604,2.49795 -13.37705,2.9574 -10.02538,2.48807 -18.29985,5.36561 -27.75486,9.13243 -2.96164,1.17884 -5.67295,2.49767 -8.52452,3.82665 -1.92109,0.89916 -6.18321,3.12731 -8.07438,4.2562 l -7.53392,4.80596 c -0.75043,0.48965 -4.49242,3.16738 -4.94256,3.28732 z"
         id="path4145"
         inkscape:connector-curvature="0" />
      <path
         style="fill:#000000;fill-opacity:1;fill-rule:evenodd;stroke:none"
         d="m -537.17592,958.77738 0,1.23895 c 0,4.14641 3.68187,9.09236 8.48444,9.09236 1.66088,0 2.50134,-0.30988 3.78206,-0.94912 3.25177,-1.64874 4.94256,-5.4054 4.94256,-9.01248 0,-1.56859 -0.35024,-3.15722 -0.49022,-4.61603 -0.0802,-0.81929 -0.17018,-1.45881 -0.26021,-2.22814 l -0.92032,-8.04305 c -0.0401,-0.30988 -0.14027,-0.89916 -0.17018,-1.0891 -0.10019,-0.84921 -0.18006,-1.6287 -0.26021,-2.34809 -0.17018,-1.57847 -0.39032,-3.04743 -0.52014,-4.58611 l -1.35071,-11.35013 c -0.09,-0.83933 -0.21026,-1.58863 -0.26021,-2.34809 -0.0601,-0.85937 -0.19022,-1.40885 -0.26021,-2.23802 l -2.13106,-18.29449 c -0.2303,-2.86766 -1.86098,-14.178 -1.86098,-16.19617 l -0.24017,0 c 0,1.4986 -0.41035,3.06747 -0.50038,4.4862 -0.0999,1.55872 -0.38015,3.00736 -0.51025,4.59599 -0.31017,3.75694 -1.38064,10.06151 -1.62081,13.6985 -0.17018,2.73756 -1.1207,8.48276 -1.35071,11.35013 -0.0802,0.90932 -0.20998,1.50876 -0.26021,2.34809 l -0.77047,6.70419 c -0.07,0.68947 -0.1699,1.5288 -0.27996,2.33821 -0.56021,4.07642 -0.90057,8.60242 -1.48082,12.45927 l -1.21074,10.38126 c -0.0799,0.73914 -0.18993,1.46868 -0.25004,2.22786 -0.07,0.85937 -0.25005,1.40886 -0.25005,2.37801 z"
         id="path4147"
         inkscape:connector-curvature="0" />
      <path
         style="fill:#000000;fill-opacity:1;fill-rule:evenodd;stroke:none"
         d="m -583.68078,1101.0862 c 0.57037,0.05 0.91045,0.3596 1.42071,0.5696 0.58025,0.2396 0.91045,0.3996 1.48082,0.6395 1.04055,0.4394 1.93096,0.8193 2.99155,1.2488 2.03116,0.8094 4.01207,1.5686 6.09318,2.2581 4.71254,1.5587 7.99451,2.6179 13.06717,3.7566 l 6.93363,1.4191 c 2.43135,0.4394 4.73259,0.7792 7.27372,1.0789 l 5.67323,0.5596 c 0.64036,0.09 1.44074,0.07 1.98092,0.1397 l 8.19432,0.28 c 4.23248,0 9.60515,-0.3497 13.82748,-0.7595 0.55033,-0.05 1.38063,-0.1399 1.90104,-0.2097 13.02682,-1.6385 22.67204,-4.2065 34.90864,-9.0923 0.7603,-0.2997 3.99203,-1.8486 4.47237,-1.8884 -0.14026,-0.5297 -3.78206,-4.0067 -4.11226,-4.2364 -5.10286,2.6978 -18.12967,6.5145 -22.43187,7.4837 l -6.19336,1.2889 c -4.47238,0.8393 -7.39394,0.979 -11.55616,1.5285 l -14.68797,0.4098 -12.10621,-0.9691 c -3.1019,-0.4598 -6.6737,-0.9094 -9.62518,-1.5988 -0.5605,-0.1299 -1.00048,-0.1998 -1.53078,-0.3395 -3.1417,-0.7795 -5.60296,-1.329 -8.94475,-2.2781 -2.43134,-0.6994 -4.65271,-1.5387 -7.03382,-2.3182 l -8.00439,-3.2072 c -0.55033,0.8292 -3.80181,3.5171 -3.99203,4.2364 z"
         id="path4149"
         inkscape:connector-curvature="0" />
      <path
         style="fill:#000000;fill-opacity:1;fill-rule:evenodd;stroke:none"
         d="m -583.68078,860.78099 c 0.13011,0.49959 1.53077,1.71853 1.96116,2.14816 0.55005,0.54954 1.66088,1.5387 2.03087,2.08822 3.79222,-1.99828 15.1082,-5.67515 19.12027,-6.6743 6.03335,-1.49872 9.37486,-2.12818 15.55835,-3.01744 l 3.22157,-0.38966 c 3.57208,-0.18982 6.62375,-0.62947 10.59575,-0.62947 4.15205,0 8.18444,-0.0799 12.23659,0.35969 1.75091,0.18985 3.10162,0.19984 5.02271,0.46962 0.65024,0.0899 1.08034,0.0799 1.68063,0.18982 1.00076,0.17986 2.10115,0.22982 3.19193,0.41967 8.32443,1.5087 12.42653,2.30801 20.93102,5.11561 l 2.68139,0.93921 c 2.12118,0.78932 5.24284,1.96833 7.29403,2.92752 0.27997,0.12988 0.46031,0.16984 0.7002,0.28973 0.37027,-0.54952 1.48082,-1.53868 2.03115,-2.08822 0.45014,-0.43962 1.83106,-1.63858 1.96116,-2.14816 -0.48034,-0.1099 -0.97056,-0.36968 -1.41083,-0.57952 -2.12118,-0.98913 -5.26288,-2.15815 -7.44389,-3.02739 -2.33144,-0.93921 -7.0437,-2.42793 -9.45501,-3.12734 -8.04446,-2.33802 -12.56679,-3.00744 -20.94117,-4.2364 -2.35148,-0.3497 -5.15281,-0.51956 -7.63411,-0.71939 l -8.22452,-0.25977 c -3.10162,0 -6.84361,0.21981 -9.97515,0.36968 -0.50038,0.03 -1.46078,0.15986 -1.90105,0.21981 l -3.87208,0.36969 c -9.76518,1.31888 -18.00973,2.96747 -27.3146,6.21469 -0.53029,0.18986 -0.98044,0.3597 -1.46078,0.52957 z"
         id="path4151"
         inkscape:connector-curvature="0" />
      <path
         style="fill:#000000;fill-opacity:1;fill-rule:evenodd;stroke:none"
         d="m -624.20225,1072.0809 c 0.34996,-0.2397 3.60172,-3.3571 3.74199,-3.8668 l -5.08282,-5.755 c -2.53125,-2.8976 -4.1021,-5.1656 -6.39347,-8.1831 -2.62128,-3.477 -4.8926,-7.5034 -7.12385,-11.1904 l -2.52123,-4.6959 c -1.24065,-2.2281 -3.60192,-7.5536 -4.58244,-10.0016 l -2.94158,-8.0132 c -1.23063,-3.6669 -2.29122,-7.6335 -3.17167,-11.4003 -0.98052,-4.1764 -1.57085,-8.0829 -2.17116,-12.39948 -0.34019,-2.42768 -0.80044,-7.76337 -0.80044,-10.16113 -1.95103,-0.93924 -2.6714,-0.99935 -5.4829,-2.48807 0,8.18303 1.17063,16.41598 2.75147,24.38938 l 1.5008,6.3446 3.21169,10.3711 c 2.04109,6.1149 4.8626,11.8398 7.7041,17.5751 l 2.08111,3.7767 c 3.59192,6.5843 8.13432,12.5792 12.74668,18.4043 l 4.57256,5.2654 c 0.65024,0.6395 1.26069,1.5489 1.96116,2.0284 z"
         id="path4153"
         inkscape:connector-curvature="0" />
      <path
         style="fill:#000000;fill-opacity:1;fill-rule:evenodd;stroke:none"
         d="m -401.89383,987.28323 -0.91073,9.92152 c -0.16002,0.95928 -0.23989,2.24819 -0.43011,3.18715 -0.80038,4.0967 -1.28072,7.8034 -2.47142,11.9699 -1.23049,4.2963 -2.22109,8.113 -3.84189,12.3495 -1.51073,3.9166 -3.08158,7.7834 -4.94256,11.5101 l -5.07294,9.3721 c -0.47018,0.7992 -0.90029,1.4489 -1.37075,2.2481 -0.90029,1.5286 -1.87086,2.8875 -2.8513,4.3663 -0.52041,0.7792 -0.95052,1.3688 -1.50085,2.1181 l -4.68263,6.1547 c -0.5303,0.6796 -1.0606,1.329 -1.63068,1.9784 l -2.49146,2.8575 c -0.51026,0.4998 -2.23125,2.5778 -2.71131,2.8975 l 3.83201,3.8967 c 1.11055,-0.7694 6.97371,-7.8134 8.06422,-9.192 l 7.32395,-10.1213 c 3.36183,-5.3555 5.40286,-8.8926 8.3343,-14.8376 l 2.38139,-5.3354 c 0.18006,-0.4397 0.37028,-0.7792 0.57038,-1.2988 l 2.67123,-7.044 c 2.70143,-8.113 4.8926,-16.3062 6.00343,-24.87872 l 0.61016,-5.12572 c 0.0601,-0.46961 0.09,-1.24911 0.18006,-1.81835 0.27009,-1.87848 0.24017,-4.70606 0.3302,-5.38565 0.0802,-0.5794 0.09,-1.13905 0.09,-1.90839 l -1.30076,0.56953 c -1.24065,0.52973 -2.91141,1.25899 -4.18197,1.54883 z"
         id="path4155"
         inkscape:connector-curvature="0" />
      <path
         style="fill:#000000;fill-opacity:1;fill-rule:evenodd;stroke:none"
         d="m -655.24892,943.08074 c 0.84046,0 2.0311,-0.35955 2.87155,-0.48937 0.9505,-0.16002 1.901,-0.37987 2.99159,-0.37987 0.30014,-0.62936 0.74038,-2.08817 0.9705,-2.76747 0.97054,-2.93766 2.01109,-5.3055 3.12166,-8.08313 l 1.14063,-2.59786 c 0.21012,-0.42954 0.35018,-0.81929 0.58031,-1.27903 2.8415,-5.62497 5.12273,-10.27119 8.69453,-15.59644 2.2812,-3.39711 3.84218,-5.60522 6.26336,-8.69273 l 4.62252,-5.59534 c 1.56097,-1.84827 3.03163,-3.24725 4.47237,-4.87567 l 11.25615,-10.29123 c 1.84094,-1.49889 5.60296,-4.32647 7.50373,-5.58529 1.03067,-0.67943 2.24141,-1.6486 3.36183,-2.23811 l -3.89184,-3.95661 c -2.24141,1.13902 -9.39518,6.76435 -11.26603,8.24292 -2.85158,2.24818 -8.05434,7.09393 -10.36574,9.43214 l -5.67295,6.17446 c -0.22014,0.23989 -0.22014,0.3 -0.44027,0.54977 -2.79146,3.13718 -5.78301,7.11398 -8.2042,10.61099 l -3.19179,4.77577 c -2.0611,3.20717 -4.01213,6.55433 -5.75307,10.07138 -0.24012,0.46962 -0.3902,0.7493 -0.65036,1.21892 l -1.93102,4.04678 c -0.82042,1.81836 -1.65088,3.62684 -2.42129,5.55526 -0.93049,2.33793 -2.40126,6.1945 -3.17167,8.65237 -0.20013,0.62964 -0.88048,2.57782 -0.8905,3.09739 z"
         id="path4157"
         inkscape:connector-curvature="0" />
      <path
         style="fill:#000000;fill-opacity:1;fill-rule:evenodd;stroke:none"
         d="m -459.77479,874.57923 c 1.91093,1.01913 8.92472,6.25458 10.78569,7.83333 l 2.54141,2.06812 c 0.22014,0.18006 0.30029,0.29972 0.52014,0.47978 l 4.85281,4.36626 c 2.02099,2.02833 5.99299,5.90494 7.74418,8.08313 l 1.35071,1.50876 c 2.39127,2.82758 5.95292,7.37362 8.04418,10.52096 l 3.69203,5.65517 c 0.25005,0.39963 0.43011,0.75918 0.68016,1.17884 l 3.37199,5.97493 c 1.43058,2.80783 3.02147,5.97492 4.21217,8.86262 l 3.61188,9.47194 c 0.3302,0.96916 0.26021,1.24884 0.89041,1.35862 l 2.60152,0.25993 c 0.98044,0.09 1.98092,0.36971 2.85158,0.38975 -0.62033,-2.66785 -3.99232,-11.5903 -5.23297,-14.31798 l -2.49117,-5.35545 c -0.45043,-0.89916 -0.87066,-1.72833 -1.33068,-2.65769 -1.53078,-3.05731 -3.22185,-5.8451 -4.96288,-8.7424 -2.03087,-3.3971 -4.9626,-7.4738 -7.26384,-10.55116 -1.31064,-1.74836 -4.16221,-5.28545 -5.74294,-6.96411 l -3.2416,-3.61696 c -1.87113,-1.85815 -4.11226,-4.24632 -5.9134,-5.91481 l -6.26336,-5.45536 c -0.78034,-0.6096 -1.44074,-1.16896 -2.20105,-1.77856 l -6.82357,-5.01566 c -0.81054,-0.5595 -1.5209,-1.13902 -2.39127,-1.59862 z"
         id="path4159"
         inkscape:connector-curvature="0" />
      <path
         style="fill:#000000;fill-opacity:1;fill-rule:evenodd;stroke:none"
         d="m -459.74487,1087.2681 c 0.18006,0.2695 3.602,3.8565 3.99232,3.8565 0.31016,0 0.27008,-0.1298 0.55033,-0.3096 l 1.64084,-1.1091 c 0.78034,-0.5196 1.36059,-0.9691 2.1209,-1.4887 0.76059,-0.5295 1.3208,-0.9892 2.09127,-1.5186 0.60028,-0.4197 1.49069,-1.239 2.07094,-1.5489 l -3.83201,-3.8867 c -0.39003,0.1199 -1.75091,1.2192 -2.1511,1.5189 -2.11102,1.5886 -4.30219,3.0172 -6.48349,4.4862 z"
         id="path4161"
         inkscape:connector-curvature="0" />
      <path
         style="fill:#000000;fill-opacity:1;fill-rule:evenodd;stroke:none"
         d="m -609.89471,1085.1198 c 0.74027,0.4995 1.38063,1.0391 2.10115,1.5788 0.70019,0.5195 6.04322,4.426 6.41321,4.426 0.38044,0 3.81226,-3.5969 3.98216,-3.8565 -1.2906,-0.6796 -6.02319,-4.1366 -7.47381,-5.2358 -0.31016,-0.2196 -0.75043,-0.6392 -1.13058,-0.7391 z"
         id="path4163"
         inkscape:connector-curvature="0" />
    </g>
  </g>
</svg>
