<?xml version="1.0" encoding="UTF-8" standalone="no"?>
<!-- Creator: CorelDRAW X6 -->

<svg
   xmlns:dc="http://purl.org/dc/elements/1.1/"
   xmlns:cc="http://creativecommons.org/ns#"
   xmlns:rdf="http://www.w3.org/1999/02/22-rdf-syntax-ns#"
   xmlns:svg="http://www.w3.org/2000/svg"
   xmlns="http://www.w3.org/2000/svg"
   xmlns:sodipodi="http://sodipodi.sourceforge.net/DTD/sodipodi-0.dtd"
   xmlns:inkscape="http://www.inkscape.org/namespaces/inkscape"
   xml:space="preserve"
   width="100mm"
   height="100mm"
   version="1.1"
   style="clip-rule:evenodd;fill-rule:evenodd;image-rendering:optimizeQuality;shape-rendering:geometricPrecision;text-rendering:geometricPrecision"
   viewBox="0 0 3905.4271 3905.9224"
   id="svg2"
   inkscape:version="0.91 r13725"
   sodipodi:docname="krtek_logo.svg"><metadata
     id="metadata86"><rdf:RDF><cc:Work
         rdf:about=""><dc:format>image/svg+xml</dc:format><dc:type
           rdf:resource="http://purl.org/dc/dcmitype/StillImage" /><dc:title></dc:title></cc:Work></rdf:RDF></metadata><sodipodi:namedview
     pagecolor="#ffffff"
     bordercolor="#666666"
     borderopacity="1"
     objecttolerance="10"
     gridtolerance="10"
     guidetolerance="10"
     inkscape:pageopacity="0"
     inkscape:pageshadow="2"
     inkscape:window-width="1680"
     inkscape:window-height="987"
     id="namedview84"
     showgrid="false"
     inkscape:zoom="0.71627695"
     inkscape:cx="-186.60696"
     inkscape:cy="78.784056"
     inkscape:window-x="-8"
     inkscape:window-y="-8"
     inkscape:window-maximized="1"
     inkscape:current-layer="svg2" /><defs
     id="defs4"><style
       type="text/css"
       id="style6"><![CDATA[
    .str1 {stroke:black;stroke-width:7.81223}
    .str2 {stroke:#E6E6E6;stroke-width:7.81223}
    .str0 {stroke:black;stroke-width:39.0612}
    .fil1 {fill:none}
    .fil2 {fill:black}
    .fil0 {fill:#E6E6E6}
    .fil3 {fill:white}
   ]]></style></defs><g
     id="Layer_x0020_1"
     transform="matrix(1.7162472,0,0,1.7162472,684.9794,419.25649)"><metadata
       id="CorelCorpID_0Corel-Layer" /><circle
       class="fil0 str0"
       cx="956"
       cy="72"
       r="53"
       id="circle10"
       style="fill:#e6e6e6;stroke:#000000;stroke-width:39.06119919" /><path
       class="fil1 str1"
       d="m 1300,268 c 67,-7 128,8 187,39"
       id="path12"
       inkscape:connector-curvature="0"
       style="fill:none;stroke:#000000;stroke-width:7.81223011" /><path
       class="fil1 str1"
       d="m 1297,255 c 65,-17 128,-11 190,11"
       id="path14"
       inkscape:connector-curvature="0"
       style="fill:none;stroke:#000000;stroke-width:7.81223011" /><path
       class="fil1 str1"
       d="m 1291,243 c 62,-26 125,-29 190,-17"
       id="path16"
       inkscape:connector-curvature="0"
       style="fill:none;stroke:#000000;stroke-width:7.81223011" /><circle
       class="fil2 str1"
       cx="746"
       cy="250"
       r="227"
       id="circle18"
       style="fill:#000000;stroke:#000000;stroke-width:7.81223011" /><path
       class="fil2 str1"
       d="m 822,36 -303,215 -332,1369 355,0 162,-272 177,272 346,0 C 1137,1275 1047,930 957,585 c -12,-47 2,-117 42,-145 106,-73 171,-57 296,-88 L 1316,228 821,36 Z"
       id="path20"
       inkscape:connector-curvature="0"
       style="fill:#000000;stroke:#000000;stroke-width:7.81223011" /><circle
       class="fil0 str0"
       cx="1290"
       cy="290"
       r="53"
       id="circle22"
       style="fill:#e6e6e6;stroke:#000000;stroke-width:39.06119919" /><path
       class="fil1 str2"
       d="m 1210,269 c -67,9 -123,39 -172,83"
       id="path24"
       inkscape:connector-curvature="0"
       style="fill:none;stroke:#e6e6e6;stroke-width:7.81223011" /><path
       class="fil3 str1"
       d="m 310,1624 c 0,0 -119,3 -203,175 6,-241 176,-263 176,-263 -14,30 -6,59 27,88 z"
       id="path26"
       inkscape:connector-curvature="0"
       style="fill:#ffffff;stroke:#000000;stroke-width:7.81223011" /><path
       class="fil1 str2"
       d="m 1211,256 c -67,-1 -127,20 -182,57"
       id="path28"
       inkscape:connector-curvature="0"
       style="fill:none;stroke:#e6e6e6;stroke-width:7.81223011" /><path
       class="fil1 str2"
       d="m 1213,243 c -66,-11 -129,2 -188,29"
       id="path30"
       inkscape:connector-curvature="0"
       style="fill:none;stroke:#e6e6e6;stroke-width:7.81223011" /><polygon
       class="fil2 str1"
       points="478,504 376,636 171,431 17,715 289,1034 416,952 "
       id="polygon32"
       style="fill:#000000;stroke:#000000;stroke-width:7.81223011" /><path
       class="fil3 str1"
       d="m 387,1624 c 0,0 -119,3 -203,175 6,-241 176,-263 176,-263 -14,30 -6,59 27,88 z"
       id="path34"
       inkscape:connector-curvature="0"
       style="fill:#ffffff;stroke:#000000;stroke-width:7.81223011" /><path
       class="fil3 str1"
       d="m 465,1624 c 0,0 -119,3 -203,175 6,-241 176,-263 176,-263 -14,30 -6,59 27,88 z"
       id="path36"
       inkscape:connector-curvature="0"
       style="fill:#ffffff;stroke:#000000;stroke-width:7.81223011" /><path
       class="fil3 str1"
       d="m 542,1624 c 0,0 -119,3 -203,175 6,-241 176,-263 176,-263 -14,30 -6,59 27,88 z"
       id="path38"
       inkscape:connector-curvature="0"
       style="fill:#ffffff;stroke:#000000;stroke-width:7.81223011" /><path
       class="fil3 str1"
       d="m 1102,1624 c 0,0 119,3 203,175 -6,-241 -176,-263 -176,-263 14,30 6,59 -27,88 z"
       id="path40"
       inkscape:connector-curvature="0"
       style="fill:#ffffff;stroke:#000000;stroke-width:7.81223011" /><path
       class="fil3 str1"
       d="m 1024,1624 c 0,0 119,3 203,175 -6,-241 -176,-263 -176,-263 14,30 6,59 -27,88 z"
       id="path42"
       inkscape:connector-curvature="0"
       style="fill:#ffffff;stroke:#000000;stroke-width:7.81223011" /><path
       class="fil3 str1"
       d="m 947,1624 c 0,0 119,3 203,175 -6,-241 -176,-263 -176,-263 14,30 6,59 -27,88 z"
       id="path44"
       inkscape:connector-curvature="0"
       style="fill:#ffffff;stroke:#000000;stroke-width:7.81223011" /><path
       class="fil3 str1"
       d="m 869,1624 c 0,0 119,3 203,175 -6,-241 -176,-263 -176,-263 14,30 6,59 -27,88 z"
       id="path46"
       inkscape:connector-curvature="0"
       style="fill:#ffffff;stroke:#000000;stroke-width:7.81223011" /><g
       id="_696456304"><polygon
         class="fil2"
         points="478,337 359,507 139,352 230,163 "
         id="polygon49"
         style="fill:#000000" /><rect
         class="fil2"
         transform="matrix(0.9954,0.700006,-0.700006,0.9954,22.3056,77.6267)"
         width="227"
         height="32"
         id="rect51"
         x="0"
         y="0"
         style="fill:#000000" /><rect
         class="fil2"
         transform="matrix(0.9954,0.700006,-0.700006,0.9954,159.271,263.64)"
         width="227"
         height="32"
         id="rect53"
         x="0"
         y="0"
         style="fill:#000000" /><rect
         class="fil2"
         transform="matrix(0.439021,0.308737,-3.05741,6.53468,245.431,365.228)"
         width="227"
         height="32"
         id="rect55"
         x="0"
         y="0"
         style="fill:#000000" /></g><path
       class="fil3 str1"
       d="m 152,563 c 0,0 98,-29 211,90 C 295,459 151,485 151,485 c 19,20 20,46 1,79 z"
       id="path57"
       inkscape:connector-curvature="0"
       style="fill:#ffffff;stroke:#000000;stroke-width:7.81223011" /><path
       class="fil3 str1"
       d="m 120,621 c 0,0 98,-29 211,90 C 263,517 119,543 119,543 c 19,20 20,46 1,79 z"
       id="path59"
       inkscape:connector-curvature="0"
       style="fill:#ffffff;stroke:#000000;stroke-width:7.81223011" /><path
       class="fil3 str1"
       d="m 89,678 c 0,0 98,-29 211,90 C 232,574 88,600 88,600 c 19,20 20,46 1,79 z"
       id="path61"
       inkscape:connector-curvature="0"
       style="fill:#ffffff;stroke:#000000;stroke-width:7.81223011" /><path
       class="fil3 str1"
       d="m 58,736 c 0,0 98,-29 211,90 C 201,632 57,658 57,658 c 19,20 20,46 1,79 z"
       id="path63"
       inkscape:connector-curvature="0"
       style="fill:#ffffff;stroke:#000000;stroke-width:7.81223011" /><polygon
       class="fil2 str1"
       points="1442,894 1290,1147 816,983 916,626 "
       id="polygon65"
       style="fill:#000000;stroke:#000000;stroke-width:7.81223011" /><g
       id="_696895680"><rect
         class="fil2"
         transform="matrix(1.24993,0.769433,-0.43499,0.706635,1518.5,518.034)"
         width="21"
         height="303"
         id="rect68"
         x="0"
         y="0"
         style="fill:#000000" /><polygon
         class="fil2"
         points="1544,534 1594,489 1535,452 1519,518 "
         id="polygon70"
         style="fill:#000000" /><rect
         class="fil2"
         transform="matrix(5.10366,3.14171,0.546471,-0.887735,1181.13,976.867)"
         width="21"
         height="303"
         id="rect72"
         x="0"
         y="0"
         style="fill:#000000" /></g><path
       class="fil3 str1"
       d="m 1336,940 c 0,0 8,-102 -131,-188 204,26 208,172 208,172 -24,-15 -50,-10 -77,15 z"
       id="path74"
       inkscape:connector-curvature="0"
       style="fill:#ffffff;stroke:#000000;stroke-width:7.81223011" /><path
       class="fil3 str1"
       d="m 1307,1000 c 0,0 8,-102 -131,-188 204,26 208,172 208,172 -24,-15 -50,-10 -77,15 z"
       id="path76"
       inkscape:connector-curvature="0"
       style="fill:#ffffff;stroke:#000000;stroke-width:7.81223011" /><path
       class="fil3 str1"
       d="m 1279,1059 c 0,0 8,-102 -131,-188 204,26 208,172 208,172 -24,-15 -50,-10 -77,15 z"
       id="path78"
       inkscape:connector-curvature="0"
       style="fill:#ffffff;stroke:#000000;stroke-width:7.81223011" /><path
       class="fil3 str1"
       d="m 1250,1118 c 0,0 8,-102 -131,-188 204,26 208,172 208,172 -24,-15 -50,-10 -77,15 z"
       id="path80"
       inkscape:connector-curvature="0"
       style="fill:#ffffff;stroke:#000000;stroke-width:7.81223011" /><circle
       class="fil0 str0"
       cx="867"
       cy="74"
       r="53"
       id="circle82"
       style="fill:#e6e6e6;stroke:#000000;stroke-width:39.06119919" /></g></svg>