<?xml version="1.0" encoding="UTF-8" standalone="no"?>
<!-- Generator: Adobe Illustrator 16.0.0, SVG Export Plug-In . SVG Version: 6.00 Build 0)  -->

<svg
   xmlns:dc="http://purl.org/dc/elements/1.1/"
   xmlns:cc="http://creativecommons.org/ns#"
   xmlns:rdf="http://www.w3.org/1999/02/22-rdf-syntax-ns#"
   xmlns:svg="http://www.w3.org/2000/svg"
   xmlns="http://www.w3.org/2000/svg"
   xmlns:xlink="http://www.w3.org/1999/xlink"
   xmlns:sodipodi="http://sodipodi.sourceforge.net/DTD/sodipodi-0.dtd"
   xmlns:inkscape="http://www.inkscape.org/namespaces/inkscape"
   version="1.0"
   id="Layer_1"
   x="0px"
   y="0px"
   width="100mm"
   height="100mm"
   viewBox="0 0 354.3307 354.3307"
   enable-background="new 0 0 1000 1000"
   xml:space="preserve"
   inkscape:version="0.91 r13725"
   sodipodi:docname="kscuk_logo.svg"><metadata
     id="metadata81"><rdf:RDF><cc:Work
         rdf:about=""><dc:format>image/svg+xml</dc:format><dc:type
           rdf:resource="http://purl.org/dc/dcmitype/StillImage" /><dc:title /></cc:Work></rdf:RDF></metadata><defs
     id="defs79" /><sodipodi:namedview
     pagecolor="#ffffff"
     bordercolor="#666666"
     borderopacity="1"
     objecttolerance="10"
     gridtolerance="10"
     guidetolerance="10"
     inkscape:pageopacity="0"
     inkscape:pageshadow="2"
     inkscape:window-width="1680"
     inkscape:window-height="987"
     id="namedview77"
     showgrid="false"
     units="mm"
     inkscape:zoom="1.3350176"
     inkscape:cx="197.47106"
     inkscape:cy="141.78594"
     inkscape:window-x="-8"
     inkscape:window-y="-8"
     inkscape:window-maximized="1"
     inkscape:current-layer="Layer_1" /><rect
     style="fill:#bbe0f0;fill-opacity:1;fill-rule:evenodd;stroke:none;stroke-width:1;stroke-miterlimit:4;stroke-dasharray:none"
     id="rect4209"
     width="354.33066"
     height="354.33066"
     x="4.2314632e-006"
     y="4.2314632e-006" /><g
     id="g4248"
     transform="matrix(1.0323552,0,0,1.0323552,-18.986803,327.54679)"><polygon
       transform="translate(0,-645.66934)"
       points="273.127,433.247 272.981,391.624 231.565,391.314 165.656,457.815 165.656,430.78 165.656,391.314 106.883,391.314 106.883,430.78 106.883,569.218 106.883,608.688 165.656,608.688 165.656,569.218 165.656,542.186 231.565,608.688 273.127,608.688 273.127,566.749 206.965,499.999 "
       id="polygon5"
       style="fill:#fab330" /><g
       transform="translate(0,-645.66934)"
       id="g7"><defs
         id="defs9"><polygon
           id="SVGID_1_"
           points="273.127,433.247 272.981,391.624 231.565,391.314 165.656,457.815 165.656,430.78 165.656,391.314 106.88,391.314 106.88,430.78 106.88,569.218 106.88,608.688 165.656,608.688 165.656,569.218 165.656,542.186 231.565,608.688 273.127,608.688 273.127,566.749 206.972,499.999 " /></defs><clipPath
         id="SVGID_2_"><use
           xlink:href="#SVGID_1_"
           overflow="visible"
           id="use13"
           style="overflow:visible"
           x="0"
           y="0"
           width="100%"
           height="100%" /></clipPath><path
         clip-path="url(#SVGID_2_)"
         d="m 333.425,687.842 c -2.769,-4.803 -6.115,-9.814 -9.977,-14.896 3.862,-5.091 7.208,-10.105 9.977,-14.914 9.562,3.97 15.381,9.187 15.381,14.914 0,5.714 -5.819,10.935 -15.381,14.896 m -2.486,28.217 c -4.048,4.046 -11.833,3.616 -21.403,-0.337 1.443,-5.364 2.623,-11.255 3.474,-17.602 6.334,-0.855 12.246,-2.035 17.61,-3.481 3.947,9.57 4.366,17.375 0.319,21.42 m -43.111,17.85 c -5.714,0 -10.935,-5.815 -14.909,-15.367 4.818,-2.777 9.829,-6.12 14.909,-9.992 5.088,3.872 10.099,7.215 14.913,9.992 -3.968,9.552 -9.189,15.367 -14.913,15.367 m -43.116,-17.85 c -4.041,-4.045 -3.622,-11.85 0.337,-21.42 5.36,1.446 11.27,2.626 17.604,3.481 0.851,6.347 2.031,12.237 3.468,17.602 -9.563,3.965 -17.361,4.382 -21.409,0.337 m -17.855,-43.113 c 0,-5.728 5.813,-10.944 15.376,-14.914 2.779,4.809 6.119,9.823 9.983,14.914 -3.864,5.081 -7.204,10.093 -9.983,14.896 -9.563,-3.961 -15.376,-9.182 -15.376,-14.896 m 17.855,-43.118 c 4.048,-4.05 11.846,-3.637 21.417,0.324 -1.445,5.368 -2.625,11.277 -3.476,17.603 -6.334,0.872 -12.244,2.048 -17.604,3.476 -3.959,-9.561 -4.378,-17.362 -0.337,-21.403 m 43.116,-17.863 c 5.725,0 10.946,5.815 14.913,15.382 -4.814,2.764 -9.835,6.118 -14.913,9.986 -5.08,-3.868 -10.091,-7.223 -14.909,-9.986 3.974,-9.567 9.194,-15.382 14.909,-15.382 m 26.525,49.999 c -0.173,-3.207 -0.438,-6.333 -0.763,-9.385 5.396,0.928 10.36,2.141 14.757,3.582 -2.09,4.126 -4.743,8.491 -7.905,12.975 -1.928,-2.393 -3.953,-4.791 -6.089,-7.172 m 0.27,14.804 c 0.029,-1.264 0.034,-2.529 0.034,-3.821 0,-1.294 -0.004,-2.563 -0.034,-3.832 1.042,1.273 2.06,2.554 3.021,3.832 -0.961,1.259 -1.979,2.539 -3.021,3.821 m -0.27,7.159 c 2.137,-2.393 4.162,-4.782 6.089,-7.176 3.163,4.476 5.815,8.837 7.905,12.962 -4.391,1.454 -9.361,2.659 -14.757,3.586 0.325,-3.047 0.59,-6.173 0.763,-9.372 m -10.283,10.666 c 0.91,-0.876 1.82,-1.774 2.731,-2.685 0.9,-0.905 1.804,-1.816 2.684,-2.727 -0.175,1.645 -0.358,3.262 -0.571,4.847 -1.586,0.214 -3.206,0.404 -4.844,0.565 m -5.252,4.862 c 3.2,-0.176 6.325,-0.429 9.374,-0.758 -0.929,5.402 -2.145,10.357 -3.582,14.748 -4.125,-2.085 -8.491,-4.735 -12.958,-7.896 2.383,-1.926 4.781,-3.944 7.166,-6.094 m -14.817,0.271 c 1.269,0.021 2.543,0.043 3.827,0.043 1.288,0 2.562,-0.021 3.831,-0.043 -1.274,1.045 -2.556,2.057 -3.831,3.034 -1.266,-0.978 -2.546,-1.989 -3.827,-3.034 m -7.162,-0.271 c 2.394,2.15 4.789,4.168 7.172,6.095 -4.473,3.16 -8.832,5.811 -12.958,7.896 -1.448,-4.391 -2.653,-9.346 -3.582,-14.748 3.05,0.328 6.177,0.581 9.368,0.757 m -10.658,-10.277 c 0.878,0.914 1.774,1.821 2.678,2.727 0.916,0.914 1.82,1.813 2.741,2.688 -1.648,-0.161 -3.262,-0.351 -4.857,-0.564 -0.211,-1.586 -0.394,-3.212 -0.562,-4.851 m -4.876,-5.251 c 0.182,3.199 0.445,6.325 0.763,9.372 -5.39,-0.927 -10.354,-2.132 -14.751,-3.586 2.09,-4.125 4.745,-8.486 7.905,-12.962 1.928,2.394 3.946,4.783 6.083,7.176 m -0.263,-14.813 c -0.027,1.273 -0.041,2.538 -0.041,3.832 0,1.292 0.013,2.558 0.041,3.825 -1.041,-1.285 -2.059,-2.562 -3.028,-3.825 0.969,-1.278 1.987,-2.55 3.028,-3.832 m 0.263,-7.154 c -2.136,2.385 -4.162,4.77 -6.083,7.164 -3.16,-4.472 -5.815,-8.837 -7.905,-12.967 4.397,-1.438 9.361,-2.65 14.751,-3.578 -0.318,3.052 -0.582,6.178 -0.763,9.381 m 10.288,-10.679 c -0.914,0.894 -1.824,1.778 -2.734,2.688 -0.904,0.911 -1.799,1.825 -2.678,2.727 0.168,-1.63 0.351,-3.257 0.562,-4.837 1.589,-0.214 3.209,-0.41 4.85,-0.578 m 5.24,-4.854 c -3.192,0.173 -6.313,0.431 -9.361,0.759 0.929,-5.394 2.134,-10.367 3.582,-14.758 4.125,2.082 8.484,4.737 12.958,7.905 -2.384,1.923 -4.779,3.953 -7.179,6.094 m 14.838,-0.27 c -1.275,-0.021 -2.556,-0.042 -3.843,-0.042 -1.283,0 -2.558,0.021 -3.827,0.042 1.281,-1.05 2.561,-2.065 3.827,-3.034 1.274,0.969 2.562,1.984 3.843,3.034 m 7.147,0.27 c -2.385,-2.141 -4.783,-4.171 -7.166,-6.094 4.467,-3.16 8.833,-5.819 12.958,-7.905 1.437,4.396 2.653,9.364 3.582,14.758 -3.049,-0.329 -6.174,-0.586 -9.374,-0.759 m 7.983,7.543 c -0.911,-0.91 -1.821,-1.795 -2.731,-2.688 1.637,0.168 3.257,0.363 4.844,0.578 0.213,1.58 0.396,3.207 0.571,4.837 -0.88,-0.902 -1.784,-1.816 -2.684,-2.727 m 3.494,18.976 c 0,3.122 -0.093,6.189 -0.26,9.189 -2,2.246 -4.102,4.476 -6.316,6.692 -2.217,2.207 -4.45,4.315 -6.69,6.329 -3,0.16 -6.07,0.245 -9.201,0.245 -3.129,0 -6.192,-0.085 -9.193,-0.245 -2.239,-2.014 -4.473,-4.122 -6.688,-6.329 -2.21,-2.217 -4.324,-4.446 -6.325,-6.692 -0.165,-3 -0.251,-6.067 -0.251,-9.189 0,-3.132 0.086,-6.203 0.251,-9.195 2.001,-2.255 4.115,-4.487 6.325,-6.704 2.214,-2.201 4.448,-4.308 6.688,-6.317 3,-0.164 6.064,-0.257 9.193,-0.257 3.131,0 6.201,0.093 9.208,0.257 2.24,2.002 4.467,4.108 6.684,6.317 2.208,2.217 4.317,4.445 6.316,6.683 0.166,3.013 0.259,6.077 0.259,9.216 m 20.65,-43.118 c 4.041,4.041 3.622,11.842 -0.331,21.402 -5.365,-1.428 -11.271,-2.604 -17.604,-3.464 -0.851,-6.337 -2.031,-12.246 -3.474,-17.605 9.57,-3.97 17.368,-4.383 21.409,-0.333 m 29.701,43.118 c 0,-7.979 -9.444,-15.134 -24.426,-20.038 7.122,-14.087 8.749,-25.814 3.11,-31.457 -5.647,-5.644 -17.383,-4.017 -31.449,3.105 -4.922,-14.993 -12.073,-24.434 -20.052,-24.434 -7.966,0 -15.122,9.44 -20.042,24.434 -14.069,-7.131 -25.803,-8.749 -31.445,-3.105 -5.634,5.643 -4.022,17.37 3.099,31.449 -14.985,4.912 -24.438,12.067 -24.438,20.046 0,7.959 9.453,15.119 24.438,20.041 -7.122,14.071 -8.733,25.819 -3.099,31.44 5.642,5.646 17.376,4.02 31.445,-3.101 4.919,14.984 12.075,24.437 20.042,24.437 7.979,0 15.13,-9.452 20.052,-24.437 14.066,7.12 25.802,8.747 31.449,3.101 5.617,-5.621 4.012,-17.369 -3.11,-31.44 14.982,-4.922 24.426,-12.073 24.426,-20.041"
         id="path15"
         inkscape:connector-curvature="0"
         style="fill:#ffd183" /><path
         clip-path="url(#SVGID_2_)"
         d="m 287.916,661.702 c -6.205,0 -11.238,5.032 -11.238,11.238 0,6.213 5.033,11.235 11.238,11.235 6.209,0 11.233,-5.022 11.233,-11.235 0,-6.206 -5.024,-11.238 -11.233,-11.238"
         id="path17"
         inkscape:connector-curvature="0"
         style="fill:#ffd183" /><path
         clip-path="url(#SVGID_2_)"
         d="m 533.05,395.115 c -0.889,-0.354 -1.862,-0.55 -2.895,-0.503 -3.506,0.149 -6.291,2.834 -6.691,6.205 l -15.133,0.634 c -0.694,-3.324 -3.683,-5.773 -7.191,-5.621 -0.992,0.042 -1.915,0.287 -2.753,0.676 l -8.228,-12.964 c 1.494,-1.361 2.432,-3.325 2.341,-5.51 -0.101,-2.423 -1.412,-4.5 -3.32,-5.687 l 7.482,-14.319 c 0.695,0.181 1.409,0.307 2.17,0.275 3.508,-0.143 6.286,-2.83 6.694,-6.207 l 15.866,-0.666 c 0.69,3.335 3.683,5.771 7.193,5.624 1.027,-0.042 1.977,-0.306 2.848,-0.737 l 8.201,12.914 c -1.285,1.348 -2.061,3.175 -1.968,5.181 0.093,2.385 1.378,4.457 3.254,5.646 l -7.87,15.059 z m -89.625,4.833 c -0.893,-0.354 -1.875,-0.543 -2.896,-0.504 -3.504,0.15 -6.283,2.834 -6.696,6.203 l -15.87,0.667 c -0.685,-3.325 -3.685,-5.767 -7.191,-5.624 -0.752,0.032 -1.456,0.215 -2.134,0.461 l -8.264,-13.023 c 1.77,-1.362 2.891,-3.521 2.794,-5.93 -0.102,-2.406 -1.395,-4.46 -3.285,-5.659 l 7.149,-13.674 c 0.695,0.179 1.418,0.299 2.172,0.27 3.504,-0.145 6.288,-2.832 6.694,-6.205 l 16.378,-0.693 c 0.742,3.276 3.711,5.653 7.185,5.509 0.843,-0.038 1.633,-0.24 2.373,-0.545 l 8.167,12.863 c -1.287,1.345 -2.061,3.178 -1.97,5.173 0.097,2.395 1.391,4.46 3.268,5.667 l -7.874,15.044 z m 6.955,-65.561 c 0.695,0.182 1.42,0.306 2.17,0.276 3.508,-0.146 6.288,-2.828 6.69,-6.205 l 15.872,-0.66 c 0.695,3.313 3.688,5.767 7.197,5.617 1.022,-0.04 1.977,-0.316 2.842,-0.735 l 8.546,13.459 c -1.431,1.361 -2.316,3.282 -2.227,5.402 0.095,2.233 1.235,4.161 2.91,5.377 l -7.575,14.492 c -0.54,-0.093 -1.096,-0.168 -1.66,-0.139 -3.389,0.139 -6.113,2.642 -6.665,5.855 l -16.46,0.689 c -0.561,-3.487 -3.622,-6.079 -7.231,-5.93 -1.02,0.044 -1.977,0.308 -2.84,0.742 l -8.072,-12.723 c 1.5,-1.365 2.431,-3.329 2.34,-5.514 -0.099,-2.421 -1.405,-4.499 -3.32,-5.7 l 7.483,-14.303 z m 94.036,32.669 c -1.066,0.042 -2.061,0.341 -2.959,0.803 l -8.167,-12.884 c 1.333,-1.355 2.138,-3.224 2.057,-5.27 -0.159,-3.897 -3.455,-6.927 -7.356,-6.771 -3.507,0.158 -6.288,2.836 -6.692,6.213 l -15.862,0.666 c -0.694,-3.318 -3.685,-5.767 -7.193,-5.624 -0.963,0.037 -1.858,0.27 -2.676,0.647 l -8.569,-13.504 c 1.346,-1.357 2.155,-3.219 2.071,-5.267 -0.166,-3.894 -3.454,-6.928 -7.351,-6.761 -3.506,0.143 -6.294,2.833 -6.696,6.209 l -15.868,0.66 c -0.699,-3.325 -3.689,-5.773 -7.191,-5.622 -3.897,0.162 -6.927,3.452 -6.765,7.347 0.101,2.328 1.317,4.317 3.105,5.537 l -7.53,14.406 c -0.615,-0.144 -1.247,-0.238 -1.907,-0.213 -3.555,0.143 -6.357,2.897 -6.705,6.333 l -16.365,0.683 c -0.689,-3.318 -3.677,-5.767 -7.191,-5.627 -3.892,0.162 -6.928,3.456 -6.759,7.353 0.095,2.322 1.321,4.324 3.107,5.542 l -7.187,13.75 c -0.635,-0.152 -1.279,-0.253 -1.951,-0.221 -3.898,0.156 -6.934,3.453 -6.762,7.354 0.15,3.897 3.456,6.915 7.347,6.759 0.683,-0.023 1.317,-0.175 1.924,-0.384 l 8.316,13.104 c -1.681,1.357 -2.73,3.453 -2.629,5.767 0.162,3.902 3.451,6.928 7.347,6.766 3.51,-0.14 6.295,-2.832 6.696,-6.205 l 15.872,-0.66 c 0.689,3.318 3.683,5.773 7.197,5.623 3.898,-0.158 6.922,-3.453 6.759,-7.357 -0.088,-2.044 -1.047,-3.845 -2.505,-5.073 l 8.034,-15.352 c 0.635,0.156 1.286,0.251 1.977,0.228 4.239,-0.185 6.437,-2.109 6.719,-5.912 l 16.386,-0.683 c 0.539,3.5 3.613,6.123 7.246,5.971 0.894,-0.036 1.732,-0.257 2.503,-0.594 l 8.288,13.05 c -1.396,1.351 -2.244,3.251 -2.156,5.341 0.164,3.898 3.459,6.928 7.355,6.759 3.513,-0.145 6.282,-2.825 6.702,-6.205 l 15.125,-0.633 c 0.683,3.331 3.683,5.772 7.188,5.627 3.902,-0.165 6.936,-3.458 6.768,-7.347 -0.093,-2.059 -1.049,-3.854 -2.503,-5.091 l 8.023,-15.343 c 0.624,0.15 1.294,0.251 1.977,0.226 3.906,-0.162 6.928,-3.459 6.771,-7.353 -0.168,-3.907 -3.464,-6.93 -7.365,-6.768"
         id="path19"
         inkscape:connector-curvature="0"
         style="fill:#ffd183" /><path
         clip-path="url(#SVGID_2_)"
         d="m 131.899,469.762 -3.871,-2.861 c -0.006,-0.006 -0.012,-0.006 -0.012,-0.019 l -6.458,-4.776 -3.871,-2.868 13.341,-7.882 4.521,3.35 -3.65,15.056 z m -61.077,84.602 c -0.461,0.641 -1.443,0.779 -2.078,0.315 l -13.91,-10.315 c -0.647,-0.481 -0.796,-1.429 -0.323,-2.065 l 3.479,-4.694 4.656,3.442 c 0,0.005 0,0.005 0,0.005 l 6.985,5.184 c 0.01,0 0.01,0 0.01,0.008 l 4.652,3.446 -3.471,4.674 z m 66.442,-106.698 -0.39,1.605 -1.032,-0.765 1.422,-0.84 z m 5.471,-7.4 c -0.826,-0.615 -1.945,-0.67 -2.833,-0.137 l -10.029,5.923 -18.141,10.724 c 0,0 -0.007,0 -0.007,0.007 -0.168,0.101 -0.312,0.214 -0.457,0.352 -0.046,0.042 -0.082,0.095 -0.124,0.143 -0.059,0.059 -0.12,0.113 -0.173,0.185 l -55.585,75.005 c -0.006,0 -0.006,0 -0.006,0 l -5,6.76 c -2.174,2.937 -1.551,7.097 1.378,9.274 l 13.921,10.315 c 1.43,1.05 3.173,1.487 4.939,1.231 1.749,-0.261 3.293,-1.188 4.346,-2.617 l 7.562,-10.202 c 0.006,0 0.006,-0.013 0.006,-0.013 l 53.019,-71.545 c 0.046,-0.063 0.082,-0.136 0.132,-0.215 0.028,-0.054 0.063,-0.101 0.095,-0.156 0.083,-0.186 0.163,-0.371 0.209,-0.556 l 4.975,-20.478 2.75,-11.313 c 0.244,-1.004 -0.133,-2.064 -0.977,-2.687"
         id="path21"
         inkscape:connector-curvature="0"
         style="fill:#ffd183" /><path
         clip-path="url(#SVGID_2_)"
         d="m 343.882,783.899 c 0,1.066 -0.864,1.931 -1.924,1.931 l -62.063,0 c -1.06,0 -1.928,-0.864 -1.928,-1.931 l 0,-10.227 c 0,-1.062 0.868,-1.922 1.928,-1.922 l 62.063,0 c 1.06,0 1.924,0.86 1.924,1.922 l 0,10.227 z m -1.862,22.356 c 0,1.003 -0.815,1.821 -1.814,1.821 l -9.612,0 c -1.005,0 -1.827,-0.818 -1.827,-1.821 l 0,-9.612 c 0,-1.011 0.822,-1.82 1.827,-1.82 l 9.612,0 c 0.999,0 1.814,0.81 1.814,1.82 l 0,9.612 z m 0,15.349 c 0,1.006 -0.815,1.803 -1.814,1.803 l -9.612,0 c -1.005,0 -1.827,-0.797 -1.827,-1.803 l 0,-9.617 c 0,-1.003 0.822,-1.82 1.827,-1.82 l 9.612,0 c 0.999,0 1.814,0.817 1.814,1.82 l 0,9.617 z m 0,11.183 0,0 0,19.789 c 0,1.002 -0.815,1.812 -1.814,1.812 l -9.619,0 c -0.999,0 -1.82,-0.81 -1.82,-1.812 l 0,-15.499 0,-4.29 0,-5.327 c 0,-0.994 0.822,-1.813 1.82,-1.813 l 9.619,0 c 0.999,0 1.814,0.818 1.814,1.813 l 0,5.327 z M 325.6,806.255 c 0,1.003 -0.807,1.821 -1.808,1.821 l -9.623,0 c -1.005,0 -1.813,-0.818 -1.813,-1.821 l 0,-9.612 c 0,-1.011 0.809,-1.82 1.813,-1.82 l 9.623,0 c 1,0 1.808,0.81 1.808,1.82 l 0,9.612 z m 0,15.349 c 0,1.006 -0.807,1.803 -1.808,1.803 l -9.623,0 c -1.005,0 -1.813,-0.797 -1.813,-1.803 l 0,-9.617 c 0,-1.003 0.809,-1.82 1.813,-1.82 l 9.623,0 c 1,0 1.808,0.817 1.808,1.82 l 0,9.617 z m 0,15.473 c 0,1.02 -0.807,1.82 -1.808,1.82 l -9.623,0 c -1.005,0 -1.813,-0.801 -1.813,-1.82 l 0,-9.617 c 0,-0.994 0.809,-1.813 1.813,-1.813 l 9.623,0 c 1,0 1.808,0.818 1.808,1.813 l 0,9.617 z m 0,15.499 c 0,1.002 -0.807,1.812 -1.808,1.812 l -9.623,0 c -1.005,0 -1.813,-0.81 -1.813,-1.812 l 0,-9.625 c 0,-0.999 0.809,-1.809 1.813,-1.809 l 9.623,0 c 1,0 1.808,0.81 1.808,1.809 l 0,9.625 z m -16.412,-46.321 c 0,1.003 -0.815,1.821 -1.82,1.821 l -9.612,0 c -1.005,0 -1.814,-0.818 -1.814,-1.821 l 0,-9.612 c 0,-1.011 0.809,-1.82 1.814,-1.82 l 9.612,0 c 1.005,0 1.82,0.81 1.82,1.82 l 0,9.612 z m 0,15.349 c 0,1.006 -0.815,1.803 -1.82,1.803 l -9.612,0 c -1.005,0 -1.814,-0.797 -1.814,-1.803 l 0,-9.617 c 0,-1.003 0.809,-1.82 1.814,-1.82 l 9.612,0 c 1.005,0 1.82,0.817 1.82,1.82 l 0,9.617 z m 0,15.473 c 0,1.02 -0.815,1.82 -1.82,1.82 l -9.612,0 c -1.005,0 -1.814,-0.801 -1.814,-1.82 l 0,-9.617 c 0,-0.994 0.809,-1.813 1.814,-1.813 l 9.612,0 c 1.005,0 1.82,0.818 1.82,1.813 l 0,9.617 z m 0,15.499 c 0,1.002 -0.815,1.812 -1.82,1.812 l -9.612,0 c -1.005,0 -1.814,-0.81 -1.814,-1.812 l 0,-9.625 c 0,-0.999 0.809,-1.809 1.814,-1.809 l 9.612,0 c 1.005,0 1.82,0.81 1.82,1.809 l 0,9.625 z m -16.423,-46.321 c 0,1.003 -0.803,1.821 -1.813,1.821 l -9.614,0 c -1.012,0 -1.821,-0.818 -1.821,-1.821 l 0,-9.612 c 0,-1.011 0.809,-1.82 1.821,-1.82 l 9.614,0 c 1.009,0 1.813,0.81 1.813,1.82 l 0,9.612 z m 0,15.349 c 0,1.006 -0.803,1.803 -1.813,1.803 l -9.614,0 c -1.012,0 -1.821,-0.797 -1.821,-1.803 l 0,-9.617 c 0,-1.003 0.809,-1.82 1.821,-1.82 l 9.614,0 c 1.009,0 1.813,0.817 1.813,1.82 l 0,9.617 z m 0,15.473 c 0,1.02 -0.803,1.82 -1.813,1.82 l -9.614,0 c -1.012,0 -1.821,-0.801 -1.821,-1.82 l 0,-9.617 c 0,-0.994 0.809,-1.813 1.821,-1.813 l 9.614,0 c 1.009,0 1.813,0.818 1.813,1.813 l 0,9.617 z m 0,15.499 c 0,1.002 -0.803,1.812 -1.813,1.812 l -9.614,0 c -1.012,0 -1.821,-0.81 -1.821,-1.812 l 0,-9.625 c 0,-0.999 0.809,-1.809 1.821,-1.809 l 9.614,0 c 1.009,0 1.813,0.81 1.813,1.809 l 0,9.625 z m 50.36,-93.636 -64.404,0 c -3.622,0 -6.563,2.938 -6.563,6.557 l 0,91.191 c 0,3.624 2.942,6.574 6.563,6.574 l 64.404,0 c 3.625,0 6.557,-2.95 6.557,-6.574 l 0,-91.191 c 10e-4,-3.619 -2.932,-6.557 -6.557,-6.557"
         id="path23"
         inkscape:connector-curvature="0"
         style="fill:#ffd183" /><path
         clip-path="url(#SVGID_2_)"
         d="m 236.885,325.131 c -0.12,-1.588 -2.455,-3.816 -4.45,-5.442 l 0.999,-7.467 -1.561,-0.213 0.851,-6.432 c 1.028,-7.661 -5.39,-6.877 -13.051,-7.899 l -0.383,-0.057 c -7.657,-1.015 -13.643,-3.453 -14.667,4.206 l -0.851,6.443 -1.563,-0.206 -3.953,29.668 1.556,0.2 -9.784,73.389 5.585,23.974 c -0.014,0.006 -0.027,0.006 -0.033,0.013 0,0 1.588,8.162 2.461,10.556 0.868,2.396 2.172,4.353 8.121,-8.561 l 11.98,-22.233 9.778,-73.389 1.555,0.211 0.908,-6.789 2.09,4.01 -5.213,39.077 c 4.077,0.545 3.521,-3.186 3.521,-3.186 0,0 6.329,-47.054 6.104,-49.873"
         id="path25"
         inkscape:connector-curvature="0"
         style="fill:#ffd183" /><path
         clip-path="url(#SVGID_2_)"
         d="m 6.356,785.497 c 0.815,0.97 1.313,2.233 1.319,3.6 0.03,3.155 -2.509,5.734 -5.653,5.76 -1.791,0.021 -3.384,-0.796 -4.45,-2.065 -0.809,-0.977 -1.307,-2.229 -1.311,-3.602 -0.031,-3.148 2.503,-5.732 5.653,-5.758 1.789,-0.016 3.388,0.789 4.442,2.065 m -19.321,16.056 0,0.556 34.823,-0.29 -0.165,-20.248 3.165,-0.03 0.168,20.244 7.252,-0.047 -0.084,-10.67 3.154,-0.024 0.091,10.661 7.246,-0.06 -0.082,-10.665 3.154,-0.021 0.091,10.66 7.26,-0.066 -0.095,-10.661 3.15,-0.025 0.089,10.67 7.258,-0.063 -0.162,-20.256 3.156,-0.026 0.179,20.257 7.24,-0.059 -0.083,-10.666 3.157,-0.026 0.088,10.662 7.254,-0.055 -0.088,-10.674 3.156,-0.024 0.089,10.66 7.258,-0.051 -0.09,-10.669 3.163,-0.034 0.084,10.678 7.263,-0.067 -0.182,-20.252 3.163,-0.034 0.169,20.271 7.26,-0.06 -0.095,-10.678 3.157,-0.026 0.088,10.687 7.265,-0.08 -0.084,-10.665 3.15,-0.021 0.084,10.67 7.263,-0.063 -0.088,-10.661 3.15,-0.034 0.088,10.661 7.261,-0.055 -0.177,-20.257 3.163,-0.025 0.17,20.261 7.254,-0.067 -0.08,-10.669 3.15,-0.018 0.084,10.662 7.263,-0.059 -0.088,-10.671 3.15,-0.016 0.082,10.655 7.259,-0.063 -0.086,-10.666 3.162,-0.021 0.083,10.67 7.264,-0.067 -0.168,-20.244 3.15,-0.034 0.168,20.261 14.467,-0.122 -0.245,-37.272 -183.96,1.521 -35.101,0.299 0.248,36.711 z"
         id="path27"
         inkscape:connector-curvature="0"
         style="fill:#ffd183" /><path
         clip-path="url(#SVGID_2_)"
         d="m 275.08,491.476 c 0.567,0.564 1.294,0.892 2.036,0.949 0.933,0.088 1.9,-0.234 2.61,-0.949 1.281,-1.281 1.281,-3.369 0,-4.643 l -2.61,-2.624 -8.573,-8.578 c -1.283,-1.279 -3.374,-1.279 -4.655,0 -1.293,1.294 -1.293,3.369 0,4.65 l 11.192,11.195 z"
         id="path29"
         inkscape:connector-curvature="0"
         style="fill:#ffd183" /><path
         clip-path="url(#SVGID_2_)"
         d="m 308.976,479.247 c 0.089,0.006 0.179,0.013 0.257,0.013 1.814,0 3.29,-1.466 3.29,-3.293 l 0,-15.819 c 0,-1.827 -1.475,-3.302 -3.29,-3.302 -0.078,0 -0.168,0 -0.257,0.006 -1.7,0.126 -3.036,1.557 -3.036,3.295 l 0,15.819 c -10e-4,1.741 1.335,3.151 3.036,3.281"
         id="path31"
         inkscape:connector-curvature="0"
         style="fill:#ffd183" /><path
         clip-path="url(#SVGID_2_)"
         d="m 341.109,492.439 c 0.822,-0.012 1.647,-0.331 2.282,-0.958 l 11.184,-11.203 c 1.294,-1.274 1.294,-3.352 0,-4.647 -1.275,-1.282 -3.369,-1.282 -4.637,0 l -8.829,8.828 -2.375,2.37 c -1.29,1.281 -1.29,3.378 0,4.652 0.654,0.65 1.514,0.977 2.375,0.958"
         id="path33"
         inkscape:connector-curvature="0"
         style="fill:#ffd183" /><path
         clip-path="url(#SVGID_2_)"
         d="m 267.512,520.985 c 0,-1.813 -1.477,-3.288 -3.274,-3.288 l -15.842,0 c -1.816,0 -3.287,1.476 -3.287,3.288 0,1.82 1.471,3.291 3.287,3.291 l 15.842,0 c 1.797,0 3.274,-1.47 3.274,-3.291"
         id="path35"
         inkscape:connector-curvature="0"
         style="fill:#ffd183" /><path
         clip-path="url(#SVGID_2_)"
         d="m 370.07,517.697 -15.832,0 c -1.808,0 -3.281,1.479 -3.281,3.288 0,1.82 1.473,3.286 3.281,3.286 l 15.832,0 c 1.82,0 3.289,-1.466 3.289,-3.286 0,-1.808 -1.468,-3.288 -3.289,-3.288"
         id="path37"
         inkscape:connector-curvature="0"
         style="fill:#ffd183" /><path
         clip-path="url(#SVGID_2_)"
         d="m 343.391,550.482 c -0.63,-0.627 -1.46,-0.952 -2.282,-0.961 -0.862,-0.017 -1.719,0.308 -2.373,0.961 -1.292,1.29 -1.292,3.363 0,4.648 l 2.373,2.363 8.831,8.842 c 1.266,1.272 3.36,1.272 4.635,0 1.294,-1.281 1.294,-3.372 0,-4.648 l -11.184,-11.205 z"
         id="path39"
         inkscape:connector-curvature="0"
         style="fill:#ffd183" /><path
         clip-path="url(#SVGID_2_)"
         d="m 277.114,549.53 c -0.74,0.068 -1.462,0.388 -2.034,0.952 l -11.19,11.205 c -1.298,1.276 -1.298,3.359 0,4.648 1.281,1.272 3.365,1.272 4.658,0 l 8.565,-8.588 2.614,-2.617 c 1.281,-1.285 1.281,-3.358 0,-4.648 -0.711,-0.715 -1.68,-1.027 -2.613,-0.952"
         id="path41"
         inkscape:connector-curvature="0"
         style="fill:#ffd183" /><path
         clip-path="url(#SVGID_2_)"
         d="m 323.444,545.08 c -1.092,0.653 -1.762,1.854 -1.762,3.132 l 0,16.211 -12.707,0 -12.05,0 0,-15.854 c 0,-1.311 -0.702,-2.52 -1.865,-3.16 -8.495,-4.863 -14.219,-13.99 -14.219,-24.466 0,-7.784 3.137,-14.813 8.234,-19.897 5.115,-5.101 12.136,-8.25 19.9,-8.25 7.785,0 14.797,3.15 19.911,8.25 5.107,5.085 8.234,12.113 8.234,19.897 10e-4,10.257 -5.479,19.207 -13.676,24.137 m 20.999,-24.137 c 0,-5.369 -1.193,-10.469 -3.333,-15.037 -5.666,-12.058 -17.922,-20.416 -32.134,-20.416 -13.992,0 -26.105,8.125 -31.86,19.933 -2.286,4.673 -3.576,9.949 -3.576,15.521 0,5.574 1.29,10.847 3.576,15.523 2.809,5.773 7.155,10.67 12.479,14.15 l 0,27.871 c 0,9.681 7.859,17.522 17.543,17.535 l 1.837,0 2.493,0 c 9.688,-0.013 17.526,-7.854 17.532,-17.535 l 0,-28.288 c 5.196,-3.557 9.405,-8.475 12.109,-14.23 2.141,-4.565 3.334,-9.65 3.334,-15.027"
         id="path43"
         inkscape:connector-curvature="0"
         style="fill:#ffd183" /><path
         clip-path="url(#SVGID_2_)"
         d="m 144.878,417.14 -24.77,0 -24.754,0 c -7.324,0 -10.807,-5.443 -7.75,-12.095 l 13.354,-28.042 c 13.365,0.549 26.63,8.622 41.352,6.388 l 10.312,21.654 c 3.055,6.652 -0.426,12.095 -7.744,12.095 m 17.276,-8.749 -28.979,-59.938 c 0,0 0.25,-15.581 0.25,-22.113 0,-6.532 -4.707,-6.532 -7.574,-6.532 l -13.384,0 c -1.997,0 -5.674,-0.558 -5.674,6.532 0,7.65 0.263,22.113 0.263,22.113 l -28.99,59.938 c -3.955,8.603 0.552,15.636 10.015,15.636 l 32.029,0 32.035,0 c 9.463,0 13.974,-7.033 10.009,-15.636"
         id="path45"
         inkscape:connector-curvature="0"
         style="fill:#ffd183" /><path
         clip-path="url(#SVGID_2_)"
         d="m 160.649,647.741 c -4.262,5.449 -10.657,9.528 -17.25,12.903 1.167,-6.876 1.447,-14.311 0.708,-21.972 4.292,-2.541 12.46,-3.768 16.359,-0.901 4.279,3.157 3.076,6.301 0.183,9.97 m -53.597,26.515 c -10.04,1.77 -19.616,-4.926 -21.393,-14.96 -1.757,-10.046 4.939,-19.624 14.98,-21.386 10.032,-1.778 19.61,4.931 21.378,14.973 1.771,10.033 -4.934,19.603 -14.965,21.373 M 47.969,667.69 c -3.35,-3.456 -3.004,-9.056 1.099,-11.571 3.388,-2.082 7.273,-3.211 11.202,-4.159 1.916,7.969 4.809,15.276 8.433,21.694 -7.792,0.164 -15.978,-1.05 -20.734,-5.964 m 116.363,-42.345 c -6.382,-2.701 -15.219,-2.348 -22.422,0.4 -0.539,-2.213 -1.152,-4.392 -1.846,-6.507 l -0.257,0.051 c 4.395,-0.775 7.317,-4.956 6.544,-9.347 -0.771,-4.391 -4.962,-7.324 -9.347,-6.553 l -81.781,14.424 c -4.385,0.768 -7.324,4.961 -6.553,9.352 0.779,4.387 4.964,7.312 9.359,6.553 l -0.257,0.042 c 0.061,1.914 0.191,3.852 0.394,5.79 -6.281,1.635 -12.419,3.489 -17.867,7.272 -8.063,5.597 -8.879,16.891 -4.749,25.116 6.972,13.905 26.953,15.302 41.725,13.775 6.049,6.733 13.072,11.517 20.451,13.704 l 4.789,27.193 -7.355,1.288 c -4.717,0.836 -7.867,5.337 -7.035,10.068 0.834,4.724 5.329,7.876 10.055,7.042 l 41.962,-7.4 c 4.724,-0.834 7.874,-5.335 7.042,-10.054 -0.832,-4.729 -5.334,-7.886 -10.054,-7.055 l -7.354,1.302 -4.795,-27.193 c 5.624,-4.18 10.252,-10.257 13.58,-17.665 13.455,-6.047 30.743,-14.395 36.438,-28.739 3.514,-8.848 -2.207,-19.282 -10.667,-22.859"
         id="path47"
         inkscape:connector-curvature="0"
         style="fill:#ffd183" /><path
         clip-path="url(#SVGID_2_)"
         d="m 138.269,539.686 c 0,8.327 -6.755,15.087 -15.091,15.087 -8.329,0 -15.077,-6.76 -15.077,-15.087 0,-8.335 6.749,-15.089 15.077,-15.089 8.336,0 15.091,6.754 15.091,15.089"
         id="path49"
         inkscape:connector-curvature="0"
         style="fill:#ffd183" /><path
         clip-path="url(#SVGID_2_)"
         d="m 177.977,456.65 c 0,8.32 -6.759,15.08 -15.095,15.08 -8.324,0 -15.083,-6.759 -15.083,-15.08 0,-8.333 6.759,-15.093 15.083,-15.093 8.336,0 15.095,6.759 15.095,15.093"
         id="path51"
         inkscape:connector-curvature="0"
         style="fill:#ffd183" /><path
         clip-path="url(#SVGID_2_)"
         d="m 350.977,442.569 c 0,8.32 -6.75,15.084 -15.086,15.084 -8.327,0 -15.093,-6.764 -15.093,-15.084 0,-8.335 6.766,-15.097 15.093,-15.097 8.335,0 15.086,6.761 15.086,15.097"
         id="path53"
         inkscape:connector-curvature="0"
         style="fill:#ffd183" /><path
         clip-path="url(#SVGID_2_)"
         d="m 391.142,483.453 10.972,1.487 c 0,0 -1.993,141.732 -23.065,139.996 -19.078,-1.576 12.093,-141.483 12.093,-141.483"
         id="path55"
         inkscape:connector-curvature="0"
         style="fill:#ffd183" /><path
         clip-path="url(#SVGID_2_)"
         d="m 393.746,419.853 25.599,3.468 c 0,0 6.055,35.342 -17.396,32.155 -26.363,-3.576 -8.203,-35.623 -8.203,-35.623"
         id="path57"
         inkscape:connector-curvature="0"
         style="fill:#ffd183" /><path
         clip-path="url(#SVGID_2_)"
         d="m 427.355,496.737 10.962,1.376 c 0,0 -1.982,130.438 -23.061,128.828 -19.07,-1.449 12.099,-130.204 12.099,-130.204"
         id="path59"
         inkscape:connector-curvature="0"
         style="fill:#ffd183" /><path
         clip-path="url(#SVGID_2_)"
         d="m 433.17,468.742 c -2.906,-1.254 -5.384,-3.157 -6.94,-5.641 -8.761,-14.077 17.928,-34.993 25.585,-45.204 -2.299,3.072 2.417,12.37 3.143,15.339 2.053,8.282 4,17.865 2.773,26.392 -1.51,10.58 -15.229,13.162 -24.561,9.114"
         id="path61"
         inkscape:connector-curvature="0"
         style="fill:#ffd183" /><path
         clip-path="url(#SVGID_2_)"
         d="m 219.395,600.072 c 3.325,6.221 0.596,14.182 -6.119,17.768 -6.715,3.581 -14.846,1.457 -18.186,-4.779 l -38.252,-71.208 24.137,-13.291 38.42,71.51 z m -48.322,-104.247 -36.245,19.369 c -1.599,0.86 -2.191,2.892 -1.311,4.519 0.885,1.651 2.891,2.3 4.494,1.437 l 1.983,-1.058 51.683,96.205 c 4.424,8.269 15.248,11.112 24.171,6.338 8.917,-4.77 12.558,-15.339 8.133,-23.619 l -51.676,-96.188 1.964,-1.055 c 1.593,-0.858 2.185,-2.886 1.3,-4.531 -0.874,-1.644 -2.88,-2.279 -4.496,-1.417"
         id="path63"
         inkscape:connector-curvature="0"
         style="fill:#ffd183" /></g><polygon
       transform="translate(0,-645.66934)"
       points="273.022,402.997 242.681,402.997 242.681,440.548 265.892,440.548 273.129,433.243 "
       id="polygon65"
       style="fill:#ffd183" /></g></svg>