<?xml version="1.0" encoding="UTF-8" standalone="no"?>
<!-- Generator: Adobe Illustrator 16.0.0, SVG Export Plug-In . SVG Version: 6.00 Build 0)  -->

<svg
   xmlns:dc="http://purl.org/dc/elements/1.1/"
   xmlns:cc="http://creativecommons.org/ns#"
   xmlns:rdf="http://www.w3.org/1999/02/22-rdf-syntax-ns#"
   xmlns:svg="http://www.w3.org/2000/svg"
   xmlns="http://www.w3.org/2000/svg"
   xmlns:xlink="http://www.w3.org/1999/xlink"
   xmlns:sodipodi="http://sodipodi.sourceforge.net/DTD/sodipodi-0.dtd"
   xmlns:inkscape="http://www.inkscape.org/namespaces/inkscape"
   version="1.0"
   id="Layer_1"
   x="0px"
   y="0px"
   width="100mm"
   height="100mm"
   viewBox="0 0 354.3307 354.3307"
   enable-background="new 0 0 1000 1000"
   xml:space="preserve"
   inkscape:version="0.92.1 r15371"
   sodipodi:docname="kscuk_logo.svg"><metadata
     id="metadata81"><rdf:RDF><cc:Work
         rdf:about=""><dc:format>image/svg+xml</dc:format><dc:type
           rdf:resource="http://purl.org/dc/dcmitype/StillImage" /><dc:title /></cc:Work></rdf:RDF></metadata><defs
     id="defs79"><defs
       id="defs9"><polygon
         id="SVGID_1_"
         points="106.88,569.218 106.88,608.688 165.656,608.688 165.656,569.218 165.656,542.186 231.565,608.688 273.127,608.688 273.127,566.749 206.972,499.999 273.127,433.247 272.981,391.624 231.565,391.314 165.656,457.815 165.656,430.78 165.656,391.314 106.88,391.314 106.88,430.78 " /></defs><clipPath
       id="SVGID_2_"><use
         xlink:href="#SVGID_1_"
         overflow="visible"
         id="use13"
         style="overflow:visible"
         x="0"
         y="0"
         width="100%"
         height="100%" /></clipPath></defs><sodipodi:namedview
     pagecolor="#ffffff"
     bordercolor="#666666"
     borderopacity="1"
     objecttolerance="10"
     gridtolerance="10"
     guidetolerance="10"
     inkscape:pageopacity="0"
     inkscape:pageshadow="2"
     inkscape:window-width="1920"
     inkscape:window-height="1182"
     id="namedview77"
     showgrid="false"
     units="mm"
     inkscape:zoom="1.888"
     inkscape:cx="127.48944"
     inkscape:cy="154.44782"
     inkscape:window-x="0"
     inkscape:window-y="0"
     inkscape:window-maximized="1"
     inkscape:current-layer="Layer_1" /><rect
     style="fill:#bbe0f0;fill-opacity:1;fill-rule:evenodd;stroke:none;stroke-width:1;stroke-miterlimit:4;stroke-dasharray:none"
     id="rect4209"
     width="354.33066"
     height="354.33066"
     x="4.2314632e-006"
     y="4.2314632e-006" /><polygon
     style="fill:#fab330"
     id="polygon5"
     points="106.883,430.78 106.883,569.218 106.883,608.688 165.656,608.688 165.656,569.218 165.656,542.186 231.565,608.688 273.127,608.688 273.127,566.749 206.965,499.999 273.127,433.247 272.981,391.624 231.565,391.314 165.656,457.815 165.656,430.78 165.656,391.314 106.883,391.314 "
     transform="matrix(1.0323552,0,0,1.0323552,-18.986803,-339.01331)" /></svg>