<svg xmlns="http://www.w3.org/2000/svg" viewBox="0 0 215 215"><defs><style>.cls-1{fill:#fff;}.cls-2,.cls-3{fill:none;stroke-width:3px;}.cls-2{stroke:#6694fb;stroke-linecap:round;stroke-linejoin:round;}.cls-3{stroke:#ffe35e;stroke-miterlimit:10;}</style></defs><title>ikony_aktivity_novybarvy</title><g id="Vrstva_14" data-name="Vrstva 14"><circle class="cls-1" cx="107.5" cy="107.5" r="107.5"/></g><g id="Vrstva_10" data-name="Vrstva 10"><polyline class="cls-2" points="62.13 45.91 62.13 55.35 46.4 70.29 42.12 67.77"/><path class="cls-3" d="M107.5,84.71V107.5l19.16,12.31a22.77,22.77,0,0,0-19.16-35.1Z"/><path class="cls-2" d="M107.5,45.91V31a76.5,76.5,0,1,0,64.35,117.84l-12.54-8.06"/><path class="cls-2" d="M107.5,31V45.91a61.57,61.57,0,0,1,51.81,94.87l12.54,8.06A76.48,76.48,0,0,0,107.5,31Z"/><path class="cls-2" d="M126.66,119.81l32.65,21A61.57,61.57,0,0,0,107.5,45.91v38.8"/><circle class="cls-2" cx="107.5" cy="107.5" r="76.5"/><polyline class="cls-2" points="107.5 55.35 98.88 45.91 91.72 52.48 85.05 60.42 89.66 64.3 96.34 62.24 98.55 65.71 84 75.65 78.56 82.63 87.06 86.77 74.58 93.35 79.44 96.08 90.01 101.22 93.94 96.61 95.64 89.27 107.5 89.1 107.5 107.5 119.88 115.45 107.5 116.5 95 110.36 76.98 111.49 61.07 123.54 58.81 137.55 71.47 152.62 89.34 155.72 96.06 166.31 101.43 177.26 114.12 174.19 119.88 169.66 130.29 140.78 136.78 132.57 138.3 127.28"/><polyline class="cls-2" points="144.65 131.37 107.5 107.5 107.5 70.29"/></g></svg>