<?xml version="1.0" encoding="UTF-8" standalone="no"?>
<svg
   xmlns:dc="http://purl.org/dc/elements/1.1/"
   xmlns:cc="http://creativecommons.org/ns#"
   xmlns:rdf="http://www.w3.org/1999/02/22-rdf-syntax-ns#"
   xmlns:svg="http://www.w3.org/2000/svg"
   xmlns="http://www.w3.org/2000/svg"
   xmlns:sodipodi="http://sodipodi.sourceforge.net/DTD/sodipodi-0.dtd"
   xmlns:inkscape="http://www.inkscape.org/namespaces/inkscape"
   inkscape:version="1.0 (4035a4fb49, 2020-05-01)"
   sodipodi:docname="maskot_logo.svg"
   id="svg88"
   preserveAspectRatio="xMidYMid meet"
   viewBox="0 0 225.00001 225"
   height="300"
   width="300"
   version="1.0">
  <metadata
     id="metadata94">
    <rdf:RDF>
      <cc:Work
         rdf:about="">
        <dc:format>image/svg+xml</dc:format>
        <dc:type
           rdf:resource="http://purl.org/dc/dcmitype/StillImage" />
        <dc:title></dc:title>
      </cc:Work>
    </rdf:RDF>
  </metadata>
  <defs
     id="defs92" />
  <sodipodi:namedview
     inkscape:current-layer="svg88"
     inkscape:window-maximized="1"
     inkscape:window-y="27"
     inkscape:window-x="0"
     inkscape:cy="145.51213"
     inkscape:cx="175.42307"
     inkscape:zoom="2.4919812"
     units="px"
     showgrid="false"
     id="namedview90"
     inkscape:window-height="1016"
     inkscape:window-width="1920"
     inkscape:pageshadow="2"
     inkscape:pageopacity="0"
     guidetolerance="10"
     gridtolerance="10"
     objecttolerance="10"
     borderopacity="1"
     bordercolor="#666666"
     pagecolor="#ffffff" />
  <g
     id="g86"
     stroke="none"
     fill="#000000"
     transform="matrix(0.01914294,0,0,-0.01914294,12.168922,183.29637)">
    <path
       id="path2"
       d="m 8577,7390 c -109,-28 -213,-114 -262,-215 -22,-46 -29,-79 -33,-141 -5,-100 13,-169 65,-244 138,-197 409,-227 582,-65 66,61 98,118 118,206 13,61 14,82 4,138 -25,134 -122,258 -239,301 -64,25 -178,34 -235,20 z" />
    <path
       id="path4"
       d="m 5620,6895 v -315 h -250 -250 v 310 310 h -60 -60 v -310 -310 h -420 -420 v -420 -420 h -280 -280 v 420 420 l -842,2 -842,3 212,144 c 117,79 212,149 212,155 0,7 -12,26 -27,43 l -28,31 -275,-188 -275,-189 -327,-1 H 1080 V 5320 4060 h 1260 1260 v 465 465 h 280 280 v -465 -465 h 1260 1260 v 310 c 0,243 3,308 13,305 8,-3 126,218 337,629 l 325,633 3,-923 2,-924 h 465 465 v -405 -405 h -465 -465 l -2,-933 -3,-932 -332,617 -333,617 v 306 305 H 5430 4170 v -273 -273 l -141,-289 c -77,-160 -143,-293 -147,-297 -4,-4 -69,123 -144,281 l -138,288 v 282 281 H 2340 1080 V 2981 2702 L 920,2367 c -88,-184 -160,-338 -160,-341 0,-5 74,-46 83,-46 2,0 55,108 118,241 l 114,241 3,-861 2,-861 h 440 440 V 460 180 h 60 60 v 280 280 h 245 245 V 465 190 h 60 60 v 275 275 h 455 455 l 1,858 v 857 l 62,-125 c 34,-69 97,-197 139,-285 l 76,-160 145,295 145,295 1,-867 1,-868 418,-2 417,-3 3,-282 2,-283 h 60 60 v 285 285 h 260 260 l 2,-283 3,-282 63,-3 62,-3 v 286 285 h 455 455 l 2,844 3,845 240,-446 c 132,-246 282,-523 333,-617 l 92,-171 V 978 760 l 638,-1 c 407,-1 623,-4 598,-10 -109,-26 -210,-110 -263,-218 -25,-50 -28,-67 -28,-161 0,-94 3,-111 28,-161 38,-79 95,-140 165,-177 58,-31 63,-32 189,-32 118,0 133,2 180,25 99,50 180,162 203,283 23,117 -24,256 -117,343 -57,54 -78,66 -153,90 -54,18 -45,18 513,18 l 567,1 v 279 278 l 160,369 c 88,202 157,371 152,375 -4,5 -24,15 -44,23 l -37,16 -19,-43 c -10,-23 -61,-140 -113,-259 l -94,-218 -3,850 -2,850 h -425 -425 v 405 405 h 425 425 l 2,879 3,879 109,-262 c 60,-143 112,-264 115,-268 10,-12 94,31 88,44 -3,7 -75,180 -161,384 l -156,372 v 246 246 H 8620 7360 v -222 -223 l -175,-340 c -96,-187 -248,-483 -337,-657 l -163,-316 -3,864 -2,864 h -470 -470 v 315 315 h -60 -60 z M 9780,5350 V 4190 H 8620 7460 V 5350 6510 H 8620 9780 Z M 3500,5320 V 4160 H 2340 1180 v 1160 1160 h 1160 1160 z m 3080,0 V 4160 H 5420 4260 v 1160 1160 h 1160 1160 z m -2420,45 v -255 h -280 -280 v 255 255 h 280 280 z M 8900,3685 v -405 h -245 -245 v 405 405 h 245 245 z M 9780,2020 V 860 H 8620 7460 V 2020 3180 H 8620 9780 Z M 3500,2000 V 840 H 2340 1180 v 1160 1160 h 1160 1160 z m 3090,0 V 840 H 5430 4270 v 1160 1160 h 1160 1160 z" />
    <path
       id="path6"
       d="m 8660,6250 c -418,-33 -637,-96 -756,-215 -130,-129 -166,-328 -88,-482 32,-62 105,-135 159,-158 52,-21 214,-53 310,-60 132,-10 124,-4 127,-88 l 3,-72 218,-3 217,-2 v 71 72 l 108,-7 c 128,-9 190,-21 258,-51 142,-63 207,-191 170,-336 -28,-110 -108,-204 -210,-249 -103,-46 -209,-53 -863,-54 -336,0 -614,-4 -618,-7 -3,-4 -9,-31 -12,-60 l -5,-54 618,1 c 624,1 725,6 859,40 228,59 393,302 355,523 -16,90 -46,148 -110,211 -98,98 -221,141 -442,156 l -108,7 v 88 89 h -220 -220 v -84 -85 l -32,4 c -18,3 -76,9 -128,15 -148,17 -237,43 -276,81 -51,50 -78,112 -78,184 1,174 111,288 336,344 222,57 639,81 1067,62 140,-6 256,-10 256,-8 1,1 5,27 9,58 l 6,56 -83,6 c -140,11 -716,16 -827,7 z m 90,-781 v -42 l -46,7 c -26,3 -80,6 -120,6 h -74 v 35 35 h 120 120 z m -46,-155 c 36,-5 46,-11 46,-26 0,-17 -8,-18 -117,-16 -114,3 -118,4 -121,26 -3,21 0,22 71,22 41,0 95,-3 121,-6 z" />
    <path
       id="path8"
       d="m 1925,5790 440,-440 -300,-302 c -165,-167 -363,-367 -440,-445 l -140,-143 h 808 807 v 200 201 l -77,-3 -78,-3 -3,-82 -3,-83 h -510 -511 l 359,366 c 197,201 358,369 358,373 0,4 -128,145 -284,312 -157,167 -294,314 -305,327 l -19,22 h 456 457 v -125 -125 h 80 80 v 195 195 h -807 -808 z" />
    <path
       id="path10"
       d="m 5043,6203 c -24,-3 -33,-9 -33,-23 0,-17 294,-1663 321,-1797 l 10,-53 h 54 c 30,0 56,4 59,9 5,7 308,1736 318,1811 3,23 -1,26 -50,34 -29,5 -55,6 -59,2 -3,-3 -35,-169 -70,-368 -34,-200 -65,-369 -68,-375 -7,-20 -254,-18 -261,1 -3,8 -36,182 -73,387 -66,371 -67,374 -91,375 -14,1 -40,-1 -57,-3 z m 462,-895 c -3,-13 -25,-142 -50,-288 -25,-146 -48,-278 -52,-295 -5,-21 -21,53 -59,260 -29,160 -55,302 -58,318 l -5,27 h 114 c 114,0 115,0 110,-22 z" />
    <path
       id="path12"
       d="m 8578,2038 -3,-783 -348,-3 -348,-2 3,-58 3,-57 h 770 770 l 3,58 3,57 h -366 -365 v 785 785 h -60 -60 z" />
    <path
       id="path14"
       d="m 1387,2863 c -4,-3 -7,-33 -7,-65 v -58 h 45 45 v -780 -780 h -45 -45 v -65 -65 h 380 380 v 65 65 h -125 -125 v 367 367 l 33,-31 c 17,-17 223,-212 457,-432 l 425,-401 h 222 223 v 65 65 h -110 -109 l -461,436 c -254,240 -460,437 -458,439 2,2 188,156 413,344 l 410,341 h 108 107 v 65 65 h -320 -320 v -65 -64 l 103,-3 102,-3 -390,-324 c -214,-178 -400,-333 -412,-344 l -23,-20 v 346 347 h 125 126 l -3,63 -3,62 -371,3 c -204,1 -373,-1 -377,-5 z m 243,-903 v -780 h -40 -40 v 773 c 0,426 3,777 7,780 3,4 21,7 40,7 h 33 z" />
    <path
       id="path16"
       d="m 5291,3080 c -46,-27 -87,-52 -90,-57 -5,-7 -108,-43 -124,-43 -3,0 -7,18 -9,40 l -3,41 -46,-64 c -52,-71 -135,-130 -150,-106 -8,12 -11,11 -19,-1 -5,-8 -10,-20 -10,-26 0,-5 -31,-36 -69,-67 -188,-154 -338,-433 -358,-664 -3,-40 -8,-73 -10,-73 -2,0 -14,7 -27,15 l -24,16 25,-83 c 14,-46 31,-117 38,-158 7,-41 17,-92 23,-113 10,-35 9,-37 -9,-32 -27,9 -24,-7 7,-36 14,-13 50,-71 80,-129 148,-291 408,-488 726,-554 107,-22 299,-21 413,3 243,50 466,191 617,391 68,89 153,266 180,375 33,130 33,371 0,499 -25,99 -89,243 -149,333 -89,136 -263,286 -409,355 -27,12 -51,24 -54,26 -3,2 6,12 20,22 34,25 24,30 -36,17 -43,-9 -66,-7 -130,8 -49,12 -130,20 -214,23 -74,2 -137,5 -139,7 -2,2 6,21 18,41 12,20 21,38 19,39 -2,2 -41,-19 -87,-45 z m 148,-217 c -30,-32 -63,-69 -73,-83 -10,-14 17,12 61,58 44,45 83,82 87,82 3,0 6,-12 6,-27 l 1,-28 15,28 c 14,25 19,27 52,21 59,-11 59,-15 -2,-46 -32,-16 -56,-32 -53,-34 3,-3 32,8 66,25 72,37 77,37 155,10 90,-32 94,-43 11,-35 -48,4 -65,3 -55,-4 8,-5 24,-10 34,-10 14,0 4,-15 -40,-55 -51,-48 -55,-54 -31,-49 24,5 29,2 41,-26 l 13,-32 7,28 c 4,16 14,53 22,82 l 15,52 h 52 c 43,0 61,-6 105,-35 28,-20 52,-40 52,-45 0,-6 5,-10 11,-10 6,0 46,-32 90,-72 74,-68 78,-73 57,-81 -21,-8 -20,-9 18,-26 58,-26 127,-143 169,-286 14,-50 15,-69 4,-147 -6,-49 -15,-91 -20,-93 -4,-3 -15,5 -24,17 -15,22 -16,19 -9,-50 4,-40 10,-87 13,-105 l 7,-32 32,65 32,65 -5,-70 c -10,-143 -81,-337 -157,-430 l -33,-39 -5,37 -5,37 -54,-105 c -47,-93 -60,-110 -115,-150 -123,-93 -240,-133 -385,-135 -34,0 -34,0 -16,20 10,11 16,22 14,24 -7,8 -178,-67 -173,-76 13,-20 -145,-4 -240,25 -38,11 -32,12 99,17 l 140,6 -139,2 -139,2 23,25 c 28,30 27,30 -49,9 l -59,-17 -68,38 c -72,38 -142,90 -134,98 3,3 65,-5 138,-17 72,-13 132,-20 132,-16 0,3 -33,11 -72,18 -40,7 -102,17 -137,23 l -63,11 27,22 28,22 -59,-6 c -36,-5 -64,-3 -72,3 -20,16 -132,167 -132,178 0,5 25,-7 56,-26 31,-20 58,-34 61,-31 4,4 -97,73 -122,83 -22,8 -67,113 -90,208 -9,39 -18,76 -21,84 -5,16 -7,17 89,-61 32,-27 60,-48 62,-48 3,0 0,12 -6,26 -5,15 -8,28 -7,30 2,1 55,-20 118,-47 63,-27 119,-48 124,-46 5,2 -24,17 -65,34 -41,17 -96,41 -123,54 l -50,22 30,15 29,16 -60,8 c -33,4 -79,10 -102,13 l -41,6 -7,69 c -4,38 -4,88 0,111 l 7,43 16,-30 16,-29 6,33 5,33 85,-101 c 46,-55 88,-100 93,-100 8,0 -138,176 -155,186 -16,10 -7,23 19,26 27,3 26,4 -24,36 l -51,33 19,71 c 29,103 36,112 44,53 10,-79 16,-77 9,3 -6,83 1,116 23,108 10,-4 13,-1 9,12 -3,9 -2,23 3,31 7,10 21,-4 56,-55 47,-69 47,-69 42,-31 -6,35 -4,37 11,26 17,-13 137,-115 180,-153 12,-11 22,-15 22,-10 0,5 -45,47 -100,94 -99,84 -99,84 -73,95 26,10 25,11 -40,40 -37,17 -67,34 -67,39 0,11 90,124 125,156 l 27,25 -5,-110 -6,-110 14,113 c 14,119 27,151 51,131 11,-9 14,-7 14,10 0,13 12,29 32,41 18,10 34,18 35,16 2,-2 -6,-29 -18,-60 -11,-32 -19,-59 -16,-62 2,-2 16,29 31,69 26,71 28,74 84,101 51,25 55,26 38,7 -28,-31 -9,-26 30,8 33,30 74,45 148,58 l 40,6 -22,-37 c -28,-47 -28,-52 2,-33 l 24,16 -25,-96 c -13,-52 -22,-97 -20,-99 2,-3 15,36 27,86 13,49 27,90 31,90 5,0 13,-8 18,-17 8,-14 10,-4 11,40 v 57 h 72 72 z m 921,-789 c 0,-25 -6,-47 -15,-54 -18,-15 -19,-2 -9,74 8,56 24,43 24,-20 z m -667,-954 c -33,-13 -130,-24 -120,-14 5,5 32,11 60,15 75,9 85,9 60,-1 z" />
    <path
       id="path18"
       d="m 5134,2794 c 3,-9 6,-43 6,-77 0,-54 1,-59 14,-42 13,18 16,14 34,-50 12,-39 24,-83 28,-98 3,-15 9,-26 11,-23 3,2 -7,45 -21,95 -31,108 -31,104 -6,91 27,-15 26,-9 -17,60 -35,56 -63,81 -49,44 z" />
    <path
       id="path20"
       d="m 5470,2738 c 0,-13 -3,-48 -6,-78 -5,-50 -4,-53 9,-37 19,23 23,16 32,-58 4,-33 9,-55 12,-49 2,6 0,37 -5,68 -8,51 -3,71 13,46 3,-5 10,-10 15,-10 5,0 -6,31 -23,70 -33,72 -47,86 -47,48 z" />
    <path
       id="path22"
       d="m 5662,2660 c -17,-27 -28,-50 -24,-50 9,0 64,91 59,96 -2,2 -18,-18 -35,-46 z" />
    <path
       id="path24"
       d="m 5900,2681 c -45,-5 -51,-8 -31,-15 29,-10 19,-20 -42,-36 -26,-7 -50,-16 -52,-20 -3,-5 23,0 57,11 35,10 64,19 66,19 1,0 -2,-9 -8,-20 -6,-11 -7,-20 -3,-20 7,0 120,73 132,86 5,5 -44,3 -119,-5 z" />
    <path
       id="path26"
       d="m 5036,2518 c 64,-85 67,-88 62,-55 -3,15 -3,27 0,27 4,0 42,-27 85,-61 43,-33 80,-59 83,-56 2,2 -34,33 -80,68 l -85,64 32,5 c 30,5 27,7 -48,38 -44,17 -84,32 -88,32 -5,0 13,-28 39,-62 z" />
    <path
       id="path28"
       d="m 5645,2518 c -54,-47 -21,-138 50,-138 71,0 105,90 51,137 -34,29 -67,29 -101,1 z" />
    <path
       id="path30"
       d="m 6135,2520 c 5,-8 23,-36 42,-61 38,-53 40,-61 16,-53 -10,3 4,-15 31,-40 28,-25 51,-44 53,-42 2,1 -4,23 -12,47 -27,77 -26,76 -34,55 -6,-16 -13,-11 -46,35 -42,59 -63,84 -50,59 z" />
    <path
       id="path32"
       d="m 5890,2495 c 25,-13 52,-24 60,-24 8,0 -9,11 -39,25 -68,31 -79,30 -21,-1 z" />
    <path
       id="path34"
       d="m 5960,2499 c 11,-20 10,-25 -14,-44 l -28,-22 66,-7 c 36,-4 73,-9 81,-12 31,-12 12,12 -43,56 -68,55 -78,59 -62,29 z" />
    <path
       id="path36"
       d="m 5337,2477 c 15,-13 45,-36 66,-52 l 38,-28 -10,27 c -6,14 -8,26 -6,26 2,0 30,-11 61,-25 32,-14 59,-23 62,-20 3,2 -6,9 -19,14 -13,5 -42,16 -64,26 -40,17 -40,17 -15,28 24,10 23,11 -20,18 -25,4 -62,8 -83,8 l -39,1 z" />
    <path
       id="path38"
       d="m 5860,2405 c 0,-3 11,-28 25,-55 30,-60 30,-60 3,-52 -19,5 -17,-2 19,-45 23,-27 50,-56 59,-64 15,-12 16,-12 11,6 -5,18 -26,130 -27,144 -1,3 -7,-5 -14,-19 -14,-25 -14,-24 -40,33 -21,49 -36,70 -36,52 z" />
    <path
       id="path40"
       d="m 6176,2320 c 3,-30 8,-75 11,-99 6,-42 5,-43 -16,-32 -21,12 -22,12 -8,-21 47,-109 67,-133 67,-79 0,15 3,50 6,77 5,46 4,48 -10,30 -9,-11 -18,-18 -20,-15 -2,2 -11,47 -19,99 -9,52 -14,70 -11,40 z" />
    <path
       id="path42"
       d="m 5453,2292 c -35,-25 -61,-47 -59,-49 2,-2 39,-1 81,3 65,6 75,9 62,19 -25,18 -22,22 33,40 27,9 52,21 56,26 4,8 -14,2 -115,-39 -11,-4 -11,-1 -1,17 6,13 10,24 8,26 -2,2 -31,-17 -65,-43 z" />
    <path
       id="path44"
       d="m 5755,2280 c -44,-45 -52,-48 -57,-22 -3,11 -15,-5 -37,-47 -18,-34 -30,-65 -28,-67 2,-3 33,12 67,33 54,32 60,38 42,43 -21,5 -20,7 19,53 50,57 47,61 -6,7 z" />
    <path
       id="path46"
       d="m 5064,2291 c -4,-4 129,-89 134,-85 2,1 -1,12 -8,23 -14,26 -12,26 85,-4 44,-14 85,-25 90,-25 21,1 -23,18 -103,40 -78,22 -82,24 -61,36 21,11 15,13 -54,16 -44,1 -81,1 -83,-1 z" />
    <path
       id="path48"
       d="m 4655,2243 c 14,-13 138,-108 153,-117 10,-6 10,-2 0,18 -6,15 -9,28 -6,31 2,3 59,-17 126,-44 67,-27 122,-46 122,-42 0,4 -57,30 -127,58 l -128,51 35,14 35,15 -50,6 c -128,16 -170,19 -160,10 z" />
    <path
       id="path50"
       d="m 6067,2113 c -29,-78 -37,-93 -43,-75 -12,40 -24,23 -24,-35 0,-32 -3,-69 -7,-82 -9,-35 7,-21 57,50 36,51 39,60 21,54 -28,-8 -27,-2 10,95 17,45 29,83 27,86 -3,2 -21,-40 -41,-93 z" />
    <path
       id="path52"
       d="m 5350,2130 c -14,-5 -45,-14 -70,-21 l -45,-12 75,-23 c 92,-29 98,-29 75,-4 -17,19 -16,19 86,23 l 104,3 -104,2 c -103,2 -104,2 -86,22 20,22 10,25 -35,10 z" />
    <path
       id="path54"
       d="m 5895,2028 -70,-73 73,70 c 39,38 72,71 72,72 0,8 -11,-2 -75,-69 z" />
    <path
       id="path56"
       d="m 5707,2025 c -49,-19 -91,-35 -94,-35 -2,0 -1,9 2,20 3,11 4,20 1,20 -6,0 -126,-91 -126,-95 0,-3 86,5 130,11 34,6 34,6 12,18 -21,11 -17,14 65,45 48,18 92,37 98,42 13,13 9,12 -88,-26 z" />
    <path
       id="path58"
       d="m 4920,1985 c -25,-7 -65,-19 -90,-26 l -45,-12 75,-23 c 41,-13 89,-26 105,-30 l 30,-6 -24,26 -24,25 139,4 139,3 -139,2 -139,2 23,25 c 27,29 18,31 -50,10 z" />
    <path
       id="path60"
       d="m 5766,1928 c -21,-39 -35,-69 -30,-66 5,3 41,23 79,44 68,37 69,39 40,44 -21,4 -31,12 -33,28 -2,12 -6,22 -10,22 -4,0 -24,-32 -46,-72 z" />
    <path
       id="path62"
       d="m 6180,1870 c -34,-61 -60,-113 -58,-115 2,-3 33,45 67,106 35,61 61,112 58,115 -2,3 -33,-45 -67,-106 z" />
    <path
       id="path64"
       d="m 5395,1799 c -49,-15 -103,-31 -118,-35 l -29,-6 18,33 17,33 -29,-19 c -16,-10 -58,-37 -94,-59 l -65,-41 58,-3 c 32,-2 81,-2 110,0 52,3 52,3 25,17 -16,8 -28,17 -28,21 0,3 53,21 118,40 64,18 121,37 127,42 16,14 -16,8 -110,-23 z" />
    <path
       id="path66"
       d="m 5947,1736 c -122,-107 -117,-104 -110,-59 5,36 1,32 -56,-52 -33,-49 -59,-91 -57,-93 2,-1 43,16 90,40 82,41 86,44 62,53 -25,10 -24,12 58,83 84,73 124,112 114,112 -3,0 -48,-38 -101,-84 z" />
    <path
       id="path68"
       d="m 6062,1714 c -12,-54 -21,-99 -19,-100 2,-2 34,28 73,67 58,60 65,70 42,65 -34,-8 -58,2 -58,23 0,9 -4,22 -8,29 -5,8 -17,-25 -30,-84 z" />
    <path
       id="path70"
       d="m 5690,1722 c -41,-26 -93,-58 -114,-72 l -39,-24 6,35 c 7,33 5,33 -64,-39 -39,-41 -69,-75 -67,-77 2,-2 48,9 103,24 92,26 97,29 67,35 -18,4 -30,11 -27,16 3,4 52,36 110,70 97,57 129,81 108,79 -4,0 -42,-21 -83,-47 z" />
    <path
       id="path72"
       d="m 4842,1640 c -51,-9 -95,-19 -97,-22 -3,-3 32,-19 77,-37 46,-18 90,-36 98,-39 9,-4 6,5 -8,23 -12,15 -21,29 -20,30 2,1 57,-4 123,-11 66,-7 129,-13 140,-13 h 20 l -20,8 c -11,5 -60,11 -110,15 -49,4 -104,10 -122,13 l -32,5 27,24 c 15,13 25,23 22,23 -3,-1 -47,-9 -98,-19 z" />
    <path
       id="path74"
       d="m 5117,1450 c -48,-20 -90,-39 -92,-42 -2,-2 43,-11 101,-19 l 106,-15 -27,22 -28,22 29,6 c 16,3 74,10 129,17 55,6 105,16 110,21 6,6 -3,7 -25,3 -76,-13 -240,-31 -240,-27 0,3 7,14 17,24 9,10 14,20 12,22 -2,2 -44,-13 -92,-34 z" />
    <path
       id="path76"
       d="m 6040,1471 c -14,-10 -65,-44 -113,-75 l -89,-57 7,30 c 4,17 5,31 2,31 -8,0 -129,-141 -125,-145 5,-6 171,45 183,56 5,5 -2,9 -18,9 -15,0 -27,4 -27,9 0,5 50,41 110,81 61,39 110,73 110,76 0,9 -16,3 -40,-15 z" />
    <path
       id="path78"
       d="m 5613,1395 c -56,-24 -112,-47 -124,-50 -23,-8 -23,-9 -1,45 5,12 -59,-35 -141,-103 -22,-18 -21,-18 43,-12 36,3 82,9 104,12 l 39,6 -28,14 c -15,8 -25,16 -23,18 1,1 55,24 118,50 106,44 149,66 125,64 -6,0 -56,-20 -112,-44 z" />
    <path
       id="path80"
       d="m 553,5800 c -111,-36 -208,-129 -250,-239 -13,-32 -18,-73 -18,-136 0,-80 4,-97 32,-157 40,-85 106,-151 191,-191 61,-29 76,-32 162,-32 86,0 101,3 162,32 225,106 296,387 148,584 -44,59 -130,122 -188,139 -74,22 -173,22 -239,0 z" />
    <path
       id="path82"
       d="m 2187,4039 c -108,-25 -210,-110 -260,-217 -29,-61 -32,-76 -32,-162 0,-86 3,-101 32,-162 40,-85 106,-151 191,-191 61,-29 76,-32 162,-32 87,0 101,3 162,33 190,93 272,298 198,496 -25,65 -102,154 -166,192 -82,48 -194,65 -287,43 z" />
    <path
       id="path84"
       d="m 5307,4040 c -217,-55 -348,-291 -277,-499 39,-116 102,-185 217,-239 50,-23 71,-27 153,-27 88,0 101,3 162,33 85,41 167,128 199,209 32,82 32,205 -1,288 -33,84 -132,183 -215,214 -67,25 -180,35 -238,21 z" />
  </g>
</svg>
