<svg xmlns="http://www.w3.org/2000/svg" viewBox="0 0 214.56 214.56"><defs><style>.cls-1{fill:#fff;}.cls-2{fill:#02a7fc;}.cls-3{fill:#ffce40;}</style></defs><title>Kreslicí plátno 12 kopie 5</title><g id="Vrstva_14" data-name="Vrstva 14"><circle class="cls-1" cx="107.5" cy="107.5" r="107.5"/></g><g id="Vrstva_17" data-name="Vrstva 17"><path class="cls-2" d="M78.57,36.22a50,50,0,0,1,4.32,99.71c-1.48.13-3,.19-4.44.19a50,50,0,0,1-4.32-99.71c1.48-.13,3-.19,4.44-.19h0m0-3c-1.55,0-3.12.06-4.7.2a53,53,0,0,0,4.58,105.7c1.55,0,3.12-.06,4.7-.2a53,53,0,0,0-4.58-105.7Z"/><path class="cls-2" d="M136.42,32.36v3a50.8,50.8,0,0,1,7.48.56,50,50,0,0,1-7.35,99.36,50.9,50.9,0,0,1-7.48-.56,50,50,0,0,1,7.35-99.36v-3m0,0a53,53,0,1,0,7.93.59,53,53,0,0,0-7.93-.59Z"/><path class="cls-2" d="M108.29,83.34v3a50.9,50.9,0,0,1,7.48.56,50,50,0,0,1-7.35,99.36,50.8,50.8,0,0,1-7.48-.56,50,50,0,0,1,7.35-99.36v-3m0,0a53,53,0,1,0,7.92.6,53,53,0,0,0-7.92-.6Z"/><path class="cls-1" d="M107.89,119.38A34.63,34.63,0,0,1,92.58,94.43a35.81,35.81,0,0,1,29.86-.51A34.52,34.52,0,0,1,107.89,119.38Z"/><path class="cls-3" d="M108,92.4a34.58,34.58,0,0,1,12.83,2.47,33.1,33.1,0,0,1-13,22.68A33.17,33.17,0,0,1,94.21,95.33,34.21,34.21,0,0,1,108,92.4m0-3a37,37,0,0,0-17,4.15,36,36,0,0,0,16.92,27.63A35.9,35.9,0,0,0,124,93a37.15,37.15,0,0,0-10.5-3.18,37.73,37.73,0,0,0-5.48-.4Z"/><path class="cls-1" d="M164.31,119.6c-3.6-13.88-13.31-25.76-27.6-33.68,0-.25,0-.5,0-.76,0-1.29.06-2.61,0-3.67C135.38,66.74,129,53.78,118.78,44.7a45.88,45.88,0,0,1,24.41-3.11A44.66,44.66,0,0,1,172.56,59a43.12,43.12,0,0,1,8.28,32.65A44.14,44.14,0,0,1,164.31,119.6Z"/><path class="cls-3" d="M136.56,42.61a44.28,44.28,0,0,1,6.41.47,43.12,43.12,0,0,1,28.39,16.8,41.61,41.61,0,0,1,8,31.52A42.56,42.56,0,0,1,165.13,117c-4-13.07-13.43-24.25-26.9-31.93a34.76,34.76,0,0,0,0-3.71c-1.27-14.26-7.13-26.91-16.64-36.12a44.48,44.48,0,0,1,15-2.62m0-3A47.1,47.1,0,0,0,116,44.32c11.47,9.21,17.89,22.66,19.2,37.3.13,1.46,0,3.66,0,5.19,14.09,7.57,25,19.92,28.17,35.35a45.5,45.5,0,0,0,19-30.31,44.58,44.58,0,0,0-8.57-33.77,46.61,46.61,0,0,0-37.2-18.47Z"/><path class="cls-1" d="M108.28,181A42.55,42.55,0,0,1,81,171.3a44,44,0,0,1-15.59-28.37,48.49,48.49,0,0,0,13.36,1.86,58.72,58.72,0,0,0,29.52-8.45l.64.4a35.77,35.77,0,0,0,3.17,1.84,57.19,57.19,0,0,0,24.76,5.78,51.23,51.23,0,0,0,15.87-2.49A45.84,45.84,0,0,1,143,164.38a44.46,44.46,0,0,1-29.81,16.37A43.36,43.36,0,0,1,108.28,181Z"/><path class="cls-3" d="M108.3,138.09a33.09,33.09,0,0,0,3.2,1.84,58.62,58.62,0,0,0,25.4,5.93,53,53,0,0,0,14-1.86,44.37,44.37,0,0,1-9,19.44,43,43,0,0,1-28.81,15.82,42.55,42.55,0,0,1-4.78.27A41.05,41.05,0,0,1,82,170.14,42.38,42.38,0,0,1,67.28,145a50.28,50.28,0,0,0,11.53,1.33,60,60,0,0,0,29.49-8.2m0-3.5a57.55,57.55,0,0,1-29.53,8.7,46.42,46.42,0,0,1-15.08-2.48,45.34,45.34,0,0,0,16.35,31.65,44.27,44.27,0,0,0,28.2,10.07,46.24,46.24,0,0,0,35.93-17.21,47,47,0,0,0,10.3-25.65,49.62,49.62,0,0,1-17.61,3.19,56,56,0,0,1-24.11-5.64c-1.32-.62-3.14-1.86-4.45-2.63Z"/><path class="cls-1" d="M51.09,121.41a45.81,45.81,0,0,1-14.5-19.76,44.46,44.46,0,0,1,.94-34A43,43,0,0,1,77,42a44.5,44.5,0,0,1,17.36,3.57c-10.35,9.85-16,24.05-16,40.33l-.66.35A32.69,32.69,0,0,0,74.47,88C62.26,96.3,54,108.09,51.09,121.41Z"/><path class="cls-3" d="M77,43.47a43,43,0,0,1,14.68,2.62C82.21,55.94,77,69.52,76.83,85a33.47,33.47,0,0,0-3.2,1.83c-11.8,8-20,19.21-23.42,31.94A44.37,44.37,0,0,1,38,101.12a43,43,0,0,1,.91-32.86A41.55,41.55,0,0,1,77,43.47m0-3A44.52,44.52,0,0,0,36.16,67a46,46,0,0,0-1,35.13A47,47,0,0,0,52.11,124c2.48-14.44,11.08-26.54,23.2-34.76,1.21-.82,3.19-1.77,4.52-2.51C79.62,70.82,85.11,55.38,97,45.12A45.78,45.78,0,0,0,77,40.47Z"/></g></svg>