<?xml version="1.0" encoding="UTF-8" standalone="no"?>
<svg
   width="339"
   height="339"
   version="1.1"
   id="svg1"
   sodipodi:docname="naboj_logo.svg"
   inkscape:version="1.4 (e7c3feb100, 2024-10-09)"
   xmlns:inkscape="http://www.inkscape.org/namespaces/inkscape"
   xmlns:sodipodi="http://sodipodi.sourceforge.net/DTD/sodipodi-0.dtd"
   xmlns="http://www.w3.org/2000/svg"
   xmlns:svg="http://www.w3.org/2000/svg">
  <defs
     id="defs1" />
  <sodipodi:namedview
     id="namedview1"
     pagecolor="#ffffff"
     bordercolor="#000000"
     borderopacity="0.25"
     inkscape:showpageshadow="2"
     inkscape:pageopacity="0.0"
     inkscape:pagecheckerboard="0"
     inkscape:deskcolor="#d1d1d1"
     inkscape:zoom="2.3654871"
     inkscape:cx="144.79048"
     inkscape:cy="165.50503"
     inkscape:window-width="2560"
     inkscape:window-height="1420"
     inkscape:window-x="0"
     inkscape:window-y="0"
     inkscape:window-maximized="1"
     inkscape:current-layer="svg1" />
  <path
     fill-rule="evenodd"
     d="m 75.25,79.1 c -31.3,20.4 -75.3,66.7 -75.3,91.1 0,24.5 48,69.3 75.9,89.7 -23,-21.2 -75,-67.7 -75,-89.6 -0.2,-22 50.1,-72.4 74.3,-91.2 z m 97.3,5.5 c -40,10 -143.2,48.2 -163.7,73 32,-27.2 125.1,-59.5 163.7,-73.1 z m 166.5,15.8 c -117,5.9 -203.2,21.1 -231.2,27.4 -17.6,4 -63.2,13.5 -87.2,24.8 12.3,-5.7 47,-13.1 74.1,-19.2 55.4,-12.6 137.2,-24 244.3,-33 z m -287.1,49.7 a 138.1,138.1 0 0 0 -30.3,4 c -5,1.2 -9.5,3 -12.6,5 a 14,14 0 0 0 -5.8,7 c -1,2.4 -1,5 -0.3,7.4 0.7,2.5 2.4,4.9 5.2,6.9 2.9,2 7,3.7 11.7,4.9 a 99.5,99.5 0 0 0 15.8,2.2 c 5.6,0.4 11.4,0.6 16.6,0.6 5.2,0 9.8,-0.3 12.7,-0.7 2.9,-0.4 4,-1 4.8,-1.8 1,-0.8 1.6,-1.8 2,-4 a 180.6,180.6 0 0 0 0.6,-18 c -0.2,-3 -0.3,-5.6 -0.7,-7.4 -0.4,-2 -1,-3 -2.1,-3.8 -1,-0.8 -2.4,-1.3 -5.4,-1.7 -3,-0.4 -7.4,-0.6 -12.1,-0.6 z m -0.7,4 c 3.7,0 7.8,0.2 12.2,0.4 -42.3,0.4 -50,10.6 -56,11.6 1.8,-3 7.7,-12 43.8,-12 z m -42,28.9 c 20.5,24.7 123.7,63 163.7,73 -38.5,-13.6 -131.7,-46 -163.7,-73 z m 10.9,4.3 c 24,11.3 69.6,20.9 87.2,24.8 28,6.3 114,21.6 231.1,27.4 -107,-9 -188.8,-20.4 -244.2,-33 -27,-6 -61.8,-13.4 -74.1,-19.2 z m 104.5,-36.2 c 0.9,0.1 1.5,0.4 2,0.7 0.4,0.3 0.7,0.8 0.8,2.8 0.2,2 0.2,5.5 0.2,9.5 v 11.6 c 0,3.1 0,4.9 -0.3,6.1 -0.3,1.2 -0.7,2 -1.2,2.4 -0.6,0.5 -1.3,0.7 -2.3,0.7 -1,0 -2.4,0 -3.4,-0.4 -1,-0.3 -1.8,-1.3 -2.8,-2 -1,-0.8 -2.2,-2.1 -4.3,-4.3 -3.3,-3.6 -6.6,-7.6 -9.4,-10.7 -2.8,-3.1 -2.9,-1.7 -2.7,2.5 0,3.8 0.2,8.9 0,12.7 0,1.2 -0.2,1.6 -0.5,1.9 -0.3,0.3 -0.6,0.5 -1.5,0.7 h -3.3 c -1,-0.2 -1.7,-0.5 -2,-1 -0.3,-0.4 -0.6,-1 -0.7,-2.6 A 774.7,774.7 0 0 1 93.05,162 c 0,-3.7 0.2,-6.7 0.4,-8.3 0.3,-1.6 0.7,-1.9 1.1,-2 0.5,-0.3 1,-0.4 1.8,-0.5 0.9,0 2,0 3,0.4 1,0.3 1.7,0.8 2.6,1.8 1,1 2.1,2.4 3.8,4.5 l 5.8,7 a 122.2,122.2 0 0 0 6.7,7.6 c 1.5,0.8 1.3,-0.5 1.4,-2 l -0.2,-7.8 v -8.3 c 0.2,-1.8 0.4,-2.2 0.7,-2.6 0.3,-0.3 0.8,-0.6 1.6,-0.7 h 2.8 z m 37.5,0 h -1.3 c -0.7,0.2 -1.2,0.4 -1.7,0.8 -0.5,0.3 -1,0.9 -2,2.6 a 249.8,249.8 0 0 0 -9.8,17.9 87.3,87.3 0 0 0 -3.9,8.3 c -0.7,1.8 -0.5,2.5 -0.4,3 0.2,0.5 0.5,1 1.7,1.2 1.3,0.3 3.2,0.2 4.5,0.2 1.7,0 2,-0.7 2.8,-2 l 1.9,-4 c 0.5,-1.2 0.7,-1.5 1,-1.6 0.4,-0.2 1.5,-0.2 2.8,-0.2 h 8.7 c 0.9,0 2,0.1 2.4,0.4 0.4,0.2 0.6,0.6 1.1,1.6 l 1.8,3.5 c 0.4,1 1,1.5 1.4,1.9 0.5,0.3 0.7,0.5 2,0.5 l 4,-0.1 c 1.1,-0.1 1.3,-0.4 1.5,-0.8 0.2,-0.3 0.3,-0.8 -0.3,-2.6 -0.6,-1.7 -2,-4.8 -3.7,-8.3 l -5.3,-11 a 85.2,85.2 0 0 0 -4.2,-8 c -1,-1.7 -1.4,-2.2 -2,-2.5 -0.4,-0.4 -1,-0.6 -1.8,-0.7 h -1.2 z m 0,10.6 0.4,0.2 c 0.7,0.6 3.3,6.2 3.5,7.5 0.1,1.2 0,1.3 -3.5,1.2 l -3.6,-0.1 c -1,-0.3 -1.2,-0.5 -1,-1.3 0,-1.2 3,-6.5 3.8,-7.3 l 0.5,-0.2 z m 0.1,-17.1 c 0,0.2 0.2,0.5 0.8,0.6 h 4.8 l 1.5,-0.1 c 0.5,0 1,-0.2 1.6,-0.6 l 2.8,-2.1 2.5,-2.6 c 0.7,-0.6 0.7,-1 0.5,-1.2 -0.2,-0.3 -0.7,-0.6 -1.4,-0.7 l -2.2,-0.1 h -3 c -0.9,0 -1.3,0.1 -1.6,0.3 a 9,9 0 0 0 -1.7,1.4 l -3.6,3.6 c -1,1 -1,1.2 -1,1.5 z m 43.3,6.3 -2.8,0.1 c -2.3,0.3 -5.2,0.6 -5.8,3.2 -0.4,1.6 -0.2,4.2 -0.2,7.6 v 11.4 c 0,3.6 0,6.5 0.2,8.3 0.4,2.3 1.8,3.6 4.4,3.8 a 100,100 0 0 0 14.5,0 c 2.2,-0.3 3.8,-1 5,-2.1 a 11.4,11.4 0 0 0 2.4,-8.3 8.4,8.4 0 0 0 -1.5,-3.8 c -0.8,-1.1 -1.8,-1.9 -2.5,-2.4 -0.7,-0.5 -1,-0.8 -1,-1 0,-0.3 0.3,-0.5 0.8,-1 a 8.5,8.5 0 0 0 2.3,-9.1 8.5,8.5 0 0 0 -2.1,-3.6 c -1,-1 -2.4,-2 -4.2,-2.4 v -0.2 a 30,30 0 0 0 -6.2,-0.5 z m 0.9,6.2 h 1.4 c 1.6,0 2.8,0.1 3.3,0.3 a 4,4 0 0 1 3,3.7 c 0,2 -1,3.5 -2.8,3.9 a 24.5,24.5 0 0 1 -6.3,-0.2 c -0.3,-0.2 -0.4,-0.5 -0.5,-2 a 12,12 0 0 1 0.4,-5.3 c 0.3,-0.2 0.4,-0.3 1.5,-0.4 z m 2.1,14.3 h 2.4 c 1.4,0.1 2.3,0.3 3,0.8 a 4,4 0 0 1 2,1.9 c 0.3,0.8 0.3,1.5 0,2.4 a 4,4 0 0 1 -1.8,2.1 c -0.7,0.5 -1.7,0.7 -3.1,0.8 h -4.4 c -1,-0.1 -1.3,-0.2 -1.5,-0.5 -0.3,-0.2 -0.4,-0.6 -0.5,-1.2 v -4.3 c 0,-0.6 0.1,-1 0.3,-1.3 0.1,-0.3 0.4,-0.4 1.5,-0.5 z m 52.7,-19.1 a 15,15 0 0 1 5.9,4.8 c 1.6,2.2 2.8,4.9 3.3,8 0.5,3 0.3,6.4 -0.4,9.2 -0.8,2.8 -2.1,5 -3.9,6.8 -1.8,1.8 -4,3 -7,3.7 -2.8,0.6 -6.6,0.6 -9.4,-0.2 a 13,13 0 0 1 -6.4,-4 15.1,15.1 0 0 1 -3.5,-6.5 24,24 0 0 1 -0.5,-8.9 c 0.4,-3 1.3,-5.7 2.7,-7.8 a 13,13 0 0 1 5.4,-4.7 c 2.1,-1 4.6,-1.5 7,-1.5 2.4,-0.1 4.7,0.2 6.8,1.1 z m -2.9,6.7 c 1.2,0.5 2.2,1.4 3.1,2.7 0.9,1.2 1.5,2.7 1.8,4.5 0.3,1.7 0.1,3.6 -0.3,5.1 a 8.6,8.6 0 0 1 -2,3.9 c -1,1 -2,1.7 -3.6,2 -1.6,0.4 -3.6,0.4 -5,0 a 7,7 0 0 1 -3.5,-2.4 c -0.8,-1 -1.4,-2 -1.8,-3.6 -0.4,-1.5 -0.5,-3.3 -0.3,-5 0.2,-1.6 0.7,-3.2 1.5,-4.3 a 7.2,7.2 0 0 1 2.8,-2.7 9,9 0 0 1 3.7,-0.8 c 1.3,0 2.5,0 3.6,0.6 z m 52.4,-7.9 c 1.3,0.1 1.7,0.5 2,0.9 0.3,0.4 0.6,1 0.8,2.8 l 0.2,8.5 v 8.7 a 22,22 0 0 1 -1.2,6.3 c -0.8,1.8 -2,3.4 -3.4,4.6 a 9.9,9.9 0 0 1 -4.4,2.1 18,18 0 0 1 -5.3,0.5 c -2,0 -3.9,-0.3 -5.8,-1.2 -1.8,-0.9 -3.6,-2.3 -4.6,-3.9 a 9,9 0 0 1 -1.4,-4.3 c 0,-1 0.2,-1.4 0.4,-1.7 0.3,-0.4 0.6,-0.6 1.5,-0.8 h 3.3 c 1,0.1 1.3,0.3 1.7,0.6 l 0.8,1.2 c 1,1.6 2.4,2.1 4,2.5 2.3,0 4.4,-0.4 5.7,-2.2 0.6,-1.2 1.2,-2 1.3,-4.3 v -8.3 c 0,-2.9 -0.3,-4 -2.3,-4.3 -2,-0.3 -3.1,-0.1 -5.7,0 a 83,83 0 0 1 -7.5,-0.2 c -1.8,0 -2.3,-0.3 -2.7,-0.7 -0.3,-0.4 -0.5,-0.9 -0.6,-1.8 v -2.9 c 0.1,-0.8 0.3,-1.3 0.6,-1.6 0.3,-0.3 0.7,-0.5 2.2,-0.6 1.4,-0.2 4,-0.2 6.5,-0.2 h 7.6 l 6.3,0.1 z"
     id="path1" />
</svg>
