<svg xmlns="http://www.w3.org/2000/svg" viewBox="0 0 215 215"><defs><style>.cls-1{fill:#fff;}.cls-2{fill:none;stroke:#6694fb;stroke-linecap:round;stroke-linejoin:round;stroke-width:3px;}.cls-3{fill:#ffe35e;}.cls-4{fill:#6694fb;}</style></defs><title>ikony_aktivity_novybarvy</title><g id="Vrstva_14" data-name="Vrstva 14"><circle class="cls-1" cx="107.5" cy="107.5" r="107.5"/></g><g id="Vrstva_7" data-name="Vrstva 7"><polyline class="cls-2" points="159.4 23.78 135.37 37.68 134.11 77.82 175.33 101.41 175.58 141.46 135.37 164.21 98.34 144.19 67.77 161.13 30.45 125.02 66.6 84.54 98.34 96.36 134.11 77.82"/><line class="cls-2" x1="135.37" y1="37.68" x2="110.86" y2="23.78"/><line class="cls-2" x1="175.58" y1="141.46" x2="196" y2="153.71"/><line class="cls-2" x1="67.77" y1="161.13" x2="67.77" y2="182.56"/><line class="cls-2" x1="30.45" y1="125.02" x2="8.41" y2="125.02"/><line class="cls-2" x1="98.34" y1="144.19" x2="98.34" y2="97.17"/><path class="cls-1" d="M66.6,90.46a5.92,5.92,0,1,1,5.92-5.92A5.92,5.92,0,0,1,66.6,90.46Z"/><path class="cls-3" d="M66.6,80.12a4.42,4.42,0,1,1-4.42,4.42,4.42,4.42,0,0,1,4.42-4.42m0-3A7.42,7.42,0,1,0,74,84.54a7.42,7.42,0,0,0-7.42-7.42Z"/><path class="cls-1" d="M98.34,102.28a5.92,5.92,0,1,1,5.92-5.92A5.92,5.92,0,0,1,98.34,102.28Z"/><path class="cls-4" d="M98.34,91.94a4.42,4.42,0,1,1-4.42,4.42,4.43,4.43,0,0,1,4.42-4.42m0-3a7.42,7.42,0,1,0,7.42,7.42,7.42,7.42,0,0,0-7.42-7.42Z"/><path class="cls-1" d="M30.45,130.94A5.92,5.92,0,1,1,36.37,125,5.92,5.92,0,0,1,30.45,130.94Z"/><path class="cls-4" d="M30.45,120.6A4.42,4.42,0,1,1,26,125a4.43,4.43,0,0,1,4.42-4.42m0-3A7.42,7.42,0,1,0,37.87,125a7.42,7.42,0,0,0-7.42-7.42Z"/><path class="cls-1" d="M96.72,149.36a5.93,5.93,0,1,1,5.92-5.92A5.93,5.93,0,0,1,96.72,149.36Z"/><path class="cls-4" d="M96.72,139a4.43,4.43,0,1,1-4.42,4.43A4.43,4.43,0,0,1,96.72,139m0-3a7.43,7.43,0,1,0,7.42,7.43A7.43,7.43,0,0,0,96.72,136Z"/><path class="cls-1" d="M175.58,147.38a5.92,5.92,0,1,1,5.92-5.92A5.93,5.93,0,0,1,175.58,147.38Z"/><path class="cls-4" d="M175.58,137a4.42,4.42,0,1,1-4.42,4.42,4.42,4.42,0,0,1,4.42-4.42m0-3a7.42,7.42,0,1,0,7.42,7.42,7.42,7.42,0,0,0-7.42-7.42Z"/><path class="cls-1" d="M134.11,83.74A5.92,5.92,0,1,1,140,77.82,5.93,5.93,0,0,1,134.11,83.74Z"/><path class="cls-4" d="M134.11,73.4a4.42,4.42,0,1,1-4.42,4.42,4.42,4.42,0,0,1,4.42-4.42m0-3a7.42,7.42,0,1,0,7.42,7.42,7.42,7.42,0,0,0-7.42-7.42Z"/><path class="cls-1" d="M67.77,167.05a5.92,5.92,0,1,1,5.92-5.92A5.93,5.93,0,0,1,67.77,167.05Z"/><path class="cls-3" d="M67.77,156.71a4.42,4.42,0,1,1-4.42,4.42,4.42,4.42,0,0,1,4.42-4.42m0-3a7.42,7.42,0,1,0,7.42,7.42,7.42,7.42,0,0,0-7.42-7.42Z"/><path class="cls-1" d="M135.37,170.13a5.92,5.92,0,1,1,5.92-5.92A5.92,5.92,0,0,1,135.37,170.13Z"/><path class="cls-3" d="M135.37,159.79a4.42,4.42,0,1,1-4.42,4.42,4.42,4.42,0,0,1,4.42-4.42m0-3a7.42,7.42,0,1,0,7.42,7.42,7.42,7.42,0,0,0-7.42-7.42Z"/><path class="cls-1" d="M175.33,107.33a5.92,5.92,0,1,1,5.92-5.92A5.93,5.93,0,0,1,175.33,107.33Z"/><path class="cls-3" d="M175.33,97a4.42,4.42,0,1,1-4.42,4.42A4.42,4.42,0,0,1,175.33,97m0-3a7.42,7.42,0,1,0,7.42,7.42A7.42,7.42,0,0,0,175.33,94Z"/><path class="cls-1" d="M135.37,43.6a5.92,5.92,0,1,1,5.92-5.92A5.93,5.93,0,0,1,135.37,43.6Z"/><path class="cls-3" d="M135.37,33.26A4.42,4.42,0,1,1,131,37.68a4.42,4.42,0,0,1,4.42-4.42m0-3a7.42,7.42,0,1,0,7.42,7.42,7.42,7.42,0,0,0-7.42-7.42Z"/></g></svg>