<?xml version="1.0" encoding="UTF-8" standalone="no"?>
<!-- Generator: Adobe Illustrator 16.0.0, SVG Export Plug-In . SVG Version: 6.00 Build 0)  -->

<svg
   xmlns:dc="http://purl.org/dc/elements/1.1/"
   xmlns:cc="http://creativecommons.org/ns#"
   xmlns:rdf="http://www.w3.org/1999/02/22-rdf-syntax-ns#"
   xmlns:svg="http://www.w3.org/2000/svg"
   xmlns="http://www.w3.org/2000/svg"
   xmlns:sodipodi="http://sodipodi.sourceforge.net/DTD/sodipodi-0.dtd"
   xmlns:inkscape="http://www.inkscape.org/namespaces/inkscape"
   version="1.1"
   id="Layer_1"
   x="0px"
   y="0px"
   width="947.87402"
   height="947.87402"
   viewBox="0 0 947.87402 947.87402"
   enable-background="new 0 0 1000 1000"
   xml:space="preserve"
   sodipodi:docname="poznejfi.svg"
   inkscape:version="0.92.1 r15371"><metadata
     id="metadata35"><rdf:RDF><cc:Work
         rdf:about=""><dc:format>image/svg+xml</dc:format><dc:type
           rdf:resource="http://purl.org/dc/dcmitype/StillImage" /><dc:title></dc:title></cc:Work></rdf:RDF></metadata><defs
     id="defs33" /><sodipodi:namedview
     pagecolor="#ffffff"
     bordercolor="#666666"
     borderopacity="1"
     objecttolerance="10"
     gridtolerance="10"
     guidetolerance="10"
     inkscape:pageopacity="0"
     inkscape:pageshadow="2"
     inkscape:window-width="1920"
     inkscape:window-height="1062"
     id="namedview31"
     showgrid="false"
     fit-margin-top="0"
     fit-margin-left="0"
     fit-margin-right="0"
     fit-margin-bottom="0"
     inkscape:zoom="0.6675088"
     inkscape:cx="399.78447"
     inkscape:cy="473.93701"
     inkscape:window-x="0"
     inkscape:window-y="0"
     inkscape:window-maximized="1"
     inkscape:current-layer="Layer_1" /><circle
     cx="473.93701"
     cy="473.93701"
     r="473.93701"
     id="circle2"
     style="fill:#faac40" /><circle
     cx="473.93701"
     cy="473.93701"
     r="418.439"
     id="circle4"
     style="fill:#f7ddbc" /><polygon
     points="655.715,344.466 626.239,394.047 277.855,397.682 500.597,785.695 432.05,785.695 173.808,336.516 203.175,290 641.388,290 "
     id="polygon6"
     style="fill:#faac40"
     transform="translate(-26.062988,-26.062988)" /><polygon
     points="655.715,344.466 626.239,394.047 616.907,336.516 641.388,290 "
     id="polygon8"
     style="fill:#60411a"
     transform="translate(-26.062988,-26.062988)" /><polygon
     points="570.396,474.81 567.951,473.61 542.228,518.88 544.669,520.128 "
     id="polygon10"
     transform="translate(-26.062988,-26.062988)" /><polygon
     points="440.625,796.713 509.176,799.152 801.715,290 670.752,290 640.142,342.646 701.359,342.646 "
     id="polygon12"
     style="fill:#faac40"
     transform="translate(-26.062988,-26.062988)" /><polygon
     points="641.388,290 203.175,290 173.808,336.516 616.907,336.516 "
     id="polygon14"
     style="fill:#ad732c"
     transform="translate(-26.062988,-26.062988)" /><polygon
     points="826.193,340.15 801.715,290 509.176,799.152 534.899,840.784 "
     id="polygon16"
     style="fill:#60411a"
     transform="translate(-26.062988,-26.062988)" /><polygon
     points="672.328,393.202 701.359,342.646 640.142,342.646 646.333,393.202 "
     id="polygon18"
     style="fill:#ad732c"
     transform="translate(-26.062988,-26.062988)" /><polygon
     points="578.971,516.435 553.246,566.64 544.669,520.128 542.228,518.88 381.898,518.88 408.82,473.61 567.951,473.61 570.396,474.81 "
     id="polygon20"
     style="fill:#ad732c"
     transform="translate(-26.062988,-26.062988)" /><polygon
     points="534.899,840.784 462.859,837.505 440.625,796.713 509.176,799.152 "
     id="polygon22"
     style="fill:#ad732c"
     transform="translate(-26.062988,-26.062988)" /><polygon
     points="578.971,516.435 553.246,566.64 544.669,520.128 570.396,474.81 "
     id="polygon24"
     style="fill:#60411a"
     transform="translate(-26.062988,-26.062988)" /><polygon
     points="277.855,397.682 335.577,398.191 526.323,737.986 500.597,785.695 "
     id="polygon26"
     style="fill:#ad732c"
     transform="translate(-26.062988,-26.062988)" /><polygon
     points="544.669,520.128 553.246,566.64 392.952,566.64 382.595,523.06 381.898,518.88 542.228,518.88 "
     id="polygon28"
     style="fill:#faac40"
     transform="translate(-26.062988,-26.062988)" /></svg>