<?xml version="1.0" encoding="UTF-8" standalone="no"?>
<!-- Generator: Adobe Illustrator 16.0.0, SVG Export Plug-In . SVG Version: 6.00 Build 0)  -->

<svg
   xmlns:dc="http://purl.org/dc/elements/1.1/"
   xmlns:cc="http://creativecommons.org/ns#"
   xmlns:rdf="http://www.w3.org/1999/02/22-rdf-syntax-ns#"
   xmlns:svg="http://www.w3.org/2000/svg"
   xmlns="http://www.w3.org/2000/svg"
   xmlns:sodipodi="http://sodipodi.sourceforge.net/DTD/sodipodi-0.dtd"
   xmlns:inkscape="http://www.inkscape.org/namespaces/inkscape"
   version="1.1"
   id="Layer_1"
   x="0px"
   y="0px"
   width="100mm"
   height="100mm"
   viewBox="0 0 354.33071 354.33071"
   enable-background="new 0 0 1000 1000"
   xml:space="preserve"
   sodipodi:docname="poznejfi_logo.svg"
   inkscape:version="0.91 r13725"><metadata
     id="metadata35"><rdf:RDF><cc:Work
         rdf:about=""><dc:format>image/svg+xml</dc:format><dc:type
           rdf:resource="http://purl.org/dc/dcmitype/StillImage" /><dc:title /></cc:Work></rdf:RDF></metadata><defs
     id="defs33" /><sodipodi:namedview
     pagecolor="#ffffff"
     bordercolor="#666666"
     borderopacity="1"
     objecttolerance="10"
     gridtolerance="10"
     guidetolerance="10"
     inkscape:pageopacity="0"
     inkscape:pageshadow="2"
     inkscape:window-width="1680"
     inkscape:window-height="987"
     id="namedview31"
     showgrid="false"
     fit-margin-top="0"
     fit-margin-left="0"
     fit-margin-right="0"
     fit-margin-bottom="0"
     inkscape:zoom="1.3350176"
     inkscape:cx="83.277958"
     inkscape:cy="166.72028"
     inkscape:window-x="-8"
     inkscape:window-y="-8"
     inkscape:window-maximized="1"
     inkscape:current-layer="Layer_1"
     units="mm" /><circle
     cx="177.16536"
     cy="177.16536"
     r="177.16536"
     id="circle4"
     style="fill:#f7ddbc" /><g
     id="g4159"
     transform="matrix(0.89721375,0,0,0.89721375,18.210184,21.055974)"><polygon
       transform="matrix(0.4233959,0,0,0.4233959,-34.532595,-34.532604)"
       style="fill:#faac40"
       id="polygon6"
       points="655.715,344.466 626.239,394.047 277.855,397.682 500.597,785.695 432.05,785.695 173.808,336.516 203.175,290 641.388,290 " /><polygon
       transform="matrix(0.4233959,0,0,0.4233959,-34.532595,-34.532604)"
       style="fill:#60411a"
       id="polygon8"
       points="655.715,344.466 626.239,394.047 616.907,336.516 641.388,290 " /><polygon
       transform="matrix(0.4233959,0,0,0.4233959,-34.532595,-34.532604)"
       id="polygon10"
       points="570.396,474.81 567.951,473.61 542.228,518.88 544.669,520.128 " /><polygon
       transform="matrix(0.4233959,0,0,0.4233959,-34.532595,-34.532604)"
       style="fill:#faac40"
       id="polygon12"
       points="640.142,342.646 701.359,342.646 440.625,796.713 509.176,799.152 801.715,290 670.752,290 " /><polygon
       transform="matrix(0.4233959,0,0,0.4233959,-34.532595,-34.532604)"
       style="fill:#ad732c"
       id="polygon14"
       points="641.388,290 203.175,290 173.808,336.516 616.907,336.516 " /><polygon
       transform="matrix(0.4233959,0,0,0.4233959,-34.532595,-34.532604)"
       style="fill:#60411a"
       id="polygon16"
       points="826.193,340.15 801.715,290 509.176,799.152 534.899,840.784 " /><polygon
       transform="matrix(0.4233959,0,0,0.4233959,-34.532595,-34.532604)"
       style="fill:#ad732c"
       id="polygon18"
       points="672.328,393.202 701.359,342.646 640.142,342.646 646.333,393.202 " /><polygon
       transform="matrix(0.4233959,0,0,0.4233959,-34.532595,-34.532604)"
       style="fill:#ad732c"
       id="polygon20"
       points="578.971,516.435 553.246,566.64 544.669,520.128 542.228,518.88 381.898,518.88 408.82,473.61 567.951,473.61 570.396,474.81 " /><polygon
       transform="matrix(0.4233959,0,0,0.4233959,-34.532595,-34.532604)"
       style="fill:#ad732c"
       id="polygon22"
       points="534.899,840.784 462.859,837.505 440.625,796.713 509.176,799.152 " /><polygon
       transform="matrix(0.4233959,0,0,0.4233959,-34.532595,-34.532604)"
       style="fill:#60411a"
       id="polygon24"
       points="578.971,516.435 553.246,566.64 544.669,520.128 570.396,474.81 " /><polygon
       transform="matrix(0.4233959,0,0,0.4233959,-34.532595,-34.532604)"
       style="fill:#ad732c"
       id="polygon26"
       points="277.855,397.682 335.577,398.191 526.323,737.986 500.597,785.695 " /><polygon
       transform="matrix(0.4233959,0,0,0.4233959,-34.532595,-34.532604)"
       style="fill:#faac40"
       id="polygon28"
       points="381.898,518.88 542.228,518.88 544.669,520.128 553.246,566.64 392.952,566.64 382.595,523.06 " /></g></svg>