<svg xmlns="http://www.w3.org/2000/svg" viewBox="0 0 214.56 214.56"><defs><style>.cls-1{fill:#fff;}.cls-2{fill:#02a7fc;}.cls-3{fill:none;stroke:#02a7fc;stroke-linecap:round;stroke-linejoin:round;stroke-width:3px;}.cls-4{fill:#ffce40;}</style></defs><title>Kreslicí plátno 12 kopie 2</title><g id="Vrstva_14" data-name="Vrstva 14"><circle class="cls-1" cx="107.5" cy="107.5" r="107.5"/></g><g id="Vrstva_15" data-name="Vrstva 15"><path class="cls-2" d="M155.57,53.18a17.17,17.17,0,0,1,17.15,17.15v84.23a.51.51,0,0,1-.5.5H42.34a.5.5,0,0,1-.5-.5V70.33A17.17,17.17,0,0,1,59,53.18h96.59m0-3H59A20.15,20.15,0,0,0,38.84,70.33v84.23a3.5,3.5,0,0,0,3.5,3.5H172.22a3.5,3.5,0,0,0,3.5-3.5V70.33a20.15,20.15,0,0,0-20.15-20.15Z"/><path class="cls-2" d="M156.46,45.43a23.68,23.68,0,0,1,23.65,23.65v83a7,7,0,0,1-7,7H41.45a7,7,0,0,1-7-7v-83A23.68,23.68,0,0,1,58.1,45.43h98.36m0-3H58.1A26.66,26.66,0,0,0,31.44,69.08v83a10,10,0,0,0,10,10H173.1a10,10,0,0,0,10-10v-83a26.65,26.65,0,0,0-26.65-26.65Z"/><rect class="cls-1" x="26.61" y="151.79" width="161.33" height="11.97"/><path class="cls-2" d="M186.44,153.29v9H28.11v-9H186.44m3-3H25.11v15H189.44v-15Z"/><line class="cls-3" x1="89" y1="120.39" x2="89" y2="52.06"/><line class="cls-3" x1="104" y1="120.39" x2="104" y2="52.06"/><line class="cls-3" x1="119" y1="120.39" x2="119" y2="52.06"/><line class="cls-3" x1="134" y1="119.77" x2="134" y2="52.61"/><line class="cls-3" x1="149" y1="119.77" x2="149" y2="52.06"/><line class="cls-3" x1="55.27" y1="115.9" x2="75.53" y2="52.06"/><path class="cls-1" d="M89,123.42a5.92,5.92,0,1,1,5.92-5.92A5.92,5.92,0,0,1,89,123.42Z"/><path class="cls-4" d="M89,113.08a4.42,4.42,0,1,1-4.42,4.42A4.42,4.42,0,0,1,89,113.08m0-3a7.42,7.42,0,1,0,7.42,7.42A7.42,7.42,0,0,0,89,110.08Z"/><path class="cls-1" d="M104,123.42a5.92,5.92,0,1,1,5.92-5.92A5.92,5.92,0,0,1,104,123.42Z"/><path class="cls-4" d="M104,113.08a4.42,4.42,0,1,1-4.42,4.42,4.42,4.42,0,0,1,4.42-4.42m0-3a7.42,7.42,0,1,0,7.42,7.42,7.42,7.42,0,0,0-7.42-7.42Z"/><path class="cls-1" d="M119,123.42a5.92,5.92,0,1,1,5.92-5.92A5.92,5.92,0,0,1,119,123.42Z"/><path class="cls-4" d="M119,113.08a4.42,4.42,0,1,1-4.42,4.42,4.42,4.42,0,0,1,4.42-4.42m0-3a7.42,7.42,0,1,0,7.42,7.42,7.42,7.42,0,0,0-7.42-7.42Z"/><path class="cls-1" d="M134,123.42a5.92,5.92,0,1,1,5.92-5.92A5.92,5.92,0,0,1,134,123.42Z"/><path class="cls-4" d="M134,113.08a4.42,4.42,0,1,1-4.42,4.42,4.42,4.42,0,0,1,4.42-4.42m0-3a7.42,7.42,0,1,0,7.42,7.42,7.42,7.42,0,0,0-7.42-7.42Z"/><path class="cls-1" d="M149,123.42a5.92,5.92,0,1,1,5.92-5.92A5.92,5.92,0,0,1,149,123.42Z"/><path class="cls-4" d="M149,113.08a4.42,4.42,0,1,1-4.42,4.42,4.42,4.42,0,0,1,4.42-4.42m0-3a7.42,7.42,0,1,0,7.42,7.42,7.42,7.42,0,0,0-7.42-7.42Z"/><path class="cls-1" d="M55.27,118.63a5.93,5.93,0,1,1,5.93-5.93A5.93,5.93,0,0,1,55.27,118.63Z"/><path class="cls-4" d="M55.27,108.28a4.42,4.42,0,1,1-4.42,4.42,4.44,4.44,0,0,1,4.42-4.42m0-3a7.42,7.42,0,1,0,7.43,7.42,7.43,7.43,0,0,0-7.43-7.42Z"/></g></svg>