<svg xmlns="http://www.w3.org/2000/svg" viewBox="0 0 215 215"><defs><style>.cls-1{fill:#fff;}.cls-2{fill:none;stroke:#6694fb;stroke-linecap:round;stroke-linejoin:round;stroke-width:3px;}</style></defs><title>ikony_aktivity_novybarvy</title><g id="Vrstva_14" data-name="Vrstva 14"><circle class="cls-1" cx="107.5" cy="107.5" r="107.5"/></g><g id="Vrstva_3" data-name="Vrstva 3"><polyline class="cls-2" points="90.6 134.82 98.34 131.66 107.87 61.78"/><polygon class="cls-2" points="71.33 169.25 29.01 126.44 20.48 100.39 20.48 77.97 45.91 75.12 64.39 83.65 90.6 113.59 90.6 134.82 94.39 145.56 78.91 153.71 71.33 169.25"/><polyline class="cls-2" points="90.6 113.59 99.44 68.17 150.62 29.32 153.14 38.17 143.98 43.87 118.4 129.14 147.77 108.29 161.35 43.87 150.62 29.32"/><polyline class="cls-2" points="20.48 100.39 29.48 95.97 38.48 86.44 20.48 77.97 29.48 95.97 52.07 122.19 84.39 150.82"/><polyline class="cls-2" points="38.48 86.44 44.04 77.97 45.91 75.12"/><polyline class="cls-2" points="44.04 77.97 53.65 86.44 90.6 126.08"/><polyline class="cls-2" points="102.29 157.25 115.24 148.4 118.4 129.14 146.51 108.29 175.25 106.42 188.34 127.2 168.94 131.66 153.14 155.67 162.3 160.25 167.04 162.62 183.15 158.2 192.94 132.32 188.34 127.2"/><polyline class="cls-2" points="71.33 169.25 71.33 178.73 74.81 183.78 82.07 183.85 90.6 185.68"/><line class="cls-2" x1="153.14" y1="38.17" x2="159.42" y2="53.07"/><polyline class="cls-2" points="175.25 106.42 194.52 117.77 192.94 132.32"/><polyline class="cls-2" points="153.14 86.15 169.57 82.39 153.69 106.71 169.57 82.39 172.09 93.13 168.3 106"/><polygon class="cls-2" points="149.67 134.82 128.82 173.04 118.4 185.68 120.61 169.25 131.66 155.04 141.14 134.82 149.67 134.82"/><polyline class="cls-2" points="149.67 134.82 155.51 138.3 168.94 131.66"/><polyline class="cls-2" points="167.04 162.62 166.72 169.25 143.67 180.94 134.03 185.68 118.4 185.68 107.97 185.68 90.6 185.68"/><polyline class="cls-2" points="94.39 145.56 102.29 157.25 100.08 170.83 101.03 182.2 102.29 185.68"/></g></svg>