<?xml version="1.0" encoding="UTF-8" standalone="no"?>
<!-- Created with Inkscape (http://www.inkscape.org/) -->

<svg
   xmlns:dc="http://purl.org/dc/elements/1.1/"
   xmlns:cc="http://creativecommons.org/ns#"
   xmlns:rdf="http://www.w3.org/1999/02/22-rdf-syntax-ns#"
   xmlns:svg="http://www.w3.org/2000/svg"
   xmlns="http://www.w3.org/2000/svg"
   xmlns:xlink="http://www.w3.org/1999/xlink"
   xmlns:sodipodi="http://sodipodi.sourceforge.net/DTD/sodipodi-0.dtd"
   xmlns:inkscape="http://www.inkscape.org/namespaces/inkscape"
   version="1.0"
   width="100mm"
   height="100mm"
   id="svg2"
   sodipodi:version="0.32"
   inkscape:version="0.91 r13725"
   sodipodi:docname="python-ss_logo.svg">
  <metadata
     id="metadata2193">
    <rdf:RDF>
      <cc:Work
         rdf:about="">
        <dc:format>image/svg+xml</dc:format>
        <dc:type
           rdf:resource="http://purl.org/dc/dcmitype/StillImage" />
        <dc:title></dc:title>
      </cc:Work>
    </rdf:RDF>
  </metadata>
  <sodipodi:namedview
     inkscape:window-height="987"
     inkscape:window-width="1680"
     inkscape:pageshadow="2"
     inkscape:pageopacity="0.0"
     borderopacity="1.0"
     bordercolor="#666666"
     pagecolor="#ffffff"
     id="base"
     inkscape:zoom="0.71700445"
     inkscape:cx="71.661782"
     inkscape:cy="22.451778"
     inkscape:window-x="-8"
     inkscape:window-y="-8"
     inkscape:current-layer="svg2"
     showgrid="false"
     units="mm"
     inkscape:window-maximized="1" />
  <defs
     id="defs4">
    <linearGradient
       id="linearGradient2795">
      <stop
         style="stop-color:#b8b8b8;stop-opacity:0.49803922"
         offset="0"
         id="stop2797" />
      <stop
         style="stop-color:#7f7f7f;stop-opacity:0"
         offset="1"
         id="stop2799" />
    </linearGradient>
    <linearGradient
       id="linearGradient2787">
      <stop
         style="stop-color:#7f7f7f;stop-opacity:0.5"
         offset="0"
         id="stop2789" />
      <stop
         style="stop-color:#7f7f7f;stop-opacity:0"
         offset="1"
         id="stop2791" />
    </linearGradient>
    <linearGradient
       id="linearGradient3676">
      <stop
         style="stop-color:#b2b2b2;stop-opacity:0.5"
         offset="0"
         id="stop3678" />
      <stop
         style="stop-color:#b3b3b3;stop-opacity:0"
         offset="1"
         id="stop3680" />
    </linearGradient>
    <linearGradient
       id="linearGradient3236">
      <stop
         style="stop-color:#f4f4f4;stop-opacity:1"
         offset="0"
         id="stop3244" />
      <stop
         style="stop-color:#ffffff;stop-opacity:1"
         offset="1"
         id="stop3240" />
    </linearGradient>
    <linearGradient
       id="linearGradient4671">
      <stop
         style="stop-color:#ffd43b;stop-opacity:1"
         offset="0"
         id="stop4673" />
      <stop
         style="stop-color:#ffe873;stop-opacity:1"
         offset="1"
         id="stop4675" />
    </linearGradient>
    <linearGradient
       id="linearGradient4689">
      <stop
         style="stop-color:#5a9fd4;stop-opacity:1"
         offset="0"
         id="stop4691" />
      <stop
         style="stop-color:#306998;stop-opacity:1"
         offset="1"
         id="stop4693" />
    </linearGradient>
    <linearGradient
       x1="224.23996"
       y1="144.75717"
       x2="-65.308502"
       y2="144.75717"
       id="linearGradient2987"
       xlink:href="#linearGradient4671"
       gradientUnits="userSpaceOnUse"
       gradientTransform="translate(100.2702,99.61116)" />
    <linearGradient
       x1="172.94208"
       y1="77.475983"
       x2="26.670298"
       y2="76.313133"
       id="linearGradient2990"
       xlink:href="#linearGradient4689"
       gradientUnits="userSpaceOnUse"
       gradientTransform="translate(100.2702,99.61116)" />
    <linearGradient
       x1="172.94208"
       y1="77.475983"
       x2="26.670298"
       y2="76.313133"
       id="linearGradient2587"
       xlink:href="#linearGradient4689"
       gradientUnits="userSpaceOnUse"
       gradientTransform="translate(100.2702,99.61116)" />
    <linearGradient
       x1="224.23996"
       y1="144.75717"
       x2="-65.308502"
       y2="144.75717"
       id="linearGradient2589"
       xlink:href="#linearGradient4671"
       gradientUnits="userSpaceOnUse"
       gradientTransform="translate(100.2702,99.61116)" />
    <linearGradient
       x1="172.94208"
       y1="77.475983"
       x2="26.670298"
       y2="76.313133"
       id="linearGradient2248"
       xlink:href="#linearGradient4689"
       gradientUnits="userSpaceOnUse"
       gradientTransform="translate(100.2702,99.61116)" />
    <linearGradient
       x1="224.23996"
       y1="144.75717"
       x2="-65.308502"
       y2="144.75717"
       id="linearGradient2250"
       xlink:href="#linearGradient4671"
       gradientUnits="userSpaceOnUse"
       gradientTransform="translate(100.2702,99.61116)" />
    <linearGradient
       x1="224.23996"
       y1="144.75717"
       x2="-65.308502"
       y2="144.75717"
       id="linearGradient2255"
       xlink:href="#linearGradient4671"
       gradientUnits="userSpaceOnUse"
       gradientTransform="matrix(0.562541,0,0,0.567972,-11.5974,-7.60954)" />
    <linearGradient
       x1="172.94208"
       y1="76.176224"
       x2="26.670298"
       y2="76.313133"
       id="linearGradient2258"
       xlink:href="#linearGradient4689"
       gradientUnits="userSpaceOnUse"
       gradientTransform="matrix(0.562541,0,0,0.567972,-11.5974,-7.60954)" />
    <radialGradient
       cx="61.518883"
       cy="132.28575"
       r="29.036913"
       fx="61.518883"
       fy="132.28575"
       id="radialGradient2801"
       xlink:href="#linearGradient2795"
       gradientUnits="userSpaceOnUse"
       gradientTransform="matrix(1,0,0,0.177966,0,108.7434)" />
    <linearGradient
       x1="150.96111"
       y1="192.35176"
       x2="112.03144"
       y2="137.27299"
       id="linearGradient1475"
       xlink:href="#linearGradient4671"
       gradientUnits="userSpaceOnUse"
       gradientTransform="matrix(0.562541,0,0,0.567972,-9.399749,205.25039)" />
    <linearGradient
       x1="26.648937"
       y1="20.603781"
       x2="135.66525"
       y2="114.39767"
       id="linearGradient1478"
       xlink:href="#linearGradient4689"
       gradientUnits="userSpaceOnUse"
       gradientTransform="matrix(0.562541,0,0,0.567972,-9.399749,205.25039)" />
    <radialGradient
       cx="61.518883"
       cy="132.28575"
       r="29.036913"
       fx="61.518883"
       fy="132.28575"
       id="radialGradient1480"
       xlink:href="#linearGradient2795"
       gradientUnits="userSpaceOnUse"
       gradientTransform="matrix(1.7490565e-8,-0.23994696,1.054668,3.7915457e-7,-78.109429,148.85906)" />
  </defs>
  <g
     id="g4183"
     transform="matrix(2.9823549,0,0,2.9823549,-5.271398,-637.45674)">
    <path
       id="path1948"
       style="fill:url(#linearGradient1478);fill-opacity:1"
       d="m 60.510156,216.95368 c -4.583653,0.0213 -8.960939,0.41222 -12.8125,1.09375 -11.346216,2.0045 -13.406249,6.2001 -13.40625,13.9375 l 0,10.21875 26.8125,0 0,3.40625 -26.8125,0 -10.0625,0 c -7.792459,0 -14.6157592,4.68371 -16.7500002,13.59375 -2.46182,10.21296 -2.5710151,16.58602 0,27.25 1.9059283,7.93785 6.4575432,13.59375 14.2500002,13.59375 l 9.21875,0 0,-12.25 c 0,-8.8499 7.657144,-16.65625 16.75,-16.65625 l 26.78125,0 c 7.454951,0 13.406253,-6.13817 13.40625,-13.625 l 0,-25.53125 c 0,-7.26634 -6.12998,-12.72478 -13.40625,-13.9375 -4.605987,-0.76673 -9.385097,-1.11505 -13.96875,-1.09375 z m -14.5,8.21875 c 2.769547,0 5.03125,2.29864 5.03125,5.125 -2e-6,2.81633 -2.261703,5.09375 -5.03125,5.09375 -2.779476,0 -5.03125,-2.27742 -5.03125,-5.09375 -1e-6,-2.82636 2.251774,-5.125 5.03125,-5.125 z"
       inkscape:connector-curvature="0" />
    <path
       id="path1950"
       style="fill:url(#linearGradient1475);fill-opacity:1"
       d="m 91.228906,245.60993 0,11.90625 c 0,9.23075 -7.825895,17 -16.75,17 l -26.78125,0 c -7.335833,0 -13.406249,6.27848 -13.40625,13.625 l 0,25.53125 c 0,7.26634 6.318588,11.54032 13.40625,13.625 8.487331,2.49561 16.626237,2.94663 26.78125,0 6.750155,-1.95439 13.406253,-5.88761 13.40625,-13.625 l 0,-10.21875 -26.78125,0 0,-3.40625 26.78125,0 13.406254,0 c 7.79246,0 10.69625,-5.43541 13.40624,-13.59375 2.79933,-8.39889 2.68022,-16.47578 0,-27.25 -1.92578,-7.75744 -5.60387,-13.59375 -13.40624,-13.59375 l -10.062504,0 z m -15.0625,64.65625 c 2.779478,0 5.03125,2.27742 5.03125,5.09375 -2e-6,2.82635 -2.251775,5.125 -5.03125,5.125 -2.76955,0 -5.03125,-2.29865 -5.03125,-5.125 2e-6,-2.81633 2.261697,-5.09375 5.03125,-5.09375 z"
       inkscape:connector-curvature="0" />
  </g>
</svg>
