<svg xmlns="http://www.w3.org/2000/svg" viewBox="0 0 214.56 214.56"><defs><style>.cls-1,.cls-3{fill:#fff;}.cls-2{fill:#02a7fc;}.cls-3{stroke:#02a7fc;stroke-linecap:round;stroke-linejoin:round;stroke-width:3px;}</style></defs><title>Kreslicí plátno 12 kopie 6</title><g id="Vrstva_14" data-name="Vrstva 14"><circle class="cls-1" cx="107.5" cy="107.5" r="107.5"/></g><g id="Vrstva_18" data-name="Vrstva 18"><path class="cls-2" d="M107.79,77.28l12.13,81.46a3.2,3.2,0,0,0,.1.42,21.37,21.37,0,0,1,.92,6.18c0,12.48-10.86,22.63-24.21,22.63s-24.22-10.15-24.22-22.63a21.37,21.37,0,0,1,.92-6.18,2.13,2.13,0,0,0,.1-.42L85.66,77.28h22.13m2.59-3H83.07l-12.51,84a24.2,24.2,0,0,0-1,7.05C69.51,179.49,81.7,191,96.73,191s27.21-11.48,27.21-25.63a24.2,24.2,0,0,0-1-7.05l-12.51-84Z"/><path class="cls-1" d="M103.41,93.22a231.88,231.88,0,0,1-66.53-9.71,59.87,59.87,0,0,1,119.72,1.9c0,.56,0,1.11,0,1.66A232.75,232.75,0,0,1,103.41,93.22Z"/><path class="cls-2" d="M96.72,27A58.45,58.45,0,0,1,155.1,85.41v.47a231.84,231.84,0,0,1-51.69,5.84,229.93,229.93,0,0,1-65-9.32A58.36,58.36,0,0,1,96.72,27m0-3A61.37,61.37,0,0,0,35.35,84.62a233.15,233.15,0,0,0,68.06,10.1A233.6,233.6,0,0,0,158,88.27c0-1,.07-1.9.07-2.86A61.38,61.38,0,0,0,96.72,24Z"/><path class="cls-2" d="M146.86,139.23l6.64,39c-.15,4.67-4.93,9.79-11.28,9.79s-11.14-5.12-11.29-9.79l6.65-39h9.28m2.53-3H135L127.92,178c0,6.64,6.4,13,14.3,13s14.29-6.38,14.29-13l-7.12-41.72Z"/><path class="cls-1" d="M146.24,145.26a139.1,139.1,0,0,1-39.48-5.69,35.49,35.49,0,0,1,70.94,1.58v.53A139.7,139.7,0,0,1,146.24,145.26Z"/><path class="cls-2" d="M142.21,107.16a34,34,0,0,1,34,33.32,138,138,0,0,1-29.95,3.28,137.57,137.57,0,0,1-37.91-5.3,34,34,0,0,1,33.88-31.3m0-3a37,37,0,0,0-37,36.51,140.27,140.27,0,0,0,41,6.09,140.6,140.6,0,0,0,32.92-3.89c0-.57,0-1.14,0-1.72a37,37,0,0,0-37-37Z"/><path class="cls-3" d="M45.84,76.83S63.51,84.91,113,84.16"/><path class="cls-3" d="M54.38,72.66s12.48,4.5,34.5,4.17"/><path class="cls-3" d="M114.21,134.14s12.48,4.5,34.5,4.16"/><path class="cls-3" d="M121,129.23s6.12,2.28,16.24,2.28"/><polyline class="cls-3" points="71.63 162.46 76.3 157.06 81.53 160.62 85.61 154.21 93.44 158.29 95.78 165.79 102.94 164.29 108.35 155.79 118.11 159.12 122.44 163.6"/><polyline class="cls-3" points="129.78 177.46 135.11 177.46 140.78 173.46 147.78 175.46 149.78 175.46 153.72 173.77"/><ellipse class="cls-3" cx="127.92" cy="50.24" rx="5.31" ry="11" transform="translate(27.18 143.73) rotate(-64.3)"/></g></svg>