<?xml version="1.0" encoding="UTF-8" standalone="no"?>
<!-- Generator: Adobe Illustrator 16.0.0, SVG Export Plug-In . SVG Version: 6.00 Build 0)  -->

<svg
   xmlns:dc="http://purl.org/dc/elements/1.1/"
   xmlns:cc="http://creativecommons.org/ns#"
   xmlns:rdf="http://www.w3.org/1999/02/22-rdf-syntax-ns#"
   xmlns:svg="http://www.w3.org/2000/svg"
   xmlns="http://www.w3.org/2000/svg"
   xmlns:sodipodi="http://sodipodi.sourceforge.net/DTD/sodipodi-0.dtd"
   xmlns:inkscape="http://www.inkscape.org/namespaces/inkscape"
   version="1.1"
   id="Layer_1"
   x="0px"
   y="0px"
   width="100"
   height="100"
   viewBox="0 0 100 100"
   enable-background="new 0 0 842 595"
   xml:space="preserve"
   sodipodi:docname="robotiada_logo.svg"
   inkscape:version="0.92.1 r15371"><metadata
     id="metadata151"><rdf:RDF><cc:Work
         rdf:about=""><dc:format>image/svg+xml</dc:format><dc:type
           rdf:resource="http://purl.org/dc/dcmitype/StillImage" /><dc:title></dc:title></cc:Work></rdf:RDF></metadata><defs
     id="defs149" /><sodipodi:namedview
     pagecolor="#ffffff"
     bordercolor="#666666"
     borderopacity="1"
     objecttolerance="10"
     gridtolerance="10"
     guidetolerance="10"
     inkscape:pageopacity="0"
     inkscape:pageshadow="2"
     inkscape:window-width="1920"
     inkscape:window-height="1062"
     id="namedview147"
     showgrid="false"
     inkscape:zoom="4.487454"
     inkscape:cx="59.145908"
     inkscape:cy="46.865687"
     inkscape:window-x="0"
     inkscape:window-y="0"
     inkscape:window-maximized="1"
     inkscape:current-layer="Layer_1" /><g
     id="g4557"
     transform="matrix(0.62490351,0,0,0.62490351,7.5381189,173.12286)"><polygon
       transform="translate(0,-495)"
       style="fill:#1e9ad2"
       id="polygon68"
       points="40.491,312.455 67.139,325.777 67.139,305.388 40.491,292.06 40.492,263.604 67.139,276.933 67.139,256.531 28.788,237.314 28.788,359.85 40.491,365.7 " /><polygon
       transform="translate(0,-495)"
       style="fill:#1183b7"
       id="polygon76"
       points="95.408,265.415 95.408,292.06 68.76,305.388 68.76,325.777 95.408,312.455 95.408,365.7 107.111,359.85 107.111,259.564 " /><polygon
       transform="translate(0,-495)"
       style="fill:#1382b7"
       id="polygon80"
       points="42.113,266.226 42.112,290.248 53.815,284.404 53.816,272.083 " /><polygon
       transform="translate(0,-495)"
       style="fill:#1183b7"
       id="polygon86"
       points="93.787,264.415 93.787,244.02 68.76,256.531 68.76,276.933 " /><polygon
       transform="translate(0,-495)"
       style="fill:#1382b7"
       id="polygon88"
       points="42.112,365.7 53.815,359.85 53.816,320.927 42.112,315.076 " /><path
       style="fill:#138dc3"
       inkscape:connector-curvature="0"
       id="path90"
       d="m 67.949,-191.018 24.835,-12.423 -11.511,-5.75 -12.961,6.478 c -0.228,0.113 -0.497,0.113 -0.725,0 l -12.961,-6.478 -11.512,5.75 z" /><polygon
       transform="translate(0,-495)"
       style="fill:#1e9ad2"
       id="polygon92"
       points="82.083,320.927 82.083,359.85 93.787,365.7 93.787,315.076 " /><polygon
       transform="translate(0,-495)"
       style="fill:#138dc3"
       id="polygon94"
       points="95.408,263.604 106.108,258.253 95.408,252.897 " /><polygon
       transform="translate(0,-495)"
       style="fill:#138dc3"
       id="polygon98"
       points="92.784,242.708 81.273,236.953 67.949,243.614 41.301,230.246 29.788,236.003 67.951,255.125 " /><polygon
       transform="translate(0,-495)"
       style="fill:#1e9ad2"
       id="polygon102"
       points="93.787,266.226 82.083,272.076 82.083,284.404 93.787,290.248 " /></g></svg>