<?xml version="1.0" encoding="UTF-8" standalone="no"?>
<!-- Created with Inkscape (http://www.inkscape.org/) -->

<svg
   xmlns:dc="http://purl.org/dc/elements/1.1/"
   xmlns:cc="http://creativecommons.org/ns#"
   xmlns:rdf="http://www.w3.org/1999/02/22-rdf-syntax-ns#"
   xmlns:svg="http://www.w3.org/2000/svg"
   xmlns="http://www.w3.org/2000/svg"
   xmlns:sodipodi="http://sodipodi.sourceforge.net/DTD/sodipodi-0.dtd"
   xmlns:inkscape="http://www.inkscape.org/namespaces/inkscape"
   width="150mm"
   height="150mm"
   viewBox="0 0 531.49606 531.49605"
   id="svg2"
   version="1.1"
   inkscape:version="0.91 r13725"
   sodipodi:docname="sem_logo.svg">
  <defs
     id="defs4" />
  <sodipodi:namedview
     id="base"
     pagecolor="#ffffff"
     bordercolor="#666666"
     borderopacity="1.0"
     inkscape:pageopacity="0.0"
     inkscape:pageshadow="2"
     inkscape:zoom="0.98963094"
     inkscape:cx="302.45914"
     inkscape:cy="223.31482"
     inkscape:document-units="px"
     inkscape:current-layer="g4201"
     showgrid="false"
     inkscape:window-width="1680"
     inkscape:window-height="987"
     inkscape:window-x="-8"
     inkscape:window-y="-8"
     inkscape:window-maximized="1"
     inkscape:snap-bbox="true"
     inkscape:bbox-paths="true"
     inkscape:bbox-nodes="true"
     inkscape:snap-bbox-edge-midpoints="true"
     inkscape:snap-bbox-midpoints="true"
     inkscape:snap-page="true" />
  <metadata
     id="metadata7">
    <rdf:RDF>
      <cc:Work
         rdf:about="">
        <dc:format>image/svg+xml</dc:format>
        <dc:type
           rdf:resource="http://purl.org/dc/dcmitype/StillImage" />
        <dc:title></dc:title>
      </cc:Work>
    </rdf:RDF>
  </metadata>
  <g
     inkscape:label="Vrstva 1"
     inkscape:groupmode="layer"
     id="layer1"
     transform="translate(0,-520.86615)">
    <g
       id="g4201">
      <g
         id="g4563"
         inkscape:export-xdpi="90"
         inkscape:export-ydpi="90"
         transform="matrix(1.1412603,0,0,1.1412603,-173.83361,249.45355)">
        <path
           style="color:#000000;font-style:normal;font-variant:normal;font-weight:normal;font-stretch:normal;font-size:medium;line-height:normal;font-family:sans-serif;text-indent:0;text-align:start;text-decoration:none;text-decoration-line:none;text-decoration-style:solid;text-decoration-color:#000000;letter-spacing:normal;word-spacing:normal;text-transform:none;direction:ltr;block-progression:tb;writing-mode:lr-tb;baseline-shift:baseline;text-anchor:start;white-space:normal;clip-rule:nonzero;display:inline;overflow:visible;visibility:visible;opacity:1;isolation:auto;mix-blend-mode:normal;color-interpolation:sRGB;color-interpolation-filters:linearRGB;solid-color:#000000;solid-opacity:1;fill:#ba006f;fill-opacity:1;fill-rule:evenodd;stroke:none;stroke-width:6.70900011;stroke-linecap:round;stroke-linejoin:miter;stroke-miterlimit:4;stroke-dasharray:none;stroke-dashoffset:0;stroke-opacity:1;color-rendering:auto;image-rendering:auto;shape-rendering:auto;text-rendering:auto;enable-background:accumulate"
           d="m 353.44876,493.32978 a 3.3548355,3.3548355 0 0 0 -2.489,5.38611 l 44.20729,59.63581 a 3.3548355,3.3548355 0 1 0 5.38911,-3.99554 l -44.20729,-59.63582 a 3.3548355,3.3548355 0 0 0 -2.90011,-1.39056 z"
           id="path4321"
           inkscape:connector-curvature="0" />
        <path
           style="color:#000000;font-style:normal;font-variant:normal;font-weight:normal;font-stretch:normal;font-size:medium;line-height:normal;font-family:sans-serif;text-indent:0;text-align:start;text-decoration:none;text-decoration-line:none;text-decoration-style:solid;text-decoration-color:#000000;letter-spacing:normal;word-spacing:normal;text-transform:none;direction:ltr;block-progression:tb;writing-mode:lr-tb;baseline-shift:baseline;text-anchor:start;white-space:normal;clip-rule:nonzero;display:inline;overflow:visible;visibility:visible;opacity:1;isolation:auto;mix-blend-mode:normal;color-interpolation:sRGB;color-interpolation-filters:linearRGB;solid-color:#000000;solid-opacity:1;fill:#ba006f;fill-opacity:1;fill-rule:evenodd;stroke:none;stroke-width:6.70900011;stroke-linecap:round;stroke-linejoin:miter;stroke-miterlimit:4;stroke-dasharray:none;stroke-dashoffset:0;stroke-opacity:1;color-rendering:auto;image-rendering:auto;shape-rendering:auto;text-rendering:auto;enable-background:accumulate"
           d="m 297.85991,487.68937 a 3.3548355,3.3548355 0 0 0 -2.29101,1.04687 l -39.81836,41 a 3.3548355,3.3548355 0 1 0 4.8125,4.67383 l 39.81836,-40.99805 a 3.3548355,3.3548355 0 0 0 -2.52149,-5.72265 z"
           id="path4321-4"
           inkscape:connector-curvature="0" />
        <circle
           r="45.731453"
           cy="564.0658"
           cx="227.87447"
           id="path4446"
           style="opacity:1;fill:#ba006f;fill-opacity:1;stroke:#b9006e;stroke-width:4;stroke-linecap:round;stroke-linejoin:round;stroke-miterlimit:4;stroke-dasharray:none;stroke-dashoffset:0;stroke-opacity:1" />
        <g
           transform="translate(4.0000076,6)"
           style="font-style:normal;font-variant:normal;font-weight:normal;font-stretch:normal;font-size:80px;line-height:896.00000381%;font-family:'Arial Rounded MT Bold';-inkscape-font-specification:'Arial Rounded MT Bold, Normal';text-align:start;letter-spacing:29.51244164px;word-spacing:0px;writing-mode:tb-rl;text-anchor:start;fill:#ffffff;fill-opacity:1;stroke:none;stroke-width:1px;stroke-linecap:butt;stroke-linejoin:miter;stroke-opacity:1"
           id="text4350">
          <path
             d="m 246.62837,569.51111 q 0,5.19531 -2.69531,9.33594 -2.65625,4.14062 -7.8125,6.48437 -5.15625,2.34375 -12.22656,2.34375 -8.47657,0 -13.98438,-3.20312 -3.90625,-2.30469 -6.36719,-6.13282 -2.42187,-3.86718 -2.42187,-7.5 0,-2.10937 1.44531,-3.59375 1.48438,-1.52343 3.75,-1.52343 1.83594,0 3.08594,1.17187 1.28906,1.17188 2.1875,3.47656 1.09375,2.73438 2.34375,4.57032 1.28906,1.83593 3.59375,3.04687 2.30469,1.17188 6.05469,1.17188 5.15625,0 8.35937,-2.38282 3.24219,-2.42187 3.24219,-6.01562 0,-2.85156 -1.75781,-4.60938 -1.71875,-1.79687 -4.49219,-2.73437 -2.73438,-0.9375 -7.34375,-1.99219 -6.17188,-1.44531 -10.35156,-3.35937 -4.14063,-1.95313 -6.60157,-5.27344 -2.42187,-3.35938 -2.42187,-8.32031 0,-4.72657 2.57812,-8.39844 2.57813,-3.67188 7.46094,-5.625 4.88281,-1.99219 11.48438,-1.99219 5.27343,0 9.10156,1.32813 3.86719,1.28906 6.40625,3.47656 2.53906,2.14844 3.71094,4.53125 1.17187,2.38281 1.17187,4.64844 0,2.07031 -1.48437,3.75 -1.44532,1.64062 -3.63282,1.64062 -1.99218,0 -3.04687,-0.97656 -1.01563,-1.01563 -2.22656,-3.28125 -1.5625,-3.24219 -3.75,-5.03906 -2.1875,-1.83594 -7.03125,-1.83594 -4.49219,0 -7.26563,1.99219 -2.73437,1.95312 -2.73437,4.72656 0,1.71875 0.9375,2.96875 0.9375,1.25 2.57812,2.14844 1.64063,0.89843 3.32031,1.40625 1.67969,0.50781 5.54688,1.48437 4.84375,1.13281 8.75,2.5 3.94531,1.36719 6.67969,3.32031 2.77343,1.95313 4.29687,4.96094 1.5625,2.96875 1.5625,7.30469 z"
             id="path4180"
             inkscape:connector-curvature="0" />
        </g>
        <g
           transform="translate(-9.1556015,0)"
           id="g4479">
          <circle
             style="opacity:1;fill:#ba006f;fill-opacity:1;stroke:#ba006f;stroke-width:4;stroke-linecap:round;stroke-linejoin:round;stroke-miterlimit:4;stroke-dasharray:none;stroke-dashoffset:0;stroke-opacity:1"
             id="path4446-8"
             cx="335.33264"
             cy="459.40442"
             r="45.731453" />
          <g
             style="font-style:normal;font-variant:normal;font-weight:normal;font-stretch:normal;font-size:80px;line-height:896.00000381%;font-family:'Arial Rounded MT Bold';-inkscape-font-specification:'Arial Rounded MT Bold, Normal';text-align:start;letter-spacing:29.51244164px;word-spacing:0px;writing-mode:tb-rl;text-anchor:start;fill:#ffffff;fill-opacity:1;stroke:none;stroke-width:1px;stroke-linecap:butt;stroke-linejoin:miter;stroke-opacity:1"
             id="text4354">
            <path
               d="m 350.9967,439.71692 -26.13281,0 0,14.0625 24.0625,0 q 2.65625,0 3.94531,1.21094 1.32813,1.17187 1.32813,3.125 0,1.95312 -1.28906,3.20312 -1.28907,1.21094 -3.98438,1.21094 l -24.0625,0 0,16.28906 27.03125,0 q 2.73438,0 4.10156,1.28906 1.40625,1.25 1.40625,3.35938 0,2.03125 -1.40625,3.32031 -1.36718,1.25 -4.10156,1.25 l -31.52344,0 q -3.78906,0 -5.46875,-1.67969 -1.64062,-1.67968 -1.64062,-5.42968 l 0,-43.04688 q 0,-2.5 0.74219,-4.0625 0.74218,-1.60156 2.30468,-2.30469 1.60157,-0.74218 4.0625,-0.74218 l 30.625,0 q 2.77344,0 4.10157,1.25 1.36718,1.21093 1.36718,3.20312 0,2.03125 -1.36718,3.28125 -1.32813,1.21094 -4.10157,1.21094 z"
               id="path4183"
               inkscape:connector-curvature="0" />
          </g>
        </g>
        <g
           transform="translate(-4.536705,-8.9864556)"
           id="g4474">
          <circle
             style="opacity:1;fill:#ba006f;fill-opacity:1;stroke:#ba006f;stroke-width:4;stroke-linecap:round;stroke-linejoin:round;stroke-miterlimit:4;stroke-dasharray:none;stroke-dashoffset:0;stroke-opacity:1"
             id="path4446-2"
             cx="432.06967"
             cy="601.63318"
             r="45.731453" />
          <g
             style="font-style:normal;font-variant:normal;font-weight:normal;font-stretch:normal;font-size:80px;line-height:896.00000381%;font-family:'Arial Rounded MT Bold';-inkscape-font-specification:'Arial Rounded MT Bold, Normal';text-align:start;letter-spacing:29.51244164px;word-spacing:0px;writing-mode:tb-rl;text-anchor:start;fill:#ffffff;fill-opacity:1;stroke:none;stroke-width:1px;stroke-linecap:butt;stroke-linejoin:miter;stroke-opacity:1"
             id="text4358">
            <path
               d="m 424.29623,621.1449 -9.17968,-36.48438 0,39.53125 q 0,3.28125 -1.48438,4.92188 -1.44531,1.64062 -3.86719,1.64062 -2.34375,0 -3.82812,-1.60156 -1.48438,-1.64063 -1.48438,-4.96094 l 0,-45.3125 q 0,-3.75 1.95313,-5.03906 1.95312,-1.32813 5.27344,-1.32813 l 3.59375,0 q 3.24218,0 4.6875,0.58594 1.48437,0.58594 2.1875,2.10938 0.70312,1.52343 1.60156,4.96093 l 8.32031,31.36719 8.32031,-31.36719 q 0.89844,-3.4375 1.60157,-4.96093 0.70312,-1.52344 2.14843,-2.10938 1.48438,-0.58594 4.72657,-0.58594 l 3.59375,0 q 3.32031,0 5.27343,1.32813 1.95313,1.28906 1.95313,5.03906 l 0,45.3125 q 0,3.28125 -1.48438,4.92188 -1.44531,1.64062 -3.90625,1.64062 -2.30468,0 -3.78906,-1.64062 -1.48437,-1.64063 -1.48437,-4.92188 l 0,-39.53125 -9.17969,36.48438 q -0.89844,3.55468 -1.48438,5.23437 -0.54687,1.64063 -2.07031,3.00781 -1.52344,1.36719 -4.21875,1.36719 -2.03125,0 -3.4375,-0.89844 -1.40625,-0.85937 -2.1875,-2.22656 -0.78125,-1.36719 -1.25,-3.00781 -0.42969,-1.67969 -0.89844,-3.47656 z"
               id="path4186"
               inkscape:connector-curvature="0" />
          </g>
        </g>
        <g
           transform="translate(-26,-2)"
           id="g4543">
          <g
             id="g4490"
             transform="matrix(1.1592792,0,0,1.1592792,-83.041881,-78.831008)">
            <g
               style="stroke-width:18.45441246;stroke-miterlimit:4;stroke-dasharray:none"
               transform="matrix(0.31360978,0,0,0.31360978,469.3193,318.59952)"
               id="g4428">
              <g
                 style="stroke-width:42.10076523;stroke-miterlimit:4;stroke-dasharray:none"
                 transform="matrix(0.43833913,0,0,0.43833913,-208.51967,122.06038)"
                 id="g4437">
                <path
                   style="color:#000000;font-style:normal;font-variant:normal;font-weight:normal;font-stretch:normal;font-size:medium;line-height:normal;font-family:sans-serif;text-indent:0;text-align:start;text-decoration:none;text-decoration-line:none;text-decoration-style:solid;text-decoration-color:#000000;letter-spacing:normal;word-spacing:normal;text-transform:none;direction:ltr;block-progression:tb;writing-mode:lr-tb;baseline-shift:baseline;text-anchor:start;white-space:normal;clip-rule:nonzero;display:inline;overflow:visible;visibility:visible;opacity:1;isolation:auto;mix-blend-mode:normal;color-interpolation:sRGB;color-interpolation-filters:linearRGB;solid-color:#000000;solid-opacity:1;fill:#ba006f;fill-opacity:1;fill-rule:nonzero;stroke:none;stroke-width:11.40616608;stroke-linecap:round;stroke-linejoin:round;stroke-miterlimit:4;stroke-dasharray:none;stroke-dashoffset:0;stroke-opacity:1;color-rendering:auto;image-rendering:auto;shape-rendering:auto;text-rendering:auto;enable-background:accumulate"
                   d="m 879.54607,99.293863 c -174.68104,0 -316.73827,142.057227 -316.73827,316.738237 0,48.46734 24.29302,101.18211 54.64237,154.27457 30.34935,53.09249 67.71691,106.0282 97.18842,149.40865 28.2381,41.56495 50.18423,90.21451 73.20493,129.94501 11.51031,19.86525 23.23495,37.64076 37.73783,51.49213 14.50284,13.85136 33.4143,23.96025 54.71442,23.19779 22.10661,-0.79133 41.39668,-11.27321 56.66803,-25.6055 15.27136,-14.33229 27.63633,-32.56255 39.48237,-52.69598 23.69203,-40.26687 45.29243,-88.75033 72.76513,-129.75759 28.7035,-42.84454 64.9089,-94.96559 94.2761,-147.38299 29.3673,-52.41743 52.797,-104.6773 52.797,-152.87609 0,-174.68101 -142.0573,-316.738237 -316.73833,-316.738237 z m 0,42.099127 c 151.92913,0 274.63913,122.70999 274.63913,274.63911 0,33.45376 -19.4672,82.3908 -47.4264,132.29507 -27.9592,49.90427 -63.5139,101.22573 -92.5243,144.52835 -30.24133,45.13986 -52.30907,94.86335 -74.07,131.8481 -10.8805,18.49239 -21.68408,33.65103 -32.00689,43.33904 -10.32281,9.68801 -19.05791,13.861 -29.36846,14.23009 -7.99213,0.28608 -14.7453,-2.60193 -24.12771,-11.56284 -9.3824,-8.96094 -19.76183,-23.81043 -30.39209,-42.15681 C 803.00884,791.86037 780.50239,741.74288 749.4641,696.05618 719.65926,652.18509 682.92875,600.02551 653.99854,549.41572 625.06837,498.8059 604.90692,449.21734 604.90692,416.0321 c 0,-151.92912 122.71,-274.63911 274.63915,-274.63911 z"
                   id="path4362"
                   inkscape:connector-curvature="0" />
                <g
                   id="g4274">
                  <path
                     transform="matrix(6.2749767,0,0,6.2749767,-2254.1005,-2088.8846)"
                     sodipodi:nodetypes="ccccccccc"
                     inkscape:connector-curvature="0"
                     id="path4256-0"
                     d="m 480.47656,462.17142 38.68235,0.15789 0.76972,5.0796 -2.82225,5.34095 0,17.99913 -35.20883,-0.15788 -0.31578,-18.94646 -2.3683,-5.99971 z"
                     style="fill:#ffffff;fill-opacity:1;fill-rule:evenodd;stroke:none;stroke-width:1px;stroke-linecap:butt;stroke-linejoin:miter;stroke-opacity:1" />
                  <g
                     transform="matrix(3.6908824,0,0,3.6908824,-1293.0422,-1658.3237)"
                     id="g4388"
                     style="stroke-width:6.48400021;stroke-miterlimit:4;stroke-dasharray:none">
                    <path
                       inkscape:connector-curvature="0"
                       id="rect4365"
                       d="m 565.4043,681.35352 c -6.49238,0 -12.1211,4.89749 -12.1211,11.26953 0,6.37204 5.62872,11.26953 12.1211,11.26953 l 46.46484,0 c 6.49237,0 12.12109,-4.89749 12.12109,-11.26953 0,-6.37204 -5.62872,-11.26953 -12.12109,-11.26953 l -46.46484,0 z m 0,6.48437 46.46484,0 c 3.34615,0 5.63672,2.26226 5.63672,4.78516 0,2.5229 -2.29057,4.78711 -5.63672,4.78711 l -46.46484,0 c -3.34615,0 -5.63672,-2.26421 -5.63672,-4.78711 0,-2.5229 2.29057,-4.78516 5.63672,-4.78516 z"
                       style="color:#000000;font-style:normal;font-variant:normal;font-weight:normal;font-stretch:normal;font-size:medium;line-height:normal;font-family:sans-serif;text-indent:0;text-align:start;text-decoration:none;text-decoration-line:none;text-decoration-style:solid;text-decoration-color:#000000;letter-spacing:normal;word-spacing:normal;text-transform:none;direction:ltr;block-progression:tb;writing-mode:lr-tb;baseline-shift:baseline;text-anchor:start;white-space:normal;clip-rule:nonzero;display:inline;overflow:visible;visibility:visible;opacity:1;isolation:auto;mix-blend-mode:normal;color-interpolation:sRGB;color-interpolation-filters:linearRGB;solid-color:#000000;solid-opacity:1;fill:#ba006f;fill-opacity:1;fill-rule:nonzero;stroke:none;stroke-width:6.48400021;stroke-linecap:round;stroke-linejoin:round;stroke-miterlimit:4;stroke-dasharray:none;stroke-dashoffset:0;stroke-opacity:1;color-rendering:auto;image-rendering:auto;shape-rendering:auto;text-rendering:auto;enable-background:accumulate" />
                    <path
                       inkscape:connector-curvature="0"
                       id="rect4365-1"
                       d="m 565.4043,698.30078 c -6.49238,0 -12.1211,4.89749 -12.1211,11.26953 0,6.37204 5.62872,11.27149 12.1211,11.27149 l 46.46484,0 c 6.49237,0 12.12109,-4.89945 12.12109,-11.27149 0,-6.37204 -5.62872,-11.26953 -12.12109,-11.26953 l -46.46484,0 z m 0,6.48438 46.46484,0 c 3.34615,0 5.63672,2.26225 5.63672,4.78515 0,2.5229 -2.29057,4.78711 -5.63672,4.78711 l -46.46484,0 c -3.34615,0 -5.63672,-2.26421 -5.63672,-4.78711 0,-2.5229 2.29057,-4.78515 5.63672,-4.78515 z"
                       style="color:#000000;font-style:normal;font-variant:normal;font-weight:normal;font-stretch:normal;font-size:medium;line-height:normal;font-family:sans-serif;text-indent:0;text-align:start;text-decoration:none;text-decoration-line:none;text-decoration-style:solid;text-decoration-color:#000000;letter-spacing:normal;word-spacing:normal;text-transform:none;direction:ltr;block-progression:tb;writing-mode:lr-tb;baseline-shift:baseline;text-anchor:start;white-space:normal;clip-rule:nonzero;display:inline;overflow:visible;visibility:visible;opacity:1;isolation:auto;mix-blend-mode:normal;color-interpolation:sRGB;color-interpolation-filters:linearRGB;solid-color:#000000;solid-opacity:1;fill:#ba006f;fill-opacity:1;fill-rule:nonzero;stroke:none;stroke-width:6.48400021;stroke-linecap:round;stroke-linejoin:round;stroke-miterlimit:4;stroke-dasharray:none;stroke-dashoffset:0;stroke-opacity:1;color-rendering:auto;image-rendering:auto;shape-rendering:auto;text-rendering:auto;enable-background:accumulate" />
                    <path
                       inkscape:connector-curvature="0"
                       id="rect4365-2"
                       d="m 563.06836,663.00586 c -6.98707,0 -13.01563,5.25688 -13.01563,12.07617 0,6.81929 6.02856,12.07813 13.01563,12.07813 l 51.13672,0 c 6.98707,0 13.01367,-5.25884 13.01367,-12.07813 0,-6.81929 -6.0266,-12.07617 -13.01367,-12.07617 l -51.13672,0 z m 0,6.48242 51.13672,0 c 3.84084,0 6.5293,2.6236 6.5293,5.59375 0,2.97015 -2.68846,5.59375 -6.5293,5.59375 l -51.13672,0 c -3.84084,0 -6.53125,-2.6236 -6.53125,-5.59375 0,-2.97015 2.69041,-5.59375 6.53125,-5.59375 z"
                       style="color:#000000;font-style:normal;font-variant:normal;font-weight:normal;font-stretch:normal;font-size:medium;line-height:normal;font-family:sans-serif;text-indent:0;text-align:start;text-decoration:none;text-decoration-line:none;text-decoration-style:solid;text-decoration-color:#000000;letter-spacing:normal;word-spacing:normal;text-transform:none;direction:ltr;block-progression:tb;writing-mode:lr-tb;baseline-shift:baseline;text-anchor:start;white-space:normal;clip-rule:nonzero;display:inline;overflow:visible;visibility:visible;opacity:1;isolation:auto;mix-blend-mode:normal;color-interpolation:sRGB;color-interpolation-filters:linearRGB;solid-color:#000000;solid-opacity:1;fill:#ba006f;fill-opacity:1;fill-rule:nonzero;stroke:none;stroke-width:6.48400021;stroke-linecap:round;stroke-linejoin:round;stroke-miterlimit:4;stroke-dasharray:none;stroke-dashoffset:0;stroke-opacity:1;color-rendering:auto;image-rendering:auto;shape-rendering:auto;text-rendering:auto;enable-background:accumulate" />
                  </g>
                </g>
                <path
                   style="color:#000000;font-style:normal;font-variant:normal;font-weight:normal;font-stretch:normal;font-size:medium;line-height:normal;font-family:sans-serif;text-indent:0;text-align:start;text-decoration:none;text-decoration-line:none;text-decoration-style:solid;text-decoration-color:#000000;letter-spacing:normal;word-spacing:normal;text-transform:none;direction:ltr;block-progression:tb;writing-mode:lr-tb;baseline-shift:baseline;text-anchor:start;white-space:normal;clip-rule:nonzero;display:inline;overflow:visible;visibility:visible;opacity:1;isolation:auto;mix-blend-mode:normal;color-interpolation:sRGB;color-interpolation-filters:linearRGB;solid-color:#000000;solid-opacity:1;fill:#ba006f;fill-opacity:1;fill-rule:nonzero;stroke:none;stroke-width:42.10076523;stroke-linecap:round;stroke-linejoin:round;stroke-miterlimit:4;stroke-dasharray:none;stroke-dashoffset:0;stroke-opacity:1;color-rendering:auto;image-rendering:auto;shape-rendering:auto;text-rendering:auto;enable-background:accumulate"
                   d="m 744.27734,323.94141 c -32.92493,0 -62.04492,25.0825 -62.04492,58.11132 l 0,24.70899 c 0,33.02884 29.12001,58.11328 62.04492,58.11328 l 25.08204,0 a 21.052488,21.052488 0 0 0 0.54492,-0.008 l 19.39843,-0.50196 0,320.97852 a 21.052488,21.052488 0 1 0 42.09961,0 l 0,-339.08984 a 21.052488,21.052488 0 0 0 0,-6.93164 l 0,-57.26954 c 0,-33.02882 -29.11803,-58.11132 -62.04296,-58.11132 l -25.08204,0 z m 0,42.09961 25.08204,0 c 12.49636,0 19.94335,7.9754 19.94335,16.01171 l 0,40.19727 -20.21679,0.52344 -24.8086,0 c -12.49638,0 -19.94336,-7.97536 -19.94336,-16.01172 l 0,-24.70899 c 0,-8.03631 7.447,-16.01171 19.94336,-16.01171 z"
                   id="rect4393"
                   inkscape:connector-curvature="0" />
                <path
                   style="color:#000000;font-style:normal;font-variant:normal;font-weight:normal;font-stretch:normal;font-size:medium;line-height:normal;font-family:sans-serif;text-indent:0;text-align:start;text-decoration:none;text-decoration-line:none;text-decoration-style:solid;text-decoration-color:#000000;letter-spacing:normal;word-spacing:normal;text-transform:none;direction:ltr;block-progression:tb;writing-mode:lr-tb;baseline-shift:baseline;text-anchor:start;white-space:normal;clip-rule:nonzero;display:inline;overflow:visible;visibility:visible;opacity:1;isolation:auto;mix-blend-mode:normal;color-interpolation:sRGB;color-interpolation-filters:linearRGB;solid-color:#000000;solid-opacity:1;fill:#ba006f;fill-opacity:1;fill-rule:nonzero;stroke:none;stroke-width:42.10076523;stroke-linecap:round;stroke-linejoin:round;stroke-miterlimit:4;stroke-dasharray:none;stroke-dashoffset:0;stroke-opacity:1;color-rendering:auto;image-rendering:auto;shape-rendering:auto;text-rendering:auto;enable-background:accumulate"
                   d="m 989.73242,323.94141 c -32.92494,0 -62.04492,25.08252 -62.04492,58.11132 l 0,40.33008 -106.81641,-0.67187 c -11.71629,-0.20359 -21.3439,9.19867 -21.41783,20.91649 -0.0739,11.71782 9.43428,21.24082 21.15221,21.18507 l 107.08203,0.67383 0,328.02456 c -0.14944,11.73089 9.31895,8.77069 21.05078,8.77069 11.73183,0 21.20022,-9.58975 21.05078,-21.32064 l 0,-315.21094 19.81055,0.125 c 0.0443,1.4e-4 0.0885,1.4e-4 0.13281,0 l 25.08008,0 c 32.9249,0 62.0449,-25.08444 62.0449,-58.11328 l 0,-24.70899 c 0,-33.02882 -29.1199,-58.11132 -62.0449,-58.11132 z m 0,42.09961 25.08008,0 c 12.4964,0 19.9434,7.9754 19.9434,16.01171 l 0,24.70899 c 0,8.03636 -7.4469,16.01172 -19.9434,16.01172 l -25.01367,0 -20.00977,-0.125 0,-40.59571 c 0,-8.03633 7.447,-16.01171 19.94336,-16.01171 z"
                   id="rect4393-9"
                   inkscape:connector-curvature="0"
                   sodipodi:nodetypes="ssccscccsccccssssssssssccss" />
              </g>
            </g>
          </g>
          <g
             id="g4188">
            <path
               style="color:#000000;font-style:normal;font-variant:normal;font-weight:normal;font-stretch:normal;font-size:medium;line-height:normal;font-family:sans-serif;text-indent:0;text-align:start;text-decoration:none;text-decoration-line:none;text-decoration-style:solid;text-decoration-color:#000000;letter-spacing:normal;word-spacing:normal;text-transform:none;direction:ltr;block-progression:tb;writing-mode:lr-tb;baseline-shift:baseline;text-anchor:start;white-space:normal;clip-rule:nonzero;display:inline;overflow:visible;visibility:visible;opacity:1;isolation:auto;mix-blend-mode:normal;color-interpolation:sRGB;color-interpolation-filters:linearRGB;solid-color:#000000;solid-opacity:1;fill:#ba006f;fill-opacity:1;fill-rule:evenodd;stroke:none;stroke-width:6.70900011;stroke-linecap:round;stroke-linejoin:miter;stroke-miterlimit:4;stroke-dasharray:none;stroke-dashoffset:0;stroke-opacity:1;color-rendering:auto;image-rendering:auto;shape-rendering:auto;text-rendering:auto;enable-background:accumulate"
               d="m 595.93164,337.05078 a 3.3548355,3.3548355 0 0 0 -2.3125,0.9961 l -12.42187,12.23437 a 3.3548355,3.3548355 0 1 0 4.70703,4.7793 l 12.42187,-12.23243 a 3.3548355,3.3548355 0 0 0 -2.39453,-5.77734 z"
               id="path4321-4-8"
               inkscape:connector-curvature="0" />
            <path
               style="color:#000000;font-style:normal;font-variant:normal;font-weight:normal;font-stretch:normal;font-size:medium;line-height:normal;font-family:sans-serif;text-indent:0;text-align:start;text-decoration:none;text-decoration-line:none;text-decoration-style:solid;text-decoration-color:#000000;letter-spacing:normal;word-spacing:normal;text-transform:none;direction:ltr;block-progression:tb;writing-mode:lr-tb;baseline-shift:baseline;text-anchor:start;white-space:normal;clip-rule:nonzero;display:inline;overflow:visible;visibility:visible;opacity:1;isolation:auto;mix-blend-mode:normal;color-interpolation:sRGB;color-interpolation-filters:linearRGB;solid-color:#000000;solid-opacity:1;fill:#ba006f;fill-opacity:1;fill-rule:evenodd;stroke:none;stroke-width:6.70900011;stroke-linecap:round;stroke-linejoin:miter;stroke-miterlimit:4;stroke-dasharray:none;stroke-dashoffset:0;stroke-opacity:1;color-rendering:auto;image-rendering:auto;shape-rendering:auto;text-rendering:auto;enable-background:accumulate"
               d="m 454.74219,337.04883 a 3.3548355,3.3548355 0 0 0 -2.29297,5.77929 l 12.42187,12.23243 a 3.3548355,3.3548355 0 1 0 4.70703,-4.7793 l -12.42187,-12.23437 a 3.3548355,3.3548355 0 0 0 -2.41406,-0.99805 z"
               id="path4321-4-8-0"
               inkscape:connector-curvature="0" />
            <path
               style="color:#000000;font-style:normal;font-variant:normal;font-weight:normal;font-stretch:normal;font-size:medium;line-height:normal;font-family:sans-serif;text-indent:0;text-align:start;text-decoration:none;text-decoration-line:none;text-decoration-style:solid;text-decoration-color:#000000;letter-spacing:normal;word-spacing:normal;text-transform:none;direction:ltr;block-progression:tb;writing-mode:lr-tb;baseline-shift:baseline;text-anchor:start;white-space:normal;clip-rule:nonzero;display:inline;overflow:visible;visibility:visible;opacity:1;isolation:auto;mix-blend-mode:normal;color-interpolation:sRGB;color-interpolation-filters:linearRGB;solid-color:#000000;solid-opacity:1;fill:#ba006f;fill-opacity:1;fill-rule:evenodd;stroke:none;stroke-width:6.70900011;stroke-linecap:round;stroke-linejoin:miter;stroke-miterlimit:4;stroke-dasharray:none;stroke-dashoffset:0;stroke-opacity:1;color-rendering:auto;image-rendering:auto;shape-rendering:auto;text-rendering:auto;enable-background:accumulate"
               d="m 525.42969,309.94141 a 3.3548355,3.3548355 0 0 0 -3.33008,3.37695 l -0.13281,17.43359 a 3.3548355,3.3548355 0 1 0 6.70898,0.0508 l 0.13281,-17.43359 a 3.3548355,3.3548355 0 0 0 -3.3789,-3.42773 z"
               id="path4321-4-8-2"
               inkscape:connector-curvature="0" />
          </g>
        </g>
        <path
           style="color:#000000;font-style:normal;font-variant:normal;font-weight:normal;font-stretch:normal;font-size:medium;line-height:normal;font-family:sans-serif;text-indent:0;text-align:start;text-decoration:none;text-decoration-line:none;text-decoration-style:solid;text-decoration-color:#000000;letter-spacing:normal;word-spacing:normal;text-transform:none;direction:ltr;block-progression:tb;writing-mode:lr-tb;baseline-shift:baseline;text-anchor:start;white-space:normal;clip-rule:nonzero;display:inline;overflow:visible;visibility:visible;opacity:1;isolation:auto;mix-blend-mode:normal;color-interpolation:sRGB;color-interpolation-filters:linearRGB;solid-color:#000000;solid-opacity:1;fill:#ba006f;fill-opacity:1;fill-rule:evenodd;stroke:none;stroke-width:6.70900011;stroke-linecap:round;stroke-linejoin:miter;stroke-miterlimit:4;stroke-dasharray:none;stroke-dashoffset:0;stroke-opacity:1;color-rendering:auto;image-rendering:auto;shape-rendering:auto;text-rendering:auto;enable-background:accumulate"
           d="m 496.53906,488.85742 c -1.10595,-0.0172 -2.14932,0.51175 -2.78906,1.41406 l -43.80273,59.9336 c -2.79825,3.63458 2.80392,7.72762 5.41601,3.95703 l 43.80274,-59.93164 c 4.42372,-5.51881 0.11635,-5.33003 -2.62696,-5.37305 z"
           id="path4321-2"
           inkscape:connector-curvature="0"
           sodipodi:nodetypes="cccccc" />
      </g>
    </g>
  </g>
</svg>
