<svg xmlns="http://www.w3.org/2000/svg" viewBox="0 0 214.56 214.56"><defs><style>.cls-1,.cls-3{fill:#fff;}.cls-2,.cls-4,.cls-5{fill:none;}.cls-2,.cls-3,.cls-4{stroke:#02a7fc;}.cls-2,.cls-3,.cls-4,.cls-5{stroke-linecap:round;stroke-width:3px;}.cls-2{stroke-miterlimit:10;}.cls-3,.cls-4,.cls-5{stroke-linejoin:round;}.cls-5{stroke:#ffd662;}</style></defs><title>Kreslicí plátno 12 kopie</title><g id="Vrstva_14" data-name="Vrstva 14"><circle class="cls-1" cx="107.5" cy="107.5" r="107.5"/></g><g id="Vrstva_13" data-name="Vrstva 13"><circle class="cls-2" cx="167.54" cy="122.19" r="18.42"/><circle class="cls-2" cx="167.54" cy="122.19" r="9.79"/><path class="cls-3" d="M46.38,113.84A55.72,55.72,0,1,0,155.32,97.31H48.87A55.67,55.67,0,0,0,46.38,113.84Z"/><path class="cls-4" d="M148.22,104.17h0Z"/><rect class="cls-3" x="38.6" y="166.28" width="126.74" height="7.5"/><rect class="cls-3" x="69.1" y="174.78" width="65.74" height="6.5"/><polyline class="cls-5" points="127.65 60.78 120.65 50.28 111.59 54 105.87 70.18 111.32 87.75 125.32 87.75 130.12 79.03"/><polyline class="cls-5" points="131.11 38.72 135.2 34.14 140.15 36.73 131.71 50.72 139.5 50.72"/><line class="cls-5" x1="74.66" y1="50.11" x2="74.4" y2="87.75"/><polyline class="cls-5" points="74.66 61.78 85.95 52.61 85.95 87.75"/><polyline class="cls-5" points="86.66 61.78 97.95 52.61 97.95 87.75"/></g></svg>