<?xml version="1.0" encoding="UTF-8" standalone="no"?>
<!-- Created with Inkscape (http://www.inkscape.org/) -->

<svg
   xmlns:dc="http://purl.org/dc/elements/1.1/"
   xmlns:cc="http://creativecommons.org/ns#"
   xmlns:rdf="http://www.w3.org/1999/02/22-rdf-syntax-ns#"
   xmlns:svg="http://www.w3.org/2000/svg"
   xmlns="http://www.w3.org/2000/svg"
   xmlns:sodipodi="http://sodipodi.sourceforge.net/DTD/sodipodi-0.dtd"
   xmlns:inkscape="http://www.inkscape.org/namespaces/inkscape"
   version="1.1"
   id="svg2"
   xml:space="preserve"
   width="1152"
   height="1152"
   viewBox="0 0 1152 1152"
   sodipodi:docname="soc_logo.svg"
   inkscape:version="0.92.3 (2405546, 2018-03-11)"><metadata
     id="metadata8"><rdf:RDF><cc:Work
         rdf:about=""><dc:format>image/svg+xml</dc:format><dc:type
           rdf:resource="http://purl.org/dc/dcmitype/StillImage" /><dc:title /></cc:Work></rdf:RDF></metadata><defs
     id="defs6" /><sodipodi:namedview
     pagecolor="#ffffff"
     bordercolor="#666666"
     borderopacity="1"
     objecttolerance="10"
     gridtolerance="10"
     guidetolerance="10"
     inkscape:pageopacity="0"
     inkscape:pageshadow="2"
     inkscape:window-width="1920"
     inkscape:window-height="1016"
     id="namedview4"
     showgrid="false"
     inkscape:zoom="0.72944397"
     inkscape:cx="575.99999"
     inkscape:cy="575.99999"
     inkscape:window-x="0"
     inkscape:window-y="27"
     inkscape:window-maximized="1"
     inkscape:current-layer="g10" /><g
     id="g10"
     inkscape:groupmode="layer"
     inkscape:label="ink_ext_XXXXXX"
     transform="matrix(1.3333333,0,0,-1.3333333,0,1152)"><g
       id="g858"
       transform="matrix(3.0636116,0,0,-3.0636116,214.02405,828.75782)"><polygon
         id="polygon825"
         points="0,36.1 20.5,0 117,0 142.3,36.1 91.6,154 0,250.2 0,119.9 20.5,91.6 "
         style="fill:#1b6aea" /><circle
         id="circle827"
         class="a"
         r="23.4"
         cy="53.599998"
         cx="42.900002"
         style="fill:#ffffff" /><circle
         id="circle829"
         class="b"
         r="10.9"
         cy="53.599998"
         cx="42.900002"
         style="fill:#0d92f7" /><circle
         id="circle831"
         class="a"
         r="23.4"
         cy="53.599998"
         cx="98.5"
         style="fill:#ffffff" /><circle
         id="circle833"
         class="b"
         r="10.9"
         cy="53.599998"
         cx="98.5"
         style="fill:#0d92f7" /><polygon
         id="polygon835"
         class="a"
         points="71.2,72.6 87.6,85.3 71.2,107.2 53.8,85.3 "
         style="fill:#ffffff" /><polygon
         id="polygon837"
         class="b"
         points="60.4,197.9 45.6,216.9 60.4,227.1 66,212.5 74.3,212.5 81,227.1 94.8,216.9 81.6,197.9 "
         style="fill:#0d92f7" /><polygon
         id="polygon839"
         class="b"
         points="95.7,162.7 80.8,181.7 95.7,191.9 101.3,177.3 109.5,177.3 116.2,191.9 130,181.7 116.9,162.7 "
         style="fill:#0d92f7" /></g></g><style
     id="style823">.a{fill:#FFF;}.b{fill:#0D92F7;}</style></svg>