<?xml version="1.0" encoding="UTF-8" standalone="no"?>
<!-- Created with Inkscape (http://www.inkscape.org/) -->

<svg
   xmlns:dc="http://purl.org/dc/elements/1.1/"
   xmlns:cc="http://creativecommons.org/ns#"
   xmlns:rdf="http://www.w3.org/1999/02/22-rdf-syntax-ns#"
   xmlns:svg="http://www.w3.org/2000/svg"
   xmlns="http://www.w3.org/2000/svg"
   xmlns:sodipodi="http://sodipodi.sourceforge.net/DTD/sodipodi-0.dtd"
   xmlns:inkscape="http://www.inkscape.org/namespaces/inkscape"
   width="100mm"
   height="100mm"
   viewBox="0 0 354.33071 354.33071"
   id="svg2"
   version="1.1"
   inkscape:version="0.91 r13725"
   sodipodi:docname="touch-econ_logo.svg">
  <defs
     id="defs4">
    <clipPath
       id="clipPath4150"
       clipPathUnits="userSpaceOnUse">
      <path
         inkscape:connector-curvature="0"
         id="path4152"
         d="m 0,85.039 141.732,0 L 141.732,0 0,0 0,85.039 Z" />
    </clipPath>
  </defs>
  <sodipodi:namedview
     id="base"
     pagecolor="#ffffff"
     bordercolor="#666666"
     borderopacity="1.0"
     inkscape:pageopacity="0.0"
     inkscape:pageshadow="2"
     inkscape:zoom="0.98994949"
     inkscape:cx="-122.34205"
     inkscape:cy="189.80912"
     inkscape:document-units="px"
     inkscape:current-layer="layer1"
     showgrid="false"
     inkscape:window-width="1680"
     inkscape:window-height="987"
     inkscape:window-x="-8"
     inkscape:window-y="-8"
     inkscape:window-maximized="1" />
  <metadata
     id="metadata7">
    <rdf:RDF>
      <cc:Work
         rdf:about="">
        <dc:format>image/svg+xml</dc:format>
        <dc:type
           rdf:resource="http://purl.org/dc/dcmitype/StillImage" />
        <dc:title></dc:title>
      </cc:Work>
    </rdf:RDF>
  </metadata>
  <g
     inkscape:label="Layer 1"
     inkscape:groupmode="layer"
     id="layer1"
     transform="translate(0,-698.0315)">
    <g
       id="g4190"
       transform="matrix(6.0684752,0,0,6.0684752,-321.68165,-5398.5578)">
      <path
         sodipodi:nodetypes="cscsscsccscccscc"
         d="m 107.87654,1039.8772 0,-1.2225 c 0,-3.8837 -1.11,-7.8787 -2.88625,-10.5975 -1.99625,-2.9975 -5.60375,-4.7162 -9.8775,-4.7162 -8.544996,0 -14.814996,6.38 -14.814996,15.1487 0,3.6613 1.22,7.2138 3.385,9.71 2.38625,2.72 6.1025,4.1625 10.764996,4.1625 4.605,0 8.15625,-1.22 11.98625,-4.0512 l -3.21875,-5.4388 c -2.885,1.9425 -5.05,2.775 -7.27,2.775 -3.662496,0 -6.214996,-2.2187 -6.602496,-5.77 z m -18.367496,-5.3837 c 0.8325,-3.385 2.94,-5.3825 5.714996,-5.3825 2.66375,0 4.32875,2.0525 4.44,5.3825 z"
         style="fill:#690f18;fill-opacity:1;fill-rule:nonzero;stroke:none"
         id="path4156"
         inkscape:connector-curvature="0" />
      <path
         sodipodi:nodetypes="ccccccscsccsccccccccc"
         d="m 69.735758,1015.2922 -9.21125,0 0,9.3225 -3.995,0 0,6.7713 3.93875,0 0,11.0975 c 0,3.6075 0.2225,4.94 1,6.4937 1.10875,2.1638 3.49625,3.385 6.71375,3.385 2.94125,0 5.66,-0.8325 9.2125,-2.72 l -2.11,-6.3262 c -1.38625,0.8325 -2.21875,1.165 -3.27375,1.165 -0.8875,0 -1.72,-0.4425 -2.0525,-1.11 -0.2225,-0.4988 -0.2775,-0.5538 -0.33375,-2.2188 l 0,-0.3887 c 0.05625,-0.11 0.05625,-0.1663 0.05625,-0.1663 l 0,-9.2112 7.435,0 0,-6.7713 -7.38,0 z"
         style="fill:#33bcd7;fill-opacity:1;fill-rule:nonzero;stroke:none"
         id="path4160"
         inkscape:connector-curvature="0" />
    </g>
  </g>
</svg>
