<svg xmlns="http://www.w3.org/2000/svg" viewBox="0 0 215 215"><defs><style>.cls-1{fill:#fff;}.cls-2{fill:none;stroke:#02a7fc;stroke-miterlimit:10;stroke-width:3px;}.cls-3{fill:#02a7fc;}.cls-4{fill:#ffd662;}</style></defs><title>Kreslicí plátno 3</title><g id="Vrstva_14" data-name="Vrstva 14"><circle class="cls-1" cx="107.5" cy="107.5" r="107.5"/></g><g id="Vrstva_4" data-name="Vrstva 4"><circle class="cls-2" cx="107.28" cy="107.7" r="74.35"/><path class="cls-3" d="M141.55,53.51a64.28,64.28,0,0,1,.26,108.71,33,33,0,0,0-1.52-7.72,3.23,3.23,0,0,0-.29-.66l-3.23-5.46a3,3,0,0,0-1-1l-3.35-2.06-3.67-4.43-2-11.11c2.44-1.8,7.15-5.3,8.78-6.66a37.34,37.34,0,0,1,5.92-3.43H148a3,3,0,0,0,2.39-1.19l6.09-8.08a3,3,0,0,0-2.39-4.8,2.7,2.7,0,0,0-.49,0l-.7.11-2-6.07L149.71,95A3,3,0,0,0,145,93.32l-4,3.05a3,3,0,0,0-.91,3.63l1.42,3.1-1.09,1.09v-.74a3,3,0,0,0-3-3,2.68,2.68,0,0,0-.84.13l-6.28,1.85-6.29,1a3,3,0,0,0-2.32,1.94c-.09.23-2,5.34-2.61,7.3a4.48,4.48,0,0,1-.58.34l-2.86-3.7L117,108a2.81,2.81,0,0,0,.4-.51l2.69-4.3a3,3,0,0,0-.76-4l-4.63-3.41V90.82a3,3,0,0,0-.76-2L111,85.59a3,3,0,0,0-2.24-1h-.11a3,3,0,0,0-2.27,1.17l-1.87,2.45-2.46-2.88,1-.76a3,3,0,0,0,1.16-2.37V79.28h4.57a3,3,0,0,0,1.46-.38l5.49-3.05a2.91,2.91,0,0,0,1.09-1l6.44-10.34,18.3-11m0-3.51L121.09,62.28l-6.82,11-5.5,3H101.2V82.2l-3.47,2.7L104.66,93l4.11-5.38,2.88,3.23v6.46l5.85,4.31-2.69,4.3-3.16,3.23,5.85,7.54s3.77-1.08,4.31-2.69,2.69-7.54,2.69-7.54l6.46-1.08,6.45-1.9v2.44l3.4,2.16,4.29-4.31-2.29-5,4-3,1.22,4.8,2.86,8.61,3.23-.53L148,116.66h-7.21a44.12,44.12,0,0,0-7.16,4.13c-2.15,1.79-10.13,7.64-10.13,7.64l2.4,13.73,4.5,5.43,3.77,2.32,3.23,5.46s2.47,8.19.88,9.93c-.78.85.45,1.46,1.09,1.82A67.28,67.28,0,0,0,141.56,50Z"/><path class="cls-3" d="M90.72,97.76v2.88l-7.9,5-3.49-5.5a4.4,4.4,0,0,1,2.15-.59,39.45,39.45,0,0,0,9.24-1.83m3-4.09s-8.48,2.92-12.24,2.92a8.28,8.28,0,0,0-6.07,3l6.48,10.23,11.83-7.53V93.67Z"/><path class="cls-3" d="M58.64,145.59l9.2,9.38a3,3,0,0,0,1.7.87c1.43.21,5.77,1.4,7,4A37.3,37.3,0,0,0,81,166.57a63.77,63.77,0,0,1-25.57-20.81l3.21-.17m1.19-3.06-9.82.52a67.36,67.36,0,0,0,40.74,30.08s-9.37-9.78-11.51-14.5S70,152.87,70,152.87L59.83,142.53Z"/><path class="cls-3" d="M80.12,57.91,86.57,62v3.79H81A3,3,0,0,0,80,66s-4.51,1.61-7.8,2.66a45.38,45.38,0,0,0-7.68,3.49,3,3,0,0,0-1.37,1.75l-2.22,7.53a3,3,0,0,0,.65,2.86l3.8,4.22-1.12,4.87-6.82,9.19a2.73,2.73,0,0,0-.34.6l-4.49,10.38L48,119.15a3,3,0,0,0-.68,1.9v3.77a3,3,0,0,0,.29,1.29l.77,1.62-1.91.76A64.38,64.38,0,0,1,67.06,57.91H80.12m.87-3H66a67.37,67.37,0,0,0-21.29,77.52l7.76-3.11-2.15-4.5v-3.77l4.84-5.93,4.66-10.76L67,94.67l1.61-7-4.84-5.39L66,74.74a42.59,42.59,0,0,1,7.08-3.23c3.38-1.07,7.9-2.69,7.9-2.69h8.58V60.39L81,54.91Z"/><path class="cls-4" d="M178.86,36c-6.82-6.82-20.8-5-38.08,3.55L144,41.26h0c9.11-4.31,17-6.51,23-6.51,4.25,0,7.59,1.09,9.8,3.31,5.65,5.65,4,18.55-4.46,35.4-8.85,17.56-24,37.54-42.74,56.25s-38.69,33.89-56.25,42.74C56.51,181,43.61,182.57,38,176.92c-5.3-5.3-4.17-17,3-32.32l0,0-1.71-3.26c-8.34,17.07-10.07,30.85-3.31,37.61,2.83,2.83,6.88,4.18,11.88,4.18,19.11,0,52.11-19.62,83.87-51.38C171.74,91.69,192.48,49.63,178.86,36Z"/></g></svg>