<?xml version="1.0" encoding="UTF-8" standalone="no"?>
<svg
   xmlns:dc="http://purl.org/dc/elements/1.1/"
   xmlns:cc="http://creativecommons.org/ns#"
   xmlns:rdf="http://www.w3.org/1999/02/22-rdf-syntax-ns#"
   xmlns:svg="http://www.w3.org/2000/svg"
   xmlns="http://www.w3.org/2000/svg"
   xmlns:sodipodi="http://sodipodi.sourceforge.net/DTD/sodipodi-0.dtd"
   xmlns:inkscape="http://www.inkscape.org/namespaces/inkscape"
   version="1.0"
   width="250.79169mm"
   height="250.79169mm"
   id="svg4181"
   inkscape:version="0.92.1 r15371"
   viewBox="0 0 250.79168 250.79169"
   sodipodi:docname="vibuch.svg">
  <metadata
     id="metadata4404">
    <rdf:RDF>
      <cc:Work
         rdf:about="">
        <dc:format>image/svg+xml</dc:format>
        <dc:type
           rdf:resource="http://purl.org/dc/dcmitype/StillImage" />
        <dc:title></dc:title>
      </cc:Work>
    </rdf:RDF>
  </metadata>
  <sodipodi:namedview
     pagecolor="#ffffff"
     bordercolor="#666666"
     borderopacity="1"
     objecttolerance="10"
     gridtolerance="10"
     guidetolerance="10"
     inkscape:pageopacity="0"
     inkscape:pageshadow="2"
     inkscape:window-width="1920"
     inkscape:window-height="1062"
     id="namedview4402"
     inkscape:document-units="mm"
     showgrid="false"
     inkscape:zoom="0.56375"
     inkscape:cx="136.85353"
     inkscape:cy="497.8969"
     inkscape:window-x="0"
     inkscape:window-y="0"
     inkscape:window-maximized="1"
     inkscape:current-layer="svg4181"
     showborder="true"
     fit-margin-top="0"
     fit-margin-left="0"
     fit-margin-right="0"
     fit-margin-bottom="0" />
  <defs
     id="defs4183">
    <pattern
       id="EMFhbasepattern"
       patternUnits="userSpaceOnUse"
       width="6"
       height="6"
       x="0"
       y="0" />
  </defs>
  <circle
     cx="125.39584"
     cy="125.39584"
     r="125.39584"
     id="circle2"
     style="fill:#fff000;fill-opacity:1;stroke:none;stroke-width:1.32291663;stroke-miterlimit:4;stroke-dasharray:none;stroke-opacity:1" />
  <g
     id="g5084"
     transform="matrix(2.7685701,0,0,2.7685701,30.166568,35.333943)">
    <path
       inkscape:export-ydpi="90"
       inkscape:export-xdpi="90"
       inkscape:connector-curvature="0"
       id="path4186"
       d="m 31.065933,3.1054807 c 0.639595,-1.239944 1.850058,-2.33219459 3.336001,-2.20431719 1.387544,-0.1278774 2.597911,0.81677239 3.217886,1.99765819 9.594593,16.6504313 19.208999,33.3008623 28.813453,49.9512453 0.79715,1.259605 0.865972,3.040765 -0.0984,4.221651 -0.728231,0.95454 -1.948456,1.358014 -3.099765,1.328485 H 5.5588942 c -1.3875351,0.06889 -2.7553852,-0.379493 -3.4343914,-1.59973 -0.5465343,-0.734874 -0.4542311,-2.466305 0,-3.438692 C 11.709333,36.573563 21.441762,19.873932 31.065933,3.1054807 M 33.506388,2.5347084 C 32.758533,3.0562793 32.423901,3.9517343 31.951623,4.6996827 22.514392,21.074538 13.067301,37.449392 3.6104453,53.824295 c -0.4821946,0.738052 -0.6396458,1.81068 0.02952,2.499532 0.4723553,0.580594 1.2497657,0.659323 1.9484585,0.639642 19.3270792,-0.0098 38.6443412,0 57.9713632,-0.0098 1.545001,0.226338 2.666831,-1.653231 1.761516,-2.922677 C 55.933273,37.734828 46.51576,21.438651 37.127727,5.1424801 36.694788,4.4142486 36.320817,3.6466759 35.809101,2.9775058 35.297387,2.2591344 34.244477,2.1509692 33.506388,2.5347084 Z"
       style="fill:#fff000;fill-opacity:1;fill-rule:evenodd;stroke:none;stroke-width:0.15975489"
       sodipodi:nodetypes="cccccccccccccccccccc" />
    <path
       inkscape:export-ydpi="90"
       inkscape:export-xdpi="90"
       inkscape:connector-curvature="0"
       id="path4188"
       d="m 27.050902,21.005618 c 2.55857,-4.221593 4.900721,-8.561304 7.360796,-12.8420531 0.856208,1.6434001 1.958317,3.1785421 2.66683,4.8810021 -2.548712,6.504686 -5.26474,12.950315 -7.892135,19.425517 -0.196893,0.452658 -0.187034,0.954512 -0.206657,1.436651 0.442797,-0.314821 0.91517,-0.649455 1.161169,-1.151311 3.050566,-5.392718 5.924055,-10.893598 9.004198,-16.266596 0.88569,1.603965 1.820483,3.188307 2.696311,4.802226 -0.747855,0.96437 -1.239849,2.115775 -2.096058,3.011226 -2.774994,3.286802 -5.245023,6.809743 -7.82331,10.254004 3.670539,-3.808376 7.252538,-7.695432 10.883833,-11.543149 0.551056,0.944749 1.19065,1.859918 1.594107,2.883346 -2.89311,2.981745 -5.924055,5.825657 -8.866365,8.768061 -0.551149,0.551055 -0.777429,1.308766 -1.062863,2.017279 1.033288,-0.383738 2.027233,-0.895452 2.853864,-1.623683 2.666827,-2.263372 5.402479,-4.45783 7.961051,-6.839225 1.348202,0.806912 1.761517,2.430595 2.597913,3.660681 -3.040709,1.78114 -6.081512,3.572141 -9.122221,5.353282 -0.954606,0.570772 -1.978034,1.053004 -2.765228,1.850058 1.92874,-0.285339 3.542563,-1.446507 5.3238,-2.135396 2.578193,-0.97423 5.058083,-2.164976 7.596934,-3.227744 0.875831,1.545003 1.731942,3.109626 2.656973,4.625146 -2.460171,0.698654 -4.999026,1.121829 -7.459198,1.820482 -2.046857,0.777429 -4.339711,0.639689 -6.29803,1.6926 0.600255,0.649454 1.426886,0.324775 2.164976,0.255857 4.260938,-0.541196 8.512106,-1.141545 12.782995,-1.613824 0.600255,1.06277 1.210367,2.115679 1.790999,3.198166 -5.363139,0.245998 -10.726278,0.344493 -16.079655,0.679031 5.628858,0.462515 11.27743,0.452656 16.916145,0.757713 0.354258,0.619972 0.708513,1.230085 1.062771,1.850059 -6.130714,-0.246 -12.251662,-0.797054 -18.382371,-0.856114 0.177175,0.354258 0.452653,0.551056 0.82663,0.600255 6.229111,0.865973 12.497658,1.515426 18.707145,2.43069 0.698655,0.934793 1.180792,2.007459 1.781139,3.001368 -16.670147,-0.0098 -33.320577,0.05904 -49.9906306,0 2.8537686,-4.969543 5.6681976,-9.958804 8.4924836,-14.938111 0.619974,-1.318722 1.466322,-2.499512 2.243657,-3.719835 1.358062,-2.696311 2.863629,-5.313941 4.428346,-7.89223 0,1.495802 -0.216515,2.991605 -0.127974,4.487406 0.167316,1.535144 -0.354257,3.040709 -0.157458,4.575851 0.442892,-1.003709 0.610112,-2.096056 0.698749,-3.188306 0.698652,-2.263374 0.659311,-4.654628 1.190744,-6.957342 0.08854,-1.220323 0.0984,-2.509374 0.885595,-3.523038 M 26.09639,36.485024 c -0.472374,-0.05906 -0.944747,-0.07868 -1.407261,-0.06892 -2.489654,0.787289 -5.136766,1.71232 -6.760545,3.877292 -0.610113,1.052911 -1.456365,1.997659 -1.702364,3.227744 -0.590491,1.289145 0,2.676594 0.452656,3.90668 1.072628,1.751659 3.336002,1.751659 5.146625,1.859917 l -0.206659,-0.688796 c -0.570772,0.01962 -1.269426,0.226282 -1.623681,-0.39369 0.580631,0 1.161167,0.02958 1.741799,0.08854 0.157458,-1.19065 1.033287,-1.997562 1.761519,-2.863628 0.767571,-0.295197 1.515423,-0.619877 2.292854,-0.875734 -0.551055,0.639595 -1.121827,1.259569 -1.682741,1.889399 0.118022,0.403456 0.551055,1.161169 -0.06892,1.397307 -0.167316,-0.0492 -0.491996,-0.137739 -0.659313,-0.17708 0.196798,0.600255 -0.0099,0.993851 -0.619972,1.151309 0.01972,0.05906 0.05906,0.177176 0.07868,0.236234 0.72823,-0.314915 1.41712,-0.72823 1.987892,-1.289145 0.619972,-0.108256 1.23985,-0.157456 1.859824,-0.196797 0.226374,0.216421 0.44289,0.432937 0.649547,0.659313 -0.580632,0.27548 -1.171027,0.531338 -1.741799,0.846252 0.619973,-0.08854 1.230085,-0.403455 1.859821,-0.305055 0.501952,0.34449 0.934889,0.767569 1.387545,1.180886 -0.747854,0.216515 -1.515425,0.423173 -2.302713,0.334632 -0.33454,-0.07878 -0.925031,-0.511714 -0.1476,-0.767571 -1.407167,0.629736 -3.395059,1.14145 -4.556228,-0.157458 -0.147599,0.1968 -0.28534,0.393598 -0.423175,0.600255 1.043147,0.472373 2.125635,0.87582 3.257321,1.102157 2.430595,0.157448 4.674251,-0.875783 6.986822,-1.446555 1.180888,-0.255857 2.096058,-1.092345 3.090005,-1.722177 0.659313,0.02958 1.308766,0.137835 1.968176,0.07878 1.712221,-1.505661 0.875733,-4.044515 0.275478,-5.884714 -0.974227,-1.426884 -1.96808,-2.883345 -3.286802,-4.015031 -2.125537,-1.574484 -5.038366,-2.637253 -7.606795,-1.584342 z"
       style="fill:#fff000;fill-opacity:1;fill-rule:evenodd;stroke:none;stroke-width:0.15975489" />
    <path
       inkscape:export-ydpi="90"
       inkscape:export-xdpi="90"
       inkscape:connector-curvature="0"
       id="path4190"
       d="m 22.809588,38.856654 c 0,-1.456462 2.204314,-2.75537 3.237602,-1.46632 -0.521572,0.01972 -1.043146,0.02958 -1.564719,0.0492 -0.432939,0.610207 -0.885593,1.249804 -1.672883,1.41712 z"
       style="fill:#fff000;fill-opacity:1;fill-rule:evenodd;stroke:none;stroke-width:0.15975489" />
    <path
       inkscape:export-ydpi="90"
       inkscape:export-xdpi="90"
       inkscape:connector-curvature="0"
       id="path4192"
       d="m 26.057049,37.724966 c 0.118022,-0.66917 0.777335,-1.053004 1.397307,-1.161167 0.747949,-0.236235 0.885689,0.797054 1.141546,1.220227 0.07878,-0.344492 0.245999,-1.01357 0.334634,-1.348204 0.305057,0.245999 0.619878,0.491997 0.924935,0.747854 0.846348,-0.491997 1.633636,0.177177 2.352007,0.551152 -0.03944,0.157456 -0.127976,0.462512 -0.177175,0.610112 0.610112,0.0984 1.239946,0.108257 1.810718,0.383739 -0.492091,0.0492 -0.97423,0.08864 -1.46632,0.0984 0.669172,0.639692 0.177175,1.515519 -0.0099,2.263373 -0.07868,0.0099 -0.245999,0.02958 -0.334538,0.03934 -0.383834,-0.600255 -0.659314,-1.259569 -1.043147,-1.859824 0.07878,0.787196 0.698749,1.712224 0.05906,2.420737 -0.413315,0.767572 -1.348107,0.895548 -1.9878,1.387544 -0.403454,0.492091 -0.354254,1.180885 -0.521572,1.751659 l -0.521573,-0.0492 c 0.0099,-0.462514 0.01972,-0.934888 0.02958,-1.397403 -0.295198,0.01972 -0.600255,0.0492 -0.905406,0.06892 -0.23614,0.255857 -0.698654,0.757711 -0.934794,1.013569 -0.245997,-0.541197 0.354258,-2.135397 -0.619972,-2.076339 -0.334632,0.393598 -0.610112,0.836394 -0.925029,1.239946 -0.0984,-0.747949 -0.108258,-1.515521 -0.0984,-2.273234 1.259568,0.580632 2.637252,0.73809 4.014937,0.619972 -0.295197,0.23614 -0.86597,0.728231 -1.15131,0.97423 0.196799,-0.05906 0.590396,-0.157458 0.797054,-0.206657 0.511714,-0.600255 1.180887,-1.033287 1.968175,-1.151405 -0.245998,-0.06882 -0.738088,-0.206657 -0.984088,-0.275481 0.511714,-0.54129 1.121827,-0.757711 1.820576,-0.629831 -0.511714,-0.491997 -0.895546,-1.082486 -0.974227,-1.800859 0.649453,-0.0099 1.289049,0.108259 1.889399,0.383833 -0.01972,-0.05906 -0.05906,-0.177174 -0.07878,-0.226374 -0.344398,-0.255857 -0.688794,-0.511714 -1.00371,-0.806912 0.177081,-0.05906 0.521573,-0.186941 0.688795,-0.255857 -0.147601,-1.053006 -1.298908,0.118116 -1.505567,0.590395 0.03934,-0.354255 0.108259,-1.072628 0.137741,-1.436743 -0.127881,0.206657 -0.373975,0.610209 -0.501856,0.816771 -0.797148,-0.0984 -1.584342,0.01972 -2.342056,0.255858 -0.314914,0.60035 -0.639688,1.249803 -1.446602,1.190745 1.279287,1.053005 1.830343,-1.584344 3.296661,-1.02343 0.196799,0.147599 0.600255,0.442893 0.797054,0.600255 -0.747854,0.255858 -1.505661,0.501951 -2.263372,0.747948 0.334632,0.05906 0.669171,0.108258 1.003803,0.167318 0.491998,-0.127977 0.993852,-0.177176 1.495707,-0.177176 -0.61997,0.777431 -1.357966,1.633541 -2.401111,1.83034 -1.052912,0.226376 -2.096058,-0.216421 -3.050569,-0.619972 0.531338,-1.023428 1.033288,-2.06648 1.289145,-3.198168 z"
       style="fill:#fff000;fill-opacity:1;fill-rule:evenodd;stroke:none;stroke-width:0.15975489" />
    <path
       inkscape:export-ydpi="90"
       inkscape:export-xdpi="90"
       inkscape:connector-curvature="0"
       id="path4194"
       d="m 20.211677,38.895995 c 0.708513,-0.698655 1.722082,-0.885689 2.627394,-1.239944 -0.147601,1.190743 -1.751565,0.993945 -2.627394,1.239944 z"
       style="fill:#fff000;fill-opacity:1;fill-rule:evenodd;stroke:none;stroke-width:0.15975489" />
    <path
       inkscape:export-ydpi="90"
       inkscape:export-xdpi="90"
       inkscape:connector-curvature="0"
       id="path4196"
       d="m 23.203184,39.427428 c 0.777432,-0.669174 1.348204,-1.62378 2.361774,-1.968176 -0.0099,1.653259 -1.121828,3.021085 -1.584342,4.566086 -0.305057,-0.580631 -0.462515,-1.200603 -0.511714,-1.850058 -0.127883,0.08854 -0.373974,0.245999 -0.491998,0.324775 0.07868,-0.354258 0.147601,-0.718373 0.22628,-1.072627 z"
       style="fill:#fff000;fill-opacity:1;fill-rule:evenodd;stroke:none;stroke-width:0.15975489" />
    <path
       inkscape:export-ydpi="90"
       inkscape:export-xdpi="90"
       inkscape:connector-curvature="0"
       id="path4198"
       d="m 20.172335,39.112511 c 0.0098,-0.05906 0.02948,-0.167316 0.03934,-0.216516 -0.0099,0.0492 -0.02958,0.157458 -0.03934,0.216516 z"
       style="fill:#fff000;fill-opacity:1;fill-rule:evenodd;stroke:none;stroke-width:0.15975489" />
    <path
       inkscape:export-ydpi="90"
       inkscape:export-xdpi="90"
       inkscape:connector-curvature="0"
       id="path4200"
       d="m 21.83536,38.945195 c 0.324774,-0.02948 0.649453,-0.05906 0.974228,-0.08854 -0.0492,0.560915 -0.0984,1.121829 -0.13774,1.682743 l -0.610112,0.0099 -0.08864,-0.619972 c -0.354257,0.334537 -0.708511,0.679031 -1.082391,1.003711 -0.255858,-0.373879 -0.501951,-0.757714 -0.728233,-1.151311 0.305059,-0.265717 0.629738,-0.511714 0.954513,-0.747948 l 0.118117,0.984087 c 0.206657,-0.344396 0.403456,-0.708511 0.600255,-1.072628 z"
       style="fill:#fff000;fill-opacity:1;fill-rule:evenodd;stroke:none;stroke-width:0.15975489" />
    <path
       inkscape:export-ydpi="90"
       inkscape:export-xdpi="90"
       inkscape:connector-curvature="0"
       id="path4202"
       d="m 20.014878,39.26011 c 0.03934,-0.03934 0.118022,-0.108258 0.157457,-0.147599 -0.03944,0.03934 -0.118116,0.108258 -0.157457,0.147599 z"
       style="fill:#fff000;fill-opacity:1;fill-rule:evenodd;stroke:none;stroke-width:0.15975489" />
    <path
       inkscape:export-ydpi="90"
       inkscape:export-xdpi="90"
       inkscape:connector-curvature="0"
       id="path4204"
       d="m 33.319447,39.43719 c 0.245999,-0.17708 0.511714,-0.334538 0.797054,-0.472278 -0.206657,1.062769 -0.806912,2.351913 0.127976,3.237507 0.432938,1.082487 -0.236234,2.027236 -1.210462,2.48975 0.108258,-0.74795 0.236234,-1.495803 0.265715,-2.243657 -0.23614,0.659314 -0.442797,1.328485 -0.649455,2.007421 -0.600253,-0.737994 -1.269426,-1.417026 -2.145255,-1.83034 0.472373,-0.364115 0.816771,-0.974229 1.436743,-1.102109 0.413314,0.364115 0.285339,1.09225 0.491997,1.5942 -0.03934,-1.289144 0.354256,-2.519229 0.885687,-3.680494 z"
       style="fill:#fff000;fill-opacity:1;fill-rule:evenodd;stroke:none;stroke-width:0.15975489" />
    <path
       inkscape:export-ydpi="90"
       inkscape:export-xdpi="90"
       inkscape:connector-curvature="0"
       id="path4206"
       d="m 18.94225,39.958764 c 0.334538,-0.275481 0.688794,-0.511715 1.072628,-0.698654 -0.147599,0.432937 -0.413315,0.777431 -0.797148,1.043147 -0.305057,0.403454 -0.610114,0.797053 -0.905311,1.210368 -0.413316,0.580631 -0.767572,1.230086 -1.407263,1.604059 0.541291,-1.131686 1.220323,-2.214174 2.037094,-3.15892 z"
       style="fill:#fff000;fill-opacity:1;fill-rule:evenodd;stroke:none;stroke-width:0.15975489" />
    <path
       inkscape:export-ydpi="90"
       inkscape:export-xdpi="90"
       inkscape:connector-curvature="0"
       id="path4208"
       d="m 34.146078,39.821024 c 0.688794,-0.186941 0.944652,0.570772 1.259568,1.023428 0.600254,0.885689 0.521573,1.997658 0.570771,3.021086 -0.452654,-0.167317 -0.90531,-0.364115 -1.338343,-0.570772 -0.06892,-0.649455 -0.0492,-1.299004 -0.02948,-1.948459 -0.177174,0.02958 -0.511714,0.08854 -0.679031,0.127977 0.03934,-0.560914 0.118118,-1.112064 0.216517,-1.65326 m 1.062768,2.814429 c -0.560914,1.013568 1.180887,0.05906 0,0 z"
       style="fill:#fff000;fill-opacity:1;fill-rule:evenodd;stroke:none;stroke-width:0.15975489" />
    <path
       inkscape:export-ydpi="90"
       inkscape:export-xdpi="90"
       inkscape:connector-curvature="0"
       id="path4210"
       d="m 18.312419,41.513625 c 0.757712,-0.157459 1.190745,-0.826631 1.702459,-1.318628 0.27548,0.442799 0.531337,0.905313 0.787194,1.357968 -0.245997,0.314915 -0.482137,0.619973 -0.718372,0.934889 0.216516,-0.167317 0.659313,-0.492092 0.875829,-0.659314 -0.01962,0.295199 -0.05906,0.875829 -0.07868,1.161169 -0.856206,0.472373 -1.023428,-0.462516 -1.289145,-1.043147 -0.442796,0.147694 -0.885687,0.305057 -1.318625,0.462515 0.0098,-0.216422 0.02948,-0.669173 0.03934,-0.895452 z"
       style="fill:#fff000;fill-opacity:1;fill-rule:evenodd;stroke:none;stroke-width:0.15975489" />
    <path
       inkscape:export-ydpi="90"
       inkscape:export-xdpi="90"
       inkscape:connector-curvature="0"
       id="path4212"
       d="m 20.831649,41.218427 c 0.373879,-0.147599 0.747854,-0.295293 1.131687,-0.442892 -0.0099,0.314915 -0.01972,0.944747 -0.02958,1.249803 0.364115,-0.354255 0.433032,-1.515424 1.171028,-0.993946 -0.108258,1.200605 -0.846254,2.283091 -0.895454,3.513176 -0.708513,-0.196798 -1.308862,-0.610113 -1.554859,-1.328485 0.354255,0.0984 0.718371,0.196799 1.082486,0.305057 -0.354256,-0.747948 -0.63969,-1.515519 -0.905311,-2.302713 z"
       style="fill:#fff000;fill-opacity:1;fill-rule:evenodd;stroke:none;stroke-width:0.15975489" />
    <path
       inkscape:export-ydpi="90"
       inkscape:export-xdpi="90"
       inkscape:connector-curvature="0"
       id="path4214"
       d="m 36.06496,41.651364 c 0.738088,1.082488 0.96437,2.410973 1.082484,3.690258 0.08854,0.915171 -0.196797,2.007515 -1.180885,2.322432 0.196802,-0.659313 0.472376,-1.289144 0.63969,-1.958317 -0.0492,-1.367826 -0.39369,-2.696311 -0.541289,-4.054373 z"
       style="fill:#fff000;fill-opacity:1;fill-rule:evenodd;stroke:none;stroke-width:0.15975489" />
    <path
       inkscape:export-ydpi="90"
       inkscape:export-xdpi="90"
       inkscape:connector-curvature="0"
       id="path4216"
       d="m 22.721047,45.134965 c 0.0984,-1.052911 -0.314915,-3.188403 1.29891,-3.099767 0.137835,0.491995 -0.05896,1.161168 0.334634,1.554765 0.423173,0.492091 1.102109,0.147599 1.633541,0.206657 -1.023429,0.580632 -2.105916,1.092346 -3.267085,1.338345 z"
       style="fill:#fff000;fill-opacity:1;fill-rule:evenodd;stroke:none;stroke-width:0.15975489" />
    <path
       inkscape:export-ydpi="90"
       inkscape:export-xdpi="90"
       inkscape:connector-curvature="0"
       id="path4218"
       d="m 17.840043,43.698221 c 0.354258,-0.511715 0.816773,-1.476083 1.594204,-1.05291 0.423173,0.413316 0.236139,1.06277 0.324774,1.594202 0.05896,0 0.17708,0 0.23614,0 0.01972,-0.236234 0.0492,-0.698749 0.06892,-0.934889 0.767571,0.993946 1.958221,1.495803 2.74551,2.450313 -1.15131,-0.393596 -2.302713,-0.846254 -3.542659,-0.747854 -0.551055,-0.433032 -0.619972,-1.082487 -0.324679,-1.702459 -0.275576,0.0984 -0.826631,0.295197 -1.102207,0.393597 z"
       style="fill:#fff000;fill-opacity:1;fill-rule:evenodd;stroke:none;stroke-width:0.15975489" />
    <path
       inkscape:export-ydpi="90"
       inkscape:export-xdpi="90"
       inkscape:connector-curvature="0"
       id="path4220"
       d="m 16.56076,44.495369 c 0.0492,-0.521573 0.413314,-1.348202 1.01357,-1.289144 -0.02948,0.452656 -0.501856,0.787195 -0.501856,1.279285 0.06892,0.590397 -0.679032,0.659313 -0.511714,0.0099 z"
       style="fill:#fff000;fill-opacity:1;fill-rule:evenodd;stroke:none;stroke-width:0.15975489" />
    <path
       inkscape:export-ydpi="90"
       inkscape:export-xdpi="90"
       inkscape:connector-curvature="0"
       id="path4222"
       d="m 29.156816,43.107826 c 0.96437,-0.0984 1.958317,0.01962 2.755371,0.639594 -0.265717,0.07878 -0.787195,0.226376 -1.052911,0.305059 0.305057,0.0099 0.925029,0.02958 1.230086,0.03944 -1.151405,1.14145 -1.830341,2.88325 -3.690257,3.001368 0.452654,-1.279285 0.364114,-2.676688 0.757711,-3.985456 m 0.83649,0.984088 c -0.265717,0.442796 -0.314916,1.082392 -0.196799,1.584342 0.610113,0 0.806912,-1.466321 0.196799,-1.584342 z"
       style="fill:#fff000;fill-opacity:1;fill-rule:evenodd;stroke:none;stroke-width:0.15975489" />
    <path
       inkscape:export-ydpi="90"
       inkscape:export-xdpi="90"
       inkscape:connector-curvature="0"
       id="path4224"
       d="m 17.564469,45.184165 c 0.127977,-0.452656 -0.403456,-1.535144 0.492092,-1.318627 0.423175,0.570772 0.806912,1.180886 1.121827,1.810718 -0.669171,0.245999 -1.358062,0.413315 -2.036997,0.649455 0.737994,0.03934 1.466225,-0.0984 2.184597,-0.255859 -0.206658,0.944653 -0.206658,1.87954 0.73809,2.391254 -0.403457,0.03934 -1.200605,0.0984 -1.594201,0.137835 0.01962,-0.196893 0.05906,-0.58063 0.07868,-0.777429 -0.442797,-0.187035 -0.895453,-0.334634 -1.308768,-0.570774 -0.236234,-0.511714 -0.373973,-1.053004 -0.541291,-1.584342 0.285434,-0.157458 0.570772,-0.324774 0.86597,-0.482231 z"
       style="fill:#fff000;fill-opacity:1;fill-rule:evenodd;stroke:none;stroke-width:0.15975489" />
    <path
       inkscape:export-ydpi="90"
       inkscape:export-xdpi="90"
       inkscape:connector-curvature="0"
       id="path4226"
       d="m 24.354591,46.532368 c 1.023428,-1.102206 2.263372,-1.9878 3.316283,-3.060428 0.0099,0.403457 0.01972,0.816771 0.01972,1.239852 0.482138,0.45275 0.610113,1.082486 0.708514,1.712318 -0.334635,0.265714 -0.669173,0.541195 -1.003807,0.816769 -0.05896,-0.551055 -0.11802,-1.102109 -0.17708,-1.653258 -0.147599,-0.02948 -0.442798,-0.07868 -0.590491,-0.10826 -0.432939,0.403552 -0.865971,0.797148 -1.279285,1.210463 0.551149,-0.255855 1.062863,-0.580631 1.564719,-0.905404 0.118116,0.521572 0.245999,1.033286 0.383738,1.554859 -0.71837,0.0099 -1.436743,0.0099 -2.164879,0.03934 -0.265715,-0.27548 -0.531432,-0.560914 -0.777429,-0.846252 z"
       style="fill:#fff000;fill-opacity:1;fill-rule:evenodd;stroke:none;stroke-width:0.15975489" />
    <path
       inkscape:export-ydpi="90"
       inkscape:export-xdpi="90"
       inkscape:connector-curvature="0"
       id="path4228"
       d="m 33.772105,44.820048 c 0.324773,-0.334538 0.669171,-0.659313 1.023428,-0.974228 0.974227,-0.07868 1.495801,1.062863 1.446601,1.8894 -0.157459,0.580631 -0.560914,1.053004 -0.856206,1.564718 -0.137741,-0.826628 -0.206658,-1.682742 0.127976,-2.47003 -0.580632,0.01972 -1.161169,0.0099 -1.741799,-0.0099 z"
       style="fill:#fff000;fill-opacity:1;fill-rule:evenodd;stroke:none;stroke-width:0.15975489" />
    <path
       inkscape:export-ydpi="90"
       inkscape:export-xdpi="90"
       inkscape:connector-curvature="0"
       id="path4230"
       d="m 30.69196,46.17811 c 0.442796,-0.570772 0.836488,-1.338343 1.6434,-1.426883 0.865971,-0.344494 1.082487,0.934793 1.239944,1.456366 -0.295196,-0.167222 -0.590489,-0.344397 -0.885687,-0.521573 -0.157458,0.403551 -0.324776,0.816769 -0.482139,1.230086 -0.07878,0.324773 -0.167316,0.659407 -0.255855,0.984087 -0.826631,0 -2.017377,0.393597 -2.135494,-0.77743 0.541292,-0.482139 1.299004,-0.491997 1.968176,-0.649453 -0.265717,-0.06892 -0.816771,-0.216517 -1.092345,-0.2952 z"
       style="fill:#fff000;fill-opacity:1;fill-rule:evenodd;stroke:none;stroke-width:0.15975489" />
    <path
       inkscape:export-ydpi="90"
       inkscape:export-xdpi="90"
       inkscape:connector-curvature="0"
       id="path4232"
       d="m 19.778643,47.604996 c -0.01962,-0.826631 -0.295196,-1.722083 0.216518,-2.470031 0.885687,0.324774 1.751658,0.708513 2.568429,1.200604 -0.816771,0.0984 -1.6434,0.157458 -2.47003,0.206658 0.649453,0.147597 1.308863,0.275479 1.958317,0.423078 -0.501857,0.856207 -1.426886,0.954606 -2.273234,0.639691 z"
       style="fill:#fff000;fill-opacity:1;fill-rule:evenodd;stroke:none;stroke-width:0.15975489" />
    <path
       inkscape:export-ydpi="90"
       inkscape:export-xdpi="90"
       inkscape:connector-curvature="0"
       id="path4234"
       d="m 33.653987,48.16591 c 0.118118,-0.944748 -0.305057,-2.233797 0.403456,-2.971887 1.407262,-0.275575 0.698749,1.643402 0.934887,2.43069 -0.393598,-0.482231 -0.659312,-1.013664 -0.816771,-1.613919 -0.06892,0.73809 0.226375,1.65326 -0.521572,2.155116 z"
       style="fill:#fff000;fill-opacity:1;fill-rule:evenodd;stroke:none;stroke-width:0.15975489" />
    <path
       inkscape:export-ydpi="90"
       inkscape:export-xdpi="90"
       inkscape:connector-curvature="0"
       id="path4236"
       d="m 33.02425,47.270362 c -0.797148,0.846348 -0.600349,-1.298908 0.108163,-0.659313 -0.02948,0.167316 -0.07868,0.492091 -0.108163,0.659313 z"
       style="fill:#fff000;fill-opacity:1;fill-rule:evenodd;stroke:none;stroke-width:0.15975489" />
    <path
       inkscape:export-ydpi="90"
       inkscape:export-xdpi="90"
       inkscape:connector-curvature="0"
       id="path4238"
       d="m 26.854103,47.634477 c 0.816771,-0.167222 1.633542,-0.334539 2.450312,-0.482137 0.570773,0.698653 1.003806,1.476084 1.180886,2.361772 -1.5942,0.354256 -2.627489,-0.885688 -3.631198,-1.879635 z"
       style="fill:#fff000;fill-opacity:1;fill-rule:evenodd;stroke:none;stroke-width:0.15975489" />
    <path
       inkscape:export-ydpi="90"
       inkscape:export-xdpi="90"
       inkscape:connector-curvature="0"
       id="path4240"
       d="m 30.308221,48.687482 c 0.954511,-0.551055 2.036998,-0.81677 3.129248,-0.846348 -0.452654,0.442892 -0.934793,0.865971 -1.426882,1.269521 -0.482139,-0.67903 -0.816773,-0.58063 -1.013572,0.295199 -0.236138,-0.236235 -0.462514,-0.472375 -0.688794,-0.718372 z"
       style="fill:#fff000;fill-opacity:1;fill-rule:evenodd;stroke:none;stroke-width:0.15975489" />
    <path
       inkscape:export-ydpi="90"
       inkscape:export-xdpi="90"
       inkscape:connector-curvature="0"
       id="path4242"
       d="m 25.23042,50.193048 c 0.629736,-0.619877 0.551055,1.003787 -0.01972,0.324775 z"
       style="fill:#fff000;fill-opacity:1;fill-rule:evenodd;stroke:none;stroke-width:0.15975489" />
    <path
       inkscape:export-ydpi="90"
       inkscape:export-xdpi="90"
       inkscape:connector-curvature="0"
       id="path4244"
       d="m 33.506388,2.5347084 c 0.738089,-0.3837392 1.790999,-0.275574 2.302713,0.4427974 0.511716,0.6691701 0.885687,1.4367428 1.318626,2.1649743 9.388033,16.2961709 18.805546,32.5923479 28.193575,48.8884729 0.905315,1.269446 -0.216514,3.149013 -1.761516,2.922677 -19.327022,0.0098 -38.644283,0 -57.9713627,0.0098 C 4.8897305,56.98315 4.1123201,56.904421 3.6399648,56.323827 2.9707995,55.634975 3.1282507,54.562347 3.6104453,53.824295 13.067301,37.449392 22.514392,21.074538 31.951623,4.6996827 32.423901,3.9517343 32.758533,3.0562793 33.506388,2.5347084 M 27.050902,21.005618 c -0.787196,1.013664 -0.797054,2.302715 -0.885595,3.523038 -0.531433,2.302714 -0.492092,4.693968 -1.190744,6.957342 -0.08864,1.09225 -0.255857,2.184597 -0.698749,3.188306 -0.196799,-1.535142 0.324774,-3.040707 0.157458,-4.575851 -0.08854,-1.495801 0.127974,-2.991604 0.127974,-4.487406 -1.564717,2.578289 -3.070284,5.195919 -4.428346,7.89223 -0.777335,1.220323 -1.623683,2.401113 -2.243657,3.719835 -2.824286,4.979307 -5.638715,9.968568 -8.4924836,14.938111 16.6700536,0.05904 33.3204836,-0.0098 49.9906306,0 -0.600347,-0.993909 -1.082484,-2.066575 -1.781139,-3.001368 -6.209487,-0.915264 -12.478034,-1.564717 -18.707145,-2.43069 -0.373977,-0.0492 -0.649455,-0.245997 -0.82663,-0.600255 6.130709,0.05906 12.251657,0.610114 18.382371,0.856114 -0.354258,-0.619974 -0.708513,-1.230087 -1.062771,-1.850059 -5.638715,-0.305057 -11.287287,-0.295198 -16.916145,-0.757713 5.353377,-0.334538 10.716516,-0.433033 16.079655,-0.679031 -0.580632,-1.082487 -1.190744,-2.135396 -1.790999,-3.198166 -4.270889,0.472279 -8.522057,1.072628 -12.782995,1.613824 -0.73809,0.06892 -1.564721,0.393597 -2.164976,-0.255857 1.958319,-1.052911 4.251173,-0.915171 6.29803,-1.6926 2.460172,-0.698653 4.999027,-1.121828 7.459198,-1.820482 -0.925031,-1.51552 -1.781142,-3.080143 -2.656973,-4.625146 -2.538851,1.062768 -5.018741,2.253514 -7.596934,3.227744 -1.781237,0.688889 -3.39506,1.850057 -5.3238,2.135396 0.787194,-0.797054 1.810622,-1.279286 2.765228,-1.850058 3.040709,-1.781141 6.081512,-3.572142 9.122221,-5.353282 -0.836396,-1.230086 -1.249711,-2.853769 -2.597913,-3.660681 -2.558572,2.381395 -5.294224,4.575853 -7.961051,6.839225 -0.826631,0.728231 -1.820576,1.239945 -2.853864,1.623683 0.285434,-0.708513 0.511714,-1.466224 1.062863,-2.017279 2.94231,-2.942404 5.973255,-5.786316 8.866365,-8.768061 -0.403457,-1.023428 -1.043051,-1.938597 -1.594107,-2.883346 -3.631295,3.847717 -7.213294,7.734773 -10.883833,11.543149 2.578287,-3.444261 5.048316,-6.967202 7.82331,-10.254004 0.856209,-0.895451 1.348203,-2.046856 2.096058,-3.011226 -0.875828,-1.613919 -1.810621,-3.198261 -2.696311,-4.802226 -3.080143,5.372998 -5.953632,10.873878 -9.004198,16.266596 -0.245999,0.501856 -0.718372,0.83649 -1.161169,1.151311 0.01962,-0.482139 0.0098,-0.983993 0.206657,-1.436651 2.627395,-6.475202 5.343423,-12.920831 7.892135,-19.425517 -0.708513,-1.70246 -1.810622,-3.237602 -2.66683,-4.8810021 -2.460075,4.2807491 -4.802226,8.6204601 -7.360796,12.8420531 z"
       style="fill:#000000;fill-opacity:1;fill-rule:evenodd;stroke:none;stroke-width:0.15975489" />
    <path
       inkscape:export-ydpi="90"
       inkscape:export-xdpi="90"
       inkscape:connector-curvature="0"
       id="path4260"
       d="m 26.09639,36.485024 c 2.568429,-1.052911 5.481258,0.0099 7.606795,1.584342 1.318722,1.131686 2.312575,2.588147 3.286802,4.015031 0.600255,1.840199 1.436743,4.379053 -0.275478,5.884714 -0.65941,0.05906 -1.308863,-0.0492 -1.968176,-0.07878 -0.993947,0.629832 -1.909117,1.46632 -3.090005,1.722177 -2.312571,0.570772 -4.556227,1.604003 -6.986822,1.446555 -1.131686,-0.226337 -2.214174,-0.629784 -3.257321,-1.102157 0.137835,-0.206657 0.275576,-0.403455 0.423175,-0.600255 1.161169,1.298908 3.149061,0.787194 4.556228,0.157458 -0.777431,0.255857 -0.18694,0.688796 0.1476,0.767571 0.787288,0.08854 1.554859,-0.118117 2.302713,-0.334632 -0.452656,-0.413317 -0.885593,-0.836396 -1.387545,-1.180886 -0.629736,-0.0984 -1.239848,0.216514 -1.859821,0.305055 0.570772,-0.314914 1.161167,-0.570772 1.741799,-0.846252 -0.206657,-0.226376 -0.423173,-0.442892 -0.649547,-0.659313 -0.619974,0.03934 -1.239852,0.08854 -1.859824,0.196797 -0.570772,0.560915 -1.259662,0.97423 -1.987892,1.289145 -0.01962,-0.05906 -0.05897,-0.177174 -0.07868,-0.236234 0.610113,-0.157458 0.81677,-0.551054 0.619972,-1.151309 0.167317,0.03934 0.491997,0.127881 0.659313,0.17708 0.619973,-0.236138 0.18694,-0.993851 0.06892,-1.397307 0.560914,-0.62983 1.131686,-1.249804 1.682741,-1.889399 -0.777431,0.255857 -1.525283,0.580537 -2.292854,0.875734 -0.728232,0.866066 -1.604061,1.672978 -1.761519,2.863628 -0.580632,-0.05896 -1.161168,-0.08854 -1.741799,-0.08854 0.354255,0.619972 1.052909,0.413315 1.623681,0.39369 l 0.206659,0.688796 C 20.014878,49.179479 17.751504,49.179479 16.678876,47.42782 16.22622,46.197734 15.635729,44.810285 16.22622,43.52114 c 0.245999,-1.230085 1.092251,-2.174833 1.702364,-3.227744 1.623779,-2.164972 4.270891,-3.090003 6.760545,-3.877292 0.462514,-0.0098 0.934887,0.0099 1.407261,0.06892 m -3.286802,2.37163 c 0.78729,-0.167316 1.239944,-0.806913 1.672883,-1.41712 0.521573,-0.01962 1.043147,-0.02948 1.564719,-0.0492 -1.033288,-1.28905 -3.237602,0.0099 -3.237602,1.46632 m 3.247461,-1.131688 c -0.255857,1.131688 -0.757807,2.17474 -1.289144,3.198168 0.95451,0.403551 1.997657,0.846348 3.050568,0.619972 1.043145,-0.196799 1.781141,-1.052909 2.401113,-1.83034 -0.501856,0 -1.003712,0.0492 -1.495707,0.177176 -0.334634,-0.05906 -0.669173,-0.10826 -1.003806,-0.167318 0.757711,-0.245997 1.51552,-0.49209 2.263374,-0.747948 -0.1968,-0.157362 -0.600255,-0.452656 -0.797054,-0.600255 -1.46632,-0.560914 -2.017375,2.076435 -3.29666,1.02343 0.806912,0.05906 1.131686,-0.590395 1.446601,-1.190745 0.757713,-0.23614 1.544908,-0.354258 2.342056,-0.255858 0.127881,-0.206562 0.373974,-0.610114 0.501856,-0.816771 -0.02948,0.364115 -0.0984,1.082488 -0.137741,1.436743 0.206658,-0.472279 1.357966,-1.643401 1.505566,-0.590395 -0.167222,0.06892 -0.511715,0.196798 -0.688795,0.255857 0.314915,0.295198 0.659312,0.551055 1.003711,0.806912 0.01972,0.0492 0.05906,0.167316 0.07878,0.226374 -0.600348,-0.275574 -1.239944,-0.393692 -1.889399,-0.383833 0.07868,0.718373 0.462514,1.308862 0.974228,1.800859 -0.698748,-0.12788 -1.308862,0.08854 -1.820576,0.629831 0.245999,0.06882 0.73809,0.206659 0.984088,0.275481 -0.787289,0.118118 -1.456461,0.55115 -1.968175,1.151405 -0.206659,0.0492 -0.600255,0.147599 -0.797054,0.206657 0.28534,-0.245999 0.856112,-0.73809 1.151309,-0.97423 -1.377683,0.118118 -2.755369,-0.03934 -4.014938,-0.619972 -0.0099,0.757713 0,1.525285 0.0984,2.273234 0.314916,-0.403552 0.590395,-0.846348 0.925028,-1.239946 0.97423,-0.05906 0.373975,1.535142 0.619973,2.076339 0.23614,-0.255858 0.698655,-0.757712 0.934795,-1.013569 0.305149,-0.01972 0.610207,-0.0492 0.905404,-0.06892 -0.0099,0.462515 -0.01972,0.934889 -0.02958,1.397403 l 0.521574,0.0492 c 0.167316,-0.570774 0.118117,-1.259568 0.521573,-1.751659 0.63969,-0.491996 1.574483,-0.619972 1.987798,-1.387544 0.63969,-0.708513 0.01972,-1.633541 -0.05906,-2.420737 0.383833,0.600255 0.659313,1.259569 1.043146,1.859824 0.08854,-0.0098 0.255858,-0.02948 0.334538,-0.03934 0.187035,-0.747854 0.679032,-1.623681 0.0099,-2.263373 0.492092,-0.0098 0.974229,-0.0492 1.466322,-0.0984 -0.570774,-0.275482 -1.200606,-0.28534 -1.810718,-0.383739 0.0492,-0.1476 0.137739,-0.452656 0.177174,-0.610112 -0.718373,-0.373975 -1.505661,-1.043149 -2.352008,-0.551152 -0.305056,-0.255857 -0.619878,-0.501855 -0.924935,-0.747854 -0.08863,0.334634 -0.255857,1.003712 -0.334634,1.348204 -0.255855,-0.423173 -0.393596,-1.456462 -1.141544,-1.220227 -0.619972,0.108163 -1.279286,0.491997 -1.397308,1.161167 m -5.845372,1.171029 c 0.875829,-0.245999 2.479794,-0.0492 2.627393,-1.239944 -0.90531,0.354255 -1.918882,0.541289 -2.627393,1.239944 m 2.991508,0.531433 c -0.07868,0.354254 -0.147599,0.718369 -0.22628,1.072627 0.118022,-0.07878 0.364115,-0.236234 0.491997,-0.324775 0.0492,0.649455 0.206657,1.269427 0.511712,1.850058 0.462515,-1.545001 1.574484,-2.912827 1.584342,-4.566086 -1.013568,0.344396 -1.584342,1.299002 -2.361771,1.968176 M 20.172375,39.11251 c 0.0098,-0.05906 0.02948,-0.167316 0.03934,-0.216516 -0.0099,0.0492 -0.02958,0.157458 -0.03934,0.216516 m 1.663024,-0.167316 c -0.1968,0.364115 -0.393599,0.72823 -0.600255,1.072627 l -0.118118,-0.984088 c -0.324775,0.236234 -0.649455,0.482233 -0.954511,0.747948 0.226281,0.393598 0.472374,0.777432 0.728231,1.151311 0.373879,-0.32468 0.728136,-0.669172 1.082392,-1.00371 l 0.08864,0.619972 0.610113,-0.0099 c 0.03934,-0.560914 0.08854,-1.121827 0.137739,-1.682743 -0.324774,0.02948 -0.649453,0.05906 -0.974227,0.08854 m -1.820482,0.314917 c 0.03934,-0.03934 0.118021,-0.108259 0.157458,-0.147599 -0.03944,0.03934 -0.118118,0.108258 -0.157458,0.147599 m 13.30457,0.17708 c -0.531433,1.161263 -0.925029,2.391351 -0.88569,3.680493 -0.206657,-0.501949 -0.07868,-1.230086 -0.491995,-1.594201 -0.619972,0.127882 -0.964372,0.737996 -1.436744,1.102111 0.87583,0.413314 1.545002,1.092345 2.145255,1.83034 0.206659,-0.678936 0.413317,-1.348109 0.649455,-2.007422 -0.02948,0.747854 -0.157456,1.495708 -0.265716,2.243657 0.974229,-0.462515 1.643402,-1.407262 1.210463,-2.489748 -0.934889,-0.885595 -0.334633,-2.17474 -0.127976,-3.237508 -0.285338,0.137739 -0.551054,0.295198 -0.797052,0.472278 m -14.377198,0.521575 c -0.816772,0.944745 -1.495804,2.027232 -2.037093,3.158918 0.63969,-0.373974 0.993945,-1.023429 1.407261,-1.604059 0.295197,-0.413315 0.600255,-0.806913 0.905312,-1.210369 0.383834,-0.265715 0.649547,-0.610208 0.797148,-1.043145 -0.383835,0.186939 -0.73809,0.423173 -1.072628,0.698655 M 34.14612,39.820982 c -0.0984,0.541195 -0.177176,1.092345 -0.216516,1.653258 0.167316,-0.03944 0.501856,-0.0984 0.67903,-0.127976 -0.01972,0.649455 -0.03944,1.299004 0.02948,1.948459 0.433032,0.206658 0.885689,0.403456 1.338342,0.570772 -0.0492,-1.023428 0.02948,-2.135396 -0.570771,-3.021085 -0.314917,-0.452656 -0.570772,-1.210369 -1.259568,-1.023428 m -15.833659,1.6926 c -0.0099,0.22628 -0.02958,0.679031 -0.03934,0.895451 0.432939,-0.157456 0.875829,-0.314821 1.318626,-0.462514 0.265716,0.580632 0.432939,1.515521 1.289144,1.043148 0.01962,-0.285339 0.05906,-0.865972 0.07868,-1.161168 -0.216518,0.16722 -0.659314,0.491995 -0.875829,0.659313 0.236232,-0.314917 0.472372,-0.619974 0.718369,-0.934889 -0.255855,-0.452656 -0.511712,-0.91517 -0.787192,-1.357968 -0.511714,0.491996 -0.944749,1.161169 -1.70246,1.318627 m 2.519229,-0.295197 c 0.265623,0.787194 0.551057,1.554765 0.905312,2.302713 -0.364113,-0.108258 -0.72823,-0.206657 -1.082486,-0.305056 0.245998,0.718371 0.846346,1.131686 1.554861,1.328485 0.0492,-1.230086 0.787193,-2.312574 0.895453,-3.513177 -0.737996,-0.521478 -0.806914,0.639689 -1.171027,0.993946 0.0099,-0.305057 0.01972,-0.934887 0.02957,-1.249804 -0.383833,0.147599 -0.757807,0.295294 -1.131688,0.442893 m 15.233311,0.432937 c 0.147599,1.358062 0.49209,2.686547 0.541291,4.054373 -0.167316,0.669172 -0.44289,1.299004 -0.639692,1.958317 0.984089,-0.314916 1.269429,-1.407261 1.180888,-2.322433 -0.118115,-1.279284 -0.344398,-2.60777 -1.082487,-3.690257 m -13.34391,3.483601 c 1.161167,-0.246 2.243655,-0.757714 3.267083,-1.338345 -0.531433,-0.05906 -1.210367,0.285434 -1.633542,-0.206657 -0.393597,-0.393598 -0.196798,-1.06277 -0.334633,-1.554767 -1.613823,-0.08863 -1.200509,2.046858 -1.298908,3.099769 M 17.84004,43.698225 c 0.275576,-0.0984 0.826631,-0.295198 1.102207,-0.393597 -0.295294,0.619973 -0.226376,1.269426 0.324679,1.70246 1.239944,-0.0984 2.391349,0.354256 3.542658,0.747854 -0.787289,-0.954512 -1.97794,-1.456367 -2.74551,-2.450314 -0.01972,0.23614 -0.0492,0.698654 -0.06892,0.934888 -0.05906,0 -0.177176,0 -0.23614,0 -0.08864,-0.531432 0.0984,-1.180885 -0.324774,-1.594202 -0.777431,-0.423173 -1.239944,0.541197 -1.594202,1.052911 m -1.279285,0.797148 c -0.167316,0.649455 0.580632,0.580537 0.511714,-0.0099 0,-0.49209 0.472375,-0.82663 0.501856,-1.279286 -0.600255,-0.05906 -0.96437,0.767571 -1.01357,1.289144 m 12.596056,-1.387543 c -0.393596,1.308768 -0.305055,2.706171 -0.757711,3.985456 1.859918,-0.118118 2.538852,-1.859917 3.690257,-3.001368 -0.305055,-0.0099 -0.925029,-0.02958 -1.230084,-0.03944 0.265715,-0.07868 0.787194,-0.226282 1.052909,-0.305058 -0.797054,-0.619972 -1.790999,-0.737994 -2.755371,-0.639595 m -11.592345,2.076339 c -0.295198,0.157458 -0.580536,0.324774 -0.865972,0.482231 0.167318,0.531339 0.305058,1.072628 0.541291,1.584342 0.413316,0.23614 0.865972,0.38374 1.308768,0.570774 -0.01962,0.196799 -0.05906,0.580537 -0.07868,0.77743 0.393598,-0.03944 1.190746,-0.09849 1.594202,-0.137835 -0.944749,-0.511714 -0.944749,-1.446601 -0.73809,-2.391254 -0.718373,0.157457 -1.446603,0.295198 -2.184597,0.255858 0.678935,-0.23614 1.367825,-0.403456 2.036998,-0.649455 -0.314915,-0.629832 -0.698653,-1.239945 -1.121827,-1.810717 -0.89555,-0.216518 -0.364115,0.86597 -0.492092,1.318626 m 6.79012,1.348203 c 0.245998,0.285339 0.511714,0.570773 0.777429,0.846253 0.728138,-0.02948 1.446509,-0.02948 2.16488,-0.03934 -0.13774,-0.521572 -0.265621,-1.033286 -0.383739,-1.554859 -0.501854,0.324774 -1.013568,0.649549 -1.564717,0.905405 0.413314,-0.413315 0.846346,-0.806911 1.279283,-1.210463 0.147694,0.02958 0.442893,0.07878 0.590493,0.108259 0.05906,0.55115 0.118114,1.102204 0.17708,1.653259 0.334634,-0.275574 0.669172,-0.551055 1.003805,-0.816769 -0.0984,-0.629832 -0.226375,-1.259569 -0.708513,-1.712319 0,-0.42308 -0.0099,-0.836395 -0.01972,-1.239851 -1.052909,1.072628 -2.292855,1.958221 -3.316283,3.060427 m 9.417514,-1.71232 c 0.580632,0.01972 1.161169,0.02958 1.741799,0.0099 -0.334633,0.78729 -0.265715,1.643402 -0.127974,2.470031 0.295291,-0.511714 0.698747,-0.984087 0.856204,-1.564719 0.0492,-0.826535 -0.472373,-1.968081 -1.446601,-1.889399 -0.354256,0.314916 -0.698654,0.639691 -1.023428,0.974229 m -3.080145,1.358062 c 0.275574,0.07868 0.82663,0.226281 1.092347,0.295198 -0.669174,0.157458 -1.426886,0.167316 -1.968177,0.649455 0.118118,1.171026 1.308863,0.777429 2.135493,0.777429 0.08854,-0.324679 0.17708,-0.659313 0.255857,-0.984086 0.157363,-0.413317 0.324681,-0.826536 0.482137,-1.230088 0.295198,0.177177 0.590492,0.354351 0.885689,0.521575 -0.157458,-0.521575 -0.373975,-1.80086 -1.239946,-1.456368 -0.806912,0.08854 -1.200602,0.856113 -1.6434,1.426885 M 19.77864,47.604999 c 0.846348,0.314915 1.771377,0.216518 2.273232,-0.639689 -0.649454,-0.147599 -1.308863,-0.275481 -1.958317,-0.423079 0.82663,-0.0492 1.653261,-0.108259 2.47003,-0.206659 -0.816769,-0.492089 -1.682741,-0.875829 -2.568429,-1.200602 -0.511714,0.747948 -0.23614,1.6434 -0.216516,2.470029 m 13.875343,0.560914 c 0.747947,-0.501854 0.452655,-1.417026 0.521573,-2.155116 0.157458,0.600255 0.423173,1.131688 0.816769,1.613921 -0.236138,-0.78729 0.472375,-2.706266 -0.934887,-2.43069 -0.708513,0.73809 -0.285338,2.027138 -0.403455,2.971885 m -0.629737,-0.895548 c 0.02948,-0.16722 0.07868,-0.491995 0.108163,-0.659313 -0.708513,-0.639594 -0.905311,1.505661 -0.108163,0.659313 m -6.170148,0.364117 c 1.003711,0.993945 2.037,2.233891 3.6312,1.879633 -0.17708,-0.885688 -0.610114,-1.663117 -1.180887,-2.36177 -0.816771,0.147597 -1.633542,0.314915 -2.450313,0.482137 m 3.45412,1.053005 c 0.22628,0.245997 0.452656,0.482137 0.688794,0.718372 0.196799,-0.875831 0.531431,-0.974231 1.01357,-0.295199 0.492091,-0.40355 0.974228,-0.826629 1.426884,-1.269521 -1.09225,0.02958 -2.174738,0.295293 -3.129248,0.846348 m -5.077803,1.505565 -0.01972,0.324776 c 0.570772,0.679012 0.649455,-0.944652 0.01972,-0.324776 z"
       style="fill:#000000;fill-opacity:1;fill-rule:evenodd;stroke:none;stroke-width:0.15975489" />
    <path
       inkscape:export-ydpi="90"
       inkscape:export-xdpi="90"
       inkscape:connector-curvature="0"
       id="path4262"
       d="m 35.208846,42.635453 c 1.180887,0.05906 -0.560914,1.013568 0,0 z"
       style="fill:#000000;fill-opacity:1;fill-rule:evenodd;stroke:none;stroke-width:0.15975489" />
    <path
       inkscape:export-ydpi="90"
       inkscape:export-xdpi="90"
       inkscape:connector-curvature="0"
       id="path4264"
       d="m 29.993306,44.091914 c 0.610113,0.118021 0.413314,1.584342 -0.196799,1.584342 -0.118117,-0.50195 -0.06892,-1.141546 0.196799,-1.584342 z"
       style="fill:#000000;fill-opacity:1;fill-rule:evenodd;stroke:none;stroke-width:0.15975489" />
  </g>
</svg>
