<?xml version="1.0" encoding="UTF-8" standalone="no"?>
<svg
   xmlns:dc="http://purl.org/dc/elements/1.1/"
   xmlns:cc="http://creativecommons.org/ns#"
   xmlns:rdf="http://www.w3.org/1999/02/22-rdf-syntax-ns#"
   xmlns:svg="http://www.w3.org/2000/svg"
   xmlns="http://www.w3.org/2000/svg"
   xmlns:sodipodi="http://sodipodi.sourceforge.net/DTD/sodipodi-0.dtd"
   xmlns:inkscape="http://www.inkscape.org/namespaces/inkscape"
   viewBox="0 0 2500 365.01"
   version="1.1"
   id="svg300"
   sodipodi:docname="zahlavi_SOC_.svg"
   inkscape:version="0.92.1 r15371">
  <metadata
     id="metadata304">
    <rdf:RDF>
      <cc:Work
         rdf:about="">
        <dc:format>image/svg+xml</dc:format>
        <dc:type
           rdf:resource="http://purl.org/dc/dcmitype/StillImage" />
        <dc:title>zahlavi_SOC_vystupy_alternovanebarvy</dc:title>
      </cc:Work>
    </rdf:RDF>
  </metadata>
  <sodipodi:namedview
     pagecolor="#ffffff"
     bordercolor="#666666"
     borderopacity="1"
     objecttolerance="10"
     gridtolerance="10"
     guidetolerance="10"
     inkscape:pageopacity="0"
     inkscape:pageshadow="2"
     inkscape:window-width="960"
     inkscape:window-height="1182"
     id="namedview302"
     showgrid="false"
     inkscape:zoom="0.19572716"
     inkscape:cx="1436.7065"
     inkscape:cy="-841.21544"
     inkscape:window-x="0"
     inkscape:window-y="0"
     inkscape:window-maximized="0"
     inkscape:current-layer="svg300" />
  <defs
     id="defs4">
    <style
       id="style2">.cls-1{fill:#c3d4fc;}.cls-12,.cls-2,.cls-4{fill:blue;}.cls-3{fill:#efefef;}.cls-4{font-size:20.98px;font-family:NeueHaasUnicaPro-Regular, Neue Haas Unica Pro;}.cls-5{letter-spacing:0.01em;}.cls-6{letter-spacing:-0.01em;}.cls-7{letter-spacing:-0.01em;}.cls-8{letter-spacing:0.01em;}.cls-9{letter-spacing:-0.02em;}.cls-10{letter-spacing:-0.02em;}.cls-11{letter-spacing:0.01em;}.cls-12{font-size:43.72px;font-family:NeueHaasUnicaPro-Bold, Neue Haas Unica Pro;font-weight:700;}.cls-13{letter-spacing:0.01em;}.cls-14{letter-spacing:0.02em;}.cls-15{font-size:34.97px;}.cls-16{letter-spacing:-0.01em;}.cls-17{letter-spacing:0.01em;}.cls-18{letter-spacing:0em;}.cls-19{letter-spacing:-0.03em;}.cls-20{fill:none;stroke:blue;stroke-miterlimit:10;stroke-width:4px;}.cls-21{fill:#fff;}.cls-22{fill:#486afc;}.cls-23{fill:#ffe040;}.cls-24{fill:#8198ef;}.cls-25{fill:#ffe368;}</style>
  </defs>
  <title
     id="title6">zahlavi_SOC_vystupy_alternovanebarvy</title>
  <polygon
     style="fill:#c3d4fc"
     id="polygon8"
     points="0,0 0,365.01 2500,357.76 2500,0 "
     class="cls-1" />
  <path
     style="fill:#efefef"
     inkscape:connector-curvature="0"
     id="path12"
     d="M 1878.51,343.1 1853.26,326 h -98.92 v -74.17 c 3.34,-0.56 5.5,-1.44 5.5,-2.43 0,-0.99 -2.16,-1.86 -5.5,-2.42 v -5 c 3.34,-0.61 5.5,-1.56 5.5,-2.63 0,-0.42 -0.35,-0.83 -1,-1.21 a 1.58,1.58 0 1 0 -2.08,-1.5 1.69,1.69 0 0 0 0.17,0.71 23.29,23.29 0 0 0 -2.6,-0.62 v -4.83 c 3.34,-0.64 5.5,-1.63 5.5,-2.74 0,-1.11 -2.16,-2.1 -5.5,-2.73 V 222 a 17.36,17.36 0 0 0 3.43,-1 1,1 0 0 0 0,0.3 1.06,1.06 0 1 0 1.34,-1 1.59,1.59 0 0 0 0.78,-1.2 c 0,-0.5 -0.38,-1 -1,-1.4 h 0.2 a 1,1 0 1 0 -0.69,-0.3 20.62,20.62 0 0 0 -6.17,-1.62 3.59,3.59 0 0 0 -2.45,-6.23 h -0.27 l -1.47,-3.72 v -1.87 h 1 v -0.51 h -1 v -3.75 h 1 v -0.52 h -1 v -3.78 h 1 v -0.51 h -1 v -3.76 h 1 v -0.52 h -1 v -3.75 h 1 v -0.52 h -1 v -3.79 h 1 V 182 h -1 v -3.79 h 1 v -0.51 h -1 v -3.8 h 1 v -0.51 h -1 v -1.89 h -1.11 v 0 l -1.2,1.19 v -1.24 h 0.28 v -2.34 h -0.51 v -0.47 h 0.51 v -2.34 h -0.51 v -0.49 h 0.51 v -2.33 h -0.51 v -0.49 h 0.51 v -2.34 h -0.51 v -0.62 h 0.51 v -2.34 h -1.66 v 2.34 h 0.51 v 0.62 h -0.51 v 2.34 h 0.51 v 0.49 h -0.51 v 2.33 h 0.51 v 0.49 h -0.51 v 2.34 h 0.51 v 0.47 h -0.51 v 2.34 h 0.27 v 1.24 l -1.19,-1.19 v 0 h -1.11 v 1.89 h -1 v 0.51 h 1 v 3.8 h -1 v 0.51 h 1 V 182 h -1 v 0.52 h 1 v 3.79 h -1 v 0.52 h 1 v 3.75 h -1 v 0.52 h 1 v 3.76 h -1 v 0.51 h 1 v 3.76 h -1 v 0.52 h 1 v 3.75 h -1 v 0.51 h 1 v 1.87 c 0,0 -1.09,2.76 -2.19,5.52 a 2.44,2.44 0 1 0 -1.71,4.22 l -0.14,0.34 c -4,0.65 -6.7,1.82 -6.7,3.15 0,1.33 2.16,2.25 5.51,2.92 v 1.32 a 2.11,2.11 0 1 0 -2.14,3.61 c -2.1,0.6 -3.37,1.38 -3.37,2.23 0,1.11 2.16,2.1 5.51,2.74 v 4.83 c -3.35,0.61 -5.51,1.56 -5.51,2.62 0,1.06 2.16,2 5.51,2.63 v 5 c -3.35,0.56 -5.51,1.43 -5.51,2.42 0,0.99 2.16,1.87 5.51,2.43 V 326 h -278.54 l -83.7,12.33 -51.8,7.63 -19.19,2.83 54.56,1 32.19,0.56 3.63,0.07 v 0 l 508.08,8.91 z m -132.79,-134.65 0.5,1.12 -0.4,2.53 c -0.03,-1.25 -0.07,-2.55 -0.1,-3.65 z m 2.71,1.29 -0.16,0.06 v -0.56 z m -1.56,5.61 h -0.78 l 0.2,-1 a 3.48,3.48 0 0 0 0.58,1 z m 0,-11.41 v 1.11 l -1.11,-1.11 z m -1.14,-0.51 1.14,-1.14 v 1.14 z m 1.14,-3.75 v 1.12 l -1.13,-1.12 z m -1.13,-0.52 1.13,-1.13 v 1.13 z m 1.13,-3.76 v 1.13 l -1.13,-1.13 z m -1.13,-0.51 1.13,-1.13 v 1.13 z m 1.13,-3.76 v 1.13 l -1.13,-1.13 z m -1.13,-0.52 1.13,-1.12 v 1.12 z m 1.13,-3.75 V 188 l -1.13,-1.12 z m -1.13,-0.52 1.13,-1.12 v 1.12 z m 1.13,-3.79 v 1.12 l -1.13,-1.12 z m -1.13,-0.52 1.13,-1.12 V 182 Z m 1.13,-3.79 v 1.13 l -1.13,-1.13 z m -1.13,-0.51 1.13,-1.13 v 1.13 z m 1.13,-5.44 v 1.13 h -1.13 z m 0,1.64 v 1.13 l -1.13,-1.13 z m -1.2,0.66 1.2,1.2 v 0.08 l -1.2,1.19 z m 0,4.31 1.2,1.2 v 0.08 l -1.2,1.19 z m 0,4.31 1.2,1.2 v 0.08 l -1.2,1.19 z m 0,4.31 1.2,1.19 v 0 l -1.2,1.19 z m 0,4.27 1.2,1.2 v 0 l -1.2,1.2 z m 0,4.27 1.2,1.2 v 0 l -1.2,1.2 z m 0,4.28 1.2,1.19 v 0 l -1.2,1.19 z m 0,4.25 1.2,1.19 v 0 l -0.33,2.07 -0.87,-2.07 z m -1,3.72 0.26,7 v 0 l -0.88,-5.47 z m -1.28,-36 1.12,1.13 h -1.12 z m 0,1.64 h 1.12 l -1.12,1.13 z m 0,1.86 1.19,-1.2 v 2.47 l -1.19,-1.19 z m 0,0.81 1.13,1.13 h -1.13 z m 0,1.64 h 1.12 l -1.12,1.13 z m 0,1.86 1.19,-1.2 v 2.47 l -1.19,-1.19 z m 0,0.81 1.12,1.12 h -1.12 z m 0,1.64 h 1.12 l -1.12,1.12 z m 0,1.86 1.19,-1.2 v 2.47 l -1.19,-1.19 z m 0,0.81 1.13,1.12 h -1.13 z m 0,1.64 h 1.12 l -1.12,1.12 z m 0,1.85 1.19,-1.19 V 190 l -1.19,-1.19 z m 0,0.78 1.13,1.12 h -1.13 z m 0,1.64 h 1.12 l -1.12,1.13 z m 0,1.86 1.19,-1.2 v 2.44 l -1.19,-1.2 z m 0,0.77 1.13,1.13 h -1.13 z m 0,1.64 h 1.12 l -1.12,1.13 z m 0,1.86 1.19,-1.2 v 2.44 l -1.19,-1.2 z m 0,0.77 1.13,1.13 h -1.13 z m 0,1.65 h 1.12 l -1.12,1.12 z m 0,1.85 1.19,-1.19 v 2.41 l -1.19,-1.19 z m 0,0.76 1.14,1.14 h -1.14 z m 0,1.65 h 1.11 l -1.11,1.11 z m 0,1.84 1.19,-1.19 v 1.22 c 0,0 -0.34,0.88 -0.85,2.14 l -0.34,-2.14 z m -0.36,3.87 v 0 0.05 c 0,0 -0.03,-0.04 -0.03,-0.07 z m -0.34,3.54 0.69,-1.71 0.76,3.88 c -0.57,0 -1.13,0 -1.68,0.07 0.01,-0.65 0.08,-1.45 0.17,-2.26 z m -3.16,2.09 a 2.37,2.37 0 0 0 1.2,-2.94 l 1.26,-3.1 -0.33,3.89 c -0.37,0.94 -0.72,1.79 -1,2.45 q -0.67,0.06 -1.32,0.15 z m -8,6.93 a 1.38,1.38 0 1 0 1.38,1.38 1.37,1.37 0 0 0 -1.43,-1.4 z m 0,10.79 a 0.85,0.85 0 0 0 -0.84,0.85 0.85,0.85 0 0 0 1.69,0 0.85,0.85 0 0 0 -0.9,-0.87 z m 3.07,-1.3 a 2.15,2.15 0 1 0 2.15,2.15 2.15,2.15 0 0 0 -2.2,-2.17 z m 21.69,0.67 a 1.48,1.48 0 1 0 1.48,1.48 1.48,1.48 0 0 0 -1.53,-1.5 z m 0,-8.89 a 1.48,1.48 0 1 0 1.48,1.48 1.48,1.48 0 0 0 -1.53,-1.5 z m 2.54,-0.53 a 1.17,1.17 0 1 0 1.16,1.16 1.16,1.16 0 0 0 -1.21,-1.13 z m 1.06,3.28 a 0.85,0.85 0 1 0 0,1.69 0.85,0.85 0 0 0 0,-1.69 z m -28.67,-1 a 1.24,1.24 0 1 0 1.23,1.23 1.23,1.23 0 0 0 -1.28,-1.27 z m 25.07,-12.31 a 1.48,1.48 0 1 0 1.48,1.48 1.48,1.48 0 0 0 -1.53,-1.52 z m -22.64,2 a 1,1 0 1 0 1,1 0.95,0.95 0 0 0 -1.05,-1.03 z"
     class="cls-3" />
  <path
     style="fill:#efefef"
     inkscape:connector-curvature="0"
     id="path14"
     d="m 1328.2,309.33 h -32.37 l -0.14,-5.92 0.91,-0.15 -9.6,-4.26 -5,-0.42 v -2.17 h -1 v 2.08 l -6.88,-0.57 -1.24,-2 h -1 v -0.51 h -1 v 0.51 h -4.37 v -2.05 h -2.72 v 2.05 h -2.41 v -1.47 h -1.57 v 1.47 h -3 v -1.83 h -1.61 v 1.83 h -0.8 v -1.83 h -0.92 v 1.83 h -2.74 l -6.16,-0.51 v -2.36 H 1243 v 2.23 l -1.65,-0.14 -8.09,-4.42 -8.65,-0.69 v -1.63 h -0.92 v 1.6 l -1.52,-0.13 -3.62,1.7 h -2.76 l -0.72,0.75 -1.09,-0.58 v -7.78 h 0.4 v -1 h -0.54 l -1.24,-2.12 -1.26,-1.07 v -1.06 l -0.37,-2.15 h -0.61 l -0.6,2.18 v 1.06 l -1.35,1.18 -1.21,1.95 h -0.26 v 0.82 h 0.27 V 291 l -2.53,-0.11 v 0.91 h -1.66 v -0.58 h -2.26 v -11.36 h -0.58 v 2.52 h -0.53 v 3.49 h 0.53 v 4.89 l -10.24,-7.8 h -4.79 l -2.64,1.72 -2.3,-0.05 -2.13,-2.3 h -19.64 l -10.12,9.88 h 0.75 v 5.51 l -1.15,1.38 v 7.07 l -5.46,-0.06 v -3.31 h 1.46 l -5.94,-4.49 v -1.83 h -1.07 v 1 l -5.55,-4.2 h -2.76 V 292 h -2.22 v 1.34 h -5.21 V 292 h -2.22 v 1.34 h -5.82 V 292 h -2.23 v 1.34 h -5 V 292 h -2.22 v 1.34 h -2 l -12.87,9 v 7 l -58.25,5.31 3.33,49.12 367.48,-9 z"
     class="cls-3" />
  <path
     style="fill:#efefef"
     inkscape:connector-curvature="0"
     id="path16"
     d="M 2500,343.68 V 365 H 1160.55 l 110.11,-7 v 0 l 103.09,-6.6 16.84,-1.08 3.2,-0.2 117.42,-7.52 22.65,0.05 v -48.73 l 2.43,-5.68 v -6.89 l 1.35,-1.87 1.49,-13.13 0.64,5.2 c 0.29,-6.12 0.57,-12.1 0.57,-12.49 l 1.74,13.15 c 0.41,-2.68 0.84,-5.54 0.9,-5.86 0,0 0.47,2.11 1,4.37 l 12.9,-17.85 2.83,-21.17 c 0,0 0.69,7.89 1.45,15.25 l 4.82,-6.67 c 0.53,-6.69 1.23,-15.47 1.23,-15.78 0,0 0.49,6.85 0.91,12.82 l 1.62,-2.24 V 222 l 2.94,-3.57 0.71,-12.24 1.14,11.87 2.5,5.76 v 6 l 1,-0.12 0.77,-6.31 c 0,0 0.28,2.82 0.62,6.13 l 30.79,-3.94 V 209.2 h 1.42 v -8.51 h 0.71 v -10.64 h 2.43 v 10.64 h 0.71 v 8.51 h 1.32 v -25.54 h 1.62 v -7.14 h 4.91 l 3.51,-86.82 a 2.58,2.58 0 0 1 0.21,-5.14 v -0.91 0.91 a 2.58,2.58 0 0 1 0.24,5.14 l 4.18,86.82 h 4.2 v 7.14 h 1.62 V 210 h 1.42 v -8.5 h 0.71 v -10.64 h 2.43 v 10.64 h 0.71 v 8.5 h 1.44 v 11.23 l 5.37,-0.69 6.69,8.08 v -13.34 h 1.41 v -8.51 h 0.71 v -10.64 h 2.44 v 10.64 h 0.71 v 8.51 h 1.31 v -25.54 h 1.62 v -7.14 h 4.92 l 3.5,-86.82 a 2.58,2.58 0 0 1 0.21,-5.14 v -0.91 0.91 a 2.58,2.58 0 0 1 0.25,5.14 l 4.18,86.82 h 4.19 v 7.14 h 1.62 v 26.35 h 1.42 v -8.51 h 0.71 v -10.64 h 2.43 v 10.64 h 0.71 v 8.51 h 1.42 V 252 l 9.32,-1 13.86,25.89 4,2.84 v 4.86 l 4.86,8.11 V 343 l 156.57,0.14 z"
     class="cls-3" />
  <path
     style="fill:#efefef"
     inkscape:connector-curvature="0"
     id="path18"
     d="m 1406.29,354.84 -5.82,-0.62 -26.71,-2.86 -15.35,-1.64 -35.41,-3.79 -292.51,-31.29 -48,-0.36 0.3,-15.58 h -47.67 v -4 H 933 v -13.9 h 0.86 V 273 a 16.69,16.69 0 0 0 -9.33,-15 v -2.63 H 909.87 V 258 a 16.67,16.67 0 0 0 -9.33,15 v 7.76 h 0.86 v 13.9 h -2.1 v 4 H 892 V 250 h -7.65 a 16.12,16.12 0 0 0 -10.94,-8.57 v -1.36 h -2.24 v -0.56 h -2.54 v 0.56 h -2.24 v 1.36 A 16.13,16.13 0 0 0 854.29,253 h -8.91 v 3.88 H 834 v -10.76 h -13.7 v -3.48 h -11.95 v 3.48 h -3.28 v 10.75 h -19.51 v -5.07 h -2 v 5.07 h -1.1 v -5.07 h -2 v 5.07 H 777.9 V 250 h -4.47 a 39.48,39.48 0 0 0 -29.21,-26.57 v -2.85 h -3.35 v -0.89 h -10 v 0.89 h -3.35 v 2.85 A 39.48,39.48 0 0 0 698.32,250 H 694 v 4.77 H 628.15 V 300 l -161.81,-0.14 v 2.58 40.9 H 0 V 365 H 1432.11 Z M 715.12,302 h -6.48 v -15.56 h 6.48 z m 8,0 h -6.51 v -15.56 h 6.51 z m 8,0 h -6.51 v -15.56 h 6.51 z m 8,0 h -6.5 v -15.56 h 6.5 z m 8,0 h -6.5 V 286.44 H 747 Z m 8,0 h -6.62 v -15.56 h 6.5 z m 8,0 h -6.49 V 286.44 H 763 Z m 18.94,-6.47 h -4 v -13.27 h 4 z m 5.29,0 h -4 v -13.27 h 4 z m 5.29,0 h -4 v -13.27 h 4 z m 5.29,0 h -4 v -13.27 h 4 z m 5.29,0 h -4 v -13.27 h 4 z m 5.29,0 h -4 v -13.27 h 4 z m 5.29,0 h -4 v -13.27 h 4 z m 5.29,0 h -4 v -13.27 h 4 z m 5.28,0 h -4 v -13.27 h 4 z m 5.29,0 h -4 v -13.27 h 4 z m 5.29,0 h -4 v -13.27 h 4 z m 5.29,0 h -4 v -13.27 h 4 z m 5.29,0 h -4 v -13.27 h 4 z m 40,4.08 h -32.77 v -13.17 h 32.57 z"
     class="cls-3" />
  <g
     id="Vrstva_15"
     data-name="Vrstva 15">
    <path
       class="cls-22"
       d="M1179.93,44.31a1.39,1.39,0,0,1-1.19-1.08A20.65,20.65,0,0,0,1140.48,38a1.41,1.41,0,1,1-2.47-1.34,23.46,23.46,0,0,1,43.47,5.93,1.42,1.42,0,0,1-1.06,1.69A1.35,1.35,0,0,1,1179.93,44.31Z"
       id="path87" />
    <path
       class="cls-22"
       d="M1177.58,106.49l-.34,0a23.4,23.4,0,0,1-20.13-22.62,1.41,1.41,0,0,1,2.82-.07,20.65,20.65,0,0,0,36.44,12.76,1.41,1.41,0,1,1,2.15,1.81A23.62,23.62,0,0,1,1177.58,106.49Z"
       id="path89" />
    <path
       class="cls-22"
       d="M1234.68,89.51a1.36,1.36,0,0,1-.72-.31,1.4,1.4,0,0,1-.18-2,20.65,20.65,0,0,0-18.92-33.66,1.41,1.41,0,1,1-.42-2.78,23.63,23.63,0,0,1,21.34,8,23.39,23.39,0,0,1,.16,30.28A1.41,1.41,0,0,1,1234.68,89.51Z"
       id="path91" />
    <path
       class="cls-22"
       d="M1227.78,117.27a1.41,1.41,0,0,1-.92-.53,1.39,1.39,0,0,1,.23-2A20.65,20.65,0,0,0,1215.43,78a1.41,1.41,0,1,1,.16-2.81A23.46,23.46,0,0,1,1228.83,117,1.45,1.45,0,0,1,1227.78,117.27Z"
       id="path93" />
    <path
       class="cls-22"
       d="M1181.66,129.27a23.39,23.39,0,0,1-19.12-31,1.41,1.41,0,1,1,2.66.93,20.65,20.65,0,0,0,29.53,24.88,1.41,1.41,0,1,1,1.36,2.46A23.57,23.57,0,0,1,1181.66,129.27Z"
       id="path95" />
    <path
       class="cls-22"
       d="M1206.56,104a14.7,14.7,0,0,1-8-25.48,1.41,1.41,0,0,1,1.89,2.09,11.89,11.89,0,0,0,8.09,20.7,1.41,1.41,0,0,1,0,2.81A13.16,13.16,0,0,1,1206.56,104Z"
       id="path97" />
    <path
       class="cls-22"
       d="M1154,69.84a13.65,13.65,0,0,1-4.11-1.2,13.82,13.82,0,0,1-7.45-16.27,1.38,1.38,0,0,1,1.73-1,1.4,1.4,0,0,1,1,1.73,11,11,0,0,0,16.64,12.25,1.41,1.41,0,1,1,1.53,2.36A14,14,0,0,1,1154,69.84Z"
       id="path99" />
    <path
       class="cls-22"
       d="M1209.2,108.15a1.42,1.42,0,0,1-1.11-.82,10.62,10.62,0,0,1,.84-10.21A10.5,10.5,0,0,1,1222,93.35a1.41,1.41,0,1,1-1.15,2.57,7.73,7.73,0,0,0-10.2,10.25,1.42,1.42,0,0,1-1.46,2Z"
       id="path101" />
    <path
       class="cls-22"
       d="M1175.38,62.18l-.07,0a1.41,1.41,0,0,1-1.14-1.63,7.74,7.74,0,0,0-12.4-7.46,1.39,1.39,0,0,1-2-.23,1.41,1.41,0,0,1,.23-2,10.65,10.65,0,0,1,10.12-1.63,10.52,10.52,0,0,1,6.79,11.8A1.41,1.41,0,0,1,1175.38,62.18Z"
       id="path103" />
    <path
       class="cls-22"
       d="M1148.9,50.43a1.41,1.41,0,0,1-1.11-.81,10.67,10.67,0,0,1,.84-10.21,10.52,10.52,0,0,1,13.09-3.77,1.4,1.4,0,1,1-1.15,2.56,7.74,7.74,0,0,0-10.21,10.26,1.41,1.41,0,0,1-.7,1.86A1.35,1.35,0,0,1,1148.9,50.43Z"
       id="path105" />
    <path
       class="cls-22"
       d="M1130.13,61.84A1.41,1.41,0,0,1,1129,61,14.59,14.59,0,0,1,1130.77,47a14.43,14.43,0,0,1,18.16-4.37,1.4,1.4,0,1,1-1.26,2.51,11.66,11.66,0,0,0-16.05,14.76,1.4,1.4,0,0,1-.79,1.82A1.31,1.31,0,0,1,1130.13,61.84Z"
       id="path107" />
    <path
       class="cls-22"
       d="M1209.67,88.82a1.4,1.4,0,0,1-.84-.43,1.42,1.42,0,0,1,.05-2A14.86,14.86,0,0,0,1211,67.28a15,15,0,0,0-12.89-6.56,1.41,1.41,0,0,1-.1-2.81,17.71,17.71,0,0,1,12.85,30.53A1.39,1.39,0,0,1,1209.67,88.82Z"
       id="path109" />
    <path
       class="cls-22"
       d="M1120.31,64a1.37,1.37,0,0,1-1-.65,23.46,23.46,0,0,1,26.58-34.9,1.41,1.41,0,0,1-.8,2.7,20.65,20.65,0,0,0-23.39,30.71,1.41,1.41,0,0,1-.45,1.94A1.39,1.39,0,0,1,1120.31,64Z"
       id="path111" />
    <path
       class="cls-22"
       d="M1125.29,94.11a22.65,22.65,0,0,1-8.54-42,1.41,1.41,0,1,1,1.42,2.43,19.83,19.83,0,0,0,16.24,36,1.4,1.4,0,0,1,1.78.89,1.42,1.42,0,0,1-.89,1.78A22.81,22.81,0,0,1,1125.29,94.11Z"
       id="path113" />
    <path
       class="cls-22"
       d="M1202.86,136a22.81,22.81,0,0,1-14.2-7.53,1.41,1.41,0,1,1,2.11-1.86A19.83,19.83,0,0,0,1223,103.79a1.41,1.41,0,0,1,2.46-1.39,22.94,22.94,0,0,1,2.86,9.64,22.64,22.64,0,0,1-25.42,24Z"
       id="path115" />
    <path
       class="cls-22"
       d="M1172.31,68.84l-.09,0a1.41,1.41,0,0,1-1.11-1.65,16.54,16.54,0,0,1,32.76,3,1.41,1.41,0,1,1-2.81,0,13.72,13.72,0,0,0-27.19-2.46A1.41,1.41,0,0,1,1172.31,68.84Z"
       id="path117" />
    <path
       class="cls-22"
       d="M1166,88a16.42,16.42,0,0,1-6.48-2.28,16.61,16.61,0,0,1-7.84-12.34,1.41,1.41,0,1,1,2.8-.3,13.72,13.72,0,0,0,25.36,5.65,13.64,13.64,0,0,0,1.94-5.77,1.41,1.41,0,1,1,2.8.27A16.53,16.53,0,0,1,1166,88Z"
       id="path119" />
    <path
       class="cls-22"
       d="M1199.71,128a16.37,16.37,0,0,1-6.47-2.28,16.65,16.65,0,0,1-7.85-12.33,1.41,1.41,0,1,1,2.8-.31,13.72,13.72,0,0,0,27.3-.12,1.41,1.41,0,1,1,2.8.27A16.53,16.53,0,0,1,1199.71,128Z"
       id="path121" />
    <path
       class="cls-22"
       d="M1144.79,98a1.48,1.48,0,0,1-.41-.12,1.41,1.41,0,0,1-.69-1.87,13.82,13.82,0,0,0-.29-12.13A13.73,13.73,0,0,0,1120.24,82a1.41,1.41,0,1,1-2.26-1.68,16.68,16.68,0,0,1,5.59-4.77,16.54,16.54,0,0,1,22.68,21.6A1.43,1.43,0,0,1,1144.79,98Z"
       id="path123" />
    <path
       class="cls-22"
       d="M1211.78,66.78a1.41,1.41,0,0,1-1-2.24c.72-1,3-4.69,1.43-12.27a19.94,19.94,0,0,0-23.37-15.53,20.08,20.08,0,0,0-8,3.61,1.4,1.4,0,1,1-1.69-2.24,22.84,22.84,0,0,1,9.17-4.13A22.76,22.76,0,0,1,1215,51.71c1.71,8.49-.79,13-1.94,14.52A1.4,1.4,0,0,1,1211.78,66.78Z"
       id="path125" />
    <path
       class="cls-22"
       d="M1144.43,109.22a22.38,22.38,0,0,1-18.64-15.9,1.41,1.41,0,0,1,2.7-.79,19.63,19.63,0,0,0,33,8,1.41,1.41,0,1,1,2,1.94,22.48,22.48,0,0,1-16.87,6.94C1145.92,109.37,1145.17,109.31,1144.43,109.22Z"
       id="path127" />
    <path
       class="cls-22"
       d="M1203.78,156.7l-.19,0-10.53-2.84a1.41,1.41,0,0,1-.58-2.4,11.4,11.4,0,0,0,3.16-9.56,37.48,37.48,0,0,0-2.32-9.64,1.41,1.41,0,0,1,2.56-1.18,40.25,40.25,0,0,1,2.55,10.44,14.27,14.27,0,0,1-2.5,10.2l7.55,2a114.7,114.7,0,0,0,8.33-10.8c4.14-6.15,9.15-16.71,9.2-16.82a1.41,1.41,0,1,1,2.54,1.21,161.83,161.83,0,0,1-9.41,17.19,113.52,113.52,0,0,1-9.14,11.75A1.45,1.45,0,0,1,1203.78,156.7Z"
       id="path129" />
    <path
       class="cls-22"
       d="M1787.22,166.9l-63.29-59.52a1.4,1.4,0,0,1-.06-2l74-78.72a1.42,1.42,0,0,1,2-.06L1852.42,76a1.42,1.42,0,0,1,.06,2l-10,10.63,9.74,9.16a1.42,1.42,0,0,1,.06,2l-63.07,67.06A1.4,1.4,0,0,1,1787.22,166.9Zm-60.34-60.6,61.24,57.59,61.14-65-9.73-9.15a1.4,1.4,0,0,1-.06-2l10-10.63L1799,29.63Z"
       id="path131" />
    <path
       class="cls-22"
       d="M1827.2,78.12l-20.21-19a1.4,1.4,0,1,1,1.92-2l20.22,19a1.42,1.42,0,0,1,.06,2A1.4,1.4,0,0,1,1827.2,78.12Z"
       id="path133" />
    <path
       class="cls-22"
       d="M1835.41,98.2l-34.59-32.53a1.4,1.4,0,0,1,1.92-2.05l34.6,32.53a1.42,1.42,0,0,1,.06,2A1.4,1.4,0,0,1,1835.41,98.2Z"
       id="path135" />
    <path
       class="cls-22"
       d="M1829.24,104.76l-34.59-32.53a1.4,1.4,0,0,1-.06-2,1.42,1.42,0,0,1,2-.06l34.59,32.53a1.42,1.42,0,0,1,.06,2A1.4,1.4,0,0,1,1829.24,104.76Z"
       id="path137" />
    <path
       class="cls-22"
       d="M1823.07,111.32l-34.59-32.53a1.41,1.41,0,0,1,1.93-2.05L1825,109.27a1.42,1.42,0,0,1,.06,2A1.4,1.4,0,0,1,1823.07,111.32Z"
       id="path139" />
    <path
       class="cls-22"
       d="M1816.9,117.88l-34.59-32.53a1.41,1.41,0,0,1,1.93-2l34.59,32.53a1.41,1.41,0,1,1-1.93,2Z"
       id="path141" />
    <path
       class="cls-22"
       d="M1810.73,124.44l-34.59-32.53a1.41,1.41,0,0,1,1.93-2l34.59,32.53a1.41,1.41,0,1,1-1.93,2Z"
       id="path143" />
    <path
       class="cls-22"
       d="M1850.29,99.84a1.37,1.37,0,0,1-.44-1l.2-21.78a1.41,1.41,0,1,1,2.81,0l-.2,21.78a1.41,1.41,0,0,1-2.37,1Z"
       id="path145" />
    <path
       class="cls-22"
       d="M1759.57,69.48a1.39,1.39,0,0,1-.24-1.74L1783,27.89a1.41,1.41,0,0,1,1.91-.5l9,5.13a1.4,1.4,0,1,1-1.39,2.44l-7.82-4.44-22.92,38.65a1.42,1.42,0,0,1-1.93.5A1.64,1.64,0,0,1,1759.57,69.48Z"
       id="path147" />
    <path
       class="cls-22"
       d="M1755.51,73.8a1.43,1.43,0,0,1-.35-1.54L1771,31.47a1.4,1.4,0,0,1,.76-.79,1.38,1.38,0,0,1,1.09,0l7.9,3.3a1.41,1.41,0,0,1-1.08,2.6l-6.57-2.75-15.31,39.45a1.39,1.39,0,0,1-1.82.8A1.27,1.27,0,0,1,1755.51,73.8Z"
       id="path149" />
    <path
       class="cls-22"
       d="M1822.56,51.8a1.41,1.41,0,0,1,1.52-2.32l29.55,12.73a1.41,1.41,0,0,1,.71,1.9l-3.27,6.9a1.41,1.41,0,1,1-2.54-1.21l2.65-5.58L1823,52.06A1.43,1.43,0,0,1,1822.56,51.8Z"
       id="path151" />
    <path
       class="cls-22"
       d="M1850.41,86.3a1.39,1.39,0,0,1-.23-1.75l5.4-8.86-20.91-12.55a1.41,1.41,0,1,1,1.45-2.41L1858.24,74a1.44,1.44,0,0,1,.64.87,1.43,1.43,0,0,1-.16,1.07L1852.58,86a1.39,1.39,0,0,1-1.93.47A1.08,1.08,0,0,1,1850.41,86.3Z"
       id="path153" />
    <path
       class="cls-22"
       d="M1792.06,161.75a1.41,1.41,0,0,1-.3-1.63,1.39,1.39,0,0,1,1.87-.66l7.88,3.75,26.19-41.37a1.41,1.41,0,1,1,2.38,1.5l-26.86,42.42a1.39,1.39,0,0,1-1.79.52l-9-4.28A1.78,1.78,0,0,1,1792.06,161.75Z"
       id="path155" />
    <path
       class="cls-22"
       d="M1805,159.81a1.41,1.41,0,0,1,1.47-2.34L1813,160l16.37-39.8a1.41,1.41,0,1,1,2.61,1.07l-16.9,41.08a1.41,1.41,0,0,1-1.81.77l-7.79-3A1.56,1.56,0,0,1,1805,159.81Z"
       id="path157" />
    <path
       class="cls-22"
       d="M1726.55,121.71a1.37,1.37,0,0,1-.39-.64,1.42,1.42,0,0,1,.15-1.12l4.69-7.72a1.41,1.41,0,1,1,2.41,1.46l-3.91,6.43L1756.59,134a1.41,1.41,0,0,1-1.28,2.51l-28.44-14.6A1.24,1.24,0,0,1,1726.55,121.71Z"
       id="path159" />
    <path
       class="cls-22"
       d="M1731.92,132.09a1.41,1.41,0,0,1-.34-1.56l2.59-6.29a1.41,1.41,0,0,1,2.61,1.07l-2,4.94,29.39,10.95a1.4,1.4,0,1,1-1,2.63l-30.76-11.45A1.49,1.49,0,0,1,1731.92,132.09Z"
       id="path161" />
    <circle
       class="cls-23"
       cx="1765.86"
       cy="79.77"
       r="4.99"
       id="circle163" />
    <circle
       class="cls-23"
       cx="1794.8"
       cy="49"
       r="4.99"
       id="circle165" />
    <circle
       class="cls-22"
       cx="1775.51"
       cy="69.52"
       r="4.99"
       id="circle167" />
    <circle
       class="cls-24"
       cx="1785.16"
       cy="59.26"
       r="4.99"
       id="circle169" />
    <path
       class="cls-22"
       d="M1103.64,146.72a38.74,38.74,0,0,0-31.49,61.33s0,.1.07.14c11.07,14.31,11.74,27.17,11.75,27.3a1.4,1.4,0,0,0,1.4,1.35h.06a1.41,1.41,0,0,0,1.35-1.46c0-.43-.41-8.11-5.61-18.34a67,67,0,0,0-6.72-10.57l.1.1a35.95,35.95,0,1,1,56.91,1.66h.11a1.42,1.42,0,0,0-.37.32,60.81,60.81,0,0,0-5.83,9c-5.49,10.45-4.9,17.62-4.86,18a1.4,1.4,0,0,0,1.4,1.27h.13a1.4,1.4,0,0,0,1.27-1.53c0-.11-.84-10.83,10.14-25l0-.07a38.74,38.74,0,0,0-29.84-63.48Z"
       id="path171" />
    <path
       class="cls-22"
       d="M1125.94,244.93h-44.59a2.81,2.81,0,0,1-2.82-2.81v-4.58a2.81,2.81,0,0,1,2.82-2.81h44.59a2.81,2.81,0,0,1,2.81,2.81v4.58A2.81,2.81,0,0,1,1125.94,244.93Zm-44.59-7.39v4.58h44.59v-4.58Z"
       id="path173" />
    <path
       class="cls-22"
       d="M1124.71,252.32h-42.14a2.82,2.82,0,0,1-2.81-2.82v-4.57a2.81,2.81,0,0,1,2.81-2.81h42.14a2.82,2.82,0,0,1,2.82,2.81v4.57A2.83,2.83,0,0,1,1124.71,252.32Zm-42.14-7.39v4.57h42.14v-4.57Z"
       id="path175" />
    <path
       class="cls-22"
       d="M1123,259.7h-38.77a2.81,2.81,0,0,1-2.82-2.81v-4.57a2.82,2.82,0,0,1,2.82-2.82H1123a2.81,2.81,0,0,1,2.81,2.82v4.57A2.81,2.81,0,0,1,1123,259.7Zm-38.77-7.38v4.57H1123v-4.57Z"
       id="path177" />
    <path
       class="cls-22"
       d="M1074,190.17a1.4,1.4,0,0,1-1.4-1.29c0-.41-.75-10.11,6.68-21.25s17.2-13.68,17.61-13.78a1.41,1.41,0,1,1,.67,2.73c-.08,0-9.12,2.39-15.94,12.62s-6.23,19.36-6.22,19.45a1.4,1.4,0,0,1-1.29,1.51Z"
       id="path179" />
    <path
       class="cls-22"
       d="M1112.41,270.21h-17.53a1.39,1.39,0,0,1-1.36-1l-2.81-10.51a1.4,1.4,0,0,1,1.35-1.77h23.16a1.41,1.41,0,0,1,1.12.55,1.44,1.44,0,0,1,.24,1.22l-2.81,10.51A1.41,1.41,0,0,1,1112.41,270.21ZM1096,267.4h15.37l2.06-7.7H1093.9Z"
       id="path181" />
    <path
       class="cls-22"
       d="M1098.35,237.54a1.41,1.41,0,0,1-1.38-1.12l-6.28-30.6a1.39,1.39,0,0,1,1.11-1.67,6.41,6.41,0,0,0,.48-.69c.54-.85,1.27-2,2.63-2a2.91,2.91,0,0,1,2.55,2.08,3.76,3.76,0,0,0,.27.53c.1-.13.28-.43.4-.63a3.33,3.33,0,0,1,2.76-2,3.06,3.06,0,0,1,2.7,2.2,1.42,1.42,0,0,1,.08.18l.24-.37c.54-.85,1.27-2,2.63-2a2.91,2.91,0,0,1,2.55,2.08,5.24,5.24,0,0,0,.27.53c.1-.13.28-.43.4-.63a3.33,3.33,0,0,1,2.76-2,3.08,3.08,0,0,1,2.71,2.2,4.66,4.66,0,0,0,.24.5,1.4,1.4,0,0,1,.84.49,1.42,1.42,0,0,1,.29,1.17l-6.25,30.61a1.42,1.42,0,0,1-1.66,1.09,1.39,1.39,0,0,1-1.1-1.66l6-29.54a4.6,4.6,0,0,1-1-1.47l-.21-.44c-.07.14-.2.35-.3.51a3.41,3.41,0,0,1-2.85,2,3.11,3.11,0,0,1-2.77-2.22l0-.08c-.08.11-.15.23-.21.32-.53.83-1.25,2-2.59,2a2.94,2.94,0,0,1-2.66-2.1l-.21-.44-.3.51a3.41,3.41,0,0,1-2.86,2,3.1,3.1,0,0,1-2.76-2.21l0-.09c-.08.11-.15.23-.21.32a6.63,6.63,0,0,1-1,1.32l6.08,29.57a1.41,1.41,0,0,1-1.1,1.66A1.33,1.33,0,0,1,1098.35,237.54Z"
       id="path183" />
    <path
       class="cls-23"
       d="M1141.58,228.26a4.92,4.92,0,0,1-3.45-8.44l.25-.25a4.92,4.92,0,1,1,7,6.94l-.34.35A4.93,4.93,0,0,1,1141.58,228.26Zm-76.09-.22a4.91,4.91,0,0,1-3.48-1.44l-.32-.32a4.93,4.93,0,1,1,7-6.92l.27.27a4.92,4.92,0,0,1-3.48,8.41Zm87.93-17.21a4.92,4.92,0,0,1-4.54-6.83l.16-.37a4.92,4.92,0,0,1,9.09,3.79l-.16.39A4.92,4.92,0,0,1,1153.42,210.83Zm-99.68-.29a4.93,4.93,0,0,1-4.54-3l-.18-.43a4.93,4.93,0,0,1,9.12-3.73l.14.33a4.92,4.92,0,0,1-2.63,6.45A4.77,4.77,0,0,1,1053.74,210.54Zm103.94-20.35h0a4.92,4.92,0,0,1-4.87-5v-.58a4.93,4.93,0,1,1,9.85,0v.67A4.91,4.91,0,0,1,1157.68,190.19Zm-108.07-.36a4.88,4.88,0,0,1-4.93-4.87v-.49a4.93,4.93,0,0,1,4.93-4.85h.06a4.92,4.92,0,0,1,4.86,5v.24A5,5,0,0,1,1049.61,189.83Zm104.06-20.54a4.92,4.92,0,0,1-4.56-3.06l-.14-.33a4.92,4.92,0,1,1,9.07-3.83l.18.43a4.94,4.94,0,0,1-2.69,6.43A5.08,5.08,0,0,1,1153.67,169.29Zm-100-.09a4.93,4.93,0,0,1-4.55-6.82l.17-.39a4.93,4.93,0,1,1,9.09,3.8l-.16.38A4.93,4.93,0,0,1,1053.66,169.2ZM1142,151.73a4.89,4.89,0,0,1-3.51-1.47l-.24-.24a4.93,4.93,0,0,1,6.91-7l.34.35a4.93,4.93,0,0,1-3.5,8.38Zm-76.68-.07a4.93,4.93,0,0,1-3.49-8.4l.33-.33a4.92,4.92,0,1,1,6.91,7l-.26.26A4.89,4.89,0,0,1,1065.34,151.66Zm59.21-11.73a4.92,4.92,0,0,1-1.9-.38l-.35-.15a4.92,4.92,0,1,1,3.73-9.11l.43.18a4.92,4.92,0,0,1-1.91,9.46Zm-41.72,0a4.92,4.92,0,0,1-1.89-9.47l.41-.17a4.92,4.92,0,1,1,3.72,9.12l-.36.15A5,5,0,0,1,1082.83,139.89Zm21.07-4.15h-.42a4.93,4.93,0,0,1,0-9.85h.46a4.93,4.93,0,0,1,0,9.85Z"
       id="path185" />
    <path
       class="cls-22"
       d="M1911.35,303.85a70,70,0,1,1,70-70A70.08,70.08,0,0,1,1911.35,303.85Zm0-137.19a67.19,67.19,0,1,0,67.19,67.19A67.26,67.26,0,0,0,1911.35,166.66Z"
       id="path187" />
    <path
       class="cls-22"
       d="M1911.35,293.33a59.48,59.48,0,1,1,59.48-59.48A59.54,59.54,0,0,1,1911.35,293.33Zm0-116.15A56.67,56.67,0,1,0,1968,233.85,56.73,56.73,0,0,0,1911.35,177.18Z"
       id="path189" />
    <path
       class="cls-22"
       d="M1911.35,244.06a10.21,10.21,0,1,1,10.21-10.21A10.22,10.22,0,0,1,1911.35,244.06Zm0-17.61a7.4,7.4,0,1,0,7.4,7.4A7.4,7.4,0,0,0,1911.35,226.45Z"
       id="path191" />
    <path
       class="cls-22"
       d="M1918.64,228.42a1.41,1.41,0,0,1-1-2.43l23-21.71a1.41,1.41,0,0,1,1.93,2.05l-23,21.7A1.37,1.37,0,0,1,1918.64,228.42Z"
       id="path193" />
    <path
       class="cls-22"
       d="M1926.6,251.53a1.42,1.42,0,0,1-1-.44l-9-9.51a1.4,1.4,0,1,1,2-1.93l9,9.51a1.41,1.41,0,0,1-1,2.37Z"
       id="path195" />
    <circle
       class="cls-23"
       cx="1911.35"
       cy="233.88"
       r="4.99"
       id="circle197" />
    <path
       class="cls-22"
       d="M1911.35,198a1.41,1.41,0,0,1-1.41-1.41v-11a1.41,1.41,0,0,1,2.82,0v11A1.41,1.41,0,0,1,1911.35,198Z"
       id="path199" />
    <path
       class="cls-22"
       d="M1892.69,203a1.4,1.4,0,0,1-1.22-.71l-5.51-9.54a1.41,1.41,0,0,1,2.44-1.41l5.51,9.55a1.41,1.41,0,0,1-.51,1.92A1.43,1.43,0,0,1,1892.69,203Z"
       id="path201" />
    <path
       class="cls-22"
       d="M1879,216.63a1.37,1.37,0,0,1-.7-.19l-9.55-5.51a1.41,1.41,0,0,1,1.41-2.44l9.55,5.51a1.41,1.41,0,0,1-.71,2.63Z"
       id="path203" />
    <path
       class="cls-22"
       d="M1874,235.29h-11a1.41,1.41,0,0,1,0-2.82h11a1.41,1.41,0,1,1,0,2.82Z"
       id="path205" />
    <path
       class="cls-22"
       d="M1869.49,259.46a1.41,1.41,0,0,1-.71-2.63l9.55-5.51a1.41,1.41,0,0,1,1.41,2.44l-9.55,5.51A1.37,1.37,0,0,1,1869.49,259.46Z"
       id="path207" />
    <path
       class="cls-22"
       d="M1887.18,277.15a1.37,1.37,0,0,1-.7-.19A1.4,1.4,0,0,1,1886,275l5.51-9.54a1.41,1.41,0,1,1,2.44,1.4l-5.51,9.55A1.4,1.4,0,0,1,1887.18,277.15Z"
       id="path209" />
    <path
       class="cls-22"
       d="M1911.35,283.63a1.41,1.41,0,0,1-1.41-1.41v-11a1.41,1.41,0,0,1,2.82,0v11A1.41,1.41,0,0,1,1911.35,283.63Z"
       id="path211" />
    <path
       class="cls-22"
       d="M1935.52,277.15a1.41,1.41,0,0,1-1.22-.7l-5.51-9.55a1.41,1.41,0,0,1,2.44-1.4l5.51,9.54a1.41,1.41,0,0,1-.51,1.92A1.43,1.43,0,0,1,1935.52,277.15Z"
       id="path213" />
    <path
       class="cls-22"
       d="M1953.21,259.46a1.39,1.39,0,0,1-.7-.19l-9.54-5.51a1.41,1.41,0,1,1,1.4-2.44l9.55,5.51a1.41,1.41,0,0,1-.71,2.63Z"
       id="path215" />
    <path
       class="cls-22"
       d="M1959.69,235.29h-11a1.41,1.41,0,0,1,0-2.82h11a1.41,1.41,0,0,1,0,2.82Z"
       id="path217" />
    <path
       class="cls-22"
       d="M1943.67,216.63a1.41,1.41,0,0,1-.7-2.63l9.54-5.51a1.41,1.41,0,0,1,1.41,2.44l-9.55,5.51A1.37,1.37,0,0,1,1943.67,216.63Z"
       id="path219" />
    <path
       class="cls-22"
       d="M1930,203a1.37,1.37,0,0,1-.7-.19,1.4,1.4,0,0,1-.52-1.92l5.51-9.55a1.41,1.41,0,0,1,2.44,1.41l-5.51,9.54A1.39,1.39,0,0,1,1930,203Z"
       id="path221" />
    <path
       class="cls-22"
       d="M583.39,217.07a70.35,70.35,0,0,1,0-140.7,71.28,71.28,0,0,1,12.2,1.06,1.41,1.41,0,0,1-.49,2.78,67.54,67.54,0,1,0,54.76,78.47,1.42,1.42,0,0,1,1.64-1.14,1.41,1.41,0,0,1,1.13,1.64A70.29,70.29,0,0,1,583.39,217.07Z"
       id="path223" />
    <path
       class="cls-22"
       d="M652.34,148.13a1.41,1.41,0,0,1-1.41-1.41,67.55,67.55,0,0,0-41.58-62.35,1.41,1.41,0,0,1,1.08-2.6,70.36,70.36,0,0,1,43.31,65A1.41,1.41,0,0,1,652.34,148.13Z"
       id="path225" />
    <path
       class="cls-22"
       d="M588.34,205a1.41,1.41,0,0,1-.12-2.81,55.69,55.69,0,1,0-47.41-91.37,1.41,1.41,0,0,1-2.15-1.81,58.51,58.51,0,1,1,49.8,96Z"
       id="path227" />
    <path
       class="cls-22"
       d="M573.29,204.33a1.15,1.15,0,0,1-.26,0A58.55,58.55,0,0,1,534.6,179a1.41,1.41,0,0,1,2.35-1.56,55.64,55.64,0,0,0,36.58,24.08,1.41,1.41,0,0,1-.24,2.8Z"
       id="path229" />
    <path
       class="cls-22"
       d="M529.51,167a1.42,1.42,0,0,1-1.33-.95,58.55,58.55,0,0,1,3.36-46.45,1.4,1.4,0,1,1,2.49,1.3,55.68,55.68,0,0,0-3.19,44.22A1.41,1.41,0,0,1,530,167,1.55,1.55,0,0,1,529.51,167Z"
       id="path231" />
    <path
       class="cls-22"
       d="M583.39,189.9a43.18,43.18,0,1,1,41.08-56.46,1.4,1.4,0,1,1-2.67.86,40.36,40.36,0,1,0,2,12.42,1.41,1.41,0,1,1,2.81,0A43.23,43.23,0,0,1,583.39,189.9Z"
       id="path233" />
    <path
       class="cls-22"
       d="M583.39,177a30.55,30.55,0,0,1-30.26-29.18,1.41,1.41,0,0,1,2.82-.1A27.44,27.44,0,1,0,559.62,133a1.4,1.4,0,0,1-2.43-1.41A30.28,30.28,0,1,1,583.39,177Z"
       id="path235" />
    <path
       class="cls-22"
       d="M582.85,163.13a16.52,16.52,0,1,1,10.44-29.32,1.41,1.41,0,0,1,.2,2,1.39,1.39,0,0,1-2,.2,13.75,13.75,0,1,0,4.86,8.42,1.41,1.41,0,0,1,2.78-.45,16.72,16.72,0,0,1,.22,2.65A16.54,16.54,0,0,1,582.85,163.13Z"
       id="path237" />
    <path
       class="cls-22"
       d="M541.62,145.4h-.09l-15.21-1a1.41,1.41,0,0,1,.2-2.81l15.2,1a1.41,1.41,0,0,1-.1,2.81Z"
       id="path239" />
    <path
       class="cls-22"
       d="M599.18,109.48a1.37,1.37,0,0,1-.61-.15,1.4,1.4,0,0,1-.65-1.88l6.72-13.76a1.41,1.41,0,1,1,2.53,1.23l-6.72,13.77A1.42,1.42,0,0,1,599.18,109.48Z"
       id="path241" />
    <path
       class="cls-22"
       d="M547.63,207a1.41,1.41,0,0,1-1.23-2.09l5.67-10.3a1.41,1.41,0,0,1,2.47,1.36l-5.67,10.3A1.43,1.43,0,0,1,547.63,207Z"
       id="path243" />
    <path
       class="cls-22"
       d="M646.73,175.34a1.41,1.41,0,0,1-.6-.13l-10.76-5.05a1.41,1.41,0,1,1,1.19-2.55l10.76,5a1.41,1.41,0,0,1-.59,2.68Z"
       id="path245" />
    <path
       class="cls-22"
       d="M618.55,103.28a1.38,1.38,0,0,1-.87-.31,1.4,1.4,0,0,1-.23-2l7.41-9.38a1.41,1.41,0,0,1,2.21,1.74l-7.41,9.38A1.42,1.42,0,0,1,618.55,103.28Z"
       id="path247" />
    <path
       class="cls-22"
       d="M569.59,121.69a1.39,1.39,0,0,1-1.2-.67l-6.26-10.13a1.41,1.41,0,0,1,2.4-1.48l6.25,10.13a1.41,1.41,0,0,1-1.19,2.15Z"
       id="path249" />
    <path
       class="cls-22"
       d="M571.59,174.44a1.34,1.34,0,0,1-.69-.18,1.41,1.41,0,0,1-.53-1.92l6.8-12a1.41,1.41,0,0,1,2.45,1.39l-6.8,12A1.41,1.41,0,0,1,571.59,174.44Z"
       id="path251" />
    <circle
       class="cls-23"
       cx="582.85"
       cy="146.61"
       r="4.99"
       id="circle253" />
    <circle
       class="cls-24"
       cx="631.11"
       cy="140.27"
       r="4.99"
       id="circle255" />
    <path
       class="cls-22"
       d="M973,168.64H888.54a5.42,5.42,0,0,1-5.42-5.42V101.6a5.42,5.42,0,0,1,5.42-5.41H973a5.42,5.42,0,0,1,5.42,5.41v61.62A5.42,5.42,0,0,1,973,168.64ZM888.54,99a2.61,2.61,0,0,0-2.6,2.6v61.62a2.6,2.6,0,0,0,2.6,2.6H973a2.59,2.59,0,0,0,2.6-2.6V101.6A2.6,2.6,0,0,0,973,99Z"
       id="path257" />
    <path
       class="cls-22"
       d="M999.67,194.77H862.14a1.41,1.41,0,0,1-1-2.38l24.62-26.12a1.4,1.4,0,0,1,2,1.92L865.4,192h131L974,168.19a1.4,1.4,0,0,1,2.05-1.92l24.62,26.12a1.41,1.41,0,0,1-1,2.38Z"
       id="path259" />
    <path
       class="cls-22"
       d="M999.67,201.18H862.14a1.41,1.41,0,1,1,0-2.81H999.67a1.41,1.41,0,1,1,0,2.81Z"
       id="path261" />
    <path
       class="cls-22"
       d="M968.79,163.19H890.88a1.41,1.41,0,1,1,0-2.82h77.91a1.41,1.41,0,1,1,0,2.82Z"
       id="path263" />
    <path
       class="cls-22"
       d="M945.69,186.58H912.86a1.41,1.41,0,0,1-1.27-2l5.16-10.88a1.4,1.4,0,0,1,1.27-.8h22.75a1.4,1.4,0,0,1,1.28.83L947,184.59a1.41,1.41,0,0,1-1.28,2Zm-30.6-2.82h28.42l-3.65-8.06h-21Z"
       id="path265" />
    <circle
       class="cls-23"
       cx="898.45"
       cy="113.49"
       r="4.99"
       id="circle267" />
    <circle
       class="cls-23"
       cx="898.45"
       cy="127.15"
       r="4.99"
       id="circle269" />
    <circle
       class="cls-23"
       cx="898.45"
       cy="140.13"
       r="4.99"
       id="circle271" />
    <path
       class="cls-22"
       d="M934.67,114.9H912.51a1.41,1.41,0,1,1,0-2.82h22.16a1.41,1.41,0,1,1,0,2.82Z"
       id="path273" />
    <path
       class="cls-22"
       d="M934.67,121.93H912.51a1.41,1.41,0,1,1,0-2.81h22.16a1.41,1.41,0,1,1,0,2.81Z"
       id="path275" />
    <path
       class="cls-22"
       d="M934.67,129H912.51a1.41,1.41,0,1,1,0-2.82h22.16a1.41,1.41,0,1,1,0,2.82Z"
       id="path277" />
    <path
       class="cls-22"
       d="M934.67,135.52H912.51a1.41,1.41,0,1,1,0-2.81h22.16a1.41,1.41,0,1,1,0,2.81Z"
       id="path279" />
    <path
       class="cls-22"
       d="M934.67,142.56H912.51a1.41,1.41,0,1,1,0-2.82h22.16a1.41,1.41,0,1,1,0,2.82Z"
       id="path281" />
    <path
       class="cls-22"
       d="M964.39,114.9H942.23a1.41,1.41,0,0,1,0-2.82h22.16a1.41,1.41,0,0,1,0,2.82Z"
       id="path283" />
    <path
       class="cls-22"
       d="M964.39,121.93H942.23a1.41,1.41,0,0,1,0-2.81h22.16a1.41,1.41,0,1,1,0,2.81Z"
       id="path285" />
    <path
       class="cls-22"
       d="M964.39,129H942.23a1.41,1.41,0,0,1,0-2.82h22.16a1.41,1.41,0,0,1,0,2.82Z"
       id="path287" />
    <path
       class="cls-25"
       d="M1504.19,98.66a1.41,1.41,0,0,1-.77-.75L1499,87.56a1.41,1.41,0,0,1,1.07-2l13.9-2.15,54.13-23.1-3.72-8.74a1.39,1.39,0,0,1,.74-1.84l8.41-3.59c.21-.1,5.67-2.84.3-15.43-4.19-9.81-11-8.87-11.89-8.69l-16.37,7,11,25.89a1.4,1.4,0,0,1-.74,1.84l-14.23,6.08a1.41,1.41,0,0,1-1.11-2.59l12.94-5.52-11-25.88a1.39,1.39,0,0,1,.74-1.85L1561,19.43l.21-.08c.1,0,9.87-2.3,15.25,10.31,2.67,6.25,3.26,11.32,1.77,15.05a7.3,7.3,0,0,1-3.56,4.06l-7.11,3,3.72,8.74a1.39,1.39,0,0,1-.74,1.84l-55.59,23.73a1.33,1.33,0,0,1-.34.1l-12.28,1.9,3.71,8.69a1.4,1.4,0,0,1-1.82,1.85Z"
       id="path289" />
    <path
       class="cls-22"
       d="M1425.32,97.52a1.4,1.4,0,0,1-.74-.7,1.44,1.44,0,0,1,0-1.2l10-21.4a1.35,1.35,0,0,1,.72-.69l100.29-42.81a1.42,1.42,0,0,1,1.85.74l11.43,26.79a1.41,1.41,0,0,1-.74,1.85l-100.3,42.8a1.43,1.43,0,0,1-.89.07l-21.42-5.39Zm11.57-21.62-9,19.37,19.31,4.85,98.56-42.06-10.33-24.2Z"
       id="path291" />
    <path
       class="cls-22"
       d="M1537,64.39a1.43,1.43,0,0,1-.77-.76l-11.43-26.78a1.41,1.41,0,0,1,2.59-1.11l11.43,26.79a1.42,1.42,0,0,1-.74,1.85A1.44,1.44,0,0,1,1537,64.39Z"
       id="path293" />
    <path
       class="cls-22"
       d="M1446.78,78.8a1.45,1.45,0,0,1-.77-.75,1.41,1.41,0,0,1,.75-1.85L1519.88,45a1.41,1.41,0,0,1,1.1,2.59l-73.12,31.21A1.44,1.44,0,0,1,1446.78,78.8Z"
       id="path295" />
    <path
       class="cls-22"
       d="M1433.29,99.52a1.41,1.41,0,0,1-.77-.75l-4.25-10a1.41,1.41,0,1,1,2.59-1.11l4.25,10a1.39,1.39,0,0,1-.74,1.84A1.35,1.35,0,0,1,1433.29,99.52Z"
       id="path297" />
  </g>
</svg>
