<?xml version="1.0" encoding="UTF-8" standalone="no"?>
<svg
   xmlns:dc="http://purl.org/dc/elements/1.1/"
   xmlns:cc="http://creativecommons.org/ns#"
   xmlns:rdf="http://www.w3.org/1999/02/22-rdf-syntax-ns#"
   xmlns:svg="http://www.w3.org/2000/svg"
   xmlns="http://www.w3.org/2000/svg"
   xmlns:sodipodi="http://sodipodi.sourceforge.net/DTD/sodipodi-0.dtd"
   xmlns:inkscape="http://www.inkscape.org/namespaces/inkscape"
   viewBox="0 0 2500 365.17"
   version="1.1"
   id="svg392"
   sodipodi:docname="zahlavi.svg"
   inkscape:version="0.92.1 r15371">
  <metadata
     id="metadata396">
    <rdf:RDF>
      <cc:Work
         rdf:about="">
        <dc:format>image/svg+xml</dc:format>
        <dc:type
           rdf:resource="http://purl.org/dc/dcmitype/StillImage" />
        <dc:title>zahlavi_bile_vystupy_novyvizual</dc:title>
      </cc:Work>
    </rdf:RDF>
  </metadata>
  <sodipodi:namedview
     pagecolor="#ffffff"
     bordercolor="#666666"
     borderopacity="1"
     objecttolerance="10"
     gridtolerance="10"
     guidetolerance="10"
     inkscape:pageopacity="0"
     inkscape:pageshadow="2"
     inkscape:window-width="960"
     inkscape:window-height="1182"
     id="namedview394"
     showgrid="false"
     inkscape:zoom="0.2768"
     inkscape:cx="1097.8715"
     inkscape:cy="131.4119"
     inkscape:window-x="0"
     inkscape:window-y="0"
     inkscape:window-maximized="0"
     inkscape:current-layer="svg392" />
  <defs
     id="defs4">
    <style
       id="style2">.cls-1{fill:#c3d4fc;}.cls-2,.cls-4,.cls-9{fill:blue;}.cls-3{fill:#efefef;}.cls-4{font-size:20.98px;font-family:NeueHaasUnicaPro-Regular, Neue Haas Unica Pro;}.cls-5{letter-spacing:-0.02em;}.cls-6{letter-spacing:0.01em;}.cls-7{letter-spacing:-0.01em;}.cls-8{letter-spacing:-0.02em;}.cls-9{font-size:43.72px;font-family:NeueHaasUnicaPro-Bold, Neue Haas Unica Pro;font-weight:700;}.cls-10{letter-spacing:-0.03em;}.cls-11{letter-spacing:0.01em;}.cls-12{font-size:34.97px;}.cls-13{letter-spacing:-0.01em;}.cls-14{letter-spacing:0.01em;}.cls-15{letter-spacing:0em;}.cls-16{letter-spacing:-0.03em;}.cls-17{fill:none;stroke:blue;stroke-miterlimit:10;stroke-width:4px;}.cls-18{fill:#fff;}.cls-19{fill:#ffe368;}.cls-20{fill:#7594f9;}.cls-21{fill:#f2f2f2;}.cls-22{fill:#486afc;}.cls-23{opacity:0.89;}</style>
  </defs>
  <title
     id="title6">zahlavi_bile_vystupy_novyvizual</title>
  <polygon
     style="fill:#c3d4fc"
     id="polygon8"
     points="0,0 0,365.01 2500,357.76 2500,0 "
     class="cls-1" />
  <path
     style="fill:#efefef"
     inkscape:connector-curvature="0"
     id="path12"
     d="M 1878.51,343.1 1853.26,326 h -98.92 v -74.17 c 3.34,-0.56 5.5,-1.44 5.5,-2.43 0,-0.99 -2.16,-1.86 -5.5,-2.42 v -5 c 3.34,-0.61 5.5,-1.56 5.5,-2.63 0,-0.42 -0.35,-0.83 -1,-1.21 a 1.58,1.58 0 1 0 -2.08,-1.5 1.69,1.69 0 0 0 0.17,0.71 23.29,23.29 0 0 0 -2.6,-0.62 v -4.83 c 3.34,-0.64 5.5,-1.63 5.5,-2.74 0,-1.11 -2.16,-2.1 -5.5,-2.73 V 222 a 17.36,17.36 0 0 0 3.43,-1 1,1 0 0 0 0,0.3 1.06,1.06 0 1 0 1.34,-1 1.59,1.59 0 0 0 0.78,-1.2 c 0,-0.5 -0.38,-1 -1,-1.4 h 0.2 a 1,1 0 1 0 -0.69,-0.3 20.62,20.62 0 0 0 -6.17,-1.62 3.59,3.59 0 0 0 -2.45,-6.23 h -0.27 l -1.47,-3.72 v -1.87 h 1 v -0.51 h -1 v -3.75 h 1 v -0.52 h -1 v -3.78 h 1 v -0.51 h -1 v -3.76 h 1 v -0.52 h -1 v -3.75 h 1 v -0.52 h -1 v -3.79 h 1 V 182 h -1 v -3.79 h 1 v -0.51 h -1 v -3.8 h 1 v -0.51 h -1 v -1.89 h -1.11 v 0 l -1.2,1.19 v -1.24 h 0.28 v -2.34 h -0.51 v -0.47 h 0.51 v -2.34 h -0.51 v -0.49 h 0.51 v -2.33 h -0.51 v -0.49 h 0.51 v -2.34 h -0.51 v -0.62 h 0.51 v -2.34 h -1.66 v 2.34 h 0.51 v 0.62 h -0.51 v 2.34 h 0.51 v 0.49 h -0.51 v 2.33 h 0.51 v 0.49 h -0.51 v 2.34 h 0.51 v 0.47 h -0.51 v 2.34 h 0.27 v 1.24 l -1.19,-1.19 v 0 h -1.11 v 1.89 h -1 v 0.51 h 1 v 3.8 h -1 v 0.51 h 1 V 182 h -1 v 0.52 h 1 v 3.79 h -1 v 0.52 h 1 v 3.75 h -1 v 0.52 h 1 v 3.76 h -1 v 0.51 h 1 v 3.76 h -1 v 0.52 h 1 v 3.75 h -1 v 0.51 h 1 v 1.87 c 0,0 -1.09,2.76 -2.19,5.52 a 2.44,2.44 0 1 0 -1.71,4.22 l -0.14,0.34 c -4,0.65 -6.7,1.82 -6.7,3.15 0,1.33 2.16,2.25 5.51,2.92 v 1.32 a 2.11,2.11 0 1 0 -2.14,3.61 c -2.1,0.6 -3.37,1.38 -3.37,2.23 0,1.11 2.16,2.1 5.51,2.74 v 4.83 c -3.35,0.61 -5.51,1.56 -5.51,2.62 0,1.06 2.16,2 5.51,2.63 v 5 c -3.35,0.56 -5.51,1.43 -5.51,2.42 0,0.99 2.16,1.87 5.51,2.43 V 326 h -278.54 l -83.7,12.33 -51.8,7.63 -19.19,2.83 54.56,1 32.19,0.56 3.63,0.07 v 0 l 508.08,8.91 z m -132.79,-134.65 0.5,1.12 -0.4,2.53 c -0.03,-1.25 -0.07,-2.55 -0.1,-3.65 z m 2.71,1.29 -0.16,0.06 v -0.56 z m -1.56,5.61 h -0.78 l 0.2,-1 a 3.48,3.48 0 0 0 0.58,1 z m 0,-11.41 v 1.11 l -1.11,-1.11 z m -1.14,-0.51 1.14,-1.14 v 1.14 z m 1.14,-3.75 v 1.12 l -1.13,-1.12 z m -1.13,-0.52 1.13,-1.13 v 1.13 z m 1.13,-3.76 v 1.13 l -1.13,-1.13 z m -1.13,-0.51 1.13,-1.13 v 1.13 z m 1.13,-3.76 v 1.13 l -1.13,-1.13 z m -1.13,-0.52 1.13,-1.12 v 1.12 z m 1.13,-3.75 V 188 l -1.13,-1.12 z m -1.13,-0.52 1.13,-1.12 v 1.12 z m 1.13,-3.79 v 1.12 l -1.13,-1.12 z m -1.13,-0.52 1.13,-1.12 V 182 Z m 1.13,-3.79 v 1.13 l -1.13,-1.13 z m -1.13,-0.51 1.13,-1.13 v 1.13 z m 1.13,-5.44 v 1.13 h -1.13 z m 0,1.64 v 1.13 l -1.13,-1.13 z m -1.2,0.66 1.2,1.2 v 0.08 l -1.2,1.19 z m 0,4.31 1.2,1.2 v 0.08 l -1.2,1.19 z m 0,4.31 1.2,1.2 v 0.08 l -1.2,1.19 z m 0,4.31 1.2,1.19 v 0 l -1.2,1.19 z m 0,4.27 1.2,1.2 v 0 l -1.2,1.2 z m 0,4.27 1.2,1.2 v 0 l -1.2,1.2 z m 0,4.28 1.2,1.19 v 0 l -1.2,1.19 z m 0,4.25 1.2,1.19 v 0 l -0.33,2.07 -0.87,-2.07 z m -1,3.72 0.26,7 v 0 l -0.88,-5.47 z m -1.28,-36 1.12,1.13 h -1.12 z m 0,1.64 h 1.12 l -1.12,1.13 z m 0,1.86 1.19,-1.2 v 2.47 l -1.19,-1.19 z m 0,0.81 1.13,1.13 h -1.13 z m 0,1.64 h 1.12 l -1.12,1.13 z m 0,1.86 1.19,-1.2 v 2.47 l -1.19,-1.19 z m 0,0.81 1.12,1.12 h -1.12 z m 0,1.64 h 1.12 l -1.12,1.12 z m 0,1.86 1.19,-1.2 v 2.47 l -1.19,-1.19 z m 0,0.81 1.13,1.12 h -1.13 z m 0,1.64 h 1.12 l -1.12,1.12 z m 0,1.85 1.19,-1.19 V 190 l -1.19,-1.19 z m 0,0.78 1.13,1.12 h -1.13 z m 0,1.64 h 1.12 l -1.12,1.13 z m 0,1.86 1.19,-1.2 v 2.44 l -1.19,-1.2 z m 0,0.77 1.13,1.13 h -1.13 z m 0,1.64 h 1.12 l -1.12,1.13 z m 0,1.86 1.19,-1.2 v 2.44 l -1.19,-1.2 z m 0,0.77 1.13,1.13 h -1.13 z m 0,1.65 h 1.12 l -1.12,1.12 z m 0,1.85 1.19,-1.19 v 2.41 l -1.19,-1.19 z m 0,0.76 1.14,1.14 h -1.14 z m 0,1.65 h 1.11 l -1.11,1.11 z m 0,1.84 1.19,-1.19 v 1.22 c 0,0 -0.34,0.88 -0.85,2.14 l -0.34,-2.14 z m -0.36,3.87 v 0 0.05 c 0,0 -0.03,-0.04 -0.03,-0.07 z m -0.34,3.54 0.69,-1.71 0.76,3.88 c -0.57,0 -1.13,0 -1.68,0.07 0.01,-0.65 0.08,-1.45 0.17,-2.26 z m -3.16,2.09 a 2.37,2.37 0 0 0 1.2,-2.94 l 1.26,-3.1 -0.33,3.89 c -0.37,0.94 -0.72,1.79 -1,2.45 q -0.67,0.06 -1.32,0.15 z m -8,6.93 a 1.38,1.38 0 1 0 1.38,1.38 1.37,1.37 0 0 0 -1.43,-1.4 z m 0,10.79 a 0.85,0.85 0 0 0 -0.84,0.85 0.85,0.85 0 0 0 1.69,0 0.85,0.85 0 0 0 -0.9,-0.87 z m 3.07,-1.3 a 2.15,2.15 0 1 0 2.15,2.15 2.15,2.15 0 0 0 -2.2,-2.17 z m 21.69,0.67 a 1.48,1.48 0 1 0 1.48,1.48 1.48,1.48 0 0 0 -1.53,-1.5 z m 0,-8.89 a 1.48,1.48 0 1 0 1.48,1.48 1.48,1.48 0 0 0 -1.53,-1.5 z m 2.54,-0.53 a 1.17,1.17 0 1 0 1.16,1.16 1.16,1.16 0 0 0 -1.21,-1.13 z m 1.06,3.28 a 0.85,0.85 0 1 0 0,1.69 0.85,0.85 0 0 0 0,-1.69 z m -28.67,-1 a 1.24,1.24 0 1 0 1.23,1.23 1.23,1.23 0 0 0 -1.28,-1.27 z m 25.07,-12.31 a 1.48,1.48 0 1 0 1.48,1.48 1.48,1.48 0 0 0 -1.53,-1.52 z m -22.64,2 a 1,1 0 1 0 1,1 0.95,0.95 0 0 0 -1.05,-1.03 z"
     class="cls-3" />
  <path
     style="fill:#efefef"
     inkscape:connector-curvature="0"
     id="path14"
     d="m 1328.2,309.33 h -32.37 l -0.14,-5.92 0.91,-0.15 -9.6,-4.26 -5,-0.42 v -2.17 h -1 v 2.08 l -6.88,-0.57 -1.24,-2 h -1 v -0.51 h -1 v 0.51 h -4.37 v -2.05 h -2.72 v 2.05 h -2.41 v -1.47 h -1.57 v 1.47 h -3 v -1.83 h -1.61 v 1.83 h -0.8 v -1.83 h -0.92 v 1.83 h -2.74 l -6.16,-0.51 v -2.36 H 1243 v 2.23 l -1.65,-0.14 -8.09,-4.42 -8.65,-0.69 v -1.63 h -0.92 v 1.6 l -1.52,-0.13 -3.62,1.7 h -2.76 l -0.72,0.75 -1.09,-0.58 v -7.78 h 0.4 v -1 h -0.54 l -1.24,-2.12 -1.26,-1.07 v -1.06 l -0.37,-2.15 h -0.61 l -0.6,2.18 v 1.06 l -1.35,1.18 -1.21,1.95 h -0.26 v 0.82 h 0.27 V 291 l -2.53,-0.11 v 0.91 h -1.66 v -0.58 h -2.26 v -11.36 h -0.58 v 2.52 h -0.53 v 3.49 h 0.53 v 4.89 l -10.24,-7.8 h -4.79 l -2.64,1.72 -2.3,-0.05 -2.13,-2.3 h -19.64 l -10.12,9.88 h 0.75 v 5.51 l -1.15,1.38 v 7.07 l -5.46,-0.06 v -3.31 h 1.46 l -5.94,-4.49 v -1.83 h -1.07 v 1 l -5.55,-4.2 h -2.76 V 292 h -2.22 v 1.34 h -5.21 V 292 h -2.22 v 1.34 h -5.82 V 292 h -2.23 v 1.34 h -5 V 292 h -2.22 v 1.34 h -2 l -12.87,9 v 7 l -58.25,5.31 3.33,49.12 367.48,-9 z"
     class="cls-3" />
  <path
     style="fill:#efefef"
     inkscape:connector-curvature="0"
     id="path16"
     d="M 2500,343.68 V 365 H 1160.55 l 110.11,-7 v 0 l 103.09,-6.6 16.84,-1.08 3.2,-0.2 117.42,-7.52 22.65,0.05 v -48.73 l 2.43,-5.68 v -6.89 l 1.35,-1.87 1.49,-13.13 0.64,5.2 c 0.29,-6.12 0.57,-12.1 0.57,-12.49 l 1.74,13.15 c 0.41,-2.68 0.84,-5.54 0.9,-5.86 0,0 0.47,2.11 1,4.37 l 12.9,-17.85 2.83,-21.17 c 0,0 0.69,7.89 1.45,15.25 l 4.82,-6.67 c 0.53,-6.69 1.23,-15.47 1.23,-15.78 0,0 0.49,6.85 0.91,12.82 l 1.62,-2.24 V 222 l 2.94,-3.57 0.71,-12.24 1.14,11.87 2.5,5.76 v 6 l 1,-0.12 0.77,-6.31 c 0,0 0.28,2.82 0.62,6.13 l 30.79,-3.94 V 209.2 h 1.42 v -8.51 h 0.71 v -10.64 h 2.43 v 10.64 h 0.71 v 8.51 h 1.32 v -25.54 h 1.62 v -7.14 h 4.91 l 3.51,-86.82 a 2.58,2.58 0 0 1 0.21,-5.14 v -0.91 0.91 a 2.58,2.58 0 0 1 0.24,5.14 l 4.18,86.82 h 4.2 v 7.14 h 1.62 V 210 h 1.42 v -8.5 h 0.71 v -10.64 h 2.43 v 10.64 h 0.71 v 8.5 h 1.44 v 11.23 l 5.37,-0.69 6.69,8.08 v -13.34 h 1.41 v -8.51 h 0.71 v -10.64 h 2.44 v 10.64 h 0.71 v 8.51 h 1.31 v -25.54 h 1.62 v -7.14 h 4.92 l 3.5,-86.82 a 2.58,2.58 0 0 1 0.21,-5.14 v -0.91 0.91 a 2.58,2.58 0 0 1 0.25,5.14 l 4.18,86.82 h 4.19 v 7.14 h 1.62 v 26.35 h 1.42 v -8.51 h 0.71 v -10.64 h 2.43 v 10.64 h 0.71 v 8.51 h 1.42 V 252 l 9.32,-1 13.86,25.89 4,2.84 v 4.86 l 4.86,8.11 V 343 l 156.57,0.14 z"
     class="cls-3" />
  <path
     style="fill:#efefef"
     inkscape:connector-curvature="0"
     id="path18"
     d="m 1406.29,354.84 -5.82,-0.62 -26.71,-2.86 -15.35,-1.64 -35.41,-3.79 -292.51,-31.29 -48,-0.36 0.3,-15.58 h -47.67 v -4 H 933 v -13.9 h 0.86 V 273 a 16.69,16.69 0 0 0 -9.33,-15 v -2.63 H 909.87 V 258 a 16.67,16.67 0 0 0 -9.33,15 v 7.76 h 0.86 v 13.9 h -2.1 v 4 H 892 V 250 h -7.65 a 16.12,16.12 0 0 0 -10.94,-8.57 v -1.36 h -2.24 v -0.56 h -2.54 v 0.56 h -2.24 v 1.36 A 16.13,16.13 0 0 0 854.29,253 h -8.91 v 3.88 H 834 v -10.76 h -13.7 v -3.48 h -11.95 v 3.48 h -3.28 v 10.75 h -19.51 v -5.07 h -2 v 5.07 h -1.1 v -5.07 h -2 v 5.07 H 777.9 V 250 h -4.47 a 39.48,39.48 0 0 0 -29.21,-26.57 v -2.85 h -3.35 v -0.89 h -10 v 0.89 h -3.35 v 2.85 A 39.48,39.48 0 0 0 698.32,250 H 694 v 4.77 H 628.15 V 300 l -161.81,-0.14 v 2.58 40.9 H 0 V 365 H 1432.11 Z M 715.12,302 h -6.48 v -15.56 h 6.48 z m 8,0 h -6.51 v -15.56 h 6.51 z m 8,0 h -6.51 v -15.56 h 6.51 z m 8,0 h -6.5 v -15.56 h 6.5 z m 8,0 h -6.5 V 286.44 H 747 Z m 8,0 h -6.62 v -15.56 h 6.5 z m 8,0 h -6.49 V 286.44 H 763 Z m 18.94,-6.47 h -4 v -13.27 h 4 z m 5.29,0 h -4 v -13.27 h 4 z m 5.29,0 h -4 v -13.27 h 4 z m 5.29,0 h -4 v -13.27 h 4 z m 5.29,0 h -4 v -13.27 h 4 z m 5.29,0 h -4 v -13.27 h 4 z m 5.29,0 h -4 v -13.27 h 4 z m 5.29,0 h -4 v -13.27 h 4 z m 5.28,0 h -4 v -13.27 h 4 z m 5.29,0 h -4 v -13.27 h 4 z m 5.29,0 h -4 v -13.27 h 4 z m 5.29,0 h -4 v -13.27 h 4 z m 5.29,0 h -4 v -13.27 h 4 z m 40,4.08 h -32.77 v -13.17 h 32.57 z"
     class="cls-3" />
  <g
     id="Vrstva_24"
     data-name="Vrstva 24">
    <path
       class="cls-18"
       d="M1995.3,316.69a31.84,31.84,0,0,1-10-62.05V233.35a6.16,6.16,0,0,0-1.9-.57l.2-2.55h23.83l.13,2.56a7.57,7.57,0,0,0-2.17.48v21.37a31.84,31.84,0,0,1-10,62.05Zm-7.48-83.9v23.74l-.91.27a29.28,29.28,0,1,0,16.79,0l-.91-.27V232.79Z"
       id="path77" />
    <path
       class="cls-19"
       d="M2017.09,300.93a27,27,0,0,0,5.26-13.25,27.66,27.66,0,0,1-5.38,13.26Z"
       id="path79" />
    <path
       class="cls-19"
       d="M2022.5,285.87c0,.61-.08,1.21-.15,1.81.08-.6.14-1.2.18-1.82Z"
       id="path81" />
    <path
       class="cls-19"
       d="M2020.71,286.17l1.79-.3c0-.42,0-.84,0-1.27a27.32,27.32,0,0,0-.61-5.76c-2.78.19-5.54.39-7.58.58a94.36,94.36,0,0,0-17.21,3.18,55.45,55.45,0,0,0-11.25-2.88,35.26,35.26,0,0,0-4.76-.3,69.73,69.73,0,0,0-13,1.42,29.85,29.85,0,0,0-.19,3.3,27.51,27.51,0,0,0,27.32,27.69,27.12,27.12,0,0,0,21.7-10.89h0a27.66,27.66,0,0,0,5.38-13.26c.07-.6.12-1.2.15-1.81l-1.78.3Zm-6.18-4.61c1.42-.14,3.31-.29,5.62-.45a25.48,25.48,0,0,1,.24,3.49c0,.55,0,1.08-.06,1.62a51.07,51.07,0,0,1-6.57.55,25.74,25.74,0,0,1-3-.16,44.83,44.83,0,0,1-10.16-2.75A98.4,98.4,0,0,1,2014.53,281.56Zm1.4,17.32h-.12a26.92,26.92,0,0,1-1.81,2.3h0a25,25,0,0,1-18.73,8.5,25.39,25.39,0,0,1-25.18-25.55c0-.5,0-1,0-1.5a66,66,0,0,1,11-1.08,34,34,0,0,1,4.47.28,47.65,47.65,0,0,1,8.16,1.89c1.13.36,2.24.74,3.33,1.12l1.89.68a51,51,0,0,0,11.59,3.21,29,29,0,0,0,3.2.17,46.08,46.08,0,0,0,6.32-.48h0A24.72,24.72,0,0,1,2015.93,298.88Z"
       id="path83" />
    <path
       class="cls-19"
       d="M2015.93,298.88a24.72,24.72,0,0,0,4.11-10.21,25.54,25.54,0,0,1-4.23,10.22Z"
       id="path85" />
    <path
       class="cls-19"
       d="M2020.09,288.43h0c0,.08,0,.16,0,.24A2,2,0,0,1,2020.09,288.43Z"
       id="path87" />
    <rect
       class="cls-20"
       x="1983.56"
       y="226.52"
       width="23.83"
       height="2.24"
       id="rect89" />
    <path
       class="cls-19"
       d="M2028.77,297.87h-66.93a2.68,2.68,0,0,0,0,5.35h8.93l-7.46,21.72a2.68,2.68,0,1,0,5.06,1.74l8.06-23.46h16.4c0,.13,0,.25,0,.38v26.67a2.68,2.68,0,0,0,2.67,2.67h0a2.68,2.68,0,0,0,2.68-2.67V303.6a2.45,2.45,0,0,0,0-.38h16.4l8.06,23.46a2.68,2.68,0,0,0,5.07-1.74l-7.47-21.72h8.6a2.68,2.68,0,0,0,0-5.35Z"
       id="path91" />
    <path
       class="cls-20"
       d="M2033.52,184.15c-10.55,0-17.93-3-21.26-8.7-4.5-7.74-1-19.4,10-32.83,10.66-13.11,27.15-26.5,46.44-37.7s39.08-18.89,55.75-21.65c17.09-2.84,29-.14,33.46,7.6,9.2,15.83-15.59,46.81-56.42,70.52-19.28,11.2-39.08,18.89-55.75,21.66A74.54,74.54,0,0,1,2033.52,184.15Zm103-99.4a72,72,0,0,0-11.67,1c-16.37,2.72-35.86,10.3-54.88,21.35s-35.27,24.22-45.75,37.09c-10.06,12.37-13.61,23.28-9.75,29.93s15.1,9,30.83,6.36c16.37-2.72,35.86-10.3,54.89-21.34s35.26-24.23,45.74-37.1c10.06-12.36,13.61-23.27,9.75-29.92C2152.85,87.29,2146.09,84.75,2136.52,84.75Z"
       id="path93" />
    <path
       class="cls-20"
       d="M2067,215a13.71,13.71,0,0,1-3.5-.45c-17.7-4.69-22.08-44.12-10-89.76,5.71-21.56,14.28-41,24.11-54.74,10.07-14.08,20.38-20.58,29-18.28h0c8.65,2.29,14.39,13,16.16,30.27,1.73,16.8-.47,37.93-6.19,59.49s-14.27,41-24.1,54.74C2083.78,208.5,2074.85,215,2067,215Zm36.23-161.11c-7,0-15.36,6.25-23.51,17.65-9.65,13.5-18.08,32.64-23.72,53.91s-7.81,42.06-6.11,58.57c1.63,15.85,6.83,26.08,14.27,28s17-4.33,26.29-17.29c9.66-13.5,18.08-32.65,23.72-53.91s7.81-42.06,6.11-58.57c-1.63-15.86-6.83-26.08-14.27-28.06h0A11.09,11.09,0,0,0,2103.22,53.89Z"
       id="path95" />
    <path
       class="cls-20"
       d="M2124.37,171.48c-14.41,0-30.91-2.32-47.66-6.76-21.56-5.72-41-14.28-54.74-24.11-14.09-10.08-20.58-20.39-18.29-29s13-14.39,30.27-16.16c16.81-1.73,37.94.47,59.5,6.19s41,14.28,54.73,24.11c14.09,10.07,20.58,20.38,18.29,29s-13,14.39-30.27,16.16A114.45,114.45,0,0,1,2124.37,171.48ZM2045.79,97.4a112.41,112.41,0,0,0-11.57.56c-15.86,1.63-26.09,6.83-28.06,14.27h0c-2,7.44,4.33,17,17.3,26.29,13.5,9.66,32.64,18.08,53.9,23.72s42.07,7.81,58.58,6.11c15.85-1.62,26.08-6.83,28-14.26s-4.33-17-17.3-26.3c-13.49-9.65-32.64-18.07-53.9-23.71C2076.24,99.69,2060,97.4,2045.79,97.4Z"
       id="path97" />
    <circle
       class="cls-21"
       cx="2014.11"
       cy="162.2"
       r="5.74"
       id="circle99" />
    <circle
       class="cls-21"
       cx="2159.28"
       cy="137.89"
       r="5.74"
       id="circle101" />
    <circle
       class="cls-21"
       cx="2070.39"
       cy="85.34"
       r="5.74"
       id="circle103" />
    <circle
       class="cls-22"
       cx="2083.39"
       cy="133.95"
       r="3.92"
       id="circle105" />
    <circle
       class="cls-22"
       cx="2088.39"
       cy="132.34"
       r="3.92"
       id="circle107" />
    <circle
       class="cls-22"
       cx="2088.23"
       cy="137.66"
       r="3.92"
       id="circle109" />
    <circle
       class="cls-19"
       cx="2084.57"
       cy="126.27"
       r="3.92"
       id="circle111" />
    <circle
       class="cls-22"
       cx="2089.56"
       cy="124.66"
       r="3.92"
       id="circle113" />
    <circle
       class="cls-22"
       cx="2089.4"
       cy="129.99"
       r="3.92"
       id="circle115" />
    <circle
       class="cls-22"
       cx="2091.15"
       cy="134.9"
       r="3.92"
       id="circle117" />
    <circle
       class="cls-22"
       cx="2096.14"
       cy="133.29"
       r="3.92"
       id="circle119" />
    <circle
       class="cls-22"
       cx="2095.98"
       cy="138.61"
       r="3.92"
       id="circle121" />
    <circle
       class="cls-22"
       cx="2082.99"
       cy="138.36"
       r="3.92"
       id="circle123" />
    <circle
       class="cls-22"
       cx="2087.98"
       cy="136.75"
       r="3.92"
       id="circle125" />
    <circle
       class="cls-22"
       cx="2087.82"
       cy="142.07"
       r="3.92"
       id="circle127" />
    <circle
       class="cls-22"
       cx="2079.04"
       cy="132.05"
       r="3.92"
       id="circle129" />
    <circle
       class="cls-22"
       cx="2084.03"
       cy="130.44"
       r="3.92"
       id="circle131" />
    <circle
       class="cls-19"
       cx="2083.87"
       cy="135.76"
       r="3.92"
       id="circle133" />
    <circle
       class="cls-22"
       cx="2088.93"
       cy="128.39"
       r="3.92"
       id="circle135" />
    <circle
       class="cls-19"
       cx="2093.93"
       cy="126.78"
       r="3.92"
       id="circle137" />
    <circle
       class="cls-22"
       cx="2093.76"
       cy="132.1"
       r="3.92"
       id="circle139" />
    <circle
       class="cls-19"
       cx="2088.24"
       cy="135.31"
       r="3.92"
       id="circle141" />
    <circle
       class="cls-22"
       cx="2093.24"
       cy="133.7"
       r="3.92"
       id="circle143" />
    <circle
       class="cls-19"
       cx="2093.08"
       cy="139.02"
       r="3.92"
       id="circle145" />
    <path
       class="cls-20"
       d="M610,239.57c-4.29,0-7.86-1.23-10.46-3.7-4.8-4.54-5.61-12.59-2.29-22.68,3.21-9.76,9.94-20.38,18.94-29.9,19.14-20.21,41.8-28.78,51.59-19.51,4.8,4.54,5.61,12.6,2.29,22.68-3.21,9.77-9.94,20.38-18.94,29.9s-19.24,16.82-28.82,20.56A34.4,34.4,0,0,1,610,239.57Zm47.21-77c-10.51,0-25.85,8.41-39.15,22.47-8.76,9.24-15.28,19.52-18.38,28.93-3,9.09-2.42,16.2,1.62,20s11.17,4,20.08.52c9.23-3.61,19.13-10.69,27.88-19.93s15.28-19.53,18.38-28.94c3-9.09,2.42-16.2-1.62-20A12.42,12.42,0,0,0,657.16,162.59Z"
       id="path147" />
    <path
       class="cls-20"
       d="M609.81,226.83a9,9,0,0,1-6.4-2.24c-3.32-3.14-3.48-9.06-.47-16.66,2.87-7.24,8.29-15.29,15.28-22.67,14.94-15.78,31.83-23.23,38.46-16.95h0c6.63,6.28.12,23.55-14.82,39.33-7,7.38-14.72,13.24-21.79,16.5A25.36,25.36,0,0,1,609.81,226.83Zm40.47-58.18c-6.91,0-18.63,6.16-30.2,18.37-6.77,7.15-12,14.91-14.76,21.85-2.56,6.47-2.62,11.52-.15,13.86s7.51,2,13.83-.92c6.77-3.12,14.23-8.78,21-15.93,14.88-15.72,19.73-31.15,14.92-35.71A6.6,6.6,0,0,0,650.28,168.65Z"
       id="path149" />
    <path
       class="cls-20"
       d="M609.35,217.44a4.7,4.7,0,0,1-3.34-1.18c-2.18-2.06-1.76-6.24,1.21-12.07a88.17,88.17,0,0,1,29.3-30.95c5.66-3.29,9.8-3.93,12-1.87s1.76,6.23-1.21,12.06a78.6,78.6,0,0,1-12.75,17.28A78.63,78.63,0,0,1,618,214.39C614.5,216.41,611.58,217.44,609.35,217.44Zm35.79-44.69c-1.5,0-3.91.72-7.33,2.71a85.47,85.47,0,0,0-28.3,29.89c-2.71,5.32-2.67,8.16-1.74,9s3.78.77,8.94-2.22a76.38,76.38,0,0,0,16-13.22A76.18,76.18,0,0,0,645,182.27c2.7-5.31,2.67-8.15,1.73-9h0A2.26,2.26,0,0,0,645.14,172.75Z"
       id="path151" />
    <path
       class="cls-21"
       d="M585.33,260.28c-.18-.31-4.5-7.8-3.06-21.36,1.32-12.36,7.92-32.36,31.89-57.51S658,148.27,670.46,146c13.67-2.5,21.54,1,21.87,1.18l-.94,2c-.07,0-7.7-3.41-20.73-1-12.09,2.26-31.43,10.12-54.88,34.73s-29.94,44-31.26,56c-1.42,12.9,2.7,20.12,2.74,20.19Z"
       id="path153" />
    <path
       class="cls-20"
       d="M571.28,202.92c-4.25,0-7.88-1.2-10.55-3.73-4.8-4.54-5.61-12.6-2.29-22.69,3.21-9.76,9.94-20.38,18.95-29.89,19.13-20.22,41.79-28.79,51.59-19.52s2.47,32.37-16.66,52.58C598.4,194.37,582.62,202.92,571.28,202.92Zm47.13-77c-10.51,0-25.86,8.42-39.16,22.47-8.75,9.25-15.28,19.52-18.38,28.94-3,9.09-2.41,16.2,1.62,20,8.61,8.14,30.12-.57,48-19.42s25.36-40.81,16.75-49A12.4,12.4,0,0,0,618.41,125.9Z"
       id="path155" />
    <path
       class="cls-20"
       d="M578.16,196.88a9,9,0,0,1-6.37-2.22c-6.63-6.28-.13-23.56,14.81-39.33s31.82-23.23,38.46-17h0c6.63,6.27.12,23.55-14.82,39.33C598.89,189.7,586.41,196.88,578.16,196.88Zm40.5-58.16c-6.91,0-18.64,6.15-30.2,18.37-14.88,15.72-19.72,31.15-14.91,35.7s20-1.13,34.83-16.84,19.73-31.16,14.91-35.71h0A6.51,6.51,0,0,0,618.66,138.72Z"
       id="path157" />
    <path
       class="cls-20"
       d="M583.3,192.78A4.67,4.67,0,0,1,580,191.6c-2.17-2.06-1.76-6.23,1.21-12.07a88.17,88.17,0,0,1,29.3-30.95c5.66-3.28,9.81-3.93,12-1.87,4.73,4.48-3.66,18.46-14,29.34a78.63,78.63,0,0,1-16.55,13.68C588.45,191.76,585.53,192.78,583.3,192.78Zm35.79-44.69c-1.5,0-3.91.72-7.33,2.71a85.39,85.39,0,0,0-28.3,29.9c-2.71,5.31-2.67,8.15-1.74,9s3.78.76,8.94-2.23a76.07,76.07,0,0,0,16-13.22c12.07-12.75,16.33-23.57,14.06-25.72A2.26,2.26,0,0,0,619.09,148.09Z"
       id="path159" />
    <path
       class="cls-21"
       d="M556.5,216.58c-12.3,1.55-19.31-2-19.61-2.16l1-2-.52,1,.52-1c.07,0,7.51,3.77,20.31,1.63,11.88-2,30.93-9.53,54.2-34.28s30.06-44.5,31.65-56.7c1.72-13.15-2.07-20.57-2.11-20.65l2-1c.16.32,4.12,8,2.37,21.77-1.59,12.56-8.49,32.85-32.27,58.15s-43.41,33-55.68,35Z"
       id="path161" />
    <rect
       class="cls-19"
       x="599.13"
       y="176.28"
       width="5.33"
       height="37.54"
       rx="2.67"
       ry="2.67"
       transform="translate(48.03 500.9) rotate(-46.87)"
       id="rect163" />
    <rect
       class="cls-19"
       x="605.2"
       y="169.79"
       width="5.33"
       height="37.54"
       rx="2.67"
       ry="2.67"
       transform="translate(54.69 503.28) rotate(-46.87)"
       id="rect165" />
    <rect
       class="cls-19"
       x="611.28"
       y="163.31"
       width="5.33"
       height="37.54"
       rx="2.67"
       ry="2.67"
       transform="translate(61.34 505.66) rotate(-46.87)"
       id="rect167" />
    <rect
       class="cls-19"
       x="617.35"
       y="156.83"
       width="5.33"
       height="37.54"
       rx="2.67"
       ry="2.67"
       transform="translate(67.99 508.05) rotate(-46.87)"
       id="rect169" />
    <rect
       class="cls-19"
       x="623.43"
       y="150.34"
       width="5.33"
       height="37.54"
       rx="2.67"
       ry="2.67"
       transform="translate(74.65 510.43) rotate(-46.87)"
       id="rect171" />
    <path
       class="cls-22"
       d="M977,166.81l81.9-63.15a1.59,1.59,0,0,0-1.53-2.75L961.3,136.32l-9.57-74.6-18.6,78.41-63.22-5.85,50.31,37.13L845.68,192.3l.79,2.83,76.74-21.51,1,.75v0l8.58,6.22-20.37,33.68L976.22,212l35.31,19.33Zm27.3,57.18-26.44-14.48-8.43-36.86,5.22-4ZM952.52,140.8l3.16-.41-28.81,26.53L935.34,143Zm6.94,1.39,6.69,29.28-19.82,15.28-9.61-7Zm4.48,6.46L973.23,166l-4.52,3.5Zm2.93,26,7.4,32.38-25.46-18.46Zm8.72-10.43-13.42-25.06,88-32.44Zm-17.15-27.12-5.47.71L936.18,140l14.69-61.91Zm-78.32,1.1L932.25,143l-9.46,26.67Zm45.7,33.71,27.66-25.48-19.14,31.65Zm9.38,10.42,8.71,6.32-23.5,18.11Zm-15.59,28.75,26.78-20.64,25.87,18.76Z"
       id="path173" />
    <circle
       class="cls-22"
       cx="875.02"
       cy="136.23"
       r="6.76"
       id="circle175" />
    <circle
       class="cls-21"
       cx="923.51"
       cy="172.01"
       r="6.76"
       id="circle177" />
    <circle
       class="cls-20"
       cx="934.26"
       cy="141.7"
       r="6.76"
       id="circle179" />
    <circle
       class="cls-19"
       cx="846.08"
       cy="193.72"
       r="6.76"
       id="circle181" />
    <circle
       class="cls-20"
       cx="915.1"
       cy="212.68"
       r="6.76"
       id="circle183" />
    <circle
       class="cls-19"
       cx="976.57"
       cy="210.48"
       r="6.76"
       id="circle185" />
    <circle
       class="cls-22"
       cx="960.08"
       cy="138.33"
       r="6.76"
       id="circle187" />
    <circle
       class="cls-20"
       cx="1007.91"
       cy="227.64"
       r="6.76"
       id="circle189" />
    <circle
       class="cls-21"
       cx="1058.64"
       cy="102"
       r="6.76"
       id="circle191" />
    <circle
       class="cls-19"
       cx="951.3"
       cy="69.89"
       r="6.76"
       id="circle193" />
    <g
       class="cls-23"
       id="g207">
      <path
         class="cls-20"
         d="M421.87,41a52.5,52.5,0,1,1-52.5,52.49A52.56,52.56,0,0,1,421.87,41m0-3.42a55.92,55.92,0,1,0,55.92,55.91,55.91,55.91,0,0,0-55.92-55.91Z"
         id="path195" />
      <path
         class="cls-20"
         d="M481.68,86a50.28,50.28,0,1,1-50.28,50.27A50.33,50.33,0,0,1,481.68,86m0-3.42a53.69,53.69,0,1,0,53.69,53.69,53.69,53.69,0,0,0-53.69-53.69Z"
         id="path197" />
      <path
         class="cls-22"
         d="M493.26,41.73a19.14,19.14,0,1,1-19.14,19.14,19.17,19.17,0,0,1,19.14-19.14m0-3.41a22.56,22.56,0,1,0,22.55,22.55,22.56,22.56,0,0,0-22.55-22.55Z"
         id="path199" />
      <circle
         class="cls-19"
         cx="472.4"
         cy="70.18"
         r="5.63"
         id="circle201" />
      <circle
         class="cls-21"
         cx="490.2"
         cy="83.43"
         r="5.63"
         id="circle203" />
      <circle
         class="cls-19"
         cx="430.25"
         cy="147.26"
         r="5.63"
         id="circle205" />
    </g>
    <path
       class="cls-20"
       d="M1216,132.34l22.89-24.64-12.27-38.22L1248.2,47l23.52,4,.46-2.69-22.63-3.87-1.4-1.35-.05,0-5.53-21.66-2.65.67,6,23.31L1224.6,67.61l-32.41-8.18-13-26.85-1,.09c-9,.85-38.35,3.66-44.39,4.39l-13.29-12.73-1.89,2,13.06,12.5,2.06,42.93-14.91,16.18,2,1.85,14.6-15.85,27.73,7.1,11.45,33.93,38.7,8.29,5.15,18.46,2.63-.73ZM1165.84,90.2l25.86-28.08L1224,70.26l11.8,36.75-21.86,23.54-37.13-8Zm23.77-29.84-25.77,28-27.33-7-2-41.63c5-.58,25.41-2.56,43-4.24Z"
       id="path209" />
    <circle
       class="cls-19"
       cx="1178.7"
       cy="34.32"
       r="6.32"
       id="circle211" />
    <circle
       class="cls-21"
       cx="1191.77"
       cy="60.05"
       r="6.32"
       id="circle213" />
    <circle
       class="cls-21"
       cx="1132.68"
       cy="38.83"
       r="6.32"
       id="circle215" />
    <circle
       class="cls-21"
       cx="1163.58"
       cy="88.62"
       r="6.32"
       id="circle217" />
    <circle
       class="cls-21"
       cx="1214.15"
       cy="132.89"
       r="6.32"
       id="circle219" />
    <circle
       class="cls-21"
       cx="1224.89"
       cy="69.08"
       r="6.32"
       id="circle221" />
    <circle
       class="cls-19"
       cx="1135.23"
       cy="82.99"
       r="6.32"
       id="circle223" />
    <circle
       class="cls-19"
       cx="1175.81"
       cy="123.94"
       r="6.32"
       id="circle225" />
    <circle
       class="cls-19"
       cx="1237.11"
       cy="107.65"
       r="6.32"
       id="circle227" />
    <circle
       class="cls-19"
       cx="1248.85"
       cy="44.64"
       r="6.32"
       id="circle229" />
    <path
       class="cls-20"
       d="M1107.12,148.88a64,64,0,1,1-64,64,64,64,0,0,1,64-64m0-3.42a67.39,67.39,0,1,0,67.39,67.39,67.39,67.39,0,0,0-67.39-67.39Z"
       id="path231" />
    <path
       class="cls-22"
       d="M1138.52,162.58a59.29,59.29,0,0,1,.06,100.52,29.11,29.11,0,0,0-1.4-7.39l-.09-.29-.16-.27-3-5-.32-.55-.54-.33-3.11-1.91-3.43-4.14-1.82-10.39c2.21-1.63,6.64-4.91,8.16-6.18a34.8,34.8,0,0,1,5.52-3.2h7.32l.77-1,5.6-7.42,3.87-5.13-6.33,1-.81.14-1.91-5.75-1.09-4.32-.95-3.77-3.09,2.35-3.67,2.81-1.63,1.24.77,1.69-3.27,1-5.79,1.7-5.79,1-1.47.25-.51,1.41c-.08.21-1.83,5-2.42,6.76a4.51,4.51,0,0,1-.75.44l-2.84-3.66,1.34-1.37.19-.2.15-.23,2.47-4,1.26-2-1.91-1.41-4.33-3.19v-5.62l-.65-.73-2.65-3-2.06-2.31-1.89,2.46-1.86,2.44-2.56-3,1.06-.83,1-.77v-4.13h5.07l.58-.33,5-2.8.58-.32.35-.57,6-9.54,17-10.17m-1.24,42.74.07.15,1.36,3-1.23,1.24-.2-.12v-4.24m1.25-45.74-18.82,11.29-6.27,10.07-5,2.8h-7v5.45l-3.19,2.47,6.37,7.43,3.79-5,2.65,3v5.94l5.37,4-2.48,4-2.89,3,5.37,6.93s3.46-1,4-2.48,2.47-6.93,2.47-6.93l5.94-1,5.94-1.75V211l3.12,2,3.94-4-2.1-4.59,3.67-2.8,1.12,4.42,2.63,7.92,3-.5-5.6,7.43h-6.63a40.89,40.89,0,0,0-6.58,3.79c-2,1.65-9.32,7-9.32,7l2.21,12.62,4.14,5,3.46,2.13,3,5s2.27,7.53.81,9.13c-.71.78.42,1.34,1,1.68a61.86,61.86,0,0,0,2-107.68Z"
       id="path233" />
    <path
       class="cls-22"
       d="M1092,203.23v3l-7.51,4.79-3.42-5.4a4.3,4.3,0,0,1,2.24-.67,37,37,0,0,0,8.69-1.74m2.57-3.5s-7.79,2.68-11.26,2.68a7.58,7.58,0,0,0-5.57,2.77l6,9.4,10.87-6.93v-7.92Z"
       id="path235" />
    <path
       class="cls-22"
       d="M1062.37,247.27l8.52,8.68.61.61.84.13c1.44.22,5.44,1.34,6.57,3.82a35.85,35.85,0,0,0,4.6,6.74,58.81,58.81,0,0,1-24.53-19.8l3.39-.18m1-2.62-9,.48a62,62,0,0,0,37.46,27.65s-8.61-9-10.58-13.33-8.52-5.29-8.52-5.29l-9.33-9.51Z"
       id="path237" />
    <path
       class="cls-22"
       d="M1082.1,166.66l6.07,3.88v3.78h-5.76l-.42.15s-4.16,1.48-7.19,2.45a40.22,40.22,0,0,0-7,3.2l-.89.51-.28,1-2,6.93-.4,1.37,1,1.07,3.56,4-1.07,4.62-6.29,8.48-.17.24-.12.27-4.14,9.57-4.23,5.17-.58.71v5l.25.52.8,1.67L1051,232a59.36,59.36,0,0,1,19-65.34h12.13m.75-2.56h-13.78a61.89,61.89,0,0,0-19.56,71.26l7.13-2.86-2-4.14V224.9l4.45-5.45,4.28-9.89,6.61-8.91,1.49-6.44-4.46-5,2-6.93a39.23,39.23,0,0,1,6.51-3c3.11-1,7.27-2.47,7.27-2.47h7.89v-7.76l-7.89-5Z"
       id="path239" />
    <path
       class="cls-19"
       d="M1170.53,149.16c-6-6-18.46-4.44-33.79,3.14l2.89,1.51h0c8.09-3.82,15.05-5.77,20.39-5.77,3.77,0,6.73,1,8.7,2.94,5,5,3.57,16.46-4,31.4-7.85,15.59-21.32,33.31-37.92,49.91s-34.32,30.07-49.91,37.92c-14.94,7.53-26.39,9-31.4,4-4.7-4.7-3.7-15.08,2.65-28.68l0,0-1.51-2.89c-7.41,15.14-8.94,27.37-2.94,33.37,2.51,2.5,6.1,3.7,10.54,3.7,17,0,46.23-17.4,74.41-45.58C1164.21,198.55,1182.61,161.24,1170.53,149.16Z"
       id="path241" />
    <rect
       class="cls-20"
       x="1567.57"
       y="87.1"
       width="13.82"
       height="3.66"
       rx="1.83"
       ry="1.83"
       transform="translate(2489.17 -1195.68) rotate(122.22)"
       id="rect243" />
    <rect
       class="cls-19"
       x="1563.45"
       y="94.68"
       width="12.48"
       height="3.66"
       rx="1.83"
       ry="1.83"
       transform="translate(2488.26 -1180.01) rotate(122.22)"
       id="rect245" />
    <rect
       class="cls-21"
       x="1559.69"
       y="78.44"
       width="22.08"
       height="3.66"
       rx="1.83"
       ry="1.83"
       transform="translate(2476.11 -1205.79) rotate(122.22)"
       id="rect247" />
    <rect
       class="cls-20"
       x="1549.58"
       y="94.47"
       width="22.08"
       height="3.66"
       rx="1.83"
       ry="1.83"
       transform="translate(2474.18 -1172.65) rotate(122.22)"
       id="rect249" />
    <rect
       class="cls-21"
       x="1574.91"
       y="93.23"
       width="9.8"
       height="3.66"
       rx="1.83"
       ry="1.83"
       transform="translate(2502.54 -1190.79) rotate(122.22)"
       id="rect251" />
    <rect
       class="cls-20"
       x="1573.44"
       y="97.11"
       width="7.84"
       height="3.66"
       rx="1.83"
       ry="1.83"
       transform="translate(2502.07 -1182.77) rotate(122.22)"
       id="rect253" />
    <rect
       class="cls-21"
       x="1568.52"
       y="107.33"
       width="23.2"
       height="3.66"
       rx="1.83"
       ry="1.83"
       transform="translate(645.3 1387.75) rotate(-57.78)"
       id="rect255" />
    <rect
       class="cls-20"
       x="1579.14"
       y="90.48"
       width="23.2"
       height="3.66"
       rx="1.83"
       ry="1.83"
       transform="translate(664.51 1388.87) rotate(-57.78)"
       id="rect257" />
    <rect
       class="cls-21"
       x="1464"
       y="40.53"
       width="22.08"
       height="3.66"
       rx="1.83"
       ry="1.83"
       transform="translate(652.75 1267.67) rotate(-57.78)"
       id="rect259" />
    <rect
       class="cls-20"
       x="1474.1"
       y="24.5"
       width="22.08"
       height="3.66"
       rx="1.83"
       ry="1.83"
       transform="translate(671.04 1268.73) rotate(-57.78)"
       id="rect261" />
    <rect
       class="cls-20"
       x="1552.55"
       y="73.54"
       width="24.14"
       height="3.66"
       rx="1.83"
       ry="1.83"
       transform="matrix(-0.53, 0.85, -0.85, -0.53, 2462.59, -1208.13)"
       id="rect263" />
    <rect
       class="cls-19"
       x="1541.5"
       y="91.07"
       width="24.14"
       height="3.66"
       rx="1.83"
       ry="1.83"
       transform="translate(2460.49 -1171.9) rotate(122.22)"
       id="rect265" />
    <rect
       class="cls-21"
       x="1535.18"
       y="86.79"
       width="23.78"
       height="3.66"
       rx="1.83"
       ry="1.83"
       transform="translate(647.24 1350.2) rotate(-57.78)"
       id="rect267" />
    <rect
       class="cls-20"
       x="1546.07"
       y="69.52"
       width="23.78"
       height="3.66"
       rx="1.83"
       ry="1.83"
       transform="translate(666.93 1351.35) rotate(-57.78)"
       id="rect269" />
    <rect
       class="cls-20"
       x="1531.87"
       y="81.01"
       width="19.28"
       height="3.66"
       rx="1.83"
       ry="1.83"
       transform="translate(649.54 1342.8) rotate(-57.78)"
       id="rect271" />
    <rect
       class="cls-19"
       x="1540.7"
       y="67"
       width="19.28"
       height="3.66"
       rx="1.83"
       ry="1.83"
       transform="translate(665.51 1343.73) rotate(-57.78)"
       id="rect273" />
    <rect
       class="cls-20"
       x="1522.87"
       y="69.71"
       width="14.74"
       height="3.66"
       rx="1.83"
       ry="1.83"
       transform="matrix(0.53, -0.85, 0.85, 0.53, 653.84, 1327.99)"
       id="rect275" />
    <rect
       class="cls-19"
       x="1528.77"
       y="61.24"
       width="13.62"
       height="3.66"
       rx="1.83"
       ry="1.83"
       transform="translate(663.5 1328.55) rotate(-57.78)"
       id="rect277" />
    <rect
       class="cls-20"
       x="1520.34"
       y="53.75"
       width="21.51"
       height="3.66"
       rx="1.83"
       ry="1.83"
       transform="translate(2394.46 -1210.11) rotate(122.22)"
       id="rect279" />
    <rect
       class="cls-19"
       x="1510.5"
       y="69.37"
       width="21.51"
       height="3.66"
       rx="1.83"
       ry="1.83"
       transform="translate(2392.58 -1177.83) rotate(122.22)"
       id="rect281" />
    <rect
       class="cls-20"
       x="1574.42"
       y="111.82"
       width="24.14"
       height="3.66"
       rx="1.83"
       ry="1.83"
       transform="translate(644.47 1395.23) rotate(-57.78)"
       id="rect283" />
    <rect
       class="cls-19"
       x="1585.47"
       y="94.29"
       width="24.14"
       height="3.66"
       rx="1.83"
       ry="1.83"
       transform="translate(664.46 1396.4) rotate(-57.78)"
       id="rect285" />
    <rect
       class="cls-21"
       x="1535.84"
       y="67.62"
       width="9.83"
       height="3.66"
       rx="1.83"
       ry="1.83"
       transform="translate(2421 -1197) rotate(122.22)"
       id="rect287" />
    <rect
       class="cls-20"
       x="1533.3"
       y="72.61"
       width="8.61"
       height="3.66"
       rx="1.83"
       ry="1.83"
       transform="translate(2420.4 -1186.71) rotate(122.22)"
       id="rect289" />
    <rect
       class="cls-21"
       x="1502"
       y="66.18"
       width="24.14"
       height="3.66"
       rx="1.83"
       ry="1.83"
       transform="translate(649.28 1312.66) rotate(-57.78)"
       id="rect291" />
    <rect
       class="cls-20"
       x="1513.05"
       y="48.64"
       width="24.14"
       height="3.66"
       rx="1.83"
       ry="1.83"
       transform="translate(669.27 1313.82) rotate(-57.78)"
       id="rect293" />
    <rect
       class="cls-21"
       x="1491.56"
       y="56.52"
       width="20.39"
       height="3.66"
       rx="1.83"
       ry="1.83"
       transform="translate(651.7 1297.74) rotate(-57.78)"
       id="rect295" />
    <rect
       class="cls-20"
       x="1500.9"
       y="41.71"
       width="20.39"
       height="3.66"
       rx="1.83"
       ry="1.83"
       transform="translate(668.59 1298.72) rotate(-57.78)"
       id="rect297" />
    <rect
       class="cls-20"
       x="1506.56"
       y="44.63"
       width="23.78"
       height="3.66"
       rx="1.83"
       ry="1.83"
       transform="translate(2367.35 -1213.4) rotate(122.22)"
       id="rect299" />
    <rect
       class="cls-19"
       x="1495.68"
       y="61.9"
       width="23.78"
       height="3.66"
       rx="1.83"
       ry="1.83"
       transform="translate(2365.27 -1177.71) rotate(122.22)"
       id="rect301" />
    <rect
       class="cls-20"
       x="1496.16"
       y="43.91"
       width="8.69"
       height="3.66"
       rx="1.83"
       ry="1.83"
       transform="translate(2339.23 -1199.3) rotate(122.22)"
       id="rect303" />
    <rect
       class="cls-19"
       x="1495.27"
       y="46.8"
       width="6.83"
       height="3.66"
       rx="1.83"
       ry="1.83"
       transform="translate(2338.88 -1193.34) rotate(122.22)"
       id="rect305" />
    <rect
       class="cls-20"
       x="1481.41"
       y="29.62"
       width="19.4"
       height="3.66"
       rx="1.83"
       ry="1.83"
       transform="translate(2312.74 -1213.28) rotate(122.22)"
       id="rect307" />
    <rect
       class="cls-19"
       x="1472.53"
       y="43.71"
       width="19.4"
       height="3.66"
       rx="1.83"
       ry="1.83"
       transform="matrix(-0.53, 0.85, -0.85, -0.53, 2311.05, -1184.16)"
       id="rect309" />
    <rect
       class="cls-21"
       x="1488.39"
       y="39.33"
       width="11.61"
       height="3.66"
       rx="1.83"
       ry="1.83"
       transform="matrix(-0.53, 0.85, -0.85, -0.53, 2325.68, -1200.99)"
       id="rect311" />
    <rect
       class="cls-20"
       x="1487.14"
       y="43.43"
       width="8.93"
       height="3.66"
       rx="1.83"
       ry="1.83"
       transform="matrix(-0.53, 0.85, -0.85, -0.53, 2325.18, -1192.52)"
       id="rect313" />
    <path
       class="cls-22"
       d="M1582.31,127.14l-6.81-4.29c-6.08-3.83-4.34-11.2-1.17-24.57.26-1.09.54-2.23.81-3.42,3.78-16.1,1.43-24.42-8.63-30.7-9.25-5.77-21.14-.31-28.27,7.2-7.71,8.12-21.55,14.52-35.17,5.85-10.66-6.79-9.51-15-8.29-23.64a79.9,79.9,0,0,0,.89-8.51c.52-15.12-.36-23.51-2.61-24.93l-8-5,1.68-2.67,8,5c3.55,2.23,4.69,10,4.08,27.71a83.74,83.74,0,0,1-.91,8.84c-1.21,8.61-2.09,14.84,6.86,20.53,12,7.64,24.29,1.89,31.18-5.35,8.26-8.7,21.42-14.45,32.23-7.71,13,8.14,13.45,19.52,10,34.1l-.81,3.43c-3.13,13.19-4.24,18.64-.23,21.17l6.81,4.29Z"
       id="path315" />
    <path
       class="cls-22"
       d="M1561.73,105.61c-6,1.66-12.24.9-19.15-3.51-10.75-6.83-11.24-21.2-7-32.4,3.57-9.33,3.45-22.91-8.62-30.44-9-5.62-14.23-2.14-21.48,2.67a81.38,81.38,0,0,1-7.58,4.64c-15.71,8.19-23.22,10.51-26.76,8.28l-8-5,1.68-2.67,7.95,5c2.25,1.42,10.2-1.41,23.62-8.41a79.28,79.28,0,0,0,7.29-4.47c7.29-4.84,14.18-9.41,24.91-2.72,13.69,8.55,13.89,23.79,9.89,34.25-3.7,9.68-3.49,22.76,5.7,28.61,10,6.37,18.53,4.89,31.42-5.45l2.74-2.21c10.7-8.63,16.59-13.39,22.67-9.55l6.81,4.29-1.68,2.67-6.81-4.29c-4-2.53-8.46.82-19,9.34l-2.75,2.21C1572.21,100.83,1567,104.15,1561.73,105.61Z"
       id="path317" />
    <path
       class="cls-20"
       d="M1847.56,299.25a221.11,221.11,0,0,1-22.65-1.59l-2.62-.27c-7.58-.78-18.8-9.51-22.78-20.79s-4.75-41.52,1.14-48.69c4.25-5.18,15.13-12.35,25.64-19.3,3.08-2,6-3.94,8.62-5.75,11.68-8,39.62-26.64,47-27.61,8-1.05,11.85,1.67,25.92,18.18h0c4.74,5.57,10.16,12.84,14.5,18.69l3.46,4.63c6.3,8.36,10.37,15.2,5.25,27.22-5,11.7-33.41,36.8-48,45.77C1871,297.16,1859.53,299.25,1847.56,299.25Zm37-121.64a17.61,17.61,0,0,0-2.34.18c-5.57.73-27.35,14.53-45.88,27.19-2.65,1.81-5.57,3.74-8.65,5.77-9.88,6.52-21.08,13.91-25.08,18.79-4.9,6-4.65,35-.7,46.21,3.84,10.91,14.6,18.47,20.62,19.09l2.62.27c20.35,2.11,37.92,3.94,56.56-7.56,15.66-9.65,42.58-34.34,46.94-44.59,4.6-10.8,1.21-16.52-4.94-24.67l-3.46-4.64c-4.33-5.82-9.71-13.05-14.4-18.56h0C1893.59,180.68,1889.61,177.61,1884.58,177.61Z"
       id="path319" />
    <circle
       class="cls-21"
       cx="1848.08"
       cy="273.45"
       r="14.51"
       id="circle321" />
    <ellipse
       class="cls-19"
       cx="1827.33"
       cy="227.66"
       rx="15.46"
       ry="6.16"
       transform="translate(216.86 1120.61) rotate(-36.11)"
       id="ellipse323" />
    <ellipse
       class="cls-19"
       cx="1812.57"
       cy="259.91"
       rx="6.16"
       ry="15.46"
       transform="translate(-2.53 18.27) rotate(-0.58)"
       id="ellipse325" />
    <ellipse
       class="cls-19"
       cx="1907.56"
       cy="223.87"
       rx="6.16"
       ry="15.46"
       transform="translate(520.24 1552.13) rotate(-50.45)"
       id="ellipse327" />
    <ellipse
       class="cls-19"
       cx="1892.4"
       cy="260.55"
       rx="15.46"
       ry="6.16"
       transform="translate(274.35 1275.93) rotate(-39.95)"
       id="ellipse329" />
    <ellipse
       class="cls-19"
       cx="1877.26"
       cy="198.85"
       rx="15.46"
       ry="6.16"
       transform="translate(-8.36 288.77) rotate(-8.78)"
       id="ellipse331" />
    <path
       class="cls-21"
       d="M1893,237.64c-1.35-11.36-.57-13.57-17.79-19.59s-19.91-6.1-24.74,3.26-5.53,11.61-10,18.34,3.19,7.58,12,7.6,16.42,5.52,26.17,5.4S1894.15,247.52,1893,237.64Z"
       id="path333" />
    <circle
       class="cls-21"
       cx="1830.66"
       cy="246.72"
       r="3.82"
       id="circle335" />
    <circle
       class="cls-21"
       cx="1826.55"
       cy="282.96"
       r="3.82"
       id="circle337" />
    <circle
       class="cls-21"
       cx="1874.9"
       cy="279.12"
       r="3.82"
       id="circle339" />
    <circle
       class="cls-21"
       cx="1855.55"
       cy="202.9"
       r="3.82"
       id="circle341" />
    <circle
       class="cls-21"
       cx="1901.74"
       cy="204.6"
       r="3.82"
       id="circle343" />
    <rect
       class="cls-20"
       x="1900.26"
       y="248.83"
       width="16.63"
       height="2.36"
       rx="1.04"
       ry="1.04"
       transform="translate(985.8 -1439.26) rotate(53.89)"
       id="rect345" />
    <rect
       class="cls-20"
       x="1902.38"
       y="246.29"
       width="16.63"
       height="2.36"
       rx="1.04"
       ry="1.04"
       transform="translate(984.62 -1442.02) rotate(53.89)"
       id="rect347" />
    <rect
       class="cls-20"
       x="1903.74"
       y="242.7"
       width="16.63"
       height="2.36"
       rx="1.04"
       ry="1.04"
       transform="translate(982.28 -1444.59) rotate(53.89)"
       id="rect349" />
    <rect
       class="cls-20"
       x="1837.56"
       y="211.76"
       width="16.63"
       height="2.36"
       rx="1.04"
       ry="1.04"
       transform="translate(38.26 643.18) rotate(-19.97)"
       id="rect351" />
    <rect
       class="cls-20"
       x="1835.7"
       y="209.01"
       width="16.63"
       height="2.36"
       rx="1.04"
       ry="1.04"
       transform="translate(39.08 642.38) rotate(-19.97)"
       id="rect353" />
    <rect
       class="cls-20"
       x="1832.64"
       y="206.71"
       width="16.63"
       height="2.36"
       rx="1.04"
       ry="1.04"
       transform="translate(39.68 641.2) rotate(-19.97)"
       id="rect355" />
    <rect
       class="cls-20"
       x="1821.81"
       y="258.97"
       width="16.63"
       height="2.36"
       rx="1.04"
       ry="1.04"
       transform="translate(1525.13 2083.34) rotate(-88.59)"
       id="rect357" />
    <rect
       class="cls-20"
       x="1818.58"
       y="259.69"
       width="16.63"
       height="2.36"
       rx="1.04"
       ry="1.04"
       transform="translate(1521.25 2080.81) rotate(-88.59)"
       id="rect359" />
    <rect
       class="cls-20"
       x="1815.32"
       y="261.71"
       width="16.63"
       height="2.36"
       rx="1.04"
       ry="1.04"
       transform="translate(1516.05 2079.51) rotate(-88.59)"
       id="rect361" />
    <path
       class="cls-21"
       d="M1789.31,48.72,1772,37.09l18.71-9.16Zm-10.47-11.16,7.47,5,.61-9Z"
       id="path363" />
    <path
       class="cls-21"
       d="M1848.72,88.67,1831.43,77l18.72-9.16Zm-10.47-11.16,7.46,5,.62-9Z"
       id="path365" />
    <path
       class="cls-21"
       d="M1785.29,120.66,1768,109l18.72-9.16Zm-10.47-11.16,7.47,5,.61-9Z"
       id="path367" />
    <path
       class="cls-21"
       d="M1787.57,85.31l-17.28-11.63L1789,64.53ZM1777.1,74.15l7.47,5,.61-9Z"
       id="path369" />
    <path
       class="cls-21"
       d="M1819.18,69.84,1801.9,58.21l18.71-9.15Zm-10.46-11.16,7.46,5,.62-9Z"
       id="path371" />
    <path
       class="cls-21"
       d="M1814.36,140.07l-17.28-11.63,18.71-9.15Zm-10.46-11.16,7.46,5,.62-9Z"
       id="path373" />
    <path
       class="cls-21"
       d="M1782.09,155.86l-17.29-11.62,18.72-9.16Zm-10.47-11.16,7.47,5,.61-9Z"
       id="path375" />
    <path
       class="cls-21"
       d="M1845.61,124.79l-17.29-11.63L1847,104Zm-10.47-11.17,7.47,5,.61-9Z"
       id="path377" />
    <path
       class="cls-21"
       d="M1878.36,108.76l-17.29-11.63L1879.79,88ZM1867.89,97.6l7.47,5,.61-9Z"
       id="path379" />
    <path
       class="cls-19"
       d="M1803,76.62,1770.8,55l34.82-17Zm-25.34-21.17,22.34,15,1.85-26.86Z"
       id="path381" />
    <path
       class="cls-19"
       d="M1862.46,116.75l-32.17-21.64,34.82-17Zm-25.35-21.17,22.34,15,1.85-26.87Z"
       id="path383" />
    <path
       class="cls-19"
       d="M1798.8,148.28l-32.17-21.64,34.83-17Zm-25.35-21.17,22.35,15,1.84-26.86Z"
       id="path385" />
    <path
       class="cls-20"
       d="M1830.47,132.85l-62.09-41.77,67.22-32.89Zm-55.27-41.3,52.27,35.16,4.32-62.85Z"
       id="path387" />
    <path
       class="cls-22"
       d="M1763.09,165.64l10.27-149.52,124.36,83.65Zm13.28-143.38L1766.91,160l124-60.66Z"
       id="path389" />
  </g>
</svg>
