<?xml version="1.0" encoding="UTF-8" standalone="no"?>
<!-- Created with Inkscape (http://www.inkscape.org/) -->

<svg
   xmlns:dc="http://purl.org/dc/elements/1.1/"
   xmlns:cc="http://creativecommons.org/ns#"
   xmlns:rdf="http://www.w3.org/1999/02/22-rdf-syntax-ns#"
   xmlns:svg="http://www.w3.org/2000/svg"
   xmlns="http://www.w3.org/2000/svg"
   xmlns:sodipodi="http://sodipodi.sourceforge.net/DTD/sodipodi-0.dtd"
   xmlns:inkscape="http://www.inkscape.org/namespaces/inkscape"
   version="1.1"
   id="svg2"
   xml:space="preserve"
   width="2560"
   height="572.94269"
   viewBox="0 0 2560 572.94269"
   sodipodi:docname="zahlavi.svg"
   inkscape:version="0.92.1 r15371"><metadata
     id="metadata8"><rdf:RDF><cc:Work
         rdf:about=""><dc:format>image/svg+xml</dc:format><dc:type
           rdf:resource="http://purl.org/dc/dcmitype/StillImage" /><dc:title></dc:title></cc:Work></rdf:RDF></metadata><defs
     id="defs6"><clipPath
       clipPathUnits="userSpaceOnUse"
       id="clipPath20"><path
         d="M 0,0 H 1918.683 V 112.01 H 0 Z"
         id="path18"
         inkscape:connector-curvature="0" /></clipPath><clipPath
       clipPathUnits="userSpaceOnUse"
       id="clipPath102"><path
         d="M 0,429.707 H 1920 V 0 H 0 Z"
         id="path100"
         inkscape:connector-curvature="0" /></clipPath><clipPath
       clipPathUnits="userSpaceOnUse"
       id="clipPath402"><path
         d="m 102.739,373.982 h 198.32 v -178.41 h -198.32 z"
         id="path400"
         inkscape:connector-curvature="0" /></clipPath><clipPath
       clipPathUnits="userSpaceOnUse"
       id="clipPath802"><path
         d="M 0,429.707 H 1920 V 0 H 0 Z"
         id="path800"
         inkscape:connector-curvature="0" /></clipPath></defs><sodipodi:namedview
     pagecolor="#ffffff"
     bordercolor="#666666"
     borderopacity="1"
     objecttolerance="10"
     gridtolerance="10"
     guidetolerance="10"
     inkscape:pageopacity="0"
     inkscape:pageshadow="2"
     inkscape:window-width="1920"
     inkscape:window-height="1182"
     id="namedview4"
     showgrid="false"
     inkscape:zoom="0.36239223"
     inkscape:cx="1442.0719"
     inkscape:cy="-19.872184"
     inkscape:window-x="0"
     inkscape:window-y="0"
     inkscape:window-maximized="1"
     inkscape:current-layer="g10" /><g
     id="g10"
     inkscape:groupmode="layer"
     inkscape:label="zahlavi"
     transform="matrix(1.3333333,0,0,-1.3333333,0,572.94267)"><path
       d="M -272.02806,0.212 H 2192.0281 V 428.941 H -272.02806 Z"
       style="fill:#b4ebfc;fill-opacity:1;fill-rule:nonzero;stroke:none;stroke-width:1.13295448"
       id="path12"
       inkscape:connector-curvature="0"
       inkscape:export-xdpi="72.213455"
       inkscape:export-ydpi="72.213455" /><path
       d="m 789.136,0.488 h 57.101 v 331.613 h -57.101 z"
       style="fill:#a5e2f9;fill-opacity:1;fill-rule:nonzero;stroke:none"
       id="path26"
       inkscape:connector-curvature="0" /><path
       d="m 666.805,0.878 h 46.002 v 290.206 h -46.002 z"
       style="fill:#a5e2f9;fill-opacity:1;fill-rule:nonzero;stroke:none"
       id="path28"
       inkscape:connector-curvature="0" /><path
       d="m 651.068,0.488 h 43.281 V 248.02 h -43.281 z"
       style="fill:#a5e2f9;fill-opacity:1;fill-rule:nonzero;stroke:none"
       id="path30"
       inkscape:connector-curvature="0" /><path
       d="M 381.923,0.488 H 505.349 V 144.635 H 381.923 Z"
       style="fill:#a5e2f9;fill-opacity:1;fill-rule:nonzero;stroke:none"
       id="path32"
       inkscape:connector-curvature="0" /><path
       d="M 251.44,55.717 H 191.758 V 353.613 H 251.44 Z"
       style="fill:#a5e2f9;fill-opacity:1;fill-rule:nonzero;stroke:none"
       id="path34"
       inkscape:connector-curvature="0" /><path
       d="m 420.905,2.375 h -76.176 v 269.214 h 76.176 z"
       style="fill:#a5e2f9;fill-opacity:1;fill-rule:nonzero;stroke:none"
       id="path36"
       inkscape:connector-curvature="0" /><path
       d="m 475.673,0 h 13.84 v 299.918 h -13.84 z"
       style="fill:#a5e2f9;fill-opacity:1;fill-rule:nonzero;stroke:none"
       id="path38"
       inkscape:connector-curvature="0" /><path
       d="m 505.349,103.221 h -18.031 v 101.145 h 18.031 z"
       style="fill:#a5e2f9;fill-opacity:1;fill-rule:nonzero;stroke:none"
       id="path40"
       inkscape:connector-curvature="0" /><path
       d="m 512.492,103.221 h -16.159 v 136.715 h 16.159 z"
       style="fill:#a5e2f9;fill-opacity:1;fill-rule:nonzero;stroke:none"
       id="path42"
       inkscape:connector-curvature="0" /><path
       d="M 267.599,73.2 H 251.44 v 136.715 h 16.159 z"
       style="fill:#a5e2f9;fill-opacity:1;fill-rule:nonzero;stroke:none"
       id="path44"
       inkscape:connector-curvature="0" /><path
       d="m 281.086,0.488 h 57.268 V 131.2 h -57.268 z"
       style="fill:#a5e2f9;fill-opacity:1;fill-rule:nonzero;stroke:none"
       id="path46"
       inkscape:connector-curvature="0" /><path
       d="m 1081.462,0.878 h 91.8 v 331.223 h -91.8 z"
       style="fill:#a5e2f9;fill-opacity:1;fill-rule:nonzero;stroke:none"
       id="path48"
       inkscape:connector-curvature="0" /><path
       d="M 869.071,0.878 H 990.597 V 282.237 H 869.071 Z"
       style="fill:#a5e2f9;fill-opacity:1;fill-rule:nonzero;stroke:none"
       id="path50"
       inkscape:connector-curvature="0" /><path
       d="m 1378.283,0.878 h 129.912 v 108.025 h -129.912 z"
       style="fill:#a5e2f9;fill-opacity:1;fill-rule:nonzero;stroke:none"
       id="path52"
       inkscape:connector-curvature="0" /><path
       d="m 1533.03,0.878 h 64.956 v 219.641 h -64.956 z"
       style="fill:#a5e2f9;fill-opacity:1;fill-rule:nonzero;stroke:none"
       id="path54"
       inkscape:connector-curvature="0" /><path
       d="m 1642.882,0.878 h 64.957 v 290.206 h -64.957 z"
       style="fill:#a5e2f9;fill-opacity:1;fill-rule:nonzero;stroke:none"
       id="path56"
       inkscape:connector-curvature="0" /><path
       d="m 1565.509,0.878 h 50.275 v 73.03 h -50.275 z"
       style="fill:#a0d9ef;fill-opacity:1;fill-rule:nonzero;stroke:none"
       id="path58"
       inkscape:connector-curvature="0" /><path
       d="m 1719.562,0.878 h 25.138 v 99.224 h -25.138 z"
       style="fill:#a5e2f9;fill-opacity:1;fill-rule:nonzero;stroke:none"
       id="path60"
       inkscape:connector-curvature="0" /><path
       d="m 1757.619,0.878 h 37.791 v 210.708 h -37.791 z"
       style="fill:#a5e2f9;fill-opacity:1;fill-rule:nonzero;stroke:none"
       id="path62"
       inkscape:connector-curvature="0" /><path
       d="m 1189.387,0.488 h 84.235 v 199.229 h -84.235 z"
       style="fill:#a5e2f9;fill-opacity:1;fill-rule:nonzero;stroke:none"
       id="path64"
       inkscape:connector-curvature="0" /><path
       d="m 616.883,0.878 h 26.104 v 197.355 h -26.104 z"
       style="fill:#a5e2f9;fill-opacity:1;fill-rule:nonzero;stroke:none"
       id="path66"
       inkscape:connector-curvature="0" /><path
       d="m 557.604,33.084 h -14.659 v 166.633 h 14.659 z"
       style="fill:#a5e2f9;fill-opacity:1;fill-rule:nonzero;stroke:none"
       id="path68"
       inkscape:connector-curvature="0" /><path
       d="m 817.687,0.488 h 84.686 v 252.697 h -84.686 z"
       style="fill:#8fdfff;fill-opacity:1;fill-rule:nonzero;stroke:none"
       id="path70"
       inkscape:connector-curvature="0" /><path
       d="M 945.57,3.798 H 922.435 V 198.023 H 945.57 Z"
       style="fill:#8fdfff;fill-opacity:1;fill-rule:nonzero;stroke:none"
       id="path72"
       inkscape:connector-curvature="0" /><path
       d="m 120.648,0.488 h 62.89 v 252.697 h -62.89 z"
       style="fill:#8fdfff;fill-opacity:1;fill-rule:nonzero;stroke:none"
       id="path74"
       inkscape:connector-curvature="0" /><path
       d="m 285.895,1.409 h -13.307 v 181.168 h 13.307 z"
       style="fill:#8fdfff;fill-opacity:1;fill-rule:nonzero;stroke:none"
       id="path76"
       inkscape:connector-curvature="0" /><path
       d="m 312.124,19.946 h -20.286 v 194.912 h 20.286 z"
       style="fill:#8fdfff;fill-opacity:1;fill-rule:nonzero;stroke:none"
       id="path78"
       inkscape:connector-curvature="0" /><path
       d="m 366.044,7.559 h -38.04 v 187.095 h 38.04 z"
       style="fill:#8fdfff;fill-opacity:1;fill-rule:nonzero;stroke:none"
       id="path80"
       inkscape:connector-curvature="0" /><g
       id="g82"
       transform="translate(1023.3846,248.148)"><path
         d="m 0,0 v -148.593 h -73.81 v -99.131 h 84.687 v 0.064 H 84.686 V 0 Z"
         style="fill:#8fdfff;fill-opacity:1;fill-rule:nonzero;stroke:none"
         id="path84"
         inkscape:connector-curvature="0" /></g><g
       id="g86"
       transform="translate(1374.6969,151.308)"><path
         d="M 0,0 V -9.75 H -45.217 V -150.884 H 0 26.832 V -9.75 0 Z"
         style="fill:#8fdfff;fill-opacity:1;fill-rule:nonzero;stroke:none"
         id="path88"
         inkscape:connector-curvature="0" /></g><path
       d="m 675.808,0.488 h 73.997 v 165.807 h -73.997 z"
       style="fill:#8fdfff;fill-opacity:1;fill-rule:nonzero;stroke:none"
       id="path90"
       inkscape:connector-curvature="0" /><path
       d="m 410.849,0.488 h 37.209 v 234.355 h -37.209 z"
       style="fill:#8fdfff;fill-opacity:1;fill-rule:nonzero;stroke:none"
       id="path92"
       inkscape:connector-curvature="0" /><path
       d="m 455.44,0.488 h 16.685 V 182.22 H 455.44 Z"
       style="fill:#8fdfff;fill-opacity:1;fill-rule:nonzero;stroke:none"
       id="path94"
       inkscape:connector-curvature="0" /><g
       id="g104"
       transform="translate(1500.3887,96.373)"><path
         d="M 0,0 C -0.166,66.65 -54.244,120.629 -120.932,120.629 -187.621,120.629 -241.698,66.65 -241.864,0 Z"
         style="fill:#f2f2f2;fill-opacity:1;fill-rule:nonzero;stroke:none"
         id="path106"
         inkscape:connector-curvature="0" /></g><g
       id="g108"
       transform="translate(1036.9365,101.1064)"><path
         d="m 0,0 h -39.888 l -0.18,7.294 1.133,0.188 -11.895,5.287 -6.136,0.514 v 2.672 h -1.274 v -2.564 l -8.478,0.711 -1.529,2.419 h -1.179 v 0.637 h -1.275 v -0.637 h -5.381 v 2.526 h -3.351 v -2.526 h -2.973 v 1.818 h -1.936 v -1.818 h -3.728 v 2.266 h -1.983 v -2.266 h -0.991 v 2.266 h -1.133 v -2.266 h -3.381 l -7.593,0.637 v 2.904 h -1.912 v -2.744 l -2.029,0.171 -9.971,5.44 -10.655,0.855 v 2.012 h -1.133 v -1.921 l -1.877,0.151 -4.46,-2.089 h -3.398 l -0.885,-0.92 -1.345,0.708 v 9.593 l 0.495,-0.035 v 1.239 l -0.673,0.036 -1.522,2.619 -1.557,1.31 v 1.309 l -0.461,2.656 h -0.743 l -0.743,-2.691 v -1.309 l -1.664,-1.452 -1.487,-2.407 h -0.318 l -0.018,-1.009 0.336,0.018 v -9.063 l -3.115,0.142 v -1.133 l -2.053,0.071 v 0.708 h -2.762 l -0.023,0.018 v 13.977 h -0.708 v -3.116 h -0.661 v -4.295 h 0.661 v -6.027 l -12.626,9.614 -5.9,0.024 -3.257,-2.124 -2.832,0.071 -2.619,2.832 h -24.214 l -12.461,-12.178 h 0.921 v -6.797 l -1.416,-1.699 V 3.919 l -6.726,0.07 v 4.06 h 1.793 l -7.316,5.531 v 2.257 h -1.322 V 14.58 l -6.843,5.175 h -3.399 v 1.651 h -2.738 v -1.651 h -6.419 v 1.651 h -2.737 v -1.651 h -7.175 v 1.651 h -2.737 v -1.651 h -6.184 v 1.651 h -2.737 v -1.651 h -2.407 L -295.042,8.615 V 0 h -63.867 v -100.683 l 526.584,-0.423 z"
         style="fill:#50c1ff;fill-opacity:1;fill-rule:nonzero;stroke:none"
         id="path110"
         inkscape:connector-curvature="0" /></g><g
       id="g112"
       transform="translate(1446.8477,214.4404)"><path
         d="M 0,0 C 0.789,0.406 1.335,1.219 1.335,2.168 1.335,2.44 1.28,2.697 1.198,2.941 L 2.46,6.037 2.131,2.146 C 1.755,1.211 1.408,0.355 1.14,-0.296 0.687,-0.341 0.246,-0.393 -0.183,-0.449 Z M 3.154,2.091 3.851,3.8 4.604,-0.077 C 4.034,-0.094 3.476,-0.12 2.929,-0.153 2.994,0.475 3.072,1.253 3.154,2.091 M 3.496,5.626 3.505,5.578 C 3.5,5.563 3.493,5.548 3.487,5.532 3.49,5.564 3.493,5.595 3.496,5.626 m 0.363,3.871 1.193,1.194 V 9.468 c 0,0 -0.349,-0.881 -0.85,-2.141 L 3.859,9.468 Z m 0,1.839 H 4.966 L 3.859,10.228 Z m 0,1.657 1.14,-1.14 h -1.14 z m 0,0.757 1.193,1.193 V 12.53 l -1.193,1.194 z m 0,1.854 H 4.982 L 3.859,14.48 Z m 0,1.642 1.124,-1.124 H 3.859 Z m 0,0.775 1.193,1.194 v -2.432 l -1.193,1.194 z m 0,1.855 H 4.982 L 3.859,18.752 Z m 0,1.641 1.124,-1.124 H 3.859 Z m 0,0.776 1.193,1.194 v -2.432 l -1.193,1.194 z m 0,1.855 H 4.982 L 3.859,23.024 Z m 0,1.641 1.124,-1.124 H 3.859 Z m 0,0.775 1.193,1.194 V 25.326 L 3.859,26.52 Z m 0,1.855 H 4.982 L 3.859,27.295 Z m 0,1.642 1.124,-1.124 H 3.859 Z m 0,0.813 1.193,1.193 v -2.469 l -1.193,1.194 z m 0,1.855 H 4.983 L 3.859,31.604 Z m 0,1.641 1.123,-1.124 H 3.859 Z m 0,0.813 1.193,1.193 v -2.469 l -1.193,1.194 z m 0,1.855 H 4.982 L 3.859,35.914 Z m 0,1.641 1.124,-1.124 H 3.859 Z m 0,0.813 1.193,1.194 v -2.47 L 3.859,39.41 Z m 0,1.855 H 4.983 L 3.859,40.223 Z m 0,1.641 1.123,-1.124 H 3.859 Z M 5.142,6.968 5.393,-0.06 H 5.387 L 4.509,5.415 Z M 6.161,10.691 7.355,9.497 V 9.468 L 7.023,7.4 6.161,9.468 Z m 0,4.252 1.194,-1.193 V 13.724 L 6.161,12.53 Z m 0,4.272 1.194,-1.194 V 17.977 L 6.161,16.783 Z m 0,4.272 1.194,-1.194 V 22.249 L 6.161,21.055 Z m 0,4.271 1.194,-1.194 V 26.52 L 6.161,25.326 Z m 0,4.309 1.194,-1.193 V 30.792 L 6.161,29.598 Z m 0,4.309 1.194,-1.193 V 35.101 L 6.161,33.907 Z m 0,4.31 1.194,-1.194 V 39.41 L 6.161,38.216 Z m 1.194,0.661 v -1.124 l -1.124,1.124 z m 0,1.641 V 41.864 H 6.231 Z M 6.23,37.555 7.355,38.679 V 37.555 Z M 7.355,37.038 V 35.914 L 6.231,37.038 Z M 6.231,33.246 7.355,34.37 V 33.246 Z M 7.355,32.729 V 31.604 L 6.231,32.729 Z M 6.23,28.937 7.355,30.061 V 28.937 Z M 7.355,28.419 V 27.295 L 6.231,28.419 Z M 6.23,24.665 7.355,25.789 V 24.665 Z M 7.355,24.148 V 23.024 L 6.231,24.148 Z M 6.23,20.393 7.355,21.517 V 20.393 Z M 7.355,19.876 V 18.752 L 6.231,19.876 Z M 6.23,16.122 7.355,17.246 V 16.122 Z M 7.355,15.604 V 14.48 l -1.124,1.124 z m -1.141,-3.751 1.141,1.14 v -1.14 z M 7.355,11.336 V 10.228 L 6.247,11.336 Z M 7.394,-0.068 c -0.258,0.006 -0.518,0.009 -0.78,0.011 l 0.202,1.04 C 6.95,0.599 7.146,0.244 7.394,-0.068 M 8.957,5.537 C 8.905,5.518 8.852,5.5 8.801,5.479 L 8.753,6.037 Z M 6.243,6.832 6.751,5.706 6.346,3.178 C 6.313,4.428 6.276,5.734 6.243,6.832 M 113.788,-110.687 H 14.864 v 74.14 c 3.346,0.561 5.502,1.438 5.502,2.425 0,0.987 -2.156,1.865 -5.502,2.426 v 5.04 c 3.346,0.606 5.502,1.554 5.502,2.621 0,0.429 -0.352,0.838 -0.987,1.215 0.633,0.208 1.093,0.798 1.093,1.5 0,0.877 -0.711,1.587 -1.587,1.587 -0.877,0 -1.587,-0.71 -1.587,-1.587 0,-0.256 0.066,-0.494 0.174,-0.709 -0.751,0.231 -1.629,0.437 -2.608,0.615 v 4.838 c 3.346,0.633 5.502,1.621 5.502,2.733 0,1.112 -2.156,2.1 -5.502,2.732 v 4.426 c 1.364,0.276 2.531,0.615 3.433,1.001 -0.027,-0.094 -0.047,-0.191 -0.047,-0.295 0,-0.584 0.474,-1.058 1.058,-1.058 0.584,0 1.058,0.474 1.058,1.058 0,0.486 -0.329,0.891 -0.775,1.015 0.5,0.379 0.775,0.784 0.775,1.207 0,0.495 -0.374,0.966 -1.049,1.398 0.066,-0.014 0.133,-0.022 0.203,-0.022 0.525,0 0.952,0.426 0.952,0.952 0,0.526 -0.427,0.952 -0.952,0.952 -0.526,0 -0.953,-0.426 -0.953,-0.952 0,-0.253 0.1,-0.48 0.26,-0.651 -1.352,0.694 -3.517,1.262 -6.169,1.618 0.704,0.657 1.148,1.59 1.148,2.63 0,1.987 -1.61,3.597 -3.597,3.597 -0.09,0 -0.179,-0.007 -0.268,-0.014 C 9.127,7.793 8.463,9.468 8.463,9.468 v 1.868 h 1.018 v 0.517 H 8.463 v 3.751 h 1.002 v 0.518 H 8.463 v 3.754 h 1.002 v 0.517 H 8.463 v 3.755 h 1.002 v 0.517 H 8.463 v 3.754 h 1.002 v 0.518 H 8.463 v 3.792 h 1.002 v 0.517 H 8.463 v 3.792 h 1.002 v 0.517 H 8.463 v 3.792 h 1.002 v 0.517 H 8.463 v 1.884 H 7.355 V 43.719 L 6.161,42.525 v 1.247 H 6.44 v 2.335 H 5.924 v 0.476 H 6.44 v 2.335 H 5.924 v 0.489 H 6.44 v 2.335 H 5.924 V 52.23 H 6.44 v 2.335 H 5.924 v 0.628 H 6.44 v 2.335 H 4.774 V 55.193 H 5.29 V 54.565 H 4.774 V 52.23 H 5.29 V 51.742 H 4.774 V 49.407 H 5.29 V 48.918 H 4.774 V 46.583 H 5.29 V 46.107 H 4.774 v -2.335 h 0.278 v -1.247 l -1.193,1.194 v 0.029 H 2.75 V 41.864 H 1.749 V 41.347 H 2.75 V 37.555 H 1.749 V 37.038 H 2.75 V 33.246 H 1.748 V 32.729 H 2.75 V 28.937 H 1.749 V 28.419 H 2.75 V 24.665 H 1.749 V 24.148 H 2.75 V 20.393 H 1.749 V 19.876 H 2.75 V 16.122 H 1.749 V 15.604 H 2.75 V 11.853 H 1.765 V 11.336 H 2.75 V 9.468 c 0,0 -1.094,-2.76 -2.197,-5.516 -0.437,0.408 -1.019,0.663 -1.664,0.663 -1.352,0 -2.447,-1.096 -2.447,-2.447 0,-1.337 1.073,-2.419 2.405,-2.442 -0.049,-0.119 -0.096,-0.233 -0.139,-0.338 -4.02,-0.653 -6.697,-1.817 -6.697,-3.145 0,-1.191 2.156,-2.25 5.502,-2.928 v -1.314 c -0.354,0.269 -0.791,0.434 -1.27,0.434 -1.168,0 -2.116,-0.948 -2.116,-2.117 0,-0.859 0.515,-1.595 1.25,-1.926 -2.098,-0.603 -3.366,-1.383 -3.366,-2.235 0,-1.112 2.156,-2.1 5.502,-2.733 v -4.838 c -3.346,-0.607 -5.502,-1.555 -5.502,-2.621 0,-1.067 2.156,-2.015 5.502,-2.621 v -5.04 c -3.346,-0.561 -5.502,-1.439 -5.502,-2.426 0,-0.987 2.156,-1.864 5.502,-2.425 v -74.14 h -278.448 l -527.641,-88.18 1023.667,18.76 z"
         style="fill:#72d4fc;fill-opacity:1;fill-rule:nonzero;stroke:none"
         id="path114"
         inkscape:connector-curvature="0" /></g><g
       id="g116"
       transform="translate(1438.8589,204.7587)"><path
         d="M 0,0 C 0.76,0 1.375,0.616 1.375,1.375 1.375,2.135 0.76,2.751 0,2.751 -0.759,2.751 -1.375,2.135 -1.375,1.375 -1.375,0.616 -0.759,0 0,0"
         style="fill:#72d4fc;fill-opacity:1;fill-rule:nonzero;stroke:none"
         id="path118"
         inkscape:connector-curvature="0" /></g><g
       id="g120"
       transform="translate(1438.0127,195.8715)"><path
         d="m 0,0 c 0,-0.468 0.379,-0.847 0.846,-0.847 0.467,0 0.847,0.379 0.847,0.847 0,0.467 -0.38,0.846 -0.847,0.846 C 0.379,0.846 0,0.467 0,0"
         style="fill:#72d4fc;fill-opacity:1;fill-rule:nonzero;stroke:none"
         id="path122"
         inkscape:connector-curvature="0" /></g><g
       id="g124"
       transform="translate(1444.0786,195.8715)"><path
         d="m 0,0 c 0,1.188 -0.963,2.151 -2.151,2.151 -1.188,0 -2.152,-0.963 -2.152,-2.151 0,-1.188 0.964,-2.151 2.152,-2.151 C -0.963,-2.151 0,-1.188 0,0"
         style="fill:#72d4fc;fill-opacity:1;fill-rule:nonzero;stroke:none"
         id="path126"
         inkscape:connector-curvature="0" /></g><g
       id="g128"
       transform="translate(1462.1353,195.8715)"><path
         d="m 0,0 c 0,-0.818 0.663,-1.481 1.481,-1.481 0.818,0 1.481,0.663 1.481,1.481 0,0.818 -0.663,1.481 -1.481,1.481 C 0.663,1.481 0,0.818 0,0"
         style="fill:#72d4fc;fill-opacity:1;fill-rule:nonzero;stroke:none"
         id="path130"
         inkscape:connector-curvature="0" /></g><g
       id="g132"
       transform="translate(1463.6162,206.2397)"><path
         d="m 0,0 c -0.818,0 -1.481,-0.663 -1.481,-1.481 0,-0.818 0.663,-1.481 1.481,-1.481 0.818,0 1.481,0.663 1.481,1.481 C 1.481,-0.663 0.818,0 0,0"
         style="fill:#72d4fc;fill-opacity:1;fill-rule:nonzero;stroke:none"
         id="path134"
         inkscape:connector-curvature="0" /></g><g
       id="g136"
       transform="translate(1466.1553,204.4413)"><path
         d="M 0,0 C 0.643,0 1.164,0.521 1.164,1.164 1.164,1.807 0.643,2.328 0,2.328 -0.643,2.328 -1.164,1.807 -1.164,1.164 -1.164,0.521 -0.643,0 0,0"
         style="fill:#72d4fc;fill-opacity:1;fill-rule:nonzero;stroke:none"
         id="path138"
         inkscape:connector-curvature="0" /></g><g
       id="g140"
       transform="translate(1466.3672,202.6425)"><path
         d="m 0,0 c 0,-0.467 0.379,-0.846 0.846,-0.846 0.468,0 0.847,0.379 0.847,0.846 0,0.468 -0.379,0.847 -0.847,0.847 C 0.379,0.847 0,0.468 0,0"
         style="fill:#72d4fc;fill-opacity:1;fill-rule:nonzero;stroke:none"
         id="path142"
         inkscape:connector-curvature="0" /></g><g
       id="g144"
       transform="translate(1438.5415,202.0434)"><path
         d="M 0,0 C 0.682,0 1.234,0.552 1.234,1.234 1.234,1.916 0.682,2.468 0,2.468 -0.682,2.468 -1.234,1.916 -1.234,1.234 -1.234,0.552 -0.682,0 0,0"
         style="fill:#72d4fc;fill-opacity:1;fill-rule:nonzero;stroke:none"
         id="path146"
         inkscape:connector-curvature="0" /></g><g
       id="g148"
       transform="translate(1463.6162,213.8573)"><path
         d="M 0,0 C 0.818,0 1.481,0.664 1.481,1.481 1.481,2.299 0.818,2.962 0,2.962 -0.818,2.962 -1.481,2.299 -1.481,1.481 -1.481,0.664 -0.818,0 0,0"
         style="fill:#72d4fc;fill-opacity:1;fill-rule:nonzero;stroke:none"
         id="path150"
         inkscape:connector-curvature="0" /></g><g
       id="g152"
       transform="translate(1440.9751,212.9052)"><path
         d="M 0,0 C 0.526,0 0.952,0.426 0.952,0.952 0.952,1.478 0.526,1.905 0,1.905 -0.526,1.905 -0.952,1.478 -0.952,0.952 -0.952,0.426 -0.526,0 0,0"
         style="fill:#72d4fc;fill-opacity:1;fill-rule:nonzero;stroke:none"
         id="path154"
         inkscape:connector-curvature="0" /></g><path
       d="m 416.012,143.285 h 6.485 v -15.527 h -6.485 z m 7.955,0 h 6.507 v -15.527 h -6.507 z m 7.978,0 h 6.507 v -15.527 h -6.507 z m 7.978,0 h 6.507 v -15.527 h -6.507 z m 7.977,0 h 6.508 V 127.758 H 447.9 Z m 7.978,0 h 6.507 v -15.527 h -6.507 z m 7.978,0 h 6.485 v -15.527 h -6.485 z m 21.415,4.18 h 4.02 v -13.237 h -4.02 z m 5.288,0 h 4.02 v -13.237 h -4.02 z m 5.289,0 h 4.02 v -13.237 h -4.02 z m 5.289,0 h 4.02 v -13.237 h -4.02 z m 5.288,0 h 4.02 v -13.237 h -4.02 z m 5.289,0 h 4.02 v -13.237 h -4.02 z m 5.288,0 h 4.02 v -13.237 h -4.02 z m 5.289,0 h 4.02 v -13.237 h -4.02 z m 5.289,0 h 4.02 v -13.237 h -4.02 z m 5.288,0 h 4.02 v -13.237 h -4.02 z m 5.289,0 h 4.02 v -13.237 h -4.02 z m 5.288,0 h 4.02 v -13.237 h -4.02 z m 5.289,0 h 4.02 v -13.237 h -4.02 z m 11.406,-4.18 h 32.568 V 130.147 H 560.14 Z M -313.17074,86.401 -314.63415,0.002 1172.961,0.424 737.906,115.078 l -48.037,0.362 0.298,15.58 -47.667,0.032 v 4.033 h -2.096 v 13.909 h 0.86 v 7.753 c 0,6.573 -3.805,12.256 -9.331,14.972 v 2.627 h -14.687 v -2.627 c -5.526,-2.716 -9.331,-8.399 -9.331,-14.972 v -7.753 h 0.859 v -13.909 h -2.095 v -4.033 h -7.344 v 45.675 2.986 h -7.652 c -2.136,4.298 -6.132,7.505 -10.936,8.571 v 1.358 h -2.239 v 0.56 h -2.538 v -0.56 h -2.24 v -1.358 c -5.861,-1.301 -10.521,-5.79 -12.065,-11.557 h -8.911 v -3.881 h -11.347 v 10.749 h -13.736 v 3.484 h -11.943 v -3.484 h -3.285 v -10.749 h -19.508 v 5.076 h -1.991 v -5.076 h -1.095 v 5.076 h -1.991 v -5.076 h -2.587 v 6.867 h -4.466 c -4.239,13.328 -15.374,23.579 -29.214,26.563 v 2.849 h -3.346 v 0.896 h -9.992 v -0.896 h -3.347 v -2.849 c -13.84,-2.984 -24.975,-13.235 -29.214,-26.563 h -4.327 v -4.777 h -65.841 v -45.194 l -161.813,0.134 v -2.571 l 0.043,-40.904 z"
       style="fill:#0478dc;fill-opacity:1;fill-rule:nonzero;stroke:none"
       id="path156"
       inkscape:connector-curvature="0"
       sodipodi:nodetypes="ccccccccccccccccccccccccccccccccccccccccccccccccccccccccccccccccccccccccccccccccccccccccccccccccccccccccccccccccccccsccccscccccccccccccccccccccccccccccccccccccccccccccccccccccccc" /><g
       id="g158"
       transform="translate(1920,86.0361)"><path
         d="M 329.2683,0 -510.681,0.72 v 50.264 l -4.864,8.107 v 4.864 l -4.053,2.838 -13.782,25.941 -9.322,-0.999 v 35.859 h -1.419 v 8.512 h -0.71 v 10.64 h -2.432 v -10.64 h -0.709 v -8.512 h -1.419 v 26.347 h -1.621 v 7.144 h -4.194 l -4.179,86.823 c 1.288,0.146 2.293,1.227 2.293,2.554 0,1.412 -1.134,2.556 -2.54,2.58 l -0.044,0.916 -0.037,-0.916 c -1.41,-0.02 -2.547,-1.165 -2.547,-2.58 0,-1.343 1.029,-2.434 2.339,-2.559 l -3.505,-86.818 h -4.914 v -7.144 h -1.622 v -25.537 h -1.317 v 8.513 h -0.709 v 10.64 h -2.432 v -10.64 h -0.71 v -8.513 h -1.418 v -13.355 l -6.688,8.086 -5.371,-0.689 v 11.228 h -1.419 v 8.512 h -0.709 v 10.64 h -2.432 v -10.64 h -0.71 v -8.512 h -1.418 v 26.347 h -1.622 v 7.144 h -4.193 l -4.18,86.823 c 1.289,0.146 2.293,1.227 2.293,2.554 0,1.413 -1.133,2.556 -2.54,2.58 l -0.044,0.917 -0.037,-0.916 c -1.409,-0.02 -2.547,-1.166 -2.547,-2.581 0,-1.343 1.029,-2.434 2.34,-2.559 l -3.506,-86.818 h -4.914 v -7.144 h -1.621 v -25.537 h -1.318 v 8.513 h -0.709 v 10.64 h -2.432 v -10.64 h -0.71 v -8.513 h -1.418 v -16.376 l -30.792,-3.947 c -0.338,3.312 -0.622,6.137 -0.622,6.137 l -0.764,-6.315 -0.959,-0.123 v 6.032 l -2.507,5.767 -1.141,11.865 -0.705,-12.235 -2.943,-3.573 V 108.6 l -1.618,-2.239 c -0.424,5.976 -0.915,12.822 -0.915,12.822 0,-0.312 -0.693,-9.09 -1.225,-15.782 l -4.819,-6.669 c -0.764,7.358 -1.455,15.256 -1.455,15.256 l -2.823,-21.174 -12.9,-17.847 c -0.523,2.262 -0.997,4.365 -0.997,4.365 -0.053,-0.316 -0.489,-3.18 -0.896,-5.857 l -1.739,13.152 c 0,-0.388 -0.28,-6.372 -0.571,-12.494 l -0.645,5.199 -1.489,-13.131 -1.348,-1.867 v -6.891 l -2.432,-5.674 V 1.077 l -22.645,0.043 -317.408,-87.158 1366.61589,-0.003 z"
         style="fill:#0087e2;fill-opacity:1;fill-rule:nonzero;stroke:none"
         id="path160"
         inkscape:connector-curvature="0"
         sodipodi:nodetypes="cccccccccccccccccccccccscccscccccccccccccccccccccccccccccccccscccsccccccccccccccccccccccccccccccccccccccccccccccc" /></g><g
       id="g162"
       transform="translate(1160.2998,96.5351)"><path
         d="m 0,0 v 26.964 c 0,0 0.84,0.89 3.883,1.205 h -27.897 c 2.647,-0.41 3.491,-1.398 3.491,-1.398 V 0 c -14.753,-4.411 -25.51,-18.081 -25.51,-34.269 0,-19.755 16.016,-35.77 35.771,-35.77 19.756,0 35.771,16.015 35.771,35.77 C 25.509,-18.081 14.753,-4.411 0,0 Z"
         style="fill:none;stroke:#f2f2f2;stroke-width:3;stroke-linecap:butt;stroke-linejoin:miter;stroke-miterlimit:10;stroke-dasharray:none;stroke-opacity:1"
         id="path164"
         inkscape:connector-curvature="0" /></g><g
       id="g166"
       transform="translate(1175.54,43.4374)"><path
         d="M 0,0 C 3.318,4.42 5.51,9.731 6.161,15.51 5.43,9.718 3.193,4.407 -0.141,-0.012 Z"
         style="fill:#ffd662;fill-opacity:1;fill-rule:nonzero;stroke:none"
         id="path168"
         inkscape:connector-curvature="0" /></g><g
       id="g170"
       transform="translate(1181.8726,61.0732)"><path
         d="m 0,0 c -0.033,-0.716 -0.092,-1.424 -0.171,-2.126 0.089,0.705 0.164,1.414 0.208,2.132 C 0.025,0.004 0.012,0.002 0,0"
         style="fill:#ffd662;fill-opacity:1;fill-rule:nonzero;stroke:none"
         id="path172"
         inkscape:connector-curvature="0" /></g><g
       id="g174"
       transform="translate(1174.1836,45.8398)"><path
         d="m 0,0 -0.141,-0.013 c -0.657,-0.938 -1.365,-1.838 -2.122,-2.691 -5.416,-6.115 -13.263,-9.947 -21.927,-9.947 -16.252,0 -29.474,13.419 -29.474,29.913 0,0.579 0.018,1.163 0.051,1.748 3.61,0.636 8.314,1.262 12.86,1.262 1.893,0 3.656,-0.108 5.238,-0.322 3.476,-0.471 6.597,-1.278 9.546,-2.211 1.329,-0.42 2.625,-0.863 3.897,-1.315 0.743,-0.265 1.482,-0.53 2.214,-0.796 4.545,-1.648 8.837,-3.204 13.574,-3.753 1.154,-0.134 2.411,-0.201 3.74,-0.201 2.237,0 4.717,0.188 7.402,0.562 v 10e-4 C 4.192,7.845 2.56,3.686 0,0 m -1.636,20.283 c 1.662,0.153 3.866,0.328 6.571,0.522 0.189,-1.354 0.284,-2.722 0.284,-4.088 0,-0.637 -0.031,-1.268 -0.071,-1.898 -2.397,-0.336 -5.356,-0.639 -7.692,-0.639 -1.185,0 -2.344,0.056 -3.452,0.184 -4.071,0.472 -7.887,1.772 -11.896,3.218 6.983,1.73 13.729,2.468 16.256,2.701 M 5.6,14.884 c 0.712,0.11 1.414,0.225 2.089,0.349 0.022,0.492 0.037,0.986 0.037,1.484 0,2.314 -0.249,4.571 -0.718,6.746 -3.252,-0.224 -6.482,-0.464 -8.874,-0.685 -5.451,-0.502 -13.158,-1.642 -20.146,-3.718 -3.959,1.387 -8.219,2.705 -13.167,3.374 -1.791,0.242 -3.672,0.344 -5.574,0.344 -5.394,0 -10.966,-0.826 -15.19,-1.652 -0.148,-1.268 -0.227,-2.557 -0.227,-3.864 0,-17.905 14.318,-32.42 31.98,-32.42 10.36,0 19.562,5 25.405,12.744 3.335,4.419 5.572,9.729 6.303,15.521 0.079,0.703 0.138,1.411 0.171,2.126 C 7.015,15.109 6.313,14.994 5.601,14.884 Z"
         style="fill:#ffd662;fill-opacity:1;fill-rule:nonzero;stroke:none"
         id="path176"
         inkscape:connector-curvature="0" /></g><g
       id="g178"
       transform="translate(1174.1836,45.8398)"><path
         d="M 0,0 C 2.505,3.607 4.119,7.669 4.812,11.957 4.034,7.552 2.309,3.489 -0.141,-0.013 Z"
         style="fill:#ffd662;fill-opacity:1;fill-rule:nonzero;stroke:none"
         id="path180"
         inkscape:connector-curvature="0" /></g><g
       id="g182"
       transform="translate(1179.0503,58.0771)"><path
         d="M 0,0 C -0.003,0 -0.006,0 -0.009,-0.001 -0.023,-0.095 -0.04,-0.187 -0.055,-0.28 -0.039,-0.187 -0.016,-0.095 0,0"
         style="fill:#ffd662;fill-opacity:1;fill-rule:nonzero;stroke:none"
         id="path184"
         inkscape:connector-curvature="0" /></g><path
       d="m 1164.182,127.927 h -27.897 v 2.623 h 27.897 z"
       style="fill:#0087e2;fill-opacity:1;fill-rule:nonzero;stroke:none"
       id="path186"
       inkscape:connector-curvature="0" /><g
       id="g188"
       transform="translate(1189.2104,47.0234)"><path
         d="m 0,0 h -78.345 c -1.723,0 -3.133,-1.409 -3.133,-3.133 0,-1.722 1.41,-3.133 3.133,-3.133 h 10.452 l -8.735,-25.421 c -0.56,-1.63 0.315,-3.421 1.944,-3.981 1.63,-0.561 3.421,0.314 3.981,1.944 l 9.435,27.458 h 19.204 c -0.021,-0.146 -0.045,-0.292 -0.045,-0.444 v -31.213 c 0,-1.723 1.41,-3.133 3.132,-3.133 1.724,0 3.133,1.41 3.133,3.133 V -6.71 c 0,0.152 -0.024,0.298 -0.045,0.444 h 19.204 l 9.435,-27.458 c 0.56,-1.63 2.352,-2.505 3.981,-1.944 1.629,0.56 2.504,2.351 1.945,3.981 L -10.06,-6.266 H 0 c 1.723,0 3.132,1.411 3.132,3.133 C 3.132,-1.409 1.723,0 0,0"
         style="fill:#ffcd40;fill-opacity:1;fill-rule:nonzero;stroke:none"
         id="path190"
         inkscape:connector-curvature="0" /></g><g
       id="g192"
       transform="translate(1802.8232,177.5658)"><path
         d="m 0,0 c 10.185,-17.538 -19.142,-53.582 -65.503,-80.506 -46.361,-26.925 -92.202,-34.536 -102.387,-16.997 -10.185,17.537 19.142,53.581 65.503,80.505 C -56.025,9.927 -10.185,17.538 0,0 Z"
         style="fill:none;stroke:#02a7fc;stroke-width:4;stroke-linecap:butt;stroke-linejoin:miter;stroke-miterlimit:10;stroke-dasharray:none;stroke-opacity:1"
         id="path194"
         inkscape:connector-curvature="0" /></g><g
       id="g196"
       transform="translate(1743.7632,222.6445)"><path
         d="m 0,0 c 19.603,-5.199 24.353,-51.423 10.609,-103.244 -13.743,-51.821 -40.776,-89.616 -60.379,-84.417 -19.603,5.199 -24.353,51.423 -10.609,103.244 C -46.635,-32.596 -19.603,5.199 0,0 Z"
         style="fill:none;stroke:#02a7fc;stroke-width:4;stroke-linecap:butt;stroke-linejoin:miter;stroke-miterlimit:10;stroke-dasharray:none;stroke-opacity:1"
         id="path198"
         inkscape:connector-curvature="0" /></g><g
       id="g200"
       transform="translate(1625.0479,153.6991)"><path
         d="M 0,0 C 5.199,19.603 51.423,24.353 103.244,10.609 155.065,-3.135 192.86,-30.167 187.661,-49.771 182.462,-69.373 136.238,-74.123 84.417,-60.379 32.596,-46.636 -5.199,-19.603 0,0 Z"
         style="fill:none;stroke:#02a7fc;stroke-width:4;stroke-linecap:butt;stroke-linejoin:miter;stroke-miterlimit:10;stroke-dasharray:none;stroke-opacity:1"
         id="path202"
         inkscape:connector-curvature="0" /></g><g
       id="g204"
       transform="translate(1641.2148,99.246)"><path
         d="m 0,0 c 1.863,-3.208 0.773,-7.319 -2.435,-9.183 -3.208,-1.863 -7.319,-0.772 -9.182,2.436 -1.863,3.208 -0.773,7.319 2.435,9.182 C -5.974,4.298 -1.863,3.208 0,0"
         style="fill:#f2f2f2;fill-opacity:1;fill-rule:nonzero;stroke:none"
         id="path206"
         inkscape:connector-curvature="0" /></g><g
       id="g208"
       transform="translate(1811.1489,127.707)"><path
         d="m 0,0 c 1.863,-3.208 0.773,-7.319 -2.435,-9.182 -3.208,-1.863 -7.319,-0.773 -9.182,2.435 -1.863,3.208 -0.773,7.319 2.435,9.183 C -5.974,4.299 -1.863,3.208 0,0"
         style="fill:#f2f2f2;fill-opacity:1;fill-rule:nonzero;stroke:none"
         id="path210"
         inkscape:connector-curvature="0" /></g><g
       id="g212"
       transform="translate(1707.0962,189.227)"><path
         d="m 0,0 c 1.863,-3.208 0.773,-7.319 -2.436,-9.183 -3.208,-1.862 -7.318,-0.772 -9.182,2.436 -1.862,3.208 -0.772,7.319 2.436,9.182 C -5.974,4.298 -1.863,3.208 0,0"
         style="fill:#f2f2f2;fill-opacity:1;fill-rule:nonzero;stroke:none"
         id="path214"
         inkscape:connector-curvature="0" /></g><g
       id="g216"
       transform="translate(1720.4775,131.2499)"><path
         d="M 0,0 C 1.273,-2.192 0.528,-5.002 -1.664,-6.274 -3.856,-7.548 -6.666,-6.803 -7.938,-4.61 -9.212,-2.418 -8.467,0.391 -6.274,1.664 -4.083,2.938 -1.273,2.192 0,0"
         style="fill:#02a7fc;fill-opacity:1;fill-rule:nonzero;stroke:none"
         id="path218"
         inkscape:connector-curvature="0" /></g><g
       id="g220"
       transform="translate(1726.3228,133.1376)"><path
         d="M 0,0 C 1.273,-2.192 0.528,-5.002 -1.664,-6.274 -3.856,-7.548 -6.666,-6.803 -7.938,-4.61 -9.212,-2.419 -8.467,0.391 -6.274,1.664 -4.083,2.937 -1.273,2.191 0,0"
         style="fill:#02a7fc;fill-opacity:1;fill-rule:nonzero;stroke:none"
         id="path222"
         inkscape:connector-curvature="0" /></g><g
       id="g224"
       transform="translate(1726.1328,126.9023)"><path
         d="M 0,0 C 1.273,-2.192 0.528,-5.001 -1.664,-6.274 -3.856,-7.548 -6.666,-6.803 -7.938,-4.61 -9.212,-2.418 -8.467,0.391 -6.274,1.664 -4.083,2.938 -1.273,2.192 0,0"
         style="fill:#02a7fc;fill-opacity:1;fill-rule:nonzero;stroke:none"
         id="path226"
         inkscape:connector-curvature="0" /></g><g
       id="g228"
       transform="translate(1721.8506,140.2343)"><path
         d="M 0,0 C 1.273,-2.192 0.528,-5.001 -1.664,-6.274 -3.856,-7.548 -6.666,-6.803 -7.938,-4.61 -9.212,-2.418 -8.467,0.391 -6.274,1.664 -4.083,2.938 -1.273,2.192 0,0"
         style="fill:#ffce40;fill-opacity:1;fill-rule:nonzero;stroke:none"
         id="path230"
         inkscape:connector-curvature="0" /></g><g
       id="g232"
       transform="translate(1727.6958,142.122)"><path
         d="M 0,0 C 1.273,-2.192 0.528,-5.001 -1.664,-6.274 -3.856,-7.548 -6.666,-6.803 -7.938,-4.61 -9.212,-2.418 -8.467,0.391 -6.274,1.664 -4.083,2.937 -1.273,2.192 0,0"
         style="fill:#02a7fc;fill-opacity:1;fill-rule:nonzero;stroke:none"
         id="path234"
         inkscape:connector-curvature="0" /></g><g
       id="g236"
       transform="translate(1727.5059,135.8871)"><path
         d="m 0,0 c 1.273,-2.192 0.528,-5.001 -1.664,-6.275 -2.192,-1.272 -5.002,-0.527 -6.274,1.664 -1.274,2.193 -0.529,5.002 1.664,6.275 C -4.083,2.937 -1.273,2.192 0,0"
         style="fill:#02a7fc;fill-opacity:1;fill-rule:nonzero;stroke:none"
         id="path238"
         inkscape:connector-curvature="0" /></g><g
       id="g240"
       transform="translate(1729.5508,130.1396)"><path
         d="M 0,0 C 1.273,-2.192 0.528,-5.002 -1.664,-6.274 -3.856,-7.548 -6.666,-6.803 -7.938,-4.61 -9.211,-2.418 -8.467,0.391 -6.274,1.664 -4.082,2.938 -1.273,2.192 0,0"
         style="fill:#02a7fc;fill-opacity:1;fill-rule:nonzero;stroke:none"
         id="path242"
         inkscape:connector-curvature="0" /></g><g
       id="g244"
       transform="translate(1735.396,132.0273)"><path
         d="M 0,0 C 1.273,-2.192 0.528,-5.002 -1.664,-6.274 -3.856,-7.548 -6.666,-6.803 -7.938,-4.61 -9.212,-2.419 -8.467,0.391 -6.274,1.664 -4.083,2.937 -1.273,2.191 0,0"
         style="fill:#02a7fc;fill-opacity:1;fill-rule:nonzero;stroke:none"
         id="path246"
         inkscape:connector-curvature="0" /></g><g
       id="g248"
       transform="translate(1735.2061,125.7919)"><path
         d="M 0,0 C 1.273,-2.192 0.528,-5.001 -1.664,-6.274 -3.856,-7.548 -6.666,-6.803 -7.938,-4.61 -9.211,-2.418 -8.467,0.391 -6.274,1.664 -4.082,2.938 -1.273,2.192 0,0"
         style="fill:#02a7fc;fill-opacity:1;fill-rule:nonzero;stroke:none"
         id="path250"
         inkscape:connector-curvature="0" /></g><g
       id="g252"
       transform="translate(1720.0049,126.0878)"><path
         d="M 0,0 C 1.273,-2.192 0.528,-5.002 -1.664,-6.274 -3.856,-7.548 -6.666,-6.803 -7.938,-4.61 -9.212,-2.419 -8.467,0.391 -6.274,1.664 -4.083,2.937 -1.273,2.192 0,0"
         style="fill:#02a7fc;fill-opacity:1;fill-rule:nonzero;stroke:none"
         id="path254"
         inkscape:connector-curvature="0" /></g><g
       id="g256"
       transform="translate(1725.8501,127.9755)"><path
         d="m 0,0 c 1.273,-2.192 0.528,-5.002 -1.664,-6.275 -2.192,-1.273 -5.002,-0.528 -6.275,1.664 -1.273,2.192 -0.528,5.002 1.665,6.275 C -4.083,2.937 -1.273,2.191 0,0"
         style="fill:#02a7fc;fill-opacity:1;fill-rule:nonzero;stroke:none"
         id="path258"
         inkscape:connector-curvature="0" /></g><g
       id="g260"
       transform="translate(1725.6602,121.7402)"><path
         d="M 0,0 C 1.273,-2.192 0.528,-5.001 -1.664,-6.274 -3.856,-7.548 -6.666,-6.803 -7.938,-4.61 -9.212,-2.418 -8.467,0.391 -6.274,1.664 -4.083,2.938 -1.273,2.192 0,0"
         style="fill:#02a7fc;fill-opacity:1;fill-rule:nonzero;stroke:none"
         id="path262"
         inkscape:connector-curvature="0" /></g><g
       id="g264"
       transform="translate(1715.3745,133.4745)"><path
         d="M 0,0 C 1.273,-2.192 0.528,-5.002 -1.664,-6.274 -3.856,-7.548 -6.666,-6.803 -7.938,-4.61 -9.211,-2.419 -8.466,0.391 -6.274,1.664 -4.082,2.937 -1.273,2.192 0,0"
         style="fill:#02a7fc;fill-opacity:1;fill-rule:nonzero;stroke:none"
         id="path266"
         inkscape:connector-curvature="0" /></g><g
       id="g268"
       transform="translate(1721.2197,135.3622)"><path
         d="m 0,0 c 1.273,-2.192 0.528,-5.002 -1.664,-6.275 -2.192,-1.273 -5.002,-0.528 -6.274,1.664 -1.273,2.192 -0.529,5.002 1.664,6.275 C -4.082,2.937 -1.273,2.192 0,0"
         style="fill:#02a7fc;fill-opacity:1;fill-rule:nonzero;stroke:none"
         id="path270"
         inkscape:connector-curvature="0" /></g><g
       id="g272"
       transform="translate(1721.0298,129.1269)"><path
         d="M 0,0 C 1.273,-2.192 0.528,-5.001 -1.664,-6.274 -3.856,-7.548 -6.666,-6.803 -7.938,-4.61 -9.211,-2.418 -8.467,0.391 -6.274,1.664 -4.082,2.938 -1.273,2.192 0,0"
         style="fill:#ffce40;fill-opacity:1;fill-rule:nonzero;stroke:none"
         id="path274"
         inkscape:connector-curvature="0" /></g><g
       id="g276"
       transform="translate(1726.9624,137.7602)"><path
         d="m 0,0 c 1.273,-2.192 0.528,-5.001 -1.664,-6.275 -2.192,-1.272 -5.002,-0.527 -6.274,1.664 -1.274,2.193 -0.529,5.002 1.664,6.275 C -4.083,2.937 -1.273,2.192 0,0"
         style="fill:#02a7fc;fill-opacity:1;fill-rule:nonzero;stroke:none"
         id="path278"
         inkscape:connector-curvature="0" /></g><g
       id="g280"
       transform="translate(1732.8076,139.6479)"><path
         d="m 0,0 c 1.273,-2.192 0.528,-5.001 -1.664,-6.275 -2.192,-1.273 -5.002,-0.528 -6.274,1.664 -1.274,2.193 -0.529,5.002 1.664,6.275 C -4.083,2.937 -1.273,2.192 0,0"
         style="fill:#ffce40;fill-opacity:1;fill-rule:nonzero;stroke:none"
         id="path282"
         inkscape:connector-curvature="0" /></g><g
       id="g284"
       transform="translate(1732.6177,133.413)"><path
         d="M 0,0 C 1.273,-2.192 0.528,-5.002 -1.664,-6.274 -3.856,-7.548 -6.666,-6.803 -7.938,-4.61 -9.212,-2.419 -8.467,0.391 -6.274,1.664 -4.083,2.937 -1.273,2.192 0,0"
         style="fill:#02a7fc;fill-opacity:1;fill-rule:nonzero;stroke:none"
         id="path286"
         inkscape:connector-curvature="0" /></g><g
       id="g288"
       transform="translate(1726.1548,129.6591)"><path
         d="M 0,0 C 1.273,-2.192 0.528,-5.001 -1.664,-6.274 -3.856,-7.548 -6.666,-6.803 -7.938,-4.61 -9.211,-2.418 -8.467,0.392 -6.274,1.664 -4.082,2.938 -1.273,2.192 0,0"
         style="fill:#ffce40;fill-opacity:1;fill-rule:nonzero;stroke:none"
         id="path290"
         inkscape:connector-curvature="0" /></g><g
       id="g292"
       transform="translate(1732,131.5468)"><path
         d="M 0,0 C 1.273,-2.192 0.528,-5.001 -1.664,-6.274 -3.856,-7.548 -6.666,-6.803 -7.938,-4.61 -9.212,-2.418 -8.467,0.391 -6.274,1.664 -4.083,2.938 -1.273,2.192 0,0"
         style="fill:#02a7fc;fill-opacity:1;fill-rule:nonzero;stroke:none"
         id="path294"
         inkscape:connector-curvature="0" /></g><g
       id="g296"
       transform="translate(1731.8101,125.3114)"><path
         d="M 0,0 C 1.273,-2.191 0.528,-5.001 -1.664,-6.274 -3.856,-7.547 -6.666,-6.803 -7.938,-4.61 -9.211,-2.418 -8.467,0.392 -6.274,1.664 -4.082,2.938 -1.273,2.192 0,0"
         style="fill:#ffce40;fill-opacity:1;fill-rule:nonzero;stroke:none"
         id="path298"
         inkscape:connector-curvature="0" /></g><g
       id="g300"
       transform="translate(367.5679,136.1137)"><path
         d="m 0,0 c 10.69,-10.119 1.934,-36.728 -19.557,-59.432 -21.491,-22.704 -47.58,-32.906 -58.27,-22.787 -10.691,10.119 -1.934,36.728 19.557,59.432 C -36.779,-0.083 -10.69,10.119 0,0 Z"
         style="fill:none;stroke:#4fc3fd;stroke-width:3;stroke-linecap:butt;stroke-linejoin:miter;stroke-miterlimit:10;stroke-dasharray:none;stroke-opacity:1"
         id="path302"
         inkscape:connector-curvature="0" /></g><g
       id="g304"
       transform="translate(354.6279,130.8075)"><path
         d="m 0,0 c 7.042,-6.666 -0.749,-26.329 -17.399,-43.92 -16.651,-17.591 -35.858,-26.447 -42.899,-19.781 -7.042,6.665 0.748,26.328 17.399,43.919 C -26.248,-2.191 -7.042,6.665 0,0 Z"
         style="fill:none;stroke:#2597f4;stroke-width:3;stroke-linecap:butt;stroke-linejoin:miter;stroke-miterlimit:10;stroke-dasharray:none;stroke-opacity:1"
         id="path306"
         inkscape:connector-curvature="0" /></g><g
       id="g308"
       transform="translate(345.0557,127.2284)"><path
         d="m 0,0 c 4.108,-3.888 -3.235,-18.315 -16.401,-32.225 -13.166,-13.908 -27.169,-22.032 -31.277,-18.143 -4.107,3.888 3.236,18.315 16.402,32.223 C -18.11,-4.235 -4.107,3.889 0,0 Z"
         style="fill:none;stroke:#0078ef;stroke-width:3;stroke-linecap:butt;stroke-linejoin:miter;stroke-miterlimit:10;stroke-dasharray:none;stroke-opacity:1"
         id="path310"
         inkscape:connector-curvature="0" /></g><g
       id="g312"
       transform="translate(272.1362,24.2333)"><path
         d="m 0,0 c -0.216,0.365 -5.269,9.127 -3.58,25.007 1.539,14.463 9.264,37.883 37.329,67.323 28.053,29.429 51.324,38.789 65.905,41.46 16.002,2.93 25.216,-1.205 25.601,-1.381 l -1.098,-2.383 c -0.086,0.039 -9.008,3.989 -24.269,1.14 C 85.735,128.52 63.102,119.321 35.647,90.521 8.206,61.734 0.602,38.985 -0.945,24.97 -2.612,9.872 2.21,1.415 2.259,1.332 Z"
         style="fill:#f2f2f2;fill-opacity:1;fill-rule:nonzero;stroke:none"
         id="path314"
         inkscape:connector-curvature="0" /></g><g
       id="g316"
       transform="translate(322.1987,179.059)"><path
         d="m 0,0 c -10.69,10.119 -36.778,-0.083 -58.27,-22.787 -21.491,-22.704 -30.247,-49.313 -19.557,-59.432 10.69,-10.119 36.779,0.083 58.27,22.787 C 1.935,-36.728 10.69,-10.119 0,0 Z"
         style="fill:none;stroke:#4fc3fd;stroke-width:3;stroke-linecap:butt;stroke-linejoin:miter;stroke-miterlimit:10;stroke-dasharray:none;stroke-opacity:1"
         id="path318"
         inkscape:connector-curvature="0" /></g><g
       id="g320"
       transform="translate(317.6099,165.8481)"><path
         d="m 0,0 c -7.042,6.665 -26.248,-2.191 -42.899,-19.782 -16.651,-17.591 -24.441,-37.254 -17.399,-43.92 7.041,-6.665 26.248,2.192 42.899,19.783 C -0.749,-26.329 7.042,-6.666 0,0 Z"
         style="fill:none;stroke:#2597f4;stroke-width:3;stroke-linecap:butt;stroke-linejoin:miter;stroke-miterlimit:10;stroke-dasharray:none;stroke-opacity:1"
         id="path322"
         inkscape:connector-curvature="0" /></g><g
       id="g324"
       transform="translate(314.5615,156.0937)"><path
         d="m 0,0 c -4.107,3.888 -18.11,-4.235 -31.276,-18.144 -13.166,-13.909 -20.509,-28.336 -16.402,-32.224 4.108,-3.889 18.111,4.235 31.277,18.143 C -3.236,-18.315 4.107,-3.888 0,0 Z"
         style="fill:none;stroke:#0078ef;stroke-width:3;stroke-linecap:butt;stroke-linejoin:miter;stroke-miterlimit:10;stroke-dasharray:none;stroke-opacity:1"
         id="path326"
         inkscape:connector-curvature="0" /></g><g
       id="g328"
       transform="translate(238.3838,75.3935)"><path
         d="m 0,0 c -14.398,-1.814 -22.6,2.335 -22.958,2.521 l 1.208,2.328 -0.604,-1.163 0.602,1.165 c 0.086,-0.044 8.797,-4.405 23.778,-1.904 13.91,2.313 36.207,11.154 63.445,40.132 27.251,28.993 35.196,52.097 37.061,66.373 2.011,15.39 -2.425,24.087 -2.47,24.173 l 2.319,1.224 c 0.199,-0.374 4.832,-9.352 2.784,-25.486 C 103.298,94.657 95.228,70.908 67.382,41.283 39.525,11.646 16.564,2.647 2.207,0.318 1.457,0.196 0.72,0.091 0,0"
         style="fill:#f2f2f2;fill-opacity:1;fill-rule:nonzero;stroke:none"
         id="path330"
         inkscape:connector-curvature="0" /></g><g
       id="g332"
       transform="translate(307.5479,85.6796)"><path
         d="m 0,0 -0.196,-0.21 c -1.12,-1.194 -3.013,-1.257 -4.208,-0.137 l -27.724,25.971 c -1.196,1.119 -1.257,3.013 -0.138,4.207 l 0.196,0.21 c 1.119,1.194 3.013,1.257 4.208,0.138 L -0.138,4.207 C 1.057,3.088 1.119,1.194 0,0"
         style="fill:#ffce40;fill-opacity:1;fill-rule:nonzero;stroke:none"
         id="path334"
         inkscape:connector-curvature="0" /></g><g
       id="g336"
       transform="translate(314.6494,93.2792)"><path
         d="m 0,0 -0.196,-0.21 c -1.119,-1.195 -3.013,-1.257 -4.208,-0.138 l -27.724,25.971 c -1.195,1.12 -1.257,3.014 -0.138,4.208 l 0.197,0.21 c 1.119,1.194 3.012,1.257 4.207,0.137 L -0.137,4.207 C 1.058,3.088 1.12,1.194 0,0"
         style="fill:#ffce40;fill-opacity:1;fill-rule:nonzero;stroke:none"
         id="path338"
         inkscape:connector-curvature="0" /></g><g
       id="g340"
       transform="translate(321.7637,100.8671)"><path
         d="m 0,0 -0.196,-0.21 c -1.12,-1.194 -3.013,-1.257 -4.208,-0.137 l -27.725,25.971 c -1.195,1.119 -1.256,3.013 -0.137,4.207 l 0.196,0.21 c 1.119,1.195 3.013,1.257 4.208,0.138 L -0.138,4.208 C 1.057,3.088 1.119,1.194 0,0"
         style="fill:#ffce40;fill-opacity:1;fill-rule:nonzero;stroke:none"
         id="path342"
         inkscape:connector-curvature="0" /></g><g
       id="g344"
       transform="translate(328.8774,108.455)"><path
         d="m 0,0 -0.196,-0.209 c -1.12,-1.195 -3.013,-1.257 -4.208,-0.138 l -27.724,25.971 c -1.196,1.119 -1.257,3.013 -0.138,4.208 l 0.196,0.21 c 1.119,1.194 3.013,1.256 4.208,0.137 L -0.138,4.208 C 1.057,3.089 1.119,1.195 0,0"
         style="fill:#ffce40;fill-opacity:1;fill-rule:nonzero;stroke:none"
         id="path346"
         inkscape:connector-curvature="0" /></g><g
       id="g348"
       transform="translate(335.9912,116.0439)"><path
         d="m 0,0 -0.196,-0.21 c -1.119,-1.195 -3.013,-1.257 -4.208,-0.138 l -27.724,25.972 c -1.195,1.119 -1.257,3.012 -0.138,4.207 l 0.196,0.21 c 1.12,1.195 3.013,1.256 4.208,0.137 L -0.138,4.207 C 1.058,3.088 1.119,1.194 0,0"
         style="fill:#ffce40;fill-opacity:1;fill-rule:nonzero;stroke:none"
         id="path350"
         inkscape:connector-curvature="0" /></g><g
       id="g352"
       transform="translate(781.4131,226.06)"><path
         d="M 0,0 31.34,24.166 61.629,2.206 Z M 18.24,33.664 28.442,26.267 0.934,5.056 Z M 7.264,45.863 39.649,75.687 17.234,38.634 Z M -46.233,85.317 14.791,79.678 3.714,48.46 Z m 91.68,1.292 -6.395,-0.835 -19.66,-2.566 17.193,72.484 z M 65.526,54.861 49.812,84.2 152.816,122.169 Z M 55.316,42.653 63.982,4.74 34.175,26.352 Z M 51.89,73.048 62.769,52.735 57.467,48.647 Z m -5.25,7.56 7.833,-34.269 -23.196,-17.886 -11.254,8.159 z m -8.124,1.634 3.708,0.484 -33.73,-31.063 9.919,27.955 z M 99.122,-15.139 68.175,1.803 58.31,44.961 l 6.103,4.706 z m -31.953,66.931 95.868,73.922 c 1.69,1.303 0.219,3.963 -1.783,3.225 L 48.796,87.484 37.593,174.819 15.821,83.031 -58.186,89.87 0.711,46.409 -86.551,21.95 -85.624,18.644 4.213,43.825 5.401,42.948 5.408,42.967 15.451,35.686 -8.398,-3.736 66.264,-1.064 107.6,-23.695 Z"
         style="fill:#4fc3fd;fill-opacity:1;fill-rule:nonzero;stroke:none"
         id="path354"
         inkscape:connector-curvature="0" /></g><g
       id="g356"
       transform="translate(737.1216,313.6532)"><path
         d="m 0,0 c 0,-4.373 -3.545,-7.918 -7.918,-7.918 -4.373,0 -7.918,3.545 -7.918,7.918 0,4.373 3.545,7.918 7.918,7.918 C -3.545,7.918 0,4.373 0,0"
         style="fill:#02a7fc;fill-opacity:1;fill-rule:nonzero;stroke:none"
         id="path358"
         inkscape:connector-curvature="0" /></g><g
       id="g360"
       transform="translate(793.8887,271.7646)"><path
         d="m 0,0 c 0,-4.373 -3.545,-7.918 -7.918,-7.918 -4.373,0 -7.918,3.545 -7.918,7.918 0,4.373 3.545,7.918 7.918,7.918 C -3.545,7.918 0,4.373 0,0"
         style="fill:#f2f2f2;fill-opacity:1;fill-rule:nonzero;stroke:none"
         id="path362"
         inkscape:connector-curvature="0" /></g><g
       id="g364"
       transform="translate(806.4785,307.244)"><path
         d="m 0,0 c 0,-4.373 -3.545,-7.918 -7.918,-7.918 -4.373,0 -7.918,3.545 -7.918,7.918 0,4.373 3.545,7.918 7.918,7.918 C -3.545,7.918 0,4.373 0,0"
         style="fill:#0078ef;fill-opacity:1;fill-rule:nonzero;stroke:none"
         id="path366"
         inkscape:connector-curvature="0" /></g><g
       id="g368"
       transform="translate(703.2441,246.3564)"><path
         d="m 0,0 c 0,-4.373 -3.545,-7.918 -7.918,-7.918 -4.373,0 -7.918,3.545 -7.918,7.918 0,4.373 3.545,7.918 7.918,7.918 C -3.545,7.918 0,4.373 0,0"
         style="fill:#ffce40;fill-opacity:1;fill-rule:nonzero;stroke:none"
         id="path370"
         inkscape:connector-curvature="0" /></g><g
       id="g372"
       transform="translate(784.0459,224.1532)"><path
         d="m 0,0 c 0,-4.373 -3.545,-7.918 -7.918,-7.918 -4.373,0 -7.918,3.545 -7.918,7.918 0,4.373 3.545,7.918 7.918,7.918 C -3.545,7.918 0,4.373 0,0"
         style="fill:#0078ef;fill-opacity:1;fill-rule:nonzero;stroke:none"
         id="path374"
         inkscape:connector-curvature="0" /></g><g
       id="g376"
       transform="translate(856.0049,226.728)"><path
         d="m 0,0 c 0,-4.373 -3.545,-7.918 -7.918,-7.918 -4.373,0 -7.918,3.545 -7.918,7.918 0,4.373 3.545,7.918 7.918,7.918 C -3.545,7.918 0,4.373 0,0"
         style="fill:#ffce40;fill-opacity:1;fill-rule:nonzero;stroke:none"
         id="path378"
         inkscape:connector-curvature="0" /></g><g
       id="g380"
       transform="translate(836.6982,311.1884)"><path
         d="m 0,0 c 0,-4.373 -3.545,-7.918 -7.918,-7.918 -4.373,0 -7.918,3.545 -7.918,7.918 0,4.373 3.545,7.918 7.918,7.918 C -3.545,7.918 0,4.373 0,0"
         style="fill:#02a7fc;fill-opacity:1;fill-rule:nonzero;stroke:none"
         id="path382"
         inkscape:connector-curvature="0" /></g><g
       id="g384"
       transform="translate(892.6919,206.643)"><path
         d="m 0,0 c 0,-4.373 -3.545,-7.918 -7.918,-7.918 -4.373,0 -7.918,3.545 -7.918,7.918 0,4.373 3.545,7.918 7.918,7.918 C -3.545,7.918 0,4.373 0,0"
         style="fill:#0078ef;fill-opacity:1;fill-rule:nonzero;stroke:none"
         id="path386"
         inkscape:connector-curvature="0" /></g><g
       id="g388"
       transform="translate(952.0806,353.7201)"><path
         d="m 0,0 c 0,-4.373 -3.545,-7.918 -7.918,-7.918 -4.373,0 -7.918,3.545 -7.918,7.918 0,4.373 3.545,7.918 7.918,7.918 C -3.545,7.918 0,4.373 0,0"
         style="fill:#f2f2f2;fill-opacity:1;fill-rule:nonzero;stroke:none"
         id="path390"
         inkscape:connector-curvature="0" /></g><g
       id="g392"
       transform="translate(826.4199,391.3153)"><path
         d="m 0,0 c 0,-4.373 -3.545,-7.918 -7.918,-7.918 -4.373,0 -7.918,3.545 -7.918,7.918 0,4.373 3.545,7.918 7.918,7.918 C -3.545,7.918 0,4.373 0,0"
         style="fill:#ffce40;fill-opacity:1;fill-rule:nonzero;stroke:none"
         id="path394"
         inkscape:connector-curvature="0" /></g><g
       id="g396"><g
         id="g398" /><g
         id="g430"><g
           clip-path="url(#clipPath402)"
           id="g428"
           style="opacity:0.88999897"><g
             transform="translate(168.1953,373.9814)"
             id="g406"><path
               d="m 0,0 c -36.15,0 -65.456,-29.306 -65.456,-65.456 0,-36.15 29.306,-65.456 65.456,-65.456 36.15,0 65.456,29.306 65.456,65.456 C 65.456,-29.306 36.15,0 0,0 m 0,-4 c 33.887,0 61.456,-27.569 61.456,-61.456 0,-33.887 -27.569,-61.456 -61.456,-61.456 -33.887,0 -61.456,27.569 -61.456,61.456 C -61.456,-31.569 -33.887,-4 0,-4"
               style="fill:#0078ef;fill-opacity:1;fill-rule:nonzero;stroke:none"
               id="path404"
               inkscape:connector-curvature="0" /></g><g
             transform="translate(238.2061,321.2782)"
             id="g410"><path
               d="m 0,0 c -34.713,0 -62.854,-28.14 -62.854,-62.853 0,-34.713 28.141,-62.854 62.854,-62.854 34.713,0 62.854,28.141 62.854,62.854 C 62.854,-28.14 34.713,0 0,0 m 0,-4 c 32.452,0 58.854,-26.401 58.854,-58.853 0,-32.452 -26.402,-58.854 -58.854,-58.854 -32.452,0 -58.854,26.402 -58.854,58.854 C -58.854,-30.401 -32.452,-4 0,-4"
               style="fill:#0078ef;fill-opacity:1;fill-rule:nonzero;stroke:none"
               id="path408"
               inkscape:connector-curvature="0" /></g><g
             transform="translate(251.7632,373.0805)"
             id="g414"><path
               d="m 0,0 c -14.583,0 -26.403,-11.821 -26.403,-26.403 0,-14.582 11.82,-26.404 26.403,-26.404 14.582,0 26.403,11.822 26.403,26.404 C 26.403,-11.821 14.582,0 0,0 m 0,-4 c 12.353,0 22.403,-10.05 22.403,-22.403 0,-12.353 -10.05,-22.404 -22.403,-22.404 -12.353,0 -22.403,10.051 -22.403,22.404 C -22.403,-14.05 -12.353,-4 0,-4"
               style="fill:#02a7fc;fill-opacity:1;fill-rule:nonzero;stroke:none"
               id="path412"
               inkscape:connector-curvature="0" /></g><g
             transform="translate(233.9272,335.7812)"
             id="g418"><path
               d="m 0,0 c 0,-3.638 -2.949,-6.587 -6.587,-6.587 -3.638,0 -6.587,2.949 -6.587,6.587 0,3.638 2.949,6.587 6.587,6.587 C -2.949,6.587 0,3.638 0,0"
               style="fill:#ffce40;fill-opacity:1;fill-rule:nonzero;stroke:none"
               id="path416"
               inkscape:connector-curvature="0" /></g><g
             transform="translate(254.7695,320.2738)"
             id="g422"><path
               d="m 0,0 c 0,-3.638 -2.949,-6.587 -6.587,-6.587 -3.638,0 -6.587,2.949 -6.587,6.587 0,3.638 2.949,6.587 6.587,6.587 C -2.949,6.587 0,3.638 0,0"
               style="fill:#f2f2f2;fill-opacity:1;fill-rule:nonzero;stroke:none"
               id="path420"
               inkscape:connector-curvature="0" /></g><g
             transform="translate(184.5869,245.5468)"
             id="g426"><path
               d="m 0,0 c 0,-3.638 -2.949,-6.587 -6.587,-6.587 -3.638,0 -6.587,2.949 -6.587,6.587 0,3.638 2.949,6.587 6.587,6.587 C -2.949,6.587 0,3.638 0,0"
               style="fill:#ffce40;fill-opacity:1;fill-rule:nonzero;stroke:none"
               id="path424"
               inkscape:connector-curvature="0" /></g></g></g></g><g
       id="g432"
       transform="translate(694.5425,87.2099)"><path
         d="m 0,0 v -39.156 l -25.566,-13.755 -30.536,30.124 c 3.417,3.964 17.453,19.664 29.637,33.229 z M 2.811,-39.163 V 0.12 L 32.922,16.462 67.483,-3.129 67.344,-36.195 33.681,-56.067 Z m 67.344,3.045 0.145,34.624 -35.939,20.371 0.702,32.071 20.615,13.355 -1.529,2.359 -19.834,-12.849 -2,0.044 L 32.313,53.794 13.014,66.34 11.482,63.983 32.242,50.489 31.55,18.915 1.312,2.505 -27.251,13.774 -27.904,13.048 c -6.209,-6.912 -26.494,-29.515 -30.552,-34.275 l -18.937,0.37 -0.054,-2.811 18.602,-0.362 31.489,-31.065 V -77.74 h 2.811 v 22.186 l 25.944,13.958 32.333,-17.706 35.08,20.709 16.771,-10.39 1.482,2.388 z"
         style="fill:#4fc3fd;fill-opacity:1;fill-rule:nonzero;stroke:none"
         id="path434"
         inkscape:connector-curvature="0" /></g><g
       id="g436"
       transform="translate(674.6348,99.3183)"><path
         d="m 0,0 c 0,-3.594 -2.914,-6.508 -6.508,-6.508 -3.595,0 -6.508,2.914 -6.508,6.508 0,3.595 2.913,6.509 6.508,6.509 C -2.914,6.509 0,3.595 0,0"
         style="fill:#ffce40;fill-opacity:1;fill-rule:nonzero;stroke:none"
         id="path438"
         inkscape:connector-curvature="0" /></g><g
       id="g440"
       transform="translate(702.4673,88.9521)"><path
         d="m 0,0 c 0,-3.595 -2.914,-6.509 -6.508,-6.509 -3.595,0 -6.508,2.914 -6.508,6.509 0,3.594 2.913,6.508 6.508,6.508 C -2.914,6.508 0,3.594 0,0"
         style="fill:#f2f2f2;fill-opacity:1;fill-rule:nonzero;stroke:none"
         id="path442"
         inkscape:connector-curvature="0" /></g><g
       id="g444"
       transform="translate(642.9307,63.8173)"><path
         d="m 0,0 c 0,-3.595 -2.914,-6.509 -6.508,-6.509 -3.595,0 -6.509,2.914 -6.509,6.509 0,3.594 2.914,6.508 6.509,6.508 C -2.914,6.508 0,3.594 0,0"
         style="fill:#f2f2f2;fill-opacity:1;fill-rule:nonzero;stroke:none"
         id="path446"
         inkscape:connector-curvature="0" /></g><g
       id="g448"
       transform="translate(701.0503,47.6698)"><path
         d="m 0,0 c 0,-3.594 -2.914,-6.508 -6.508,-6.508 -3.595,0 -6.508,2.914 -6.508,6.508 0,3.595 2.913,6.509 6.508,6.509 C -2.914,6.509 0,3.595 0,0"
         style="fill:#f2f2f2;fill-opacity:1;fill-rule:nonzero;stroke:none"
         id="path450"
         inkscape:connector-curvature="0" /></g><g
       id="g452"
       transform="translate(770.2104,49.4052)"><path
         d="m 0,0 c 0,-3.594 -2.914,-6.508 -6.508,-6.508 -3.595,0 -6.508,2.914 -6.508,6.508 0,3.595 2.913,6.509 6.508,6.509 C -2.914,6.509 0,3.595 0,0"
         style="fill:#f2f2f2;fill-opacity:1;fill-rule:nonzero;stroke:none"
         id="path454"
         inkscape:connector-curvature="0" /></g><g
       id="g456"
       transform="translate(733.8413,105.2138)"><path
         d="m 0,0 c 0,-3.595 -2.914,-6.509 -6.508,-6.509 -3.595,0 -6.508,2.914 -6.508,6.509 0,3.594 2.913,6.508 6.508,6.508 C -2.914,6.508 0,3.594 0,0"
         style="fill:#f2f2f2;fill-opacity:1;fill-rule:nonzero;stroke:none"
         id="path458"
         inkscape:connector-curvature="0" /></g><g
       id="g460"
       transform="translate(675.6602,32.1532)"><path
         d="m 0,0 c 0,-3.595 -2.914,-6.509 -6.508,-6.509 -3.595,0 -6.508,2.914 -6.508,6.509 0,3.594 2.913,6.508 6.508,6.508 C -2.914,6.508 0,3.594 0,0"
         style="fill:#ffce40;fill-opacity:1;fill-rule:nonzero;stroke:none"
         id="path462"
         inkscape:connector-curvature="0" /></g><g
       id="g464"
       transform="translate(734.9429,29.4482)"><path
         d="m 0,0 c 0,-3.594 -2.914,-6.508 -6.508,-6.508 -3.595,0 -6.508,2.914 -6.508,6.508 0,3.595 2.913,6.509 6.508,6.509 C -2.914,6.509 0,3.595 0,0"
         style="fill:#ffce40;fill-opacity:1;fill-rule:nonzero;stroke:none"
         id="path466"
         inkscape:connector-curvature="0" /></g><g
       id="g468"
       transform="translate(769.9883,84.5282)"><path
         d="m 0,0 c 0,-3.594 -2.914,-6.508 -6.508,-6.508 -3.595,0 -6.509,2.914 -6.509,6.508 0,3.595 2.914,6.509 6.509,6.509 C -2.914,6.509 0,3.595 0,0"
         style="fill:#ffce40;fill-opacity:1;fill-rule:nonzero;stroke:none"
         id="path470"
         inkscape:connector-curvature="0" /></g><g
       id="g472"
       transform="translate(734.9429,140.4169)"><path
         d="m 0,0 c 0,-3.595 -2.914,-6.509 -6.508,-6.509 -3.595,0 -6.508,2.914 -6.508,6.509 0,3.594 2.913,6.508 6.508,6.508 C -2.914,6.508 0,3.594 0,0"
         style="fill:#ffce40;fill-opacity:1;fill-rule:nonzero;stroke:none"
         id="path474"
         inkscape:connector-curvature="0" /></g><g
       id="g476"
       transform="translate(513.5605,395.1244)"><path
         d="m 0,0 c -43.57,0 -78.891,-35.32 -78.891,-78.891 0,-43.569 35.321,-78.89 78.891,-78.89 43.57,0 78.891,35.321 78.891,78.89 C 78.891,-35.32 43.57,0 0,0 m 0,-4 c 41.295,0 74.891,-33.596 74.891,-74.891 0,-41.295 -33.596,-74.89 -74.891,-74.89 -41.295,0 -74.891,33.595 -74.891,74.89 C -74.891,-37.596 -41.295,-4 0,-4"
         style="fill:#0078ef;fill-opacity:1;fill-rule:nonzero;stroke:none"
         id="path478"
         inkscape:connector-curvature="0" /></g><g
       id="g480"
       transform="translate(550.3345,378.5946)"><path
         d="m 0,0 -22.03,-13.218 -7.341,-11.783 -5.912,-3.283 h -8.156 v -6.374 l -3.734,-2.897 7.456,-8.692 4.434,5.794 3.099,-3.476 v -6.954 l 6.289,-4.636 -2.897,-4.635 -3.392,-3.477 6.289,-8.112 c 0,0 4.057,1.159 4.636,2.897 0.58,1.739 2.898,8.113 2.898,8.113 l 6.953,1.158 6.948,2.047 v -2.626 l 3.655,-2.318 4.612,4.636 -2.459,5.367 4.298,3.278 1.303,-5.168 3.082,-9.272 3.477,0.58 -6.559,-8.692 h -7.754 c 0,0 -5.388,-2.505 -7.706,-4.439 -2.318,-1.935 -10.906,-8.231 -10.906,-8.231 l 2.584,-14.775 4.845,-5.84 4.056,-2.494 3.477,-5.878 c 0,0 2.655,-8.816 0.946,-10.688 -0.835,-0.913 0.485,-1.569 1.175,-1.96 22.601,12.248 37.95,36.174 37.95,63.687 C 35.616,-35.807 21.316,-12.597 0,0 m -1.46,-53.543 0.08,-0.176 1.593,-3.476 -1.446,-1.453 -0.227,0.144 v 0.976 3.985 m 1.449,50.038 c 9.541,-5.974 17.546,-14.224 23.221,-23.953 6.153,-10.549 9.406,-22.618 9.406,-34.903 0,-24.016 -12.369,-46.167 -32.559,-58.82 -0.043,2.273 -0.59,5.16 -1.639,8.646 l -0.105,0.348 -0.186,0.314 -3.477,5.878 -0.378,0.639 -0.632,0.389 -3.635,2.235 -4.02,4.846 -2.126,12.158 c 2.591,1.912 7.77,5.755 9.552,7.243 1.457,1.215 4.747,2.913 6.461,3.742 h 7.077 1.494 l 0.901,1.193 6.559,8.692 4.53,6.002 -7.418,-1.236 -0.946,-0.158 -2.238,6.731 -1.276,5.061 -1.111,4.411 -3.617,-2.758 -4.299,-3.279 -1.907,-1.455 0.908,-1.981 -3.837,-1.13 -6.773,-1.996 -6.773,-1.128 -1.728,-0.288 -0.599,-1.646 c -0.09,-0.25 -2.134,-5.872 -2.832,-7.917 -0.181,-0.149 -0.496,-0.334 -0.875,-0.52 l -3.324,4.289 1.568,1.607 0.225,0.231 0.171,0.274 2.897,4.636 1.473,2.356 -2.236,1.648 -5.07,3.737 v 5.438 1.143 l -0.76,0.853 -3.1,3.477 -2.416,2.709 -2.206,-2.883 -2.184,-2.854 -2.994,3.49 1.244,0.966 1.161,0.901 v 1.469 3.374 h 5.156 0.777 l 0.679,0.377 5.912,3.282 0.68,0.377 0.41,0.66 6.959,11.169 19.855,11.914"
         style="fill:#02a7fc;fill-opacity:1;fill-rule:nonzero;stroke:none"
         id="path482"
         inkscape:connector-curvature="0" /></g><g
       id="g484"
       transform="translate(498.8472,331.5941)"><path
         d="m 0,0 c 0,0 -9.12,-3.137 -13.176,-3.137 -4.056,0 -6.525,-3.237 -6.525,-3.237 L -12.727,-17.383 0,-9.271 Z m -3,-4.099 v -3.526 l -8.803,-5.611 -4,6.315 c 0.691,0.421 1.587,0.784 2.627,0.784 2.701,0 7.006,1.101 10.176,2.038"
         style="fill:#02a7fc;fill-opacity:1;fill-rule:nonzero;stroke:none"
         id="path486"
         inkscape:connector-curvature="0" /></g><g
       id="g488"
       transform="translate(462.375,279.0155)"><path
         d="m 0,0 -10.572,-0.562 c 9.717,-15.849 25.361,-27.67 43.849,-32.375 0,0 -10.079,10.531 -12.385,15.602 -2.307,5.071 -9.971,6.201 -9.971,6.201 z m -1.193,-3.067 9.973,-10.167 0.708,-0.714 0.987,-0.152 c 1.69,-0.26 6.364,-1.571 7.686,-4.477 0.99,-2.178 3.125,-5.102 5.387,-7.886 -11.464,4.955 -21.35,12.915 -28.717,23.184 l 3.976,0.212"
         style="fill:#02a7fc;fill-opacity:1;fill-rule:nonzero;stroke:none"
         id="path490"
         inkscape:connector-curvature="0" /></g><g
       id="g492"
       transform="translate(485.1528,373.3065)"><path
         d="m 0,0 h -16.125 c -16.956,-13.249 -27.857,-33.887 -27.857,-57.073 0,-9.298 1.755,-18.185 4.948,-26.351 l 8.348,3.346 -2.317,4.846 v 4.056 l 5.215,6.377 5.01,11.586 7.737,10.43 1.739,7.533 -5.215,5.795 2.392,8.112 c 0,0 3.982,2.318 7.619,3.477 3.636,1.158 8.506,2.897 8.506,2.897 h 9.232 v 9.077 z m -0.876,-3 7.108,-4.536 v -4.433 H 0 -0.52 l -0.489,-0.175 c -0.048,-0.017 -4.864,-1.734 -8.408,-2.864 -3.906,-1.244 -8.043,-3.641 -8.217,-3.742 l -1.031,-0.6 -0.337,-1.145 -2.393,-8.112 -0.474,-1.609 1.122,-1.246 4.171,-4.634 -1.247,-5.402 -7.364,-9.927 -0.207,-0.279 -0.138,-0.318 -4.843,-11.202 -4.951,-6.052 -0.677,-0.829 v -1.071 -4.056 -0.68 l 0.294,-0.614 0.936,-1.958 -2.507,-1.005 c -2.458,7.196 -3.702,14.722 -3.702,22.416 0,21.166 9.427,40.815 25.902,54.073 h 14.204"
         style="fill:#02a7fc;fill-opacity:1;fill-rule:nonzero;stroke:none"
         id="path494"
         inkscape:connector-curvature="0" /></g><g
       id="g496"
       transform="translate(587.7935,390.7948)"><path
         d="m 0,0 c -7.086,7.087 -21.603,5.199 -39.557,-3.68 l 3.384,-1.762 -0.004,-0.005 c 9.465,4.476 17.618,6.759 23.862,6.759 4.417,0 7.882,-1.139 10.185,-3.442 5.867,-5.867 4.177,-19.266 -4.637,-36.763 -9.189,-18.241 -24.951,-38.989 -44.385,-58.423 -19.434,-19.434 -40.182,-35.197 -58.424,-44.386 -17.495,-8.814 -30.896,-10.504 -36.763,-4.637 -5.503,5.504 -4.337,17.645 3.1,33.568 l -0.017,-0.022 -1.775,3.388 c -8.669,-17.726 -10.459,-32.042 -3.438,-39.063 2.935,-2.935 7.142,-4.333 12.341,-4.333 19.843,0 54.12,20.369 87.106,53.355 C -7.396,-57.819 14.137,-14.138 0,0"
         style="fill:#ffd662;fill-opacity:1;fill-rule:nonzero;stroke:none"
         id="path498"
         inkscape:connector-curvature="0" /></g><g
       id="g500"
       transform="translate(1532.104,255.3466)"><path
         d="M 0,0 9.506,8.68 C 10.448,9.54 11.92,9.472 12.78,8.531 13.639,7.59 13.572,6.118 12.631,5.258 L 3.124,-3.422 C 2.183,-4.281 0.71,-4.214 -0.149,-3.273 -1.008,-2.332 -0.941,-0.859 0,0"
         style="fill:#4fc3fd;fill-opacity:1;fill-rule:nonzero;stroke:none"
         id="path502"
         inkscape:connector-curvature="0" /></g><g
       id="g504"
       transform="translate(1524.3428,248.2607)"><path
         d="M 0,0 8.255,7.538 C 9.196,8.396 10.669,8.33 11.528,7.389 12.388,6.448 12.321,4.975 11.379,4.116 L 3.125,-3.422 C 2.184,-4.281 0.71,-4.214 -0.149,-3.273 -1.008,-2.332 -0.941,-0.859 0,0"
         style="fill:#ffd662;fill-opacity:1;fill-rule:nonzero;stroke:none"
         id="path506"
         inkscape:connector-curvature="0" /></g><g
       id="g508"
       transform="translate(1526.5786,263.6537)"><path
         d="m 0,0 17.238,15.739 c 0.941,0.859 2.414,0.792 3.273,-0.149 0.859,-0.941 0.792,-2.414 -0.149,-3.273 L 3.125,-3.422 C 2.184,-4.281 0.71,-4.214 -0.148,-3.273 -1.008,-2.332 -0.941,-0.859 0,0"
         style="fill:#f2f2f2;fill-opacity:1;fill-rule:nonzero;stroke:none"
         id="path510"
         inkscape:connector-curvature="0" /></g><g
       id="g512"
       transform="translate(1508.8403,247.4579)"><path
         d="m 0,0 17.238,15.739 c 0.941,0.859 2.414,0.792 3.273,-0.149 0.86,-0.941 0.792,-2.414 -0.149,-3.273 L 3.125,-3.422 C 2.184,-4.281 0.71,-4.214 -0.148,-3.273 -1.008,-2.332 -0.941,-0.859 0,0"
         style="fill:#0078ef;fill-opacity:1;fill-rule:nonzero;stroke:none"
         id="path514"
         inkscape:connector-curvature="0" /></g><g
       id="g516"
       transform="translate(1538.4385,247.7792)"><path
         d="M 0,0 5.748,5.248 C 6.688,6.106 8.161,6.04 9.021,5.099 9.879,4.158 9.813,2.685 8.872,1.826 L 3.124,-3.422 C 2.183,-4.281 0.71,-4.214 -0.149,-3.273 -1.008,-2.332 -0.941,-0.859 0,0"
         style="fill:#f2f2f2;fill-opacity:1;fill-rule:nonzero;stroke:none"
         id="path518"
         inkscape:connector-curvature="0" /></g><g
       id="g520"
       transform="translate(1535.064,244.6982)"><path
         d="M 0,0 3.916,3.576 C 4.857,4.435 6.33,4.368 7.189,3.427 8.048,2.486 7.981,1.013 7.041,0.154 L 3.124,-3.422 C 2.183,-4.281 0.71,-4.214 -0.149,-3.273 -1.008,-2.332 -0.941,-0.859 0,0"
         style="fill:#0078ef;fill-opacity:1;fill-rule:nonzero;stroke:none"
         id="path522"
         inkscape:connector-curvature="0" /></g><g
       id="g524"
       transform="translate(1546.0972,241.4203)"><path
         d="m 0,0 -18.287,-16.696 c -0.941,-0.859 -1.008,-2.332 -0.149,-3.273 0.859,-0.941 2.332,-1.008 3.273,-0.149 L 3.124,-3.422 C 4.065,-2.563 4.132,-1.09 3.273,-0.149 2.414,0.792 0.941,0.859 0,0"
         style="fill:#f2f2f2;fill-opacity:1;fill-rule:nonzero;stroke:none"
         id="path526"
         inkscape:connector-curvature="0" /></g><g
       id="g528"
       transform="translate(1564.7358,258.4379)"><path
         d="m 0,0 -18.287,-16.696 c -0.941,-0.859 -1.008,-2.332 -0.149,-3.273 0.859,-0.941 2.332,-1.008 3.273,-0.149 L 3.124,-3.422 c 0.941,0.86 1.008,2.332 0.149,3.273 C 2.414,0.792 0.941,0.859 0,0"
         style="fill:#0078ef;fill-opacity:1;fill-rule:nonzero;stroke:none"
         id="path530"
         inkscape:connector-curvature="0" /></g><g
       id="g532"
       transform="translate(1439.6528,357.8549)"><path
         d="m 0,0 -17.238,-15.739 c -0.941,-0.859 -1.008,-2.332 -0.149,-3.273 0.86,-0.941 2.332,-1.008 3.273,-0.149 L 3.125,-3.422 c 0.94,0.859 1.007,2.332 0.148,3.274 C 2.414,0.792 0.941,0.859 0,0"
         style="fill:#f2f2f2;fill-opacity:1;fill-rule:nonzero;stroke:none"
         id="path534"
         inkscape:connector-curvature="0" /></g><g
       id="g536"
       transform="translate(1457.3911,374.0507)"><path
         d="m 0,0 -17.238,-15.739 c -0.941,-0.859 -1.008,-2.332 -0.149,-3.273 0.86,-0.941 2.332,-1.008 3.273,-0.149 L 3.125,-3.422 c 0.94,0.859 1.007,2.332 0.148,3.273 C 2.414,0.792 0.941,0.859 0,0"
         style="fill:#0078ef;fill-opacity:1;fill-rule:nonzero;stroke:none"
         id="path538"
         inkscape:connector-curvature="0" /></g><g
       id="g540"
       transform="translate(1519.7944,270.8109)"><path
         d="m 0,0 19.163,17.496 c 0.941,0.859 2.414,0.792 3.273,-0.149 0.859,-0.941 0.792,-2.414 -0.149,-3.273 L 3.125,-3.422 C 2.184,-4.281 0.71,-4.214 -0.149,-3.273 -1.008,-2.332 -0.941,-0.859 0,0"
         style="fill:#4fc3fd;fill-opacity:1;fill-rule:nonzero;stroke:none"
         id="path542"
         inkscape:connector-curvature="0" /></g><g
       id="g544"
       transform="translate(1500.4038,253.1064)"><path
         d="m 0,0 19.163,17.496 c 0.941,0.859 2.414,0.792 3.273,-0.149 0.859,-0.941 0.792,-2.413 -0.149,-3.273 L 3.125,-3.422 C 2.183,-4.281 0.71,-4.214 -0.149,-3.273 -1.008,-2.332 -0.941,-0.859 0,0"
         style="fill:#ffd662;fill-opacity:1;fill-rule:nonzero;stroke:none"
         id="path546"
         inkscape:connector-curvature="0" /></g><g
       id="g548"
       transform="translate(1512.8945,277.8622)"><path
         d="m 0,0 -18.824,-17.187 c -0.942,-0.859 -1.009,-2.332 -0.149,-3.273 0.859,-0.941 2.332,-1.008 3.273,-0.149 L 3.124,-3.422 C 4.065,-2.563 4.132,-1.09 3.273,-0.149 2.414,0.792 0.941,0.859 0,0"
         style="fill:#f2f2f2;fill-opacity:1;fill-rule:nonzero;stroke:none"
         id="path550"
         inkscape:connector-curvature="0" /></g><g
       id="g552"
       transform="translate(1531.9946,295.3012)"><path
         d="m 0,0 -18.824,-17.187 c -0.941,-0.859 -1.008,-2.332 -0.149,-3.273 0.859,-0.941 2.332,-1.008 3.273,-0.149 L 3.124,-3.422 C 4.065,-2.563 4.132,-1.09 3.273,-0.149 2.414,0.792 0.941,0.859 0,0"
         style="fill:#0078ef;fill-opacity:1;fill-rule:nonzero;stroke:none"
         id="path554"
         inkscape:connector-curvature="0" /></g><g
       id="g556"
       transform="translate(1505.9487,284.872)"><path
         d="m 0,0 -14.619,-13.348 c -0.941,-0.859 -1.008,-2.332 -0.149,-3.273 0.859,-0.941 2.332,-1.008 3.273,-0.149 l 14.62,13.348 c 0.94,0.859 1.007,2.332 0.148,3.273 C 2.414,0.792 0.941,0.859 0,0"
         style="fill:#4fc3fd;fill-opacity:1;fill-rule:nonzero;stroke:none"
         id="path558"
         inkscape:connector-curvature="0" /></g><g
       id="g560"
       transform="translate(1521.439,299.015)"><path
         d="m 0,0 -14.62,-13.348 c -0.941,-0.86 -1.007,-2.332 -0.148,-3.273 0.859,-0.941 2.332,-1.008 3.273,-0.149 l 14.62,13.348 c 0.94,0.859 1.007,2.332 0.148,3.273 C 2.414,0.792 0.941,0.859 0,0"
         style="fill:#ffd662;fill-opacity:1;fill-rule:nonzero;stroke:none"
         id="path562"
         inkscape:connector-curvature="0" /></g><g
       id="g564"
       transform="translate(1493.8486,300.5263)"><path
         d="m 0,0 -10.366,-9.464 c -0.941,-0.859 -1.008,-2.332 -0.149,-3.273 0.859,-0.941 2.332,-1.008 3.273,-0.149 L 3.124,-3.422 C 4.065,-2.563 4.132,-1.09 3.273,-0.148 2.414,0.792 0.941,0.859 0,0"
         style="fill:#4fc3fd;fill-opacity:1;fill-rule:nonzero;stroke:none"
         id="path566"
         inkscape:connector-curvature="0" /></g><g
       id="g568"
       transform="translate(1502.6938,308.6024)"><path
         d="m 0,0 -9.318,-8.507 c -0.941,-0.86 -1.008,-2.332 -0.149,-3.274 0.859,-0.941 2.332,-1.008 3.273,-0.148 l 9.318,8.507 C 4.065,-2.563 4.132,-1.09 3.273,-0.149 2.414,0.792 0.941,0.859 0,0"
         style="fill:#ffd662;fill-opacity:1;fill-rule:nonzero;stroke:none"
         id="path570"
         inkscape:connector-curvature="0" /></g><g
       id="g572"
       transform="translate(1486.7275,307.3764)"><path
         d="m 0,0 16.706,15.253 c 0.941,0.859 2.414,0.792 3.273,-0.149 0.859,-0.941 0.792,-2.414 -0.148,-3.273 L 3.125,-3.422 C 2.184,-4.281 0.71,-4.214 -0.149,-3.273 -1.008,-2.332 -0.941,-0.859 0,0"
         style="fill:#4fc3fd;fill-opacity:1;fill-rule:nonzero;stroke:none"
         id="path574"
         inkscape:connector-curvature="0" /></g><g
       id="g576"
       transform="translate(1469.4463,291.5976)"><path
         d="m 0,0 16.706,15.253 c 0.941,0.859 2.414,0.792 3.273,-0.149 0.859,-0.94 0.792,-2.414 -0.149,-3.272 L 3.124,-3.422 C 2.183,-4.281 0.71,-4.214 -0.149,-3.273 -1.008,-2.332 -0.941,-0.859 0,0"
         style="fill:#ffd662;fill-opacity:1;fill-rule:nonzero;stroke:none"
         id="path578"
         inkscape:connector-curvature="0" /></g><g
       id="g580"
       transform="translate(1552.8071,234.1952)"><path
         d="m 0,0 -19.163,-17.496 c -0.941,-0.859 -1.008,-2.332 -0.149,-3.273 0.86,-0.941 2.333,-1.008 3.273,-0.148 L 3.124,-3.422 c 0.941,0.859 1.008,2.333 0.149,3.274 C 2.414,0.792 0.941,0.859 0,0"
         style="fill:#4fc3fd;fill-opacity:1;fill-rule:nonzero;stroke:none"
         id="path582"
         inkscape:connector-curvature="0" /></g><g
       id="g584"
       transform="translate(1572.1978,251.8998)"><path
         d="m 0,0 -19.163,-17.496 c -0.941,-0.859 -1.007,-2.332 -0.149,-3.273 0.86,-0.941 2.333,-1.008 3.273,-0.149 L 3.124,-3.422 C 4.065,-2.563 4.132,-1.09 3.273,-0.149 2.414,0.792 0.941,0.859 0,0"
         style="fill:#ffd662;fill-opacity:1;fill-rule:nonzero;stroke:none"
         id="path586"
         inkscape:connector-curvature="0" /></g><g
       id="g588"
       transform="translate(1499.3193,292.1703)"><path
         d="M 0,0 5.776,5.274 C 6.717,6.133 8.19,6.066 9.049,5.125 9.908,4.184 9.841,2.711 8.9,1.852 L 3.125,-3.422 C 2.184,-4.281 0.71,-4.214 -0.149,-3.273 -1.008,-2.332 -0.941,-0.859 0,0"
         style="fill:#f2f2f2;fill-opacity:1;fill-rule:nonzero;stroke:none"
         id="path590"
         inkscape:connector-curvature="0" /></g><g
       id="g592"
       transform="translate(1494.377,287.6576)"><path
         d="M 0,0 4.638,4.235 C 5.58,5.094 7.052,5.027 7.912,4.086 8.771,3.145 8.704,1.672 7.763,0.813 L 3.124,-3.422 C 2.183,-4.281 0.71,-4.214 -0.149,-3.273 -1.008,-2.332 -0.941,-0.859 0,0"
         style="fill:#0078ef;fill-opacity:1;fill-rule:nonzero;stroke:none"
         id="path594"
         inkscape:connector-curvature="0" /></g><g
       id="g596"
       transform="translate(1479.6777,314.2909)"><path
         d="m 0,0 -19.163,-17.496 c -0.941,-0.859 -1.007,-2.332 -0.149,-3.273 0.86,-0.941 2.333,-1.008 3.274,-0.149 L 3.124,-3.422 C 4.065,-2.563 4.132,-1.09 3.273,-0.149 2.414,0.792 0.941,0.859 0,0"
         style="fill:#f2f2f2;fill-opacity:1;fill-rule:nonzero;stroke:none"
         id="path598"
         inkscape:connector-curvature="0" /></g><g
       id="g600"
       transform="translate(1499.0684,331.995)"><path
         d="m 0,0 -19.163,-17.496 c -0.941,-0.859 -1.007,-2.332 -0.149,-3.273 0.86,-0.941 2.333,-1.008 3.274,-0.149 L 3.125,-3.422 c 0.94,0.859 1.007,2.332 0.148,3.273 C 2.414,0.792 0.941,0.859 0,0"
         style="fill:#0078ef;fill-opacity:1;fill-rule:nonzero;stroke:none"
         id="path602"
         inkscape:connector-curvature="0" /></g><g
       id="g604"
       transform="translate(1466.1333,328.6273)"><path
         d="m 0,0 -15.655,-14.294 c -0.941,-0.859 -1.008,-2.332 -0.149,-3.273 0.859,-0.941 2.332,-1.008 3.273,-0.149 L 3.125,-3.422 c 0.94,0.859 1.007,2.332 0.148,3.273 C 2.414,0.792 0.941,0.859 0,0"
         style="fill:#f2f2f2;fill-opacity:1;fill-rule:nonzero;stroke:none"
         id="path606"
         inkscape:connector-curvature="0" /></g><g
       id="g608"
       transform="translate(1482.5132,343.5824)"><path
         d="m 0,0 -15.656,-14.294 c -0.941,-0.859 -1.008,-2.332 -0.148,-3.273 0.859,-0.941 2.332,-1.008 3.273,-0.149 L 3.124,-3.422 C 4.065,-2.563 4.132,-1.09 3.273,-0.149 2.414,0.792 0.941,0.859 0,0"
         style="fill:#0078ef;fill-opacity:1;fill-rule:nonzero;stroke:none"
         id="path610"
         inkscape:connector-curvature="0" /></g><g
       id="g612"
       transform="translate(1473.2817,321.8026)"><path
         d="m 0,0 18.824,17.187 c 0.941,0.859 2.414,0.792 3.273,-0.149 0.86,-0.941 0.793,-2.414 -0.149,-3.273 L 3.124,-3.422 C 2.183,-4.281 0.71,-4.214 -0.149,-3.273 -1.008,-2.333 -0.941,-0.859 0,0"
         style="fill:#4fc3fd;fill-opacity:1;fill-rule:nonzero;stroke:none"
         id="path614"
         inkscape:connector-curvature="0" /></g><g
       id="g616"
       transform="translate(1454.1816,304.3632)"><path
         d="m 0,0 18.824,17.187 c 0.941,0.859 2.414,0.792 3.273,-0.148 0.86,-0.941 0.792,-2.414 -0.149,-3.274 L 3.124,-3.422 C 2.183,-4.281 0.71,-4.214 -0.149,-3.273 -1.008,-2.332 -0.941,-0.859 0,0"
         style="fill:#ffd662;fill-opacity:1;fill-rule:nonzero;stroke:none"
         id="path618"
         inkscape:connector-curvature="0" /></g><g
       id="g620"
       transform="translate(1458.6514,335.1474)"><path
         d="M 0,0 4.713,4.303 C 5.654,5.162 7.127,5.095 7.986,4.154 8.845,3.213 8.778,1.74 7.837,0.881 L 3.124,-3.422 C 2.183,-4.281 0.71,-4.214 -0.149,-3.273 -1.008,-2.333 -0.941,-0.859 0,0"
         style="fill:#4fc3fd;fill-opacity:1;fill-rule:nonzero;stroke:none"
         id="path622"
         inkscape:connector-curvature="0" /></g><g
       id="g624"
       transform="translate(1456.3306,333.0282)"><path
         d="M 0,0 2.966,2.708 C 3.907,3.567 5.38,3.5 6.239,2.56 7.099,1.619 7.032,0.146 6.09,-0.713 L 3.125,-3.422 C 2.183,-4.281 0.71,-4.214 -0.149,-3.273 -1.008,-2.332 -0.941,-0.859 0,0"
         style="fill:#ffd662;fill-opacity:1;fill-rule:nonzero;stroke:none"
         id="path626"
         inkscape:connector-curvature="0" /></g><g
       id="g628"
       transform="translate(1446.9785,351.1923)"><path
         d="m 0,0 14.731,13.45 c 0.941,0.859 2.414,0.792 3.273,-0.149 0.86,-0.941 0.792,-2.414 -0.149,-3.273 L 3.125,-3.422 C 2.183,-4.281 0.71,-4.214 -0.149,-3.273 -1.008,-2.332 -0.941,-0.859 0,0"
         style="fill:#4fc3fd;fill-opacity:1;fill-rule:nonzero;stroke:none"
         id="path630"
         inkscape:connector-curvature="0" /></g><g
       id="g632"
       transform="translate(1431.3926,336.9618)"><path
         d="m 0,0 14.731,13.45 c 0.941,0.859 2.414,0.792 3.273,-0.149 0.859,-0.941 0.792,-2.414 -0.149,-3.273 L 3.124,-3.422 C 2.183,-4.281 0.71,-4.214 -0.149,-3.273 -1.008,-2.332 -0.941,-0.859 0,0"
         style="fill:#ffd662;fill-opacity:1;fill-rule:nonzero;stroke:none"
         id="path634"
         inkscape:connector-curvature="0" /></g><g
       id="g636"
       transform="translate(1451.1191,341.6215)"><path
         d="M 0,0 7.439,6.792 C 8.38,7.651 9.854,7.584 10.712,6.644 11.572,5.703 11.505,4.229 10.564,3.371 L 3.125,-3.422 C 2.183,-4.281 0.71,-4.214 -0.149,-3.273 -1.008,-2.332 -0.941,-0.859 0,0"
         style="fill:#f2f2f2;fill-opacity:1;fill-rule:nonzero;stroke:none"
         id="path638"
         inkscape:connector-curvature="0" /></g><g
       id="g640"
       transform="translate(1447.8398,338.6273)"><path
         d="M 0,0 4.932,4.503 C 5.873,5.362 7.346,5.295 8.205,4.354 9.064,3.413 8.998,1.94 8.056,1.081 L 3.125,-3.422 C 2.184,-4.281 0.71,-4.214 -0.149,-3.273 -1.008,-2.332 -0.941,-0.859 0,0"
         style="fill:#0078ef;fill-opacity:1;fill-rule:nonzero;stroke:none"
         id="path642"
         inkscape:connector-curvature="0" /></g><g
       id="g644"
       transform="translate(1536.6201,210.0043)"><path
         d="M 0,0 -6.874,7.528 C -12.491,13.681 -7.131,22.075 2.38,39.542 11.891,57.01 13.654,69.461 1.861,82.26 -8.837,93.87 -26.602,89.947 -37.597,83.319 -48.591,76.692 -66.772,73 -80.003,87.624 c -12.971,14.336 -2.687,24.249 2.181,39.819 4.622,14.786 8.346,29.357 4.765,33.279 l -8.03,8.796"
         style="fill:none;stroke:#02a7fc;stroke-width:4;stroke-linecap:butt;stroke-linejoin:miter;stroke-miterlimit:10;stroke-dasharray:none;stroke-opacity:1"
         id="path646"
         inkscape:connector-curvature="0" /></g><g
       id="g648"
       transform="translate(1578.5952,248.3295)"><path
         d="m 0,0 -6.874,7.528 c -5.617,6.152 -14.462,1.576 -32.721,-6.311 -18.259,-7.886 -30.819,-8.512 -42.494,4.393 -10.592,11.707 -5.073,29.043 2.525,39.391 7.598,10.348 12.923,28.12 -0.439,42.622 -13.1,14.218 -23.906,4.876 -39.852,1.441 -15.145,-3.261 -29.994,-5.648 -33.575,-1.725 l -8.03,8.795"
         style="fill:none;stroke:#02a7fc;stroke-width:4;stroke-linecap:butt;stroke-linejoin:miter;stroke-miterlimit:10;stroke-dasharray:none;stroke-opacity:1"
         id="path650"
         inkscape:connector-curvature="0" /></g><g
       id="g652"
       transform="translate(1461.3989,150.5531)"><path
         d="m 0,0 c -16.773,19.688 -20.786,21.849 -29,20.768 -8.214,-1.081 -40.974,-22.932 -54.354,-32.078 -13.381,-9.147 -33.515,-21.377 -39.799,-29.031 -6.285,-7.654 -5.664,-42.531 -1.076,-55.553 4.588,-13.023 17.418,-22.519 25.406,-23.339 25.276,-2.597 47.018,-5.564 70.218,8.743 17.795,10.975 50.109,40.139 55.542,52.891 5.664,13.297 1.379,20.634 -5.963,30.375 C 15.37,-19.79 7.088,-8.319 0,0 Z"
         style="fill:none;stroke:#02a7fc;stroke-width:3;stroke-linecap:butt;stroke-linejoin:miter;stroke-miterlimit:10;stroke-dasharray:none;stroke-opacity:1"
         id="path654"
         inkscape:connector-curvature="0" /></g><g
       id="g656"
       transform="translate(1402.6177,44.1298)"><path
         d="m 0,0 c -7.578,-5.527 -18.203,-3.865 -23.73,3.713 -5.528,7.578 -3.866,18.202 3.712,23.73 7.578,5.528 18.203,3.866 23.73,-3.713 C 9.24,16.152 7.578,5.528 0,0"
         style="fill:#4fc3fd;fill-opacity:1;fill-rule:nonzero;stroke:none"
         id="path658"
         inkscape:connector-curvature="0" /></g><g
       id="g660"
       transform="translate(1372.561,105.6337)"><path
         d="m 0,0 c -8.076,-5.892 -16.524,-8.061 -18.869,-4.846 -2.345,3.216 2.3,10.598 10.376,16.489 8.076,5.891 16.524,8.06 18.869,4.845 C 12.722,13.272 8.076,5.891 0,0"
         style="fill:#ffce40;fill-opacity:1;fill-rule:nonzero;stroke:none"
         id="path662"
         inkscape:connector-curvature="0" /></g><g
       id="g664"
       transform="translate(1358.2524,73.7734)"><path
         d="m 0,0 c 0.101,-9.995 -3.044,-18.131 -7.023,-18.171 -3.98,-0.04 -7.288,8.03 -7.388,18.026 -0.101,9.996 3.044,18.131 7.023,18.171 C -3.409,18.066 -0.101,9.996 0,0"
         style="fill:#ffce40;fill-opacity:1;fill-rule:nonzero;stroke:none"
         id="path666"
         inkscape:connector-curvature="0" /></g><g
       id="g668"
       transform="translate(1466.8262,121.4443)"><path
         d="M 0,0 C 7.708,-6.365 11.901,-14.013 9.367,-17.082 6.833,-20.15 -1.47,-17.478 -9.177,-11.112 -16.885,-4.746 -21.079,2.901 -18.544,5.97 -16.01,9.038 -7.708,6.365 0,0"
         style="fill:#ffce40;fill-opacity:1;fill-rule:nonzero;stroke:none"
         id="path670"
         inkscape:connector-curvature="0" /></g><g
       id="g672"
       transform="translate(1449.1235,67.4228)"><path
         d="m 0,0 c -7.663,-6.419 -15.947,-9.148 -18.502,-6.098 -2.556,3.051 1.585,10.728 9.248,17.146 7.664,6.419 15.947,9.149 18.503,6.098 C 11.804,14.096 7.664,6.419 0,0"
         style="fill:#ffce40;fill-opacity:1;fill-rule:nonzero;stroke:none"
         id="path674"
         inkscape:connector-curvature="0" /></g><g
       id="g676"
       transform="translate(1427.8721,138.0561)"><path
         d="m 0,0 c -9.879,-1.525 -18.38,0.427 -18.987,4.36 -0.608,3.932 6.909,8.358 16.788,9.883 9.879,1.525 18.38,-0.427 18.988,-4.36 C 17.396,5.95 9.879,1.525 0,0"
         style="fill:#ffce40;fill-opacity:1;fill-rule:nonzero;stroke:none"
         id="path678"
         inkscape:connector-curvature="0" /></g><g
       id="g680"
       transform="translate(1445.1729,99.7695)"><path
         d="M 0,0 C -1.579,13.306 -0.667,15.89 -20.823,22.931 -40.978,29.971 -44.13,30.08 -49.792,19.123 -55.453,8.166 -56.26,5.529 -61.44,-2.345 c -5.179,-7.875 3.744,-8.876 14.003,-8.902 10.26,-0.025 19.222,-6.459 30.642,-6.322 C -5.376,-17.432 1.372,-11.561 0,0"
         style="fill:#4fc3fd;fill-opacity:1;fill-rule:nonzero;stroke:none"
         id="path682"
         inkscape:connector-curvature="0" /></g><g
       id="g684"
       transform="translate(1376.665,88.6415)"><path
         d="m 0,0 c -0.278,-2.456 -2.495,-4.221 -4.95,-3.942 -2.455,0.278 -4.22,2.494 -3.942,4.949 0.279,2.456 2.495,4.221 4.95,3.942 C -1.487,4.671 0.278,2.455 0,0"
         style="fill:#f2f2f2;fill-opacity:1;fill-rule:nonzero;stroke:none"
         id="path686"
         inkscape:connector-curvature="0" /></g><g
       id="g688"
       transform="translate(1371.8564,46.2138)"><path
         d="m 0,0 c -0.278,-2.455 -2.494,-4.22 -4.95,-3.941 -2.455,0.278 -4.22,2.494 -3.942,4.949 0.279,2.455 2.495,4.22 4.95,3.942 C -1.487,4.672 0.278,2.455 0,0"
         style="fill:#f2f2f2;fill-opacity:1;fill-rule:nonzero;stroke:none"
         id="path690"
         inkscape:connector-curvature="0" /></g><g
       id="g692"
       transform="translate(1428.3076,52.4638)"><path
         d="m 0,0 c 0.69,-2.373 -0.673,-4.856 -3.045,-5.547 -2.373,-0.69 -4.856,0.673 -5.547,3.046 -0.691,2.372 0.673,4.855 3.046,5.546 C -3.174,3.736 -0.691,2.372 0,0"
         style="fill:#f2f2f2;fill-opacity:1;fill-rule:nonzero;stroke:none"
         id="path694"
         inkscape:connector-curvature="0" /></g><g
       id="g696"
       transform="translate(1405.6548,141.685)"><path
         d="m 0,0 c 0.69,-2.373 -0.673,-4.856 -3.045,-5.546 -2.373,-0.691 -4.856,0.672 -5.547,3.045 -0.691,2.373 0.673,4.856 3.046,5.546 C -3.174,3.736 -0.691,2.373 0,0"
         style="fill:#f2f2f2;fill-opacity:1;fill-rule:nonzero;stroke:none"
         id="path698"
         inkscape:connector-curvature="0" /></g><g
       id="g700"
       transform="translate(1459.7222,139.6952)"><path
         d="m 0,0 c 0.69,-2.373 -0.673,-4.855 -3.045,-5.546 -2.373,-0.691 -4.856,0.673 -5.547,3.045 -0.691,2.373 0.673,4.856 3.046,5.546 C -3.174,3.736 -0.69,2.373 0,0"
         style="fill:#f2f2f2;fill-opacity:1;fill-rule:nonzero;stroke:none"
         id="path702"
         inkscape:connector-curvature="0" /></g><g
       id="g704"
       transform="translate(1467.4253,77.4482)"><path
         d="m 0,0 -10.244,14.043 c -0.337,0.462 -0.235,1.116 0.227,1.453 l 0.557,0.405 c 0.461,0.338 1.116,0.236 1.453,-0.226 L 2.237,1.631 C 2.574,1.169 2.471,0.515 2.009,0.178 L 1.453,-0.228 C 0.991,-0.564 0.337,-0.463 0,0"
         style="fill:#4fc3fd;fill-opacity:1;fill-rule:nonzero;stroke:none"
         id="path706"
         inkscape:connector-curvature="0" /></g><g
       id="g708"
       transform="translate(1469.9082,80.4267)"><path
         d="m 0,0 -10.244,14.044 c -0.337,0.462 -0.235,1.115 0.227,1.453 l 0.556,0.405 c 0.462,0.337 1.116,0.235 1.453,-0.227 L 2.236,1.632 C 2.573,1.169 2.471,0.516 2.009,0.179 L 1.453,-0.228 C 0.991,-0.564 0.337,-0.462 0,0"
         style="fill:#4fc3fd;fill-opacity:1;fill-rule:nonzero;stroke:none"
         id="path710"
         inkscape:connector-curvature="0" /></g><g
       id="g712"
       transform="translate(1471.5039,84.622)"><path
         d="m 0,0 -10.244,14.043 c -0.337,0.463 -0.235,1.116 0.227,1.453 l 0.556,0.406 c 0.462,0.337 1.116,0.235 1.453,-0.227 L 2.236,1.631 C 2.573,1.169 2.471,0.515 2.009,0.178 L 1.453,-0.228 C 0.991,-0.564 0.337,-0.462 0,0"
         style="fill:#4fc3fd;fill-opacity:1;fill-rule:nonzero;stroke:none"
         id="path714"
         inkscape:connector-curvature="0" /></g><g
       id="g716"
       transform="translate(1398.6655,130.3525)"><path
         d="m 0,0 -16.338,-5.937 c -0.537,-0.195 -1.137,0.085 -1.332,0.624 l -0.236,0.646 c -0.195,0.538 0.085,1.138 0.623,1.333 L -0.946,2.603 C -0.408,2.798 0.192,2.518 0.387,1.979 L 0.622,1.333 C 0.817,0.795 0.538,0.195 0,0"
         style="fill:#4fc3fd;fill-opacity:1;fill-rule:nonzero;stroke:none"
         id="path718"
         inkscape:connector-curvature="0" /></g><g
       id="g720"
       transform="translate(1396.4937,133.5654)"><path
         d="m 0,0 -16.337,-5.936 c -0.538,-0.195 -1.138,0.084 -1.333,0.623 l -0.235,0.646 c -0.196,0.538 0.085,1.138 0.622,1.333 L -0.945,2.602 C -0.408,2.797 0.192,2.518 0.387,1.979 L 0.623,1.333 C 0.818,0.795 0.538,0.195 0,0"
         style="fill:#4fc3fd;fill-opacity:1;fill-rule:nonzero;stroke:none"
         id="path722"
         inkscape:connector-curvature="0" /></g><g
       id="g724"
       transform="translate(1392.9077,136.2646)"><path
         d="m 0,0 -16.338,-5.937 c -0.537,-0.195 -1.137,0.085 -1.332,0.623 l -0.235,0.647 c -0.196,0.537 0.084,1.137 0.622,1.332 L -0.945,2.602 C -0.408,2.797 0.192,2.517 0.387,1.979 L 0.622,1.333 C 0.818,0.795 0.538,0.195 0,0"
         style="fill:#4fc3fd;fill-opacity:1;fill-rule:nonzero;stroke:none"
         id="path726"
         inkscape:connector-curvature="0" /></g><g
       id="g728"
       transform="translate(1373.189,82.0771)"><path
         d="m 0,0 -0.427,-17.377 c -0.014,-0.572 -0.493,-1.028 -1.065,-1.015 l -0.688,0.018 c -0.572,0.014 -1.028,0.493 -1.014,1.064 l 0.426,17.378 c 0.015,0.573 0.494,1.029 1.066,1.014 L -1.014,1.065 C -0.442,1.052 0.014,0.572 0,0"
         style="fill:#4fc3fd;fill-opacity:1;fill-rule:nonzero;stroke:none"
         id="path730"
         inkscape:connector-curvature="0" /></g><g
       id="g732"
       transform="translate(1369.4053,81.2265)"><path
         d="m 0,0 -0.427,-17.378 c -0.013,-0.571 -0.493,-1.028 -1.065,-1.014 l -0.688,0.017 c -0.571,0.014 -1.028,0.493 -1.014,1.065 l 0.427,17.377 c 0.014,0.573 0.493,1.029 1.065,1.015 L -1.014,1.065 C -0.442,1.051 0.014,0.571 0,0"
         style="fill:#4fc3fd;fill-opacity:1;fill-rule:nonzero;stroke:none"
         id="path734"
         inkscape:connector-curvature="0" /></g><g
       id="g736"
       transform="translate(1365.585,78.871)"><path
         d="m 0,0 -0.427,-17.378 c -0.013,-0.571 -0.493,-1.028 -1.065,-1.014 l -0.688,0.017 c -0.571,0.014 -1.028,0.493 -1.014,1.065 l 0.427,17.377 c 0.014,0.573 0.493,1.029 1.065,1.015 L -1.014,1.064 C -0.442,1.051 0.014,0.571 0,0"
         style="fill:#4fc3fd;fill-opacity:1;fill-rule:nonzero;stroke:none"
         id="path738"
         inkscape:connector-curvature="0" /></g><g
       id="g740"
       transform="translate(1652.7554,371.0028)"><path
         d="M 0,0 -14.487,9.746 1.196,17.419 Z"
         style="fill:none;stroke:#f2f2f2;stroke-width:4;stroke-linecap:butt;stroke-linejoin:miter;stroke-miterlimit:10;stroke-dasharray:none;stroke-opacity:1"
         id="path742"
         inkscape:connector-curvature="0" /></g><g
       id="g744"
       transform="translate(1722.2993,324.2367)"><path
         d="M 0,0 -14.487,9.746 1.196,17.419 Z"
         style="fill:none;stroke:#f2f2f2;stroke-width:4;stroke-linecap:butt;stroke-linejoin:miter;stroke-miterlimit:10;stroke-dasharray:none;stroke-opacity:1"
         id="path746"
         inkscape:connector-curvature="0" /></g><g
       id="g748"
       transform="translate(1648.0459,286.7777)"><path
         d="M 0,0 -14.487,9.746 1.197,17.419 Z"
         style="fill:none;stroke:#f2f2f2;stroke-width:4;stroke-linecap:butt;stroke-linejoin:miter;stroke-miterlimit:10;stroke-dasharray:none;stroke-opacity:1"
         id="path750"
         inkscape:connector-curvature="0" /></g><g
       id="g752"
       transform="translate(1650.7188,328.1654)"><path
         d="M 0,0 -14.487,9.746 1.196,17.419 Z"
         style="fill:none;stroke:#f2f2f2;stroke-width:4;stroke-linecap:butt;stroke-linejoin:miter;stroke-miterlimit:10;stroke-dasharray:none;stroke-opacity:1"
         id="path754"
         inkscape:connector-curvature="0" /></g><g
       id="g756"
       transform="translate(1687.7251,346.2714)"><path
         d="M 0,0 -14.487,9.746 1.196,17.419 Z"
         style="fill:none;stroke:#f2f2f2;stroke-width:4;stroke-linecap:butt;stroke-linejoin:miter;stroke-miterlimit:10;stroke-dasharray:none;stroke-opacity:1"
         id="path758"
         inkscape:connector-curvature="0" /></g><g
       id="g760"
       transform="translate(1682.084,264.058)"><path
         d="M 0,0 -14.487,9.746 1.197,17.419 Z"
         style="fill:none;stroke:#f2f2f2;stroke-width:4;stroke-linecap:butt;stroke-linejoin:miter;stroke-miterlimit:10;stroke-dasharray:none;stroke-opacity:1"
         id="path762"
         inkscape:connector-curvature="0" /></g><g
       id="g764"
       transform="translate(1644.3003,245.5717)"><path
         d="M 0,0 -14.487,9.746 1.197,17.419 Z"
         style="fill:none;stroke:#f2f2f2;stroke-width:4;stroke-linecap:butt;stroke-linejoin:miter;stroke-miterlimit:10;stroke-dasharray:none;stroke-opacity:1"
         id="path766"
         inkscape:connector-curvature="0" /></g><g
       id="g768"
       transform="translate(1718.6611,281.954)"><path
         d="M 0,0 -14.487,9.746 1.196,17.419 Z"
         style="fill:none;stroke:#f2f2f2;stroke-width:4;stroke-linecap:butt;stroke-linejoin:miter;stroke-miterlimit:10;stroke-dasharray:none;stroke-opacity:1"
         id="path770"
         inkscape:connector-curvature="0" /></g><g
       id="g772"
       transform="translate(1756.999,300.7113)"><path
         d="M 0,0 -14.487,9.746 1.196,17.419 Z"
         style="fill:none;stroke:#f2f2f2;stroke-width:4;stroke-linecap:butt;stroke-linejoin:miter;stroke-miterlimit:10;stroke-dasharray:none;stroke-opacity:1"
         id="path774"
         inkscape:connector-curvature="0" /></g><g
       id="g776"
       transform="translate(1668.7383,338.3358)"><path
         d="m 0,0 -31.906,21.464 34.541,16.9 z"
         style="fill:none;stroke:#ffd662;stroke-width:4;stroke-linecap:butt;stroke-linejoin:miter;stroke-miterlimit:10;stroke-dasharray:none;stroke-opacity:1"
         id="path778"
         inkscape:connector-curvature="0" /></g><g
       id="g780"
       transform="translate(1738.3838,291.3627)"><path
         d="m 0,0 -31.906,21.463 34.541,16.9 z"
         style="fill:none;stroke:#ffd662;stroke-width:4;stroke-linecap:butt;stroke-linejoin:miter;stroke-miterlimit:10;stroke-dasharray:none;stroke-opacity:1"
         id="path782"
         inkscape:connector-curvature="0" /></g><g
       id="g784"
       transform="translate(1663.8638,254.4482)"><path
         d="m 0,0 -31.906,21.464 34.541,16.9 z"
         style="fill:none;stroke:#ffd662;stroke-width:4;stroke-linecap:butt;stroke-linejoin:miter;stroke-miterlimit:10;stroke-dasharray:none;stroke-opacity:1"
         id="path786"
         inkscape:connector-curvature="0" /></g><g
       id="g788"
       transform="translate(1700.9424,272.5141)"><path
         d="M 0,0 -66.942,45.033 5.528,80.49 Z"
         style="fill:none;stroke:#0478dc;stroke-width:4;stroke-linecap:butt;stroke-linejoin:miter;stroke-miterlimit:10;stroke-dasharray:none;stroke-opacity:1"
         id="path790"
         inkscape:connector-curvature="0" /></g><g
       id="g792"
       transform="translate(1637.6016,401.9755)"><path
         d="m 0,0 -11.547,-168.122 151.371,74.061 z"
         style="fill:none;stroke:#02a7fc;stroke-width:4;stroke-linecap:butt;stroke-linejoin:miter;stroke-miterlimit:10;stroke-dasharray:none;stroke-opacity:1"
         id="path794"
         inkscape:connector-curvature="0" /></g></g></svg>