<?xml version="1.0" encoding="UTF-8" standalone="no"?>
<!-- Created with Inkscape (http://www.inkscape.org/) -->

<svg
   xmlns:dc="http://purl.org/dc/elements/1.1/"
   xmlns:cc="http://creativecommons.org/ns#"
   xmlns:rdf="http://www.w3.org/1999/02/22-rdf-syntax-ns#"
   xmlns:svg="http://www.w3.org/2000/svg"
   xmlns="http://www.w3.org/2000/svg"
   xmlns:sodipodi="http://sodipodi.sourceforge.net/DTD/sodipodi-0.dtd"
   xmlns:inkscape="http://www.inkscape.org/namespaces/inkscape"
   version="1.1"
   id="svg2"
   xml:space="preserve"
   width="2560.0266"
   height="477.01199"
   viewBox="0 0 2560.0266 477.01199"
   sodipodi:docname="zahlavi_SOC_vystupy.ai.svg"
   inkscape:version="0.92.1 r15371"><metadata
     id="metadata8"><rdf:RDF><cc:Work
         rdf:about=""><dc:format>image/svg+xml</dc:format><dc:type
           rdf:resource="http://purl.org/dc/dcmitype/StillImage" /><dc:title></dc:title></cc:Work></rdf:RDF></metadata><defs
     id="defs6"><clipPath
       clipPathUnits="userSpaceOnUse"
       id="clipPath20"><path
         d="M 0,357.759 H 1920.02 V 0 H 0 Z"
         id="path18"
         inkscape:connector-curvature="0" /></clipPath><clipPath
       clipPathUnits="userSpaceOnUse"
       id="clipPath94"><path
         d="M 0,357.759 H 1920.02 V 0 H 0 Z"
         id="path92"
         inkscape:connector-curvature="0" /></clipPath><clipPath
       clipPathUnits="userSpaceOnUse"
       id="clipPath192"><path
         d="M 0,357.759 H 1920.02 V 0 H 0 Z"
         id="path190"
         inkscape:connector-curvature="0" /></clipPath></defs><sodipodi:namedview
     pagecolor="#ffffff"
     bordercolor="#666666"
     borderopacity="1"
     objecttolerance="10"
     gridtolerance="10"
     guidetolerance="10"
     inkscape:pageopacity="0"
     inkscape:pageshadow="2"
     inkscape:window-width="1920"
     inkscape:window-height="1062"
     id="namedview4"
     showgrid="false"
     inkscape:zoom="0.44635652"
     inkscape:cx="1167.2227"
     inkscape:cy="555.34097"
     inkscape:window-x="0"
     inkscape:window-y="0"
     inkscape:window-maximized="1"
     inkscape:current-layer="g10" /><g
     id="g10"
     inkscape:groupmode="layer"
     inkscape:label="zahlavi_SOC_vystupy"
     transform="matrix(1.3333333,0,0,-1.3333333,0,477.012)"><path
       d="M -187.50015,0 H 2107.5202 V 357.759 H -187.50015 Z"
       style="fill:#a7d1f2;fill-opacity:1;fill-rule:nonzero;stroke:none;stroke-width:1.09330261"
       id="path12"
       inkscape:connector-curvature="0"
       inkscape:export-filename="/home/apophis/jan/KSI/ks-muni-web/static/header-soc.png"
       inkscape:export-xdpi="72.449249"
       inkscape:export-ydpi="72.449249" /><g
       id="g22"
       transform="translate(1446.863,142.4811)"><path
         d="M 0,0 C 0.79,0.406 1.335,1.219 1.335,2.168 1.335,2.439 1.28,2.696 1.198,2.94 L 2.46,6.037 2.131,2.146 C 1.755,1.21 1.408,0.354 1.141,-0.297 0.687,-0.342 0.246,-0.393 -0.183,-0.449 Z M 3.155,2.091 3.851,3.799 4.604,-0.078 C 4.034,-0.094 3.476,-0.12 2.929,-0.154 2.994,0.475 3.072,1.252 3.155,2.091 M 3.496,5.626 3.506,5.578 C 3.5,5.562 3.494,5.547 3.487,5.532 3.49,5.563 3.493,5.594 3.496,5.626 M 3.859,9.497 5.053,10.69 V 9.468 c 0,0 -0.349,-0.881 -0.851,-2.141 L 3.859,9.468 Z m 0,1.838 H 4.967 L 3.859,10.228 Z m 0,1.658 1.14,-1.14 h -1.14 z m 0,0.756 1.194,1.194 V 12.53 l -1.194,1.194 z m 0,1.855 H 4.983 L 3.859,14.48 Z m 0,1.641 1.124,-1.124 H 3.859 Z m 0,0.776 1.194,1.194 v -2.432 l -1.194,1.194 z m 0,1.855 H 4.983 L 3.859,18.752 Z m 0,1.641 1.124,-1.124 H 3.859 Z m 0,0.775 1.194,1.194 v -2.432 l -1.194,1.194 z m 0,1.855 H 4.982 L 3.859,23.024 Z m 0,1.642 1.124,-1.124 H 3.859 Z m 0,0.775 1.194,1.194 V 25.326 L 3.859,26.52 Z m 0,1.855 H 4.983 L 3.859,27.295 Z m 0,1.642 1.124,-1.125 H 3.859 Z m 0,0.812 1.194,1.194 v -2.469 l -1.194,1.194 z m 0,1.856 H 4.983 L 3.859,31.604 Z m 0,1.641 1.124,-1.124 H 3.859 Z m 0,0.812 1.194,1.194 v -2.469 l -1.194,1.194 z m 0,1.855 H 4.983 L 3.859,35.914 Z m 0,1.641 1.124,-1.124 H 3.859 Z m 0,0.813 1.194,1.194 V 38.216 L 3.859,39.41 Z m 0,1.856 H 4.983 L 3.859,40.222 Z m 0,1.64 1.124,-1.124 H 3.859 Z M 5.142,6.967 5.393,-0.06 c -0.002,0 -0.004,0 -0.006,-0.001 L 4.509,5.414 Z M 6.161,10.69 7.355,9.497 V 9.468 L 7.023,7.4 6.161,9.468 Z m 0,4.253 1.194,-1.194 V 13.724 L 6.161,12.53 Z m 0,4.272 1.194,-1.194 V 17.977 L 6.161,16.783 Z m 0,4.271 1.194,-1.194 V 22.248 L 6.161,21.054 Z m 0,4.272 1.194,-1.194 V 26.52 L 6.161,25.326 Z m 0,4.309 1.194,-1.194 V 30.792 L 6.161,29.598 Z m 0,4.309 1.194,-1.194 V 35.101 L 6.161,33.907 Z m 0,4.309 1.194,-1.194 V 39.41 L 6.161,38.216 Z m 1.194,0.662 v -1.125 l -1.124,1.125 z m 0,1.64 V 41.863 H 6.231 Z M 6.231,37.554 7.355,38.678 V 37.554 Z M 7.355,37.037 V 35.914 L 6.231,37.037 Z M 6.231,33.246 7.355,34.37 V 33.246 Z M 7.355,32.729 V 31.604 L 6.231,32.729 Z M 6.231,28.936 7.355,30.061 V 28.936 Z M 7.355,28.419 V 27.295 L 6.231,28.419 Z M 6.231,24.665 7.355,25.789 V 24.665 Z M 7.355,24.147 V 23.024 L 6.231,24.147 Z M 6.231,20.393 7.355,21.517 V 20.393 Z M 7.355,19.876 V 18.752 L 6.231,19.876 Z M 6.231,16.121 7.355,17.245 V 16.121 Z M 7.355,15.604 V 14.48 l -1.124,1.124 z m -1.14,-3.751 1.14,1.14 v -1.14 z m 1.14,-0.518 v -1.107 l -1.108,1.107 z m 0.04,-11.403 c -0.259,0.006 -0.519,0.009 -0.781,0.011 l 0.202,1.04 C 6.95,0.599 7.146,0.244 7.395,-0.068 M 8.958,5.537 C 8.905,5.517 8.852,5.5 8.801,5.478 L 8.753,6.037 Z M 6.243,6.832 6.751,5.706 6.346,3.177 C 6.314,4.428 6.276,5.733 6.243,6.832 M 113.788,-110.687 H 14.864 v 74.139 c 3.346,0.562 5.502,1.439 5.502,2.426 0,0.987 -2.156,1.865 -5.502,2.426 v 5.039 c 3.346,0.607 5.502,1.555 5.502,2.621 0,0.43 -0.352,0.839 -0.987,1.215 0.633,0.209 1.093,0.798 1.093,1.501 0,0.877 -0.711,1.587 -1.587,1.587 -0.877,0 -1.587,-0.71 -1.587,-1.587 0,-0.256 0.066,-0.495 0.174,-0.709 -0.751,0.23 -1.628,0.437 -2.608,0.614 v 4.839 c 3.346,0.632 5.502,1.621 5.502,2.733 0,1.112 -2.156,2.1 -5.502,2.732 v 4.426 c 1.364,0.276 2.531,0.615 3.433,1.001 -0.027,-0.094 -0.047,-0.192 -0.047,-0.295 0,-0.584 0.474,-1.058 1.058,-1.058 0.585,0 1.058,0.474 1.058,1.058 0,0.485 -0.329,0.89 -0.775,1.015 0.5,0.378 0.775,0.784 0.775,1.207 0,0.495 -0.374,0.966 -1.049,1.398 0.066,-0.015 0.133,-0.023 0.203,-0.023 0.526,0 0.952,0.426 0.952,0.952 0,0.526 -0.426,0.952 -0.952,0.952 -0.526,0 -0.953,-0.426 -0.953,-0.952 0,-0.252 0.1,-0.48 0.261,-0.65 -1.353,0.694 -3.518,1.262 -6.17,1.618 0.705,0.656 1.149,1.59 1.149,2.63 0,1.986 -1.611,3.597 -3.598,3.597 -0.09,0 -0.179,-0.007 -0.268,-0.014 C 9.127,7.793 8.463,9.468 8.463,9.468 v 1.867 h 1.018 v 0.518 H 8.463 v 3.751 h 1.002 v 0.517 H 8.463 v 3.755 h 1.002 v 0.517 H 8.463 v 3.754 h 1.002 v 0.518 H 8.463 v 3.754 h 1.002 v 0.517 H 8.463 v 3.793 h 1.002 v 0.517 H 8.463 v 3.791 h 1.002 v 0.517 H 8.463 v 3.793 h 1.002 v 0.516 H 8.463 v 1.885 H 7.355 v -0.03 L 6.161,42.525 v 1.246 H 6.44 v 2.336 H 5.924 v 0.476 H 6.44 v 2.335 H 5.924 v 0.488 H 6.44 v 2.336 H 5.924 V 52.23 H 6.44 v 2.335 H 5.924 v 0.627 H 6.44 v 2.336 H 4.774 V 55.192 H 5.29 V 54.565 H 4.774 V 52.23 H 5.29 V 51.742 H 4.774 V 49.406 H 5.29 V 48.918 H 4.774 V 46.583 H 5.29 V 46.107 H 4.774 v -2.336 h 0.279 v -1.246 l -1.194,1.193 v 0.03 H 2.75 V 41.863 H 1.749 V 41.347 H 2.75 V 37.554 H 1.749 V 37.037 H 2.75 V 33.246 H 1.749 V 32.729 H 2.75 V 28.936 H 1.749 V 28.419 H 2.75 V 24.665 H 1.749 V 24.147 H 2.75 V 20.393 H 1.749 V 19.876 H 2.75 V 16.121 H 1.749 V 15.604 H 2.75 V 11.853 H 1.765 V 11.335 H 2.75 V 9.468 c 0,0 -1.093,-2.76 -2.196,-5.517 -0.438,0.408 -1.02,0.663 -1.665,0.663 -1.351,0 -2.447,-1.095 -2.447,-2.446 0,-1.337 1.074,-2.42 2.405,-2.442 -0.049,-0.12 -0.096,-0.233 -0.139,-0.338 -4.02,-0.654 -6.696,-1.817 -6.696,-3.145 0,-1.191 2.155,-2.25 5.501,-2.928 v -1.314 c -0.354,0.268 -0.791,0.433 -1.269,0.433 -1.169,0 -2.117,-0.947 -2.117,-2.116 0,-0.86 0.515,-1.595 1.251,-1.927 -2.098,-0.602 -3.366,-1.382 -3.366,-2.234 0,-1.112 2.155,-2.101 5.501,-2.733 v -4.839 c -3.346,-0.606 -5.501,-1.554 -5.501,-2.621 0,-1.066 2.155,-2.014 5.501,-2.621 v -5.039 c -3.346,-0.561 -5.501,-1.439 -5.501,-2.426 0,-0.987 2.155,-1.864 5.501,-2.426 v -74.139 h -278.448 l -154.691,-22.794 598.47,-10.5 z"
         style="fill:#efefef;fill-opacity:1;fill-rule:nonzero;stroke:none"
         id="path24"
         inkscape:connector-curvature="0" /></g><g
       id="g26"
       transform="translate(1438.8748,132.799)"><path
         d="M 0,0 C 0.759,0 1.375,0.616 1.375,1.375 1.375,2.135 0.759,2.751 0,2.751 -0.76,2.751 -1.375,2.135 -1.375,1.375 -1.375,0.616 -0.76,0 0,0"
         style="fill:#72d4fc;fill-opacity:1;fill-rule:nonzero;stroke:none"
         id="path28"
         inkscape:connector-curvature="0" /></g><g
       id="g30"
       transform="translate(1438.0281,123.9118)"><path
         d="m 0,0 c 0,-0.467 0.379,-0.846 0.847,-0.846 0.467,0 0.846,0.379 0.846,0.846 0,0.468 -0.379,0.847 -0.846,0.847 C 0.379,0.847 0,0.468 0,0"
         style="fill:#72d4fc;fill-opacity:1;fill-rule:nonzero;stroke:none"
         id="path32"
         inkscape:connector-curvature="0" /></g><g
       id="g34"
       transform="translate(1444.094,123.9118)"><path
         d="m 0,0 c 0,1.188 -0.963,2.151 -2.151,2.151 -1.188,0 -2.151,-0.963 -2.151,-2.151 0,-1.188 0.963,-2.151 2.151,-2.151 C -0.963,-2.151 0,-1.188 0,0"
         style="fill:#72d4fc;fill-opacity:1;fill-rule:nonzero;stroke:none"
         id="path36"
         inkscape:connector-curvature="0" /></g><g
       id="g38"
       transform="translate(1462.1506,123.9118)"><path
         d="m 0,0 c 0,-0.818 0.663,-1.481 1.481,-1.481 0.818,0 1.481,0.663 1.481,1.481 0,0.818 -0.663,1.481 -1.481,1.481 C 0.663,1.481 0,0.818 0,0"
         style="fill:#72d4fc;fill-opacity:1;fill-rule:nonzero;stroke:none"
         id="path40"
         inkscape:connector-curvature="0" /></g><g
       id="g42"
       transform="translate(1463.6321,134.2804)"><path
         d="m 0,0 c -0.818,0 -1.481,-0.663 -1.481,-1.481 0,-0.818 0.663,-1.481 1.481,-1.481 0.818,0 1.481,0.663 1.481,1.481 C 1.481,-0.663 0.818,0 0,0"
         style="fill:#72d4fc;fill-opacity:1;fill-rule:nonzero;stroke:none"
         id="path44"
         inkscape:connector-curvature="0" /></g><g
       id="g46"
       transform="translate(1466.1711,132.4816)"><path
         d="M 0,0 C 0.643,0 1.164,0.521 1.164,1.164 1.164,1.807 0.643,2.328 0,2.328 -0.643,2.328 -1.164,1.807 -1.164,1.164 -1.164,0.521 -0.643,0 0,0"
         style="fill:#72d4fc;fill-opacity:1;fill-rule:nonzero;stroke:none"
         id="path48"
         inkscape:connector-curvature="0" /></g><g
       id="g50"
       transform="translate(1466.3826,130.6832)"><path
         d="m 0,0 c 0,-0.468 0.379,-0.847 0.847,-0.847 0.467,0 0.846,0.379 0.846,0.847 0,0.467 -0.379,0.846 -0.846,0.846 C 0.379,0.846 0,0.467 0,0"
         style="fill:#72d4fc;fill-opacity:1;fill-rule:nonzero;stroke:none"
         id="path52"
         inkscape:connector-curvature="0" /></g><g
       id="g54"
       transform="translate(1438.5569,130.0836)"><path
         d="M 0,0 C 0.682,0 1.235,0.553 1.235,1.234 1.235,1.916 0.682,2.469 0,2.469 -0.681,2.469 -1.234,1.916 -1.234,1.234 -1.234,0.553 -0.681,0 0,0"
         style="fill:#72d4fc;fill-opacity:1;fill-rule:nonzero;stroke:none"
         id="path56"
         inkscape:connector-curvature="0" /></g><g
       id="g58"
       transform="translate(1463.6321,141.8981)"><path
         d="M 0,0 C 0.818,0 1.481,0.663 1.481,1.481 1.481,2.299 0.818,2.962 0,2.962 -0.818,2.962 -1.481,2.299 -1.481,1.481 -1.481,0.663 -0.818,0 0,0"
         style="fill:#72d4fc;fill-opacity:1;fill-rule:nonzero;stroke:none"
         id="path60"
         inkscape:connector-curvature="0" /></g><g
       id="g62"
       transform="translate(1440.9905,140.9459)"><path
         d="M 0,0 C 0.526,0 0.952,0.426 0.952,0.952 0.952,1.478 0.526,1.904 0,1.904 -0.526,1.904 -0.952,1.478 -0.952,0.952 -0.952,0.426 -0.526,0 0,0"
         style="fill:#72d4fc;fill-opacity:1;fill-rule:nonzero;stroke:none"
         id="path64"
         inkscape:connector-curvature="0" /></g><g
       id="g66"
       transform="translate(1035.5916,48.4288)"><path
         d="m 0,0 h -32.368 l -0.146,5.918 0.919,0.154 -9.652,4.289 -4.979,0.418 v 2.168 h -1.034 v -2.081 l -6.88,0.577 -1.239,1.963 h -0.958 v 0.517 h -1.034 v -0.517 h -4.367 v 2.05 h -2.719 v -2.05 h -2.413 v 1.475 h -1.57 v -1.475 h -3.026 v 1.839 h -1.609 v -1.839 h -0.804 v 1.839 h -0.919 v -1.839 h -2.744 l -6.161,0.517 v 2.356 h -1.551 v -2.226 l -1.647,0.138 -8.091,4.415 -8.647,0.694 v 1.633 h -0.919 v -1.559 l -1.523,0.122 -3.619,-1.695 h -2.757 l -0.719,-0.746 -1.092,0.574 v 7.785 l 0.403,-0.029 v 1.006 l -0.546,0.028 -1.235,2.126 -1.264,1.063 v 1.062 l -0.374,2.155 h -0.603 l -0.603,-2.183 v -1.063 l -1.35,-1.178 -1.207,-1.953 h -0.258 l -0.014,-0.819 0.272,0.015 V 18.29 l -2.528,0.115 v -0.92 l -1.666,0.058 v 0.575 h -2.24 l -0.019,0.014 v 11.342 h -0.575 v -2.528 h -0.536 V 23.46 h 0.536 v -4.891 l -10.245,7.802 -4.788,0.02 -2.643,-1.724 -2.298,0.058 -2.126,2.297 h -19.648 l -10.112,-9.881 h 0.748 v -5.516 l -1.149,-1.378 V 3.18 l -5.458,0.057 v 3.294 h 1.455 l -5.937,4.489 v 1.831 h -1.072 v -1.02 l -5.554,4.199 h -2.758 v 1.341 h -2.221 V 16.03 h -5.209 v 1.341 h -2.221 V 16.03 h -5.822 v 1.341 h -2.221 V 16.03 h -5.018 v 1.341 h -2.221 V 16.03 h -1.954 L -239.416,6.991 V 0 l -58.254,-5.311 3.329,-49.118 367.481,9 z"
         style="fill:#efefef;fill-opacity:1;fill-rule:nonzero;stroke:none"
         id="path68"
         inkscape:connector-curvature="0" /></g><g
       id="g70"
       transform="translate(1940.0154,14.0768)"><path
         d="M 166.33837,0 -510.681,0.72 v 50.264 l -4.864,8.107 v 4.864 l -4.053,2.837 -13.781,25.942 -9.323,-0.999 v 35.858 h -1.419 v 8.512 h -0.71 v 10.641 h -2.431 v -10.641 h -0.71 v -8.512 h -1.419 v 26.347 h -1.621 v 7.144 h -4.194 l -4.179,86.823 c 1.288,0.147 2.293,1.228 2.293,2.555 0,1.412 -1.134,2.556 -2.54,2.58 l -0.044,0.916 -0.037,-0.916 c -1.41,-0.02 -2.547,-1.166 -2.547,-2.58 0,-1.343 1.029,-2.435 2.34,-2.559 l -3.506,-86.819 h -4.914 v -7.144 h -1.621 v -25.536 h -1.318 v 8.512 h -0.709 v 10.64 h -2.432 v -10.64 h -0.709 v -8.512 h -1.419 v -13.355 l -6.688,8.086 -5.371,-0.689 v 11.227 h -1.419 v 8.513 h -0.709 v 10.64 h -2.432 v -10.64 h -0.709 v -8.513 h -1.419 v 26.348 h -1.622 v 7.144 h -4.193 l -4.18,86.822 c 1.289,0.147 2.293,1.228 2.293,2.555 0,1.412 -1.133,2.556 -2.54,2.58 l -0.044,0.916 -0.037,-0.915 c -1.409,-0.021 -2.547,-1.166 -2.547,-2.581 0,-1.343 1.029,-2.434 2.34,-2.559 l -3.506,-86.818 h -4.914 v -7.144 h -1.621 v -25.537 h -1.318 v 8.512 h -0.709 v 10.64 h -2.432 v -10.64 h -0.71 v -8.512 h -1.418 v -16.377 l -30.792,-3.946 c -0.338,3.312 -0.622,6.136 -0.622,6.136 l -0.764,-6.314 -0.958,-0.123 v 6.032 l -2.508,5.766 -1.141,11.866 -0.705,-12.235 -2.943,-3.573 V 108.6 l -1.618,-2.239 c -0.424,5.976 -0.915,12.822 -0.915,12.822 0,-0.313 -0.693,-9.09 -1.225,-15.782 l -4.819,-6.669 c -0.764,7.357 -1.455,15.256 -1.455,15.256 l -2.823,-21.174 -12.9,-17.847 c -0.522,2.262 -0.997,4.364 -0.997,4.364 -0.053,-0.316 -0.489,-3.179 -0.896,-5.856 l -1.739,13.152 c 0,-0.389 -0.28,-6.373 -0.571,-12.495 l -0.645,5.199 -1.488,-13.131 -1.349,-1.866 v -6.891 l -2.432,-5.675 V 1.077 l -22.645,0.043 -424.865,-27.196 1312.59324,0 z"
         style="fill:#efefef;fill-opacity:1;fill-rule:nonzero;stroke:none"
         id="path72"
         inkscape:connector-curvature="0"
         sodipodi:nodetypes="cccccccccccccccccccccccscccscccccccccccccccccccccccccccccccccscccsccccccccccccccccccccccccccccccccccccccccccccccc" /></g><path
       d="m 416.028,71.325 h 6.485 V 55.798 h -6.485 z m 7.955,0 h 6.508 V 55.798 h -6.508 z m 7.978,0 h 6.507 V 55.798 h -6.507 z m 7.977,0 h 6.507 V 55.798 h -6.507 z m 7.978,0 h 6.507 V 55.798 h -6.507 z m 7.978,0 h 6.507 V 55.798 h -6.507 z m 7.977,0 h 6.485 V 55.798 h -6.485 z m 21.415,4.181 h 4.02 V 62.268 h -4.02 z m 5.288,0 h 4.02 V 62.268 h -4.02 z m 5.29,0 h 4.02 V 62.268 h -4.02 z m 5.288,0 h 4.02 V 62.268 h -4.02 z m 5.289,0 h 4.02 V 62.268 h -4.02 z m 5.288,0 h 4.02 V 62.268 h -4.02 z m 5.289,0 h 4.02 V 62.268 h -4.02 z m 5.288,0 h 4.02 V 62.268 h -4.02 z m 5.289,0 h 4.02 V 62.268 h -4.02 z m 5.289,0 h 4.02 V 62.268 h -4.02 z m 5.288,0 h 4.02 V 62.268 h -4.02 z m 5.289,0 h 4.02 V 62.268 h -4.02 z m 5.288,0 h 4.02 V 62.268 h -4.02 z m 11.407,-4.181 h 32.568 V 58.187 h -32.568 z m -749.05386,-56.883 -0.10161,-33.855 1368.68147,-3.666 -66,26 -375.76,40.197 -48.037,0.363 0.298,15.58 -47.668,0.031 v 4.034 h -2.095 v 13.908 h 0.86 v 7.753 c 0,6.574 -3.805,12.257 -9.332,14.972 v 2.627 h -14.686 v -2.627 c -5.527,-2.715 -9.332,-8.398 -9.332,-14.972 v -7.753 h 0.86 V 63.126 h -2.095 v -4.034 h -7.345 v 45.676 2.986 h -7.651 c -2.137,4.297 -6.133,7.504 -10.936,8.57 v 1.358 h -2.24 v 0.56 h -2.538 v -0.56 h -2.24 v -1.358 c -5.861,-1.301 -10.521,-5.79 -12.065,-11.556 h -8.911 v -3.882 h -11.346 v 10.749 h -13.736 v 3.484 h -11.944 v -3.484 h -3.285 V 100.886 H 492.95 v 5.076 h -1.991 v -5.076 h -1.094 v 5.076 h -1.991 v -5.076 h -2.588 v 6.868 h -4.465 c -4.239,13.328 -15.374,23.579 -29.214,26.563 v 2.849 h -3.347 v 0.896 h -9.992 v -0.896 h -3.346 v -2.849 c -13.84,-2.984 -24.975,-13.235 -29.214,-26.563 h -4.328 v -4.778 H 335.539 V 57.782 l -161.813,0.135 v -2.573 l 0.044,-40.902 z"
       style="fill:#efefef;fill-opacity:1;fill-rule:nonzero;stroke:none"
       id="path74"
       inkscape:connector-curvature="0"
       sodipodi:nodetypes="cccccccccccccccccccccccccccccccccccccccccccccccccccccccccccccccccccccccccccccccccccccccccccccccccccccccccccccccccccccsccccscccccccccccccccccccccccccccccccccccccccccccccccccccccccc" /><g
       id="g186"><g
         id="g188"
         clip-path="url(#clipPath192)"><g
           id="g194"
           transform="translate(887.3196,313.4464)"><path
             d="M 0,0 C -0.567,0.072 -1.056,0.488 -1.192,1.079 -3.466,10.925 -12.44,17.637 -22.53,17.044 -29.588,16.627 -36.071,12.51 -39.45,6.298 -39.821,5.615 -40.676,5.36 -41.358,5.734 -42.04,6.106 -42.293,6.959 -41.922,7.642 -38.083,14.7 -30.715,19.38 -22.695,19.853 -11.235,20.53 -1.035,12.901 1.55,1.712 1.724,0.955 1.252,0.2 0.495,0.025 0.328,-0.014 0.161,-0.021 0,0"
             style="fill:#02a7fc;fill-opacity:1;fill-rule:nonzero;stroke:none"
             id="path196"
             inkscape:connector-curvature="0" /></g><g
           id="g198"
           transform="translate(884.9744,251.2643)"><path
             d="m 0,0 c -0.114,0.015 -0.226,0.03 -0.34,0.046 -11.368,1.627 -19.833,11.141 -20.13,22.621 -0.02,0.776 0.594,1.422 1.371,1.442 0.764,0.023 1.423,-0.593 1.442,-1.37 0.261,-10.103 7.711,-18.475 17.716,-19.907 6.988,-1.02 14.173,1.735 18.727,7.147 0.501,0.595 1.388,0.669 1.982,0.171 0.595,-0.5 0.671,-1.388 0.171,-1.982 C 15.839,2.106 7.843,-1.004 0,0"
             style="fill:#02a7fc;fill-opacity:1;fill-rule:nonzero;stroke:none"
             id="path200"
             inkscape:connector-curvature="0" /></g><g
           id="g202"
           transform="translate(942.0745,268.2457)"><path
             d="m 0,0 c -0.257,0.033 -0.508,0.137 -0.722,0.315 -0.596,0.499 -0.676,1.386 -0.178,1.982 6.48,7.758 6.419,18.965 -0.146,26.648 -4.591,5.378 -11.787,8.063 -18.779,7.008 -0.768,-0.117 -1.486,0.414 -1.602,1.181 -0.115,0.769 0.413,1.485 1.182,1.601 7.944,1.198 16.122,-1.851 21.339,-7.963 C 8.553,22.043 8.623,9.308 1.26,0.494 0.94,0.111 0.46,-0.059 0,0"
             style="fill:#02a7fc;fill-opacity:1;fill-rule:nonzero;stroke:none"
             id="path204"
             inkscape:connector-curvature="0" /></g><g
           id="g206"
           transform="translate(935.1732,240.4918)"><path
             d="m 0,0 c -0.352,0.045 -0.687,0.222 -0.925,0.523 -0.482,0.609 -0.379,1.495 0.231,1.976 7.926,6.271 10.154,17.254 5.296,26.117 -3.399,6.2 -9.902,10.306 -16.955,10.693 -0.773,0.03 -1.369,0.707 -1.326,1.483 0.044,0.775 0.708,1.369 1.484,1.326 C -4.167,41.68 3.208,37.014 7.069,29.968 12.589,19.897 10.059,7.417 1.052,0.292 0.743,0.048 0.363,-0.046 0,0"
             style="fill:#02a7fc;fill-opacity:1;fill-rule:nonzero;stroke:none"
             id="path208"
             inkscape:connector-curvature="0" /></g><g
           id="g210"
           transform="translate(889.0477,228.485)"><path
             d="m 0,0 c -2.897,0.371 -5.733,1.277 -8.337,2.718 -10.047,5.562 -14.579,17.465 -10.775,28.301 0.257,0.733 1.057,1.124 1.794,0.861 0.733,-0.257 1.119,-1.061 0.861,-1.794 -3.348,-9.535 0.641,-20.011 9.482,-24.905 C -0.787,1.758 6.891,1.767 13.07,5.205 13.749,5.583 14.605,5.338 14.984,4.661 15.362,3.981 15.118,3.125 14.438,2.747 10.019,0.286 4.922,-0.63 0,0"
             style="fill:#02a7fc;fill-opacity:1;fill-rule:nonzero;stroke:none"
             id="path212"
             inkscape:connector-curvature="0" /></g><g
           id="g214"
           transform="translate(913.9564,253.8053)"><path
             d="m 0,0 c -4.288,0.549 -8.219,2.997 -10.567,6.68 -3.867,6.068 -2.8,13.974 2.535,18.799 0.575,0.522 1.466,0.477 1.987,-0.099 0.521,-0.577 0.476,-1.467 -0.101,-1.988 C -10.389,19.554 -11.27,13.02 -8.194,8.192 -6.008,4.763 -2.122,2.657 1.948,2.697 2.728,2.712 3.362,2.083 3.37,1.305 3.377,0.528 2.754,-0.108 1.977,-0.116 1.312,-0.124 0.652,-0.083 0,0"
             style="fill:#02a7fc;fill-opacity:1;fill-rule:nonzero;stroke:none"
             id="path216"
             inkscape:connector-curvature="0" /></g><g
           id="g218"
           transform="translate(861.409,287.923)"><path
             d="m 0,0 c -1.41,0.181 -2.798,0.577 -4.106,1.193 -6.142,2.889 -9.277,9.731 -7.455,16.269 0.209,0.751 0.992,1.203 1.733,0.978 0.749,-0.208 1.187,-0.984 0.978,-1.732 C -10.279,11.58 -7.725,6.004 -2.909,3.738 0.516,2.125 4.618,2.401 7.798,4.457 8.452,4.879 9.321,4.692 9.743,4.038 10.165,3.385 9.978,2.515 9.325,2.092 6.551,0.302 3.218,-0.412 0,0"
             style="fill:#02a7fc;fill-opacity:1;fill-rule:nonzero;stroke:none"
             id="path220"
             inkscape:connector-curvature="0" /></g><g
           id="g222"
           transform="translate(916.5887,249.6134)"><path
             d="m 0,0 c -0.468,0.06 -0.896,0.354 -1.105,0.816 -1.49,3.292 -1.169,7.205 0.837,10.209 2.867,4.297 8.372,5.886 13.084,3.773 0.71,-0.316 1.028,-1.149 0.71,-1.858 C 13.208,12.23 12.377,11.911 11.667,12.23 8.265,13.749 4.142,12.561 2.072,9.462 0.602,7.259 0.367,4.392 1.459,1.976 1.779,1.269 1.465,0.435 0.757,0.114 0.511,0.002 0.25,-0.032 0,0"
             style="fill:#02a7fc;fill-opacity:1;fill-rule:nonzero;stroke:none"
             id="path224"
             inkscape:connector-curvature="0" /></g><g
           id="g226"
           transform="translate(882.7737,295.5836)"><path
             d="m 0,0 c -0.024,0.003 -0.049,0.006 -0.073,0.011 -0.765,0.138 -1.273,0.87 -1.134,1.635 0.662,3.667 -1.481,7.388 -4.985,8.653 -2.493,0.897 -5.334,0.442 -7.415,-1.196 -0.612,-0.483 -1.496,-0.374 -1.976,0.233 -0.481,0.611 -0.376,1.496 0.235,1.976 2.838,2.235 6.712,2.861 10.112,1.633 C -0.378,11.191 2.481,6.229 1.562,1.146 1.428,0.405 0.737,-0.094 0,0"
             style="fill:#02a7fc;fill-opacity:1;fill-rule:nonzero;stroke:none"
             id="path228"
             inkscape:connector-curvature="0" /></g><g
           id="g230"
           transform="translate(856.2918,307.3258)"><path
             d="m 0,0 c -0.468,0.06 -0.896,0.354 -1.105,0.816 -1.489,3.29 -1.168,7.203 0.837,10.208 2.867,4.295 8.372,5.882 13.085,3.774 0.71,-0.317 1.027,-1.148 0.71,-1.859 C 13.21,12.229 12.38,11.91 11.668,12.23 8.267,13.75 4.141,12.562 2.073,9.461 0.602,7.257 0.367,4.39 1.459,1.976 1.78,1.268 1.465,0.434 0.757,0.113 0.511,0.002 0.25,-0.032 0,0"
             style="fill:#02a7fc;fill-opacity:1;fill-rule:nonzero;stroke:none"
             id="path232"
             inkscape:connector-curvature="0" /></g><g
           id="g234"
           transform="translate(837.5247,295.9152)"><path
             d="m 0,0 c -0.49,0.062 -0.933,0.382 -1.129,0.873 -1.841,4.602 -1.164,9.942 1.767,13.938 4.189,5.711 11.824,7.553 18.157,4.376 C 19.491,18.84 19.771,17.993 19.422,17.3 19.075,16.604 18.228,16.322 17.535,16.673 12.517,19.189 6.228,17.672 2.907,13.146 0.545,9.929 0,5.625 1.484,1.918 1.772,1.197 1.421,0.378 0.7,0.089 0.47,-0.003 0.229,-0.029 0,0"
             style="fill:#02a7fc;fill-opacity:1;fill-rule:nonzero;stroke:none"
             id="path236"
             inkscape:connector-curvature="0" /></g><g
           id="g238"
           transform="translate(917.0652,268.9401)"><path
             d="m 0,0 c -0.31,0.04 -0.608,0.182 -0.84,0.425 -0.536,0.563 -0.514,1.453 0.049,1.99 5.282,5.029 6.158,13.071 2.082,19.121 -2.853,4.231 -7.791,6.744 -12.892,6.566 -0.78,-0.036 -1.428,0.579 -1.456,1.356 -0.027,0.776 0.58,1.428 1.356,1.455 C -5.641,31.135 0.233,28.14 3.624,23.107 8.47,15.917 7.429,6.356 1.149,0.376 0.83,0.073 0.405,-0.052 0,0"
             style="fill:#02a7fc;fill-opacity:1;fill-rule:nonzero;stroke:none"
             id="path240"
             inkscape:connector-curvature="0" /></g><g
           id="g242"
           transform="translate(827.6985,293.7843)"><path
             d="m 0,0 c -0.405,0.052 -0.784,0.278 -1.017,0.651 -4.248,6.819 -4.689,15.534 -1.149,22.747 5.06,10.309 16.721,15.421 27.734,12.157 0.745,-0.222 1.17,-1.005 0.949,-1.749 -0.221,-0.745 -1.008,-1.168 -1.749,-0.95 C 15.079,35.729 4.813,31.23 0.36,22.158 -2.755,15.811 -2.367,8.141 1.373,2.141 1.783,1.48 1.582,0.612 0.922,0.202 0.636,0.024 0.311,-0.04 0,0"
             style="fill:#02a7fc;fill-opacity:1;fill-rule:nonzero;stroke:none"
             id="path244"
             inkscape:connector-curvature="0" /></g><g
           id="g246"
           transform="translate(832.679,263.6515)"><path
             d="m 0,0 c -12.388,1.585 -21.176,12.954 -19.59,25.341 0.886,6.93 5.02,13.17 11.055,16.69 0.671,0.391 1.534,0.164 1.925,-0.507 0.391,-0.67 0.165,-1.532 -0.507,-1.924 -5.286,-3.083 -8.905,-8.546 -9.682,-14.616 C -18.187,14.135 -10.492,4.18 0.357,2.791 3.288,2.416 6.319,2.709 9.123,3.642 9.859,3.886 10.657,3.486 10.902,2.75 11.147,2.013 10.748,1.216 10.01,0.971 6.809,-0.093 3.347,-0.429 0,0"
             style="fill:#02a7fc;fill-opacity:1;fill-rule:nonzero;stroke:none"
             id="path248"
             inkscape:connector-curvature="0" /></g><g
           id="g250"
           transform="translate(910.2518,221.7736)"><path
             d="m 0,0 c -5.437,0.696 -10.543,3.359 -14.2,7.526 -0.512,0.585 -0.455,1.474 0.129,1.986 0.583,0.512 1.474,0.456 1.986,-0.129 4.036,-4.599 10.092,-7.104 16.198,-6.709 10.914,0.711 19.213,10.17 18.502,21.084 -0.193,2.949 -1.061,5.867 -2.511,8.441 -0.381,0.678 -0.142,1.535 0.536,1.917 0.676,0.383 1.534,0.143 1.916,-0.535 1.655,-2.94 2.647,-6.273 2.866,-9.639 C 26.236,11.48 16.758,0.679 4.296,-0.134 2.855,-0.228 1.417,-0.181 0,0"
             style="fill:#02a7fc;fill-opacity:1;fill-rule:nonzero;stroke:none"
             id="path252"
             inkscape:connector-curvature="0" /></g><g
           id="g254"
           transform="translate(879.7044,288.92)"><path
             d="m 0,0 c -0.031,0.004 -0.062,0.009 -0.094,0.015 -0.761,0.15 -1.259,0.89 -1.109,1.652 0.474,2.416 1.504,4.737 2.979,6.712 5.458,7.306 15.842,8.808 23.147,3.349 4.087,-3.054 6.569,-7.923 6.639,-13.024 0.01,-0.777 -0.612,-1.415 -1.388,-1.427 -0.777,-0.01 -1.415,0.611 -1.426,1.388 C 28.69,2.898 26.631,6.94 23.239,9.475 17.175,14.005 8.558,12.757 4.03,6.694 2.806,5.056 1.952,3.13 1.558,1.125 1.415,0.394 0.729,-0.093 0,0"
             style="fill:#02a7fc;fill-opacity:1;fill-rule:nonzero;stroke:none"
             id="path256"
             inkscape:connector-curvature="0" /></g><g
           id="g258"
           transform="translate(873.3909,269.7906)"><path
             d="m 0,0 c -2.23,0.285 -4.437,1.032 -6.477,2.275 -4.358,2.654 -7.29,7.266 -7.84,12.339 -0.084,0.772 0.473,1.467 1.246,1.551 0.77,0.08 1.467,-0.473 1.55,-1.247 0.458,-4.209 2.891,-8.037 6.507,-10.24 6.464,-3.937 14.926,-1.877 18.86,4.586 1.063,1.747 1.732,3.744 1.934,5.778 0.077,0.773 0.766,1.339 1.539,1.262 0.793,-0.099 1.338,-0.767 1.261,-1.54 C 18.336,12.313 17.53,9.905 16.249,7.801 12.75,2.053 6.28,-0.804 0,0"
             style="fill:#02a7fc;fill-opacity:1;fill-rule:nonzero;stroke:none"
             id="path260"
             inkscape:connector-curvature="0" /></g><g
           id="g262"
           transform="translate(907.1038,229.8107)"><path
             d="m 0,0 c -2.229,0.285 -4.436,1.032 -6.476,2.275 -4.358,2.654 -7.29,7.266 -7.841,12.337 -0.084,0.773 0.474,1.468 1.247,1.552 0.773,0.077 1.466,-0.475 1.55,-1.247 0.458,-4.209 2.891,-8.036 6.507,-10.239 6.466,-3.936 14.925,-1.878 18.86,4.586 1.062,1.747 1.731,3.744 1.934,5.778 0.077,0.774 0.766,1.339 1.54,1.262 0.791,-0.117 1.337,-0.768 1.26,-1.54 C 18.336,12.312 17.53,9.905 16.25,7.801 12.751,2.053 6.281,-0.804 0,0"
             style="fill:#02a7fc;fill-opacity:1;fill-rule:nonzero;stroke:none"
             id="path264"
             inkscape:connector-curvature="0" /></g><g
           id="g266"
           transform="translate(852.1849,259.7711)"><path
             d="m 0,0 c -0.14,0.018 -0.279,0.057 -0.413,0.12 -0.705,0.325 -1.012,1.161 -0.686,1.867 1.778,3.843 1.667,8.375 -0.295,12.127 -1.688,3.224 -4.554,5.606 -8.07,6.707 -3.515,1.098 -7.229,0.778 -10.453,-0.911 -1.812,-0.948 -3.416,-2.315 -4.637,-3.953 -0.464,-0.625 -1.346,-0.753 -1.969,-0.287 -0.623,0.465 -0.751,1.346 -0.287,1.97 1.472,1.973 3.404,3.621 5.588,4.764 3.89,2.036 8.367,2.423 12.598,1.102 4.234,-1.325 7.687,-4.198 9.723,-8.088 C 3.464,10.897 3.598,5.435 1.455,0.804 1.191,0.234 0.592,-0.076 0,0"
             style="fill:#02a7fc;fill-opacity:1;fill-rule:nonzero;stroke:none"
             id="path268"
             inkscape:connector-curvature="0" /></g><g
           id="g270"
           transform="translate(919.1688,290.9786)"><path
             d="m 0,0 c -0.233,0.03 -0.462,0.119 -0.664,0.27 -0.622,0.465 -0.748,1.347 -0.282,1.969 0.72,0.964 2.954,4.694 1.427,12.275 -1.039,5.156 -4.054,9.62 -8.489,12.567 -4.435,2.946 -9.718,3.996 -14.874,2.958 -2.897,-0.584 -5.674,-1.832 -8.031,-3.613 -0.621,-0.47 -1.502,-0.345 -1.971,0.274 -0.468,0.621 -0.345,1.503 0.275,1.971 2.692,2.034 5.863,3.461 9.172,4.126 5.894,1.186 11.925,-0.011 16.986,-3.373 C -1.389,26.061 2.052,20.963 3.239,15.07 4.95,6.581 2.457,2.089 1.306,0.552 0.991,0.132 0.486,-0.062 0,0"
             style="fill:#02a7fc;fill-opacity:1;fill-rule:nonzero;stroke:none"
             id="path272"
             inkscape:connector-curvature="0" /></g><g
           id="g274"
           transform="translate(851.826,248.5402)"><path
             d="m 0,0 c -8.759,1.121 -16.096,7.282 -18.64,15.894 -0.22,0.744 0.205,1.526 0.951,1.747 0.744,0.216 1.527,-0.204 1.747,-0.951 C -13.528,8.526 -6.196,2.871 2.321,2.638 7.869,2.481 13.247,4.695 17.076,8.712 17.613,9.274 18.503,9.294 19.066,8.759 19.628,8.224 19.649,7.333 19.113,6.77 14.734,2.177 8.585,-0.355 2.241,-0.175 1.486,-0.153 0.737,-0.095 0,0"
             style="fill:#02a7fc;fill-opacity:1;fill-rule:nonzero;stroke:none"
             id="path276"
             inkscape:connector-curvature="0" /></g><g
           id="g278"
           transform="translate(911.1683,201.0621)"><path
             d="m 0,0 c -0.062,0.008 -0.125,0.021 -0.187,0.037 l -10.529,2.838 c -0.497,0.134 -0.882,0.529 -1.002,1.031 -0.12,0.501 0.044,1.028 0.427,1.373 0.157,0.144 3.939,3.687 3.151,9.561 -0.857,6.393 -2.3,9.606 -2.315,9.639 -0.323,0.704 -0.014,1.539 0.691,1.863 0.703,0.327 1.539,0.019 1.864,-0.685 0.066,-0.143 1.629,-3.576 2.549,-10.443 C -4.72,10.513 -6.454,6.997 -7.85,5.017 L -0.296,2.98 c 1.361,1.558 4.958,5.789 8.327,10.792 4.14,6.151 9.153,16.716 9.203,16.822 0.332,0.701 1.171,1 1.874,0.671 0.702,-0.333 1.002,-1.172 0.669,-1.874 C 19.569,28.95 14.625,18.53 10.365,12.202 6.001,5.721 1.413,0.66 1.219,0.448 0.908,0.107 0.451,-0.058 0,0"
             style="fill:#02a7fc;fill-opacity:1;fill-rule:nonzero;stroke:none"
             id="path280"
             inkscape:connector-curvature="0" /></g><g
           id="g282"
           transform="translate(1434.2722,251.4635)"><path
             d="m 0,0 61.241,-57.594 61.143,65.015 -9.737,9.157 c -0.565,0.532 -0.593,1.422 -0.061,1.989 L 122.584,29.198 72.105,76.67 Z M 60.338,-60.608 -2.953,-1.086 c -0.566,0.532 -0.593,1.422 -0.061,1.989 L 71.02,79.624 c 0.532,0.566 1.422,0.593 1.988,0.061 l 52.529,-49.401 c 0.566,-0.533 0.594,-1.423 0.061,-1.989 L 115.6,17.664 125.337,8.507 c 0.566,-0.532 0.594,-1.423 0.061,-1.989 L 62.327,-60.547 c -0.533,-0.566 -1.423,-0.593 -1.989,-0.061"
             style="fill:#02a7fc;fill-opacity:1;fill-rule:nonzero;stroke:none"
             id="path284"
             inkscape:connector-curvature="0" /></g><g
           id="g286"
           transform="translate(1534.5925,279.6344)"><path
             d="m 0,0 -20.215,19.011 c -0.566,0.533 -0.594,1.423 -0.061,1.989 0.533,0.567 1.423,0.594 1.989,0.062 L 1.928,2.05 C 2.494,1.518 2.522,0.627 1.989,0.061 1.457,-0.505 0.566,-0.532 0,0"
             style="fill:#02a7fc;fill-opacity:1;fill-rule:nonzero;stroke:none"
             id="path288"
             inkscape:connector-curvature="0" /></g><g
           id="g290"
           transform="translate(1542.801,259.5548)"><path
             d="m 0,0 -34.592,32.532 c -0.566,0.532 -0.594,1.422 -0.061,1.989 0.533,0.566 1.423,0.593 1.989,0.061 L 1.928,2.05 C 2.494,1.518 2.521,0.627 1.989,0.061 1.456,-0.506 0.566,-0.533 0,0"
             style="fill:#02a7fc;fill-opacity:1;fill-rule:nonzero;stroke:none"
             id="path292"
             inkscape:connector-curvature="0" /></g><g
           id="g294"
           transform="translate(1536.6316,252.9948)"><path
             d="m 0,0 -34.592,32.532 c -0.566,0.532 -0.594,1.422 -0.061,1.989 0.533,0.566 1.423,0.593 1.989,0.061 L 1.928,2.05 C 2.494,1.518 2.521,0.627 1.989,0.061 1.456,-0.506 0.566,-0.533 0,0"
             style="fill:#02a7fc;fill-opacity:1;fill-rule:nonzero;stroke:none"
             id="path296"
             inkscape:connector-curvature="0" /></g><g
           id="g298"
           transform="translate(1530.4631,246.4357)"><path
             d="m 0,0 -34.592,32.532 c -0.566,0.532 -0.594,1.423 -0.061,1.989 0.533,0.566 1.423,0.593 1.989,0.061 L 1.928,2.05 C 2.494,1.518 2.521,0.627 1.989,0.061 1.456,-0.506 0.566,-0.532 0,0"
             style="fill:#02a7fc;fill-opacity:1;fill-rule:nonzero;stroke:none"
             id="path300"
             inkscape:connector-curvature="0" /></g><g
           id="g302"
           transform="translate(1524.2937,239.8756)"><path
             d="m 0,0 -34.592,32.532 c -0.566,0.532 -0.594,1.423 -0.061,1.989 0.533,0.566 1.423,0.593 1.989,0.061 L 1.928,2.05 C 2.494,1.518 2.521,0.627 1.989,0.061 1.456,-0.506 0.566,-0.532 0,0"
             style="fill:#02a7fc;fill-opacity:1;fill-rule:nonzero;stroke:none"
             id="path304"
             inkscape:connector-curvature="0" /></g><g
           id="g306"
           transform="translate(1518.1243,233.3156)"><path
             d="m 0,0 -34.592,32.532 c -0.566,0.532 -0.594,1.423 -0.061,1.989 0.533,0.566 1.423,0.593 1.989,0.061 L 1.928,2.05 C 2.494,1.518 2.521,0.627 1.989,0.061 1.456,-0.506 0.566,-0.532 0,0"
             style="fill:#02a7fc;fill-opacity:1;fill-rule:nonzero;stroke:none"
             id="path308"
             inkscape:connector-curvature="0" /></g><g
           id="g310"
           transform="translate(1557.6819,257.92)"><path
             d="m 0,0 c -0.276,0.26 -0.447,0.63 -0.444,1.038 l 0.2,21.777 c 0.008,0.777 0.644,1.401 1.42,1.393 0.778,-0.006 1.4,-0.644 1.395,-1.418 L 2.371,1.013 C 2.363,0.235 1.728,-0.389 0.951,-0.381 0.583,-0.378 0.249,-0.233 0,0"
             style="fill:#02a7fc;fill-opacity:1;fill-rule:nonzero;stroke:none"
             id="path312"
             inkscape:connector-curvature="0" /></g><g
           id="g314"
           transform="translate(1466.9626,288.2794)"><path
             d="m 0,0 c -0.469,0.441 -0.588,1.164 -0.245,1.742 l 23.628,39.843 c 0.391,0.66 1.239,0.885 1.906,0.506 l 9.021,-5.127 c 0.678,-0.378 0.912,-1.242 0.528,-1.919 C 34.455,34.37 33.595,34.133 32.92,34.518 L 25.1,38.962 2.175,0.306 C 1.779,-0.362 0.916,-0.583 0.248,-0.186 0.157,-0.132 0.074,-0.07 0,0"
             style="fill:#02a7fc;fill-opacity:1;fill-rule:nonzero;stroke:none"
             id="path316"
             inkscape:connector-curvature="0" /></g><g
           id="g318"
           transform="translate(1462.9045,283.9611)"><path
             d="m 0,0 c -0.406,0.381 -0.562,0.983 -0.348,1.534 l 15.834,40.799 c 0.138,0.354 0.412,0.637 0.761,0.785 0.35,0.149 0.744,0.15 1.094,0.004 l 7.901,-3.304 c 0.716,-0.302 1.055,-1.123 0.755,-1.841 -0.3,-0.717 -1.124,-1.055 -1.841,-0.755 L 17.587,39.968 2.274,0.516 C 1.994,-0.208 1.179,-0.568 0.454,-0.286 0.281,-0.219 0.127,-0.12 0,0"
             style="fill:#02a7fc;fill-opacity:1;fill-rule:nonzero;stroke:none"
             id="path320"
             inkscape:connector-curvature="0" /></g><g
           id="g322"
           transform="translate(1529.9514,305.964)"><path
             d="m 0,0 c -0.419,0.394 -0.568,1.023 -0.328,1.582 0.308,0.714 1.136,1.043 1.849,0.735 l 29.55,-12.734 c 0.351,-0.151 0.625,-0.439 0.76,-0.796 0.134,-0.358 0.118,-0.754 -0.046,-1.1 l -3.272,-6.902 c -0.333,-0.702 -1.172,-1.001 -1.874,-0.669 -0.702,0.336 -1.001,1.173 -0.668,1.875 l 2.647,5.585 L 0.407,-0.268 C 0.253,-0.2 0.116,-0.109 0,0"
             style="fill:#02a7fc;fill-opacity:1;fill-rule:nonzero;stroke:none"
             id="path324"
             inkscape:connector-curvature="0" /></g><g
           id="g326"
           transform="translate(1557.8049,271.4552)"><path
             d="m 0,0 c -0.475,0.446 -0.589,1.178 -0.237,1.756 l 5.401,8.859 -20.906,12.547 c -0.663,0.397 -0.882,1.265 -0.482,1.93 0.4,0.667 1.264,0.883 1.931,0.483 L 7.828,12.3 C 8.146,12.103 8.38,11.793 8.47,11.43 8.559,11.065 8.5,10.681 8.305,10.361 L 2.167,0.292 C 1.761,-0.373 0.896,-0.582 0.232,-0.177 0.147,-0.125 0.07,-0.066 0,0"
             style="fill:#02a7fc;fill-opacity:1;fill-rule:nonzero;stroke:none"
             id="path328"
             inkscape:connector-curvature="0" /></g><g
           id="g330"
           transform="translate(1499.4548,196.0074)"><path
             d="m 0,0 c -0.433,0.407 -0.576,1.062 -0.307,1.629 0.334,0.702 1.174,1 1.876,0.666 L 9.45,-1.454 35.64,39.912 c 0.416,0.657 1.285,0.853 1.942,0.437 0.65,-0.415 0.851,-1.285 0.436,-1.941 L 11.161,-4.012 C 10.78,-4.614 10.01,-4.836 9.368,-4.53 L 0.36,-0.246 C 0.225,-0.181 0.104,-0.098 0,0"
             style="fill:#02a7fc;fill-opacity:1;fill-rule:nonzero;stroke:none"
             id="path332"
             inkscape:connector-curvature="0" /></g><g
           id="g334"
           transform="translate(1512.405,197.9484)"><path
             d="m 0,0 c -0.404,0.38 -0.561,0.98 -0.35,1.53 0.28,0.726 1.093,1.087 1.819,0.808 l 6.505,-2.501 16.377,39.804 c 0.295,0.718 1.118,1.062 1.837,0.766 0.718,-0.294 1.061,-1.118 0.766,-1.837 L 10.053,-2.506 C 9.762,-3.212 8.96,-3.558 8.247,-3.283 L 0.458,-0.288 C 0.283,-0.221 0.129,-0.121 0,0"
             style="fill:#02a7fc;fill-opacity:1;fill-rule:nonzero;stroke:none"
             id="path336"
             inkscape:connector-curvature="0" /></g><g
           id="g338"
           transform="translate(1433.9397,236.049)"><path
             d="m 0,0 c -0.184,0.173 -0.32,0.395 -0.39,0.643 -0.107,0.375 -0.051,0.779 0.152,1.113 L 4.456,9.484 C 4.859,10.148 5.724,10.359 6.388,9.957 7.05,9.555 7.264,8.688 6.86,8.023 L 2.95,1.586 30.045,-12.325 c 0.692,-0.358 0.964,-1.203 0.608,-1.895 -0.354,-0.69 -1.202,-0.964 -1.893,-0.608 L 0.321,-0.227 C 0.203,-0.166 0.095,-0.089 0,0"
             style="fill:#02a7fc;fill-opacity:1;fill-rule:nonzero;stroke:none"
             id="path340"
             inkscape:connector-curvature="0" /></g><g
           id="g342"
           transform="translate(1439.3103,225.6715)"><path
             d="m 0,0 c -0.137,0.129 -0.249,0.287 -0.325,0.462 -0.154,0.35 -0.157,0.746 -0.012,1.1 L 2.256,7.851 C 2.552,8.568 3.375,8.912 4.093,8.615 4.813,8.321 5.154,7.496 4.857,6.778 L 2.82,1.835 32.21,-9.11 c 0.725,-0.27 1.099,-1.08 0.827,-1.81 -0.271,-0.727 -1.081,-1.099 -1.809,-0.827 L 0.473,-0.293 C 0.295,-0.227 0.135,-0.127 0,0"
             style="fill:#02a7fc;fill-opacity:1;fill-rule:nonzero;stroke:none"
             id="path344"
             inkscape:connector-curvature="0" /></g><g
           id="g346"
           transform="translate(1477.7654,275.8512)"><path
             d="m 0,0 c -1.178,-2.491 -4.153,-3.555 -6.645,-2.377 -2.491,1.179 -3.555,4.153 -2.376,6.645 1.178,2.491 4.153,3.555 6.644,2.377 C 0.114,5.466 1.179,2.491 0,0"
             style="fill:#ffce40;fill-opacity:1;fill-rule:nonzero;stroke:none"
             id="path348"
             inkscape:connector-curvature="0" /></g><g
           id="g350"
           transform="translate(1506.7058,306.6241)"><path
             d="m 0,0 c -1.178,-2.491 -4.153,-3.555 -6.645,-2.377 -2.491,1.178 -3.555,4.153 -2.376,6.645 1.178,2.491 4.153,3.555 6.644,2.377 C 0.114,5.466 1.179,2.491 0,0"
             style="fill:#ffce40;fill-opacity:1;fill-rule:nonzero;stroke:none"
             id="path352"
             inkscape:connector-curvature="0" /></g><g
           id="g354"
           transform="translate(1487.4124,286.109)"><path
             d="m 0,0 c -1.179,-2.491 -4.153,-3.556 -6.645,-2.377 -2.491,1.178 -3.555,4.153 -2.376,6.645 1.178,2.491 4.153,3.555 6.644,2.377 C 0.114,5.466 1.178,2.491 0,0"
             style="fill:#02a7fc;fill-opacity:1;fill-rule:nonzero;stroke:none"
             id="path356"
             inkscape:connector-curvature="0" /></g><g
           id="g358"
           transform="translate(1497.0593,296.3668)"><path
             d="m 0,0 c -1.179,-2.492 -4.153,-3.556 -6.645,-2.377 -2.491,1.178 -3.555,4.153 -2.377,6.645 1.179,2.491 4.153,3.555 6.645,2.377 C 0.114,5.466 1.178,2.491 0,0"
             style="fill:#0078ef;fill-opacity:1;fill-rule:nonzero;stroke:none"
             id="path360"
             inkscape:connector-curvature="0" /></g><g
           id="g362"
           transform="translate(811.035,211.0372)"><path
             d="m 0,0 c -21.374,0 -38.764,-17.39 -38.764,-38.764 0,-8.414 2.703,-16.205 7.275,-22.567 0.028,-0.044 0.035,-0.094 0.068,-0.136 11.067,-14.316 11.738,-27.173 11.744,-27.301 0.031,-0.756 0.655,-1.347 1.404,-1.347 0.021,0 0.04,0 0.059,0 0.777,0.032 1.38,0.685 1.348,1.461 -0.017,0.422 -0.402,8.107 -5.611,18.337 -1.685,3.312 -3.869,6.886 -6.718,10.572 0.026,-0.034 0.066,-0.066 0.1,-0.099 -4.306,5.927 -6.855,13.21 -6.855,21.08 0,19.823 16.127,35.95 35.95,35.95 19.823,0 35.95,-16.127 35.95,-35.95 0,-8.623 -3.054,-16.545 -8.134,-22.746 0.041,0 0.071,-0.001 0.11,-0.001 -0.136,-0.085 -0.267,-0.184 -0.37,-0.318 -2.476,-3.203 -4.359,-6.223 -5.829,-9.021 -5.489,-10.446 -4.895,-17.621 -4.858,-17.997 0.071,-0.726 0.683,-1.268 1.397,-1.268 0.046,0 0.089,0.003 0.135,0.007 0.772,0.073 1.338,0.759 1.268,1.53 -0.009,0.107 -0.839,10.83 10.135,25.027 0.017,0.022 0.02,0.05 0.036,0.073 5.57,6.714 8.924,15.329 8.924,24.714 C 38.764,-17.39 21.375,0 0,0"
             style="fill:#02a7fc;fill-opacity:1;fill-rule:nonzero;stroke:none"
             id="path364"
             inkscape:connector-curvature="0" /></g><path
           d="m 788.738,115.644 h 44.593 v 4.573 h -44.593 z m 44.593,-2.814 h -44.593 c -1.552,0 -2.814,1.262 -2.814,2.814 v 4.572 c 0,1.552 1.262,2.814 2.814,2.814 h 44.593 c 1.553,0 2.814,-1.262 2.814,-2.814 v -4.572 c 0,-1.552 -1.261,-2.814 -2.814,-2.814"
           style="fill:#02a7fc;fill-opacity:1;fill-rule:nonzero;stroke:none"
           id="path366"
           inkscape:connector-curvature="0" /><path
           d="m 789.965,108.257 h 42.139 v 4.573 h -42.139 z m 42.139,-2.814 h -42.139 c -1.552,0 -2.814,1.263 -2.814,2.814 v 4.573 c 0,1.551 1.262,2.814 2.814,2.814 h 42.139 c 1.553,0 2.814,-1.263 2.814,-2.814 v -4.573 c 0,-1.551 -1.261,-2.814 -2.814,-2.814"
           style="fill:#02a7fc;fill-opacity:1;fill-rule:nonzero;stroke:none"
           id="path368"
           inkscape:connector-curvature="0" /><path
           d="m 791.649,100.87 h 38.771 v 4.573 h -38.771 z m 38.772,-2.814 h -38.772 c -1.552,0 -2.814,1.263 -2.814,2.814 v 4.573 c 0,1.551 1.262,2.814 2.814,2.814 h 38.772 c 1.551,0 2.814,-1.263 2.814,-2.814 v -4.573 c 0,-1.551 -1.263,-2.814 -2.814,-2.814"
           style="fill:#02a7fc;fill-opacity:1;fill-rule:nonzero;stroke:none"
           id="path370"
           inkscape:connector-curvature="0" /><g
           id="g372"
           transform="translate(781.3885,167.59)"><path
             d="m 0,0 c -0.724,0 -1.339,0.555 -1.4,1.289 -0.034,0.408 -0.745,10.106 6.684,21.245 7.459,11.188 17.2,13.685 17.612,13.786 0.753,0.195 1.517,-0.277 1.701,-1.031 0.186,-0.754 -0.276,-1.517 -1.031,-1.701 C 23.479,33.566 14.446,31.203 7.625,20.973 0.771,10.697 1.397,1.61 1.404,1.52 1.465,0.746 0.889,0.067 0.116,0.006 0.077,0.001 0.039,0 0,0"
             style="fill:#02a7fc;fill-opacity:1;fill-rule:nonzero;stroke:none"
             id="path374"
             inkscape:connector-curvature="0" /></g><g
           id="g376"
           transform="translate(803.3509,90.359)"><path
             d="M 0,0 H 15.369 L 17.43,7.697 H -2.061 Z M 16.449,-2.814 H -1.08 c -0.637,0 -1.194,0.427 -1.359,1.043 L -5.253,8.74 c -0.113,0.424 -0.023,0.874 0.243,1.22 0.266,0.348 0.678,0.551 1.116,0.551 h 23.157 c 0.437,0 0.849,-0.203 1.116,-0.551 0.266,-0.346 0.356,-0.796 0.243,-1.22 L 17.808,-1.771 c -0.165,-0.616 -0.723,-1.043 -1.359,-1.043"
             style="fill:#02a7fc;fill-opacity:1;fill-rule:nonzero;stroke:none"
             id="path378"
             inkscape:connector-curvature="0" /></g><g
           id="g380"
           transform="translate(805.7405,120.2164)"><path
             d="m 0,0 c -0.654,0 -1.24,0.459 -1.377,1.124 l -6.285,30.603 c -0.085,0.413 0.021,0.844 0.288,1.171 0.212,0.26 0.506,0.433 0.83,0.494 0.136,0.156 0.344,0.484 0.477,0.695 0.534,0.845 1.265,2.003 2.628,2.003 1.577,0 2.21,-1.353 2.549,-2.081 0.077,-0.162 0.18,-0.385 0.267,-0.53 0.1,0.137 0.285,0.436 0.404,0.63 0.456,0.742 1.219,1.981 2.761,1.981 1.684,0 2.347,-1.433 2.704,-2.202 0.024,-0.053 0.051,-0.112 0.08,-0.172 0.086,0.129 0.173,0.265 0.239,0.371 0.535,0.845 1.267,2.003 2.628,2.003 1.577,0 2.209,-1.353 2.549,-2.08 0.076,-0.163 0.181,-0.387 0.267,-0.531 0.1,0.137 0.284,0.436 0.404,0.63 0.456,0.741 1.219,1.981 2.761,1.981 1.684,0 2.348,-1.433 2.704,-2.202 0.07,-0.153 0.168,-0.362 0.244,-0.493 0.328,-0.06 0.627,-0.234 0.841,-0.495 0.266,-0.329 0.373,-0.759 0.288,-1.172 L 11.997,1.125 C 11.84,0.364 11.097,-0.121 10.336,0.029 9.575,0.184 9.084,0.928 9.239,1.689 l 6.039,29.544 c -0.484,0.456 -0.764,1.062 -0.953,1.472 -0.061,0.13 -0.14,0.3 -0.213,0.437 -0.075,-0.138 -0.205,-0.35 -0.302,-0.507 -0.468,-0.761 -1.25,-2.032 -2.853,-2.032 -1.729,0 -2.402,1.441 -2.765,2.216 -0.013,0.027 -0.026,0.057 -0.041,0.088 -0.075,-0.115 -0.148,-0.23 -0.207,-0.324 -0.528,-0.834 -1.253,-1.98 -2.596,-1.98 -1.681,0 -2.315,1.367 -2.656,2.102 -0.06,0.13 -0.138,0.3 -0.212,0.437 C 2.405,33.004 2.275,32.792 2.178,32.635 1.71,31.874 0.927,30.603 -0.675,30.603 c -1.729,0 -2.402,1.441 -2.764,2.214 -0.013,0.029 -0.027,0.058 -0.041,0.09 -0.076,-0.115 -0.149,-0.23 -0.208,-0.324 -0.267,-0.422 -0.584,-0.924 -1.006,-1.317 L 1.379,1.69 C 1.536,0.929 1.045,0.186 0.284,0.029 0.189,0.01 0.093,0 0,0"
             style="fill:#02a7fc;fill-opacity:1;fill-rule:nonzero;stroke:none"
             id="path382"
             inkscape:connector-curvature="0" /></g><g
           id="g384"
           transform="translate(811.2933,222.0226)"><path
             d="m 0,0 h -0.04 -0.378 c -2.719,0 -4.924,2.206 -4.924,4.925 0,2.72 2.205,4.925 4.924,4.925 L 0.037,9.849 C 2.758,9.827 4.945,7.605 4.923,4.885 4.901,2.179 2.701,0 0,0 m -21.073,-4.156 c -1.932,0 -3.767,1.146 -4.551,3.042 -1.042,2.513 0.152,5.394 2.666,6.434 l 0.403,0.166 c 2.515,1.03 5.392,-0.177 6.423,-2.695 1.028,-2.518 -0.179,-5.393 -2.696,-6.421 l -0.363,-0.15 c -0.616,-0.255 -1.254,-0.376 -1.882,-0.376 m 41.722,-0.04 c -0.635,0 -1.279,0.124 -1.902,0.385 l -0.346,0.144 c -2.517,1.031 -3.722,3.907 -2.692,6.424 1.032,2.518 3.912,3.72 6.424,2.69 l 0.423,-0.176 c 2.507,-1.051 3.689,-3.937 2.637,-6.445 -0.79,-1.886 -2.619,-3.022 -4.544,-3.022 m -59.21,-11.723 c -1.254,0 -2.509,0.476 -3.469,1.431 -1.93,1.916 -1.942,5.034 -0.025,6.964 l 0.331,0.33 c 1.935,1.91 5.054,1.887 6.964,-0.049 1.91,-1.937 1.888,-5.054 -0.05,-6.965 l -0.256,-0.256 c -0.962,-0.97 -2.229,-1.455 -3.495,-1.455 m 76.676,-0.073 c -1.272,0 -2.543,0.49 -3.506,1.467 l -0.245,0.246 c -1.937,1.909 -1.959,5.027 -0.049,6.964 1.911,1.937 5.029,1.957 6.963,0.048 l 0.344,-0.343 c 1.91,-1.937 1.888,-5.055 -0.05,-6.964 -0.959,-0.947 -2.208,-1.418 -3.457,-1.418 m -88.358,-17.473 c -0.632,0 -1.275,0.122 -1.894,0.381 -2.511,1.046 -3.696,3.931 -2.65,6.44 l 0.161,0.386 c 1.049,2.51 3.934,3.695 6.441,2.65 2.511,-1.047 3.697,-3.932 2.65,-6.441 l -0.161,-0.386 c -0.789,-1.89 -2.619,-3.03 -4.547,-3.03 m 100.007,-0.091 c -1.94,0 -3.78,1.155 -4.56,3.063 l -0.136,0.332 c -1.057,2.506 0.118,5.394 2.624,6.451 2.502,1.059 5.393,-0.118 6.45,-2.624 l 0.18,-0.434 c 1.028,-2.517 -0.178,-5.392 -2.696,-6.421 -0.61,-0.249 -1.241,-0.367 -1.862,-0.367 m -104.06,-20.535 c -2.719,0 -4.925,2.151 -4.925,4.871 l 0.002,0.482 c 0.035,2.696 2.234,4.859 4.923,4.859 0.022,0 0.044,0 0.067,-0.001 2.72,-0.036 4.895,-2.27 4.859,-4.99 l -0.002,-0.243 c 0,-2.72 -2.205,-4.978 -4.924,-4.978 M 53.781,-54.453 H 53.73 c -2.719,0.027 -4.903,2.254 -4.876,4.973 l 0.002,0.581 c 0,2.719 2.206,4.924 4.925,4.924 2.719,0 4.924,-2.205 4.924,-4.924 l -10e-4,-0.679 c -0.028,-2.702 -2.227,-4.875 -4.923,-4.875 m -103.94,-20.354 c -1.922,0 -3.747,1.132 -4.54,3.013 l -0.179,0.434 c -1.028,2.517 0.178,5.392 2.695,6.42 2.516,1.029 5.392,-0.176 6.422,-2.696 l 0.136,-0.331 c 1.057,-2.507 -0.118,-5.395 -2.624,-6.451 -0.624,-0.264 -1.272,-0.389 -1.91,-0.389 m 99.68,-0.29 c -0.635,0 -1.279,0.124 -1.901,0.385 -2.508,1.052 -3.69,3.938 -2.637,6.446 l 0.156,0.375 c 1.048,2.511 3.933,3.695 6.442,2.65 2.51,-1.047 3.696,-3.931 2.649,-6.441 l -0.165,-0.393 c -0.79,-1.886 -2.619,-3.022 -4.544,-3.022 m -87.935,-17.206 c -1.26,0 -2.52,0.48 -3.482,1.442 l -0.317,0.319 c -1.91,1.937 -1.888,5.054 0.049,6.964 1.935,1.911 5.054,1.888 6.964,-0.048 l 0.268,-0.27 c 1.924,-1.924 1.924,-5.042 0,-6.965 -0.962,-0.962 -2.222,-1.442 -3.482,-1.442 m 76.088,-0.222 c -1.278,0 -2.554,0.494 -3.519,1.48 -1.903,1.943 -1.87,5.061 0.074,6.963 l 0.247,0.245 c 1.915,1.93 5.033,1.941 6.963,0.024 1.931,-1.916 1.941,-5.035 0.025,-6.965 l -0.345,-0.341 c -0.958,-0.938 -2.201,-1.406 -3.445,-1.406"
             style="fill:#ffce40;fill-opacity:1;fill-rule:nonzero;stroke:none"
             id="path386"
             inkscape:connector-curvature="0" /></g><g
           id="g388"
           transform="translate(1618.7439,191.1007)"><path
             d="m 0,0 c -37.048,0 -67.189,-30.14 -67.189,-67.189 0,-37.048 30.141,-67.189 67.189,-67.189 37.048,0 67.189,30.141 67.189,67.189 C 67.189,-30.14 37.048,0 0,0 m 0,-137.192 c -38.6,0 -70.003,31.403 -70.003,70.003 0,38.6 31.403,70.003 70.003,70.003 38.6,0 70.003,-31.403 70.003,-70.003 0,-38.6 -31.403,-70.003 -70.003,-70.003"
             style="fill:#02a7fc;fill-opacity:1;fill-rule:nonzero;stroke:none"
             id="path390"
             inkscape:connector-curvature="0" /></g><g
           id="g392"
           transform="translate(1618.7439,180.5802)"><path
             d="m 0,0 c -31.248,0 -56.669,-25.422 -56.669,-56.669 0,-31.247 25.421,-56.669 56.669,-56.669 31.248,0 56.669,25.422 56.669,56.669 C 56.669,-25.422 31.248,0 0,0 m 0,-116.152 c -32.799,0 -59.483,26.684 -59.483,59.483 0,32.799 26.684,59.483 59.483,59.483 32.799,0 59.483,-26.684 59.483,-59.483 0,-32.799 -26.684,-59.483 -59.483,-59.483"
             style="fill:#02a7fc;fill-opacity:1;fill-rule:nonzero;stroke:none"
             id="path394"
             inkscape:connector-curvature="0" /></g><g
           id="g396"
           transform="translate(1618.7439,131.3077)"><path
             d="m 0,0 c -4.078,0 -7.396,-3.318 -7.396,-7.396 0,-4.079 3.318,-7.395 7.396,-7.395 4.078,0 7.396,3.316 7.396,7.395 C 7.396,-3.318 4.078,0 0,0 m 0,-17.605 c -5.63,0 -10.21,4.579 -10.21,10.209 0,5.629 4.58,10.21 10.21,10.21 5.63,0 10.21,-4.581 10.21,-10.21 0,-5.63 -4.58,-10.209 -10.21,-10.209"
             style="fill:#02a7fc;fill-opacity:1;fill-rule:nonzero;stroke:none"
             id="path398"
             inkscape:connector-curvature="0" /></g><g
           id="g400"
           transform="translate(1626.0315,129.3414)"><path
             d="m 0,0 c -0.374,0 -0.747,0.148 -1.023,0.442 -0.534,0.565 -0.507,1.455 0.058,1.989 l 23.031,21.706 c 0.565,0.533 1.455,0.508 1.989,-0.059 0.533,-0.564 0.507,-1.455 -0.059,-1.988 L 0.965,0.383 C 0.693,0.126 0.347,0 0,0"
             style="fill:#02a7fc;fill-opacity:1;fill-rule:nonzero;stroke:none"
             id="path402"
             inkscape:connector-curvature="0" /></g><g
           id="g404"
           transform="translate(1633.9949,106.2316)"><path
             d="m 0,0 c -0.374,0 -0.747,0.148 -1.023,0.442 l -8.963,9.509 c -0.533,0.565 -0.507,1.455 0.059,1.988 0.565,0.535 1.455,0.507 1.989,-0.059 L 1.023,2.372 C 1.557,1.807 1.531,0.917 0.965,0.383 0.693,0.126 0.346,0 0,0"
             style="fill:#02a7fc;fill-opacity:1;fill-rule:nonzero;stroke:none"
             id="path406"
             inkscape:connector-curvature="0" /></g><g
           id="g408"
           transform="translate(1623.1174,121.4772)"><path
             d="m 0,0 c -1.326,-2.416 -4.36,-3.299 -6.775,-1.973 -2.416,1.327 -3.3,4.36 -1.973,6.776 1.326,2.416 4.36,3.299 6.775,1.973 C 0.443,5.449 1.327,2.416 0,0"
             style="fill:#ffce40;fill-opacity:1;fill-rule:nonzero;stroke:none"
             id="path410"
             inkscape:connector-curvature="0" /></g><g
           id="g412"
           transform="translate(1618.7434,159.7897)"><path
             d="m 0,0 c -0.777,0 -1.407,0.629 -1.407,1.407 v 11.022 c 0,0.778 0.63,1.407 1.407,1.407 0.777,0 1.407,-0.629 1.407,-1.407 V 1.407 C 1.407,0.629 0.777,0 0,0"
             style="fill:#02a7fc;fill-opacity:1;fill-rule:nonzero;stroke:none"
             id="path414"
             inkscape:connector-curvature="0" /></g><g
           id="g416"
           transform="translate(1600.0852,154.7911)"><path
             d="m 0,0 c -0.486,0 -0.959,0.251 -1.22,0.703 l -5.51,9.544 c -0.389,0.673 -0.159,1.534 0.515,1.922 0.672,0.39 1.532,0.16 1.922,-0.515 L 1.218,2.11 C 1.605,1.437 1.375,0.577 0.702,0.188 0.481,0.06 0.239,0 0,0"
             style="fill:#02a7fc;fill-opacity:1;fill-rule:nonzero;stroke:none"
             id="path418"
             inkscape:connector-curvature="0" /></g><g
           id="g420"
           transform="translate(1586.4236,141.1305)"><path
             d="m 0,0 c -0.239,0 -0.48,0.061 -0.702,0.188 l -9.546,5.511 c -0.673,0.389 -0.903,1.249 -0.515,1.923 0.388,0.674 1.248,0.904 1.922,0.515 L 0.705,2.625 C 1.378,2.237 1.608,1.376 1.22,0.704 0.959,0.251 0.486,0 0,0"
             style="fill:#02a7fc;fill-opacity:1;fill-rule:nonzero;stroke:none"
             id="path422"
             inkscape:connector-curvature="0" /></g><g
           id="g424"
           transform="translate(1581.4246,122.4713)"><path
             d="m 0,0 h -11.021 c -0.777,0 -1.407,0.629 -1.407,1.407 0,0.778 0.63,1.407 1.407,1.407 H 0 C 0.777,2.814 1.407,2.185 1.407,1.407 1.407,0.629 0.777,0 0,0"
             style="fill:#02a7fc;fill-opacity:1;fill-rule:nonzero;stroke:none"
             id="path426"
             inkscape:connector-curvature="0" /></g><g
           id="g428"
           transform="translate(1576.8806,98.3019)"><path
             d="m 0,0 c -0.486,0 -0.959,0.253 -1.22,0.704 -0.388,0.673 -0.157,1.533 0.515,1.922 l 9.546,5.51 C 9.515,8.525 10.374,8.292 10.763,7.621 11.151,6.947 10.92,6.087 10.248,5.698 L 0.702,0.188 C 0.48,0.061 0.239,0 0,0"
             style="fill:#02a7fc;fill-opacity:1;fill-rule:nonzero;stroke:none"
             id="path430"
             inkscape:connector-curvature="0" /></g><g
           id="g432"
           transform="translate(1594.572,80.609)"><path
             d="M 0,0 C -0.238,0 -0.48,0.06 -0.702,0.188 -1.375,0.577 -1.605,1.437 -1.217,2.11 l 5.51,9.544 c 0.388,0.674 1.25,0.906 1.922,0.515 0.674,-0.388 0.904,-1.249 0.516,-1.922 L 1.22,0.703 C 0.959,0.251 0.486,0 0,0"
             style="fill:#02a7fc;fill-opacity:1;fill-rule:nonzero;stroke:none"
             id="path434"
             inkscape:connector-curvature="0" /></g><g
           id="g436"
           transform="translate(1618.7434,74.1315)"><path
             d="m 0,0 c -0.777,0 -1.407,0.629 -1.407,1.407 v 11.021 c 0,0.778 0.63,1.407 1.407,1.407 0.777,0 1.407,-0.629 1.407,-1.407 V 1.407 C 1.407,0.629 0.777,0 0,0"
             style="fill:#02a7fc;fill-opacity:1;fill-rule:nonzero;stroke:none"
             id="path438"
             inkscape:connector-curvature="0" /></g><g
           id="g440"
           transform="translate(1642.9153,80.609)"><path
             d="m 0,0 c -0.487,0 -0.959,0.251 -1.22,0.703 l -5.511,9.544 c -0.389,0.673 -0.159,1.534 0.515,1.922 0.672,0.391 1.533,0.159 1.922,-0.515 L 1.217,2.11 C 1.605,1.437 1.375,0.577 0.702,0.188 0.48,0.06 0.238,0 0,0"
             style="fill:#02a7fc;fill-opacity:1;fill-rule:nonzero;stroke:none"
             id="path442"
             inkscape:connector-curvature="0" /></g><g
           id="g444"
           transform="translate(1660.6057,98.3019)"><path
             d="m 0,0 c -0.238,0 -0.48,0.061 -0.702,0.188 l -9.545,5.51 c -0.672,0.389 -0.903,1.249 -0.515,1.923 0.388,0.671 1.247,0.904 1.922,0.515 L 0.705,2.626 C 1.377,2.237 1.608,1.377 1.22,0.704 0.959,0.253 0.486,0 0,0"
             style="fill:#02a7fc;fill-opacity:1;fill-rule:nonzero;stroke:none"
             id="path446"
             inkscape:connector-curvature="0" /></g><g
           id="g448"
           transform="translate(1667.0833,122.4713)"><path
             d="m 0,0 h -11.021 c -0.777,0 -1.408,0.629 -1.408,1.407 0,0.778 0.631,1.407 1.408,1.407 H 0 C 0.777,2.814 1.407,2.185 1.407,1.407 1.407,0.629 0.777,0 0,0"
             style="fill:#02a7fc;fill-opacity:1;fill-rule:nonzero;stroke:none"
             id="path450"
             inkscape:connector-curvature="0" /></g><g
           id="g452"
           transform="translate(1651.0637,141.1305)"><path
             d="m 0,0 c -0.486,0 -0.959,0.251 -1.22,0.704 -0.388,0.672 -0.158,1.533 0.515,1.921 L 8.84,8.137 C 9.512,8.526 10.372,8.296 10.762,7.622 11.15,6.948 10.92,6.088 10.247,5.699 L 0.702,0.188 C 0.481,0.061 0.238,0 0,0"
             style="fill:#02a7fc;fill-opacity:1;fill-rule:nonzero;stroke:none"
             id="path454"
             inkscape:connector-curvature="0" /></g><g
           id="g456"
           transform="translate(1637.4011,154.7911)"><path
             d="M 0,0 C -0.238,0 -0.481,0.06 -0.702,0.188 -1.375,0.577 -1.605,1.437 -1.217,2.11 l 5.511,9.544 c 0.388,0.675 1.249,0.905 1.922,0.515 C 6.889,11.781 7.12,10.92 6.731,10.247 L 1.22,0.703 C 0.959,0.251 0.486,0 0,0"
             style="fill:#02a7fc;fill-opacity:1;fill-rule:nonzero;stroke:none"
             id="path458"
             inkscape:connector-curvature="0" /></g><g
           id="g460"
           transform="translate(276.3997,143.6056)"><path
             d="m 0,0 c -38.792,0 -70.352,31.56 -70.352,70.353 0,38.791 31.56,70.351 70.352,70.351 4.077,0 8.179,-0.358 12.194,-1.063 0.765,-0.135 1.277,-0.865 1.142,-1.63 -0.134,-0.765 -0.86,-1.268 -1.629,-1.143 -3.854,0.678 -7.794,1.022 -11.707,1.022 -37.241,0 -67.538,-30.297 -67.538,-67.537 0,-37.242 30.297,-67.539 67.538,-67.539 32.722,0 60.677,23.375 66.471,55.579 0.138,0.766 0.862,1.275 1.634,1.137 0.765,-0.138 1.273,-0.87 1.136,-1.634 C 63.206,24.349 34.086,0 0,0"
             style="fill:#02a7fc;fill-opacity:1;fill-rule:nonzero;stroke:none"
             id="path462"
             inkscape:connector-curvature="0" /></g><g
           id="g464"
           transform="translate(345.3445,212.5514)"><path
             d="m 0,0 c -0.777,0 -1.407,0.629 -1.407,1.407 0,13.382 -3.924,26.339 -11.349,37.472 -7.424,11.133 -17.879,19.737 -30.233,24.88 -0.717,0.298 -1.056,1.121 -0.759,1.84 0.3,0.717 1.124,1.058 1.84,0.756 12.869,-5.356 23.76,-14.318 31.494,-25.915 C -2.681,28.843 1.407,15.346 1.407,1.407 1.407,0.629 0.777,0 0,0"
             style="fill:#02a7fc;fill-opacity:1;fill-rule:nonzero;stroke:none"
             id="path466"
             inkscape:connector-curvature="0" /></g><g
           id="g468"
           transform="translate(281.3426,155.6666)"><path
             d="m 0,0 c -0.722,0 -1.337,0.552 -1.4,1.285 -0.067,0.775 0.505,1.456 1.28,1.524 28.524,2.48 50.868,26.851 50.868,55.483 0,30.708 -24.983,55.69 -55.691,55.69 -16.456,0 -31.977,-7.216 -42.583,-19.799 -0.501,-0.594 -1.389,-0.67 -1.983,-0.169 -0.594,0.501 -0.67,1.389 -0.169,1.982 11.142,13.218 27.447,20.8 44.735,20.8 32.26,0 58.505,-26.245 58.505,-58.504 C 53.562,28.213 30.089,2.611 0.123,0.005 0.082,0.001 0.041,0 0,0"
             style="fill:#02a7fc;fill-opacity:1;fill-rule:nonzero;stroke:none"
             id="path470"
             inkscape:connector-curvature="0" /></g><g
           id="g472"
           transform="translate(266.2923,156.3536)"><path
             d="m 0,0 c -0.083,0 -0.167,0.007 -0.251,0.022 -7.828,1.41 -15.165,4.341 -21.808,8.713 -6.641,4.37 -12.234,9.951 -16.625,16.584 -0.429,0.647 -0.252,1.521 0.397,1.95 0.647,0.43 1.52,0.252 1.95,-0.397 4.179,-6.315 9.504,-11.626 15.826,-15.788 C -14.188,6.922 -7.203,4.133 0.248,2.792 1.013,2.655 1.521,1.922 1.384,1.158 1.261,0.477 0.668,0 0,0"
             style="fill:#02a7fc;fill-opacity:1;fill-rule:nonzero;stroke:none"
             id="path474"
             inkscape:connector-curvature="0" /></g><g
           id="g476"
           transform="translate(222.5188,193.6544)"><path
             d="m 0,0 c -0.582,0 -1.125,0.363 -1.328,0.941 -2.188,6.237 -3.297,12.751 -3.297,19.363 0,9.396 2.3,18.763 6.65,27.09 0.359,0.689 1.208,0.954 1.898,0.597 C 4.612,47.63 4.879,46.78 4.519,46.092 0.378,38.165 -1.811,29.248 -1.811,20.304 -1.811,14.009 -0.754,7.809 1.328,1.873 1.584,1.139 1.199,0.336 0.465,0.08 0.312,0.025 0.154,0 0,0"
             style="fill:#02a7fc;fill-opacity:1;fill-rule:nonzero;stroke:none"
             id="path478"
             inkscape:connector-curvature="0" /></g><g
           id="g480"
           transform="translate(276.3997,170.7809)"><path
             d="m 0,0 c -23.808,0 -43.177,19.37 -43.177,43.177 0,23.808 19.369,43.177 43.177,43.177 18.791,0 35.301,-12.014 41.082,-29.893 0.239,-0.739 -0.167,-1.531 -0.906,-1.771 -0.739,-0.239 -1.533,0.168 -1.772,0.906 C 33,72.31 17.566,83.54 0,83.54 -22.256,83.54 -40.363,65.433 -40.363,43.177 -40.363,20.921 -22.256,2.814 0,2.814 c 22.256,0 40.362,18.107 40.362,40.363 0,0.778 0.631,1.407 1.408,1.407 0.776,0 1.406,-0.629 1.406,-1.407 C 43.176,19.37 23.808,0 0,0"
             style="fill:#02a7fc;fill-opacity:1;fill-rule:nonzero;stroke:none"
             id="path482"
             inkscape:connector-curvature="0" /></g><g
           id="g484"
           transform="translate(276.3997,183.6788)"><path
             d="m 0,0 c -16.103,0 -29.676,13.092 -30.26,29.183 -0.028,0.776 0.58,1.429 1.356,1.457 0.776,0.053 1.429,-0.578 1.457,-1.355 C -26.918,14.688 -14.605,2.814 0,2.814 c 15.145,0 27.465,12.321 27.465,27.465 0,15.144 -12.32,27.465 -27.465,27.465 -9.768,0 -18.875,-5.251 -23.77,-13.703 -0.388,-0.674 -1.249,-0.903 -1.921,-0.513 -0.673,0.389 -0.903,1.25 -0.513,1.922 5.395,9.319 15.435,15.108 26.204,15.108 16.696,0 30.279,-13.583 30.279,-30.279 C 30.279,13.583 16.696,0 0,0"
             style="fill:#02a7fc;fill-opacity:1;fill-rule:nonzero;stroke:none"
             id="path486"
             inkscape:connector-curvature="0" /></g><g
           id="g488"
           transform="translate(275.8548,197.5455)"><path
             d="m 0,0 c -9.108,0 -16.519,7.41 -16.519,16.52 0,9.108 7.411,16.519 16.519,16.519 3.794,0 7.503,-1.321 10.443,-3.72 0.602,-0.49 0.692,-1.377 0.201,-1.979 -0.491,-0.601 -1.376,-0.696 -1.98,-0.2 -2.439,1.989 -5.516,3.085 -8.664,3.085 -7.557,0 -13.705,-6.148 -13.705,-13.705 0,-7.557 6.148,-13.706 13.705,-13.706 7.557,0 13.705,6.149 13.705,13.706 0,0.738 -0.059,1.479 -0.178,2.201 -0.126,0.767 0.394,1.489 1.161,1.616 0.774,0.12 1.491,-0.396 1.616,-1.162 0.143,-0.872 0.215,-1.766 0.215,-2.655 C 16.519,7.41 9.108,0 0,0"
             style="fill:#02a7fc;fill-opacity:1;fill-rule:nonzero;stroke:none"
             id="path490"
             inkscape:connector-curvature="0" /></g><g
           id="g492"
           transform="translate(234.6311,215.2789)"><path
             d="M 0,0 C -0.032,0 -0.064,0.001 -0.097,0.002 L -15.3,1.045 c -0.775,0.054 -1.361,0.726 -1.307,1.501 0.053,0.775 0.72,1.347 1.5,1.308 L 0.095,2.811 C 0.871,2.757 1.456,2.085 1.402,1.311 1.352,0.569 0.733,0 0,0"
             style="fill:#02a7fc;fill-opacity:1;fill-rule:nonzero;stroke:none"
             id="path494"
             inkscape:connector-curvature="0" /></g><g
           id="g496"
           transform="translate(292.1907,251.2042)"><path
             d="m 0,0 c -0.207,0 -0.417,0.045 -0.616,0.143 -0.698,0.34 -0.988,1.183 -0.647,1.881 l 6.721,13.763 c 0.34,0.7 1.178,0.991 1.882,0.648 0.698,-0.341 0.988,-1.184 0.646,-1.882 L 1.265,0.79 C 1.021,0.29 0.521,0 0,0"
             style="fill:#02a7fc;fill-opacity:1;fill-rule:nonzero;stroke:none"
             id="path498"
             inkscape:connector-curvature="0" /></g><g
           id="g500"
           transform="translate(240.6394,153.7223)"><path
             d="m 0,0 c -0.229,0 -0.462,0.057 -0.678,0.175 -0.68,0.375 -0.928,1.231 -0.553,1.911 l 5.674,10.302 c 0.375,0.682 1.232,0.928 1.911,0.554 0.681,-0.375 0.929,-1.231 0.554,-1.911 L 1.234,0.729 C 0.978,0.263 0.496,0 0,0"
             style="fill:#02a7fc;fill-opacity:1;fill-rule:nonzero;stroke:none"
             id="path502"
             inkscape:connector-curvature="0" /></g><g
           id="g504"
           transform="translate(339.7332,185.34)"><path
             d="M 0,0 C -0.201,0 -0.403,0.043 -0.596,0.133 L -11.36,5.18 c -0.704,0.33 -1.006,1.168 -0.677,1.872 0.33,0.703 1.168,1.006 1.871,0.676 L 0.598,2.681 C 1.302,2.351 1.604,1.513 1.274,0.81 1.035,0.3 0.528,0 0,0"
             style="fill:#02a7fc;fill-opacity:1;fill-rule:nonzero;stroke:none"
             id="path506"
             inkscape:connector-curvature="0" /></g><g
           id="g508"
           transform="translate(311.5579,257.4034)"><path
             d="M 0,0 C -0.306,0 -0.613,0.099 -0.872,0.304 -1.481,0.785 -1.585,1.669 -1.103,2.28 l 7.411,9.379 c 0.481,0.61 1.367,0.713 1.976,0.231 0.61,-0.481 0.713,-1.366 0.232,-1.976 L 1.105,0.535 C 0.827,0.183 0.416,0 0,0"
             style="fill:#02a7fc;fill-opacity:1;fill-rule:nonzero;stroke:none"
             id="path510"
             inkscape:connector-curvature="0" /></g><g
           id="g512"
           transform="translate(262.594,238.9904)"><path
             d="m 0,0 c -0.472,0 -0.932,0.236 -1.198,0.667 l -6.258,10.131 c -0.408,0.661 -0.204,1.528 0.458,1.936 0.66,0.41 1.529,0.205 1.936,-0.457 L 1.195,2.146 C 1.604,1.485 1.399,0.618 0.738,0.21 0.508,0.067 0.252,0 0,0"
             style="fill:#02a7fc;fill-opacity:1;fill-rule:nonzero;stroke:none"
             id="path514"
             inkscape:connector-curvature="0" /></g><g
           id="g516"
           transform="translate(264.5989,186.2345)"><path
             d="m 0,0 c -0.235,0 -0.474,0.059 -0.693,0.183 -0.676,0.383 -0.912,1.242 -0.529,1.918 l 6.801,11.99 c 0.382,0.677 1.239,0.912 1.917,0.53 0.676,-0.383 0.913,-1.242 0.529,-1.918 L 1.225,0.713 C 0.966,0.256 0.49,0 0,0"
             style="fill:#02a7fc;fill-opacity:1;fill-rule:nonzero;stroke:none"
             id="path518"
             inkscape:connector-curvature="0" /></g><g
           id="g520"
           transform="translate(280.2293,211.6637)"><path
             d="m 0,0 c -1.327,-2.416 -4.36,-3.299 -6.776,-1.973 -2.415,1.327 -3.299,4.36 -1.973,6.776 1.327,2.416 4.36,3.299 6.776,1.972 C 0.443,5.449 1.326,2.416 0,0"
             style="fill:#ffce40;fill-opacity:1;fill-rule:nonzero;stroke:none"
             id="path522"
             inkscape:connector-curvature="0" /></g><g
           id="g524"
           transform="translate(328.8684,221.9449)"><path
             d="m 0,0 c 0.848,-2.622 -0.59,-5.436 -3.212,-6.284 -2.622,-0.848 -5.435,0.59 -6.284,3.212 -0.848,2.622 0.59,5.436 3.212,6.284 C -3.662,4.06 -0.848,2.622 0,0"
             style="fill:#0078ef;fill-opacity:1;fill-rule:nonzero;stroke:none"
             id="path526"
             inkscape:connector-curvature="0" /></g><g
           id="g528"
           transform="translate(600.9822,277.129)"><path
             d="M 0,0 C -1.436,0 -2.604,-1.168 -2.604,-2.604 V -64.22 c 0,-1.435 1.168,-2.603 2.604,-2.603 h 84.42 c 1.435,0 2.603,1.168 2.603,2.603 V -2.604 C 87.023,-1.168 85.855,0 84.42,0 Z M 84.42,-69.637 H 0 c -2.987,0 -5.418,2.429 -5.418,5.417 v 61.616 c 0,2.987 2.431,5.418 5.418,5.418 h 84.42 c 2.987,0 5.417,-2.431 5.417,-5.418 V -64.22 c 0,-2.988 -2.43,-5.417 -5.417,-5.417"
             style="fill:#02a7fc;fill-opacity:1;fill-rule:nonzero;stroke:none"
             id="path530"
             inkscape:connector-curvature="0" /></g><g
           id="g532"
           transform="translate(712.1111,181.3639)"><path
             d="m 0,0 h -137.534 c -0.562,0 -1.07,0.333 -1.292,0.849 -0.222,0.515 -0.117,1.114 0.268,1.523 l 24.622,26.128 c 0.533,0.566 1.424,0.593 1.989,0.059 0.566,-0.533 0.592,-1.424 0.059,-1.988 L -134.275,2.814 H -3.259 l -22.387,23.757 c -0.533,0.564 -0.507,1.455 0.058,1.988 0.566,0.534 1.457,0.507 1.989,-0.059 L 1.023,2.372 C 1.409,1.963 1.514,1.364 1.292,0.849 1.069,0.333 0.561,0 0,0"
             style="fill:#02a7fc;fill-opacity:1;fill-rule:nonzero;stroke:none"
             id="path534"
             inkscape:connector-curvature="0" /></g><g
           id="g536"
           transform="translate(712.1111,174.9454)"><path
             d="m 0,0 h -137.534 c -0.778,0 -1.407,0.629 -1.407,1.407 0,0.778 0.629,1.407 1.407,1.407 H 0 C 0.777,2.814 1.407,2.185 1.407,1.407 1.407,0.629 0.777,0 0,0"
             style="fill:#02a7fc;fill-opacity:1;fill-rule:nonzero;stroke:none"
             id="path538"
             inkscape:connector-curvature="0" /></g><g
           id="g540"
           transform="translate(681.2313,212.9445)"><path
             d="m 0,0 h -77.913 c -0.776,0 -1.407,0.629 -1.407,1.407 0,0.778 0.631,1.407 1.407,1.407 H 0 C 0.777,2.814 1.407,2.185 1.407,1.407 1.407,0.629 0.777,0 0,0"
             style="fill:#02a7fc;fill-opacity:1;fill-rule:nonzero;stroke:none"
             id="path542"
             inkscape:connector-curvature="0" /></g><g
           id="g544"
           transform="translate(627.5281,192.3668)"><path
             d="m 0,0 h 28.422 l -3.65,8.059 H 3.823 Z M 30.604,-2.814 H -2.225 c -0.483,0 -0.932,0.248 -1.19,0.655 -0.257,0.407 -0.288,0.92 -0.081,1.355 l 5.159,10.873 c 0.233,0.491 0.727,0.804 1.271,0.804 H 25.68 c 0.552,0 1.054,-0.323 1.282,-0.828 l 4.924,-10.872 c 0.197,-0.434 0.16,-0.941 -0.099,-1.342 -0.259,-0.402 -0.704,-0.645 -1.183,-0.645"
             style="fill:#02a7fc;fill-opacity:1;fill-rule:nonzero;stroke:none"
             id="path546"
             inkscape:connector-curvature="0" /></g><g
           id="g548"
           transform="translate(615.2684,260.2399)"><path
             d="m 0,0 c -1.327,-2.416 -4.36,-3.299 -6.776,-1.973 -2.415,1.327 -3.299,4.36 -1.973,6.776 1.327,2.416 4.36,3.299 6.776,1.972 C 0.443,5.449 1.326,2.416 0,0"
             style="fill:#ffce40;fill-opacity:1;fill-rule:nonzero;stroke:none"
             id="path550"
             inkscape:connector-curvature="0" /></g><g
           id="g552"
           transform="translate(615.2684,246.5802)"><path
             d="m 0,0 c -1.327,-2.416 -4.36,-3.299 -6.776,-1.973 -2.415,1.327 -3.299,4.36 -1.973,6.776 1.327,2.416 4.36,3.299 6.776,1.973 C 0.443,5.45 1.326,2.416 0,0"
             style="fill:#ffce40;fill-opacity:1;fill-rule:nonzero;stroke:none"
             id="path554"
             inkscape:connector-curvature="0" /></g><g
           id="g556"
           transform="translate(615.2684,233.5992)"><path
             d="m 0,0 c -1.327,-2.416 -4.36,-3.299 -6.776,-1.973 -2.415,1.327 -3.299,4.36 -1.973,6.776 1.327,2.416 4.36,3.299 6.776,1.972 C 0.443,5.449 1.326,2.416 0,0"
             style="fill:#ffce40;fill-opacity:1;fill-rule:nonzero;stroke:none"
             id="path558"
             inkscape:connector-curvature="0" /></g><g
           id="g560"
           transform="translate(647.1116,261.2345)"><path
             d="m 0,0 h -22.161 c -0.776,0 -1.406,0.629 -1.406,1.407 0,0.778 0.63,1.407 1.406,1.407 H 0 C 0.777,2.814 1.407,2.185 1.407,1.407 1.407,0.629 0.777,0 0,0"
             style="fill:#02a7fc;fill-opacity:1;fill-rule:nonzero;stroke:none"
             id="path562"
             inkscape:connector-curvature="0" /></g><g
           id="g564"
           transform="translate(647.1116,254.1993)"><path
             d="m 0,0 h -22.161 c -0.776,0 -1.406,0.629 -1.406,1.407 0,0.778 0.63,1.407 1.406,1.407 H 0 C 0.777,2.814 1.407,2.185 1.407,1.407 1.407,0.629 0.777,0 0,0"
             style="fill:#02a7fc;fill-opacity:1;fill-rule:nonzero;stroke:none"
             id="path566"
             inkscape:connector-curvature="0" /></g><g
           id="g568"
           transform="translate(647.1116,247.1642)"><path
             d="m 0,0 h -22.161 c -0.776,0 -1.406,0.629 -1.406,1.407 0,0.778 0.63,1.407 1.406,1.407 H 0 C 0.777,2.814 1.407,2.185 1.407,1.407 1.407,0.629 0.777,0 0,0"
             style="fill:#02a7fc;fill-opacity:1;fill-rule:nonzero;stroke:none"
             id="path570"
             inkscape:connector-curvature="0" /></g><g
           id="g572"
           transform="translate(647.1116,240.6061)"><path
             d="m 0,0 h -22.161 c -0.776,0 -1.406,0.629 -1.406,1.407 0,0.778 0.63,1.407 1.406,1.407 H 0 C 0.777,2.814 1.407,2.185 1.407,1.407 1.407,0.629 0.777,0 0,0"
             style="fill:#02a7fc;fill-opacity:1;fill-rule:nonzero;stroke:none"
             id="path574"
             inkscape:connector-curvature="0" /></g><g
           id="g576"
           transform="translate(647.1116,233.5709)"><path
             d="m 0,0 h -22.161 c -0.776,0 -1.406,0.629 -1.406,1.407 0,0.778 0.63,1.407 1.406,1.407 H 0 C 0.777,2.814 1.407,2.185 1.407,1.407 1.407,0.629 0.777,0 0,0"
             style="fill:#02a7fc;fill-opacity:1;fill-rule:nonzero;stroke:none"
             id="path578"
             inkscape:connector-curvature="0" /></g><g
           id="g580"
           transform="translate(676.8343,261.2345)"><path
             d="m 0,0 h -22.16 c -0.777,0 -1.407,0.629 -1.407,1.407 0,0.778 0.63,1.407 1.407,1.407 H 0 C 0.777,2.814 1.407,2.185 1.407,1.407 1.407,0.629 0.777,0 0,0"
             style="fill:#02a7fc;fill-opacity:1;fill-rule:nonzero;stroke:none"
             id="path582"
             inkscape:connector-curvature="0" /></g><g
           id="g584"
           transform="translate(676.8343,254.1993)"><path
             d="m 0,0 h -22.16 c -0.777,0 -1.407,0.629 -1.407,1.407 0,0.778 0.63,1.407 1.407,1.407 H 0 C 0.777,2.814 1.407,2.185 1.407,1.407 1.407,0.629 0.777,0 0,0"
             style="fill:#02a7fc;fill-opacity:1;fill-rule:nonzero;stroke:none"
             id="path586"
             inkscape:connector-curvature="0" /></g><g
           id="g588"
           transform="translate(676.8343,247.1642)"><path
             d="m 0,0 h -22.16 c -0.777,0 -1.407,0.629 -1.407,1.407 0,0.778 0.63,1.407 1.407,1.407 H 0 C 0.777,2.814 1.407,2.185 1.407,1.407 1.407,0.629 0.777,0 0,0"
             style="fill:#02a7fc;fill-opacity:1;fill-rule:nonzero;stroke:none"
             id="path590"
             inkscape:connector-curvature="0" /></g><g
           id="g592"
           transform="translate(1211.5852,259.0963)"><path
             d="m 0,0 c -0.334,0.134 -0.617,0.396 -0.77,0.753 l -4.417,10.353 c -0.17,0.4 -0.147,0.856 0.064,1.236 0.21,0.379 0.585,0.64 1.015,0.707 L 9.785,15.2 63.921,38.306 60.193,47.04 c -0.305,0.715 0.027,1.541 0.742,1.846 l 8.412,3.591 c 0.214,0.101 5.674,2.832 0.3,15.426 -4.188,9.811 -10.961,8.872 -11.889,8.694 L 41.382,69.608 52.428,43.728 c 0.305,-0.716 -0.027,-1.542 -0.741,-1.847 L 37.452,35.806 c -0.715,-0.306 -1.541,0.027 -1.846,0.741 -0.305,0.715 0.027,1.541 0.742,1.847 l 12.94,5.523 -11.046,25.88 c -0.146,0.344 -0.151,0.73 -0.012,1.078 0.14,0.346 0.411,0.622 0.754,0.769 l 17.793,7.594 c 0.068,0.029 0.14,0.053 0.212,0.07 0.099,0.025 9.867,2.301 15.246,-10.301 2.672,-6.259 3.266,-11.322 1.769,-15.05 -1.203,-2.994 -3.316,-3.968 -3.553,-4.068 l -7.118,-3.038 3.729,-8.735 c 0.146,-0.343 0.15,-0.73 0.011,-1.076 -0.139,-0.347 -0.41,-0.623 -0.753,-0.77 L 10.727,12.543 C 10.619,12.498 10.505,12.464 10.389,12.446 L -1.889,10.545 1.818,1.857 C 2.124,1.143 1.792,0.316 1.077,0.011 0.719,-0.141 0.334,-0.134 0,0"
             style="fill:#ffd662;fill-opacity:1;fill-rule:nonzero;stroke:none"
             id="path594"
             inkscape:connector-curvature="0" /></g><g
           id="g596"
           transform="translate(1144.28,281.8571)"><path
             d="m 0,0 -9.042,-19.363 19.311,-4.859 98.56,42.063 -10.327,24.198 z m -11.563,-21.617 c -0.326,0.131 -0.593,0.38 -0.747,0.701 -0.18,0.379 -0.181,0.819 -0.003,1.2 l 9.991,21.394 c 0.147,0.314 0.404,0.563 0.722,0.699 L 98.691,45.179 c 0.715,0.305 1.541,-0.027 1.847,-0.742 l 11.431,-26.785 c 0.147,-0.343 0.151,-0.73 0.012,-1.077 -0.139,-0.346 -0.41,-0.623 -0.753,-0.769 L 10.937,-26.996 c -0.283,-0.121 -0.598,-0.145 -0.896,-0.071 l -21.423,5.39 c -0.062,0.016 -0.122,0.036 -0.181,0.06"
             style="fill:#02a7fc;fill-opacity:1;fill-rule:nonzero;stroke:none"
             id="path598"
             inkscape:connector-curvature="0" /></g><g
           id="g600"
           transform="translate(1244.4016,293.3722)"><path
             d="m 0,0 c -0.334,0.134 -0.617,0.396 -0.77,0.753 l -11.431,26.785 c -0.305,0.715 0.027,1.541 0.742,1.846 0.715,0.305 1.541,-0.027 1.846,-0.741 L 1.818,1.857 C 2.124,1.143 1.792,0.316 1.077,0.011 0.719,-0.141 0.334,-0.134 0,0"
             style="fill:#02a7fc;fill-opacity:1;fill-rule:nonzero;stroke:none"
             id="path602"
             inkscape:connector-curvature="0" /></g><g
           id="g604"
           transform="translate(1154.176,278.9591)"><path
             d="m 0,0 c -0.334,0.134 -0.617,0.396 -0.769,0.753 -0.305,0.715 0.027,1.541 0.742,1.847 l 73.121,31.207 c 0.715,0.305 1.541,-0.027 1.846,-0.742 0.306,-0.715 -0.026,-1.541 -0.741,-1.846 L 1.077,0.012 C 0.72,-0.141 0.334,-0.134 0,0"
             style="fill:#02a7fc;fill-opacity:1;fill-rule:nonzero;stroke:none"
             id="path606"
             inkscape:connector-curvature="0" /></g><g
           id="g608"
           transform="translate(1140.6863,258.2345)"><path
             d="m 0,0 c -0.334,0.134 -0.617,0.396 -0.769,0.753 l -4.253,9.964 c -0.305,0.715 0.027,1.541 0.742,1.846 0.715,0.306 1.541,-0.026 1.846,-0.741 L 1.819,1.858 C 2.124,1.143 1.792,0.317 1.077,0.012 0.719,-0.141 0.334,-0.134 0,0"
             style="fill:#02a7fc;fill-opacity:1;fill-rule:nonzero;stroke:none"
             id="path610"
             inkscape:connector-curvature="0" /></g></g></g></g></svg>