<?xml version="1.0" encoding="UTF-8" standalone="no"?>
<svg
   xmlns:dc="http://purl.org/dc/elements/1.1/"
   xmlns:cc="http://creativecommons.org/ns#"
   xmlns:rdf="http://www.w3.org/1999/02/22-rdf-syntax-ns#"
   xmlns:svg="http://www.w3.org/2000/svg"
   xmlns="http://www.w3.org/2000/svg"
   xmlns:sodipodi="http://sodipodi.sourceforge.net/DTD/sodipodi-0.dtd"
   xmlns:inkscape="http://www.inkscape.org/namespaces/inkscape"
   id="Layer_1"
   data-name="Layer 1"
   viewBox="0 0 291.71 296.35"
   version="1.1"
   sodipodi:docname="bioinformatika.svg"
   inkscape:version="1.0.2 (e86c870879, 2021-01-15)">
  <metadata
     id="metadata55">
    <rdf:RDF>
      <cc:Work
         rdf:about="">
        <dc:format>image/svg+xml</dc:format>
        <dc:type
           rdf:resource="http://purl.org/dc/dcmitype/StillImage" />
      </cc:Work>
    </rdf:RDF>
  </metadata>
  <defs
     id="defs53" />
  <sodipodi:namedview
     pagecolor="#ffffff"
     bordercolor="#666666"
     borderopacity="1"
     objecttolerance="10"
     gridtolerance="10"
     guidetolerance="10"
     inkscape:pageopacity="0"
     inkscape:pageshadow="2"
     inkscape:window-width="960"
     inkscape:window-height="1062"
     id="namedview51"
     showgrid="false"
     inkscape:zoom="2.146111"
     inkscape:cx="177.95686"
     inkscape:cy="169.47982"
     inkscape:window-x="960"
     inkscape:window-y="0"
     inkscape:window-maximized="0"
     inkscape:current-layer="Layer_1" />
  <path
     d="M181.57,239.97v-9.09c.67-.08,1.3-.22,1.93-.22,15.88,0,31.76,.03,47.64-.03,2.83-.01,4.71,1.03,6.44,3.34,1.75,2.33,4.23,4.11,6.33,6.19,.99,.97,1.8,2.12,2.77,3.1,3.52,3.56,7.16,7,10.57,10.66,1.69,1.82,3.54,2.19,5.59,1.31,4.69-2.01,9.42-1.64,14.14-.41,11.98,3.11,17.53,17.73,13.1,28.13-4.88,11.44-17.5,15.42-26.13,12.4-8.54-2.98-15.49-11.38-14.64-20.91,.27-3.07,1.25-6.12,2.22-9.08,.55-1.68,.67-2.85-.71-4.21-6.66-6.54-13.18-13.23-19.9-19.71-.92-.88-2.63-1.31-3.98-1.31-14.38-.09-28.77-.04-43.15-.04-.66,0-1.31-.06-2.22-.1Zm88.7,23.74c-7.83,.01-10.8,4.72-11.2,11.19-.39,6.24,5.22,11.53,11.49,11.55,5.96,.02,11.63-6.14,11.2-11.58-.51-6.41-3.95-11.38-11.49-11.16Z"
     id="path2"
     style="stroke:none;stroke-opacity:1;fill:#7594f9;fill-opacity:1" />
  <path
     d="M110.25,240.08c-1.66,0-2.98,0-4.3,0-13.89,0-27.78-.04-41.68,.06-1.25,0-2.82,.54-3.7,1.4-6.88,6.73-13.65,13.59-20.37,20.48-.49,.5-.8,1.84-.48,2.37,4.1,6.83,3.84,13.62,.28,20.57-4.88,9.53-16.39,13.43-24.85,10.37-5.65-2.05-10.32-5.36-12.94-11.1-2.54-5.57-2.86-11.2-.78-16.92,3.97-10.93,16.26-16.33,25.9-12.46,4.36,1.75,6.32,.07,8.77-2.52,2.17-2.31,4.47-4.51,6.67-6.79,3.94-4.08,7.91-8.14,11.76-12.29,1.63-1.75,3.38-2.64,5.86-2.63,15.72,.08,31.44,.07,47.17,0,1.98,0,2.91,.41,2.72,2.59-.18,2.13-.04,4.3-.04,6.87Zm-88.94,46.31c6.16,.37,11.79-5.79,11.43-11.54-.38-6.05-3.76-11.28-11.25-11.18-7.67,.1-10.81,3.9-11.42,11.11-.52,6.1,4.97,11.74,11.24,11.61Z"
     id="path4"
     style="stroke:none;stroke-opacity:1;fill:#7594f9;fill-opacity:1" />
  <path
     d="M110.24,65.63c-1.04,.05-1.77,.13-2.5,.13-15.81,0-31.62-.08-47.42,.08-2.81,.03-4.46-1.3-6.15-3.06-2.15-2.23-4.36-4.41-6.5-6.64-1.25-1.3-2.37-2.72-3.64-4-3.56-3.63-7.22-7.15-10.71-10.85-1.07-1.13-2.02-1.27-3.28-.67-5.9,2.83-11.57,2.26-17.69,.03C2.8,37.16-1.71,24.69,.59,16.41,4.74,1.46,22.15-5.57,35.04,5.22c7.24,6.06,9.78,16.59,5.74,24.97-.28,.58-.82,1.09-.95,1.69-.15,.72-.29,1.82,.11,2.22,6.97,7.11,13.99,14.18,21.13,21.12,.86,.84,2.53,1.16,3.83,1.17,14.23,.08,28.45,.1,42.68,.02,2.07-.01,2.84,.57,2.69,2.65-.15,2.13-.03,4.28-.03,6.56ZM32.57,21.42c.22-6.6-5.89-11.71-11.65-11.44-6.74,.32-11.7,6.54-10.85,12.21,1.08,7.22,4.23,10.75,12.27,10.6,7.09-.13,10.56-6.94,10.24-11.37Z"
     id="path6"
     style="stroke:none;stroke-opacity:1;fill:#7594f9;fill-opacity:1" />
  <path
     d="M181.6,65.59v-9.16c2.16,0,4.2,0,6.24,0,13.05,0,26.11-.01,39.16,.04,1.78,0,3.06-.49,4.36-1.81,6.58-6.72,13.31-13.3,19.91-20.01,.58-.59,1.04-2.09,.7-2.66-4.41-7.44-3.84-14.76,.51-21.87,5.19-8.48,16.27-12.29,25.03-8.84,12.09,4.76,17.58,18.43,12.02,29.33-1.78,3.49-3.8,6.95-7.56,8.9-5.82,3.02-12.11,4.73-18.12,1.98-4.06-1.86-5.65-.03-7.81,2.26-3.79,4.01-7.59,8.02-11.43,11.98-2.87,2.96-5.78,5.89-8.79,8.7-.77,.72-2.03,1.27-3.07,1.28-16.71,.07-33.42,.05-50.13,.04-.24,0-.49-.07-1.01-.16Zm100.18-44.29c.26-5.01-4.97-11.52-11.44-11.32-6.87,.21-11.66,5.58-11.25,11.68,.45,6.67,3.59,11.09,11.47,11.16,7.35,.06,10.86-5.39,11.22-11.52Z"
     id="path8"
     style="stroke:none;stroke-opacity:1;fill:#7594f9;fill-opacity:1" />
  <path
     d="M110.24,193.34c-1.21,0-2.1,0-2.99,0-14.06-.01-28.12,0-42.18-.08-1.89,0-2.58,.45-3.41,2.43-2.3,5.5-6.03,10-11.84,12.28-11.26,4.42-22.7,.16-28.14-10.69-.97-1.93-1.23-4.31-1.41-6.52-.49-5.88,.57-11.41,4.47-16.1,6.34-7.63,18.48-9.83,26.97-4.72,4.6,2.77,8.27,6.55,10.04,11.74,.58,1.71,1.48,1.84,2.92,1.84,14.14-.04,28.29,.03,42.43-.1,2.55-.02,3.44,.68,3.19,3.22-.21,2.05-.04,4.15-.04,6.69Zm-57.25-4.72c.03-5.93-5.59-11.59-11.55-11.62-6.09-.04-11.6,5.35-11.66,11.38-.07,6.91,4.8,11.25,11.44,11.51,6.38,.25,11.74-5.04,11.77-11.27Z"
     id="path10"
     style="stroke:none;stroke-opacity:1;fill:#7594f9;fill-opacity:1" />
  <path
     d="M181.6,193.3v-9.66c1.06-.05,2.02-.13,2.98-.13,13.81,0,27.62-.08,41.43,.07,2.5,.03,3.79-.74,4.59-3,1.62-4.54,4.87-7.79,8.85-10.29,7.22-4.55,16.83-4.15,24.13,1.63,7.98,6.31,8.84,14.2,6.85,23.15-2.63,11.84-17.39,16.96-26.4,13.7-6.93-2.51-11.58-7-14.12-13.79-.49-1.3-1.19-1.68-2.59-1.68-14.31,.05-28.62,0-42.93,0-.89,0-1.78,0-2.8,0Zm80.46-4.68c-.01-5.99-5.56-11.49-11.55-11.67-5.36-.17-12.17,5.32-11.77,11.75,.39,6.27,4.55,11.3,11.87,11.13,6.58-.15,11.14-4.28,11.45-11.21Z"
     id="path12"
     style="stroke:none;stroke-opacity:1;fill:#7594f9;fill-opacity:1" />
  <path
     d="M181.61,112.84v-9.78c.93-.05,1.88-.14,2.83-.14,14.22-.02,28.44-.07,42.66,.02,1.78,.01,2.46-.67,3.05-2.15,4.24-10.62,14.44-15.99,25.19-13.54,8.2,1.87,15.6,8.59,15.92,18.26,.19,5.69-.22,11.15-4.13,15.67-7.56,8.75-20.38,11.22-30.14,3.06-3.14-2.62-5.23-5.7-6.81-9.27-.7-1.59-1.59-2.18-3.37-2.17-14.06,.08-28.11,.04-42.17,.04-.91,0-1.81,0-3.05,0Zm68.75,6.51c6.08,.01,11.78-5.5,11.71-11.42-.08-7.02-4.92-11.16-11.55-11.39-6.59-.23-11.56,4.68-11.81,11.47-.22,6.13,6.8,11.71,11.65,11.34Z"
     id="path14"
     style="stroke:none;stroke-opacity:1;fill:#7594f9;fill-opacity:1" />
  <path
     d="M86.08,112.83c-7.15,0-14.3,.02-21.45-.02-1.46,0-2.23,.26-2.89,1.9-3.8,9.4-12.48,15.48-22.73,14.35-3.79-.42-7.19-1.79-10.35-4.27-2.81-2.21-5.25-4.5-6.63-7.76-4.67-11.01-1.17-23.12,9.92-28.17,11.87-5.4,24.03-.74,29.35,11.18,1.14,2.56,2.34,2.94,4.69,2.92,13.88-.08,27.76,0,41.65-.1,2.13-.02,2.83,.62,2.62,2.67-.15,1.48-.15,3,0,4.48,.22,2.14-.47,2.9-2.74,2.86-7.15-.14-14.3-.05-21.45-.05h0Zm-33.09-4.91c-.03-6.59-5.22-11.42-11.61-11.4-6.27,.02-11.74,4.44-11.61,11.27,.12,6.12,5.37,11.45,11.46,11.64,4.67,.15,12.25-5.09,11.75-11.51Z"
     id="path16"
     style="stroke:none;stroke-opacity:1;fill:#7594f9;fill-opacity:1" />
  <path
     d="M137.94,90.68c.31,.11,.4,.12,.46,.17,4.39,3.92,3.88,3.57,.48,8.4-4.05,5.77-8.3,11.45-10.97,18.21-4.83,12.23-6.7,24.76-5.7,37.8,.64,8.34,2.45,16.43,6.06,23.98,2.27,4.74,4.75,9.5,7.92,13.65,7.06,9.23,14.66,18.03,21.94,27.09,6.29,7.83,11.27,16.33,14.41,26,2.71,8.32,3.91,16.78,4.43,25.42,.06,.95,.08,2.26-.48,2.82-.88,.88-2.24,1.71-3.43,1.75-1.51,.05-2.39-1.18-2.46-2.87-.2-4.48-.32-8.98-.77-13.44-.67-6.58-3.07-12.68-5.64-18.71-3.71-8.71-9.62-15.92-15.63-23.06-3.38-4.02-7.2-7.67-10.43-11.8-3.48-4.44-6.6-9.18-9.71-13.9-1.95-2.95-3.99-5.94-5.27-9.2-2.01-5.11-3.78-10.38-4.99-15.73-3.01-13.32-2.84-26.69,.4-40,1.63-6.68,3.48-13.27,7.24-19.1,3.25-5.04,6.8-9.88,10.22-14.81,.61-.87,1.24-1.73,1.92-2.67Z"
     id="path18"
     style="stroke:none;stroke-opacity:1;fill:#7594f9;fill-opacity:1" />
  <path
     d="M154.39,205.73c-1.29-1.64-2.4-3.06-3.5-4.46,2.53-3.57,4.82-7.19,7.5-10.51,3.81-4.73,5.82-10.32,8.04-15.8,5.16-12.72,4.63-26.03,3.55-39.31-.61-7.5-3.49-14.37-6.56-21.23-3.85-8.61-9.95-15.53-15.73-22.72-2.96-3.67-6.61-6.79-9.52-10.5-3.53-4.51-6.81-9.24-9.79-14.12-2.74-4.47-5.53-9.07-7.27-13.97-3.25-9.16-4.99-18.73-5.02-28.52,0-.89-.02-2.03,.48-2.62,.67-.8,1.83-1.59,2.79-1.6,.74,0,1.63,1.11,2.18,1.92,.38,.56,.36,1.43,.38,2.17,.26,10.22,1.85,20.21,6.27,29.5,2.25,4.73,5.09,9.19,7.8,13.69,4.57,7.6,11.04,13.7,16.64,20.48,3.09,3.75,6.75,7.14,9.22,11.26,3.85,6.41,7.95,12.7,10.32,19.98,3.35,10.31,5.19,20.8,4.78,31.58-.36,9.66-2.16,19.04-5.71,28.17-2.03,5.23-4.49,10.08-7.7,14.61-2.66,3.74-5.34,7.47-8.03,11.19-.22,.31-.64,.47-1.11,.8Z"
     id="path20"
     style="stroke:none;stroke-opacity:1;fill:#7594f9;fill-opacity:1" />
  <path
     d="M154.52,80.79c-1.39-1.76-2.54-3.24-3.67-4.67,2.84-3.84,5.91-7.34,8.23-11.28,2.78-4.74,5.12-9.77,7.31-14.81,3.54-8.14,4.16-16.83,4.24-25.58,.02-2.77,1.07-4.16,3.06-4.2,2.03-.04,3.41,1.66,3.29,4.36-.42,10.08-2.22,19.82-5.66,29.42-2.33,6.51-6.24,11.98-9.49,17.87-1.79,3.25-4.75,5.85-7.31,8.9Z"
     id="path22"
     style="stroke:none;stroke-opacity:1;fill:#7594f9;fill-opacity:1" />
  <path
     d="M138.02,215.62c.23,.15,.47,.24,.62,.42,4.06,4.75,4.16,3.07,.22,8.38-4.29,5.78-8.9,11.54-11.03,18.68-1.27,4.27-3.06,8.43-3.95,12.78-1.02,5.02-1.32,10.19-1.91,15.3-.07,.58,.01,1.17-.07,1.74-.24,1.64-.73,3.27-2.76,3.17-2.09-.1-3.2-1.51-3-3.54,.61-6.27,1.01-12.6,2.14-18.78,1.36-7.4,3.59-14.63,7.79-21.01,3.15-4.78,6.52-9.41,9.8-14.1,.7-1,1.41-1.99,2.15-3.03Z"
     id="path24"
     style="stroke:none;stroke-opacity:1;fill:#7594f9;fill-opacity:1" />
  <path
     d="M128.89,30.15v-6.3c.89,0,1.69,0,2.48,0,9.98,0,19.95,.08,29.93-.05,2.45-.03,2.98,.89,2.88,3.07-.09,1.99-.04,3.47-2.85,3.43-10.14-.15-20.29-.06-30.43-.06-.57,0-1.14-.05-2.01-.09Z"
     id="path26"
     style="stroke:none;stroke-opacity:1;fill:#7594f9;fill-opacity:1" />
  <path
     d="M128.75,266.37c1.09-.08,1.9-.2,2.71-.2,9.81-.01,19.61-.03,29.42,.03,1,0,2.74,.28,2.86,.75,.38,1.55,.29,3.25,.11,4.86-.04,.35-1.2,.8-1.85,.81-10.47,.06-20.94,.08-31.41-.01-.62,0-1.63-.97-1.75-1.62-.27-1.43-.08-2.95-.08-4.61Z"
     id="path28"
     style="stroke:none;stroke-opacity:1;fill:#7594f9;fill-opacity:1" />
  <path
     d="M163.17,160.43c-1.87,0-3.68,0-5.49,0-8.55,0-17.11,0-25.66,0-2.71,0-4.45-2.94-2.98-5.18,.3-.45,1.28-.62,1.95-.62,10.13-.04,20.26,0,30.39-.05,2-.01,2.78,.66,2.27,2.67-.24,.95-.31,1.95-.49,3.19Z"
     id="path30"
     style="stroke:none;stroke-opacity:1;fill:#7594f9;fill-opacity:1" />
  <path
     d="M146.15,141.78c-5.07,0-10.15-.02-15.22,.02-1.22,0-2.32-.09-2.06-1.66,.26-1.52-1.02-3.77,1.71-4.23,1.05-.18,2.16-.06,3.24-.06,8.74,0,17.47,0,26.21,0,2.92,0,4.58,2.01,3.66,4.7-.21,.6-1.51,1.15-2.31,1.17-5.07,.11-10.15,.05-15.22,.05h0Z"
     id="path32"
     style="stroke:none;stroke-opacity:1;fill:#7594f9;fill-opacity:1" />
  <path
     d="M146.8,42.64c4.24,0,8.48,.02,12.72,0,2.03-.02,2.55,.65,2.01,2.76-.66,2.58-1.76,3.54-4.57,3.45-7.31-.24-14.63-.08-21.95-.08-2.18,0-4.54-3.12-3.66-5.05,.26-.57,1.45-1,2.22-1.01,4.4-.09,8.81-.05,13.22-.05h0Z"
     id="path34"
     style="stroke:none;stroke-opacity:1;fill:#7594f9;fill-opacity:1" />
  <path
     d="M146.48,253.74c-4.15,0-8.3,.08-12.45-.06-.94-.03-2.68-.89-2.65-1.25,.15-1.7-.05-3.87,2.26-4.44,1.1-.27,2.31-.19,3.46-.19,6.89-.01,13.78-.01,20.66,0,2.31,0,4.6,2.57,3.98,4.71-.17,.58-1.51,1.13-2.33,1.15-4.31,.11-8.63,.05-12.94,.05v.02Z"
     id="path36"
     style="stroke:none;stroke-opacity:1;fill:#7594f9;fill-opacity:1" />
  <path
     d="M146.42,123.42c-3.74,0-7.48-.01-11.22,0-1.75,0-2.42-.48-1.72-2.41,1.42-3.91,1.48-4.01,5.64-4,5.4,.02,10.8,0,16.2-.05,2.22-.02,5.06,3.23,4.45,5.37-.14,.5-1.23,1-1.89,1.02-3.82,.1-7.64,.05-11.47,.05h0Z"
     id="path38"
     style="stroke:none;stroke-opacity:1;fill:#7594f9;fill-opacity:1" />
  <path
     d="M159.9,173.68c-.07,.59-.06,.85-.14,1.08q-1.57,4.44-6.29,4.44c-4.99,0-9.99-.23-14.96,.07-2.97,.18-4.32-.97-4.88-3.63-.12-.55-.38-1.07-.7-1.96h26.96Z"
     id="path40"
     style="stroke:none;stroke-opacity:1;fill:#7594f9;fill-opacity:1" />
  <path
     d="M139.55,61.5c4.56,0,8.48-.03,12.4,.07,.26,0,.86,1.3,.68,1.58-1.21,1.83-2.32,3.81-4.88,4.13-2.83,.36-5.18-.27-6.71-2.86-.4-.69-.73-1.42-1.49-2.92Z"
     id="path42"
     style="stroke:none;stroke-opacity:1;fill:#7594f9;fill-opacity:1" />
  <path
     d="M146.12,235.06c-1.5,0-3.01,.14-4.48-.07-.54-.08-1.35-.97-1.37-1.51-.05-1.32,3.22-4.02,4.58-4.23,3.24-.5,5.8,.35,7.48,3.33,.84,1.49,.59,2.41-1.24,2.48-1.66,.06-3.32,.01-4.98,.01Z"
     id="path44"
     style="stroke:none;stroke-opacity:1;fill:#7594f9;fill-opacity:1" />
  <path
     d="M146.53,100.45c.68,1.06,1.42,2.1,1.96,3.23,.08,.18-.8,1.16-1.23,1.16-.92,0-1.83-.42-2.74-.66,.34-1.17,.68-2.34,1.02-3.51,.33-.07,.67-.15,1-.22Z"
     id="path46"
     style="stroke:none;stroke-opacity:1;fill:#7594f9;fill-opacity:1" />
  <path
     d="M146.68,190.88c.88,.92,1.93,1.75,1.82,1.94-.56,.99-1.41,1.82-2.15,2.7-.67-.83-1.58-1.59-1.87-2.54-.11-.37,1.19-1.17,2.2-2.1Z"
     id="path48"
     style="stroke:none;stroke-opacity:1;fill:#7594f9;fill-opacity:1" />
</svg>
