<svg xmlns="http://www.w3.org/2000/svg" viewBox="0 0 80 80"><defs><style>.cls-1{fill:none;}.cls-1,.cls-2{stroke:#7594f9;stroke-linecap:round;stroke-linejoin:round;stroke-width:4px;}.cls-2,.cls-3{fill:#fff;}.cls-4{fill:#7594f9;}</style></defs><title>mini_ikony2</title><g id="Vrstva_19" data-name="Vrstva 19"><path class="cls-1" d="M46.57,30.34a92.51,92.51,0,0,0-3,21.23c0,10.33,5.38,26.37,5.38,26.37"/><path class="cls-1" d="M35.06,46.25s3.09.51,8.87,10.66"/><path class="cls-2" d="M52.75,68.44s-3.53-10.83,2.74-20.75S73.84,36.88,73.84,36.88,77,48.59,70.93,57,52.75,68.44,52.75,68.44Z"/><path class="cls-3" d="M27.21,46.06a25.94,25.94,0,0,1-11.68-3.18A25.18,25.18,0,0,1,5.9,34.53c-1.82-2.85-2.27-5.48-1.26-7.41s3.79-3.2,7.47-3.2A26.09,26.09,0,0,1,23.8,27.09c8.14,4.27,13.12,11.48,10.88,15.76C33.62,44.89,30.89,46.06,27.21,46.06Z"/><path class="cls-4" d="M12.11,25.92h0a24.11,24.11,0,0,1,10.76,2.94c8.09,4.24,11.35,10.57,10,13.06-.7,1.34-2.83,2.14-5.7,2.14a23.93,23.93,0,0,1-10.75-3C8.37,36.88,5.1,30.55,6.41,28.05c.7-1.33,2.83-2.13,5.7-2.13m0-4c-4.3,0-7.76,1.44-9.24,4.28C.07,31.54,5.33,39.8,14.6,44.66a28,28,0,0,0,12.61,3.4c4.3,0,7.76-1.44,9.25-4.28,2.79-5.34-2.46-13.6-11.74-18.46a27.9,27.9,0,0,0-12.61-3.4Z"/><path class="cls-3" d="M21.29,52.5c-.59,0-1.18,0-1.78,0A25.22,25.22,0,0,1,7.29,48.81C4.45,47,3,44.74,3.09,42.58c.25-4.4,7.27-8,15.65-8,.59,0,1.18,0,1.79,0,9.17.53,16.69,5.05,16.41,9.87C36.69,48.92,29.67,52.5,21.29,52.5Z"/><path class="cls-4" d="M18.74,32.6v4h0c.55,0,1.11,0,1.67,0A23.56,23.56,0,0,1,31.65,40C33.79,41.36,35,43,35,44.4c-.17,2.89-5.82,6.1-13.66,6.1-.55,0-1.11,0-1.67,0A23.67,23.67,0,0,1,8.38,47.14C6.24,45.73,5,44.07,5.08,42.69c.17-2.88,5.82-6.09,13.66-6.09v-4m0,0c-9.59,0-17.33,4.22-17.65,9.86-.34,6,7.85,11.38,18.3,12,.64,0,1.28.06,1.9.06,9.59,0,17.33-4.22,17.65-9.87.34-6-7.85-11.38-18.3-12-.64,0-1.27,0-1.9,0Z"/><path class="cls-3" d="M32.41,49.87c-3.81,0-9.56-4.17-13.18-12.16-3.81-8.36-3.3-17.12,1.09-19.12a4.69,4.69,0,0,1,1.95-.4c3.81,0,9.56,4.17,13.18,12.15a25.38,25.38,0,0,1,2.47,12.51c-.33,3.37-1.59,5.72-3.57,6.61A4.62,4.62,0,0,1,32.41,49.87Z"/><path class="cls-4" d="M22.27,20.19h0c3.13,0,8.24,4.1,11.36,11a23.6,23.6,0,0,1,2.3,11.49c-.25,2.55-1.15,4.41-2.4,5a2.58,2.58,0,0,1-1.12.23c-3.13,0-8.24-4.11-11.36-11a23.62,23.62,0,0,1-2.3-11.49c.25-2.55,1.14-4.42,2.4-5a2.7,2.7,0,0,1,1.12-.22m0-4a6.56,6.56,0,0,0-2.77.58C14,19.26,13.07,29,17.4,38.54c3.65,8,9.86,13.33,15,13.33a6.71,6.71,0,0,0,2.77-.58c5.49-2.5,6.42-12.25,2.09-21.78-3.64-8-9.85-13.32-15-13.32Z"/><path class="cls-3" d="M49,28.85a3.72,3.72,0,0,1-1.38-.26c-3.21-1.31-4.59-8.17-1.44-15.93C49,5.74,53.78,2,56.89,2a3.77,3.77,0,0,1,1.39.26c3.21,1.31,4.59,8.17,1.43,15.93C56.9,25.11,52.07,28.85,49,28.85Z"/><path class="cls-4" d="M56.89,4h0a1.77,1.77,0,0,1,.63.11c2,.8,3.11,6.53.34,13.32C55.5,23.25,51.4,26.85,49,26.85a1.81,1.81,0,0,1-.63-.11c-.88-.37-1.6-1.79-1.87-3.73A19.73,19.73,0,0,1,48,13.42C50.35,7.6,54.45,4,56.89,4m0-4c-4.45,0-9.72,4.8-12.61,11.91C40.91,20.2,42,28.5,46.81,30.44a5.62,5.62,0,0,0,2.14.41c4.46,0,9.72-4.8,12.62-11.91C64.94,10.65,63.81,2.35,59,.41A5.58,5.58,0,0,0,56.89,0Z"/><path class="cls-3" d="M47.1,28.23c-2.6,0-6.27-3.88-7.67-10.15-1.49-6.69.48-12,3.18-12.63a2.78,2.78,0,0,1,.58-.06c2.6,0,6.27,3.88,7.66,10.15,1.49,6.69-.48,12-3.18,12.63A2.69,2.69,0,0,1,47.1,28.23Z"/><path class="cls-4" d="M43.19,7.39c1.32,0,4.46,3,5.71,8.59,1.36,6.11-.57,10-1.66,10.24H47.1c-1.33,0-4.46-2.95-5.72-8.58a15.79,15.79,0,0,1,.07-7.85c.47-1.5,1.16-2.3,1.6-2.39l.14,0m0-4a4.88,4.88,0,0,0-1,.11c-4.23.94-6.34,7.67-4.7,15C39,25.29,43.14,30.23,47.1,30.23a4.34,4.34,0,0,0,1-.11c4.23-.94,6.33-7.66,4.7-15C51.3,8.33,47.14,3.39,43.19,3.39Z"/><path class="cls-3" d="M50.4,29.09c-3.31,0-5.8-1.08-6.51-2.81-1.14-2.82,2.4-7.91,9.31-10.71A20.57,20.57,0,0,1,60.83,14c3.31,0,5.81,1.08,6.51,2.81.56,1.37,0,3.25-1.46,5.15A19,19,0,0,1,58,27.49,20.49,20.49,0,0,1,50.4,29.09Z"/><path class="cls-4" d="M60.83,16h0c2.64,0,4.34.78,4.66,1.56s-.2,1.91-1.19,3.17a17.23,17.23,0,0,1-7,4.94,18.6,18.6,0,0,1-6.88,1.45c-2.64,0-4.34-.78-4.65-1.56-.59-1.45,2.08-5.63,8.2-8.11A18.6,18.6,0,0,1,60.83,16m0-4a22.61,22.61,0,0,0-8.38,1.75C45,16.76,40.29,22.72,42,27c1.07,2.65,4.3,4.06,8.36,4.06a22.88,22.88,0,0,0,8.39-1.74c7.49-3,12.15-9,10.4-13.32C68.12,13.38,64.89,12,60.83,12Z"/></g></svg>