<svg xmlns="http://www.w3.org/2000/svg" viewBox="0 0 80 80"><defs><style>.cls-1{fill:#7594f9;}.cls-2{fill:#fff;}</style></defs><title>mini_ikony</title><g id="Vrstva_19" data-name="Vrstva 19"><path class="cls-1" d="M49.48,80a1,1,0,0,1-.95-.67c-.24-.71-5.87-17.37-5.87-27.74a92,92,0,0,1,3.05-21.5,1,1,0,0,1,1.92.54,92.14,92.14,0,0,0-3,21c0,10,5.71,26.92,5.76,27.09a1,1,0,0,1-.62,1.27A.93.93,0,0,1,49.48,80Z"/><path class="cls-1" d="M44.63,61.57a1,1,0,0,1-.87-.5C38.38,51.63,34.08,50.79,34,50.78a1,1,0,0,1-.83-1.14,1,1,0,0,1,1.11-.84c.21,0,5.22.82,11.18,11.28a1,1,0,0,1-.37,1.36A1,1,0,0,1,44.63,61.57Z"/><path class="cls-2" d="M63.06,41.2s-6.43-.94-10.87,3.54a14,14,0,0,0-3.85,9.43,9.32,9.32,0,0,0,0,1.1v0A21.84,21.84,0,0,0,54.7,54h0a16.74,16.74,0,0,0,1.86-.82h0a12.47,12.47,0,0,0,2.63-1.79C63.35,47.7,63.06,41.2,63.06,41.2Zm-4.52,9.49a12.3,12.3,0,0,1-4,2.34,15.75,15.75,0,0,0-5.19.78,13,13,0,0,1,3.55-8.37,12.38,12.38,0,0,1,8.74-3.32h.41C62,43.93,61.42,48.09,58.54,50.69Z"/><path class="cls-1" d="M64.06,41.15a1,1,0,0,0-.85-.94c-.29,0-7-1-11.73,3.83a15.18,15.18,0,0,0-4.14,11.14c0,.12,0,.19,0,.22a1,1,0,0,0,1,.9h0l.41,0c.25,0,.62,0,1.08-.1l-.19-.37A14.57,14.57,0,0,1,54.89,55a17,17,0,0,0,1.84-.79h0c.44-.21.88-.45,1.31-.71a13.13,13.13,0,0,0,1.82-1.37C64.32,48.17,64.08,41.44,64.06,41.15ZM54.54,53a21.08,21.08,0,0,1-5.2,1.2c0-.13,0-.27,0-.42a13,13,0,0,1,3.55-8.37,12.38,12.38,0,0,1,8.74-3.32h.41c-.09,1.8-.63,6-3.51,8.56A12.3,12.3,0,0,1,54.54,53Z"/><path class="cls-2" d="M59.57,55.13a13.61,13.61,0,0,0-2.82-.88h0a13.33,13.33,0,0,0-2-.21h0a14.57,14.57,0,0,0-6.34,1.23h0s.16.39.46,1c.94,1.87,3.28,5.86,7,7.78,5,2.55,10.94,0,10.94,0S65.32,57.7,59.57,55.13Zm-3.32,8c-3.24-1.66-5.39-5.11-6.38-7l-.19-.37A14.57,14.57,0,0,1,54.89,55a12.06,12.06,0,0,1,4.27,1c4,1.79,5.75,5.68,6.34,7.39C63.78,64,59.7,65,56.25,63.17Z"/><path class="cls-1" d="M67.7,63.83c-.06-.28-1.58-6.87-7.72-9.61a13,13,0,0,0-1.92-.68,10.06,10.06,0,0,0-1.48-.32h0a11.12,11.12,0,0,0-2-.19,15.75,15.75,0,0,0-5.19.78l-1,.36-.45.21a1,1,0,0,0-.49,1.27c.11.27,2.71,6.61,7.93,9.3a11.88,11.88,0,0,0,5.49,1.25A17.55,17.55,0,0,0,67.12,65,1,1,0,0,0,67.7,63.83Zm-11.45-.66c-3.24-1.66-5.39-5.11-6.38-7l-.19-.37A14.57,14.57,0,0,1,54.89,55a12.06,12.06,0,0,1,4.27,1c4,1.79,5.75,5.68,6.34,7.39C63.78,64,59.7,65,56.25,63.17Z"/><path class="cls-2" d="M26.07,49A17.42,17.42,0,0,1,22.77,44c-.15-.34-.3-.68-.42-1a15.42,15.42,0,0,1-.53-1.53c0-.16-.09-.32-.12-.48a14,14,0,0,1-.5-4.38l0-.35a7.58,7.58,0,0,1,.33-1.63l-.33-.09c-.22-.06-.45-.11-.67-.15a3.86,3.86,0,0,0-.49-.09l-.48-.08-.35,0h0l-.69-.07-1,0c-.27,0-.54,0-.8,0s-.41,0-.61.06l-.57.08a6.44,6.44,0,0,0-1.31.36l-.45.19a4.78,4.78,0,0,0-.45.23,2.25,2.25,0,0,0-.35.22,2,2,0,0,0-.26.18l-.18.14-.25.24-.08.08-.07.07-.15.17-.12.15-.06.09a3.88,3.88,0,0,0-.3.48,4.53,4.53,0,0,0-.45,2.61,2.9,2.9,0,0,0,.06.41,1.52,1.52,0,0,0,0,.21c0,.11,0,.21.08.31a3.45,3.45,0,0,0,.12.43.88.88,0,0,0,.05.15,2.08,2.08,0,0,0,.12.32h0a3.08,3.08,0,0,0,.16.38h0l.09.19s0,0,0,0,.12.25.19.38a11.84,11.84,0,0,0,.77,1.23h0A12.73,12.73,0,0,0,14,45.06a9.5,9.5,0,0,1,1.83-1,14.66,14.66,0,0,1,4.36-1l.06.17.09.23c.06.16.12.33.19.49s.25.6.38.9.15.32.23.48c.15.32.31.64.48.94.08.15.16.3.25.45s.33.53.49.79l0,.07c.15.24.3.46.46.68s.36.5.55.73.27.34.41.51l0,0,.41.45.21.23c.11.12.22.22.33.33l.3.3h0l.46.07a1.53,1.53,0,0,0,.3,0h0l.27,0,.26,0h.07l.76,0h0l.75,0h.09l.38,0h.16A10,10,0,0,1,26.07,49Zm-6.53-7.85-1.08.16-.41.07-.4.09-.54.12-.68.19c-.32.09-.63.2-.93.31s-.69.28-1,.43c-.15-.2-.29-.41-.42-.61-1-1.61-1.31-3.11-.78-4.11s2.11-1.7,4.23-1.7a11.35,11.35,0,0,1,1.72.13,9.83,9.83,0,0,0,0,1.54c0,.14,0,.28,0,.43s0,.6.08.9.07.54.12.82a.5.5,0,0,0,0,.12c0,.13.05.26.08.4s.09.47.15.7Z"/><path class="cls-2" d="M33.81,46.18v.07a4.07,4.07,0,0,1,0,.5,4.89,4.89,0,0,1-.09.53,3,3,0,0,1-.12.4s0-.06,0-.09a11.51,11.51,0,0,0,0-2.34h0A11.07,11.07,0,0,0,33.37,44c0,.1.08.2.11.3a4.23,4.23,0,0,1,.18.65,2.79,2.79,0,0,1,.07.38v0a.43.43,0,0,1,0,.11h0a.25.25,0,0,1,0,.08v.12A4,4,0,0,1,33.81,46.18Z"/><path class="cls-1" d="M33.78,45.7v-.12l0-.09h0a.43.43,0,0,0,0-.11v0a2.79,2.79,0,0,0-.07-.38,4.23,4.23,0,0,0-.18-.65c0-.1-.07-.2-.11-.3a11.07,11.07,0,0,1,.18,1.25h0a11.51,11.51,0,0,1,0,2.34s0,.06,0,.09a3,3,0,0,0,.12-.4,4.89,4.89,0,0,0,.09-.53,4.07,4.07,0,0,0,0-.5v-.07A4,4,0,0,0,33.78,45.7ZM21.23,34.55c-.22-.06-.45-.11-.67-.15a3.86,3.86,0,0,0-.49-.09l-.48-.08-.35,0h0l-.69-.07-1,0c-.27,0-.54,0-.8,0s-.41,0-.61.06l-.57.08a8.06,8.06,0,0,0-1.31.36l-.45.19a4.78,4.78,0,0,0-.45.23,2.25,2.25,0,0,0-.35.22,2,2,0,0,0-.26.18l-.18.14-.25.24-.08.08-.07.07-.15.17-.12.15-.06.09a3.88,3.88,0,0,0-.3.48,4.53,4.53,0,0,0-.45,2.61,2.9,2.9,0,0,0,.06.41,1.52,1.52,0,0,0,0,.21c0,.11,0,.21.08.31a3.45,3.45,0,0,0,.12.43.88.88,0,0,0,.05.15,2.08,2.08,0,0,0,.12.32h0a3.08,3.08,0,0,0,.16.38h0l.09.19s0,0,0,0,.12.25.19.38a11.84,11.84,0,0,0,.77,1.23h0A12.73,12.73,0,0,0,14,45.06a9.5,9.5,0,0,1,1.83-1,12.59,12.59,0,0,1-1.39-1.58c-.15-.2-.29-.41-.42-.61-1-1.61-1.31-3.11-.78-4.11s2.11-1.7,4.23-1.7a11.35,11.35,0,0,1,1.72.13,14.15,14.15,0,0,1,2,.42l0-.35a7.58,7.58,0,0,1,.33-1.63ZM28.7,51a10,10,0,0,1-2.63-2,15.53,15.53,0,0,1-3.15-.69h0c.18.25.36.5.55.73s.27.34.41.51l0,0,.41.45.21.23c.11.12.22.22.33.33l.3.3,0,0h0l.46.07a1.53,1.53,0,0,0,.3,0h0l.27,0,.26,0h.07l.76,0h0l.75,0h.09l.38,0h.16l.12,0Z"/><path class="cls-2" d="M25.13,50.85h0Zm-2.69-3.26c.15.24.3.46.46.68h0Zm2.69,3.26h0ZM22.9,48.27h0l-.48-.69C22.59,47.83,22.74,48.05,22.9,48.27Zm12,0a1.13,1.13,0,0,0,0-.25,2.56,2.56,0,0,0,0-.27,2.79,2.79,0,0,0-.1-.39L34.66,47l0-.08c0-.12-.1-.24-.16-.36s-.14-.28-.22-.42-.31-.46-.48-.68h0c-.07-.08-.12-.15-.2-.23a11.51,11.51,0,0,1,0,2.34s0,.06,0,.09h0a.06.06,0,0,1,0,0,0,0,0,0,1,0,0c-.2,1.81-.89,3.1-1.88,3.56a2.13,2.13,0,0,1-1,.2h0a4.54,4.54,0,0,1-2-.56l.12,0H28.7a10,10,0,0,1-2.63-2A17.42,17.42,0,0,1,22.77,44c-.15-.34-.3-.68-.42-1a15.42,15.42,0,0,1-.53-1.53c0-.16-.09-.32-.12-.48-.35,0-.69,0-1,0l-1,.08h-.12l-1.08.16-.41.07-.4.09-.54.12-.68.19c-.32.09-.63.2-.93.31s-.69.28-1,.43-.45.22-.66.34-.5.29-.74.45l-.16.12-.16.12h0a3.92,3.92,0,0,0-.32.25,3,3,0,0,0-.27.23l0,0-.28.27a3.25,3.25,0,0,0-.26.27c-.16.19-.31.38-.45.58a4.88,4.88,0,0,0-.61,1.26,6.38,6.38,0,0,0-.15.66l0,.34c-.22,3.91,5.1,7.39,11.89,7.78.42,0,.83,0,1.23,0h0q.59,0,1.14,0h0a19.21,19.21,0,0,0,2.2-.25c.35-.06.7-.13,1-.21h0c.34-.08.66-.16,1-.26h0l.93-.31a11.84,11.84,0,0,0,1.53-.69h0l.5-.29a9.15,9.15,0,0,0,1.33-1l.28-.27.25-.27a3,3,0,0,0,.32-.41,3.51,3.51,0,0,0,.27-.4l.05-.08a2.21,2.21,0,0,0,.18-.34,2.14,2.14,0,0,0,.12-.28,2.08,2.08,0,0,0,.12-.32c0-.1.05-.2.08-.3l0-.16a0,0,0,0,0,0,0v0c0-.1,0-.2,0-.3a.09.09,0,0,0,0,0c0-.05,0-.09,0-.14A3.88,3.88,0,0,0,34.93,48.23Zm-11.46,5-1.12,0c-6.07-.35-10.14-3.27-10-5.67A3.56,3.56,0,0,1,14,45.06a9.5,9.5,0,0,1,1.83-1,14.66,14.66,0,0,1,4.36-1l.06.17.09.23c.06.16.12.33.19.49s.25.6.38.9.15.32.23.48c.15.32.31.64.48.94.08.15.16.3.25.45s.33.53.49.79l0,.07c.15.24.3.46.46.68s.36.5.55.73.27.34.41.51l0,0,.41.45.21.23c.11.12.22.22.33.33l.3.3h0l.3.27c.21.19.44.37.66.54s.43.32.65.47l.45.29c.17.1.33.19.5.27A16.68,16.68,0,0,1,23.47,53.23Zm-1-5.64c.15.24.3.46.46.68h0Zm2.69,3.26h0Z"/><path class="cls-1" d="M21.82,41.48V43h.53A15.42,15.42,0,0,1,21.82,41.48Zm13.11,6.75a1.13,1.13,0,0,0,0-.25,2.56,2.56,0,0,0,0-.27,2.79,2.79,0,0,0-.1-.39L34.66,47l0-.08c0-.12-.1-.24-.16-.36s-.14-.28-.22-.42-.31-.46-.48-.68h0c-.07-.08-.12-.15-.2-.23a11.51,11.51,0,0,1,0,2.34s0,.06,0,.09h0a.06.06,0,0,1,0,0,0,0,0,0,1,0,0c-.2,1.81-.89,3.1-1.88,3.56a2.13,2.13,0,0,1-1,.2,11.18,11.18,0,0,1-3,1.19,16.68,16.68,0,0,1-4.24.52l-1.12,0c-6.07-.35-10.14-3.27-10-5.67A3.56,3.56,0,0,1,14,45.06a9.5,9.5,0,0,1,1.83-1,14.66,14.66,0,0,1,4.36-1c.51,0,1-.07,1.59-.07h.53a15.42,15.42,0,0,1-.53-1.53c0-.16-.09-.32-.12-.48-.35,0-.69,0-1,0l-1,.08h-.12l-1.08.16-.41.07-.4.09-.54.12-.68.19c-.32.09-.63.2-.93.31s-.69.28-1,.43-.45.22-.66.34-.5.29-.74.45l-.16.12-.17.11h0a3.92,3.92,0,0,0-.32.25,3,3,0,0,0-.27.23l0,0-.28.27a3.25,3.25,0,0,0-.26.27c-.16.19-.31.38-.45.58a4.88,4.88,0,0,0-.61,1.26,6.38,6.38,0,0,0-.15.66l0,.34c-.22,3.91,5.1,7.39,11.89,7.78.42,0,.83,0,1.23,0h0q.59,0,1.14,0h0a19.21,19.21,0,0,0,2.2-.25c.35-.06.7-.13,1-.21h0c.34-.08.66-.16,1-.26h0l.93-.31a11.84,11.84,0,0,0,1.53-.69h0l.5-.29a9.15,9.15,0,0,0,1.33-1l.28-.27.25-.27a3,3,0,0,0,.32-.41,3.51,3.51,0,0,0,.27-.4l.05-.08a2.21,2.21,0,0,0,.18-.34,2.14,2.14,0,0,0,.12-.28,2.08,2.08,0,0,0,.12-.32c0-.1.05-.2.08-.3l0-.16a0,0,0,0,0,0,0v0c0-.1,0-.2,0-.3a.09.09,0,0,0,0,0c0-.05,0-.09,0-.14A3.88,3.88,0,0,0,34.93,48.23Z"/><path class="cls-2" d="M28.7,51h0l.12,0Zm0,0h0l.12,0Zm5.16-12c-.3-.65-.62-1.28-1-1.87-.17-.29-.35-.58-.53-.86a18.08,18.08,0,0,0-1.53-2c-.17-.2-.35-.4-.54-.59s-.2-.22-.31-.32-.42-.41-.64-.6-.43-.37-.65-.54-.44-.33-.66-.47-.33-.21-.5-.31-.4-.23-.61-.33l-.55-.25a5.75,5.75,0,0,0-.66-.23h0l-.25-.07a4.88,4.88,0,0,0-.73-.13l-.21,0h-.38a4.25,4.25,0,0,0-1.8.38l-.34.17-.14.09a3.6,3.6,0,0,0-.4.28l-.08.07a3.58,3.58,0,0,0-.29.27l0,0L21,31.7a4,4,0,0,0-.32.38,5.52,5.52,0,0,0-.32.47c-.1.16-.19.34-.28.52a5.7,5.7,0,0,0-.44,1.16l-.12.43a9.15,9.15,0,0,0-.2,1.09c0,.15,0,.3,0,.45a9.83,9.83,0,0,0,0,1.54c0,.14,0,.28,0,.43s0,.6.08.9.07.54.12.82a.5.5,0,0,0,0,.12c0,.13.05.26.08.4s.09.47.15.7c0,0,0,0,0,.06,0,.21.11.42.17.64s.05.18.08.27.11.37.17.55.08.26.13.39a.09.09,0,0,0,0,0l.06.17.09.23c.06.16.12.33.19.49s.25.6.38.9.15.32.23.48c.15.32.31.64.48.94.08.15.16.3.25.45s.33.53.49.79l0,.07c.15.24.3.46.46.68s.36.5.55.73.27.34.41.51l0,0,.41.45.21.23c.11.12.22.22.33.33l.3.3,0,0,.3.27c.21.19.44.37.66.54s.43.32.65.47l.45.29c.17.1.33.19.5.27a6.46,6.46,0,0,0,3,.81,4.44,4.44,0,0,0,.63,0h0a4.59,4.59,0,0,0,.51-.1h0l.23-.07a3.12,3.12,0,0,0,.39-.15A3.21,3.21,0,0,0,33,52.9l.12-.08.15-.1a1.92,1.92,0,0,0,.22-.18h0l.18-.16.21-.21a3,3,0,0,0,.28-.33c.1-.12.19-.25.28-.38s.15-.23.21-.36l.05-.09a3.18,3.18,0,0,0,.16-.32c.05-.1.09-.2.14-.31a.78.78,0,0,1,.05-.14c.06-.15.11-.3.16-.45s.09-.3.13-.46a1.33,1.33,0,0,0,0-.19c0-.19.08-.38.11-.58s0-.22.05-.33c0-.31.08-.63.09-1,0-.1,0-.21,0-.32a.76.76,0,0,0,0-.15v-.2A18.82,18.82,0,0,0,33.86,39ZM30.72,51.52h0a4.54,4.54,0,0,1-2-.56l.12,0H28.7a10,10,0,0,1-2.63-2A17.42,17.42,0,0,1,22.77,44c-.15-.34-.3-.68-.42-1a15.42,15.42,0,0,1-.53-1.53c0-.16-.09-.32-.12-.48a14,14,0,0,1-.5-4.38l0-.35a7.58,7.58,0,0,1,.33-1.63,3.27,3.27,0,0,1,1.58-2.1,2.19,2.19,0,0,1,1-.2c2.19,0,5.72,2.62,7.93,7.49A18.52,18.52,0,0,1,33.37,44h0a11.07,11.07,0,0,1,.18,1.25h0a11.51,11.51,0,0,1,0,2.34s0,.06,0,.09h0a.06.06,0,0,1,0,0,0,0,0,0,1,0,0c-.2,1.81-.89,3.1-1.88,3.56A2.13,2.13,0,0,1,30.72,51.52Zm-2-.57h0l.12,0Zm0,0h0l.12,0Z"/><path class="cls-1" d="M33.86,39c-.3-.65-.62-1.28-1-1.87-.17-.29-.35-.58-.53-.86a18.08,18.08,0,0,0-1.53-2c-.17-.2-.35-.4-.54-.59s-.2-.22-.31-.32-.42-.41-.64-.6-.43-.37-.65-.54-.44-.33-.66-.47-.33-.21-.5-.31-.4-.23-.61-.33l-.55-.25a5.75,5.75,0,0,0-.66-.23h0l-.25-.07a4.88,4.88,0,0,0-.73-.13l-.21,0h-.38a4.25,4.25,0,0,0-1.8.38l-.34.17-.14.09a3.6,3.6,0,0,0-.4.28l-.08.07a3.58,3.58,0,0,0-.29.27l0,0L21,31.7a4,4,0,0,0-.32.38,5.52,5.52,0,0,0-.32.47c-.1.16-.19.34-.28.52a8,8,0,0,0-.44,1.16l-.12.43a9.15,9.15,0,0,0-.2,1.09c0,.15,0,.3,0,.45a13.06,13.06,0,0,0,0,1.54c0,.14,0,.28,0,.43s0,.6.08.9.07.54.12.82a.5.5,0,0,0,0,.12c0,.13.05.26.08.4s.09.47.15.7c0,0,0,0,0,.06,0,.21.11.42.17.64s.05.18.08.27.11.37.17.55.08.26.13.39a.09.09,0,0,0,0,0l.06.17.09.23c.06.16.12.33.19.49s.25.6.38.9.15.32.23.48c.15.32.31.64.48.94.08.15.16.3.25.45s.33.53.49.79l0,.07.48.69c.18.25.35.49.53.72s.27.34.41.51l0,0,.41.45.21.23c.11.12.22.22.33.33l.3.3h0l.29.28c.21.19.44.37.66.54s.43.32.65.47l.45.29c.17.1.33.19.5.27a6.46,6.46,0,0,0,3,.81,4.44,4.44,0,0,0,.63,0h0a4.59,4.59,0,0,0,.51-.1h0l.23-.07a3.12,3.12,0,0,0,.39-.15A3.21,3.21,0,0,0,33,52.9l.12-.08.15-.1a1.92,1.92,0,0,0,.22-.18h0l.18-.16.21-.21a3,3,0,0,0,.28-.33c.1-.12.19-.25.28-.38s.15-.23.21-.36l.05-.09a3.18,3.18,0,0,0,.16-.32c.05-.1.09-.2.14-.31a.78.78,0,0,1,.05-.14c.06-.15.11-.3.16-.45s.09-.3.13-.46a1.33,1.33,0,0,0,0-.19c0-.19.08-.38.11-.58s0-.22.05-.33c0-.31.08-.63.09-1,0-.1,0-.21,0-.32a.76.76,0,0,0,0-.15v-.2A18.82,18.82,0,0,0,33.86,39ZM30.72,51.52h0a4.54,4.54,0,0,1-2-.56h0a10,10,0,0,1-2.63-2A17.42,17.42,0,0,1,22.77,44c-.15-.34-.3-.68-.42-1a15.42,15.42,0,0,1-.53-1.53c0-.16-.09-.32-.12-.48a14,14,0,0,1-.5-4.38l0-.35a7.58,7.58,0,0,1,.33-1.63,3.27,3.27,0,0,1,1.58-2.1,2.19,2.19,0,0,1,1-.2c2.19,0,5.72,2.62,7.93,7.49A18.52,18.52,0,0,1,33.37,44h0a11.07,11.07,0,0,1,.18,1.25h0a11.51,11.51,0,0,1,0,2.34s0,.06,0,.09h0a.06.06,0,0,1,0,0,0,0,0,0,1,0,0c-.2,1.81-.89,3.1-1.88,3.56A2.13,2.13,0,0,1,30.72,51.52Z"/><path class="cls-2" d="M52.19,12.59c.12.37.24.75.35,1.13h0C52.44,13.34,52.32,13,52.19,12.59Zm0,0c.12.37.24.75.35,1.13h0C52.44,13.34,52.32,13,52.19,12.59Zm0,0c.12.37.24.75.35,1.13h0C52.44,13.34,52.32,13,52.19,12.59ZM63.31,6.48c-.05-.25-.1-.49-.16-.73a1.81,1.81,0,0,0-.09-.31A3.64,3.64,0,0,0,63,5.05c-.08-.26-.17-.52-.27-.76l-.08-.18s0,0,0,0-.13-.3-.2-.44l0-.06a1.62,1.62,0,0,0-.1-.18,3.91,3.91,0,0,0-.34-.59v0a4.35,4.35,0,0,0-.32-.43s0,0,0,0a.76.76,0,0,0-.11-.14h0c-.12-.15-.24-.28-.36-.41l0,0-.43-.4c-.14-.12-.29-.23-.44-.34L60.1.92,59.67.67l0,0a4,4,0,0,0-.51-.24A5.58,5.58,0,0,0,57,0l-.47,0a5.93,5.93,0,0,0-.59.07h0a1.8,1.8,0,0,0-.32.06l-.41.1-.42.13-.42.15-.43.17-.33.15c-.22.1-.44.22-.65.34s-.48.28-.72.44l-.3.2a16.32,16.32,0,0,0-1.36,1.07l-.42.38-.42.4-.41.42-.4.45c-.14.15-.27.3-.4.46l-.4.48L48,5.6h0c-.21.26-.41.53-.6.8l-.45.64c0,.07-.09.14-.14.21a11.21,11.21,0,0,1,1.34,1.63,18,18,0,0,1,2.56,5.66l-.15.08-.77.41-.09.05c-.27.15-.54.3-.79.46l-.26.16-.58.38c-.3.2-.59.41-.87.62s-.43.33-.64.5-.54.45-.79.68a5.77,5.77,0,0,0-.44.42l-.21.2a1.21,1.21,0,0,0-.16.16c-.13.12-.25.25-.37.38l0,0c-.19.21-.37.43-.54.64s-.27.34-.39.51l-.4.57h0l-.18.29a2.75,2.75,0,0,0-.17.29,3.72,3.72,0,0,0-.21.39l-.19.38h0c0,.15,0,.3,0,.45s0,.3,0,.45a.28.28,0,0,0,0,.09c0,.23.05.46.09.68s.07.45.12.67.07.32.11.48.11.44.17.65h0c.05.17.1.32.16.48l0,.13a9.11,9.11,0,0,0,.58,1.26,5,5,0,0,0,.33.55,2.36,2.36,0,0,0,.26.36,4.92,4.92,0,0,0,.5.61,4.17,4.17,0,0,0,.43.41,2.48,2.48,0,0,0,.37.29s0,0,0,0l.07.06a4.94,4.94,0,0,0,.49.3,5.76,5.76,0,0,0,.61.3l.48.17.22.06h0a4.11,4.11,0,0,0,.7.13l.31,0a3,3,0,0,0,.42,0h.49l.16,0,.19,0,.56-.09h0l.29-.07.25-.07.16,0a5.75,5.75,0,0,0,.66-.23l.1,0a6.82,6.82,0,0,0,.68-.31q.36-.18.72-.39l0,0,.32-.2a3.53,3.53,0,0,0,.32-.21l.07,0,.59-.43.07-.06a19.22,19.22,0,0,1-4.23.51h-.24c-2.61,0-4.68-.77-5.72-1.95h0a2.78,2.78,0,0,1-.54-.85,4.39,4.39,0,0,1,.52-3.71,8.83,8.83,0,0,1,.94-1.44,17.65,17.65,0,0,1,5.7-4.56c.6-.32,1.22-.61,1.87-.88l.28-.12A20.49,20.49,0,0,1,60.93,14h.19a12.49,12.49,0,0,1,2,.18c.08-.39.15-.78.21-1.16s.08-.55.11-.82c0,0,0-.06,0-.09v0a2.6,2.6,0,0,0,0-.26l0-.27v0s0-.07,0-.11v0c0-.13,0-.26,0-.4s0-.26,0-.39q0-.44,0-.87A16.27,16.27,0,0,0,63.31,6.48ZM60.93,12a22.65,22.65,0,0,0-8.38,1.75c-.11-.38-.23-.76-.36-1.13s-.26-.73-.4-1.08-.31-.74-.47-1.09-.34-.7-.52-1-.37-.66-.56-1-.4-.61-.6-.89-.19-.26-.3-.39h0C51.9,3.77,54.85,2,57,2a3.68,3.68,0,0,1,1.38.26c1.6.65,2.73,2.58,3.1,5.31a16.71,16.71,0,0,1,0,4.41Zm-8.74.62c.12.37.24.75.35,1.13h0C52.44,13.34,52.32,13,52.19,12.59Zm0,0c.12.37.24.75.35,1.13h0C52.44,13.34,52.32,13,52.19,12.59Zm0,0c.12.37.24.75.35,1.13h0C52.44,13.34,52.32,13,52.19,12.59Z"/><path class="cls-1" d="M50.5,29.09h-.24c-2.61,0-4.68-.77-5.72-1.95h0a2.78,2.78,0,0,1-.54-.85,4.39,4.39,0,0,1,.52-3.71,17.72,17.72,0,0,1,0-3.48c-.19.21-.37.43-.54.64s-.27.34-.39.51l-.4.57h0l-.18.29a2.75,2.75,0,0,0-.17.29,3.72,3.72,0,0,0-.21.39l-.19.38h0c0,.15,0,.3,0,.45s0,.3,0,.45a.28.28,0,0,0,0,.09c0,.23.05.46.09.68s.07.45.12.67.07.32.11.48a6.36,6.36,0,0,0,.18.66h0c.05.17.1.32.16.48l0,.13a9.11,9.11,0,0,0,.58,1.26,5,5,0,0,0,.33.55,2.36,2.36,0,0,0,.26.36,4.92,4.92,0,0,0,.5.61,4.17,4.17,0,0,0,.43.41,2.48,2.48,0,0,0,.37.29s0,0,0,0l.07.06a4.94,4.94,0,0,0,.49.3,5.76,5.76,0,0,0,.61.3l.48.17.22.06h0a4.11,4.11,0,0,0,.7.13l.31,0a3,3,0,0,0,.42,0h.49l.16,0,.19,0,.56-.09h0l.29-.07.25-.07.16,0a5.75,5.75,0,0,0,.66-.23l.1,0a6.82,6.82,0,0,0,.68-.31q.36-.18.72-.39l0,0,.32-.2a3.53,3.53,0,0,0,.32-.21l.07,0,.59-.43.07-.06A19.22,19.22,0,0,1,50.5,29.09ZM63.31,6.48c-.05-.25-.1-.49-.16-.73a1.81,1.81,0,0,0-.09-.31A3.64,3.64,0,0,0,63,5.05c-.08-.26-.17-.52-.27-.76l-.08-.18s0,0,0,0-.13-.3-.2-.44l0-.06a1.62,1.62,0,0,0-.1-.18,3.91,3.91,0,0,0-.34-.59v0a4.35,4.35,0,0,0-.32-.43s0,0,0,0a.76.76,0,0,0-.11-.14h0c-.12-.15-.24-.28-.36-.41l0,0-.43-.4c-.14-.12-.29-.23-.44-.34L60.1.92,59.67.67l0,0a4,4,0,0,0-.51-.24A5.58,5.58,0,0,0,57,0l-.47,0a5.93,5.93,0,0,0-.59.07h0a1.8,1.8,0,0,0-.32.06l-.41.1-.42.13-.42.15-.43.17-.33.15c-.22.1-.44.22-.65.34s-.48.28-.72.44l-.3.2a16.32,16.32,0,0,0-1.36,1.07l-.42.38-.42.4-.41.42-.4.45c-.14.15-.27.3-.4.46l-.4.48L48,5.6h0c-.21.26-.41.53-.6.8l-.45.64c0,.07-.09.14-.14.21a11.21,11.21,0,0,1,1.34,1.63,19.19,19.19,0,0,1,1.2-1.75h0C51.9,3.77,54.85,2,57,2a3.68,3.68,0,0,1,1.38.26c1.6.65,2.73,2.58,3.1,5.31a16.71,16.71,0,0,1,0,4.41,17.94,17.94,0,0,1-.33,2,12.49,12.49,0,0,1,2,.18c.08-.39.15-.78.21-1.16s.08-.55.11-.82c0,0,0-.06,0-.09v0a2.6,2.6,0,0,0,0-.26l0-.27v0s0-.07,0-.11v0c0-.13,0-.26,0-.4s0-.26,0-.39q0-.44,0-.87A16.27,16.27,0,0,0,63.31,6.48Z"/><path class="cls-2" d="M45.45,21.13a17.65,17.65,0,0,1,5.7-4.56c.6-.32,1.22-.61,1.87-.88l-.12-.58c-.1-.42-.2-.84-.31-1.25a.74.74,0,0,1,0-.14c-.11-.38-.23-.76-.36-1.13s-.26-.73-.4-1.08-.31-.74-.47-1.09-.34-.7-.52-1-.37-.66-.56-1-.4-.61-.6-.89-.19-.26-.3-.39h0L49,6.71A9.4,9.4,0,0,0,48.35,6c-.11-.12-.22-.23-.34-.34l0,0h0l-.32-.29c-.18-.16-.36-.31-.55-.45l-.51-.37,0,0a4.12,4.12,0,0,0-.45-.27L46,4.14h0l-.13-.07q-.26-.14-.51-.24a5.89,5.89,0,0,0-.59-.21l-.38-.1a4.55,4.55,0,0,0-.61-.1,4.19,4.19,0,0,0-.5,0h0a4.86,4.86,0,0,0-1,.11c-4.24.94-6.34,7.67-4.7,15,.07.32.14.63.23.94s.17.61.26.91.13.41.2.61.18.52.28.77.18.47.28.7.22.52.33.76.34.69.52,1h0c.18.33.37.65.56,1s.39.61.6.89.41.56.63.82a9.4,9.4,0,0,0,.66.74l.25.25a3.07,3.07,0,0,0,.26.25l.52.46,0,0,.06.05.14.1a1.37,1.37,0,0,0,.21.15l.27.19a6,6,0,0,0,.73.42l.46.22a4.88,4.88,0,0,0,.64.23h0a2.25,2.25,0,0,0,.35.09l.22,0,.41.06h0l.44,0a3.71,3.71,0,0,0,.47,0h.13l.41-.07a5.15,5.15,0,0,0,.56-.16l.22-.09.23-.11a4.83,4.83,0,0,0,.59-.32l.35-.26.11-.09c-2.61,0-4.68-.77-5.72-1.95h0a2.78,2.78,0,0,1-.54-.85,4.39,4.39,0,0,1,.52-3.71A8.83,8.83,0,0,1,45.45,21.13Zm-1.83-.89-.4.57h0l-.18.29a2.75,2.75,0,0,0-.17.29,3.72,3.72,0,0,0-.21.39l-.19.38h0c-.07.16-.14.31-.2.46a7.49,7.49,0,0,0-.4,1.39,19.2,19.2,0,0,1-2.34-6,17.89,17.89,0,0,1,.1-8.88c.66-2.09,1.78-3.46,3.08-3.75a2.76,2.76,0,0,1,.57-.06A5.36,5.36,0,0,1,46.8,7.26a11.21,11.21,0,0,1,1.34,1.63,18,18,0,0,1,2.56,5.66l-.15.08-.77.41-.09.05c-.27.15-.54.3-.79.46l-.26.16-.58.38c-.3.2-.59.41-.87.62s-.43.33-.64.5-.54.45-.79.68a5.77,5.77,0,0,0-.44.42l-.21.2a1.21,1.21,0,0,0-.16.16c-.13.12-.25.25-.37.38l0,0c-.19.21-.37.43-.54.64S43.74,20.07,43.62,20.24Z"/><path class="cls-1" d="M52.9,15.11c-.1-.42-.2-.84-.31-1.25a.74.74,0,0,1,0-.14h0c-.11-.38-.23-.76-.35-1.13s-.26-.73-.4-1.08-.31-.74-.47-1.09-.34-.7-.52-1-.37-.66-.56-1-.4-.61-.6-.89-.19-.26-.3-.39h0L49,6.71A9.4,9.4,0,0,0,48.35,6c-.11-.12-.22-.23-.34-.34l0,0-.32-.3c-.18-.16-.36-.31-.55-.45l-.51-.37,0,0a4.12,4.12,0,0,0-.45-.27L46,4.14h0l-.13-.07q-.26-.14-.51-.24a5.89,5.89,0,0,0-.59-.21l-.38-.1a4.55,4.55,0,0,0-.61-.1,4.19,4.19,0,0,0-.5,0h0a4.86,4.86,0,0,0-1,.11c-4.24.94-6.34,7.67-4.7,15,.07.32.14.63.23.94s.17.61.26.91.13.41.2.61.18.52.28.77.18.47.28.7.22.52.33.76.34.69.52,1h0c.18.33.37.65.56,1s.39.61.6.89.41.56.63.82a9.4,9.4,0,0,0,.66.74l.25.25a3.07,3.07,0,0,0,.26.25l.52.46,0,0,.06.05.14.1a1.37,1.37,0,0,0,.21.15l.27.19a6,6,0,0,0,.73.42l.46.22a4.88,4.88,0,0,0,.64.23h0l.35.08.22,0,.41.06h0l.44,0a3.71,3.71,0,0,0,.47,0h.13l.41-.07a5.15,5.15,0,0,0,.56-.16l.22-.09.23-.11a4.83,4.83,0,0,0,.59-.32l.35-.26.11-.09c-2.61,0-4.68-.77-5.72-1.95h0a9.66,9.66,0,0,1-1.48-1.46h0A12,12,0,0,1,41.87,24a19.2,19.2,0,0,1-2.34-6,17.89,17.89,0,0,1,.1-8.88c.66-2.09,1.78-3.46,3.08-3.75a2.76,2.76,0,0,1,.57-.06A5.36,5.36,0,0,1,46.8,7.26a11.21,11.21,0,0,1,1.34,1.63,18,18,0,0,1,2.56,5.66c.09.32.17.65.25,1s.15.69.2,1c.6-.32,1.22-.61,1.87-.88Z"/><path class="cls-2" d="M69.29,16a4.63,4.63,0,0,0-.5-.93,5.37,5.37,0,0,0-1.1-1.18,3.79,3.79,0,0,0-.4-.3c-.17-.12-.35-.23-.53-.34a5.59,5.59,0,0,0-.6-.3l-.38-.16-.25-.1-.44-.16-.73-.2c-.29-.07-.58-.13-.88-.18h-.1l-.59-.08-.38,0-1-.06h-.52a22.65,22.65,0,0,0-8.38,1.75h0c-.64.26-1.25.54-1.84.83l-.15.08-.77.41-.09.05c-.27.15-.54.3-.79.46l-.26.16-.58.38c-.3.2-.59.41-.87.62s-.43.33-.64.5-.54.45-.79.68a5.77,5.77,0,0,0-.44.42l-.21.2a1.21,1.21,0,0,0-.16.16c-.13.12-.25.25-.37.38l0,0c-.19.21-.37.43-.54.64s-.27.34-.39.51l-.4.57h0l-.18.29a2.75,2.75,0,0,0-.17.29,3.72,3.72,0,0,0-.21.39l-.19.38h0c-.07.16-.14.31-.2.46a7.49,7.49,0,0,0-.4,1.39l-.06.38a2.28,2.28,0,0,0,0,.26,1.34,1.34,0,0,0,0,.2.28.28,0,0,0,0,.09v.13A5.15,5.15,0,0,0,42.14,27a3.54,3.54,0,0,0,.23.48,1.91,1.91,0,0,0,.16.27l0,.06a.08.08,0,0,0,0,0,3.37,3.37,0,0,0,.21.31l.08.09a1.56,1.56,0,0,0,.16.2l0,0,.09.1,0,0,.06.05a4.76,4.76,0,0,0,.46.43l0,0a3.06,3.06,0,0,0,.29.21l.12.09.12.08.07,0a6,6,0,0,0,.61.34,4.51,4.51,0,0,0,.63.29l.08,0,.1,0c.24.09.49.18.75.26l.2.05a6.75,6.75,0,0,0,.68.18l.18,0h.06l.68.11c.21,0,.43.06.65.07l.26,0a1.73,1.73,0,0,0,.32,0q.47,0,1,0a20.36,20.36,0,0,0,4.07-.43c.7-.14,1.42-.32,2.14-.54s1.45-.48,2.17-.77C66.38,26.31,71,20.34,69.29,16ZM58.13,27.49a22.06,22.06,0,0,1-3.38,1.08h0a19.22,19.22,0,0,1-4.23.51h-.24c-2.61,0-4.68-.77-5.72-1.95h0a2.78,2.78,0,0,1-.54-.85,4.39,4.39,0,0,1,.52-3.71,8.83,8.83,0,0,1,.94-1.44,17.65,17.65,0,0,1,5.7-4.56c.6-.32,1.22-.61,1.87-.88l.28-.12A20.49,20.49,0,0,1,60.93,14h.19a12.49,12.49,0,0,1,2,.18c2.2.37,3.78,1.31,4.32,2.63C68.58,19.6,65,24.69,58.13,27.49Z"/><path class="cls-1" d="M69.29,16a4.63,4.63,0,0,0-.5-.93,5.37,5.37,0,0,0-1.1-1.18,3.79,3.79,0,0,0-.4-.3c-.17-.12-.35-.23-.53-.34a5.59,5.59,0,0,0-.6-.3l-.38-.16-.25-.1-.44-.16-.73-.2c-.29-.07-.58-.13-.88-.18h-.1l-.59-.08-.38,0-1-.06h-.52a22.65,22.65,0,0,0-8.38,1.75h0c-.64.26-1.25.54-1.84.83l-.15.08-.77.41-.09.05c-.27.15-.54.3-.79.46l-.26.16-.58.38c-.3.2-.59.41-.87.62s-.43.33-.64.5-.54.45-.79.68a5.77,5.77,0,0,0-.44.42l-.21.2a1.21,1.21,0,0,0-.16.16c-.13.12-.25.25-.37.38l0,0c-.19.21-.37.43-.54.64s-.27.34-.39.51l-.4.57h0l-.18.29a2.75,2.75,0,0,0-.17.29,3.72,3.72,0,0,0-.21.39l-.19.38h0c-.07.16-.14.31-.2.46a7.49,7.49,0,0,0-.4,1.39l-.06.38a2.28,2.28,0,0,0,0,.26,1.34,1.34,0,0,0,0,.2.28.28,0,0,0,0,.09v.13A5.15,5.15,0,0,0,42.14,27a3.54,3.54,0,0,0,.23.48,1.91,1.91,0,0,0,.16.27l0,.06a.08.08,0,0,0,0,0,3.37,3.37,0,0,0,.21.31l.08.09a1.56,1.56,0,0,0,.16.2l0,0,.09.1,0,0,.06.05a4.76,4.76,0,0,0,.46.43l0,0a3.06,3.06,0,0,0,.29.21l.12.09.12.08.07,0a6,6,0,0,0,.61.34,4.51,4.51,0,0,0,.63.29l.08,0,.1,0c.24.09.49.18.75.26l.2.05a6.75,6.75,0,0,0,.68.18l.18,0h.06l.68.11c.21,0,.43.06.65.07l.26,0a1.73,1.73,0,0,0,.32,0q.47,0,1,0a20.36,20.36,0,0,0,4.07-.43c.7-.15,1.42-.33,2.14-.54s1.45-.48,2.17-.77C66.38,26.31,71,20.34,69.29,16ZM58.13,27.49a22.06,22.06,0,0,1-3.38,1.08h0a19.22,19.22,0,0,1-4.23.51h-.24c-2.61,0-4.68-.77-5.72-1.95h0a2.78,2.78,0,0,1-.54-.85,4.39,4.39,0,0,1,.52-3.71,8.83,8.83,0,0,1,.94-1.44,17.65,17.65,0,0,1,5.7-4.56c.6-.32,1.22-.61,1.87-.88l.28-.12A20.49,20.49,0,0,1,60.93,14h.19a12.49,12.49,0,0,1,2,.18c2.2.37,3.78,1.31,4.32,2.63C68.58,19.6,65,24.69,58.13,27.49Z"/></g></svg>