<svg xmlns="http://www.w3.org/2000/svg" viewBox="0 0 80 80"><defs><style>.cls-1{fill:#7594f9;}.cls-2{fill:#fff;}</style></defs><title>mini_ikony</title><g id="Vrstva_7" data-name="Vrstva 7"><path class="cls-1" d="M36.36,35.32l-1.92-.71-4.58-1.72h0l-2-.73v.1A2.54,2.54,0,0,1,27.19,34l2,.73,4.7,1.76h0l2,.75a2.6,2.6,0,0,1,0-.4A2.57,2.57,0,0,1,36.36,35.32ZM67.94,57l-1.86,1-8.62,4.43-1.86,1a2.65,2.65,0,0,1,.94,1.76l1.85-.95L67,59.74l1.86-1A2.64,2.64,0,0,1,67.94,57Zm-32.19.41L34,58.4,29.22,61,27.4,62a2.63,2.63,0,0,1,1,1.74l1.82-1L35,60.08l1.9-1A2.6,2.6,0,0,1,35.75,57.41ZM14.19,51.5l-1.5-1.45a2.6,2.6,0,0,1-1.39,1.43l1.5,1.45,9,8.74,1.5,1.45a2.55,2.55,0,0,1,1.39-1.44l-1.5-1.45ZM50.41,62.36l-7.72-4.17-1.81-1a2.65,2.65,0,0,1-1.06,1.7l1.87,1,7.79,4.22,1.84,1a2.61,2.61,0,0,1,.92-1.77Zm21.12-10.1-.06-10.95V39.16a2.56,2.56,0,0,1-1.29.34,2.44,2.44,0,0,1-.71-.1v2h0l.06,10.82v2.1a2.44,2.44,0,0,1,1-.21,2.54,2.54,0,0,1,1,.2ZM66.54,34l-8-3.59-2.09-.94a2.84,2.84,0,0,1,.1.72,2.61,2.61,0,0,1-.38,1.35l1.84.82,7.66,3.44,1.89.85a2.63,2.63,0,0,1,.9-1.79ZM54.91,25.7l0-8.38V15.23a2.41,2.41,0,0,1-.93.18,2.57,2.57,0,0,1-1.07-.23v2.11l0,8.42v2.1a2.44,2.44,0,0,1,1-.21,2.54,2.54,0,0,1,1,.2ZM64.7,6.52a1,1,0,0,0-1.37-.37l-6,3.49-1.82,1a2.6,2.6,0,0,1,1,1.71l1.8-1,6-3.48A1,1,0,0,0,64.7,6.52ZM51.31,30.22a2.59,2.59,0,0,1,.17-.92l-2.16,1.12-7.15,3.71-1.82.94a2.57,2.57,0,0,1,.73,1.81v.06L43,36l6.86-3.56,1.78-.92A2.53,2.53,0,0,1,51.31,30.22ZM22.92,33.39,21.53,35l-9,10.1-1.39,1.56a2.54,2.54,0,0,1,1.49,1.33L14,46.38l9-10.09,1.39-1.56A2.55,2.55,0,0,1,22.92,33.39Z"/><path class="cls-1" d="M52.28,10.75a2.7,2.7,0,0,0-1,1.76l-1.82-1L43.17,7.89a1,1,0,0,1,1-1.74l6.31,3.58Z"/><path class="cls-1" d="M79.89,61.51a1,1,0,0,1-1.37.34l-4.13-2.48-1.72-1a2.65,2.65,0,0,0,.51-1.56,3.89,3.89,0,0,0,0-.49l2,1.19,4.43,2.66A1,1,0,0,1,79.89,61.51Z"/><path class="cls-1" d="M26.76,66.5V73a1,1,0,0,1-2,0V66.49a2.36,2.36,0,0,0,1,.21A2.51,2.51,0,0,0,26.76,66.5Z"/><path class="cls-1" d="M7.64,49.08a2.59,2.59,0,0,0,.2,1H1.1a1,1,0,0,1,0-2H7.84A2.59,2.59,0,0,0,7.64,49.08Z"/><path class="cls-1" d="M39.46,39.31V54.44a2.56,2.56,0,0,0-2-.14v-15a2.51,2.51,0,0,0,1,.2A2.7,2.7,0,0,0,39.46,39.31Z"/><path class="cls-2" d="M25.28,27.64a4.62,4.62,0,0,0-4.62,4.62c0,.15,0,.29,0,.43s0,.22,0,.33l.06.29a4.44,4.44,0,0,0,.38,1l.16.29,0,0c.06.09.12.19.19.28a4.08,4.08,0,0,0,.31.39q.18.19.36.36c.12.11.24.2.37.3a5.16,5.16,0,0,0,.46.29l0,0a4,4,0,0,0,.47.22,3.71,3.71,0,0,0,.47.16l.17,0a4.78,4.78,0,0,0,1.09.13,4,4,0,0,0,.6,0l.48-.09.25-.07a4.2,4.2,0,0,0,1.28-.61l.21-.15.32-.27,0,0c.13-.13.26-.26.38-.4l0,0c.1-.14.21-.28.3-.43a3.7,3.7,0,0,0,.25-.43,2.87,2.87,0,0,0,.18-.4l.06-.15c0-.13.08-.26.11-.39a3.06,3.06,0,0,0,.1-.51h0a2.45,2.45,0,0,0,0-.27,2.17,2.17,0,0,0,0-.36A4.62,4.62,0,0,0,25.28,27.64Zm2.62,4.62A2.54,2.54,0,0,1,27.19,34a2.57,2.57,0,0,1-1.91.84,2.47,2.47,0,0,1-.86-.15,2.63,2.63,0,0,1-1.76-2.47,2.62,2.62,0,0,1,5.24-.1Z"/><path class="cls-1" d="M25.28,27.64a4.62,4.62,0,0,0-4.62,4.62c0,.15,0,.29,0,.43s0,.22,0,.33l.06.29a4.44,4.44,0,0,0,.38,1l.16.29,0,0c.06.09.12.19.19.28a4.08,4.08,0,0,0,.31.39q.18.19.36.36c.12.11.24.2.37.3a5.16,5.16,0,0,0,.46.29l0,0a4,4,0,0,0,.47.22,3.71,3.71,0,0,0,.47.16l.17,0a4.78,4.78,0,0,0,1.09.13,4,4,0,0,0,.6,0l.48-.09.25-.07a4.2,4.2,0,0,0,1.28-.61l.21-.15.32-.27,0,0c.13-.13.26-.26.38-.4l0,0c.1-.14.21-.28.3-.43a3.7,3.7,0,0,0,.25-.43,2.87,2.87,0,0,0,.18-.4l.06-.15c0-.13.08-.26.11-.39a3.06,3.06,0,0,0,.1-.51,1.24,1.24,0,0,0,0-.27,2.17,2.17,0,0,0,0-.36A4.62,4.62,0,0,0,25.28,27.64Zm2.62,4.62A2.54,2.54,0,0,1,27.19,34a2.57,2.57,0,0,1-1.91.84,2.47,2.47,0,0,1-.86-.15,2.63,2.63,0,0,1-1.76-2.47,2.62,2.62,0,0,1,5.24-.1Z"/><path class="cls-2" d="M43,36c0-.15-.07-.3-.12-.45a2.47,2.47,0,0,0-.1-.29,2.29,2.29,0,0,0-.1-.23c0-.1-.1-.2-.15-.3a2.23,2.23,0,0,0-.2-.33,1.7,1.7,0,0,0-.15-.22l0,0a3.79,3.79,0,0,0-.32-.38c-.12-.13-.25-.25-.38-.37l-.28-.22-.07,0-.31-.19-.32-.17a1.23,1.23,0,0,0-.31-.14h0l-.25-.08a.43.43,0,0,0-.16,0l-.25-.07-.35-.07h0l-.26,0-.4,0a4.71,4.71,0,0,0-.53,0h0l-.24,0-.17,0-.12,0-.3.08-.29.1h0a1.78,1.78,0,0,0-.29.12l-.24.12A1.28,1.28,0,0,0,36,33l-.36.24-.06,0-.22.19a2,2,0,0,0-.21.2l-.2.22-.19.24a3.64,3.64,0,0,0-.3.46l0,0a3.61,3.61,0,0,0-.22.44.61.61,0,0,0,0,.12l-.09.24,0,.11a3.76,3.76,0,0,0-.19,1h0v.17a1.09,1.09,0,0,0,0,.18c0,.14,0,.27,0,.41l0,.26s0,.05,0,.08a.24.24,0,0,0,0,.08A1.73,1.73,0,0,0,34,38c0,.1,0,.2.08.3a2,2,0,0,0,.1.26,3.56,3.56,0,0,0,.41.8,3.69,3.69,0,0,0,.55.7,3.31,3.31,0,0,0,.27.26l.3.24a4.53,4.53,0,0,0,.66.41,4,4,0,0,0,.6.26l.5.14.49.08a4.35,4.35,0,0,0,1,0l.49-.08.5-.14a4,4,0,0,0,.6-.26,4.53,4.53,0,0,0,.66-.41l.3-.24a3.31,3.31,0,0,0,.27-.26,3.69,3.69,0,0,0,.55-.7,2.88,2.88,0,0,0,.22-.38,4,4,0,0,0,.2-.42l.09-.26c0-.1.06-.2.08-.3a1.73,1.73,0,0,0,.07-.31.24.24,0,0,0,0-.08s0-.05,0-.08l0-.26c0-.14,0-.27,0-.41A4.73,4.73,0,0,0,43,36Zm-3.53,3.36a2.7,2.7,0,0,1-1,.19,2.51,2.51,0,0,1-1-.2,2.63,2.63,0,0,1-1.59-2,2.6,2.6,0,0,1,0-.4,2.57,2.57,0,0,1,.52-1.56,2.62,2.62,0,0,1,2.1-1.06,2.63,2.63,0,0,1,2.62,2.62v.06A2.62,2.62,0,0,1,39.46,39.31Z"/><path class="cls-1" d="M43,36c0-.15-.07-.3-.12-.45a2.47,2.47,0,0,0-.1-.29,2.29,2.29,0,0,0-.1-.23c0-.1-.1-.2-.15-.3a2.23,2.23,0,0,0-.2-.33,1.7,1.7,0,0,0-.15-.22l0,0a3.79,3.79,0,0,0-.32-.38c-.12-.13-.25-.25-.38-.37l-.28-.22-.07,0-.31-.19-.32-.17a1.23,1.23,0,0,0-.31-.14h0l-.25-.08a.43.43,0,0,0-.16,0l-.25-.07-.35-.07h0l-.26,0-.4,0a4.71,4.71,0,0,0-.53,0h0l-.24,0-.17,0-.12,0-.3.08-.29.1h0a1.78,1.78,0,0,0-.29.12l-.24.12A1.28,1.28,0,0,0,36,33l-.36.24-.06,0-.22.19a2,2,0,0,0-.21.2l-.2.22-.19.24a3.64,3.64,0,0,0-.3.46l0,0a3.61,3.61,0,0,0-.22.44.61.61,0,0,0,0,.12l-.09.24,0,.11a4.75,4.75,0,0,0-.19,1,.91.91,0,0,0,0,.17,1.09,1.09,0,0,0,0,.18c0,.14,0,.27,0,.41l0,.26s0,.05,0,.08a.24.24,0,0,0,0,.08A1.73,1.73,0,0,0,34,38c0,.1,0,.2.08.3a2,2,0,0,0,.1.26,4.64,4.64,0,0,0,.41.8,5.29,5.29,0,0,0,.55.7,3.31,3.31,0,0,0,.27.26l.3.24a4.53,4.53,0,0,0,.66.41,4,4,0,0,0,.6.26l.5.14.49.08a4.35,4.35,0,0,0,1,0l.49-.08.5-.14a4,4,0,0,0,.6-.26,4.53,4.53,0,0,0,.66-.41l.3-.24a3.31,3.31,0,0,0,.27-.26,5.29,5.29,0,0,0,.55-.7,2.88,2.88,0,0,0,.22-.38,4,4,0,0,0,.2-.42l.09-.26c0-.1.06-.2.08-.3a1.73,1.73,0,0,0,.07-.31.24.24,0,0,0,0-.08s0-.05,0-.08l0-.26c0-.14,0-.27,0-.41A4.73,4.73,0,0,0,43,36Zm-3.53,3.36a2.7,2.7,0,0,1-1,.19,2.51,2.51,0,0,1-1-.2,2.63,2.63,0,0,1-1.59-2,2.6,2.6,0,0,1,0-.4,2.57,2.57,0,0,1,.52-1.56,2.62,2.62,0,0,1,2.1-1.06,2.63,2.63,0,0,1,2.62,2.62v.06A2.62,2.62,0,0,1,39.46,39.31Z"/><path class="cls-2" d="M70.17,32.26a4.58,4.58,0,0,0-.53,0h0l-.21,0-.2,0-.22.05a2.17,2.17,0,0,0-.36.12,2.65,2.65,0,0,0-.42.18l-.25.12a3.87,3.87,0,0,0-.34.21,3.32,3.32,0,0,0-.36.26l-.35.33-.34.39a3.27,3.27,0,0,0-.25.36,5.54,5.54,0,0,0-.3.53,3.69,3.69,0,0,0-.17.42,2.23,2.23,0,0,0-.13.44s0,0,0,0v0a4,4,0,0,0-.09.5,4.58,4.58,0,0,0,0,.53,4.8,4.8,0,0,0,.08.85,1.22,1.22,0,0,0,.06.26h0a2.62,2.62,0,0,0,.18.56l.09.23.15.3c.06.1.12.21.19.31a1.27,1.27,0,0,0,.13.19,3.65,3.65,0,0,0,.24.31l0,0a3.07,3.07,0,0,0,.25.26,3.9,3.9,0,0,0,.63.51l.38.23a4.26,4.26,0,0,0,.85.36l.32.08h0l.18,0h.12a5.36,5.36,0,0,0,.7,0l.39,0,.27,0,.33-.06.31-.08a2.06,2.06,0,0,0,.35-.12,1.19,1.19,0,0,0,.26-.11,1.23,1.23,0,0,0,.26-.12,4.23,4.23,0,0,0,.42-.25l.34-.24.35-.32q.15-.15.3-.33c.09-.11.18-.23.26-.35h0c.08-.12.15-.24.22-.37s.11-.22.16-.33a2.18,2.18,0,0,0,.09-.23,2,2,0,0,0,.11-.32,3.57,3.57,0,0,0,.1-.35.29.29,0,0,1,0-.09l0-.25a1,1,0,0,0,0-.25c0-.13,0-.26,0-.39A4.62,4.62,0,0,0,70.17,32.26Zm1.29,6.9a2.56,2.56,0,0,1-1.29.34,2.44,2.44,0,0,1-.71-.1,2.62,2.62,0,0,1-1.91-2.52,1.34,1.34,0,0,1,0-.2,2.62,2.62,0,1,1,3.9,2.48Z"/><path class="cls-1" d="M70.17,32.26a4.58,4.58,0,0,0-.53,0h0l-.21,0-.2,0-.22.05a2.17,2.17,0,0,0-.36.12,2.65,2.65,0,0,0-.42.18l-.25.12a3.87,3.87,0,0,0-.34.21,3.32,3.32,0,0,0-.36.26l-.35.33-.34.39a3.27,3.27,0,0,0-.25.36,5.54,5.54,0,0,0-.3.53,3.69,3.69,0,0,0-.17.42,2.23,2.23,0,0,0-.13.44s0,0,0,0v0a4,4,0,0,0-.09.5,4.58,4.58,0,0,0,0,.53,4.8,4.8,0,0,0,.08.85,1.22,1.22,0,0,0,.06.26h0a2.62,2.62,0,0,0,.18.56l.09.23.15.3c.06.1.12.21.19.31a1.27,1.27,0,0,0,.13.19,3.65,3.65,0,0,0,.24.31l0,0a3.07,3.07,0,0,0,.25.26,3.9,3.9,0,0,0,.63.51l.38.23a4.26,4.26,0,0,0,.85.36l.32.08h0l.18,0,.12,0a5.36,5.36,0,0,0,.7,0l.39,0,.27,0,.33-.06.31-.08a2.06,2.06,0,0,0,.35-.12,1.19,1.19,0,0,0,.26-.11,1.23,1.23,0,0,0,.26-.12,4.23,4.23,0,0,0,.42-.25l.34-.24.35-.32q.15-.15.3-.33c.09-.11.18-.23.26-.35h0c.08-.12.15-.24.22-.37s.11-.22.16-.33a2.18,2.18,0,0,0,.09-.23,2,2,0,0,0,.11-.32,3.57,3.57,0,0,0,.1-.35.29.29,0,0,1,0-.09l0-.25a1,1,0,0,0,0-.25c0-.13,0-.26,0-.39A4.62,4.62,0,0,0,70.17,32.26Zm1.29,6.9a2.56,2.56,0,0,1-1.29.34,2.44,2.44,0,0,1-.71-.1,2.62,2.62,0,0,1-1.91-2.52,1.34,1.34,0,0,1,0-.2,2.62,2.62,0,1,1,3.9,2.48Z"/><path class="cls-2" d="M14,46.38a4.68,4.68,0,0,0-1.5-1.33,4.55,4.55,0,0,0-2.25-.59,4.61,4.61,0,0,0-4.51,3.62,4.6,4.6,0,0,0,0,2,4.61,4.61,0,0,0,4.51,3.62,4.63,4.63,0,0,0,4.62-4.62A4.58,4.58,0,0,0,14,46.38Zm-2.71,5.1a2.62,2.62,0,1,1-1-5,2.47,2.47,0,0,1,.86.15,2.54,2.54,0,0,1,1.49,1.33,2.46,2.46,0,0,1,.27,1.14,2.63,2.63,0,0,1-1.58,2.4Z"/><path class="cls-1" d="M14,46.38a4.68,4.68,0,0,0-1.5-1.33,4.55,4.55,0,0,0-2.25-.59,4.61,4.61,0,0,0-4.51,3.62,4.6,4.6,0,0,0,0,2,4.61,4.61,0,0,0,4.51,3.62,4.63,4.63,0,0,0,4.62-4.62A4.58,4.58,0,0,0,14,46.38Zm-2.71,5.1a2.62,2.62,0,1,1-1-5,2.47,2.47,0,0,1,.86.15,2.54,2.54,0,0,1,1.49,1.33,2.46,2.46,0,0,1,.27,1.14,2.63,2.63,0,0,1-1.58,2.4Z"/><path class="cls-2" d="M30.36,63.68a1.09,1.09,0,0,0,0-.26v0a.07.07,0,0,0,0,0c0-.05,0-.09,0-.13a.5.5,0,0,0,0-.13c0-.11-.05-.21-.08-.32s-.11-.33-.17-.49-.14-.3-.22-.44a3.87,3.87,0,0,0-.27-.43,3.79,3.79,0,0,0-.31-.39l-.15-.16-.15-.15h0l-.06-.05-.24-.21a3.15,3.15,0,0,0-.27-.19L28,60l-.32-.16a2.18,2.18,0,0,0-.23-.09l0,0-.23-.08a2.25,2.25,0,0,0-.35-.09h0a3.85,3.85,0,0,0-.49-.08,4.36,4.36,0,0,0-.51,0,4.45,4.45,0,0,0-1.68.32l-.18.07,0,0-.07,0a5.09,5.09,0,0,0-.56.32,4,4,0,0,0-.78.64,3.9,3.9,0,0,0-.33.38h0l0,.05a2.82,2.82,0,0,0-.24.36c-.06.09-.11.18-.16.27a4.91,4.91,0,0,0-.25.57c0,.12-.09.25-.12.38s0,0,0,.06v0a3.4,3.4,0,0,0-.09.46,1.24,1.24,0,0,0,0,.27c0,.12,0,.25,0,.38s0,.27,0,.41l0,.25h0s0,0,0,.08a.24.24,0,0,0,0,.08,1.73,1.73,0,0,0,.07.31c0,.1.05.2.08.3a2.77,2.77,0,0,0,.1.26,1.19,1.19,0,0,0,.08.2l.15.3c.07.13.15.26.23.38a4.24,4.24,0,0,0,.5.62,3.31,3.31,0,0,0,.27.26l.3.24a4.53,4.53,0,0,0,.66.41,4,4,0,0,0,.6.26l.5.14.49.08a4.35,4.35,0,0,0,1,0l.49-.08.38-.1a2.19,2.19,0,0,0,.33-.12l.31-.14.19-.09c.12-.07.24-.14.35-.22l.2-.14a1.76,1.76,0,0,0,.3-.24,4.56,4.56,0,0,0,1-1.18,2.64,2.64,0,0,0,.15-.29s0,0,0,0l.12-.27a2.67,2.67,0,0,0,.09-.26c0-.1.06-.2.08-.3a1.08,1.08,0,0,0,.07-.31.24.24,0,0,0,0-.08s0,0,0-.08h0l0-.25c0-.14,0-.27,0-.41S30.37,63.81,30.36,63.68Zm-3.6,2.82a2.51,2.51,0,0,1-1,.2,2.36,2.36,0,0,1-1-.21,2.62,2.62,0,0,1-1.62-2.41,2.38,2.38,0,0,1,.19-1,2.55,2.55,0,0,1,1.39-1.44,2.58,2.58,0,0,1,1-.22A2.54,2.54,0,0,1,27.4,62a2.63,2.63,0,0,1,1,1.74c0,.1,0,.2,0,.3A2.62,2.62,0,0,1,26.76,66.5Z"/><path class="cls-1" d="M30.36,63.68a1.15,1.15,0,0,0,0-.26v0a.07.07,0,0,0,0,0c0-.05,0-.09,0-.13a.5.5,0,0,0,0-.13c0-.11-.05-.21-.08-.32s-.11-.33-.17-.49-.14-.3-.22-.44a3.87,3.87,0,0,0-.27-.43,3.79,3.79,0,0,0-.31-.39l-.15-.16-.15-.15h0l-.06-.05-.24-.21a3.15,3.15,0,0,0-.27-.19L28,60l-.32-.16a2.18,2.18,0,0,0-.23-.09l0,0-.23-.08a2.25,2.25,0,0,0-.35-.09h0a3.85,3.85,0,0,0-.49-.08,4.36,4.36,0,0,0-.51,0,4.45,4.45,0,0,0-1.68.32l-.18.07,0,0-.07,0a5.09,5.09,0,0,0-.56.32,4.44,4.44,0,0,0-.78.64,3.9,3.9,0,0,0-.33.38h0l0,.05a2.82,2.82,0,0,0-.24.36c-.06.09-.11.18-.16.27a4.91,4.91,0,0,0-.25.57c0,.12-.09.25-.12.38s0,0,0,.06v0a3.4,3.4,0,0,0-.09.46,1.24,1.24,0,0,0,0,.27c0,.12,0,.25,0,.38s0,.27,0,.41l0,.25h0s0,0,0,.08a.24.24,0,0,0,0,.08,1.73,1.73,0,0,0,.07.31c0,.1.05.2.08.3a2.77,2.77,0,0,0,.1.26,1.19,1.19,0,0,0,.08.2l.15.3c.07.13.15.26.23.38a5,5,0,0,0,.5.62,3.31,3.31,0,0,0,.27.26l.3.24a4.53,4.53,0,0,0,.66.41,4,4,0,0,0,.6.26l.5.14.49.08a4.35,4.35,0,0,0,1,0l.49-.08.38-.1a2.19,2.19,0,0,0,.33-.12l.31-.14.19-.09c.12-.07.24-.14.35-.22l.2-.14a1.76,1.76,0,0,0,.3-.24,4.56,4.56,0,0,0,1-1.18,2.64,2.64,0,0,0,.15-.29s0,0,0,0l.12-.27a2.67,2.67,0,0,0,.09-.26c0-.1.06-.2.08-.3a1.73,1.73,0,0,0,.07-.31.24.24,0,0,0,0-.08s0,0,0-.08h0l0-.25c0-.14,0-.27,0-.41S30.37,63.81,30.36,63.68Zm-3.6,2.82a2.51,2.51,0,0,1-1,.2,2.36,2.36,0,0,1-1-.21,2.62,2.62,0,0,1-1.62-2.41,2.38,2.38,0,0,1,.19-1,2.55,2.55,0,0,1,1.39-1.44,2.58,2.58,0,0,1,1-.22A2.54,2.54,0,0,1,27.4,62a2.63,2.63,0,0,1,1,1.74c0,.1,0,.2,0,.3A2.62,2.62,0,0,1,26.76,66.5Z"/><path class="cls-2" d="M42.89,56.38c0-.13,0-.26,0-.39s0-.16-.05-.24,0,0,0-.07l0-.09a2.81,2.81,0,0,0-.16-.49,4.9,4.9,0,0,0-.24-.52v0a3.13,3.13,0,0,0-.22-.36,4.18,4.18,0,0,0-.46-.58l-.21-.21a2.86,2.86,0,0,0-.43-.35l0,0L40.87,53a.6.6,0,0,0-.15-.09h0l-.07,0a.55.55,0,0,0-.14-.09l-.24-.12,0,0L40,52.5l-.06,0-.43-.14-.07,0h-.07l-.24-.06-.26,0-.25,0h-.35l-.42,0-.24,0h0l-.16,0-.16,0-.07,0-.22.05-.08,0a1.42,1.42,0,0,0-.29.1.85.85,0,0,0-.22.09,2.53,2.53,0,0,0-.33.16l-.38.23a3.15,3.15,0,0,0-.27.19l0,0a3.17,3.17,0,0,0-.34.3c-.12.12-.24.24-.35.37a3.32,3.32,0,0,0-.26.36c-.08.12-.16.25-.23.38a2.53,2.53,0,0,0-.16.33.85.85,0,0,0-.09.22.36.36,0,0,0,0,.09c0,.11-.07.22-.1.33a2.29,2.29,0,0,0-.07.28l0,.17s0,.06,0,.09v0h0l0,.24c0,.14,0,.28,0,.42s0,.28,0,.42a1.6,1.6,0,0,0,0,.23c0,.1,0,.19,0,.28h0c0,.15.07.3.12.44a2.25,2.25,0,0,0,.08.24l.12.29.15.3a4.28,4.28,0,0,0,.37.57l.18.23s0,0,0,0l.23.25,0,0a4.63,4.63,0,0,0,3.25,1.33,4.19,4.19,0,0,0,.5,0,4,4,0,0,0,.5-.08,3.94,3.94,0,0,0,.49-.14,2.26,2.26,0,0,0,.39-.15l.32-.16a3.79,3.79,0,0,0,.34-.2l.24-.17s0,0,0,0a1.43,1.43,0,0,0,.24-.19c.11-.1.21-.19.31-.3h0l0,0,0,0,0,0,.2-.25a12.86,12.86,0,0,0,.37-.56,5.18,5.18,0,0,0,.36-.84,1.89,1.89,0,0,0,.09-.34c0-.11,0-.23.07-.35a2.54,2.54,0,0,0,0-.29c0-.14,0-.28,0-.43S42.9,56.51,42.89,56.38Zm-3.07,2.53a2.55,2.55,0,0,1-1.53.5,2.62,2.62,0,0,1-.83-5.11,2.56,2.56,0,0,1,2,.14,2.62,2.62,0,0,1,1.45,2.34,3,3,0,0,1,0,.43A2.65,2.65,0,0,1,39.82,58.91Z"/><path class="cls-1" d="M42.89,56.38c0-.13,0-.26,0-.39s0-.16-.05-.24,0,0,0-.07l0-.09a2.81,2.81,0,0,0-.16-.49,4.9,4.9,0,0,0-.24-.52v0a3.13,3.13,0,0,0-.22-.36,4.18,4.18,0,0,0-.46-.58l-.21-.21a2.86,2.86,0,0,0-.43-.35l0,0L40.87,53a.6.6,0,0,0-.15-.09h0l-.07,0a.55.55,0,0,0-.14-.09l-.24-.12,0,0L40,52.5l-.06,0-.43-.14-.07,0h-.07l-.24-.06-.26,0-.25,0h-.35l-.42,0-.24,0h0l-.16,0-.16,0-.07,0-.22.05-.08,0a1.42,1.42,0,0,0-.29.1.85.85,0,0,0-.22.09,2.53,2.53,0,0,0-.33.16l-.38.23a3.15,3.15,0,0,0-.27.19l0,0a3.17,3.17,0,0,0-.34.3c-.12.12-.24.24-.35.37a3.32,3.32,0,0,0-.26.36c-.08.12-.16.25-.23.38a2.53,2.53,0,0,0-.16.33.85.85,0,0,0-.09.22.36.36,0,0,0,0,.09c0,.11-.07.22-.1.33a2.29,2.29,0,0,0-.07.28l0,.17s0,.06,0,.09v0h0l0,.24c0,.14,0,.28,0,.42s0,.28,0,.42a1.6,1.6,0,0,0,0,.23c0,.1,0,.19,0,.28h0c0,.15.07.3.12.44a2.25,2.25,0,0,0,.08.24l.12.29.15.3a4.28,4.28,0,0,0,.37.57l.18.23s0,0,0,0l.23.25,0,0a4.63,4.63,0,0,0,3.25,1.33,4.19,4.19,0,0,0,.5,0,4,4,0,0,0,.5-.08,3.94,3.94,0,0,0,.49-.14,2.26,2.26,0,0,0,.39-.15l.32-.16a3.79,3.79,0,0,0,.34-.2l.24-.17s0,0,0,0a1.43,1.43,0,0,0,.24-.19c.11-.1.21-.19.31-.3h0l0,0,0,0,0,0,.2-.25a12.86,12.86,0,0,0,.37-.56,5.18,5.18,0,0,0,.36-.84,1.89,1.89,0,0,0,.09-.34c0-.11,0-.23.07-.35a2.54,2.54,0,0,0,0-.29c0-.14,0-.28,0-.43S42.9,56.51,42.89,56.38Zm-3.07,2.53a2.55,2.55,0,0,1-1.53.5,2.62,2.62,0,0,1-.83-5.11,2.56,2.56,0,0,1,2,.14,2.62,2.62,0,0,1,1.45,2.34,3,3,0,0,1,0,.43A2.65,2.65,0,0,1,39.82,58.91Z"/><path class="cls-2" d="M75.16,56.37l0-.25h0s0,0,0-.08,0-.05,0-.08a1.73,1.73,0,0,0-.07-.31.29.29,0,0,0,0-.09c0-.11-.07-.23-.11-.34a1.94,1.94,0,0,0-.15-.36,2.44,2.44,0,0,0-.14-.28l0,0s0,0,0,0a2.26,2.26,0,0,0-.16-.26,4.26,4.26,0,0,0-.53-.66,3.07,3.07,0,0,0-.26-.25s0,0,0,0h0a1.66,1.66,0,0,0-.21-.16L73.14,53l-.38-.23-.41-.2-.42-.15-.4-.11a4,4,0,0,0-.48-.07,4.07,4.07,0,0,0-.5,0,4.41,4.41,0,0,0-.52,0l-.5.08-.36.1-.36.13-.15.06-.31.16L68,53a2.48,2.48,0,0,0-.26.19l-.22.18-.28.27a3.51,3.51,0,0,0-.48.6.22.22,0,0,0,0,.08,2,2,0,0,0-.19.31l-.15.3a1.19,1.19,0,0,0-.08.2,2.08,2.08,0,0,0-.12.32,2.37,2.37,0,0,0-.09.36.53.53,0,0,0,0,.12S66,56,66,56a0,0,0,0,0,0,0s0,0,0,.08h0l0,.25c0,.14,0,.27,0,.41s0,.23,0,.35l0,.25a3,3,0,0,0,.1.52s0,0,0,.05a2.46,2.46,0,0,0,.09.29c0,.1.07.2.11.3s0,.07,0,.11l.15.3,0,.07a2.5,2.5,0,0,0,.21.35,3.18,3.18,0,0,0,.27.37,3.89,3.89,0,0,0,.34.36,3.17,3.17,0,0,0,.34.3,2.86,2.86,0,0,0,.3.22l.38.23a2.1,2.1,0,0,0,.3.15,2.52,2.52,0,0,0,.29.12l.13,0,.14.05.28.08h0l.51.09a4.58,4.58,0,0,0,.53,0h.35l.24,0a3.35,3.35,0,0,0,.55-.11h0l.19,0,.19-.07h0l.3-.12a3,3,0,0,0,.4-.21.2.2,0,0,0,.09,0,2.2,2.2,0,0,0,.32-.21h0a3.93,3.93,0,0,0,.38-.31,4.89,4.89,0,0,0,.39-.4l.18-.22c.06-.07.11-.15.16-.22a5.08,5.08,0,0,0,.38-.69l.12-.3a.56.56,0,0,0,0-.12,3.37,3.37,0,0,0,.1-.34,3.12,3.12,0,0,0,.09-.44c0-.1,0-.2,0-.3s0-.26,0-.4S75.17,56.51,75.16,56.37Zm-2,.41a2.62,2.62,0,0,1-2.63,2.63,2.59,2.59,0,0,1-1.7-.63A2.64,2.64,0,0,1,67.94,57a1.62,1.62,0,0,1,0-.22,2.62,2.62,0,0,1,1.61-2.41,2.44,2.44,0,0,1,1-.21,2.54,2.54,0,0,1,1,.2,2.62,2.62,0,0,1,1.6,1.93A3.89,3.89,0,0,1,73.18,56.78Z"/><path class="cls-1" d="M75.16,56.37l0-.25h0s0,0,0-.08,0-.05,0-.08a1.73,1.73,0,0,0-.07-.31.29.29,0,0,0,0-.09c0-.11-.07-.23-.11-.34a1.94,1.94,0,0,0-.15-.36,2.44,2.44,0,0,0-.14-.28l0,0s0,0,0,0a2.26,2.26,0,0,0-.16-.26,4.26,4.26,0,0,0-.53-.66,3.07,3.07,0,0,0-.26-.25s0,0,0,0h0a1.66,1.66,0,0,0-.21-.16L73.14,53l-.38-.23-.41-.2-.42-.15-.4-.11a4,4,0,0,0-.48-.07,4.07,4.07,0,0,0-.5,0,4.41,4.41,0,0,0-.52,0l-.5.08-.36.1-.36.13-.15.06-.31.16L68,53a2.48,2.48,0,0,0-.26.19l-.22.18-.28.27a3.51,3.51,0,0,0-.48.6.22.22,0,0,0,0,.08,2,2,0,0,0-.19.31l-.15.3a1.19,1.19,0,0,0-.08.2,2.08,2.08,0,0,0-.12.32,2.37,2.37,0,0,0-.09.36.53.53,0,0,0,0,.12S66,56,66,56a0,0,0,0,0,0,0s0,0,0,.08h0l0,.25c0,.14,0,.27,0,.41s0,.23,0,.35l0,.25a3,3,0,0,0,.1.52s0,0,0,.05a2.46,2.46,0,0,0,.09.29c0,.1.07.2.11.3s0,.07,0,.11l.15.3,0,.07a2.5,2.5,0,0,0,.21.35,3.18,3.18,0,0,0,.27.37,3.89,3.89,0,0,0,.34.36,3.17,3.17,0,0,0,.34.3,2.86,2.86,0,0,0,.3.22l.38.23a2.1,2.1,0,0,0,.3.15,2.52,2.52,0,0,0,.29.12l.13,0,.14.05.28.08h0l.51.09a4.58,4.58,0,0,0,.53,0h.35l.24,0a3.35,3.35,0,0,0,.55-.11h0l.19,0,.19-.07h0l.3-.12a3,3,0,0,0,.4-.21.2.2,0,0,0,.09,0,2.2,2.2,0,0,0,.32-.21h0a3.93,3.93,0,0,0,.38-.31,4.89,4.89,0,0,0,.39-.4l.18-.22c.06-.07.11-.15.16-.22a5.08,5.08,0,0,0,.38-.69l.12-.3a.56.56,0,0,0,0-.12,3.37,3.37,0,0,0,.1-.34,3.12,3.12,0,0,0,.09-.44c0-.1,0-.2,0-.3s0-.26,0-.4S75.17,56.51,75.16,56.37Zm-2,.41a2.62,2.62,0,0,1-2.63,2.63,2.59,2.59,0,0,1-1.7-.63A2.64,2.64,0,0,1,67.94,57a1.62,1.62,0,0,1,0-.22,2.62,2.62,0,0,1,1.61-2.41,2.44,2.44,0,0,1,1-.21,2.54,2.54,0,0,1,1,.2,2.62,2.62,0,0,1,1.6,1.93A3.89,3.89,0,0,1,73.18,56.78Z"/><path class="cls-2" d="M58.53,65a1.23,1.23,0,0,0,0-.2,2.19,2.19,0,0,0,0-.27l-.06-.27a.36.36,0,0,0,0-.1s0-.05,0-.07-.08-.26-.13-.38,0,0,0,0l0,0a2.09,2.09,0,0,0-.14-.3,3.7,3.7,0,0,0-.31-.55,3.79,3.79,0,0,0-.3-.4L57.12,62,57,61.87l-.18-.15a2.8,2.8,0,0,0-.4-.27.24.24,0,0,0-.08-.06l-.21-.11-.26-.14L55.45,61a2.75,2.75,0,0,0-.49-.14,3.86,3.86,0,0,0-.51-.09,4.52,4.52,0,0,0-1,0l-.28,0a1.27,1.27,0,0,0-.28.06,3.74,3.74,0,0,0-.54.17,1.78,1.78,0,0,0-.29.12l-.06,0-.19.1-.08,0a1.83,1.83,0,0,0-.3.18,1.6,1.6,0,0,0-.31.22,1.58,1.58,0,0,0-.15.12l-.18.16a2.37,2.37,0,0,0-.27.28l-.07.07a.76.76,0,0,0-.08.11,1.86,1.86,0,0,0-.21.28,1.74,1.74,0,0,0-.11.18,2.82,2.82,0,0,0-.21.38.91.91,0,0,0-.09.17.87.87,0,0,0-.07.17,2.81,2.81,0,0,0-.16.49,3.1,3.1,0,0,0-.11.51,0,0,0,0,0,0,0s0,.07,0,.11a1.23,1.23,0,0,0,0,.2c0,.12,0,.24,0,.37a4.62,4.62,0,0,0,9.24,0C58.55,65.23,58.54,65.11,58.53,65Zm-4.6,3a2.62,2.62,0,0,1-2.62-2.62,1.77,1.77,0,0,1,0-.23,2.62,2.62,0,0,1,4.28-1.79,2.65,2.65,0,0,1,.94,1.76,2.26,2.26,0,0,1,0,.26A2.62,2.62,0,0,1,53.93,68Z"/><path class="cls-1" d="M58.53,65a1.23,1.23,0,0,0,0-.2,2.19,2.19,0,0,0,0-.27l-.06-.27a.36.36,0,0,0,0-.1s0-.05,0-.07-.08-.26-.13-.38,0,0,0,0l0,0a2.09,2.09,0,0,0-.14-.3,3.7,3.7,0,0,0-.31-.55,3.79,3.79,0,0,0-.3-.4L57.12,62,57,61.87l-.18-.15a2.8,2.8,0,0,0-.4-.27.24.24,0,0,0-.08-.06l-.21-.11-.26-.14L55.45,61a2.75,2.75,0,0,0-.49-.14,3.86,3.86,0,0,0-.51-.09,4.52,4.52,0,0,0-1,0l-.28,0a1.27,1.27,0,0,0-.28.06,3.74,3.74,0,0,0-.54.17,1.78,1.78,0,0,0-.29.12l-.06,0-.19.1-.08,0a1.83,1.83,0,0,0-.3.18,1.6,1.6,0,0,0-.31.22,1.58,1.58,0,0,0-.15.12l-.18.16a2.37,2.37,0,0,0-.27.28l-.07.07a.76.76,0,0,0-.08.11,1.86,1.86,0,0,0-.21.28,1.74,1.74,0,0,0-.11.18,2.82,2.82,0,0,0-.21.38.91.91,0,0,0-.09.17.87.87,0,0,0-.07.17,2.81,2.81,0,0,0-.16.49,3.1,3.1,0,0,0-.11.51,0,0,0,0,0,0,0s0,.07,0,.11a1.23,1.23,0,0,0,0,.2c0,.12,0,.24,0,.37a4.62,4.62,0,0,0,9.24,0C58.55,65.23,58.54,65.11,58.53,65Zm-4.6,3a2.62,2.62,0,0,1-2.62-2.62,1.77,1.77,0,0,1,0-.23,2.62,2.62,0,0,1,4.28-1.79,2.65,2.65,0,0,1,.94,1.76,2.26,2.26,0,0,1,0,.26A2.62,2.62,0,0,1,53.93,68Z"/><path class="cls-2" d="M58.53,29.81l0-.26s0-.05,0-.08,0,0,0-.08a1.73,1.73,0,0,0-.07-.31.29.29,0,0,0,0-.09c0-.11-.07-.23-.11-.34a1.94,1.94,0,0,0-.15-.36A2.44,2.44,0,0,0,58,28L58,28a1.22,1.22,0,0,0-.17-.29,3.74,3.74,0,0,0-.53-.66l-.16-.16-.2-.18,0,0a2.8,2.8,0,0,0-.33-.24,5.08,5.08,0,0,0-.76-.42l-.09,0a3.28,3.28,0,0,0-.75-.24,4,4,0,0,0-.48-.07,4.07,4.07,0,0,0-.5,0,4.41,4.41,0,0,0-.52,0l-.5.08-.36.1-.36.13L52,26l-.31.16-.38.23a2.48,2.48,0,0,0-.26.19l-.22.18-.28.27a3.51,3.51,0,0,0-.48.6.22.22,0,0,0,0,.08,2,2,0,0,0-.19.31l-.15.3a1.19,1.19,0,0,0-.08.2,2.08,2.08,0,0,0-.12.32,2.37,2.37,0,0,0-.09.36,1,1,0,0,0,0,.24,0,0,0,0,0,0,0s0,.05,0,.08l0,.26c0,.14,0,.27,0,.41a1.27,1.27,0,0,0,0,.2,4.36,4.36,0,0,0,0,.52,4.19,4.19,0,0,0,.11.51,2.46,2.46,0,0,0,.16.48,3.49,3.49,0,0,0,.2.44s0,0,0,0,.17.3.27.45l.12.17,0,0c.09.12.19.23.29.34a4.17,4.17,0,0,0,.43.41l.41.29a2.9,2.9,0,0,0,.33.2,4.74,4.74,0,0,0,.51.24l.31.11.37.1.36.06a1.24,1.24,0,0,0,.27,0l.38,0,.38,0a1.24,1.24,0,0,0,.27,0l.36-.06.37-.1.31-.11a4.74,4.74,0,0,0,.51-.24,2.9,2.9,0,0,0,.33-.2l.41-.29a4.17,4.17,0,0,0,.43-.41c.1-.11.2-.22.29-.34l0,0,.12-.17q.15-.23.27-.45s0,0,0,0l.21-.45a0,0,0,0,1,0,0c0-.16.11-.32.15-.49s.06-.25.09-.37,0,0,0-.05v0a2.73,2.73,0,0,0,0-.5,1.62,1.62,0,0,0,0-.22C58.55,30.08,58.54,30,58.53,29.81Zm-2,.41a2.62,2.62,0,0,1-4.92,1.25,2.53,2.53,0,0,1-.32-1.25,2.62,2.62,0,0,1,1.61-2.41,2.44,2.44,0,0,1,1-.21,2.54,2.54,0,0,1,1,.2,2.64,2.64,0,0,1,1.53,1.7A2.84,2.84,0,0,1,56.55,30.22Z"/><path class="cls-1" d="M58.53,29.81l0-.26s0-.05,0-.08,0,0,0-.08a1.73,1.73,0,0,0-.07-.31.29.29,0,0,0,0-.09c0-.11-.07-.23-.11-.34a1.94,1.94,0,0,0-.15-.36A2.44,2.44,0,0,0,58,28L58,28a1.22,1.22,0,0,0-.17-.29,3.74,3.74,0,0,0-.53-.66l-.16-.16-.2-.18,0,0a2.8,2.8,0,0,0-.33-.24,5.08,5.08,0,0,0-.76-.42l-.09,0a3.28,3.28,0,0,0-.75-.24,4,4,0,0,0-.48-.07,4.07,4.07,0,0,0-.5,0,4.41,4.41,0,0,0-.52,0l-.5.08-.36.1-.36.13L52,26l-.31.16-.38.23a2.48,2.48,0,0,0-.26.19l-.22.18-.28.27a3.51,3.51,0,0,0-.48.6.22.22,0,0,0,0,.08,2,2,0,0,0-.19.31l-.15.3a1.19,1.19,0,0,0-.08.2,2.08,2.08,0,0,0-.12.32,2.37,2.37,0,0,0-.09.36,1,1,0,0,0,0,.24,0,0,0,0,0,0,0s0,.05,0,.08l0,.26c0,.14,0,.27,0,.41a1.27,1.27,0,0,0,0,.2,4.36,4.36,0,0,0,0,.52,4.19,4.19,0,0,0,.11.51,2.46,2.46,0,0,0,.16.48,3.49,3.49,0,0,0,.2.44s0,0,0,0,.17.3.27.45l.12.17,0,0c.09.12.19.23.29.34a4.17,4.17,0,0,0,.43.41l.41.29a2.9,2.9,0,0,0,.33.2,4.74,4.74,0,0,0,.51.24l.31.11.37.1.36.06a1.24,1.24,0,0,0,.27,0l.38,0,.38,0a1.24,1.24,0,0,0,.27,0l.36-.06.37-.1.31-.11a4.74,4.74,0,0,0,.51-.24,2.9,2.9,0,0,0,.33-.2l.41-.29a4.17,4.17,0,0,0,.43-.41c.1-.11.2-.22.29-.34l0,0,.12-.17q.15-.23.27-.45s0,0,0,0l.21-.45a0,0,0,0,1,0,0c0-.16.11-.32.15-.49s.06-.25.09-.37,0,0,0-.05v0a4.23,4.23,0,0,0,0-.5,1.62,1.62,0,0,0,0-.22C58.55,30.08,58.54,30,58.53,29.81Zm-2,.41a2.62,2.62,0,0,1-4.92,1.25,2.53,2.53,0,0,1-.32-1.25,2.62,2.62,0,0,1,1.61-2.41,2.44,2.44,0,0,1,1-.21,2.54,2.54,0,0,1,1,.2,2.64,2.64,0,0,1,1.53,1.7A2.84,2.84,0,0,1,56.55,30.22Z"/><path class="cls-2" d="M58.53,12.36c0-.1,0-.2,0-.3l-.06-.31c0-.13-.07-.26-.11-.39v0l-.15-.4L58,10.57a3.21,3.21,0,0,0-.19-.31,2,2,0,0,0-.21-.3,2.09,2.09,0,0,0-.24-.28l0,0h0c-.1-.11-.21-.21-.32-.31l-.24-.2-.07,0h0a4.47,4.47,0,0,0-.85-.49l-.11-.05-.11,0-.22-.08-.12,0-.38-.1a4.73,4.73,0,0,0-.93-.09l-.51,0a3.85,3.85,0,0,0-.49.08,3.28,3.28,0,0,0-.61.18l0,0a2.18,2.18,0,0,0-.23.09l-.32.16a2.5,2.5,0,0,0-.35.21l-.22.16a2.34,2.34,0,0,0-.35.29c-.12.11-.23.22-.34.34a2.65,2.65,0,0,0-.21.26l0,.06,0,.06a.86.86,0,0,0-.1.16,2.14,2.14,0,0,0-.2.32,4.08,4.08,0,0,0-.37.89c0,.1-.06.21-.08.31a1.85,1.85,0,0,0,0,.23,0,0,0,0,0,0,0s0,0,0,.06v0l0,.26c0,.13,0,.27,0,.4s0,.27,0,.4,0,.26.05.39h0a1.89,1.89,0,0,0,0,.23,1.89,1.89,0,0,0,.09.34c0,.09.06.19.1.28s.07.18.11.27a2.44,2.44,0,0,0,.14.28,4.36,4.36,0,0,0,.46.69l.25.29a3.31,3.31,0,0,0,.27.26l.22.19,0,0,.24.17a3.28,3.28,0,0,0,.37.22,4.28,4.28,0,0,0,1.14.44h.05a3.11,3.11,0,0,0,.44.07h0a4.58,4.58,0,0,0,.53,0,4.83,4.83,0,0,0,.94-.09l.44-.12.36-.13.14-.06.32-.16a2.23,2.23,0,0,0,.33-.2.8.8,0,0,0,.21-.15,2.92,2.92,0,0,0,.28-.21l0,0a2.27,2.27,0,0,0,.31-.31h0l.11-.12s0,0,0,0a4.23,4.23,0,0,0,.32-.42c.08-.12.16-.25.23-.38a3,3,0,0,0,.16-.31,1.67,1.67,0,0,1,.08-.2l0-.05A3.37,3.37,0,0,0,58.4,14v-.06c0-.12.06-.26.08-.39s0-.2,0-.3,0-.27,0-.41S58.54,12.5,58.53,12.36Zm-3.67,2.87a2.41,2.41,0,0,1-.93.18,2.57,2.57,0,0,1-1.07-.23,2.69,2.69,0,0,1-1.54-2.67,2.7,2.7,0,0,1,1-1.76,2.65,2.65,0,0,1,1.65-.58,2.57,2.57,0,0,1,1.56.52,2.6,2.6,0,0,1,1,1.71,2.56,2.56,0,0,1,0,.39A2.6,2.6,0,0,1,54.86,15.23Z"/><path class="cls-1" d="M58.53,12.36c0-.1,0-.2,0-.3l-.06-.31c0-.13-.07-.26-.11-.39v0l-.15-.4L58,10.57a3.21,3.21,0,0,0-.19-.31,2,2,0,0,0-.21-.3,2.09,2.09,0,0,0-.24-.28l0,0h0c-.1-.11-.21-.21-.32-.31l-.24-.2-.07,0h0a4.47,4.47,0,0,0-.85-.49l-.11-.05-.11,0-.22-.08-.12,0-.38-.1a4.73,4.73,0,0,0-.93-.09l-.51,0a3.85,3.85,0,0,0-.49.08,3.28,3.28,0,0,0-.61.18l0,0a2.18,2.18,0,0,0-.23.09l-.32.16a2.5,2.5,0,0,0-.35.21l-.22.16a2.34,2.34,0,0,0-.35.29c-.12.11-.23.22-.34.34a2.65,2.65,0,0,0-.21.26l0,.06,0,.06a.86.86,0,0,0-.1.16,2.14,2.14,0,0,0-.2.32,4.08,4.08,0,0,0-.37.89c0,.1-.06.21-.08.31a1.85,1.85,0,0,0,0,.23,0,0,0,0,0,0,0s0,0,0,.06v0l0,.26c0,.13,0,.27,0,.4s0,.27,0,.4,0,.26.05.39h0a1.89,1.89,0,0,0,0,.23,1.89,1.89,0,0,0,.09.34c0,.09.06.19.1.28s.07.18.11.27a2.44,2.44,0,0,0,.14.28,4.36,4.36,0,0,0,.46.69l.25.29a3.31,3.31,0,0,0,.27.26l.22.19,0,0,.24.17a3.28,3.28,0,0,0,.37.22,4.28,4.28,0,0,0,1.14.44h.05a3.11,3.11,0,0,0,.44.07h0a4.58,4.58,0,0,0,.53,0,4.83,4.83,0,0,0,.94-.09l.44-.12.36-.13.14-.06.32-.16a2.23,2.23,0,0,0,.33-.2.8.8,0,0,0,.21-.15,2.92,2.92,0,0,0,.28-.21l0,0a2.27,2.27,0,0,0,.31-.31h0l.11-.12s0,0,0,0a4.23,4.23,0,0,0,.32-.42c.08-.12.16-.25.23-.38a3,3,0,0,0,.16-.31,1.67,1.67,0,0,1,.08-.2l0-.05A3.37,3.37,0,0,0,58.4,14v-.06c0-.12.06-.26.08-.39s0-.2,0-.3,0-.27,0-.41S58.54,12.5,58.53,12.36Zm-3.67,2.87a2.41,2.41,0,0,1-.93.18,2.57,2.57,0,0,1-1.07-.23,2.69,2.69,0,0,1-1.54-2.67,2.7,2.7,0,0,1,1-1.76,2.65,2.65,0,0,1,1.65-.58,2.57,2.57,0,0,1,1.56.52,2.6,2.6,0,0,1,1,1.71,2.56,2.56,0,0,1,0,.39A2.6,2.6,0,0,1,54.86,15.23Z"/></g></svg>