<svg xmlns="http://www.w3.org/2000/svg" viewBox="0 0 80 80"><defs><style>.cls-1{fill:#7594f9;}.cls-2{fill:#fff;}</style></defs><title>mini_ikony</title><g id="Vrstva_16" data-name="Vrstva 16"><path class="cls-1" d="M78.91,79.91H1.18a1,1,0,0,1-1-1V9.1a1,1,0,0,1,2,0V77.91H78.91a1,1,0,0,1,0,2Z"/><path class="cls-1" d="M17.12,64.34H7.51a1,1,0,0,0-1,1V78.91a1,1,0,0,0,1,1h9.61a1,1,0,0,0,1-1V65.34A1,1,0,0,0,17.12,64.34ZM8.51,77.91V66.34h7.61V77.91Z"/><path class="cls-1" d="M31.73,48.18H22.12a1,1,0,0,0-1,1V78.91a1,1,0,0,0,1,1h9.61a1,1,0,0,0,1-1V49.18A1,1,0,0,0,31.73,48.18ZM23.12,77.91V50.18h7.61V77.91Z"/><path class="cls-1" d="M46.34,44H36.73a1,1,0,0,0-1,1v33.9a1,1,0,0,0,1,1h9.61a1,1,0,0,0,1-1V45A1,1,0,0,0,46.34,44Zm-8.61,33.9V46h7.61v31.9Z"/><path class="cls-1" d="M61,25.18H51.34a1,1,0,0,0-1,1V78.91a1,1,0,0,0,1,1H61a1,1,0,0,0,1-1V26.18A1,1,0,0,0,61,25.18ZM52.34,77.91V27.18H60V77.91Z"/><path class="cls-1" d="M75.56,12.18H66a1,1,0,0,0-1,1V78.91a1,1,0,0,0,1,1h9.61a1,1,0,0,0,1-1V13.18A1,1,0,0,0,75.56,12.18ZM67,77.91V14.18h7.61V77.91Z"/><path class="cls-1" d="M56.25,12.94l-.61.79-.62.79L42.79,30.37a1.07,1.07,0,0,1-.37.3L27.52,37.5,13,52.77a.92.92,0,0,1-.35.24L1.56,57.56a1,1,0,0,1-.38.08A1,1,0,0,1,.25,57a1,1,0,0,1,.55-1.3l10.93-4.47L26.2,36a1,1,0,0,1,.31-.22L41.36,29l12.1-15.69.62-.79.61-.79Z"/><path class="cls-2" d="M55.36,7.72,50.51,9.6l3.57,2.87.48.39,1.08.87,3,2.39L59.4,11l.8-5.13Zm2.52,6.53-1.63-1.31-1.56-1.26-2.2-1.77L59,7.41Z"/><path class="cls-1" d="M60.83,5.07a1,1,0,0,0-1-.15L50.15,8.67a1,1,0,0,0-.63.78,1,1,0,0,0,.36.93l3.58,2.88L55,14.52l3,2.38a1,1,0,0,0,.63.22.92.92,0,0,0,.36-.07,1,1,0,0,0,.62-.78L61.19,6A1,1,0,0,0,60.83,5.07Zm-4.58,7.87-1.56-1.26-2.2-1.77L59,7.41l-1.07,6.84Z"/></g></svg>