<svg xmlns="http://www.w3.org/2000/svg" viewBox="0 0 80 80"><defs><style>.cls-1{fill:#7594f9;}</style></defs><title>mini_ikony</title><g id="Vrstva_8" data-name="Vrstva 8"><path class="cls-1" d="M75.16,19.44c-2.3-4-8.42-5.11-16.48-3.74-.64.11-1.3.24-2,.39a78.65,78.65,0,0,0-18.5,6.76q-1.41.72-2.85,1.5h0c-.94.5-1.88,1-2.82,1.58s-1.86,1.1-2.76,1.66-1.83,1.15-2.72,1.75A79.28,79.28,0,0,0,12,42.06q-.69.77-1.32,1.53l-.17.21c-3.8,4.67-5.74,8.92-5.69,12.35a7.29,7.29,0,0,0,.94,3.58,6.64,6.64,0,0,0,1.86,2.06c2,1.49,4.85,2.24,8.53,2.24a35.5,35.5,0,0,0,5.8-.52l.28,0c.65-.11,1.31-.23,2-.38A79.36,79.36,0,0,0,42.7,56.32q1.44-.7,2.88-1.5h0c.94-.5,1.88-1,2.81-1.57s1.86-1.1,2.76-1.66,1.83-1.16,2.71-1.75A78.7,78.7,0,0,0,68.93,37.13q.69-.77,1.32-1.53C74,31,76.1,26.67,76.1,23.12A7.25,7.25,0,0,0,75.16,19.44Zm-6.6,15c-.41.51-.86,1-1.34,1.54A75.63,75.63,0,0,1,54.86,46.72c-.86.62-1.74,1.22-2.65,1.81q-2.33,1.55-4.82,3t-5,2.7c-1,.5-1.93,1-2.89,1.42a75.11,75.11,0,0,1-15.48,5.43c-.67.15-1.33.28-2,.39l-.46.08c-5.58.92-9.92.53-12.42-1.06A5.22,5.22,0,0,1,7.5,58.73a5.44,5.44,0,0,1-.66-3.06C7,52.8,8.77,49.11,12.07,45.06l.29-.34c.42-.51.86-1,1.33-1.54h0A74,74,0,0,1,26.07,32.44c.87-.62,1.75-1.22,2.66-1.81,1.55-1,3.16-2,4.81-3s3.33-1.87,5-2.7c1-.5,1.93-1,2.89-1.41a75.35,75.35,0,0,1,15.45-5.42c.67-.16,1.33-.29,2-.41a34.93,34.93,0,0,1,6-.59c4.19,0,7.25,1.07,8.56,3.31C75.3,23.66,73.28,28.81,68.56,34.45Z"/><path class="cls-1" d="M58.83,17.72c0-.69-.08-1.36-.15-2a2.45,2.45,0,0,0,0-.27A27.23,27.23,0,0,0,56,5.43,8.69,8.69,0,0,0,50.75.81c-3.83-1-8.28,1.41-12.66,6.86-.49.6-1,1.24-1.46,1.92-.67.93-1.32,1.92-2,3a70.49,70.49,0,0,0-4.66,9q-.42.95-.81,1.92Q28,26.32,27.05,29.34c-.34,1-.67,2.05-1,3.1s-.59,2.06-.87,3.1A98.69,98.69,0,0,0,22.72,48c-.1.71-.19,1.42-.26,2.11a68.57,68.57,0,0,0-.36,11.4c0,.68.08,1.35.14,2l0,.28c.85,8.3,3.66,13.5,7.91,14.62a6.83,6.83,0,0,0,1.75.23c3.84,0,8.17-3.13,12.37-9a65.42,65.42,0,0,0,6.62-12c.28-.63.55-1.27.82-1.93.76-1.87,1.48-3.82,2.13-5.83q.52-1.55,1-3.12c.31-1,.6-2,.87-3.08a99.19,99.19,0,0,0,2.48-12.42c.1-.71.19-1.41.26-2.1A68.54,68.54,0,0,0,58.83,17.72ZM56.31,30.41A97.62,97.62,0,0,1,53.8,43.12c-.49,1.84-1,3.65-1.59,5.41q-.51,1.56-1.05,3.06c-.48,1.32-1,2.6-1.49,3.84-.27.65-.54,1.29-.82,1.92a63.67,63.67,0,0,1-6.18,11.07c-4.27,6-8.63,8.9-12,8S25,70.85,24.26,63.54c0-.15,0-.3,0-.46-.07-.65-.12-1.33-.15-2a66.13,66.13,0,0,1,.31-10.21c.07-.69.15-1.39.24-2.09a97.76,97.76,0,0,1,2.51-12.72q.74-2.76,1.6-5.42c.33-1,.68-2,1-3,.48-1.32,1-2.61,1.5-3.86.26-.65.53-1.28.81-1.9a65.6,65.6,0,0,1,4.2-8.08c.64-1.05,1.3-2.06,2-3,.5-.7,1-1.36,1.51-2C43,4.76,46.29,2.59,49,2.59a5,5,0,0,1,1.23.15c3.34.89,5.68,5.59,6.43,12.9,0,.15,0,.3,0,.45q.1,1,.15,2a67,67,0,0,1-.31,10.18Q56.44,29.35,56.31,30.41Z"/><path class="cls-1" d="M70.25,35.6c-.54-.39-1.11-.78-1.69-1.15a68.15,68.15,0,0,0-10.09-5.33q-.94-.42-1.92-.81a101.12,101.12,0,0,0-12-4c-1-.28-2.07-.53-3.1-.77s-2.14-.49-3.2-.7q-3.12-.62-6.13-1c-.7-.09-1.39-.18-2.07-.25a66,66,0,0,0-13.7-.19C8,22.24,2.82,25.05,1.69,29.3c-1.17,4.43,2.33,9.57,9,14.29.54.38,1.09.76,1.67,1.13a68.73,68.73,0,0,0,10.1,5.34c.63.27,1.27.54,1.92.8a99.33,99.33,0,0,0,12,4c1,.28,2.09.54,3.13.78s2.11.47,3.15.68c2.08.42,4.14.76,6.15,1l2.07.25a76.57,76.57,0,0,0,8.09.46,55.81,55.81,0,0,0,5.61-.27l1.19-.14a31.57,31.57,0,0,0,6-1.33c4.12-1.4,6.69-3.6,7.45-6.45C80.41,45.45,76.91,40.31,70.25,35.6Zm7.06,13.76c-.57,2.14-2.7,3.87-6.08,5a28.54,28.54,0,0,1-5.72,1.28l-1.09.13a62.93,62.93,0,0,1-12.68-.13c-.68-.07-1.38-.15-2.07-.24-1.34-.16-2.71-.37-4.08-.61h0c-1-.18-2.09-.38-3.14-.6-1.82-.37-3.66-.81-5.51-1.3a96.5,96.5,0,0,1-12.31-4.15c-.65-.27-1.28-.54-1.9-.82a68.69,68.69,0,0,1-9-4.77h0L12,42.06c-5.34-3.72-8.55-7.63-8.55-11a4.86,4.86,0,0,1,.16-1.27c.89-3.35,5.59-5.69,12.89-6.44a52.21,52.21,0,0,1,5.43-.27,71,71,0,0,1,7.26.39l2.07.23c1.34.18,2.7.38,4.08.62h0c1,.19,2.1.39,3.16.61q2.71.55,5.48,1.29a96.49,96.49,0,0,1,12.31,4.16c.65.26,1.28.53,1.9.81a69.18,69.18,0,0,1,9,4.77q.89.57,1.71,1.14C75,41.32,78.27,45.76,77.31,49.36Z"/><circle class="cls-1" cx="37.27" cy="10.73" r="3.17"/><circle class="cls-1" cx="6.52" cy="58.83" r="3.17"/><circle class="cls-1" cx="68.63" cy="56.21" r="3.17"/><path class="cls-1" d="M40.47,34.94a4.64,4.64,0,1,0,4.63,4.63A4.64,4.64,0,0,0,40.47,34.94Zm0,7.27a2.64,2.64,0,1,1,2.63-2.64A2.64,2.64,0,0,1,40.47,42.21Z"/></g></svg>