<svg xmlns="http://www.w3.org/2000/svg" viewBox="0 0 80 80"><defs><style>.cls-1{fill:none;stroke:#7594f9;stroke-miterlimit:10;stroke-width:4px;}.cls-2{fill:#7594f9;}</style></defs><title>mini_ikony2</title><g id="Vrstva_4" data-name="Vrstva 4"><circle class="cls-1" cx="39.92" cy="40.02" r="37.86"/><path class="cls-2" d="M55.25,68.5h0a32.11,32.11,0,0,0,1-55.89l-13,11.09L37,25.15l-1.65,4.11,3.3,3.86,2-2.57,2.93,4.7L42,40.83l2.79,3.59,7-4.27,5.05-4.27,5.17,8.95L50.21,51,51,59.18l3.34,3.72S54.94,68.33,55.25,68.5Z"/><path class="cls-2" d="M32,71.37,29.09,60.71,17.85,56.39,12.59,57A32.16,32.16,0,0,0,32,71.37Z"/><path class="cls-2" d="M7.88,40.26A32.17,32.17,0,0,0,10.07,52l5.09-3.15-1.05-6.54,7.37-11.68L19.17,28l1.06-3.6,11.25-2.83L27.38,15H20.23A32.05,32.05,0,0,0,7.88,40.26Z"/><path class="cls-2" d="M9.63,78.73a8.51,8.51,0,0,1-6.26-2.21C0,73.1.53,66.18,5,57l.26-.53,1.15,2.18-.23.12.24.14C2.84,66.6,2.26,72.48,4.84,75.06a6.52,6.52,0,0,0,4.78,1.6c3.34,0,7.8-1.36,12.9-3.93C31.43,68.24,41.58,60.53,51.08,51S68.3,31.37,72.79,22.46C77,14,77.89,7.56,75.11,4.78a6.52,6.52,0,0,0-4.78-1.6c-3,0-7,1.14-11.57,3.29l-.16-.21-.1.2L56.32,5.32l.53-.26c5.23-2.59,9.89-3.95,13.48-3.95a8.47,8.47,0,0,1,6.25,2.21C80,6.77,79.42,13.75,74.87,23S62.44,42.6,52.55,52.49C36.61,68.43,19.76,78.73,9.63,78.73Z"/><path class="cls-2" d="M9.63,79.44A9.17,9.17,0,0,1,2.88,77C-.77,73.37-.24,66.16,4.37,56.72L5.24,55,7,58.36l-.75.39.78.48C3.61,66.62,3,72.2,5.34,74.56A5.77,5.77,0,0,0,9.62,76c3.23,0,7.58-1.33,12.58-3.85C31.05,67.64,41.13,60,50.59,50.53S67.7,31,72.16,22.14c4-8,5-14.35,2.46-16.86a5.86,5.86,0,0,0-4.29-1.4C67.41,3.88,63.51,5,59.06,7.1l-.54-.68-.35.66-3.4-1.77,1.76-.88c5.41-2.67,10-4,13.8-4a9.18,9.18,0,0,1,6.75,2.41c7.45,7.45-2.89,29-24,50.17C37,69.05,19.94,79.44,9.63,79.44Z"/><path class="cls-2" d="M76.37,3.53C72.9.05,65.78,1,57,5.33l1.66.86h0c4.65-2.2,8.64-3.32,11.7-3.32a6.83,6.83,0,0,1,5,1.69c2.87,2.88,2,9.45-2.28,18-4.5,9-12.23,19.12-21.76,28.65S31.59,68.49,22.65,73c-8.57,4.33-15.14,5.15-18,2.28-2.7-2.7-2.13-8.65,1.52-16.46h0l-.87-1.66C1,65.85.14,72.87,3.59,76.31a8.22,8.22,0,0,0,6.05,2.13c9.72,0,26.53-10,42.7-26.16C72.74,31.87,83.3,10.46,76.37,3.53Z"/></g></svg>