<svg xmlns="http://www.w3.org/2000/svg" viewBox="0 0 80 80"><defs><style>.cls-1,.cls-2{fill:none;stroke:#7594f9;stroke-width:4px;}.cls-1{stroke-miterlimit:10;}.cls-2{stroke-linecap:round;stroke-linejoin:round;}.cls-3{fill:#7594f9;}</style></defs><title>mini_ikony2</title><g id="Vrstva_10" data-name="Vrstva 10"><path class="cls-1" d="M39.9,28.79V40.08l9.49,6.1a11.17,11.17,0,0,0,1.8-6.1A11.28,11.28,0,0,0,39.9,28.79Z"/><path class="cls-2" d="M39.9,9.56V2.17A37.91,37.91,0,1,0,71.79,60.56l-6.22-4"/><path class="cls-2" d="M39.9,2.17V9.56a30.51,30.51,0,0,1,25.67,47l6.22,4A37.91,37.91,0,0,0,39.9,2.17Z"/><path class="cls-2" d="M49.39,46.18,65.57,56.57a30.51,30.51,0,0,0-25.67-47V28.79"/><circle class="cls-2" cx="39.9" cy="40.08" r="37.9"/><polyline class="cls-3" points="55.16 49.88 47.39 56.57 46.03 70.88 36.89 74.64 30.91 63.97 22.05 62.44 16.89 48.02 33.71 41.49 39.9 44.53 46.03 44.02 39.9 40.08 39.9 30.96 34.02 31.04 31.23 36.96 23.59 33.06 28 29.84 26.58 24.26 35.47 19.37 34.37 17.65 31.06 18.67 28.78 16.75 35.63 9.56 39.9 14.23 39.9 40.08 55.16 49.88"/><polyline class="cls-2" points="58.31 51.9 39.9 40.08 39.9 21.64"/></g></svg>