<svg xmlns="http://www.w3.org/2000/svg" viewBox="0 0 80 80"><defs><style>.cls-1{fill:#7594f9;}</style></defs><title>mini_ikony</title><g id="Vrstva_10" data-name="Vrstva 10"><path class="cls-1" d="M40.92,27.62c-.33,0-.66,0-1,0h-1v13l.46.29,3.73,2.4L45.86,45h0l3.06,2,.89.58.55-.84c.18-.28.35-.57.5-.86h0a12.43,12.43,0,0,0-10-18.23Zm0,11.83V29.63A10.43,10.43,0,0,1,50.34,40a10.24,10.24,0,0,1-1.16,4.76l-2.51-1.61Z"/><path class="cls-1" d="M39.92,79.34a39.34,39.34,0,0,1,0-78.68,1,1,0,0,1,1,1V9.13a1,1,0,1,1-2,0V2.67A37.34,37.34,0,1,0,70.78,61l-5.43-3.49a1,1,0,0,1,1.08-1.69l6.29,4a1,1,0,0,1,.43.63,1,1,0,0,1-.13.75A39.2,39.2,0,0,1,39.92,79.34Z"/><path class="cls-1" d="M69.37,52.18c.3-.7.56-1.4.79-2.12C69.92,50.78,69.66,51.49,69.37,52.18Zm-28.45-44h0Zm28.45,44c.3-.7.56-1.4.79-2.12C69.92,50.78,69.66,51.49,69.37,52.18Zm-28.45-44h0Zm28.45,44c.3-.7.56-1.4.79-2.12C69.92,50.78,69.66,51.49,69.37,52.18Zm-28.45-44h0Zm28.45,44c.3-.7.56-1.4.79-2.12C69.92,50.78,69.66,51.49,69.37,52.18Zm-28.45-44h0ZM70.16,50.06c-.24.72-.5,1.43-.79,2.12C69.67,51.48,69.93,50.78,70.16,50.06ZM40.92,8.15h0Zm-1-7.49a1,1,0,0,0-1,1V9.13a1,1,0,0,0,1,1c.33,0,.67,0,1,0h.17c.44,0,.88,0,1.32.08s.83.07,1.23.13l.43.05.79.13.6.1c.53.1,1,.21,1.57.34.33.08.65.16,1,.26a3.79,3.79,0,0,1,.48.14,4.31,4.31,0,0,1,.67.21c.66.2,1.31.44,1.94.7.37.15.73.3,1.09.47s.87.39,1.28.61.59.31.88.47l.14.08.34.19c.25.14.49.28.73.44s.58.36.87.56.66.43,1,.67.56.4.83.62.73.57,1.08.88a0,0,0,0,1,0,0c.24.19.47.4.69.61l0,0c.16.14.32.28.47.43a27.09,27.09,0,0,1,1.89,2,7.75,7.75,0,0,1,.52.62.41.41,0,0,1,.09.1l0,.06h0a6,6,0,0,1,.39.49c.19.22.36.45.53.68l.33.46c.14.18.27.37.39.56.27.4.53.81.78,1.22a1.28,1.28,0,0,1,.15.25l.15.26c.15.24.29.5.42.75l.27.5c.37.7.7,1.42,1,2.15.18.43.35.86.51,1.3.06.16.12.32.17.48s.21.6.3.91c0,.12.08.24.11.36.11.35.21.7.3,1.06s.23,1,.33,1.44c0,.14.06.28.08.42.09.47.17.94.24,1.42,0,.25.07.51.09.76s0,.35.06.52c0,.46.08.92.1,1.39s0,1,0,1.5,0,1-.05,1.56c0,.35,0,.7-.07,1s0,.42-.06.63c0,.43-.1.86-.17,1.29s-.13.86-.22,1.28c0,.16-.06.32-.1.49-.07.35-.15.7-.24,1,0,0,0,0,0,0-.08.34-.18.68-.28,1s-.21.68-.32,1-.23.67-.35,1-.25.65-.39,1-.28.66-.43,1-.27.58-.41.86-.28.57-.44.85-.43.79-.66,1.18l-.53.85a1.13,1.13,0,0,0-.16.56,1.36,1.36,0,0,0,0,.2,0,0,0,0,0,0,0,1,1,0,0,0,.09.22v0a.51.51,0,0,0,.09.13.28.28,0,0,0,.09.1.93.93,0,0,0,.15.13L70.78,61l.86.55a1,1,0,0,0,.54.16,1,1,0,0,0,.84-.46.21.21,0,0,0,0-.06c.24-.38.47-.76.7-1.14s.37-.62.54-.94c.1-.17.19-.34.28-.51.19-.34.36-.68.53-1s.4-.8.58-1.21.46-1,.67-1.54c.13-.31.26-.62.38-.94.18-.49.36-1,.52-1.48s.29-.88.42-1.33.24-.84.35-1.27l0-.13c.11-.42.21-.85.3-1.27,0,0,0-.05,0-.07.09-.45.18-.9.26-1.35a.08.08,0,0,0,0,0c.08-.43.15-.87.22-1.31s.12-.95.17-1.42.1-.94.13-1.41.06-.93.07-1.41,0-.94,0-1.41A39.39,39.39,0,0,0,39.92.66ZM77.18,42.58c-.06.84-.14,1.68-.26,2.51,0,.42-.12.83-.19,1.25s-.14.78-.22,1.17c0,0,0,.06,0,.08-.09.41-.18.82-.28,1.23v0c-.1.4-.21.81-.32,1.21s-.23.81-.36,1.21a36.29,36.29,0,0,1-1.33,3.57c-.14.32-.28.63-.43.93a38,38,0,0,1-1.9,3.57l-4.61-2.95h0a31,31,0,0,0,2.11-4.19c.3-.7.56-1.4.79-2.12s.49-1.55.68-2.34c.07-.25.13-.51.18-.76.18-.8.33-1.6.44-2.4s.19-1.51.25-2.27.08-1.52.08-2.29a30.56,30.56,0,0,0-.16-3.19c0-.23,0-.45-.08-.68a1.1,1.1,0,0,0,0-.18q-.11-.8-.24-1.59c-.07-.37-.14-.73-.22-1.09s-.16-.72-.25-1.08-.13-.5-.2-.75-.21-.74-.33-1.11A29.61,29.61,0,0,0,69,26.9c-.12-.27-.25-.54-.38-.81s-.34-.68-.52-1-.33-.63-.51-.93a.21.21,0,0,0,0-.06c-.19-.33-.38-.65-.58-1s-.22-.36-.34-.53-.35-.53-.53-.78-.26-.38-.4-.56l-.22-.3-.74-1c-.33-.4-.67-.8-1-1.19s-.47-.52-.71-.77-.71-.74-1.08-1.08c-.22-.22-.45-.43-.69-.64s-.68-.6-1-.89l-1-.78c-.35-.26-.7-.52-1.06-.77s-.7-.48-1-.71-.65-.41-1-.6l-.5-.29L55.05,12c-.21-.11-.42-.23-.63-.33s-.63-.32-1-.47-.53-.25-.8-.36l-.8-.34c-.41-.17-.82-.33-1.23-.47s-.83-.29-1.25-.42-.71-.22-1.07-.31-.55-.15-.82-.21l-.76-.18c-.29-.07-.59-.13-.88-.18l-.63-.11c-.42-.08-.83-.14-1.26-.19s-1.06-.13-1.6-.17c-.37,0-.74-.05-1.12-.06h-.33V2.67c1,0,2,.09,2.94.2.57,0,1.14.12,1.7.21l1,.16.92.18c.57.11,1.14.24,1.7.39l.1,0c.56.13,1.1.29,1.65.46l.12,0c.59.18,1.17.38,1.74.59.86.31,1.7.66,2.53,1s1.68.81,2.5,1.25l.72.41a37.68,37.68,0,0,1,6.88,5.09l.64.61c.21.2.42.41.62.62s.41.42.61.64.4.43.59.65c.59.66,1.15,1.34,1.69,2,.19.24.36.47.53.71.55.75,1.08,1.52,1.57,2.31l.39.64c.1.16.2.33.29.5l.45.79c.12.24.25.48.38.72s.3.59.44.89.25.52.38.79c.25.56.49,1.13.71,1.7.12.28.22.56.33.85s.2.57.3.87.16.46.23.7.22.7.32,1.05.17.59.24.89c.16.63.31,1.27.44,1.92s.22,1.14.31,1.72L77,35.41l.09.84A35.66,35.66,0,0,1,77.27,40Q77.27,41.3,77.18,42.58ZM40.92,8.14h0Zm28.45,44c.3-.7.56-1.4.79-2.12C69.92,50.78,69.66,51.49,69.37,52.18Zm-28.45-44h0Zm28.45,44c.3-.7.56-1.4.79-2.12C69.92,50.78,69.66,51.49,69.37,52.18Zm-28.45-44h0Zm28.45,44c.3-.7.56-1.4.79-2.12C69.92,50.78,69.66,51.49,69.37,52.18Zm-28.45-44h0Zm28.45,44c.3-.7.56-1.4.79-2.12C69.92,50.78,69.66,51.49,69.37,52.18Z"/><path class="cls-1" d="M65.89,57.68a1.08,1.08,0,0,1-.54-.15L49,47a1,1,0,1,1,1.08-1.68l15.52,10A29.88,29.88,0,0,0,40.92,10.14V28.58a1,1,0,0,1-2,0V9.13a1,1,0,0,1,1-1,31.87,31.87,0,0,1,26.81,49.1A1,1,0,0,1,65.89,57.68Z"/><path class="cls-1" d="M39.92.66a39.35,39.35,0,0,0,0,78.69l1.26,0,1.25-.06c.41,0,.83-.06,1.24-.1s.55,0,.82-.09l.44,0,.41,0,.79-.12.76-.13.75-.14,1.22-.26.22-.06c.41-.09.82-.2,1.22-.31l.17,0,1.14-.34.92-.3.91-.32.94-.35c.41-.16.82-.33,1.22-.51s.8-.35,1.19-.54l.54-.26.49-.25.89-.47.87-.49c.57-.33,1.14-.68,1.7-1a40,40,0,0,0,8.88-7.89c.24-.29.48-.58.71-.88l.57-.75c.19-.25.38-.51.56-.77q.52-.73,1-1.5a.21.21,0,0,0,0-.06c.24-.38.47-.76.7-1.14s.37-.62.54-.94c.1-.17.19-.34.28-.51.19-.34.36-.68.53-1s.4-.8.58-1.21.46-1,.67-1.54c.13-.31.26-.62.38-.94.18-.49.36-1,.52-1.48s.29-.88.42-1.33.24-.84.35-1.27l0-.13c.11-.42.21-.85.3-1.27,0,0,0-.05,0-.07.09-.45.18-.9.26-1.35a.08.08,0,0,0,0,0c.08-.43.15-.87.22-1.31s.12-.95.17-1.42.1-.94.13-1.41.06-.93.07-1.41,0-.94,0-1.41A39.39,39.39,0,0,0,39.92.66ZM77.18,42.58c-.06.84-.14,1.68-.26,2.51,0,.42-.12.83-.19,1.25s-.14.78-.22,1.17c0,0,0,.06,0,.08-.08.42-.17.82-.28,1.23v0c-.1.41-.2.81-.32,1.21s-.23.81-.36,1.21a36.29,36.29,0,0,1-1.33,3.57c-.14.32-.28.63-.43.93a38,38,0,0,1-1.9,3.57c-.35.57-.71,1.13-1.09,1.68h0c-.31.44-.62.88-.94,1.31-.54.72-1.1,1.42-1.69,2.1-.19.23-.39.45-.59.67l-.65.7-.59.6L65,67.64a37.35,37.35,0,0,1-15.78,8.53l-.89.22-.91.2-.69.14-1.09.18L45,77c-.23,0-.47.06-.71.09l-.85.09c-.76.07-1.53.12-2.31.14l-1.16,0A37.39,37.39,0,0,1,2.58,40a35.66,35.66,0,0,1,.19-3.75l.09-.84L3,34.32c.09-.58.19-1.15.31-1.72s.21-1,.33-1.5c0-.14.07-.28.11-.42l.12-.45L4,29.79c.1-.35.2-.7.32-1.05s.15-.47.23-.7.2-.59.3-.87.21-.57.33-.85c.22-.57.46-1.14.71-1.7.14-.3.28-.61.43-.91l0,0L6.67,23l.42-.8.45-.79c.09-.17.19-.34.29-.5l.39-.64a.75.75,0,0,0,.07-.12l.6-.91c.12-.19.25-.38.38-.56s.09-.13.13-.19c.21-.3.43-.6.65-.89s.33-.44.51-.66.57-.71.86-1.06l.13-.15c.34-.4.69-.79,1-1.17h0c.35-.38.72-.75,1.09-1.12l.13-.13,1-1c.22-.2.44-.4.67-.59l.66-.56c.24-.2.48-.4.72-.58l.66-.51q.39-.3.78-.57c.49-.35,1-.68,1.49-1l.56-.35.44-.27c.42-.25.84-.5,1.27-.73.2-.11.4-.22.61-.32l.62-.32q.61-.32,1.26-.6c.41-.19.83-.37,1.25-.54l1.27-.49c.57-.21,1.15-.41,1.74-.59l.12,0C29.5,4.13,30,4,30.6,3.84l.1,0c.56-.15,1.13-.28,1.7-.39l.92-.18,1-.16c.56-.09,1.13-.16,1.7-.21l1.07-.1c.62,0,1.24-.08,1.87-.1h2c1,0,2,.09,2.94.2.57.06,1.14.13,1.7.21l1,.16.92.18c.57.12,1.14.25,1.7.39l.1,0c.56.13,1.1.29,1.65.46l.12,0c.59.18,1.17.38,1.74.59.86.31,1.7.66,2.53,1s1.68.81,2.5,1.25l.72.41a37.68,37.68,0,0,1,6.88,5.09l.64.61c.21.2.42.41.62.62s.41.42.61.64.4.43.59.65c.59.66,1.15,1.34,1.69,2,.19.24.36.47.53.71.55.75,1.08,1.52,1.57,2.31l.39.64c.1.16.2.33.29.5l.45.79c.12.24.25.48.38.72s.3.59.44.89.25.52.38.79c.25.56.49,1.13.71,1.7.12.28.22.56.33.85s.2.57.3.87.16.46.23.7.22.7.32,1.05.17.59.24.89c.16.63.31,1.27.44,1.92s.22,1.14.31,1.72L77,35.41l.09.84A35.66,35.66,0,0,1,77.27,40Q77.27,41.3,77.18,42.58Z"/><path class="cls-1" d="M36.88,76a1,1,0,0,1-.88-.52L30.18,65.07,21.69,63.6a1,1,0,0,1-.77-.65L15.71,48.38a1,1,0,0,1,.58-1.27l17-6.61a1,1,0,0,1,.81,0l6,3,3-.25-3.73-2.4a1,1,0,0,1-.46-.84V31.79l-4.31.06-2.55,5.43a1.06,1.06,0,0,1-.58.52,1,1,0,0,1-.78-.06L23,33.8a1,1,0,0,1-.54-.89A1,1,0,0,1,23,32l4.51-2.38L25,28.43a1,1,0,0,1-.56-.77,1,1,0,0,1,.35-.89l9.35-7.92-.23-.36-2.61.81a1,1,0,0,1-.94-.19L28,17.16a1,1,0,0,1-.36-.71,1,1,0,0,1,.28-.74l6.93-7.27a1,1,0,0,1,.73-.31,1,1,0,0,1,.73.32l4.32,4.73a1,1,0,1,1-1.48,1.35l-3.6-3.94-5.45,5.73,1.08.91L34,16.36a1,1,0,0,1,1.14.41l1.11,1.74a1,1,0,0,1-.2,1.31l-8.85,7.49,2.88,1.4a1,1,0,0,1,0,1.78l-4.55,2.4,5.1,2.6,2.38-5.05a1,1,0,0,1,.89-.58l5.95-.08a1.11,1.11,0,0,1,.71.29,1,1,0,0,1,.3.71v8.67l5.75,3.69a1,1,0,0,1,.43,1.09,1,1,0,0,1-.89.75L40,45.51a1,1,0,0,1-.52-.1l-5.87-2.88L17.92,48.62,22.6,61.73,31,63.18a1,1,0,0,1,.7.5l5.62,10,7.88-3.24L46.5,56.59a1,1,0,0,1,.35-.66l7.85-6.77A1,1,0,0,1,56,50.67l-7.55,6.51L47.12,71.25a1,1,0,0,1-.61.83l-9.25,3.81A1.08,1.08,0,0,1,36.88,76Z"/><path class="cls-1" d="M58.54,53A1,1,0,0,1,58,52.8l-18.62-12a1,1,0,0,1-.46-.84V21.35a1,1,0,0,1,2,0v18.1L59.08,51.12A1,1,0,0,1,58.54,53Z"/></g></svg>