<?xml version="1.0" encoding="UTF-8" standalone="no"?>
<svg
   xmlns:dc="http://purl.org/dc/elements/1.1/"
   xmlns:cc="http://creativecommons.org/ns#"
   xmlns:rdf="http://www.w3.org/1999/02/22-rdf-syntax-ns#"
   xmlns:svg="http://www.w3.org/2000/svg"
   xmlns="http://www.w3.org/2000/svg"
   xmlns:sodipodi="http://sodipodi.sourceforge.net/DTD/sodipodi-0.dtd"
   xmlns:inkscape="http://www.inkscape.org/namespaces/inkscape"
   id="Layer_1"
   data-name="Layer 1"
   viewBox="0 0 303.39 303.39"
   version="1.1"
   sodipodi:docname="humanitni_vedy.svg"
   inkscape:version="1.0.2 (e86c870879, 2021-01-15)">
  <metadata
     id="metadata47">
    <rdf:RDF>
      <cc:Work
         rdf:about="">
        <dc:format>image/svg+xml</dc:format>
        <dc:type
           rdf:resource="http://purl.org/dc/dcmitype/StillImage" />
      </cc:Work>
    </rdf:RDF>
  </metadata>
  <sodipodi:namedview
     pagecolor="#ffffff"
     bordercolor="#666666"
     borderopacity="1"
     objecttolerance="10"
     gridtolerance="10"
     guidetolerance="10"
     inkscape:pageopacity="0"
     inkscape:pageshadow="2"
     inkscape:window-width="1920"
     inkscape:window-height="1062"
     id="namedview45"
     showgrid="false"
     inkscape:zoom="2.0963116"
     inkscape:cx="151.69501"
     inkscape:cy="151.69501"
     inkscape:window-x="0"
     inkscape:window-y="0"
     inkscape:window-maximized="1"
     inkscape:current-layer="Layer_1" />
  <defs
     id="defs4">
    <style
       id="style2">
      .cls-1 {
        fill: none;
        stroke: #1d1d1b;
        stroke-miterlimit: 10;
        stroke-width: 5px;
      }
    </style>
  </defs>
  <path
     class="cls-1"
     d="M139.08,298.1c-8.25-50.68,33.25-45.4,33.25-45.4,16.97-2.06,13.3-30.04,13.3-30.04-.69-8.03,1.61-7.57,1.61-7.57,39.9,3.9,22.33-20.87,22.33-20.87-29.95-58.93-32.19-76.59-32.19-76.59C169.49,44.54,124.64,17.78,105.86,9.69"
     id="path6"
     style="fill:none;fill-opacity:1;stroke:#7594f9;stroke-opacity:1" />
  <path
     class="cls-1"
     d="M201.94,292.21c-15.7,5.62-32.62,8.68-50.25,8.68-25.78,0-50.04-6.54-71.2-18.05"
     id="path8"
     style="fill:none;fill-opacity:1;stroke:#7594f9;stroke-opacity:1" />
  <path
     class="cls-1"
     d="M70.22,26.71c10.97-7.16,22.93-12.92,35.64-17.02"
     id="path10"
     style="fill:none;fill-opacity:1;stroke:#7594f9;stroke-opacity:1" />
  <path
     class="cls-1"
     d="M105.86,9.69c14.44-4.66,29.85-7.19,45.84-7.19,3.7,0,7.37,.14,11.01,.41"
     id="path12"
     style="fill:none;fill-opacity:1;stroke:#7594f9;stroke-opacity:1" />
  <line
     class="cls-1"
     x1="87.27"
     y1="179.69"
     x2="104.53"
     y2="179.69"
     id="line14"
     style="fill:none;fill-opacity:1;stroke:#7594f9;stroke-opacity:1" />
  <line
     class="cls-1"
     x1="36.63"
     y1="168.54"
     x2="67.71"
     y2="120.55"
     id="line16"
     style="fill:none;fill-opacity:1;stroke:#7594f9;stroke-opacity:1" />
  <line
     class="cls-1"
     x1="61.94"
     y1="179.69"
     x2="43.29"
     y2="179.69"
     id="line18"
     style="fill:none;fill-opacity:1;stroke:#7594f9;stroke-opacity:1" />
  <line
     class="cls-1"
     x1="80.6"
     y1="120.49"
     x2="110.77"
     y2="169.3"
     id="line20"
     style="fill:none;fill-opacity:1;stroke:#7594f9;stroke-opacity:1" />
  <line
     class="cls-1"
     x1="74.61"
     y1="167.03"
     x2="74.1"
     y2="122.28"
     id="line22"
     style="fill:none;fill-opacity:1;stroke:#7594f9;stroke-opacity:1" />
  <path
     class="cls-1"
     d="M70.22,26.71C29.45,53.34,2.5,99.37,2.5,151.7c0,56.62,31.54,105.87,78,131.14"
     id="path24"
     style="fill:none;fill-opacity:1;stroke:#7594f9;stroke-opacity:1" />
  <path
     class="cls-1"
     d="M70.22,26.71c20.12,15.26,43.73,43.72,49.24,94.86,0,0,2.24,17.66,32.19,76.59,0,0,17.57,24.76-22.33,20.87,0,0-2.29-.46-1.61,7.57,0,0,3.67,27.97-13.3,30.04,0,0-30.01-3.81-33.91,26.22"
     id="path26"
     style="fill:none;fill-opacity:1;stroke:#7594f9;stroke-opacity:1" />
  <path
     class="cls-1"
     d="M162.71,2.91c77.26,5.64,138.19,70.1,138.19,148.79,0,64.77-41.27,119.89-98.95,140.51"
     id="path28"
     style="fill:none;fill-opacity:1;stroke:#7594f9;stroke-opacity:1" />
  <path
     class="cls-1"
     d="M162.71,2.91c11.55,3.82,68.76,26.87,77.76,110.36,0,0,2.24,17.66,32.19,76.59,0,0,17.57,24.76-22.33,20.87,0,0-2.29-.46-1.61,7.57,0,0,3.67,27.97-13.3,30.04,0,0-40.66-5.16-33.48,43.89"
     id="path30"
     style="fill:none;fill-opacity:1;stroke:#7594f9;stroke-opacity:1" />
  <path
     class="cls-1"
     d="M74.1,122.28c6.99,0,12.67-5.67,12.67-12.67s-5.67-12.67-12.67-12.67-12.67,5.67-12.67,12.67,5.67,12.67,12.67,12.67"
     id="path32"
     style="fill:none;fill-opacity:1;stroke:#7594f9;stroke-opacity:1" />
  <path
     class="cls-1"
     d="M43.29,179.69c0-7-5.67-12.67-12.67-12.67s-12.67,5.67-12.67,12.67,5.67,12.67,12.67,12.67,12.67-5.67,12.67-12.67"
     id="path34"
     style="fill:none;fill-opacity:1;stroke:#7594f9;stroke-opacity:1" />
  <path
     class="cls-1"
     d="M74.61,167.03c7,0,12.67,5.67,12.67,12.67"
     id="path36"
     style="fill:none;fill-opacity:1;stroke:#7594f9;stroke-opacity:1" />
  <path
     class="cls-1"
     d="M61.94,179.69c0,6.99,5.67,12.67,12.67,12.67s12.67-5.67,12.67-12.67"
     id="path38"
     style="fill:none;fill-opacity:1;stroke:#7594f9;stroke-opacity:1" />
  <path
     class="cls-1"
     d="M74.61,167.03c-7,0-12.67,5.67-12.67,12.67"
     id="path40"
     style="fill:none;fill-opacity:1;stroke:#7594f9;stroke-opacity:1" />
  <circle
     class="cls-1"
     cx="117.2"
     cy="180.21"
     r="12.67"
     id="circle42"
     style="fill:none;fill-opacity:1;stroke:#7594f9;stroke-opacity:1" />
</svg>
