<svg xmlns="http://www.w3.org/2000/svg" viewBox="0 0 80 80"><defs><style>.cls-1{fill:#7594f9;}.cls-2{fill:#fff;}</style></defs><title>mini_ikony</title><g id="Vrstva_7" data-name="Vrstva 7"><path class="cls-1" d="M41,30.54h0L32.14,12.15l-.91-1.89a2.59,2.59,0,0,1-2,.89,2.43,2.43,0,0,1-.77-.12l.17,2.08,2,24.31.05.6-.54,1.62L25.76,52.89l-.25.77-1,.85L9.62,66.64,8,68A2.6,2.6,0,0,1,9.2,69.57l1.64-1.34L26.53,55.41,27,55l.31-.46.29-.86L32.48,39l.17-.5.05-.39-.1-1.22-1.88-23,8.43,17.52L40,33.2a2.64,2.64,0,0,1,1.84-.75h0Zm10.9,12.85L70.24,17.56l1.27-1.79A2.62,2.62,0,0,1,69.16,14l-1.65,1.21L45,31.68h0L43.34,32.9a2.65,2.65,0,0,1,1.11,1.66l1.71-1.25L67.82,17.49,50.44,42l-1.18,1.66-1.37,1.93-2.7-6-.41-.92-.88-1.93a2.66,2.66,0,0,1-2,.95,2.59,2.59,0,0,1-1.55-.51l-.63,2L34.12,56.57l-.62,1.91-3,9.33-.61,1.9a2.63,2.63,0,0,1,2,2.55,2.92,2.92,0,0,1-.1.73l2.08-.37,18.28-3.17,2.07-.36a2.62,2.62,0,0,1-.44-1.46,1.62,1.62,0,0,1,0-.22,2.7,2.7,0,0,1,0-.28l-.49.09-1.55.27L33.59,70.65l-1.23.21.78-1.1,6.19-8.71,1.18-1.66,7-9.84,6.41,14.19.83,1.85A2.65,2.65,0,0,1,56.39,65h.29l-.89-2L48.84,47.66,50.7,45ZM38.64,58.56l-1.18,1.67-4.4,6.19,2.29-7.13L36,57.38l5.67-17.7.59-1.83.77,1.7,3.56,7.89Z"/><path class="cls-1" d="M44.78,38.67l-.88-1.93a2.52,2.52,0,0,1-.89.69l1.47,1.45.71.71Zm0,0-.88-1.93a2.52,2.52,0,0,1-.89.69l1.47,1.45.71.71Zm0,0-.88-1.93a2.52,2.52,0,0,1-.89.69l1.47,1.45.71.71Zm0,0-.88-1.93a2.52,2.52,0,0,1-.89.69l1.47,1.45.71.71Zm0,0-.88-1.93a2.52,2.52,0,0,1-.89.69l1.47,1.45.71.71Zm0,0-.88-1.93a2.52,2.52,0,0,1-.89.69l1.47,1.45.71.71Zm8,26.11L40.51,59.39l-1.87-.83L36,57.38l-1.84-.81L27.6,53.7l-1.84-.81-15.9-7-.31-.14.37-.11,20.23-6L32.48,39l5.38-1.59,2-.6a2.66,2.66,0,0,1-.62-1.69,1.48,1.48,0,0,1,0-.21l-2,.59L32.6,36.84l-2,.58L9.84,43.58l-1.92.57a2.59,2.59,0,0,1,.08.63,2.62,2.62,0,0,1-1,2l2,.86,15.5,6.83,2.05.9,7,3.07,1.85.81,2.11.94,1.87.82,12.56,5.53,1.44.64.45.19a2.67,2.67,0,0,1,.91-1.78ZM72,63.33l-1.45-1.44-18.7-18.5L50.44,42l-4.59-4.54-1.5-1.48a2.49,2.49,0,0,1-.45.79h0a2.52,2.52,0,0,1-.89.69l1.47,1.45.71.71,4.07,4L50.7,45,69.29,63.43l1.41,1.4-1.92.25-8,1-2.06.27A2.64,2.64,0,0,1,59,67.63a2.53,2.53,0,0,1-.11.73L61,68.1l8-1,2.06-.26a2.49,2.49,0,0,1-.32-1.24A2.59,2.59,0,0,1,72,63.33ZM44.78,38.67l-.88-1.93a2.52,2.52,0,0,1-.89.69l1.47,1.45.71.71Zm0,0-.88-1.93a2.52,2.52,0,0,1-.89.69l1.47,1.45.71.71Zm0,0-.88-1.93a2.52,2.52,0,0,1-.89.69l1.47,1.45.71.71Zm0,0-.88-1.93a2.52,2.52,0,0,1-.89.69l1.47,1.45.71.71Zm0,0-.88-1.93a2.52,2.52,0,0,1-.89.69l1.47,1.45.71.71Zm0,0-.88-1.93a2.52,2.52,0,0,1-.89.69l1.47,1.45.71.71Z"/><path class="cls-2" d="M29.26,3.91a4.62,4.62,0,0,0-4.62,4.62,4.91,4.91,0,0,0,.08.86,2.46,2.46,0,0,0,.07.29.29.29,0,0,0,0,.09,2.6,2.6,0,0,0,.16.47,2.72,2.72,0,0,0,.11.25,1.34,1.34,0,0,0,.12.24c.07.13.15.26.23.38a1.77,1.77,0,0,0,.16.22,2.65,2.65,0,0,0,.21.26,3.83,3.83,0,0,0,.28.29.93.93,0,0,0,.15.13l.15.13a4.45,4.45,0,0,0,.68.45l.27.13.29.13h0l.26.09.38.1.19,0,.2,0,.25,0h.35l.4,0,.2,0,.19,0a1.31,1.31,0,0,0,.27-.06L30.6,13l.28-.1.25-.09.33-.17.37-.22.31-.22.06-.05a4.37,4.37,0,0,0,.44-.42l0,0a3.92,3.92,0,0,0,.39-.5l0,0,.21-.35,0,0c0-.08.09-.17.13-.27a1.78,1.78,0,0,0,.12-.29,4.44,4.44,0,0,0,.19-.62,3.11,3.11,0,0,0,.07-.44.06.06,0,0,0,0,0,4.62,4.62,0,0,0-4.59-5.15Zm0,7.24a2.43,2.43,0,0,1-.77-.12,2.6,2.6,0,1,1,.77.12Z"/><path class="cls-1" d="M29.26,3.91a4.62,4.62,0,0,0-4.62,4.62,4.91,4.91,0,0,0,.08.86,2.46,2.46,0,0,0,.07.29.29.29,0,0,0,0,.09,2.6,2.6,0,0,0,.16.47,2.72,2.72,0,0,0,.11.25,1.34,1.34,0,0,0,.12.24c.07.13.15.26.23.38a1.77,1.77,0,0,0,.16.22,2.65,2.65,0,0,0,.21.26,3.83,3.83,0,0,0,.28.29.93.93,0,0,0,.15.13l.15.13a4.45,4.45,0,0,0,.68.45l.27.13.29.13h0l.26.09.38.1.19,0,.2,0,.25,0h.35l.4,0,.2,0,.19,0a1.31,1.31,0,0,0,.27-.06L30.6,13l.28-.1.25-.09.33-.17.37-.22.31-.22.06-.05a4.37,4.37,0,0,0,.44-.42l0,0a3.92,3.92,0,0,0,.39-.5l0,0,.21-.35,0,0c0-.08.09-.17.13-.27a1.78,1.78,0,0,0,.12-.29,4.44,4.44,0,0,0,.19-.62,3.11,3.11,0,0,0,.07-.44.06.06,0,0,0,0,0,4.62,4.62,0,0,0-4.59-5.15Zm0,7.24a2.43,2.43,0,0,1-.77-.12,2.6,2.6,0,1,1,.77.12Z"/><path class="cls-2" d="M33.86,71.84c0-.09,0-.16,0-.24v0a.07.07,0,0,0,0,0s0-.09,0-.13a.5.5,0,0,0,0-.13s0,0,0-.07L33.7,71l0-.08a2.41,2.41,0,0,0-.08-.25s0,0,0,0,0,0,0,0,0,0,0,0a2.07,2.07,0,0,0-.15-.34s0,0,0,0a0,0,0,0,0,0,0,2.3,2.3,0,0,0-.23-.4,2.62,2.62,0,0,0-.24-.34,1.24,1.24,0,0,0-.18-.22L32.56,69a3.6,3.6,0,0,0-.41-.37L32,68.52a2.54,2.54,0,0,0-.34-.23l-.08-.05-.32-.16a2.08,2.08,0,0,0-.3-.13l-.41-.14-.43-.11-.31,0a4.41,4.41,0,0,0-.52,0,4.63,4.63,0,0,0,0,9.25l.47,0a2.38,2.38,0,0,0,.37-.06,2,2,0,0,0,.26-.06l.11,0,.16,0,.27-.09,0,0,.19-.08a1.11,1.11,0,0,0,.19-.09l.36-.2,0,0a3.27,3.27,0,0,0,.36-.25,2.69,2.69,0,0,0,.32-.27l.3-.3a1.62,1.62,0,0,1,.18-.2s0,0,0,0,0,0,0,0l0,0a2.11,2.11,0,0,0,.18-.27s0,0,0,0a.76.76,0,0,0,.12-.19s0,0,0,0a2.59,2.59,0,0,0,.17-.33.34.34,0,0,0,.06-.12s0-.08,0-.13h0a5,5,0,0,0,.16-.51c0-.07,0-.13.05-.19a1.62,1.62,0,0,1,0-.19h0c0-.14,0-.28,0-.43a2.17,2.17,0,0,0,0-.36C33.88,72.12,33.87,72,33.86,71.84Zm-4.6,3a2.63,2.63,0,0,1,0-5.25,2.75,2.75,0,0,1,.65.08,2.63,2.63,0,0,1,2,2.55,2.92,2.92,0,0,1-.1.73A2.62,2.62,0,0,1,29.26,74.88Z"/><path class="cls-1" d="M33.86,71.84c0-.09,0-.16,0-.24v0a.07.07,0,0,0,0,0s0-.09,0-.13a.5.5,0,0,0,0-.13s0,0,0-.07L33.7,71l0-.08a2.41,2.41,0,0,0-.08-.25s0,0,0,0,0,0,0,0,0,0,0,0a2.07,2.07,0,0,0-.15-.34s0,0,0,0a0,0,0,0,0,0,0,2.3,2.3,0,0,0-.23-.4,2.62,2.62,0,0,0-.24-.34,1.24,1.24,0,0,0-.18-.22L32.56,69a3.6,3.6,0,0,0-.41-.37L32,68.52a2.54,2.54,0,0,0-.34-.23l-.08-.05-.32-.16a2.08,2.08,0,0,0-.3-.13l-.41-.14-.43-.11-.31,0a4.41,4.41,0,0,0-.52,0,4.63,4.63,0,0,0,0,9.25l.47,0a2.38,2.38,0,0,0,.37-.06,2,2,0,0,0,.26-.06l.11,0,.16,0,.27-.09,0,0,.19-.08a1.11,1.11,0,0,0,.19-.09l.36-.2,0,0a3.27,3.27,0,0,0,.36-.25,2.69,2.69,0,0,0,.32-.27l.3-.3a1.62,1.62,0,0,1,.18-.2s0,0,0,0,0,0,0,0l0,0a2.11,2.11,0,0,0,.18-.27s0,0,0,0a.76.76,0,0,0,.12-.19s0,0,0,0a2.59,2.59,0,0,0,.17-.33.34.34,0,0,0,.06-.12s0-.08,0-.13h0a5,5,0,0,0,.16-.51c0-.07,0-.13.05-.19a1.62,1.62,0,0,1,0-.19h0c0-.14,0-.28,0-.43a2.17,2.17,0,0,0,0-.36C33.88,72.12,33.87,72,33.86,71.84Zm-4.6,3a2.63,2.63,0,0,1,0-5.25,2.75,2.75,0,0,1,.65.08,2.63,2.63,0,0,1,2,2.55,2.92,2.92,0,0,1-.1.73A2.62,2.62,0,0,1,29.26,74.88Z"/><path class="cls-2" d="M78,65.16A1.11,1.11,0,0,0,78,65a1.2,1.2,0,0,0,0-.2,2.21,2.21,0,0,0,0-.25,4,4,0,0,0-.21-.67c0-.1-.08-.19-.13-.29l-.1-.2c-.07-.13-.15-.26-.23-.38a4.75,4.75,0,0,0-.57-.69,4.59,4.59,0,0,0-3.26-1.35L73,61a1.27,1.27,0,0,0-.28,0,.86.86,0,0,0-.17,0l-.16,0h0l-.35.1-.24.08-.25.1-.44.22-.12.08a3.77,3.77,0,0,0-.39.26q-.19.15-.39.33a3.89,3.89,0,0,0-.34.36l-.3.4h0l-.15.23a2.12,2.12,0,0,1-.11.21l-.18.37c0,.13-.1.26-.14.39a4.19,4.19,0,0,0-.16.72.29.29,0,0,0,0,.09v0s0,0,0,.06,0,.32,0,.48,0,.26,0,.39,0,.13,0,.19a1.25,1.25,0,0,0,0,.19c0,.12,0,.25.08.37s.07.24.11.36a4.84,4.84,0,0,0,.28.66l.18.3a3,3,0,0,0,.2.29,3,3,0,0,0,.22.28l.24.26a5.85,5.85,0,0,0,.54.45,4.6,4.6,0,0,0,.6.37,3.54,3.54,0,0,0,.53.23,5,5,0,0,0,.55.17l.25.05h0l.19,0H73l.38,0a4.59,4.59,0,0,0,3.26-1.35,4.75,4.75,0,0,0,.57-.69c.08-.12.16-.25.23-.38l.1-.2c0-.1.09-.19.13-.29a4,4,0,0,0,.21-.67,2.21,2.21,0,0,0,0-.25,1.2,1.2,0,0,0,0-.2A1.11,1.11,0,0,0,78,66a4,4,0,0,0,0-.8Zm-4.6,3a2.62,2.62,0,0,1-2.31-1.38,2.49,2.49,0,0,1-.32-1.24A2.59,2.59,0,0,1,72,63.33a2.54,2.54,0,0,1,1.36-.39,2.62,2.62,0,0,1,0,5.24Z"/><path class="cls-1" d="M78,65.16A1.11,1.11,0,0,0,78,65a1.2,1.2,0,0,0,0-.2,2.21,2.21,0,0,0,0-.25,4,4,0,0,0-.21-.67c0-.1-.08-.19-.13-.29l-.1-.2c-.07-.13-.15-.26-.23-.38a4.75,4.75,0,0,0-.57-.69,4.59,4.59,0,0,0-3.26-1.35L73,61a1.27,1.27,0,0,0-.28,0,.86.86,0,0,0-.17,0l-.16,0h0l-.35.1-.24.08-.25.1-.44.22-.12.08a3.77,3.77,0,0,0-.39.26q-.19.15-.39.33a3.89,3.89,0,0,0-.34.36l-.3.4h0l-.15.23a2.12,2.12,0,0,1-.11.21l-.18.37c0,.13-.1.26-.14.39a4.19,4.19,0,0,0-.16.72.29.29,0,0,0,0,.09v0s0,0,0,.06,0,.32,0,.48,0,.26,0,.39,0,.13,0,.19a1.25,1.25,0,0,0,0,.19c0,.12,0,.25.08.37s.07.24.11.36a4.84,4.84,0,0,0,.28.66l.18.3a3,3,0,0,0,.2.29,3,3,0,0,0,.22.28l.24.26a5.85,5.85,0,0,0,.54.45,4.6,4.6,0,0,0,.6.37,5.26,5.26,0,0,0,1.08.4l.25.05h0l.19,0H73l.38,0a4.59,4.59,0,0,0,3.26-1.35,4.75,4.75,0,0,0,.57-.69c.08-.12.16-.25.23-.38l.1-.2c0-.1.09-.19.13-.29a4,4,0,0,0,.21-.67,2.21,2.21,0,0,0,0-.25,1.2,1.2,0,0,0,0-.2A1.11,1.11,0,0,0,78,66a4,4,0,0,0,0-.8Zm-4.6,3a2.62,2.62,0,0,1-2.31-1.38,2.49,2.49,0,0,1-.32-1.24A2.59,2.59,0,0,1,72,63.33a2.54,2.54,0,0,1,1.36-.39,2.62,2.62,0,0,1,0,5.24Z"/><path class="cls-2" d="M54.74,65.59a.1.1,0,0,1-.05,0l.09,0ZM61,67.24a1.11,1.11,0,0,0,0-.19,1.2,1.2,0,0,0,0-.2,2.47,2.47,0,0,0-.06-.29s0,0,0,0a2.64,2.64,0,0,0-.12-.4s0,0,0-.06a2.71,2.71,0,0,0-.17-.39l0-.07a2.08,2.08,0,0,0-.22-.38.05.05,0,0,0,0,0,2.34,2.34,0,0,0-.29-.41,3.17,3.17,0,0,0-.34-.39A4.75,4.75,0,0,0,59,63.8l-.38-.23-.32-.16-.21-.09-.23-.08-.25-.07-.36-.08L56.93,63h-.11l-.43,0A2.17,2.17,0,0,0,56,63l-.24,0-.26,0-.25.06a3,3,0,0,0-.4.12l-.14,0a2.22,2.22,0,0,0-.32.14,3.15,3.15,0,0,0-.51.28.33.33,0,0,0-.1.06,4.75,4.75,0,0,0-.69.57,4.59,4.59,0,0,0-.36.41v0a2.62,2.62,0,0,0-.24.34,4,4,0,0,0-.32.57s0,0,0,0-.09.22-.13.33a0,0,0,0,0,0,0,1.65,1.65,0,0,0-.11.36.56.56,0,0,0,0,.12s0,0,0,0h0a1.86,1.86,0,0,0-.06.34.15.15,0,0,0,0,.07,3.15,3.15,0,0,0,0,.44.61.61,0,0,0,0,.14c0,.16,0,.32,0,.48a4.31,4.31,0,0,0,.17.81l.06.22.12.31a3.54,3.54,0,0,0,.19.39,2.5,2.5,0,0,0,.21.35.83.83,0,0,0,.13.18,3.32,3.32,0,0,0,.38.46,1.75,1.75,0,0,0,.24.23,4.07,4.07,0,0,0,.52.41l.38.23.2.1.3.14a4.6,4.6,0,0,0,.66.2l.25,0,.36,0,.43,0,.47,0a4.7,4.7,0,0,0,.83-.17l.4-.13.22-.1.28-.14c.14-.08.28-.16.41-.25a2.83,2.83,0,0,0,.28-.2,6.76,6.76,0,0,0,.55-.52L60,70.5a4.66,4.66,0,0,0,.43-.66,2.1,2.1,0,0,0,.13-.26,1.6,1.6,0,0,0,.1-.23,4.12,4.12,0,0,0,.24-.8,2.57,2.57,0,0,0,.06-.4.09.09,0,0,0,0-.05c0-.15,0-.31,0-.47S61,67.37,61,67.24Zm-4.6,3a2.62,2.62,0,0,1-2.62-2.63,1.62,1.62,0,0,1,0-.22,2.67,2.67,0,0,1,.91-1.78l.09,0,0-.08A2.65,2.65,0,0,1,56.39,65h.29A2.64,2.64,0,0,1,59,67.63a2.53,2.53,0,0,1-.11.73A2.61,2.61,0,0,1,56.39,70.26Z"/><path class="cls-1" d="M61,67.24a1.11,1.11,0,0,0,0-.19,1.2,1.2,0,0,0,0-.2,2.47,2.47,0,0,0-.06-.29s0,0,0,0a2.64,2.64,0,0,0-.12-.4s0,0,0-.06a2.71,2.71,0,0,0-.17-.39l0-.07a2.08,2.08,0,0,0-.22-.38.05.05,0,0,0,0,0,2.34,2.34,0,0,0-.29-.41,3.17,3.17,0,0,0-.34-.39A4.75,4.75,0,0,0,59,63.8l-.38-.23-.32-.16-.21-.09-.23-.08-.25-.07-.36-.08L56.93,63h-.11l-.43,0A2.17,2.17,0,0,0,56,63l-.24,0-.26,0-.25.06a3,3,0,0,0-.4.12l-.14,0a2.22,2.22,0,0,0-.32.14,3.15,3.15,0,0,0-.51.28.33.33,0,0,0-.1.06,4.75,4.75,0,0,0-.69.57,4.59,4.59,0,0,0-.36.41v0a2.62,2.62,0,0,0-.24.34,4,4,0,0,0-.32.57s0,0,0,0-.09.22-.13.33a0,0,0,0,0,0,0,1.65,1.65,0,0,0-.11.36.56.56,0,0,0,0,.12s0,0,0,0h0a1.86,1.86,0,0,0-.06.34.15.15,0,0,0,0,.07,3.15,3.15,0,0,0,0,.44.61.61,0,0,0,0,.14c0,.16,0,.32,0,.48a4.31,4.31,0,0,0,.17.81l.06.22.12.31a3.54,3.54,0,0,0,.19.39,2.5,2.5,0,0,0,.21.35.83.83,0,0,0,.13.18,3.32,3.32,0,0,0,.38.46,1.75,1.75,0,0,0,.24.23,4.07,4.07,0,0,0,.52.41l.38.23.2.1.3.14a4.6,4.6,0,0,0,.66.2l.25,0,.36,0,.43,0,.47,0a4.7,4.7,0,0,0,.83-.17l.4-.13.22-.1.28-.14c.14-.08.28-.16.41-.25a2.83,2.83,0,0,0,.28-.2,6.76,6.76,0,0,0,.55-.52L60,70.5a4.66,4.66,0,0,0,.43-.66,2.1,2.1,0,0,0,.13-.26,1.6,1.6,0,0,0,.1-.23,4.12,4.12,0,0,0,.24-.8,2.57,2.57,0,0,0,.06-.4.09.09,0,0,0,0-.05c0-.15,0-.31,0-.47S61,67.37,61,67.24Zm-4.6,3a2.62,2.62,0,0,1-2.62-2.63,1.62,1.62,0,0,1,0-.22,2.67,2.67,0,0,1,.91-1.78.1.1,0,0,0,.05,0A2.65,2.65,0,0,1,56.39,65h.29A2.64,2.64,0,0,1,59,67.63a2.53,2.53,0,0,1-.11.73A2.61,2.61,0,0,1,56.39,70.26Z"/><path class="cls-2" d="M71.63,8.53A4.62,4.62,0,0,0,67,13.15c0,.14,0,.27,0,.4l0,.26v0a.06.06,0,0,0,0,0,1.7,1.7,0,0,0,.06.31.61.61,0,0,0,0,.18,2,2,0,0,0,.1.35l0,.07a4,4,0,0,0,.21.47,5.5,5.5,0,0,0,.28.48,5.38,5.38,0,0,0,.52.64,3.26,3.26,0,0,0,.33.31l.2.16L69,17l.38.23a4.6,4.6,0,0,0,.82.35h0l.42.11.13,0,.29,0h.11l.43,0a4.62,4.62,0,1,0,0-9.24Zm0,7.24h-.12A2.62,2.62,0,0,1,69.16,14a2.42,2.42,0,0,1-.16-.89,2.63,2.63,0,1,1,2.63,2.62Z"/><path class="cls-1" d="M71.63,8.53A4.62,4.62,0,0,0,67,13.15c0,.14,0,.27,0,.4l0,.26v0a.06.06,0,0,0,0,0,1.7,1.7,0,0,0,.06.31.61.61,0,0,0,0,.18,2,2,0,0,0,.1.35l0,.07a4,4,0,0,0,.21.47,5.5,5.5,0,0,0,.28.48,5.38,5.38,0,0,0,.52.64,3.26,3.26,0,0,0,.33.31l.2.16L69,17l.38.23a4.6,4.6,0,0,0,.82.35h0l.42.11.13,0,.29,0h.11l.43,0a4.62,4.62,0,1,0,0-9.24Zm0,7.24h-.12A2.62,2.62,0,0,1,69.16,14a2.42,2.42,0,0,1-.16-.89,2.63,2.63,0,1,1,2.63,2.62Z"/><path class="cls-2" d="M46.47,34.54a.2.2,0,0,0,0-.07,3.55,3.55,0,0,0-.09-.47c0-.1,0-.21-.08-.31s-.08-.26-.13-.38,0,0,0,0-.13-.27-.2-.4a3,3,0,0,0-.23-.38,1.08,1.08,0,0,0-.18-.24,1.12,1.12,0,0,0-.19-.24,2.91,2.91,0,0,0-.3-.31l0,0h0s0,0,0,0l-.23-.2,0,0-.27-.19L44.08,31a2.1,2.1,0,0,0-.26-.13,1.53,1.53,0,0,0-.27-.11l0,0a3.38,3.38,0,0,0-.42-.13l-.18-.05-.19,0-.37-.06-.47,0a5.29,5.29,0,0,0-.9.08h0a3.74,3.74,0,0,0-.45.12l-.3.11c-.09,0-.19.07-.28.12l-.34.17,0,0,0,0-.31.2,0,0,0,0h0a2.17,2.17,0,0,0-.29.24l0,0,0,0a2.08,2.08,0,0,0-.21.21.76.76,0,0,0-.09.09l-.05.06a2.88,2.88,0,0,0-.3.39l0,0a3.47,3.47,0,0,0-.27.46l-.12.24a1.86,1.86,0,0,0-.1.25,3.13,3.13,0,0,0-.16.52,1.77,1.77,0,0,0-.08.4,0,0,0,0,0,0,0v0l0,.26c0,.13,0,.26,0,.4s0,.26,0,.38a1.5,1.5,0,0,0,0,.2,1.2,1.2,0,0,0,0,.2,1.59,1.59,0,0,0,.06.3c0,.1,0,.2.08.3a3.8,3.8,0,0,0,.18.47,3.61,3.61,0,0,0,.22.44,4.57,4.57,0,0,0,1.84,1.78,4,4,0,0,0,.8.34h0l.3.08a2.83,2.83,0,0,0,.4.08h0l.15,0h.51A4.56,4.56,0,0,0,43,39.55a2.64,2.64,0,0,0,.4-.12,2.5,2.5,0,0,0,.38-.15l.18-.09.19-.1.34-.21.06,0a2.07,2.07,0,0,0,.24-.17l.31-.28a2,2,0,0,0,.28-.3,1.57,1.57,0,0,0,.2-.25,2.36,2.36,0,0,0,.28-.42,4.49,4.49,0,0,0,.65-2.35A4.71,4.71,0,0,0,46.47,34.54ZM43.9,36.73h0a2.66,2.66,0,0,1-2,.95,2.59,2.59,0,0,1-1.55-.51,2.3,2.3,0,0,1-.46-.42,2.66,2.66,0,0,1-.62-1.69,1.48,1.48,0,0,1,0-.21,2.63,2.63,0,0,1,2.62-2.41h0a2.61,2.61,0,0,1,1.43.45,2.65,2.65,0,0,1,1.11,1.66,2.94,2.94,0,0,1,0,.51,2.53,2.53,0,0,1-.15.87A2.49,2.49,0,0,1,43.9,36.73Z"/><path class="cls-1" d="M46.47,34.54a.2.2,0,0,0,0-.07,3.55,3.55,0,0,0-.09-.47c0-.1,0-.21-.08-.31s-.08-.26-.13-.38,0,0,0,0-.13-.27-.2-.4a3,3,0,0,0-.23-.38,1.08,1.08,0,0,0-.18-.24,1.12,1.12,0,0,0-.19-.24,2.91,2.91,0,0,0-.3-.31l0,0h0s0,0,0,0l-.23-.2,0,0-.27-.19L44.08,31a2.1,2.1,0,0,0-.26-.13,1.53,1.53,0,0,0-.27-.11l0,0a3.38,3.38,0,0,0-.42-.13l-.18-.05-.19,0-.37-.06-.47,0a5.29,5.29,0,0,0-.9.08h0a3.74,3.74,0,0,0-.45.12l-.3.11c-.09,0-.19.07-.28.12l-.34.17,0,0,0,0-.31.2,0,0,0,0h0a2.17,2.17,0,0,0-.29.24l0,0,0,0a2.08,2.08,0,0,0-.21.21.76.76,0,0,0-.09.09l-.05.06a2.88,2.88,0,0,0-.3.39l0,0a3.47,3.47,0,0,0-.27.46l-.12.24a1.86,1.86,0,0,0-.1.25,3.13,3.13,0,0,0-.16.52,1.77,1.77,0,0,0-.08.4,0,0,0,0,0,0,0v0l0,.26c0,.13,0,.26,0,.4s0,.26,0,.38a1.5,1.5,0,0,0,0,.2,1.2,1.2,0,0,0,0,.2,1.59,1.59,0,0,0,.06.3c0,.1,0,.2.08.3a3.8,3.8,0,0,0,.18.47,3.61,3.61,0,0,0,.22.44,4.57,4.57,0,0,0,1.84,1.78,4,4,0,0,0,.8.34h0l.3.08a2.83,2.83,0,0,0,.4.08h0l.15,0h.51A4.56,4.56,0,0,0,43,39.55a2.64,2.64,0,0,0,.4-.12,2.5,2.5,0,0,0,.38-.15l.18-.09.19-.1.34-.21.06,0a2.07,2.07,0,0,0,.24-.17l.31-.28a2,2,0,0,0,.28-.3,1.57,1.57,0,0,0,.2-.25,2.36,2.36,0,0,0,.28-.42,4.49,4.49,0,0,0,.65-2.35A4.71,4.71,0,0,0,46.47,34.54ZM43.9,36.73h0a2.66,2.66,0,0,1-2,.95,2.59,2.59,0,0,1-1.55-.51,2.3,2.3,0,0,1-.46-.42,2.66,2.66,0,0,1-.62-1.69,1.48,1.48,0,0,1,0-.21,2.63,2.63,0,0,1,2.62-2.41h0a2.61,2.61,0,0,1,1.43.45,2.65,2.65,0,0,1,1.11,1.66,2.94,2.94,0,0,1,0,.51,2.53,2.53,0,0,1-.15.87A2.49,2.49,0,0,1,43.9,36.73Z"/><path class="cls-2" d="M10,44.41a1.49,1.49,0,0,0,0-.21c0-.11,0-.21-.05-.32a1.05,1.05,0,0,0-.06-.24.13.13,0,0,0,0-.06s0,0,0,0a3.19,3.19,0,0,0-.11-.33c0-.12-.09-.24-.14-.36a3.72,3.72,0,0,0-.21-.39A3.39,3.39,0,0,0,9,41.91l-.18-.22,0,0,0,0a3.07,3.07,0,0,0-.26-.25,3.22,3.22,0,0,0-.28-.24,2.86,2.86,0,0,0-.42-.29,0,0,0,0,0,0,0l-.06,0a4.16,4.16,0,0,0-.47-.24,1.34,1.34,0,0,0-.3-.12,2.15,2.15,0,0,0-.45-.14H6.42l-.26-.05a1.08,1.08,0,0,0-.19,0l-.19,0-.4,0a4.62,4.62,0,1,0,0,9.24,4.71,4.71,0,0,0,.53,0H6l.45-.08A3.45,3.45,0,0,0,7,49.11l.17-.06L7.3,49l0,0a1.91,1.91,0,0,0,.28-.15,2.63,2.63,0,0,0,.33-.2,2.32,2.32,0,0,0,.3-.22,2.55,2.55,0,0,0,.3-.26l.06-.05a4.48,4.48,0,0,0,.36-.4,3.71,3.71,0,0,0,.23-.32,1.78,1.78,0,0,0,.17-.27,2,2,0,0,0,.13-.25,1.63,1.63,0,0,0,.11-.23l.06-.16,0-.06v0a4.42,4.42,0,0,0,.15-.48l.06-.25a4.91,4.91,0,0,0,.08-.86A2.23,2.23,0,0,0,10,44.41Zm-4.6,3a2.62,2.62,0,1,1,2.54-3.25,2.59,2.59,0,0,1,.08.63A2.63,2.63,0,0,1,5.38,47.4Z"/><path class="cls-1" d="M10,44.41a1.49,1.49,0,0,0,0-.21c0-.11,0-.21-.05-.32a1.05,1.05,0,0,0-.06-.24.13.13,0,0,0,0-.06s0,0,0,0a3.19,3.19,0,0,0-.11-.33c0-.12-.09-.24-.14-.36a3.72,3.72,0,0,0-.21-.39A3.39,3.39,0,0,0,9,41.91l-.18-.22,0,0,0,0a3.07,3.07,0,0,0-.26-.25,3.22,3.22,0,0,0-.28-.24,2.86,2.86,0,0,0-.42-.29,0,0,0,0,0,0,0l-.06,0a4.16,4.16,0,0,0-.47-.24,1.34,1.34,0,0,0-.3-.12,2.15,2.15,0,0,0-.45-.14H6.42l-.26-.05a1.08,1.08,0,0,0-.19,0l-.19,0-.4,0a4.62,4.62,0,1,0,0,9.24,4.71,4.71,0,0,0,.53,0H6l.45-.08A3.45,3.45,0,0,0,7,49.11l.17-.06L7.3,49l0,0a1.91,1.91,0,0,0,.28-.15,2.63,2.63,0,0,0,.33-.2,2.32,2.32,0,0,0,.3-.22,2.55,2.55,0,0,0,.3-.26l.06-.05a4.48,4.48,0,0,0,.36-.4,3.71,3.71,0,0,0,.23-.32,1.78,1.78,0,0,0,.17-.27,2,2,0,0,0,.13-.25,1.63,1.63,0,0,0,.11-.23l.06-.16,0-.06v0a4.42,4.42,0,0,0,.15-.48l.06-.25a4.91,4.91,0,0,0,.08-.86A2.23,2.23,0,0,0,10,44.41Zm-4.6,3a2.62,2.62,0,1,1,2.54-3.25,2.59,2.59,0,0,1,.08.63A2.63,2.63,0,0,1,5.38,47.4Z"/><path class="cls-2" d="M11.24,69.67c0-.11,0-.21,0-.31s0-.11,0-.17a3.08,3.08,0,0,0-.16-.54c0-.13-.09-.25-.14-.37l0,0c-.05-.1-.1-.2-.16-.3a2.63,2.63,0,0,0-.2-.33,2.8,2.8,0,0,0-.24-.33,4.1,4.1,0,0,0-.62-.63l-.1-.08-.24-.18-.12-.08,0,0-.35-.2A1.67,1.67,0,0,0,8.54,66a2.34,2.34,0,0,0-.24-.09l-.09,0-.33-.1a5.41,5.41,0,0,0-.55-.12h0l-.24,0-.42,0a4.62,4.62,0,1,0,4.62,4.62A4.36,4.36,0,0,0,11.24,69.67ZM6.65,72.8a2.62,2.62,0,0,1,0-5.24,2.63,2.63,0,0,1,2.55,2,2.43,2.43,0,0,1,.07.61A2.62,2.62,0,0,1,6.65,72.8Z"/><path class="cls-1" d="M11.24,69.67c0-.11,0-.21,0-.31s0-.11,0-.17a3.08,3.08,0,0,0-.16-.54c0-.13-.09-.25-.14-.37l0,0c-.05-.1-.1-.2-.16-.3a2.63,2.63,0,0,0-.2-.33,2.8,2.8,0,0,0-.24-.33,4.1,4.1,0,0,0-.62-.63l-.1-.08-.24-.18-.12-.08,0,0-.35-.2A1.67,1.67,0,0,0,8.54,66a2.34,2.34,0,0,0-.24-.09l-.09,0-.33-.1a5.41,5.41,0,0,0-.55-.12h0l-.24,0-.42,0a4.62,4.62,0,1,0,4.62,4.62A4.36,4.36,0,0,0,11.24,69.67ZM6.65,72.8a2.62,2.62,0,0,1,0-5.24,2.63,2.63,0,0,1,2.55,2,2.43,2.43,0,0,1,.07.61A2.62,2.62,0,0,1,6.65,72.8Z"/></g></svg>