<svg xmlns="http://www.w3.org/2000/svg" viewBox="0 0 80 80"><defs><style>.cls-1{fill:#7594f9;}</style></defs><title>mini_ikony</title><g id="Vrstva_16" data-name="Vrstva 16"><path class="cls-1" d="M20.76,80a8.9,8.9,0,0,1-6.57-2.41c-3.89-3.89-2.59-11-2.53-11.29a1,1,0,1,1,2,.37c0,.06-1.15,6.37,2,9.52,1.71,1.7,4.45,2.2,8.15,1.5,6.9-1.32,10.18-7.19,11.29-38.55C36,13.66,46.87,4.6,50.2,2.43,53.69.16,57.33-.49,60.21.65a7.71,7.71,0,0,1,4.55,4.53c1.67,4.59-1.22,10.2-1.34,10.43a1,1,0,0,1-1.35.43,1,1,0,0,1-.42-1.35s2.6-5.08,1.23-8.84a5.68,5.68,0,0,0-3.42-3.34c-2.25-.9-5.23-.32-8.17,1.6-3.12,2-13.37,10.58-14.24,35.09C36,68.87,33.1,77.94,24.13,79.64A18,18,0,0,1,20.76,80Z"/><path class="cls-1" d="M22.19,42.52a1,1,0,0,1-.33-2l28.4-10a1,1,0,0,1,.67,1.89l-28.4,10A1,1,0,0,1,22.19,42.52Z"/><path class="cls-1" d="M47.31,71.31a1,1,0,0,1-.7-1.71L66.89,49.52a1,1,0,1,1,1.4,1.42L48,71A1,1,0,0,1,47.31,71.31Z"/><path class="cls-1" d="M67.49,71.41a1,1,0,0,1-.71-.29L46.7,50.83a1,1,0,0,1,1.42-1.4L68.2,69.71a1,1,0,0,1,0,1.41A1,1,0,0,1,67.49,71.41Z"/></g></svg>